<svg version="1.1" viewBox="0.0 0.0 794.49343832021 465.36482939632543" fill="none" stroke="none" stroke-linecap="square" stroke-miterlimit="10" xmlns:xlink="http://www.w3.org/1999/xlink" xmlns="http://www.w3.org/2000/svg"><clipPath id="p.0"><path d="m0 0l794.4934 0l0 465.36484l-794.4934 0l0 -465.36484z" clip-rule="nonzero"/></clipPath><g clip-path="url(#p.0)"><path fill="#000000" fill-opacity="0.0" d="m0 0l794.4934 0l0 465.36484l-794.4934 0z" fill-rule="evenodd"/><path fill="#000000" fill-opacity="0.0" d="m123.44883 99.83465l0 0c0 13.933228 -0.94122314 25.228348 -2.1022797 25.228348l-27.574974 0c-1.1610565 0 -2.1022797 -11.29512 -2.1022797 -25.228348z" fill-rule="evenodd"/><path fill="#000000" fill-opacity="0.0" d="m123.44883 99.83465l0 0c0 13.933228 -0.94122314 25.228348 -2.1022797 25.228348l-27.574974 0c-1.1610565 0 -2.1022797 -11.29512 -2.1022797 -25.228348" fill-rule="evenodd"/><path stroke="#b7b7b7" stroke-width="4.0" stroke-linejoin="round" stroke-linecap="butt" d="m123.44883 99.83465l0 0c0 13.933228 -0.94122314 25.228348 -2.1022797 25.228348l-27.574974 0c-1.1610565 0 -2.1022797 -11.29512 -2.1022797 -25.228348" fill-rule="evenodd"/><path fill="#000000" fill-opacity="0.0" d="m82.198166 58.732285l638.55115 0" fill-rule="evenodd"/><path stroke="#999999" stroke-width="8.0" stroke-linejoin="round" stroke-linecap="butt" d="m82.198166 58.732285l611.1345 0" fill-rule="evenodd"/><path fill="#999999" stroke="#999999" stroke-width="8.0" stroke-linecap="butt" d="m693.33264 58.732285l-8.996643 8.996666l24.71814 -8.996666l-24.71814 -8.99667z" fill-rule="evenodd"/><path fill="#000000" fill-opacity="0.0" d="m82.77034 10.984252l157.5433 0l0 43.74803l-157.5433 0z" fill-rule="evenodd"/><path fill="#000000" d="m93.23909 37.90425l0 -13.359377l9.65625 0l0 1.578125l-7.875 0l0 4.09375l7.375 0l0 1.5625l-7.375 0l0 4.546877l8.1875 0l0 1.578125l-9.96875 0zm14.896698 0l-3.6875 -9.671877l1.734375 0l2.078125 5.796877q0.328125 0.9375 0.625 1.9375q0.203125 -0.765625 0.609375 -1.828125l2.140625 -5.906252l1.6875 0l-3.65625 9.671877l-1.53125 0zm13.265625 -3.109375l1.6875 0.203125q-0.40625 1.484375 -1.484375 2.3125q-1.078125 0.8125 -2.765625 0.8125q-2.125 0 -3.375 -1.296875q-1.234375 -1.3125 -1.234375 -3.671875q0 -2.453127 1.25 -3.796877q1.265625 -1.34375 3.265625 -1.34375q1.9375 0 3.15625 1.328125q1.234375 1.3125 1.234375 3.703127q0 0.15625 0 0.4375l-7.21875 0q0.09375 1.59375 0.90625 2.453125q0.8125 0.84375 2.015625 0.84375q0.90625 0 1.546875 -0.46875q0.640625 -0.484375 1.015625 -1.515625zm-5.390625 -2.65625l5.40625 0q-0.109375 -1.2187519 -0.625 -1.8281269q-0.78125 -0.953125 -2.03125 -0.953125q-1.125 0 -1.90625 0.765625q-0.765625 0.75 -0.84375 2.015627zm9.141342 5.765625l0 -9.671877l1.46875 0l0 1.375q1.0625 -1.59375 3.078125 -1.59375q0.875 0 1.609375 0.3125q0.734375 0.3125 1.09375 0.828125q0.375 0.5 0.515625 1.203125q0.09375 0.453125 0.09375 1.59375l0 5.953127l-1.640625 0l0 -5.890625q0 -1.0000019 -0.203125 -1.4843769q-0.1875 -0.5 -0.671875 -0.796875q-0.484375 -0.296875 -1.140625 -0.296875q-1.046875 0 -1.8125 0.671875q-0.75 0.65625 -0.75 2.515627l0 5.28125l-1.640625 0zm13.953842 -1.46875l0.234375 1.453125q-0.6875 0.140625 -1.234375 0.140625q-0.890625 0 -1.390625 -0.28125q-0.484375 -0.28125 -0.6875 -0.734375q-0.203125 -0.46875 -0.203125 -1.9375l0 -5.578127l-1.203125 0l0 -1.265625l1.203125 0l0 -2.390625l1.625 -0.984375l0 3.375l1.65625 0l0 1.265625l-1.65625 0l0 5.671877q0 0.6875 0.078125 0.890625q0.09375 0.203125 0.28125 0.328125q0.203125 0.109375 0.578125 0.109375q0.265625 0 0.71875 -0.0625zm10.060623 1.46875l0 -11.781252l-4.40625 0l0 -1.578125l10.578125 0l0 1.578125l-4.40625 0l0 11.781252l-1.765625 0zm7.0939026 -11.468752l0 -1.890625l1.640625 0l0 1.890625l-1.640625 0zm0 11.468752l0 -9.671877l1.640625 0l0 9.671877l-1.640625 0zm4.144821 0l0 -9.671877l1.46875 0l0 1.359375q0.453125 -0.71875 1.203125 -1.140625q0.765625 -0.4375 1.71875 -0.4375q1.078125 0 1.765625 0.453125q0.6875 0.4375 0.96875 1.234375q1.15625 -1.6875 2.984375 -1.6875q1.453125 0 2.21875 0.796875q0.78125 0.796875 0.78125 2.453125l0 6.640627l-1.640625 0l0 -6.093752q0 -0.984375 -0.15625 -1.40625q-0.15625 -0.4375 -0.578125 -0.703125q-0.421875 -0.265625 -0.984375 -0.265625q-1.015625 0 -1.6875 0.6875q-0.671875 0.671875 -0.671875 2.156252l0 5.625l-1.640625 0l0 -6.281252q0 -1.09375 -0.40625 -1.640625q-0.40625 -0.546875 -1.3125 -0.546875q-0.6875 0 -1.28125 0.359375q-0.59375 0.359375 -0.859375 1.0625q-0.25 0.703125 -0.25 2.031252l0 5.015625l-1.640625 0zm22.165802 -3.109375l1.6875 0.203125q-0.40625 1.484375 -1.484375 2.3125q-1.078125 0.8125 -2.765625 0.8125q-2.125 0 -3.375 -1.296875q-1.234375 -1.3125 -1.234375 -3.671875q0 -2.453127 1.25 -3.796877q1.265625 -1.34375 3.265625 -1.34375q1.9375 0 3.15625 1.328125q1.234375 1.3125 1.234375 3.703127q0 0.15625 0 0.4375l-7.21875 0q0.09375 1.59375 0.90625 2.453125q0.8125 0.84375 2.015625 0.84375q0.90625 0 1.546875 -0.46875q0.640625 -0.484375 1.015625 -1.515625zm-5.390625 -2.65625l5.40625 0q-0.109375 -1.2187519 -0.625 -1.8281269q-0.78125 -0.953125 -2.03125 -0.953125q-1.125 0 -1.90625 0.765625q-0.765625 0.75 -0.84375 2.015627z" fill-rule="nonzero"/><path fill="#000000" fill-opacity="0.0" d="m154.79155 100.13914l0 0c0 13.933228 -0.94122314 25.228348 -2.1022797 25.228348l-26.724579 0c-1.1610565 0 -2.1022797 -11.29512 -2.1022797 -25.228348z" fill-rule="evenodd"/><path fill="#000000" fill-opacity="0.0" d="m154.79155 100.13914l0 0c0 13.933228 -0.94122314 25.228348 -2.1022797 25.228348l-26.724579 0c-1.1610565 0 -2.1022797 -11.29512 -2.1022797 -25.228348" fill-rule="evenodd"/><path stroke="#b7b7b7" stroke-width="4.0" stroke-linejoin="round" stroke-linecap="butt" d="m154.79155 100.13914l0 0c0 13.933228 -0.94122314 25.228348 -2.1022797 25.228348l-26.724579 0c-1.1610565 0 -2.1022797 -11.29512 -2.1022797 -25.228348" fill-rule="evenodd"/><path fill="#000000" fill-opacity="0.0" d="m186.13426 100.13914l0 0c0 13.933228 -0.94122314 25.228348 -2.1022797 25.228348l-26.724564 0c-1.1610565 0 -2.1022797 -11.29512 -2.1022797 -25.228348z" fill-rule="evenodd"/><path fill="#000000" fill-opacity="0.0" d="m186.13426 100.13914l0 0c0 13.933228 -0.94122314 25.228348 -2.1022797 25.228348l-26.724564 0c-1.1610565 0 -2.1022797 -11.29512 -2.1022797 -25.228348" fill-rule="evenodd"/><path stroke="#b7b7b7" stroke-width="4.0" stroke-linejoin="round" stroke-linecap="butt" d="m186.13426 100.13914l0 0c0 13.933228 -0.94122314 25.228348 -2.1022797 25.228348l-26.724564 0c-1.1610565 0 -2.1022797 -11.29512 -2.1022797 -25.228348" fill-rule="evenodd"/><path fill="#000000" fill-opacity="0.0" d="m217.47699 100.13914l0 0c0 13.933228 -0.94122314 25.228348 -2.1022797 25.228348l-26.724579 0c-1.1610565 0 -2.1022797 -11.29512 -2.1022797 -25.228348z" fill-rule="evenodd"/><path fill="#000000" fill-opacity="0.0" d="m217.47699 100.13914l0 0c0 13.933228 -0.94122314 25.228348 -2.1022797 25.228348l-26.724579 0c-1.1610565 0 -2.1022797 -11.29512 -2.1022797 -25.228348" fill-rule="evenodd"/><path stroke="#b7b7b7" stroke-width="4.0" stroke-linejoin="round" stroke-linecap="butt" d="m217.47699 100.13914l0 0c0 13.933228 -0.94122314 25.228348 -2.1022797 25.228348l-26.724579 0c-1.1610565 0 -2.1022797 -11.29512 -2.1022797 -25.228348" fill-rule="evenodd"/><path fill="#000000" fill-opacity="0.0" d="m249.25363 99.83465l0 0c0 13.933228 -0.9412079 25.228348 -2.1022644 25.228348l-27.574982 0c-1.1610565 0 -2.1022797 -11.29512 -2.1022797 -25.228348z" fill-rule="evenodd"/><path fill="#000000" fill-opacity="0.0" d="m249.25363 99.83465l0 0c0 13.933228 -0.9412079 25.228348 -2.1022644 25.228348l-27.574982 0c-1.1610565 0 -2.1022797 -11.29512 -2.1022797 -25.228348" fill-rule="evenodd"/><path stroke="#b7b7b7" stroke-width="4.0" stroke-linejoin="round" stroke-linecap="butt" d="m249.25363 99.83465l0 0c0 13.933228 -0.9412079 25.228348 -2.1022644 25.228348l-27.574982 0c-1.1610565 0 -2.1022797 -11.29512 -2.1022797 -25.228348" fill-rule="evenodd"/><path fill="#000000" fill-opacity="0.0" d="m280.59634 100.13914l0 0c0 13.933228 -0.94122314 25.228348 -2.1022644 25.228348l-26.724579 0c-1.1610565 0 -2.1022797 -11.29512 -2.1022797 -25.228348z" fill-rule="evenodd"/><path fill="#000000" fill-opacity="0.0" d="m280.59634 100.13914l0 0c0 13.933228 -0.94122314 25.228348 -2.1022644 25.228348l-26.724579 0c-1.1610565 0 -2.1022797 -11.29512 -2.1022797 -25.228348" fill-rule="evenodd"/><path stroke="#b7b7b7" stroke-width="4.0" stroke-linejoin="round" stroke-linecap="butt" d="m280.59634 100.13914l0 0c0 13.933228 -0.94122314 25.228348 -2.1022644 25.228348l-26.724579 0c-1.1610565 0 -2.1022797 -11.29512 -2.1022797 -25.228348" fill-rule="evenodd"/><path fill="#000000" fill-opacity="0.0" d="m311.9391 100.13914l0 0c0 13.933228 -0.94122314 25.228348 -2.102295 25.228348l-26.724579 0c-1.1610413 0 -2.1022644 -11.29512 -2.1022644 -25.228348z" fill-rule="evenodd"/><path fill="#000000" fill-opacity="0.0" d="m311.9391 100.13914l0 0c0 13.933228 -0.94122314 25.228348 -2.102295 25.228348l-26.724579 0c-1.1610413 0 -2.1022644 -11.29512 -2.1022644 -25.228348" fill-rule="evenodd"/><path stroke="#b7b7b7" stroke-width="4.0" stroke-linejoin="round" stroke-linecap="butt" d="m311.9391 100.13914l0 0c0 13.933228 -0.94122314 25.228348 -2.102295 25.228348l-26.724579 0c-1.1610413 0 -2.1022644 -11.29512 -2.1022644 -25.228348" fill-rule="evenodd"/><path fill="#000000" fill-opacity="0.0" d="m343.2818 100.13914l0 0c0 13.933228 -0.94122314 25.228348 -2.1022644 25.228348l-26.724579 0c-1.1610718 0 -2.102295 -11.29512 -2.102295 -25.228348z" fill-rule="evenodd"/><path fill="#000000" fill-opacity="0.0" d="m343.2818 100.13914l0 0c0 13.933228 -0.94122314 25.228348 -2.1022644 25.228348l-26.724579 0c-1.1610718 0 -2.102295 -11.29512 -2.102295 -25.228348" fill-rule="evenodd"/><path stroke="#b7b7b7" stroke-width="4.0" stroke-linejoin="round" stroke-linecap="butt" d="m343.2818 100.13914l0 0c0 13.933228 -0.94122314 25.228348 -2.1022644 25.228348l-26.724579 0c-1.1610718 0 -2.102295 -11.29512 -2.102295 -25.228348" fill-rule="evenodd"/><path fill="#000000" fill-opacity="0.0" d="m375.05844 99.98645l0 0c0 13.933228 -0.94122314 25.228348 -2.1022644 25.228348l-27.574982 0c-1.1610413 0 -2.1022644 -11.29512 -2.1022644 -25.228348z" fill-rule="evenodd"/><path fill="#000000" fill-opacity="0.0" d="m375.05844 99.98645l0 0c0 13.933228 -0.94122314 25.228348 -2.1022644 25.228348l-27.574982 0c-1.1610413 0 -2.1022644 -11.29512 -2.1022644 -25.228348" fill-rule="evenodd"/><path stroke="#b7b7b7" stroke-width="4.0" stroke-linejoin="round" stroke-linecap="butt" d="m375.05844 99.98645l0 0c0 13.933228 -0.94122314 25.228348 -2.1022644 25.228348l-27.574982 0c-1.1610413 0 -2.1022644 -11.29512 -2.1022644 -25.228348" fill-rule="evenodd"/><path fill="#000000" fill-opacity="0.0" d="m406.40118 100.29094l0 0c0 13.933228 -0.94122314 25.228348 -2.102295 25.228348l-26.724579 0c-1.1610413 0 -2.1022644 -11.29512 -2.1022644 -25.228348z" fill-rule="evenodd"/><path fill="#000000" fill-opacity="0.0" d="m406.40118 100.29094l0 0c0 13.933228 -0.94122314 25.228348 -2.102295 25.228348l-26.724579 0c-1.1610413 0 -2.1022644 -11.29512 -2.1022644 -25.228348" fill-rule="evenodd"/><path stroke="#b7b7b7" stroke-width="4.0" stroke-linejoin="round" stroke-linecap="butt" d="m406.40118 100.29094l0 0c0 13.933228 -0.94122314 25.228348 -2.102295 25.228348l-26.724579 0c-1.1610413 0 -2.1022644 -11.29512 -2.1022644 -25.228348" fill-rule="evenodd"/><path fill="#000000" fill-opacity="0.0" d="m437.7439 100.29094l0 0c0 13.933228 -0.94122314 25.228348 -2.102295 25.228348l-26.724579 0c-1.1610413 0 -2.1022644 -11.29512 -2.1022644 -25.228348z" fill-rule="evenodd"/><path fill="#000000" fill-opacity="0.0" d="m437.7439 100.29094l0 0c0 13.933228 -0.94122314 25.228348 -2.102295 25.228348l-26.724579 0c-1.1610413 0 -2.1022644 -11.29512 -2.1022644 -25.228348" fill-rule="evenodd"/><path stroke="#b7b7b7" stroke-width="4.0" stroke-linejoin="round" stroke-linecap="butt" d="m437.7439 100.29094l0 0c0 13.933228 -0.94122314 25.228348 -2.102295 25.228348l-26.724579 0c-1.1610413 0 -2.1022644 -11.29512 -2.1022644 -25.228348" fill-rule="evenodd"/><path fill="#000000" fill-opacity="0.0" d="m469.0866 100.29094l0 0c0 13.933228 -0.94122314 25.228348 -2.1022644 25.228348l-26.724579 0c-1.1610718 0 -2.102295 -11.29512 -2.102295 -25.228348z" fill-rule="evenodd"/><path fill="#000000" fill-opacity="0.0" d="m469.0866 100.29094l0 0c0 13.933228 -0.94122314 25.228348 -2.1022644 25.228348l-26.724579 0c-1.1610718 0 -2.102295 -11.29512 -2.102295 -25.228348" fill-rule="evenodd"/><path stroke="#b7b7b7" stroke-width="4.0" stroke-linejoin="round" stroke-linecap="butt" d="m469.0866 100.29094l0 0c0 13.933228 -0.94122314 25.228348 -2.1022644 25.228348l-26.724579 0c-1.1610718 0 -2.102295 -11.29512 -2.102295 -25.228348" fill-rule="evenodd"/><path fill="#000000" fill-opacity="0.0" d="m500.0152 99.83467l0 0c0 13.933235 -0.94122314 25.228348 -2.102295 25.228348l-26.724548 0c-1.1610718 0 -2.102295 -11.295113 -2.102295 -25.228348z" fill-rule="evenodd"/><path fill="#000000" fill-opacity="0.0" d="m500.0152 99.83467l0 0c0 13.933235 -0.94122314 25.228348 -2.102295 25.228348l-26.724548 0c-1.1610718 0 -2.102295 -11.295113 -2.102295 -25.228348" fill-rule="evenodd"/><path stroke="#b7b7b7" stroke-width="4.0" stroke-linejoin="round" stroke-linecap="butt" d="m500.0152 99.83467l0 0c0 13.933235 -0.94122314 25.228348 -2.102295 25.228348l-26.724548 0c-1.1610718 0 -2.102295 -11.295113 -2.102295 -25.228348" fill-rule="evenodd"/><path fill="#000000" fill-opacity="0.0" d="m531.3579 99.83467l0 0c0 13.933235 -0.94122314 25.228348 -2.102295 25.228348l-26.724548 0c-1.1610718 0 -2.102295 -11.295113 -2.102295 -25.228348z" fill-rule="evenodd"/><path fill="#000000" fill-opacity="0.0" d="m531.3579 99.83467l0 0c0 13.933235 -0.94122314 25.228348 -2.102295 25.228348l-26.724548 0c-1.1610718 0 -2.102295 -11.295113 -2.102295 -25.228348" fill-rule="evenodd"/><path stroke="#b7b7b7" stroke-width="4.0" stroke-linejoin="round" stroke-linecap="butt" d="m531.3579 99.83467l0 0c0 13.933235 -0.94122314 25.228348 -2.102295 25.228348l-26.724548 0c-1.1610718 0 -2.102295 -11.295113 -2.102295 -25.228348" fill-rule="evenodd"/><path fill="#000000" fill-opacity="0.0" d="m563.1346 99.681984l0 0c0 13.933235 -0.94122314 25.228348 -2.102295 25.228348l-27.574951 0c-1.1610718 0 -2.102295 -11.295113 -2.102295 -25.228348z" fill-rule="evenodd"/><path fill="#000000" fill-opacity="0.0" d="m563.1346 99.681984l0 0c0 13.933235 -0.94122314 25.228348 -2.102295 25.228348l-27.574951 0c-1.1610718 0 -2.102295 -11.295113 -2.102295 -25.228348" fill-rule="evenodd"/><path stroke="#b7b7b7" stroke-width="4.0" stroke-linejoin="round" stroke-linecap="butt" d="m563.1346 99.681984l0 0c0 13.933235 -0.94122314 25.228348 -2.102295 25.228348l-27.574951 0c-1.1610718 0 -2.102295 -11.295113 -2.102295 -25.228348" fill-rule="evenodd"/><path fill="#000000" fill-opacity="0.0" d="m594.4773 99.98647l0 0c0 13.933235 -0.94122314 25.228348 -2.102295 25.228348l-26.724548 0c-1.1610718 0 -2.102295 -11.295113 -2.102295 -25.228348z" fill-rule="evenodd"/><path fill="#000000" fill-opacity="0.0" d="m594.4773 99.98647l0 0c0 13.933235 -0.94122314 25.228348 -2.102295 25.228348l-26.724548 0c-1.1610718 0 -2.102295 -11.295113 -2.102295 -25.228348" fill-rule="evenodd"/><path stroke="#b7b7b7" stroke-width="4.0" stroke-linejoin="round" stroke-linecap="butt" d="m594.4773 99.98647l0 0c0 13.933235 -0.94122314 25.228348 -2.102295 25.228348l-26.724548 0c-1.1610718 0 -2.102295 -11.295113 -2.102295 -25.228348" fill-rule="evenodd"/><path fill="#000000" fill-opacity="0.0" d="m625.82 99.98647l0 0c0 13.933235 -0.94122314 25.228348 -2.102295 25.228348l-26.724548 0c-1.1610718 0 -2.102295 -11.295113 -2.102295 -25.228348z" fill-rule="evenodd"/><path fill="#000000" fill-opacity="0.0" d="m625.82 99.98647l0 0c0 13.933235 -0.94122314 25.228348 -2.102295 25.228348l-26.724548 0c-1.1610718 0 -2.102295 -11.295113 -2.102295 -25.228348" fill-rule="evenodd"/><path stroke="#b7b7b7" stroke-width="4.0" stroke-linejoin="round" stroke-linecap="butt" d="m625.82 99.98647l0 0c0 13.933235 -0.94122314 25.228348 -2.102295 25.228348l-26.724548 0c-1.1610718 0 -2.102295 -11.295113 -2.102295 -25.228348" fill-rule="evenodd"/><path fill="#000000" fill-opacity="0.0" d="m657.1627 99.98647l0 0c0 13.933235 -0.94122314 25.228348 -2.102295 25.228348l-26.724548 0c-1.1610718 0 -2.102295 -11.295113 -2.102295 -25.228348z" fill-rule="evenodd"/><path fill="#000000" fill-opacity="0.0" d="m657.1627 99.98647l0 0c0 13.933235 -0.94122314 25.228348 -2.102295 25.228348l-26.724548 0c-1.1610718 0 -2.102295 -11.295113 -2.102295 -25.228348" fill-rule="evenodd"/><path stroke="#b7b7b7" stroke-width="4.0" stroke-linejoin="round" stroke-linecap="butt" d="m657.1627 99.98647l0 0c0 13.933235 -0.94122314 25.228348 -2.102295 25.228348l-26.724548 0c-1.1610718 0 -2.102295 -11.295113 -2.102295 -25.228348" fill-rule="evenodd"/><path fill="#000000" fill-opacity="0.0" d="m592.7113 205.56299l0 0c0 13.933228 -0.94122314 25.228348 -2.102295 25.228348l-496.8348 0c-1.1610565 0 -2.1022797 -11.29512 -2.1022797 -25.228348z" fill-rule="evenodd"/><path fill="#000000" fill-opacity="0.0" d="m592.7113 205.56299l0 0c0 13.933228 -0.94122314 25.228348 -2.102295 25.228348l-496.8348 0c-1.1610565 0 -2.1022797 -11.29512 -2.1022797 -25.228348" fill-rule="evenodd"/><path stroke="#b7b7b7" stroke-width="4.0" stroke-linejoin="round" stroke-linecap="butt" d="m592.7113 205.56299l0 0c0 13.933228 -0.94122314 25.228348 -2.102295 25.228348l-496.8348 0c-1.1610565 0 -2.1022797 -11.29512 -2.1022797 -25.228348" fill-rule="evenodd"/><path fill="#000000" fill-opacity="0.0" d="m624.72705 311.2651l0 0c0 13.933228 -0.94122314 25.228333 -2.102295 25.228333l-496.6458 0c-1.1610565 0 -2.1022797 -11.295105 -2.1022797 -25.228333z" fill-rule="evenodd"/><path fill="#000000" fill-opacity="0.0" d="m624.72705 311.2651l0 0c0 13.933228 -0.94122314 25.228333 -2.102295 25.228333l-496.6458 0c-1.1610565 0 -2.1022797 -11.295105 -2.1022797 -25.228333" fill-rule="evenodd"/><path stroke="#b7b7b7" stroke-width="4.0" stroke-linejoin="round" stroke-linecap="butt" d="m624.72705 311.2651l0 0c0 13.933228 -0.94122314 25.228333 -2.102295 25.228333l-496.6458 0c-1.1610565 0 -2.1022797 -11.295105 -2.1022797 -25.228333" fill-rule="evenodd"/><path fill="#000000" fill-opacity="0.0" d="m651.53284 416.96588l0 0c0 13.933228 -0.94122314 25.228333 -2.102295 25.228333l-492.55136 0c-1.1610565 0 -2.1022797 -11.295105 -2.1022797 -25.228333z" fill-rule="evenodd"/><path fill="#000000" fill-opacity="0.0" d="m651.53284 416.96588l0 0c0 13.933228 -0.94122314 25.228333 -2.102295 25.228333l-492.55136 0c-1.1610565 0 -2.1022797 -11.295105 -2.1022797 -25.228333" fill-rule="evenodd"/><path stroke="#b7b7b7" stroke-width="4.0" stroke-linejoin="round" stroke-linecap="butt" d="m651.53284 416.96588l0 0c0 13.933228 -0.94122314 25.228333 -2.102295 25.228333l-492.55136 0c-1.1610565 0 -2.1022797 -11.295105 -2.1022797 -25.228333" fill-rule="evenodd"/><path fill="#000000" fill-opacity="0.0" d="m113.19948 129.55643l153.38582 44.692917" fill-rule="evenodd"/><path stroke="#000000" stroke-width="1.0" stroke-linejoin="round" stroke-linecap="butt" stroke-dasharray="1.0,3.0" d="m113.19948 129.55643l153.38582 44.692917" fill-rule="evenodd"/><path fill="#000000" fill-opacity="0.0" d="m147.45145 128.81364l125.82678 37.984253" fill-rule="evenodd"/><path stroke="#000000" stroke-width="1.0" stroke-linejoin="round" stroke-linecap="butt" stroke-dasharray="1.0,3.0" d="m147.45145 128.81364l125.82678 37.984253" fill-rule="evenodd"/><path fill="#000000" fill-opacity="0.0" d="m206.27296 127.32284l62.551193 26.047234" fill-rule="evenodd"/><path stroke="#000000" stroke-width="1.0" stroke-linejoin="round" stroke-linecap="butt" stroke-dasharray="1.0,3.0" d="m206.27296 127.32284l62.551193 26.047234" fill-rule="evenodd"/><path fill="#000000" fill-opacity="0.0" d="m236.80052 127.32284l60.314957 28.283455" fill-rule="evenodd"/><path stroke="#000000" stroke-width="1.0" stroke-linejoin="round" stroke-linecap="butt" stroke-dasharray="1.0,3.0" d="m236.80052 127.32284l60.314957 28.283455" fill-rule="evenodd"/><path fill="#000000" fill-opacity="0.0" d="m273.2861 128.81364l42.456665 26.803146" fill-rule="evenodd"/><path stroke="#000000" stroke-width="1.0" stroke-linejoin="round" stroke-linecap="butt" stroke-dasharray="1.0,3.0" d="m273.2861 128.81364l42.456665 26.803146" fill-rule="evenodd"/><path fill="#000000" fill-opacity="0.0" d="m299.34647 128.81364l23.086609 23.84253" fill-rule="evenodd"/><path stroke="#000000" stroke-width="1.0" stroke-linejoin="round" stroke-linecap="butt" stroke-dasharray="1.0,3.0" d="m299.34647 128.81364l23.086609 23.84253" fill-rule="evenodd"/><path fill="#000000" fill-opacity="0.0" d="m329.1286 130.30183l5.952759 17.133865" fill-rule="evenodd"/><path stroke="#000000" stroke-width="1.0" stroke-linejoin="round" stroke-linecap="butt" stroke-dasharray="1.0,3.0" d="m329.1286 130.30183l5.952759 17.133865" fill-rule="evenodd"/><path fill="#000000" fill-opacity="0.0" d="m361.88977 128.81364l-2.2362366 17.858276" fill-rule="evenodd"/><path stroke="#000000" stroke-width="1.0" stroke-linejoin="round" stroke-linecap="butt" stroke-dasharray="1.0,3.0" d="m361.88977 128.81364l-2.2362366 17.858276" fill-rule="evenodd"/><path fill="#000000" fill-opacity="0.0" d="m393.16272 128.81364l-5.2283325 12.661423" fill-rule="evenodd"/><path stroke="#000000" stroke-width="1.0" stroke-linejoin="round" stroke-linecap="butt" stroke-dasharray="1.0,3.0" d="m393.16272 128.81364l-5.2283325 12.661423" fill-rule="evenodd"/><path fill="#000000" fill-opacity="0.0" d="m424.4357 130.30183l-21.606293 25.32283" fill-rule="evenodd"/><path stroke="#000000" stroke-width="1.0" stroke-linejoin="round" stroke-linecap="butt" stroke-dasharray="1.0,3.0" d="m424.4357 130.30183l-21.606293 25.32283" fill-rule="evenodd"/><path fill="#000000" fill-opacity="0.0" d="m452.72964 129.55643l-30.519684 29.039368" fill-rule="evenodd"/><path stroke="#000000" stroke-width="1.0" stroke-linejoin="round" stroke-linecap="butt" stroke-dasharray="1.0,3.0" d="m452.72964 129.55643l-30.519684 29.039368" fill-rule="evenodd"/><path fill="#000000" fill-opacity="0.0" d="m485.4908 128.81364l-55.08661 37.984253" fill-rule="evenodd"/><path stroke="#000000" stroke-width="1.0" stroke-linejoin="round" stroke-linecap="butt" stroke-dasharray="1.0,3.0" d="m485.4908 128.81364l-55.08661 37.984253" fill-rule="evenodd"/><path fill="#000000" fill-opacity="0.0" d="m509.3176 131.79002l-65.51181 40.220474" fill-rule="evenodd"/><path stroke="#000000" stroke-width="1.0" stroke-linejoin="round" stroke-linecap="butt" stroke-dasharray="1.0,3.0" d="m509.3176 131.79002l-65.51181 40.220474" fill-rule="evenodd"/><path fill="#000000" fill-opacity="0.0" d="m541.3333 131.04724l-93.07083 52.157486" fill-rule="evenodd"/><path stroke="#000000" stroke-width="1.0" stroke-linejoin="round" stroke-linecap="butt" stroke-dasharray="1.0,3.0" d="m541.3333 131.04724l-93.07083 52.157486" fill-rule="evenodd"/><path fill="#000000" fill-opacity="0.0" d="m575.5853 128.81364l-122.11026 60.314972" fill-rule="evenodd"/><path stroke="#000000" stroke-width="1.0" stroke-linejoin="round" stroke-linecap="butt" stroke-dasharray="1.0,3.0" d="m575.5853 128.81364l-122.11026 60.314972" fill-rule="evenodd"/><path fill="#000000" fill-opacity="0.0" d="m109.47769 130.30183l189.13385 129.54332" fill-rule="evenodd"/><path stroke="#000000" stroke-width="1.0" stroke-linejoin="round" stroke-linecap="butt" stroke-dasharray="1.0,3.0" d="m109.47769 130.30183l189.13385 129.54332" fill-rule="evenodd"/><path fill="#000000" fill-opacity="0.0" d="m141.49344 129.55643l163.81104 125.10237" fill-rule="evenodd"/><path stroke="#000000" stroke-width="1.0" stroke-linejoin="round" stroke-linecap="butt" stroke-dasharray="1.0,3.0" d="m141.49344 129.55643l163.81104 125.10237" fill-rule="evenodd"/><path fill="#000000" fill-opacity="0.0" d="m178.72179 130.30183l77.44881 25.32283" fill-rule="evenodd"/><path stroke="#000000" stroke-width="1.0" stroke-linejoin="round" stroke-linecap="butt" stroke-dasharray="1.0,3.0" d="m178.72179 130.30183l77.44881 25.32283" fill-rule="evenodd"/><path fill="#000000" fill-opacity="0.0" d="m170.5328 129.55643l150.3937 125.10237" fill-rule="evenodd"/><path stroke="#000000" stroke-width="1.0" stroke-linejoin="round" stroke-linecap="butt" stroke-dasharray="1.0,3.0" d="m170.5328 129.55643l150.3937 125.10237" fill-rule="evenodd"/><path fill="#000000" fill-opacity="0.0" d="m202.54855 128.81364l131.77954 128.8189" fill-rule="evenodd"/><path stroke="#000000" stroke-width="1.0" stroke-linejoin="round" stroke-linecap="butt" stroke-dasharray="1.0,3.0" d="m202.54855 128.81364l131.77954 128.8189" fill-rule="evenodd"/><path fill="#000000" fill-opacity="0.0" d="m230.84251 127.32284l115.401566 131.05511" fill-rule="evenodd"/><path stroke="#000000" stroke-width="1.0" stroke-linejoin="round" stroke-linecap="butt" stroke-dasharray="1.0,3.0" d="m230.84251 127.32284l115.401566 131.05511" fill-rule="evenodd"/><path fill="#000000" fill-opacity="0.0" d="m266.58267 128.81364l90.11023 128.8189" fill-rule="evenodd"/><path stroke="#000000" stroke-width="1.0" stroke-linejoin="round" stroke-linecap="butt" stroke-dasharray="1.0,3.0" d="m266.58267 128.81364l90.11023 128.8189" fill-rule="evenodd"/><path fill="#000000" fill-opacity="0.0" d="m296.36746 128.81364l71.49606 129.54332" fill-rule="evenodd"/><path stroke="#000000" stroke-width="1.0" stroke-linejoin="round" stroke-linecap="butt" stroke-dasharray="1.0,3.0" d="m296.36746 128.81364l71.49606 129.54332" fill-rule="evenodd"/><path fill="#000000" fill-opacity="0.0" d="m332.8504 127.32284l42.456696 132.53543" fill-rule="evenodd"/><path stroke="#000000" stroke-width="1.0" stroke-linejoin="round" stroke-linecap="butt" stroke-dasharray="1.0,3.0" d="m332.8504 127.32284l42.456696 132.53543" fill-rule="evenodd"/><path fill="#000000" fill-opacity="0.0" d="m366.35696 130.30183l13.417328 125.82677" fill-rule="evenodd"/><path stroke="#000000" stroke-width="1.0" stroke-linejoin="round" stroke-linecap="butt" stroke-dasharray="1.0,3.0" d="m366.35696 130.30183l13.417328 125.82677" fill-rule="evenodd"/><path fill="#000000" fill-opacity="0.0" d="m396.88452 130.30183l-8.188995 126.58269" fill-rule="evenodd"/><path stroke="#000000" stroke-width="1.0" stroke-linejoin="round" stroke-linecap="butt" stroke-dasharray="1.0,3.0" d="m396.88452 130.30183l-8.188995 126.58269" fill-rule="evenodd"/><path fill="#000000" fill-opacity="0.0" d="m427.41208 131.04724l-23.086609 125.102356" fill-rule="evenodd"/><path stroke="#000000" stroke-width="1.0" stroke-linejoin="round" stroke-linecap="butt" stroke-dasharray="1.0,3.0" d="m427.41208 131.04724l-23.086609 125.102356" fill-rule="evenodd"/><path fill="#000000" fill-opacity="0.0" d="m457.19684 131.04724l-31.275574 119.14961" fill-rule="evenodd"/><path stroke="#000000" stroke-width="1.0" stroke-linejoin="round" stroke-linecap="butt" stroke-dasharray="1.0,3.0" d="m457.19684 131.04724l-31.275574 119.14961" fill-rule="evenodd"/><path fill="#000000" fill-opacity="0.0" d="m489.958 128.06824l-51.370087 128.81891" fill-rule="evenodd"/><path stroke="#000000" stroke-width="1.0" stroke-linejoin="round" stroke-linecap="butt" stroke-dasharray="1.0,3.0" d="m489.958 128.06824l-51.370087 128.81891" fill-rule="evenodd"/><path fill="#000000" fill-opacity="0.0" d="m518.25195 128.06824l-64.031494 134.01575" fill-rule="evenodd"/><path stroke="#000000" stroke-width="1.0" stroke-linejoin="round" stroke-linecap="butt" stroke-dasharray="1.0,3.0" d="m518.25195 128.06824l-64.031494 134.01575" fill-rule="evenodd"/><path fill="#000000" fill-opacity="0.0" d="m547.2913 129.55643l-85.63779 137.00787" fill-rule="evenodd"/><path stroke="#000000" stroke-width="1.0" stroke-linejoin="round" stroke-linecap="butt" stroke-dasharray="1.0,3.0" d="m547.2913 129.55643l-85.63779 137.00787" fill-rule="evenodd"/><path fill="#000000" fill-opacity="0.0" d="m579.30707 128.81364l-105.73227 143.71654" fill-rule="evenodd"/><path stroke="#000000" stroke-width="1.0" stroke-linejoin="round" stroke-linecap="butt" stroke-dasharray="1.0,3.0" d="m579.30707 128.81364l-105.73227 143.71654" fill-rule="evenodd"/><path fill="#fce5cd" d="m403.1546 377.12515l30.801727 -21.610718l-3.03714 19.840881l34.964386 -3.2341614l-13.886444 10.648865l36.371216 3.0627441l-28.881805 8.711365l33.044434 10.488647l-39.416656 -1.2966614l10.824493 19.200012l-34.13681 -13.555145l-6.3970337 19.673218l-22.468231 -17.892181l-16.940125 24.83368l-6.372223 -22.25531l-24.437805 7.4147034l7.4894104 -13.711609l-45.78058 2.421875l29.68454 -10.4774475l-30.801727 -11.774109l38.291138 -3.7185364l-35.229187 -19.829681l57.449158 14.99707l8.606598 -14.99707z" fill-rule="evenodd"/><path stroke="#cccccc" stroke-width="1.0" stroke-linejoin="round" stroke-linecap="butt" d="m403.1546 377.12515l30.801727 -21.610718l-3.03714 19.840881l34.964386 -3.2341614l-13.886444 10.648865l36.371216 3.0627441l-28.881805 8.711365l33.044434 10.488647l-39.416656 -1.2966614l10.824493 19.200012l-34.13681 -13.555145l-6.3970337 19.673218l-22.468231 -17.892181l-16.940125 24.83368l-6.372223 -22.25531l-24.437805 7.4147034l7.4894104 -13.711609l-45.78058 2.421875l29.68454 -10.4774475l-30.801727 -11.774109l38.291138 -3.7185364l-35.229187 -19.829681l57.449158 14.99707l8.606598 -14.99707z" fill-rule="evenodd"/><path fill="#000000" d="m372.03812 395.48557l1.765625 0.453125q-0.5625 2.171875 -2.0 3.328125q-1.4375 1.140625 -3.53125 1.140625q-2.15625 0 -3.515625 -0.875q-1.34375 -0.890625 -2.0625 -2.546875q-0.703125 -1.671875 -0.703125 -3.59375q0 -2.078125 0.796875 -3.625q0.796875 -1.5625 2.265625 -2.359375q1.484375 -0.8125 3.25 -0.8125q2.0 0 3.359375 1.015625q1.375 1.015625 1.90625 2.875l-1.734375 0.40625q-0.46875 -1.453125 -1.359375 -2.109375q-0.875 -0.671875 -2.203125 -0.671875q-1.546875 0 -2.578125 0.734375q-1.03125 0.734375 -1.453125 1.984375q-0.421875 1.234375 -0.421875 2.5625q0 1.703125 0.5 2.96875q0.5 1.265625 1.546875 1.90625q1.046875 0.625 2.265625 0.625q1.484375 0 2.515625 -0.859375q1.03125 -0.859375 1.390625 -2.546875zm3.1292114 -0.15625q0 -2.6875 1.484375 -3.96875q1.25 -1.078125 3.046875 -1.078125q2.0 0 3.265625 1.3125q1.265625 1.296875 1.265625 3.609375q0 1.859375 -0.5625 2.9375q-0.5625 1.0625 -1.640625 1.65625q-1.0625 0.59375 -2.328125 0.59375q-2.03125 0 -3.28125 -1.296875q-1.25 -1.3125 -1.25 -3.765625zm1.6875 0q0 1.859375 0.796875 2.796875q0.8125 0.921875 2.046875 0.921875q1.21875 0 2.03125 -0.921875q0.8125 -0.9375 0.8125 -2.84375q0 -1.796875 -0.8125 -2.71875q-0.8125 -0.921875 -2.03125 -0.921875q-1.234375 0 -2.046875 0.921875q-0.796875 0.90625 -0.796875 2.765625zm9.297577 4.84375l0 -9.671875l1.46875 0l0 1.359375q0.453125 -0.71875 1.203125 -1.140625q0.765625 -0.4375 1.71875 -0.4375q1.078125 0 1.765625 0.453125q0.6875 0.4375 0.96875 1.234375q1.15625 -1.6875 2.984375 -1.6875q1.453125 0 2.21875 0.796875q0.78125 0.796875 0.78125 2.453125l0 6.640625l-1.640625 0l0 -6.09375q0 -0.984375 -0.15625 -1.40625q-0.15625 -0.4375 -0.578125 -0.703125q-0.421875 -0.265625 -0.984375 -0.265625q-1.015625 0 -1.6875 0.6875q-0.671875 0.671875 -0.671875 2.15625l0 5.625l-1.640625 0l0 -6.28125q0 -1.09375 -0.40625 -1.640625q-0.40625 -0.546875 -1.3125 -0.546875q-0.6875 0 -1.28125 0.359375q-0.59375 0.359375 -0.859375 1.0625q-0.25 0.703125 -0.25 2.03125l0 5.015625l-1.640625 0zm17.040802 0l-1.515625 0l0 -13.359375l1.640625 0l0 4.765625q1.046875 -1.296875 2.65625 -1.296875q0.890625 0 1.6875 0.359375q0.796875 0.359375 1.3125 1.015625q0.515625 0.640625 0.796875 1.5625q0.296875 0.921875 0.296875 1.96875q0 2.484375 -1.234375 3.84375q-1.21875 1.359375 -2.953125 1.359375q-1.703125 0 -2.6875 -1.4375l0 1.21875zm-0.015625 -4.90625q0 1.734375 0.484375 2.515625q0.765625 1.265625 2.09375 1.265625q1.078125 0 1.859375 -0.9375q0.78125 -0.9375 0.78125 -2.78125q0 -1.890625 -0.75 -2.796875q-0.75 -0.90625 -1.828125 -0.90625q-1.0625 0 -1.859375 0.9375q-0.78125 0.9375 -0.78125 2.703125zm8.891357 -6.5625l0 -1.890625l1.640625 0l0 1.890625l-1.640625 0zm0 11.46875l0 -9.671875l1.640625 0l0 9.671875l-1.640625 0zm4.144806 0l0 -9.671875l1.46875 0l0 1.375q1.0625 -1.59375 3.078125 -1.59375q0.875 0 1.609375 0.3125q0.734375 0.3125 1.09375 0.828125q0.375 0.5 0.515625 1.203125q0.09375 0.453125 0.09375 1.59375l0 5.953125l-1.640625 0l0 -5.890625q0 -1.0 -0.203125 -1.484375q-0.1875 -0.5 -0.671875 -0.796875q-0.484375 -0.296875 -1.140625 -0.296875q-1.046875 0 -1.8125 0.671875q-0.75 0.65625 -0.75 2.515625l0 5.28125l-1.640625 0zm17.000732 -3.109375l1.6875 0.203125q-0.40625 1.484375 -1.484375 2.3125q-1.078125 0.8125 -2.765625 0.8125q-2.125 0 -3.375 -1.296875q-1.234375 -1.3125 -1.234375 -3.671875q0 -2.453125 1.25 -3.796875q1.265625 -1.34375 3.265625 -1.34375q1.9375 0 3.15625 1.328125q1.234375 1.3125 1.234375 3.703125q0 0.15625 0 0.4375l-7.21875 0q0.09375 1.59375 0.90625 2.453125q0.8125 0.84375 2.015625 0.84375q0.90625 0 1.546875 -0.46875q0.640625 -0.484375 1.015625 -1.515625zm-5.390625 -2.65625l5.40625 0q-0.109375 -1.21875 -0.625 -1.828125q-0.78125 -0.953125 -2.03125 -0.953125q-1.125 0 -1.90625 0.765625q-0.765625 0.75 -0.84375 2.015625zm10.016327 2.453125l-0.5 -7.078125l0 -2.96875l2.03125 0l0 2.96875l-0.484375 7.078125l-1.046875 0zm-0.4375 3.3125l0 -1.875l1.890625 0l0 1.875l-1.890625 0z" fill-rule="nonzero"/><path fill="#000000" fill-opacity="0.0" d="m105.75328 131.04724l205.51183 247.93701" fill-rule="evenodd"/><path stroke="#000000" stroke-width="1.0" stroke-linejoin="round" stroke-linecap="butt" stroke-dasharray="1.0,3.0" d="m105.75328 131.04724l205.51183 247.93701" fill-rule="evenodd"/><path fill="#000000" fill-opacity="0.0" d="m135.53806 128.81364l174.23624 237.51183" fill-rule="evenodd"/><path stroke="#000000" stroke-width="1.0" stroke-linejoin="round" stroke-linecap="butt" stroke-dasharray="1.0,3.0" d="m135.53806 128.81364l174.23624 237.51183" fill-rule="evenodd"/><path fill="#000000" fill-opacity="0.0" d="m169.04462 128.81364l148.91339 234.5512" fill-rule="evenodd"/><path stroke="#000000" stroke-width="1.0" stroke-linejoin="round" stroke-linecap="butt" stroke-dasharray="1.0,3.0" d="m169.04462 128.81364l148.91339 234.5512" fill-rule="evenodd"/><path fill="#000000" fill-opacity="0.0" d="m198.82677 128.81364l128.063 233.03938" fill-rule="evenodd"/><path stroke="#000000" stroke-width="1.0" stroke-linejoin="round" stroke-linecap="butt" stroke-dasharray="1.0,3.0" d="m198.82677 128.81364l128.063 233.03938" fill-rule="evenodd"/><path fill="#000000" fill-opacity="0.0" d="m230.09973 128.81364l107.968506 236.03151" fill-rule="evenodd"/><path stroke="#000000" stroke-width="1.0" stroke-linejoin="round" stroke-linecap="butt" stroke-dasharray="1.0,3.0" d="m230.09973 128.81364l107.968506 236.03151" fill-rule="evenodd"/><path fill="#000000" fill-opacity="0.0" d="m264.3491 127.32284l81.165344 236.78738" fill-rule="evenodd"/><path stroke="#000000" stroke-width="1.0" stroke-linejoin="round" stroke-linecap="butt" stroke-dasharray="1.0,3.0" d="m264.3491 127.32284l81.165344 236.78738" fill-rule="evenodd"/><path fill="#000000" fill-opacity="0.0" d="m293.38846 128.06824l63.275574 239.02362" fill-rule="evenodd"/><path stroke="#000000" stroke-width="1.0" stroke-linejoin="round" stroke-linecap="butt" stroke-dasharray="1.0,3.0" d="m293.38846 128.06824l63.275574 239.02362" fill-rule="evenodd"/><path fill="#000000" fill-opacity="0.0" d="m323.91602 129.55643l41.700775 236.0315" fill-rule="evenodd"/><path stroke="#000000" stroke-width="1.0" stroke-linejoin="round" stroke-linecap="butt" stroke-dasharray="1.0,3.0" d="m323.91602 129.55643l41.700775 236.0315" fill-rule="evenodd"/><path fill="#000000" fill-opacity="0.0" d="m355.18896 128.06824l20.094513 232.31497" fill-rule="evenodd"/><path stroke="#000000" stroke-width="1.0" stroke-linejoin="round" stroke-linecap="butt" stroke-dasharray="1.0,3.0" d="m355.18896 128.06824l20.094513 232.31497" fill-rule="evenodd"/><path fill="#000000" fill-opacity="0.0" d="m401.3517 128.81364l-13.417328 230.83464" fill-rule="evenodd"/><path stroke="#000000" stroke-width="1.0" stroke-linejoin="round" stroke-linecap="butt" stroke-dasharray="1.0,3.0" d="m401.3517 128.81364l-13.417328 230.83464" fill-rule="evenodd"/><path fill="#000000" fill-opacity="0.0" d="m431.13647 128.81364l-34.236206 230.83464" fill-rule="evenodd"/><path stroke="#000000" stroke-width="1.0" stroke-linejoin="round" stroke-linecap="butt" stroke-dasharray="1.0,3.0" d="m431.13647 128.81364l-34.236206 230.83464" fill-rule="evenodd"/><path fill="#000000" fill-opacity="0.0" d="m462.40945 128.81364l-50.64566 231.55907" fill-rule="evenodd"/><path stroke="#000000" stroke-width="1.0" stroke-linejoin="round" stroke-linecap="butt" stroke-dasharray="1.0,3.0" d="m462.40945 128.81364l-50.64566 231.55907" fill-rule="evenodd"/><path fill="#000000" fill-opacity="0.0" d="m494.4252 128.81364l-64.787415 225.60631" fill-rule="evenodd"/><path stroke="#000000" stroke-width="1.0" stroke-linejoin="round" stroke-linecap="butt" stroke-dasharray="1.0,3.0" d="m494.4252 128.81364l-64.787415 225.60631" fill-rule="evenodd"/><path fill="#000000" fill-opacity="0.0" d="m521.9764 128.81364l-78.17322 233.79527" fill-rule="evenodd"/><path stroke="#000000" stroke-width="1.0" stroke-linejoin="round" stroke-linecap="butt" stroke-dasharray="1.0,3.0" d="m521.9764 128.81364l-78.17322 233.79527" fill-rule="evenodd"/><path fill="#000000" fill-opacity="0.0" d="m556.2257 128.81364l-101.25983 233.79527" fill-rule="evenodd"/><path stroke="#000000" stroke-width="1.0" stroke-linejoin="round" stroke-linecap="butt" stroke-dasharray="1.0,3.0" d="m556.2257 128.81364l-101.25983 233.79527" fill-rule="evenodd"/><path fill="#000000" fill-opacity="0.0" d="m587.49866 128.06824l-117.63776 238.26773" fill-rule="evenodd"/><path stroke="#000000" stroke-width="1.0" stroke-linejoin="round" stroke-linecap="butt" stroke-dasharray="1.0,3.0" d="m587.49866 128.06824l-117.63776 238.26773" fill-rule="evenodd"/><path fill="#fce5cd" d="m390.54828 271.81018l30.801758 -21.610703l-3.03714 19.840866l34.964386 -3.2341614l-13.886444 10.648865l36.371216 3.0627747l-28.881805 8.711334l33.044434 10.488647l-39.416656 -1.2966309l10.824493 19.199982l-34.13681 -13.555115l-6.3970337 19.673187l-22.468231 -17.892181l-16.940155 24.83368l-6.3721924 -22.25528l-24.437805 7.4147034l7.4894104 -13.711639l-45.78058 2.4219055l29.68454 -10.477478l-30.801758 -11.774109l38.29117 -3.7185364l-35.229187 -19.829681l57.449158 14.99707l8.606598 -14.99707z" fill-rule="evenodd"/><path stroke="#cccccc" stroke-width="1.0" stroke-linejoin="round" stroke-linecap="butt" d="m390.54828 271.81018l30.801758 -21.610703l-3.03714 19.840866l34.964386 -3.2341614l-13.886444 10.648865l36.371216 3.0627747l-28.881805 8.711334l33.044434 10.488647l-39.416656 -1.2966309l10.824493 19.199982l-34.13681 -13.555115l-6.3970337 19.673187l-22.468231 -17.892181l-16.940155 24.83368l-6.3721924 -22.25528l-24.437805 7.4147034l7.4894104 -13.711639l-45.78058 2.4219055l29.68454 -10.477478l-30.801758 -11.774109l38.29117 -3.7185364l-35.229187 -19.829681l57.449158 14.99707l8.606598 -14.99707z" fill-rule="evenodd"/><path fill="#000000" d="m359.43182 290.1706l1.765625 0.453125q-0.5625 2.171875 -2.0 3.328125q-1.4375 1.140625 -3.53125 1.140625q-2.15625 0 -3.515625 -0.875q-1.34375 -0.890625 -2.0625 -2.546875q-0.703125 -1.671875 -0.703125 -3.59375q0 -2.078125 0.796875 -3.625q0.796875 -1.5625 2.265625 -2.359375q1.484375 -0.8125 3.25 -0.8125q2.0 0 3.359375 1.015625q1.375 1.015625 1.90625 2.875l-1.734375 0.40625q-0.46875 -1.453125 -1.359375 -2.109375q-0.875 -0.671875 -2.203125 -0.671875q-1.546875 0 -2.578125 0.734375q-1.03125 0.734375 -1.453125 1.984375q-0.421875 1.234375 -0.421875 2.5625q0 1.703125 0.5 2.96875q0.5 1.265625 1.546875 1.90625q1.046875 0.625 2.265625 0.625q1.484375 0 2.515625 -0.859375q1.03125 -0.859375 1.390625 -2.546875zm3.129181 -0.15625q0 -2.6875 1.484375 -3.96875q1.25 -1.078125 3.046875 -1.078125q2.0 0 3.265625 1.3125q1.265625 1.296875 1.265625 3.609375q0 1.859375 -0.5625 2.9375q-0.5625 1.0625 -1.640625 1.65625q-1.0625 0.59375 -2.328125 0.59375q-2.03125 0 -3.28125 -1.296875q-1.25 -1.3125 -1.25 -3.765625zm1.6875 0q0 1.859375 0.796875 2.796875q0.8125 0.921875 2.046875 0.921875q1.21875 0 2.03125 -0.921875q0.8125 -0.9375 0.8125 -2.84375q0 -1.796875 -0.8125 -2.71875q-0.8125 -0.921875 -2.03125 -0.921875q-1.234375 0 -2.046875 0.921875q-0.796875 0.90625 -0.796875 2.765625zm9.297607 4.84375l0 -9.671875l1.46875 0l0 1.359375q0.453125 -0.71875 1.203125 -1.140625q0.765625 -0.4375 1.71875 -0.4375q1.078125 0 1.765625 0.453125q0.6875 0.4375 0.96875 1.234375q1.15625 -1.6875 2.984375 -1.6875q1.453125 0 2.21875 0.796875q0.78125 0.796875 0.78125 2.453125l0 6.640625l-1.640625 0l0 -6.09375q0 -0.984375 -0.15625 -1.40625q-0.15625 -0.4375 -0.578125 -0.703125q-0.421875 -0.265625 -0.984375 -0.265625q-1.015625 0 -1.6875 0.6875q-0.671875 0.671875 -0.671875 2.15625l0 5.625l-1.640625 0l0 -6.28125q0 -1.09375 -0.40625 -1.640625q-0.40625 -0.546875 -1.3125 -0.546875q-0.6875 0 -1.28125 0.359375q-0.59375 0.359375 -0.859375 1.0625q-0.25 0.703125 -0.25 2.03125l0 5.015625l-1.640625 0zm17.040802 0l-1.515625 0l0 -13.359375l1.640625 0l0 4.765625q1.046875 -1.296875 2.65625 -1.296875q0.890625 0 1.6875 0.359375q0.796875 0.359375 1.3125 1.015625q0.515625 0.640625 0.796875 1.5625q0.296875 0.921875 0.296875 1.96875q0 2.484375 -1.234375 3.84375q-1.21875 1.359375 -2.953125 1.359375q-1.703125 0 -2.6875 -1.4375l0 1.21875zm-0.015625 -4.90625q0 1.734375 0.484375 2.515625q0.765625 1.265625 2.09375 1.265625q1.078125 0 1.859375 -0.9375q0.78125 -0.9375 0.78125 -2.78125q0 -1.890625 -0.75 -2.796875q-0.75 -0.90625 -1.828125 -0.90625q-1.0625 0 -1.859375 0.9375q-0.78125 0.9375 -0.78125 2.703125zm8.891327 -6.5625l0 -1.890625l1.640625 0l0 1.890625l-1.640625 0zm0 11.46875l0 -9.671875l1.640625 0l0 9.671875l-1.640625 0zm4.1448364 0l0 -9.671875l1.46875 0l0 1.375q1.0625 -1.59375 3.078125 -1.59375q0.875 0 1.609375 0.3125q0.734375 0.3125 1.09375 0.828125q0.375 0.5 0.515625 1.203125q0.09375 0.453125 0.09375 1.59375l0 5.953125l-1.640625 0l0 -5.890625q0 -1.0 -0.203125 -1.484375q-0.1875 -0.5 -0.671875 -0.796875q-0.484375 -0.296875 -1.140625 -0.296875q-1.046875 0 -1.8125 0.671875q-0.75 0.65625 -0.75 2.515625l0 5.28125l-1.640625 0zm17.000702 -3.109375l1.6875 0.203125q-0.40625 1.484375 -1.484375 2.3125q-1.078125 0.8125 -2.765625 0.8125q-2.125 0 -3.375 -1.296875q-1.234375 -1.3125 -1.234375 -3.671875q0 -2.453125 1.25 -3.796875q1.265625 -1.34375 3.265625 -1.34375q1.9375 0 3.15625 1.328125q1.234375 1.3125 1.234375 3.703125q0 0.15625 0 0.4375l-7.21875 0q0.09375 1.59375 0.90625 2.453125q0.8125 0.84375 2.015625 0.84375q0.90625 0 1.546875 -0.46875q0.640625 -0.484375 1.015625 -1.515625zm-5.390625 -2.65625l5.40625 0q-0.109375 -1.21875 -0.625 -1.828125q-0.78125 -0.953125 -2.03125 -0.953125q-1.125 0 -1.90625 0.765625q-0.765625 0.75 -0.84375 2.015625zm10.016357 2.453125l-0.5 -7.078125l0 -2.96875l2.03125 0l0 2.96875l-0.484375 7.078125l-1.046875 0zm-0.4375 3.3125l0 -1.875l1.890625 0l0 1.875l-1.890625 0z" fill-rule="nonzero"/><path fill="#fce5cd" d="m359.16772 166.49522l30.801727 -21.610703l-3.03714 19.840866l34.964386 -3.2341614l-13.886444 10.648865l36.371216 3.0627594l-28.881805 8.7113495l33.044434 10.488647l-39.416626 -1.2966461l10.824463 19.199997l-34.13681 -13.55513l-6.3970337 19.673203l-22.468231 -17.892181l-16.940125 24.83368l-6.372223 -22.255295l-24.437805 7.4147034l7.4894104 -13.711624l-45.78058 2.4218903l29.68454 -10.477463l-30.801727 -11.774109l38.291138 -3.7185364l-35.229187 -19.829681l57.449158 14.997086l8.606598 -14.997086z" fill-rule="evenodd"/><path stroke="#cccccc" stroke-width="1.0" stroke-linejoin="round" stroke-linecap="butt" d="m359.16772 166.49522l30.801727 -21.610703l-3.03714 19.840866l34.964386 -3.2341614l-13.886444 10.648865l36.371216 3.0627594l-28.881805 8.7113495l33.044434 10.488647l-39.416626 -1.2966461l10.824463 19.199997l-34.13681 -13.55513l-6.3970337 19.673203l-22.468231 -17.892181l-16.940125 24.83368l-6.372223 -22.255295l-24.437805 7.4147034l7.4894104 -13.711624l-45.78058 2.4218903l29.68454 -10.477463l-30.801727 -11.774109l38.291138 -3.7185364l-35.229187 -19.829681l57.449158 14.997086l8.606598 -14.997086z" fill-rule="evenodd"/><path fill="#000000" d="m328.05124 184.85564l1.765625 0.453125q-0.5625 2.171875 -2.0 3.328125q-1.4375 1.140625 -3.53125 1.140625q-2.15625 0 -3.515625 -0.875q-1.34375 -0.890625 -2.0625 -2.546875q-0.703125 -1.671875 -0.703125 -3.59375q0 -2.078125 0.796875 -3.625q0.796875 -1.5625 2.265625 -2.359375q1.484375 -0.8125 3.25 -0.8125q2.0 0 3.359375 1.015625q1.375 1.015625 1.90625 2.875l-1.734375 0.40625q-0.46875 -1.453125 -1.359375 -2.109375q-0.875 -0.671875 -2.203125 -0.671875q-1.546875 0 -2.578125 0.734375q-1.03125 0.734375 -1.453125 1.984375q-0.421875 1.234375 -0.421875 2.5625q0 1.703125 0.5 2.96875q0.5 1.265625 1.546875 1.90625q1.046875 0.625 2.265625 0.625q1.484375 0 2.515625 -0.859375q1.03125 -0.859375 1.390625 -2.546875zm3.1292114 -0.15625q0 -2.6875 1.484375 -3.96875q1.25 -1.078125 3.046875 -1.078125q2.0 0 3.265625 1.3125q1.265625 1.296875 1.265625 3.609375q0 1.859375 -0.5625 2.9375q-0.5625 1.0625 -1.640625 1.65625q-1.0625 0.59375 -2.328125 0.59375q-2.03125 0 -3.28125 -1.296875q-1.25 -1.3125 -1.25 -3.765625zm1.6875 0q0 1.859375 0.796875 2.796875q0.8125 0.921875 2.046875 0.921875q1.21875 0 2.03125 -0.921875q0.8125 -0.9375 0.8125 -2.84375q0 -1.796875 -0.8125 -2.71875q-0.8125 -0.921875 -2.03125 -0.921875q-1.234375 0 -2.046875 0.921875q-0.796875 0.90625 -0.796875 2.765625zm9.297577 4.84375l0 -9.671875l1.46875 0l0 1.359375q0.453125 -0.71875 1.203125 -1.140625q0.765625 -0.4375 1.71875 -0.4375q1.078125 0 1.765625 0.453125q0.6875 0.4375 0.96875 1.234375q1.15625 -1.6875 2.984375 -1.6875q1.453125 0 2.21875 0.796875q0.78125 0.796875 0.78125 2.453125l0 6.640625l-1.640625 0l0 -6.09375q0 -0.984375 -0.15625 -1.40625q-0.15625 -0.4375 -0.578125 -0.703125q-0.421875 -0.265625 -0.984375 -0.265625q-1.015625 0 -1.6875 0.6875q-0.671875 0.671875 -0.671875 2.15625l0 5.625l-1.640625 0l0 -6.28125q0 -1.09375 -0.40625 -1.640625q-0.40625 -0.546875 -1.3125 -0.546875q-0.6875 0 -1.28125 0.359375q-0.59375 0.359375 -0.859375 1.0625q-0.25 0.703125 -0.25 2.03125l0 5.015625l-1.640625 0zm17.040802 0l-1.515625 0l0 -13.359375l1.640625 0l0 4.765625q1.046875 -1.296875 2.65625 -1.296875q0.890625 0 1.6875 0.359375q0.796875 0.359375 1.3125 1.015625q0.515625 0.640625 0.796875 1.5625q0.296875 0.921875 0.296875 1.96875q0 2.484375 -1.234375 3.84375q-1.21875 1.359375 -2.953125 1.359375q-1.703125 0 -2.6875 -1.4375l0 1.21875zm-0.015625 -4.90625q0 1.734375 0.484375 2.515625q0.765625 1.265625 2.09375 1.265625q1.078125 0 1.859375 -0.9375q0.78125 -0.9375 0.78125 -2.78125q0 -1.890625 -0.75 -2.796875q-0.75 -0.90625 -1.828125 -0.90625q-1.0625 0 -1.859375 0.9375q-0.78125 0.9375 -0.78125 2.703125zm8.891357 -6.5625l0 -1.890625l1.640625 0l0 1.890625l-1.640625 0zm0 11.46875l0 -9.671875l1.640625 0l0 9.671875l-1.640625 0zm4.144806 0l0 -9.671875l1.46875 0l0 1.375q1.0625 -1.59375 3.078125 -1.59375q0.875 0 1.609375 0.3125q0.734375 0.3125 1.09375 0.828125q0.375 0.5 0.515625 1.203125q0.09375 0.453125 0.09375 1.59375l0 5.953125l-1.640625 0l0 -5.890625q0 -1.0 -0.203125 -1.484375q-0.1875 -0.5 -0.671875 -0.796875q-0.484375 -0.296875 -1.140625 -0.296875q-1.046875 0 -1.8125 0.671875q-0.75 0.65625 -0.75 2.515625l0 5.28125l-1.640625 0zm17.000732 -3.109375l1.6875 0.203125q-0.40625 1.484375 -1.484375 2.3125q-1.078125 0.8125 -2.765625 0.8125q-2.125 0 -3.375 -1.296875q-1.234375 -1.3125 -1.234375 -3.671875q0 -2.453125 1.25 -3.796875q1.265625 -1.34375 3.265625 -1.34375q1.9375 0 3.15625 1.328125q1.234375 1.3125 1.234375 3.703125q0 0.15625 0 0.4375l-7.21875 0q0.09375 1.59375 0.90625 2.453125q0.8125 0.84375 2.015625 0.84375q0.90625 0 1.546875 -0.46875q0.640625 -0.484375 1.015625 -1.515625zm-5.390625 -2.65625l5.40625 0q-0.109375 -1.21875 -0.625 -1.828125q-0.78125 -0.953125 -2.03125 -0.953125q-1.125 0 -1.90625 0.765625q-0.765625 0.75 -0.84375 2.015625zm10.016327 2.453125l-0.5 -7.078125l0 -2.96875l2.03125 0l0 2.96875l-0.484375 7.078125l-1.046875 0zm-0.4375 3.3125l0 -1.875l1.890625 0l0 1.875l-1.890625 0z" fill-rule="nonzero"/></g></svg>