<svg version="1.1" viewBox="0.0 0.0 877.7427821522309 187.9291338582677" fill="none" stroke="none" stroke-linecap="square" stroke-miterlimit="10" xmlns:xlink="http://www.w3.org/1999/xlink" xmlns="http://www.w3.org/2000/svg"><clipPath id="p.0"><path d="m0 0l877.7428 0l0 187.92914l-877.7428 0l0 -187.92914z" clip-rule="nonzero"/></clipPath><g clip-path="url(#p.0)"><path fill="#000000" fill-opacity="0.0" d="m0 0l877.7428 0l0 187.92914l-877.7428 0z" fill-rule="evenodd"/><path fill="#d8eeff" d="m1.221509 25.908718l0 0c0 -7.7872257 6.3127937 -14.100019 14.100019 -14.100019l82.16217 0c3.7395554 0 7.3259506 1.4855337 9.970215 4.1298c2.6442719 2.644267 4.1298065 6.2306623 4.1298065 9.97022l0 56.398388c0 7.787224 -6.3127975 14.100021 -14.100021 14.100021l-82.16217 0l0 0c-7.7872257 0 -14.100019 -6.3127975 -14.100019 -14.100021z" fill-rule="evenodd"/><path stroke="#595959" stroke-width="1.0" stroke-linejoin="round" stroke-linecap="butt" d="m1.221509 25.908718l0 0c0 -7.7872257 6.3127937 -14.100019 14.100019 -14.100019l82.16217 0c3.7395554 0 7.3259506 1.4855337 9.970215 4.1298c2.6442719 2.644267 4.1298065 6.2306623 4.1298065 9.97022l0 56.398388c0 7.787224 -6.3127975 14.100021 -14.100021 14.100021l-82.16217 0l0 0c-7.7872257 0 -14.100019 -6.3127975 -14.100019 -14.100021z" fill-rule="evenodd"/><path fill="#000000" d="m27.690596 56.731033l1.65625 -0.140625q0.125 1.0 0.546875 1.640625q0.4375 0.640625 1.34375 1.046875q0.9218769 0.390625 2.062502 0.390625q1.0 0 1.78125 -0.296875q0.78125 -0.296875 1.15625 -0.8125q0.375 -0.53125 0.375 -1.15625q0 -0.625 -0.375 -1.09375q-0.359375 -0.46875 -1.1875 -0.796875q-0.546875 -0.203125 -2.390625 -0.640625q-1.8281269 -0.453125 -2.562502 -0.84375q-0.96875 -0.5 -1.4375 -1.234375q-0.46875 -0.75 -0.46875 -1.671875q0 -1.0 0.578125 -1.875q0.578125 -0.890625 1.671875 -1.34375q1.109375 -0.453125 2.453127 -0.453125q1.484375 0 2.609375 0.484375q1.140625 0.46875 1.75 1.40625q0.609375 0.921875 0.65625 2.09375l-1.6875 0.125q-0.140625 -1.265625 -0.9375 -1.90625q-0.78125 -0.65625 -2.3125 -0.65625q-1.6093769 0 -2.343752 0.59375q-0.734375 0.59375 -0.734375 1.421875q0 0.71875 0.53125 1.171875q0.5 0.46875 2.656252 0.96875q2.15625 0.484375 2.953125 0.84375q1.171875 0.53125 1.71875 1.359375q0.5625 0.828125 0.5625 1.90625q0 1.0625 -0.609375 2.015625q-0.609375 0.9375 -1.75 1.46875q-1.140625 0.515625 -2.578125 0.515625q-1.8125019 0 -3.046877 -0.53125q-1.21875 -0.53125 -1.921875 -1.59375q-0.6875 -1.0625 -0.71875 -2.40625zm12.224825 -0.546875q0 -2.6875 1.484375 -3.96875q1.25 -1.078125 3.046875 -1.078125q2.0 0 3.265625 1.3125q1.265625 1.296875 1.265625 3.609375q0 1.859375 -0.5625 2.9375q-0.5625 1.0625 -1.640625 1.65625q-1.0625 0.59375 -2.328125 0.59375q-2.03125 0 -3.28125 -1.296875q-1.25 -1.3125 -1.25 -3.765625zm1.6875 0q0 1.859375 0.796875 2.796875q0.8125 0.921875 2.046875 0.921875q1.21875 0 2.03125 -0.921875q0.8125 -0.9375 0.8125 -2.84375q0 -1.796875 -0.8125 -2.71875q-0.8125 -0.921875 -2.03125 -0.921875q-1.234375 0 -2.046875 0.921875q-0.796875 0.90625 -0.796875 2.765625zm15.625717 4.84375l0 -1.421875q-1.125 1.640625 -3.0625 1.640625q-0.859375 0 -1.609375 -0.328125q-0.734375 -0.328125 -1.09375 -0.828125q-0.359375 -0.5 -0.5 -1.21875q-0.109375 -0.46875 -0.109375 -1.53125l0 -5.984375l1.640625 0l0 5.359375q0 1.28125 0.109375 1.734375q0.15625 0.640625 0.65625 1.015625q0.5 0.375 1.234375 0.375q0.734375 0 1.375 -0.375q0.65625 -0.390625 0.921875 -1.03125q0.265625 -0.65625 0.265625 -1.890625l0 -5.1875l1.640625 0l0 9.671875l-1.46875 0zm4.031967 0l0 -9.671875l1.46875 0l0 1.46875q0.5625 -1.03125 1.03125 -1.359375q0.484375 -0.328125 1.0625 -0.328125q0.828125 0 1.6875 0.53125l-0.5625 1.515625q-0.609375 -0.359375 -1.203125 -0.359375q-0.546875 0 -0.96875 0.328125q-0.421875 0.328125 -0.609375 0.890625q-0.28125 0.875 -0.28125 1.921875l0 5.0625l-1.625 0zm12.540802 -3.546875l1.609375 0.21875q-0.265625 1.65625 -1.359375 2.609375q-1.078125 0.9375 -2.671875 0.9375q-1.984375 0 -3.1875 -1.296875q-1.203125 -1.296875 -1.203125 -3.71875q0 -1.578125 0.515625 -2.75q0.515625 -1.171875 1.578125 -1.75q1.0625 -0.59375 2.3125 -0.59375q1.578125 0 2.578125 0.796875q1.0 0.796875 1.28125 2.265625l-1.59375 0.234375q-0.234375 -0.96875 -0.8125 -1.453125q-0.578125 -0.5 -1.390625 -0.5q-1.234375 0 -2.015625 0.890625q-0.78125 0.890625 -0.78125 2.8125q0 1.953125 0.75 2.84375q0.75 0.875 1.953125 0.875q0.96875 0 1.609375 -0.59375q0.65625 -0.59375 0.828125 -1.828125zm9.640625 0.4375l1.6875 0.203125q-0.40625 1.484375 -1.484375 2.3125q-1.078125 0.8125 -2.765625 0.8125q-2.125 0 -3.375 -1.296875q-1.234375 -1.3125 -1.234375 -3.671875q0 -2.453125 1.25 -3.796875q1.265625 -1.34375 3.265625 -1.34375q1.9375 0 3.15625 1.328125q1.234375 1.3125 1.234375 3.703125q0 0.15625 0 0.4375l-7.21875 0q0.09375 1.59375 0.90625 2.453125q0.8125 0.84375 2.015625 0.84375q0.90625 0 1.546875 -0.46875q0.640625 -0.484375 1.015625 -1.515625zm-5.390625 -2.65625l5.40625 0q-0.109375 -1.21875 -0.625 -1.828125q-0.78125 -0.953125 -2.03125 -0.953125q-1.125 0 -1.90625 0.765625q-0.765625 0.75 -0.84375 2.015625z" fill-rule="nonzero"/><path fill="#d8eeff" d="m188.3315 25.908718l0 0c0 -7.7872257 6.31279 -14.100019 14.100021 -14.100019l82.16217 0c3.7395325 0 7.3259277 1.4855337 9.970215 4.1298c2.6442566 2.644267 4.1297913 6.2306623 4.1297913 9.97022l0 56.398388c0 7.787224 -6.312805 14.100021 -14.100006 14.100021l-82.16217 0l0 0c-7.7872314 0 -14.100021 -6.3127975 -14.100021 -14.100021z" fill-rule="evenodd"/><path stroke="#595959" stroke-width="1.0" stroke-linejoin="round" stroke-linecap="butt" d="m188.3315 25.908718l0 0c0 -7.7872257 6.31279 -14.100019 14.100021 -14.100019l82.16217 0c3.7395325 0 7.3259277 1.4855337 9.970215 4.1298c2.6442566 2.644267 4.1297913 6.2306623 4.1297913 9.97022l0 56.398388c0 7.787224 -6.312805 14.100021 -14.100006 14.100021l-82.16217 0l0 0c-7.7872314 0 -14.100021 -6.3127975 -14.100021 -14.100021z" fill-rule="evenodd"/><path fill="#000000" d="m213.6372 39.24791l0 -12.406248l8.375 0l0 1.46875l-6.734375 0l0 3.843748l5.828125 0l0 1.453125l-5.828125 0l0 5.640625l-1.640625 0zm10.272217 0l0 -12.406248l1.515625 0l0 12.406248l-1.515625 0zm9.740387 -1.109375q-0.84375 0.71875 -1.625 1.015625q-0.78125 0.296875 -1.671875 0.296875q-1.484375 0 -2.28125 -0.71875q-0.796875 -0.734375 -0.796875 -1.859375q0 -0.65625 0.296875 -1.203125q0.3125 -0.546875 0.796875 -0.875q0.484375 -0.328125 1.09375 -0.5q0.4375 -0.109375 1.34375 -0.21875q1.84375 -0.21875 2.71875 -0.53125q0.015625 -0.3125 0.015625 -0.390625q0 -0.9375 -0.4375 -1.3124981q-0.578125 -0.515625 -1.734375 -0.515625q-1.078125 0 -1.59375 0.375q-0.5 0.3749981 -0.75 1.3281231l-1.484375 -0.203125q0.203125 -0.9531231 0.65625 -1.5312481q0.46875 -0.59375 1.34375 -0.90625q0.890625 -0.328125 2.046875 -0.328125q1.15625 0 1.875 0.28125q0.71875 0.265625 1.046875 0.671875q0.34375 0.40625 0.484375 1.0312481q0.078125 0.390625 0.078125 1.40625l0 2.03125q0 2.125 0.09375 2.6875q0.09375 0.5625 0.390625 1.078125l-1.59375 0q-0.234375 -0.46875 -0.3125 -1.109375zm-0.125 -3.40625q-0.828125 0.34375 -2.484375 0.578125q-0.9375 0.140625 -1.328125 0.3125q-0.390625 0.171875 -0.609375 0.5q-0.203125 0.3125 -0.203125 0.71875q0 0.609375 0.453125 1.015625q0.46875 0.40625 1.359375 0.40625q0.875 0 1.5625 -0.390625q0.6875 -0.390625 1.015625 -1.046875q0.234375 -0.515625 0.234375 -1.53125l0 -0.5625zm7.230835 3.15625l0.21875 1.34375q-0.640625 0.140625 -1.15625 0.140625q-0.828125 0 -1.28125 -0.265625q-0.453125 -0.265625 -0.640625 -0.6875q-0.1875 -0.4375 -0.1875 -1.796875l0 -5.171873l-1.125 0l0 -1.1875l1.125 0l0 -2.21875l1.515625 -0.921875l0 3.140625l1.53125 0l0 1.1875l-1.53125 0l0 5.249998q0 0.65625 0.078125 0.84375q0.078125 0.1875 0.25 0.296875q0.1875 0.109375 0.53125 0.109375q0.25 0 0.671875 -0.0625zm1.6268158 1.359375l0 -12.406248l2.46875 0l2.9375 8.781248q0.40625 1.234375 0.59375 1.84375q0.21875 -0.6875 0.65625 -2.0l2.984375 -8.624998l2.203125 0l0 12.406248l-1.578125 0l0 -10.374998l-3.609375 10.374998l-1.484375 0l-3.578125 -10.562498l0 10.562498l-1.59375 0zm20.153214 -1.109375q-0.84375 0.71875 -1.625 1.015625q-0.78125 0.296875 -1.671875 0.296875q-1.484375 0 -2.28125 -0.71875q-0.796875 -0.734375 -0.796875 -1.859375q0 -0.65625 0.296875 -1.203125q0.3125 -0.546875 0.796875 -0.875q0.484375 -0.328125 1.09375 -0.5q0.4375 -0.109375 1.34375 -0.21875q1.84375 -0.21875 2.71875 -0.53125q0.015625 -0.3125 0.015625 -0.390625q0 -0.9375 -0.4375 -1.3124981q-0.578125 -0.515625 -1.734375 -0.515625q-1.078125 0 -1.59375 0.375q-0.5 0.3749981 -0.75 1.3281231l-1.484375 -0.203125q0.203125 -0.9531231 0.65625 -1.5312481q0.46875 -0.59375 1.34375 -0.90625q0.890625 -0.328125 2.046875 -0.328125q1.15625 0 1.875 0.28125q0.71875 0.265625 1.046875 0.671875q0.34375 0.40625 0.484375 1.0312481q0.078125 0.390625 0.078125 1.40625l0 2.03125q0 2.125 0.09375 2.6875q0.09375 0.5625 0.390625 1.078125l-1.59375 0q-0.234375 -0.46875 -0.3125 -1.109375zm-0.125 -3.40625q-0.828125 0.34375 -2.484375 0.578125q-0.9375 0.140625 -1.328125 0.3125q-0.390625 0.171875 -0.609375 0.5q-0.203125 0.3125 -0.203125 0.71875q0 0.609375 0.453125 1.015625q0.46875 0.40625 1.359375 0.40625q0.875 0 1.5625 -0.390625q0.6875 -0.390625 1.015625 -1.046875q0.234375 -0.515625 0.234375 -1.53125l0 -0.5625zm3.90271 7.953125l0 -12.421873l1.390625 0l0 1.171875q0.484375 -0.6875 1.09375 -1.03125q0.625 -0.34375 1.515625 -0.34375q1.140625 0 2.015625 0.59375q0.890625 0.59375 1.328125 1.6718731q0.453125 1.078125 0.453125 2.359375q0 1.375 -0.5 2.484375q-0.484375 1.109375 -1.4375 1.703125q-0.9375 0.578125 -1.96875 0.578125q-0.765625 0 -1.375 -0.3125q-0.609375 -0.328125 -0.984375 -0.828125l0 4.375l-1.53125 0zm1.375 -7.875q0 1.734375 0.703125 2.5625q0.703125 0.828125 1.703125 0.828125q1.015625 0 1.734375 -0.859375q0.734375 -0.859375 0.734375 -2.65625q0 -1.71875 -0.71875 -2.578125q-0.703125 -0.8593731 -1.6875 -0.8593731q-0.96875 0 -1.71875 0.9218731q-0.75 0.90625 -0.75 2.640625z" fill-rule="nonzero"/><path fill="#000000" d="m242.79666 58.24791l0 -3.40625l-3.375 0l0 -1.421875l3.375 0l0 -3.375l1.4375 0l0 3.375l3.375 0l0 1.421875l-3.375 0l0 3.40625l-1.4375 0z" fill-rule="nonzero"/><path fill="#000000" d="m225.68144 81.24791l0 -12.40625l8.375 0l0 1.46875l-6.734375 0l0 3.84375l5.828125 0l0 1.453125l-5.828125 0l0 5.640625l-1.640625 0zm10.319092 -10.65625l0 -1.75l1.515625 0l0 1.75l-1.515625 0zm0 10.65625l0 -8.984375l1.515625 0l0 8.984375l-1.515625 0zm3.802887 0l0 -12.40625l1.515625 0l0 12.40625l-1.515625 0zm7.209137 -1.359375l0.21875 1.34375q-0.640625 0.140625 -1.15625 0.140625q-0.828125 0 -1.28125 -0.265625q-0.453125 -0.265625 -0.640625 -0.6875q-0.1875 -0.4375 -0.1875 -1.796875l0 -5.171875l-1.125 0l0 -1.1875l1.125 0l0 -2.21875l1.515625 -0.921875l0 3.140625l1.53125 0l0 1.1875l-1.53125 0l0 5.25q0 0.65625 0.078125 0.84375q0.078125 0.1875 0.25 0.296875q0.1875 0.109375 0.53125 0.109375q0.25 0 0.671875 -0.0625zm7.642441 -1.53125l1.5625 0.1875q-0.359375 1.390625 -1.375 2.15625q-1.0 0.75 -2.5625 0.75q-1.984375 0 -3.140625 -1.203125q-1.140625 -1.21875 -1.140625 -3.421875q0 -2.265625 1.15625 -3.515625q1.171875 -1.25 3.03125 -1.25q1.8125 0 2.953125 1.234375q1.140625 1.21875 1.140625 3.4375q0 0.140625 -0.015625 0.40625l-6.703125 0q0.09375 1.484375 0.84375 2.28125q0.75 0.78125 1.875 0.78125q0.84375 0 1.4375 -0.4375q0.59375 -0.4375 0.9375 -1.40625zm-5.0 -2.46875l5.015625 0q-0.109375 -1.125 -0.578125 -1.703125q-0.734375 -0.875 -1.890625 -0.875q-1.046875 0 -1.765625 0.703125q-0.703125 0.703125 -0.78125 1.875zm8.46521 5.359375l0 -8.984375l1.375 0l0 1.359375q0.515625 -0.953125 0.953125 -1.25q0.453125 -0.3125 0.984375 -0.3125q0.78125 0 1.5625 0.484375l-0.515625 1.421875q-0.5625 -0.328125 -1.125 -0.328125q-0.5 0 -0.890625 0.296875q-0.390625 0.296875 -0.5625 0.828125q-0.265625 0.8125 -0.265625 1.78125l0 4.703125l-1.515625 0z" fill-rule="nonzero"/><path fill="#d8eeff" d="m755.3872 25.904226l0 0c0 -7.7872257 6.312744 -14.100019 14.099976 -14.100019l92.93384 0c3.739563 0 7.3259277 1.4855328 9.970215 4.1298c2.644287 2.644267 4.129822 6.2306623 4.129822 9.97022l0 56.398384c0 7.787224 -6.312805 14.100021 -14.100037 14.100021l-92.93384 0c-7.7872314 0 -14.099976 -6.3127975 -14.099976 -14.100021z" fill-rule="evenodd"/><path stroke="#595959" stroke-width="1.0" stroke-linejoin="round" stroke-linecap="butt" d="m755.3872 25.904226l0 0c0 -7.7872257 6.312744 -14.100019 14.099976 -14.100019l92.93384 0c3.739563 0 7.3259277 1.4855328 9.970215 4.1298c2.644287 2.644267 4.129822 6.2306623 4.129822 9.97022l0 56.398384c0 7.787224 -6.312805 14.100021 -14.100037 14.100021l-92.93384 0c-7.7872314 0 -14.099976 -6.3127975 -14.099976 -14.100021z" fill-rule="evenodd"/><path fill="#000000" d="m798.65173 56.72654l1.65625 -0.140625q0.125 1.0 0.546875 1.640625q0.4375 0.640625 1.34375 1.046875q0.921875 0.390625 2.0625 0.390625q1.0 0 1.78125 -0.296875q0.78125 -0.296875 1.15625 -0.8125q0.375 -0.53125 0.375 -1.15625q0 -0.625 -0.375 -1.09375q-0.359375 -0.46875 -1.1875 -0.796875q-0.546875 -0.203125 -2.390625 -0.640625q-1.828125 -0.453125 -2.5625 -0.84375q-0.96875 -0.5 -1.4375 -1.234375q-0.46875 -0.75 -0.46875 -1.671875q0 -1.0 0.578125 -1.875q0.578125 -0.890625 1.671875 -1.34375q1.109375 -0.453125 2.453125 -0.453125q1.484375 0 2.609375 0.484375q1.140625 0.46875 1.75 1.40625q0.609375 0.921875 0.65625 2.09375l-1.6875 0.125q-0.140625 -1.265625 -0.9375 -1.90625q-0.78125 -0.65625 -2.3125 -0.65625q-1.609375 0 -2.34375 0.59375q-0.734375 0.59375 -0.734375 1.421875q0 0.71875 0.53125 1.171875q0.5 0.46875 2.65625 0.96875q2.15625 0.484375 2.953125 0.84375q1.171875 0.53125 1.71875 1.359375q0.5625 0.828125 0.5625 1.90625q0 1.0625 -0.609375 2.015625q-0.609375 0.9375 -1.75 1.46875q-1.140625 0.515625 -2.578125 0.515625q-1.8125 0 -3.046875 -0.53125q-1.21875 -0.53125 -1.921875 -1.59375q-0.6875 -1.0625 -0.71875 -2.40625zm12.8342285 -7.171875l0 -1.890625l1.640625 0l0 1.890625l-1.640625 0zm0 11.46875l0 -9.671875l1.640625 0l0 9.671875l-1.640625 0zm4.1448364 0l0 -9.671875l1.46875 0l0 1.375q1.0625 -1.59375 3.078125 -1.59375q0.875 0 1.609375 0.3125q0.734375 0.3125 1.09375 0.828125q0.375 0.5 0.515625 1.203125q0.09375 0.453125 0.09375 1.59375l0 5.953125l-1.640625 0l0 -5.890625q0 -1.0 -0.203125 -1.484375q-0.1875 -0.5 -0.671875 -0.796875q-0.484375 -0.296875 -1.140625 -0.296875q-1.046875 0 -1.8125 0.671875q-0.75 0.65625 -0.75 2.515625l0 5.28125l-1.640625 0zm10.375671 0l0 -13.359375l1.640625 0l0 7.625l3.890625 -3.9375l2.109375 0l-3.6875 3.59375l4.0625 6.078125l-2.015625 0l-3.203125 -4.953125l-1.15625 1.125l0 3.828125l-1.640625 0z" fill-rule="nonzero"/><path fill="#000000" fill-opacity="0.0" d="m111.58372 54.10791l76.7559 0" fill-rule="evenodd"/><path stroke="#595959" stroke-width="1.0" stroke-linejoin="round" stroke-linecap="butt" d="m111.58371 54.10791l73.32884 0" fill-rule="evenodd"/><path fill="#595959" stroke="#595959" stroke-width="1.0" stroke-linecap="butt" d="m184.91254 54.10791l-1.1245728 1.1245804l3.0897675 -1.1245804l-3.0897675 -1.1245842z" fill-rule="evenodd"/><path fill="#000000" fill-opacity="0.0" d="m678.6237 54.100033l76.75592 0" fill-rule="evenodd"/><path stroke="#595959" stroke-width="1.0" stroke-linejoin="round" stroke-linecap="butt" d="m678.62366 54.100037l73.32886 0" fill-rule="evenodd"/><path fill="#595959" stroke="#595959" stroke-width="1.0" stroke-linecap="butt" d="m751.9525 54.100037l-1.1245728 1.1245804l3.0897217 -1.1245804l-3.0897217 -1.1245842z" fill-rule="evenodd"/><path fill="#d8eeff" d="m570.8307 25.90317l0 0c0 -7.7872257 6.312805 -14.10002 14.100037 -14.10002l82.16217 0c3.739563 0 7.3259277 1.4855337 9.970215 4.129801c2.644226 2.644267 4.1297607 6.2306623 4.1297607 9.97022l0 56.398384c0 7.7872314 -6.312744 14.100021 -14.099976 14.100021l-82.16217 0l0 0c-7.7872314 0 -14.100037 -6.31279 -14.100037 -14.100021z" fill-rule="evenodd"/><path stroke="#595959" stroke-width="1.0" stroke-linejoin="round" stroke-linecap="butt" d="m570.8307 25.90317l0 0c0 -7.7872257 6.312805 -14.10002 14.100037 -14.10002l82.16217 0c3.739563 0 7.3259277 1.4855337 9.970215 4.129801c2.644226 2.644267 4.1297607 6.2306623 4.1297607 9.97022l0 56.398384c0 7.7872314 -6.312744 14.100021 -14.099976 14.100021l-82.16217 0l0 0c-7.7872314 0 -14.100037 -6.31279 -14.100037 -14.100021z" fill-rule="evenodd"/><path fill="#000000" d="m601.5261 55.89861l1.640625 0.40625q-0.515625 2.03125 -1.859375 3.09375q-1.34375 1.0625 -3.28125 1.0625q-2.0 0 -3.265625 -0.8125q-1.25 -0.828125 -1.90625 -2.375q-0.65625 -1.546875 -0.65625 -3.328125q0 -1.9375 0.734375 -3.375q0.75 -1.453125 2.109375 -2.1875q1.375 -0.75 3.015625 -0.75q1.859375 0 3.125 0.953125q1.28125 0.9375 1.765625 2.65625l-1.609375 0.375q-0.4375 -1.34375 -1.265625 -1.953125q-0.8125 -0.625 -2.046875 -0.625q-1.4375 0 -2.40625 0.6875q-0.953125 0.671875 -1.34375 1.828125q-0.375 1.15625 -0.375 2.390625q0 1.578125 0.453125 2.765625q0.46875 1.171875 1.4375 1.765625q0.96875 0.578125 2.109375 0.578125q1.375 0 2.328125 -0.796875q0.953125 -0.796875 1.296875 -2.359375zm2.904419 -0.15625q0 -2.484375 1.390625 -3.6875q1.15625 -1.0 2.8125 -1.0q1.859375 0 3.03125 1.21875q1.1875 1.203125 1.1875 3.34375q0 1.734375 -0.53125 2.734375q-0.515625 1.0 -1.515625 1.546875q-0.984375 0.546875 -2.171875 0.546875q-1.875 0 -3.046875 -1.203125q-1.15625 -1.21875 -1.15625 -3.5zm1.5625 0q0 1.734375 0.75 2.59375q0.75 0.859375 1.890625 0.859375q1.140625 0 1.890625 -0.859375q0.75 -0.875 0.75 -2.640625q0 -1.65625 -0.75 -2.515625q-0.75 -0.859375 -1.890625 -0.859375q-1.140625 0 -1.890625 0.859375q-0.75 0.84375 -0.75 2.5625zm8.637085 4.5l0 -8.984375l1.359375 0l0 1.265625q0.421875 -0.671875 1.125 -1.0625q0.703125 -0.40625 1.609375 -0.40625q1.0 0 1.625 0.421875q0.640625 0.40625 0.90625 1.15625q1.0625 -1.578125 2.78125 -1.578125q1.328125 0 2.046875 0.75q0.71875 0.734375 0.71875 2.265625l0 6.171875l-1.515625 0l0 -5.65625q0 -0.921875 -0.15625 -1.3125q-0.140625 -0.40625 -0.53125 -0.65625q-0.375 -0.25 -0.90625 -0.25q-0.953125 0 -1.578125 0.640625q-0.625 0.625 -0.625 2.015625l0 5.21875l-1.515625 0l0 -5.84375q0 -1.015625 -0.375 -1.515625q-0.375 -0.515625 -1.21875 -0.515625q-0.640625 0 -1.1875 0.34375q-0.546875 0.34375 -0.796875 1.0q-0.234375 0.640625 -0.234375 1.875l0 4.65625l-1.53125 0zm15.840698 0l-1.40625 0l0 -12.40625l1.515625 0l0 4.421875q0.96875 -1.203125 2.46875 -1.203125q0.828125 0 1.5625 0.34375q0.734375 0.328125 1.21875 0.9375q0.484375 0.59375 0.75 1.453125q0.265625 0.859375 0.265625 1.828125q0 2.3125 -1.140625 3.578125q-1.140625 1.25 -2.734375 1.25q-1.59375 0 -2.5 -1.328125l0 1.125zm-0.015625 -4.5625q0 1.625 0.4375 2.34375q0.71875 1.171875 1.953125 1.171875q1.0 0 1.71875 -0.859375q0.734375 -0.875 0.734375 -2.59375q0 -1.765625 -0.703125 -2.59375q-0.703125 -0.84375 -1.6875 -0.84375q-1.0 0 -1.734375 0.875q-0.71875 0.859375 -0.71875 2.5zm8.262085 -6.09375l0 -1.75l1.515625 0l0 1.75l-1.515625 0zm0 10.65625l0 -8.984375l1.515625 0l0 8.984375l-1.515625 0zm3.8341675 0l0 -8.984375l1.375 0l0 1.28125q0.984375 -1.484375 2.859375 -1.484375q0.8125 0 1.484375 0.296875q0.6875 0.28125 1.015625 0.765625q0.34375 0.46875 0.484375 1.125q0.078125 0.421875 0.078125 1.46875l0 5.53125l-1.515625 0l0 -5.46875q0 -0.921875 -0.1875 -1.375q-0.171875 -0.46875 -0.625 -0.75q-0.453125 -0.28125 -1.0625 -0.28125q-0.96875 0 -1.671875 0.625q-0.703125 0.609375 -0.703125 2.34375l0 4.90625l-1.53125 0zm15.793335 -2.890625l1.5625 0.1875q-0.359375 1.390625 -1.375 2.15625q-1.0 0.75 -2.5625 0.75q-1.984375 0 -3.140625 -1.203125q-1.140625 -1.21875 -1.140625 -3.421875q0 -2.265625 1.15625 -3.515625q1.171875 -1.25 3.03125 -1.25q1.8125 0 2.953125 1.234375q1.140625 1.21875 1.140625 3.4375q0 0.140625 -0.015625 0.40625l-6.703125 0q0.09375 1.484375 0.84375 2.28125q0.75 0.78125 1.875 0.78125q0.84375 0 1.4375 -0.4375q0.59375 -0.4375 0.9375 -1.40625zm-5.0 -2.46875l5.015625 0q-0.109375 -1.125 -0.578125 -1.703125q-0.734375 -0.875 -1.890625 -0.875q-1.046875 0 -1.765625 0.703125q-0.703125 0.703125 -0.78125 1.875z" fill-rule="nonzero"/><path fill="#000000" fill-opacity="0.0" d="m499.70743 54.107613l71.11813 0" fill-rule="evenodd"/><path stroke="#595959" stroke-width="1.0" stroke-linejoin="round" stroke-linecap="butt" d="m499.70743 54.107613l67.69101 0" fill-rule="evenodd"/><path fill="#595959" stroke="#595959" stroke-width="1.0" stroke-linecap="butt" d="m567.39844 54.107613l-1.1245728 1.1245842l3.0897827 -1.1245842l-3.0897827 -1.1245842z" fill-rule="evenodd"/><path fill="#d8eeff" d="m369.8177 25.908419l0 0c0 -7.7872257 6.3127747 -14.100019 14.100006 -14.100019l101.68973 0c3.739563 0 7.3259583 1.4855337 9.970215 4.1298c2.6442566 2.644267 4.1297913 6.2306623 4.1297913 9.97022l0 56.398384c0 7.7872314 -6.3127747 14.100021 -14.100006 14.100021l-101.68973 0c-7.7872314 0 -14.100006 -6.31279 -14.100006 -14.100021z" fill-rule="evenodd"/><path stroke="#595959" stroke-width="1.0" stroke-linejoin="round" stroke-linecap="butt" d="m369.8177 25.908419l0 0c0 -7.7872257 6.3127747 -14.100019 14.100006 -14.100019l101.68973 0c3.739563 0 7.3259583 1.4855337 9.970215 4.1298c2.6442566 2.644267 4.1297913 6.2306623 4.1297913 9.97022l0 56.398384c0 7.7872314 -6.3127747 14.100021 -14.100006 14.100021l-101.68973 0c-7.7872314 0 -14.100006 -6.31279 -14.100006 -14.100021z" fill-rule="evenodd"/><path fill="#000000" d="m416.52444 33.793236l0 -1.578125l5.65625 0l0 4.953125q-1.296875 1.046875 -2.6875 1.578125q-1.375 0.515625 -2.84375 0.515625q-1.96875 0 -3.578125 -0.84375q-1.609375 -0.84375 -2.421875 -2.4375q-0.8125 -1.59375 -0.8125 -3.5625q0 -1.953125 0.8125 -3.640625q0.8125 -1.6875 2.34375 -2.5q1.53125 -0.828125 3.515625 -0.828125q1.453125 0 2.625 0.46875q1.171875 0.46875 1.828125 1.3125q0.671875 0.828125 1.015625 2.171875l-1.59375 0.4375q-0.296875 -1.015625 -0.75 -1.59375q-0.4375 -0.59375 -1.265625 -0.9375q-0.828125 -0.34375 -1.84375 -0.34375q-1.203125 0 -2.09375 0.375q-0.890625 0.359375 -1.4375 0.96875q-0.53125 0.59375 -0.828125 1.3125q-0.515625 1.234375 -0.515625 2.6875q0 1.78125 0.609375 2.984375q0.625 1.203125 1.796875 1.796875q1.171875 0.578125 2.5 0.578125q1.140625 0 2.234375 -0.4375q1.09375 -0.453125 1.65625 -0.953125l0 -2.484375l-3.921875 0zm8.042664 5.234375l0 -9.671875l1.46875 0l0 1.46875q0.5625 -1.03125 1.03125 -1.359375q0.484375 -0.328125 1.0625 -0.328125q0.828125 0 1.6875 0.53125l-0.5625 1.515625q-0.609375 -0.359375 -1.203125 -0.359375q-0.546875 0 -0.96875 0.328125q-0.421875 0.328125 -0.609375 0.890625q-0.28125 0.875 -0.28125 1.921875l0 5.0625l-1.625 0zm5.618927 -4.84375q0 -2.6875 1.484375 -3.96875q1.25 -1.078125 3.046875 -1.078125q2.0 0 3.265625 1.3125q1.265625 1.296875 1.265625 3.609375q0 1.859375 -0.5625 2.9375q-0.5625 1.0625 -1.640625 1.65625q-1.0625 0.59375 -2.328125 0.59375q-2.03125 0 -3.28125 -1.296875q-1.25 -1.3125 -1.25 -3.765625zm1.6875 0q0 1.859375 0.796875 2.796875q0.8125 0.921875 2.046875 0.921875q1.21875 0 2.03125 -0.921875q0.8125 -0.9375 0.8125 -2.84375q0 -1.796875 -0.8125 -2.71875q-0.8125 -0.921875 -2.03125 -0.921875q-1.234375 0 -2.046875 0.921875q-0.796875 0.90625 -0.796875 2.765625zm15.625702 4.84375l0 -1.421875q-1.125 1.640625 -3.0625 1.640625q-0.859375 0 -1.609375 -0.328125q-0.734375 -0.328125 -1.09375 -0.828125q-0.359375 -0.5 -0.5 -1.21875q-0.109375 -0.46875 -0.109375 -1.53125l0 -5.984375l1.640625 0l0 5.359375q0 1.28125 0.109375 1.734375q0.15625 0.640625 0.65625 1.015625q0.5 0.375 1.234375 0.375q0.734375 0 1.375 -0.375q0.65625 -0.390625 0.921875 -1.03125q0.265625 -0.65625 0.265625 -1.890625l0 -5.1875l1.640625 0l0 9.671875l-1.46875 0zm4.0476074 3.703125l0 -13.375l1.484375 0l0 1.25q0.53125 -0.734375 1.1875 -1.09375q0.671875 -0.375 1.625 -0.375q1.234375 0 2.171875 0.640625q0.953125 0.625 1.4375 1.796875q0.484375 1.15625 0.484375 2.546875q0 1.484375 -0.53125 2.671875q-0.53125 1.1875 -1.546875 1.828125q-1.015625 0.625 -2.140625 0.625q-0.8125 0 -1.46875 -0.34375q-0.65625 -0.34375 -1.0625 -0.875l0 4.703125l-1.640625 0zm1.484375 -8.484375q0 1.859375 0.75 2.765625q0.765625 0.890625 1.828125 0.890625q1.09375 0 1.875 -0.921875q0.78125 -0.9375 0.78125 -2.875q0 -1.84375 -0.765625 -2.765625q-0.75 -0.921875 -1.8125 -0.921875q-1.046875 0 -1.859375 0.984375q-0.796875 0.96875 -0.796875 2.84375z" fill-rule="nonzero"/><path fill="#000000" d="m433.98697 58.871357l0 -3.671875l-3.640625 0l0 -1.515625l3.640625 0l0 -3.640625l1.546875 0l0 3.640625l3.6405945 0l0 1.515625l-3.6405945 0l0 3.671875l-1.546875 0z" fill-rule="nonzero"/><path fill="#000000" d="m385.9955 83.02761l5.125 -13.359375l1.90625 0l5.46875 13.359375l-2.015625 0l-1.546875 -4.046875l-5.59375 0l-1.46875 4.046875l-1.875 0zm3.859375 -5.484375l4.53125 0l-1.40625 -3.703125q-0.625 -1.6875 -0.9375 -2.765625q-0.265625 1.28125 -0.71875 2.546875l-1.46875 3.921875zm16.162323 1.9375l1.609375 0.21875q-0.265625 1.65625 -1.359375 2.609375q-1.078125 0.9375 -2.671875 0.9375q-1.984375 0 -3.1875 -1.296875q-1.203125 -1.296875 -1.203125 -3.71875q0 -1.578125 0.515625 -2.75q0.515625 -1.171875 1.578125 -1.75q1.0625 -0.59375 2.3125 -0.59375q1.578125 0 2.578125 0.796875q1.0 0.796875 1.28125 2.265625l-1.59375 0.234375q-0.234375 -0.96875 -0.8125 -1.453125q-0.578125 -0.5 -1.390625 -0.5q-1.234375 0 -2.015625 0.890625q-0.78125 0.890625 -0.78125 2.8125q0 1.953125 0.75 2.84375q0.75 0.875 1.953125 0.875q0.96875 0 1.609375 -0.59375q0.65625 -0.59375 0.828125 -1.828125zm9.328125 0l1.609375 0.21875q-0.265625 1.65625 -1.359375 2.609375q-1.078125 0.9375 -2.671875 0.9375q-1.984375 0 -3.1875 -1.296875q-1.203125 -1.296875 -1.203125 -3.71875q0 -1.578125 0.515625 -2.75q0.515625 -1.171875 1.578125 -1.75q1.0625 -0.59375 2.3125 -0.59375q1.578125 0 2.578125 0.796875q1.0 0.796875 1.28125 2.265625l-1.59375 0.234375q-0.234375 -0.96875 -0.8125 -1.453125q-0.578125 -0.5 -1.390625 -0.5q-1.234375 0 -2.015625 0.890625q-0.78125 0.890625 -0.78125 2.8125q0 1.953125 0.75 2.84375q0.75 0.875 1.953125 0.875q0.96875 0 1.609375 -0.59375q0.65625 -0.59375 0.828125 -1.828125zm9.34375 3.546875l0 -1.421875q-1.125 1.640625 -3.0625 1.640625q-0.859375 0 -1.609375 -0.328125q-0.734375 -0.328125 -1.09375 -0.828125q-0.359375 -0.5 -0.5 -1.21875q-0.109375 -0.46875 -0.109375 -1.53125l0 -5.984375l1.640625 0l0 5.359375q0 1.28125 0.109375 1.734375q0.15625 0.640625 0.65625 1.015625q0.5 0.375 1.234375 0.375q0.734375 0 1.375 -0.375q0.65625 -0.390625 0.921875 -1.03125q0.265625 -0.65625 0.265625 -1.890625l0 -5.1875l1.640625 0l0 9.671875l-1.46875 0zm4.047577 0l0 -9.671875l1.46875 0l0 1.359375q0.453125 -0.71875 1.203125 -1.140625q0.765625 -0.4375 1.71875 -0.4375q1.078125 0 1.765625 0.453125q0.6875 0.4375 0.96875 1.234375q1.15625 -1.6875 2.984375 -1.6875q1.453125 0 2.21875 0.796875q0.78125 0.796875 0.78125 2.453125l0 6.640625l-1.640625 0l0 -6.09375q0 -0.984375 -0.15625 -1.40625q-0.15625 -0.4375 -0.578125 -0.703125q-0.421875 -0.265625 -0.984375 -0.265625q-1.015625 0 -1.6875 0.6875q-0.671875 0.671875 -0.671875 2.15625l0 5.625l-1.640625 0l0 -6.28125q0 -1.09375 -0.40625 -1.640625q-0.40625 -0.546875 -1.3125 -0.546875q-0.6875 0 -1.28125 0.359375q-0.59375 0.359375 -0.859375 1.0625q-0.25 0.703125 -0.25 2.03125l0 5.015625l-1.640625 0zm21.868927 0l0 -1.421875q-1.125 1.640625 -3.0625 1.640625q-0.859375 0 -1.609375 -0.328125q-0.734375 -0.328125 -1.09375 -0.828125q-0.359375 -0.5 -0.5 -1.21875q-0.109375 -0.46875 -0.109375 -1.53125l0 -5.984375l1.640625 0l0 5.359375q0 1.28125 0.109375 1.734375q0.15625 0.640625 0.65625 1.015625q0.5 0.375 1.234375 0.375q0.734375 0 1.375 -0.375q0.65625 -0.390625 0.921875 -1.03125q0.265625 -0.65625 0.265625 -1.890625l0 -5.1875l1.640625 0l0 9.671875l-1.46875 0zm4.000702 0l0 -13.359375l1.640625 0l0 13.359375l-1.640625 0zm10.504211 -1.1875q-0.921875 0.765625 -1.765625 1.09375q-0.828125 0.3125 -1.796875 0.3125q-1.59375 0 -2.453125 -0.78125q-0.859375 -0.78125 -0.859375 -1.984375q0 -0.71875 0.328125 -1.296875q0.328125 -0.59375 0.84375 -0.9375q0.53125 -0.359375 1.1875 -0.546875q0.46875 -0.125 1.453125 -0.25q1.984375 -0.234375 2.921875 -0.5625q0.015625 -0.34375 0.015625 -0.421875q0 -1.0 -0.46875 -1.421875q-0.625 -0.546875 -1.875 -0.546875q-1.15625 0 -1.703125 0.40625q-0.546875 0.40625 -0.8125 1.421875l-1.609375 -0.21875q0.21875 -1.015625 0.71875 -1.640625q0.5 -0.640625 1.453125 -0.984375q0.953125 -0.34375 2.1875 -0.34375q1.25 0 2.015625 0.296875q0.78125 0.28125 1.140625 0.734375q0.375 0.4375 0.515625 1.109375q0.078125 0.421875 0.078125 1.515625l0 2.1875q0 2.28125 0.109375 2.890625q0.109375 0.59375 0.40625 1.15625l-1.703125 0q-0.265625 -0.515625 -0.328125 -1.1875zm-0.140625 -3.671875q-0.890625 0.375 -2.671875 0.625q-1.015625 0.140625 -1.4375 0.328125q-0.421875 0.1875 -0.65625 0.53125q-0.21875 0.34375 -0.21875 0.78125q0 0.65625 0.5 1.09375q0.5 0.4375 1.453125 0.4375q0.9375 0 1.671875 -0.40625q0.75 -0.421875 1.09375 -1.140625q0.265625 -0.5625 0.265625 -1.640625l0 -0.609375zm7.781952 3.390625l0.234375 1.453125q-0.6875 0.140625 -1.234375 0.140625q-0.890625 0 -1.390625 -0.28125q-0.484375 -0.28125 -0.6875 -0.734375q-0.203125 -0.46875 -0.203125 -1.9375l0 -5.578125l-1.203125 0l0 -1.265625l1.203125 0l0 -2.390625l1.625 -0.984375l0 3.375l1.65625 0l0 1.265625l-1.65625 0l0 5.671875q0 0.6875 0.078125 0.890625q0.09375 0.203125 0.28125 0.328125q0.203125 0.109375 0.578125 0.109375q0.265625 0 0.71875 -0.0625zm8.230194 -1.640625l1.6875 0.203125q-0.40625 1.484375 -1.484375 2.3125q-1.078125 0.8125 -2.765625 0.8125q-2.125 0 -3.375 -1.296875q-1.234375 -1.3125 -1.234375 -3.671875q0 -2.453125 1.25 -3.796875q1.265625 -1.34375 3.265625 -1.34375q1.9375 0 3.15625 1.328125q1.234375 1.3125 1.234375 3.703125q0 0.15625 0 0.4375l-7.21875 0q0.09375 1.59375 0.90625 2.453125q0.8125 0.84375 2.015625 0.84375q0.90625 0 1.546875 -0.46875q0.640625 -0.484375 1.015625 -1.515625zm-5.390625 -2.65625l5.40625 0q-0.109375 -1.21875 -0.625 -1.828125q-0.78125 -0.953125 -2.03125 -0.953125q-1.125 0 -1.90625 0.765625q-0.765625 0.75 -0.84375 2.015625z" fill-rule="nonzero"/><path fill="#000000" fill-opacity="0.0" d="m298.73105 54.107613l71.08664 0" fill-rule="evenodd"/><path stroke="#595959" stroke-width="1.0" stroke-linejoin="round" stroke-linecap="butt" d="m298.73105 54.107613l67.659546 0" fill-rule="evenodd"/><path fill="#595959" stroke="#595959" stroke-width="1.0" stroke-linecap="butt" d="m366.3906 54.107613l-1.1246033 1.1245842l3.0897827 -1.1245842l-3.0897827 -1.1245842z" fill-rule="evenodd"/><path fill="#000000" fill-opacity="0.0" d="m54.7901 157.36244l103.27559 -103.27559l17.133865 17.133858l-103.2756 103.2756z" fill-rule="evenodd"/><path fill="#000000" d="m80.868744 156.70496l-8.098579 -8.098587l0.9943695 -0.9943695l8.098579 8.098587l-0.9943695 0.9943695zm-0.77892303 -5.0989075q-1.6241379 -1.6241302 -1.5026016 -3.31456q0.11048889 -1.4142151 1.1932449 -2.4969788q1.2153397 -1.215332 2.7731857 -1.18219q1.5578384 0.011047363 2.9610062 1.4142151q1.1269531 1.1269531 1.4363098 2.1213226q0.30936432 0.9943695 0.022102356 2.0108337q-0.2872696 0.9943695 -1.0606613 1.7677612q-1.2263947 1.2263947 -2.7731857 1.2042999q-1.5578461 -0.03315735 -3.0494003 -1.524704zm1.0275192 -1.0275116q1.1269455 1.1269531 2.1765594 1.2042847q1.0606613 0.06629944 1.800911 -0.67396545q0.74025726 -0.74024963 0.66291046 -1.789856q-0.06628418 -1.0606537 -1.226387 -2.2207642q-1.082756 -1.0827484 -2.1434174 -1.1490479q-1.0496063 -0.07733154 -1.7898636 0.6629181q-0.74024963 0.74024963 -0.6739578 1.8009186q0.06629181 1.038559 1.1932449 2.165512zm10.24752 -8.678635l1.1159058 -0.8507385q0.83968353 1.1711426 0.751297 2.4085846q-0.07733917 1.2263947 -1.038559 2.1876068q-1.2042923 1.2042999 -2.7289963 1.1600952q-1.5246964 -0.06628418 -2.994156 -1.5357361q-0.9501724 -0.95018005 -1.3479156 -1.9666443q-0.39775085 -1.038559 -0.11048889 -2.0329285q0.29830933 -1.0054169 1.049614 -1.7567291q0.9612198 -0.96121216 2.0550308 -1.0827484q1.082756 -0.13258362 2.1434174 0.59661865l-0.81759644 1.1048584q-0.7292023 -0.4419403 -1.3810654 -0.3867035q-0.64081573 0.044189453 -1.1380005 0.54138184q-0.7513046 0.751297 -0.6850128 1.7677612q0.06629181 0.9943695 1.237442 2.165512q1.18219 1.1822052 2.1765594 1.2705841q0.98332214 0.0773468 1.7125244 -0.65185547q0.5855713 -0.5855713 0.618721 -1.3258362q0.03314209 -0.76234436 -0.618721 -1.6130829zm7.082115 -4.231598q-0.07733917 1.0275269 -0.38669586 1.7346344q-0.32041168 0.6960449 -0.905983 1.2816315q-0.9722748 0.9722595 -1.9666367 1.0164642q-0.9943695 0.044189453 -1.7235794 -0.6850128q-0.43089294 -0.43089294 -0.5855713 -0.98332214q-0.16572571 -0.56347656 -0.06629181 -1.0827637q0.09944153 -0.5413666 0.3867035 -1.0496063q0.22097015 -0.37565613 0.74024963 -1.0275116q1.0606613 -1.3479309 1.4363098 -2.1213226q-0.20992279 -0.20991516 -0.26516724 -0.26516724q-0.607666 -0.607666 -1.1269455 -0.5745239q-0.7292099 0.044189453 -1.4805069 0.7955017q-0.6960602 0.6960602 -0.7844467 1.2926788q-0.088386536 0.5745239 0.3756485 1.3479156l-1.1048508 0.83969116q-0.4861374 -0.751297 -0.5745239 -1.4363098q-0.07733917 -0.6960602 0.29830933 -1.4694519q0.36460114 -0.78445435 1.1158981 -1.5357513q0.7513046 -0.751297 1.3921204 -1.038559q0.6518631 -0.29830933 1.1380005 -0.25411987q0.4861374 0.044189453 0.98332214 0.3645935q0.3093567 0.19888306 0.97226715 0.8617859l1.3258286 1.3258362q1.3921127 1.3921204 1.8119583 1.701477q0.43089294 0.29830933 0.9612274 0.45298767l-1.0385666 1.038559q-0.46403503 -0.15467834 -0.9280777 -0.5303345zm-2.2980957 -2.1434174q-0.32041168 0.7623596 -1.2484894 1.9997864q-0.53032684 0.70710754 -0.6739578 1.0717163q-0.14363098 0.3645935 -0.06629181 0.7292023q0.07733917 0.34249878 0.33145905 0.59661865q0.39774323 0.39775085 0.9612198 0.36460876q0.5745239 -0.044204712 1.1490479 -0.61872864q0.5745239 -0.5745239 0.77339935 -1.2595215q0.19887543 -0.70710754 -0.03314209 -1.3589783q-0.16573334 -0.49717712 -0.8286438 -1.1600952l-0.36460114 -0.36460876zm5.474556 0.42536926l-8.098587 -8.098579l0.9943695 -0.9943695l8.098587 8.098579l-0.9943695 0.9943695zm5.6679 -5.6678925l-5.8667755 -5.866783l0.894928 -0.894928l0.88388824 0.8838806q-0.2762146 -0.9612198 -0.18782806 -1.4473572q0.088386536 -0.4861374 0.4419403 -0.83969116q0.49718475 -0.49718475 1.3368759 -0.6960602l0.5745239 1.2595367q-0.5745239 0.15467834 -0.93912506 0.5192795q-0.32041168 0.32041168 -0.38669586 0.7844467q-0.06629181 0.4419403 0.17677307 0.905983q0.36460114 0.6960602 0.9943695 1.3258209l3.071495 3.0715027l-0.9943695 0.9943695zm0.46403503 -6.3418655q-1.6241302 -1.6241379 -1.5026016 -3.3145676q0.11048889 -1.4142151 1.1932449 -2.4969711q1.2153397 -1.2153397 2.7731857 -1.18219q1.5578461 0.011047363 2.9610062 1.4142151q1.1269531 1.1269455 1.4363174 2.121315q0.3093567 0.9943695 0.022094727 2.0108337q-0.28726196 0.9943695 -1.0606613 1.7677689q-1.226387 1.226387 -2.7731857 1.2042923q-1.5578461 -0.03314209 -3.0494003 -1.5246964zm1.0275192 -1.0275192q1.1269531 1.1269531 2.1765594 1.2042923q1.0606613 0.06629181 1.8009186 -0.6739578q0.74024963 -0.74025726 0.66291046 -1.7898636q-0.06629181 -1.0606613 -1.226387 -2.2207565q-1.082756 -1.0827637 -2.1434174 -1.1490555q-1.049614 -0.07733917 -1.7898636 0.6629181q-0.74025726 0.74024963 -0.67396545 1.800911q0.06629181 1.038559 1.1932449 2.165512zm12.424088 -6.546257l-0.8617859 -0.8617859q0.3093567 1.6793747 -0.87283325 2.8615723q-0.5192871 0.5192795 -1.1711502 0.7733917q-0.64081573 0.24307251 -1.1600952 0.16573334q-0.5303345 -0.088394165 -1.049614 -0.43089294q-0.35355377 -0.24307251 -0.98332214 -0.8728409l-3.634964 -3.634964l0.9943619 -0.9943695l3.2482758 3.2482681q0.7844467 0.7844467 1.1048508 0.9943695q0.49718475 0.29830933 1.0164719 0.22097015q0.53032684 -0.088386536 0.97226715 -0.53032684q0.4529953 -0.4529953 0.618721 -1.0606613q0.16572571 -0.6297684 -0.07733917 -1.1821976q-0.23201752 -0.56347656 -0.98332214 -1.3147736l-3.1377869 -3.1377869l0.9943695 -0.9943695l5.8667755 5.8667755l-0.8838806 0.88388824zm2.4472504 -2.447258l-5.8667755 -5.8667755l0.894928 -0.894928l0.8286438 0.82863617q-0.32040405 -1.6020355 0.905983 -2.8284225q0.53032684 -0.5303345 1.1600952 -0.7844467q0.6297684 -0.25411987 1.1600952 -0.16573334q0.5303345 0.088394165 1.049614 0.43089294q0.33145905 0.22097015 1.0164642 0.905983l3.612877 3.612877l-0.9943695 0.9943695l-3.5686798 -3.5686798q-0.60767365 -0.60767365 -1.0275192 -0.7844467q-0.41983795 -0.19887543 -0.894928 -0.07733917q-0.46404266 0.11048126 -0.8617859 0.5082321q-0.64081573 0.64081573 -0.6960602 1.513649q-0.055244446 0.8507385 1.0717087 1.9776917l3.2040787 3.204071l-0.9943695 0.9943695zm10.092842 -10.092842l-0.74024963 -0.74024963q0.32040405 1.4252625 -0.76234436 2.5080185q-0.70710754 0.70710754 -1.6793823 0.90597534q-0.9722748 0.19887543 -1.9997864 -0.16572571q-1.0164642 -0.3756485 -1.9113998 -1.2705841q-0.8838806 -0.8838806 -1.3037262 -1.8782501q-0.41984558 -1.0164642 -0.20992279 -1.9776917q0.19887543 -0.97226715 0.9280777 -1.7014694q0.53032684 -0.5303345 1.1600952 -0.71816254q0.64081573 -0.1988678 1.2595291 -0.088386536l-2.9057617 -2.9057617l0.9943695 -0.9943695l8.098587 8.098579l-0.9280853 0.9280777zm-6.065651 0.20992279q1.1269608 1.1269531 2.1655197 1.2153397q1.0275116 0.07733917 1.668335 -0.56347656q0.65185547 -0.6518631 0.5745239 -1.6351852q-0.0773468 -1.0054169 -1.1711578 -2.0992203q-1.2042847 -1.2042923 -2.2317963 -1.3037262q-1.0275192 -0.09944153 -1.7125244 0.5855713q-0.6629181 0.66291046 -0.56347656 1.6462326q0.0994339 0.98332214 1.2705765 2.1544647zm5.739723 -4.745346l-1.0054169 -1.0054245l3.0493927 -3.0493927l1.0054169 1.0054169l-3.0493927 3.0494003zm6.573883 -1.7125244l-5.8667755 -5.866783l0.894928 -0.894928l0.8838806 0.8838806q-0.2762146 -0.9612198 -0.18782043 -1.4473572q0.088394165 -0.4861374 0.4419403 -0.83969116q0.49719238 -0.49718475 1.3368683 -0.6960602l0.5745239 1.2595367q-0.5745239 0.15467834 -0.93911743 0.5192795q-0.32040405 0.32041168 -0.3867035 0.7844467q-0.06628418 0.44194794 0.17677307 0.905983q0.36460876 0.6960602 0.9943695 1.3258286l3.0715027 3.071495l-0.9943695 0.9943695zm0.46403503 -6.3418655q-1.6241302 -1.6241379 -1.502594 -3.3145676q0.11047363 -1.4142075 1.1932373 -2.4969711q1.2153473 -1.2153397 2.773178 -1.18219q1.5578461 0.011047363 2.9610138 1.4142151q1.1269531 1.1269455 1.4363098 2.121315q0.3093567 0.9943695 0.022094727 2.0108337q-0.28726196 0.9943695 -1.0606537 1.7677689q-1.2263947 1.226387 -2.773178 1.2042923q-1.5578461 -0.03314209 -3.049408 -1.5246964zm1.0275116 -1.0275192q1.1269531 1.1269531 2.1765747 1.2042923q1.0606537 0.06629181 1.8009033 -0.6739578q0.74024963 -0.74025726 0.6629181 -1.7898636q-0.06629944 -1.0606613 -1.2263947 -2.2207565q-1.0827484 -1.0827637 -2.1434174 -1.1490479q-1.0496063 -0.0773468 -1.789856 0.66291046q-0.74024963 0.74024963 -0.67396545 1.800911q0.06628418 1.0385666 1.1932373 2.165512zm9.496231 -3.618393l-0.9280853 0.9280777l-8.098572 -8.098587l0.9943695 -0.9943695l2.883667 2.8836746q-0.15467834 -1.4142151 0.8286438 -2.3975372q0.5413666 -0.5413742 1.2374268 -0.7954941q0.6960602 -0.2762146 1.4031677 -0.18782806q0.7181549 0.0773468 1.4584045 0.46404266q0.7292023 0.3756485 1.3589783 1.0054169q1.5136414 1.513649 1.5909882 3.0935898q0.07733154 1.5578461 -0.9722748 2.60746q-1.038559 1.038559 -2.4969635 0.751297l0.74024963 0.74025726zm-2.994156 -2.9720612q1.0606537 1.0606613 1.811966 1.2374344q1.2374268 0.30936432 2.0439758 -0.49718475q0.65185547 -0.6518631 0.56347656 -1.690422q-0.09944153 -1.049614 -1.2153473 -2.1655197q-1.1490479 -1.1490479 -2.1544647 -1.226387q-1.0054169 -0.0994339 -1.646225 0.54138184q-0.6518707 0.6518631 -0.56347656 1.6904297q0.088378906 1.038559 1.1600952 2.1102676zm1.4086914 -9.36364l-1.1380005 -1.1380005l0.9943695 -0.9943695l1.1380005 1.1380005l-0.9943695 0.9943695zm6.9605713 6.960579l-5.8667755 -5.8667755l0.9943695 -0.9943695l5.8667755 5.866783l-0.9943695 0.9943619zm2.5135498 -2.5135422l-5.8667755 -5.8667755l0.894928 -0.894928l0.8286438 0.82863617q-0.32040405 -1.6020355 0.90597534 -2.8284225q0.5303345 -0.5303345 1.1601105 -0.7844467q0.62976074 -0.25411987 1.1600952 -0.16573334q0.5303192 0.088394165 1.0496063 0.43089294q0.33145142 0.22097015 1.0164642 0.905983l3.6128693 3.612877l-0.9943695 0.9943695l-3.5686798 -3.5686798q-0.607666 -0.60767365 -1.0275116 -0.7844467q-0.41984558 -0.19887543 -0.894928 -0.0773468q-0.46403503 0.11048889 -0.8617859 0.50823975q-0.64082336 0.64081573 -0.6960602 1.513649q-0.055236816 0.8507385 1.0717163 1.977684l3.204071 3.2040787l-0.9943695 0.9943695z" fill-rule="nonzero"/><path fill="#000000" fill-opacity="0.0" d="m239.23892 157.36244l103.27557 -103.27559l17.13388 17.133858l-103.275604 103.2756z" fill-rule="evenodd"/><path fill="#000000" d="m270.34467 151.67786l-8.098602 -8.098572l0.99438477 -0.9943695l8.098572 8.098587l-0.99435425 0.99435425zm-0.77893066 -5.098892q-1.6241455 -1.6241455 -1.502594 -3.31456q0.11047363 -1.4142151 1.1932373 -2.4969788q1.215332 -1.215332 2.7731628 -1.18219q1.5578613 0.011047363 2.961029 1.4142151q1.1269531 1.1269531 1.4363098 2.1213226q0.3093567 0.9943695 0.022094727 2.0108337q-0.28726196 0.9943695 -1.060669 1.7677612q-1.2263794 1.2263947 -2.7731934 1.2042847q-1.5578308 -0.03314209 -3.0493774 -1.5246887zm1.0274963 -1.0275116q1.1269531 1.1269379 2.1765747 1.2042847q1.060669 0.06628418 1.8009033 -0.67396545q0.7402649 -0.74024963 0.66293335 -1.789856q-0.0663147 -1.060669 -1.2264099 -2.2207642q-1.0827332 -1.0827484 -2.143402 -1.1490479q-1.0496216 -0.07733154 -1.789856 0.6629181q-0.7402649 0.74024963 -0.6739807 1.8009033q0.06628418 1.0385742 1.1932373 2.1655273zm10.247528 -8.678635l1.1159058 -0.8507385q0.83969116 1.1711426 0.75131226 2.4085846q-0.07733154 1.2263794 -1.0385742 2.1876068q-1.2042847 1.2042847 -2.7289734 1.1600952q-1.5247192 -0.06628418 -2.9941711 -1.5357513q-0.9501648 -0.9501648 -1.3479309 -1.966629q-0.3977356 -1.0385742 -0.11047363 -2.0329437q0.29830933 -1.0054169 1.0496216 -1.7567139q0.96121216 -0.9612274 2.0550232 -1.0827484q1.0827637 -0.13258362 2.143402 0.59661865l-0.8175659 1.1048431q-0.7292175 -0.4419403 -1.381073 -0.38668823q-0.6408386 0.044189453 -1.1380005 0.54138184q-0.75131226 0.751297 -0.6850281 1.7677612q0.0663147 0.9943695 1.2374573 2.165512q1.18219 1.18219 2.1765442 1.2705841q0.9833374 0.0773468 1.7125244 -0.6518707q0.5855713 -0.5855713 0.6187134 -1.3258209q0.033172607 -0.76234436 -0.6187134 -1.6130829zm7.082123 -4.231598q-0.07733154 1.0275116 -0.38668823 1.7346191q-0.32040405 0.6960602 -0.90597534 1.2816315q-0.97229004 0.9722748 -1.9666443 1.0164642q-0.99438477 0.044204712 -1.7235718 -0.68499756q-0.4309082 -0.43089294 -0.5855713 -0.98332214q-0.16574097 -0.56347656 -0.0663147 -1.0827637q0.09945679 -0.54138184 0.38671875 -1.0496063q0.22094727 -0.37565613 0.7402344 -1.0275116q1.060669 -1.3479309 1.4363098 -2.1213226q-0.2098999 -0.20993042 -0.26516724 -0.26516724q-0.607666 -0.607666 -1.1269531 -0.5745239q-0.729187 0.044189453 -1.4804993 0.79548645q-0.6960449 0.6960602 -0.78445435 1.2926941q-0.088378906 0.5745239 0.3756714 1.3479156l-1.1048584 0.83969116q-0.48614502 -0.751297 -0.5745239 -1.4363098q-0.07733154 -0.6960602 0.29830933 -1.4694519q0.3645935 -0.78445435 1.1159058 -1.5357513q0.75128174 -0.7513046 1.3921204 -1.0385666q0.65185547 -0.29830933 1.1380005 -0.25411987q0.4861145 0.044197083 0.9833069 0.36460876q0.3093567 0.1988678 0.97229004 0.86177826l1.3258057 1.3258362q1.3921204 1.3921051 1.8119812 1.7014618q0.4308777 0.29832458 0.96121216 0.45300293l-1.0385742 1.038559q-0.46401978 -0.15467834 -0.92807007 -0.5303345zm-2.2980957 -2.1434174q-0.32040405 0.7623596 -1.2484741 1.9997864q-0.5303345 0.70710754 -0.6739807 1.0717163q-0.14361572 0.3645935 -0.06628418 0.7292023q0.07733154 0.34249878 0.33145142 0.59661865q0.3977661 0.39775085 0.9612427 0.36460876q0.5745239 -0.044204712 1.1490479 -0.61872864q0.5745239 -0.5745239 0.77337646 -1.2595367q0.19888306 -0.70710754 -0.03314209 -1.358963q-0.16571045 -0.49719238 -0.8286438 -1.1600952l-0.3645935 -0.36460876zm5.4745483 0.42536926l-8.098572 -8.098579l0.99435425 -0.9943695l8.098602 8.098579l-0.99438477 0.9943695zm7.9328613 -3.4250488l-8.120697 -8.120674l0.90600586 -0.905983l0.7623291 0.762352q-0.13256836 -0.77339935 0.044189453 -1.3921204q0.1878357 -0.6297684 0.7623596 -1.2042923q0.75131226 -0.751297 1.7125244 -0.93912506q0.9612427 -0.18782043 1.9555969 0.23201752q0.99435425 0.39775085 1.8340454 1.237442q0.90600586 0.90597534 1.2926941 1.9555893q0.3977356 1.0385666 0.16574097 2.0439835q-0.22097778 0.9943695 -0.90600586 1.6793747q-0.49716187 0.49718475 -1.1048584 0.6850128q-0.59661865 0.17677307 -1.1711426 0.11048126l2.8615723 2.86158l-0.99435425 0.9943619zm-4.26474 -6.054596q1.1380005 1.1380005 2.1323547 1.226387q1.0054321 0.07733917 1.6572876 -0.5745239q0.66293335 -0.66291046 0.5745239 -1.701477q-0.088378906 -1.0385666 -1.2595215 -2.2097092q-1.1269531 -1.1269531 -2.1434326 -1.2153397q-1.0274963 -0.0994339 -1.6683044 0.54138184q-0.62979126 0.62976074 -0.5303345 1.7235718q0.11047363 1.082756 1.2374268 2.2097092zm11.396576 -7.0434494q-0.07733154 1.0275116 -0.38668823 1.7346191q-0.32043457 0.6960602 -0.90600586 1.2816315q-0.9722595 0.9722748 -1.9666443 1.0164719q-0.99435425 0.044189453 -1.7235718 -0.6850128q-0.4308777 -0.43089294 -0.5855713 -0.98332214q-0.16571045 -0.56347656 -0.06628418 -1.082756q0.09945679 -0.54138184 0.38671875 -1.049614q0.22094727 -0.3756485 0.7402344 -1.0275116q1.060669 -1.3479233 1.4363098 -2.1213226q-0.20993042 -0.20992279 -0.26516724 -0.26516724q-0.607666 -0.607666 -1.1269531 -0.5745239q-0.729187 0.044197083 -1.4804993 0.7955017q-0.6960449 0.69605255 -0.78445435 1.2926788q-0.088378906 0.5745239 0.3756714 1.3479233l-1.1048584 0.83968353q-0.48614502 -0.751297 -0.5745239 -1.4363098q-0.07736206 -0.6960602 0.29830933 -1.4694519q0.3645935 -0.7844467 1.1159058 -1.5357513q0.75128174 -0.751297 1.3921204 -1.038559q0.65185547 -0.29831696 1.1380005 -0.25411987q0.4861145 0.044197083 0.9833069 0.36460114q0.3093567 0.19887543 0.9722595 0.8617859l1.3258362 1.3258286q1.3921204 1.3921127 1.8119507 1.701477q0.4309082 0.29830933 0.9612427 0.45298767l-1.0385742 1.038559q-0.46401978 -0.15467834 -0.92807007 -0.53032684zm-2.2980957 -2.1434174q-0.32040405 0.762352 -1.2485046 1.9997864q-0.53030396 0.70710754 -0.6739502 1.0717087q-0.14361572 0.36460114 -0.06628418 0.7292023q0.07733154 0.3425064 0.33145142 0.5966263q0.3977356 0.39774323 0.96121216 0.36460114q0.5745239 -0.044197083 1.1490479 -0.618721q0.5745239 -0.5745239 0.773407 -1.2595367q0.19888306 -0.7070999 -0.03314209 -1.3589706q-0.16574097 -0.49718475 -0.8286438 -1.1600952l-0.3645935 -0.36460114zm5.4855957 0.4143219l-5.8667603 -5.8667755l0.894928 -0.8949356l0.8838806 0.88388824q-0.2762146 -0.9612274 -0.1878357 -1.4473648q0.088378906 -0.4861374 0.44195557 -0.83968353q0.49716187 -0.49718475 1.336853 -0.6960602l0.5745239 1.2595291q-0.5745239 0.15468597 -0.93911743 0.5192871q-0.32040405 0.32040405 -0.38668823 0.7844467q-0.0663147 0.4419403 0.17675781 0.90597534q0.36462402 0.6960602 0.99438477 1.3258286l3.0715027 3.071495l-0.99438477 0.9943695zm5.0491943 -6.8390503l1.0274963 0.74024963q-0.33145142 0.50823975 -0.66290283 0.83969116q-0.54138184 0.54138184 -1.0054321 0.67396545q-0.47506714 0.121528625 -0.87283325 -0.03314972q-0.40878296 -0.16572571 -1.3037109 -1.0606613l-3.369812 -3.3698044l-0.729187 0.7292023l-0.773407 -0.7733917l0.729187 -0.7292099l-1.4584045 -1.4584045l0.3977661 -1.5909882l2.0550232 2.0550232l0.99435425 -0.9943695l0.773407 0.77339935l-0.99435425 0.9943695l3.4250488 3.4250488q0.4308777 0.43089294 0.59661865 0.5082321q0.17675781 0.06629181 0.37564087 0.022102356q0.1878357 -0.055244446 0.40878296 -0.2762146q0.16574097 -0.16573334 0.38671875 -0.47509003zm-5.08786 -7.0434494l-1.1380005 -1.1379929l0.99435425 -0.9943695l1.1380005 1.1380005l-0.99435425 0.9943619zm6.9605713 6.9605865l-5.8667603 -5.8667755l0.99435425 -0.9943695l5.866791 5.8667755l-0.99438477 0.9943695zm3.7841492 -5.57399l1.0274963 0.74024963q-0.33145142 0.5082321 -0.66290283 0.83969116q-0.54138184 0.54138184 -1.0054321 0.6739578q-0.47506714 0.121536255 -0.87283325 -0.03314209q-0.40878296 -0.16572571 -1.3037109 -1.0606613l-3.369812 -3.3698044l-0.7292175 0.7292023l-0.77337646 -0.77339935l0.729187 -0.7292023l-1.4584045 -1.4584045l0.3977356 -1.5909958l2.0550537 2.0550308l0.99435425 -0.9943695l0.773407 0.77339935l-0.99438477 0.9943695l3.4250488 3.4250488q0.4309082 0.43089294 0.59661865 0.5082321q0.17678833 0.06629181 0.3756714 0.022094727q0.18780518 -0.055236816 0.40878296 -0.27620697q0.16574097 -0.16573334 0.38671875 -0.47509003zm-5.08786 -7.0434494l-1.1380005 -1.1380005l0.99435425 -0.9943695l1.1380005 1.1380005l-0.99435425 0.9943695zm6.9605713 6.9605865l-5.8667603 -5.8667755l0.99435425 -0.9943695l5.866791 5.8667755l-0.99438477 0.9943695zm-0.8010254 -5.076805q-1.624115 -1.6241379 -1.502594 -3.3145676q0.11047363 -1.4142151 1.1932373 -2.4969711q1.215332 -1.2153397 2.7731934 -1.18219q1.5578308 0.011047363 2.9609985 1.4142151q1.1269531 1.1269455 1.4363098 2.121315q0.3093567 0.9943695 0.022094727 2.0108337q-0.28726196 0.9943695 -1.0606384 1.7677689q-1.2264099 1.226387 -2.7731934 1.2042923q-1.5578613 -0.03314209 -3.049408 -1.5246964zm1.0275269 -1.0275192q1.1269531 1.1269531 2.1765442 1.2042923q1.060669 0.06629181 1.8009338 -0.6739578q0.7402344 -0.74025726 0.66290283 -1.7898636q-0.06628418 -1.0606613 -1.2263794 -2.2207565q-1.0827637 -1.0827637 -2.1434326 -1.1490555q-1.0495911 -0.07733917 -1.789856 0.6629181q-0.7402649 0.74024963 -0.6739502 1.800911q0.06628418 1.038559 1.1932373 2.165512zm8.579193 -2.7013702l-5.866791 -5.8667755l0.894928 -0.894928l0.8286438 0.82863617q-0.32040405 -1.6020355 0.90600586 -2.8284225q0.53030396 -0.5303345 1.1600952 -0.7844467q0.62976074 -0.25411987 1.1600952 -0.16573334q0.5303345 0.088394165 1.0495911 0.43090057q0.33148193 0.22097015 1.0164795 0.90597534l3.6128845 3.612877l-0.99438477 0.9943695l-3.5686646 -3.5686798q-0.60769653 -0.60767365 -1.0275269 -0.7844467q-0.41983032 -0.19887543 -0.894928 -0.07733917q-0.4640503 0.11048126 -0.8617859 0.5082321q-0.6408081 0.64081573 -0.69607544 1.513649q-0.055236816 0.8507385 1.0717163 1.9776917l3.204071 3.2040787l-0.99435425 0.9943619zm8.413452 -12.192062l1.1490479 -0.905983q0.66293335 1.1490479 0.49719238 2.309143q-0.15466309 1.1490479 -1.1711426 2.1655197q-1.2926941 1.2926788 -2.8394775 1.2484818q-1.5467834 -0.044189453 -2.972046 -1.4694519q-1.4805298 -1.4805069 -1.5357666 -3.0604477q-0.055236816 -1.5799408 1.1600952 -2.7952805q1.1711426 -1.1711502 2.7179565 -1.1048584q1.5467834 0.044197083 2.9941406 1.4915543q0.088409424 0.088386536 0.26516724 0.26516724l-4.3752136 4.3752213q1.0275269 0.91703033 2.0329285 0.9501724q1.0054321 0.011047363 1.7346191 -0.7181549q0.5524292 -0.55242157 0.65185547 -1.226387q0.09945679 -0.6739578 -0.3093567 -1.5246964zm-4.872406 1.6462326l3.2703857 -3.2703705q-0.8065491 -0.6739578 -1.4804993 -0.7292023q-1.0496216 -0.09944153 -1.8009338 0.6518631q-0.68499756 0.6850128 -0.6960449 1.6241379q-0.011047363 0.9170227 0.7070923 1.7235718zm12.843933 -5.839157l-0.7402344 -0.74024963q0.32040405 1.4252625 -0.7623596 2.5080185q-0.7070923 0.70710754 -1.6793823 0.90597534q-0.9722595 0.19887543 -1.9997864 -0.16572571q-1.016449 -0.3756485 -1.9114075 -1.2705841q-0.8838806 -0.8838806 -1.3037109 -1.8782501q-0.41986084 -1.0164642 -0.20993042 -1.9776917q0.19888306 -0.97226715 0.92807007 -1.7014694q0.5303345 -0.5303345 1.1600952 -0.7181549q0.6408386 -0.19887543 1.259552 -0.088394165l-2.9057617 -2.9057617l0.99435425 -0.9943695l8.098572 8.098579l-0.92807007 0.9280777zm-6.0656433 0.20992279q1.1269531 1.1269531 2.1655273 1.2153397q1.0274963 0.07733917 1.6683044 -0.56347656q0.651886 -0.6518631 0.5745239 -1.6351852q-0.07733154 -1.0054169 -1.1711426 -2.0992203q-1.2042847 -1.2042923 -2.231781 -1.3037262q-1.0275269 -0.09944153 -1.7125244 0.5855713q-0.66293335 0.66291046 -0.56347656 1.6462326q0.09942627 0.98332214 1.2705688 2.1544647z" fill-rule="nonzero"/><path fill="#000000" fill-opacity="0.0" d="m415.75864 182.8192l128.75589 -128.7559l17.13385 17.133854l-128.75589 128.75592z" fill-rule="evenodd"/><path fill="#000000" d="m447.23685 176.76212l-0.7402344 -0.74024963q0.32040405 1.4252625 -0.7623596 2.5080261q-0.7070923 0.70710754 -1.6793823 0.90597534q-0.9722595 0.1988678 -1.9997864 -0.16572571q-1.016449 -0.37565613 -1.911377 -1.2705841q-0.88391113 -0.8838806 -1.3037415 -1.8782501q-0.41986084 -1.0164642 -0.20993042 -1.9776917q0.19888306 -0.9722748 0.92807007 -1.701477q0.5303345 -0.5303345 1.1601257 -0.7181549q0.6408081 -0.1988678 1.2595215 -0.088394165l-2.9057617 -2.9057617l0.99435425 -0.9943695l8.098602 8.098587l-0.9281006 0.92807007zm-6.0656433 0.20993042q1.1269531 1.1269531 2.1655273 1.215332q1.0274963 0.0773468 1.668335 -0.56347656q0.65185547 -0.65185547 0.5745239 -1.6351776q-0.07736206 -1.0054169 -1.1711731 -2.099228q-1.2042847 -1.2042847 -2.231781 -1.3037262q-1.0275269 -0.09944153 -1.7125244 0.5855713q-0.66293335 0.6629181 -0.56347656 1.6462402q0.09942627 0.98332214 1.2705688 2.1544647zm1.5965271 -9.661957l-1.1380005 -1.1380005l0.99435425 -0.9943695l1.1380005 1.1380005l-0.99435425 0.9943695zm6.9605713 6.9605865l-5.8667603 -5.8667755l0.99435425 -0.9943695l5.866791 5.8667755l-0.99438477 0.9943695zm0.35906982 -3.8725128l0.8286438 -1.1380005q0.6739807 0.51927185 1.3700256 0.46403503q0.6960449 -0.07733154 1.3700256 -0.751297q0.68499756 -0.6850128 0.7402344 -1.2926788q0.04421997 -0.61872864 -0.33145142 -0.9943695q-0.33145142 -0.33146667 -0.81759644 -0.24307251q-0.34249878 0.0773468 -1.3479004 0.6850128q-1.3700256 0.81759644 -1.9997864 1.0496063q-0.62979126 0.20993042 -1.2043152 0.0773468q-0.56347656 -0.14363098 -0.99435425 -0.5745239q-0.3977356 -0.39775085 -0.5524292 -0.9059906q-0.1546936 -0.5082245 -0.06628418 -1.038559q0.055236816 -0.40879822 0.34249878 -0.9170227q0.28726196 -0.5303345 0.7402649 -0.98332214q0.6960449 -0.6960602 1.4142151 -1.0164642q0.71813965 -0.3204193 1.3037109 -0.22097778q0.5855713 0.0773468 1.259552 0.5524292l-0.83969116 1.1048584q-0.5192871 -0.3867035 -1.093811 -0.32040405q-0.5745239 0.06628418 -1.1490479 0.6408081q-0.6850281 0.6850128 -0.75131226 1.2153473q-0.06628418 0.5082245 0.23202515 0.8065338q0.19888306 0.19888306 0.47509766 0.23202515q0.2762146 0.03314209 0.6408081 -0.11048889q0.20993042 -0.09944153 1.1380005 -0.62976074q1.3258057 -0.773407 1.9335022 -1.0054169q0.59661865 -0.24307251 1.1711426 -0.13258362q0.5855713 0.09942627 1.0937805 0.607666q0.49719238 0.49717712 0.6408386 1.237442q0.14361572 0.7181549 -0.16574097 1.5136414q-0.29830933 0.78445435 -0.9833069 1.4694519q-1.1490479 1.1490479 -2.2207642 1.2705841q-1.0717163 0.121536255 -2.1765747 -0.65185547zm9.081909 -7.3583374l1.0275269 0.74024963q-0.33145142 0.50823975 -0.66293335 0.83969116q-0.54138184 0.54138184 -1.0054016 0.67396545q-0.47509766 0.121536255 -0.87283325 -0.03314209q-0.40881348 -0.16572571 -1.3037415 -1.060669l-3.369812 -3.3697968l-0.729187 0.7292023l-0.773407 -0.773407l0.7292175 -0.7292023l-1.4584045 -1.4584045l0.3977356 -1.5909882l2.0550232 2.0550232l0.99438477 -0.9943695l0.77337646 0.773407l-0.99435425 0.9943695l3.4250488 3.4250488q0.4308777 0.43089294 0.59661865 0.5082245q0.17678833 0.06629944 0.37564087 0.022109985q0.1878357 -0.055252075 0.40881348 -0.2762146q0.16571045 -0.16574097 0.38668823 -0.47509766zm1.8616943 -0.07180786l-5.866791 -5.8667755l0.894928 -0.89494324l0.8838806 0.8838959q-0.2762146 -0.9612274 -0.18780518 -1.4473724q0.088378906 -0.48612976 0.44192505 -0.8396759q0.49719238 -0.49719238 1.3368835 -0.6960602l0.5745239 1.2595367q-0.5745239 0.15467834 -0.93911743 0.51927185q-0.32043457 0.32040405 -0.38671875 0.78445435q-0.06628418 0.4419403 0.17678833 0.90597534q0.3645935 0.6960602 0.99435425 1.3258209l3.0715027 3.0715027l-0.99435425 0.9943695zm-3.1820068 -10.7391815l-1.13797 -1.1380005l0.99435425 -0.9943695l1.1380005 1.1380005l-0.99438477 0.9943695zm6.960602 6.9605713l-5.866791 -5.8667755l0.99438477 -0.9943695l5.8667603 5.8667755l-0.99435425 0.9943695zm3.4305725 -3.4305725l-0.92807007 0.9280853l-8.098602 -8.098587l0.99438477 -0.9943695l2.883667 2.883667q-0.1546936 -1.4142151 0.8286438 -2.397522q0.54138184 -0.54138184 1.2374268 -0.7955017q0.69607544 -0.2762146 1.4031677 -0.18782043q0.71813965 0.07733154 1.4584045 0.46403503q0.7292175 0.37565613 1.3589783 1.0054169q1.5136414 1.5136566 1.5909729 3.0935974q0.07736206 1.5578308 -0.9722595 2.6074524q-1.0385742 1.038559 -2.4969788 0.751297l0.7402649 0.74024963zm-2.9941711 -2.9720612q1.060669 1.060669 1.8119812 1.237442q1.2374268 0.3093567 2.0439758 -0.49717712q0.65185547 -0.6518707 0.56347656 -1.6904297q-0.09945679 -1.0496216 -1.215332 -2.165512q-1.1490479 -1.1490479 -2.15448 -1.2263947q-1.0054016 -0.09944153 -1.6462402 0.54138184q-0.65185547 0.65185547 -0.56347656 1.6904297q0.088409424 1.038559 1.1600952 2.11026zm12.214172 -6.24794l-0.8617859 -0.8617859q0.3093567 1.6793671 -0.87283325 2.8615723q-0.5192871 0.51927185 -1.1711426 0.7733917q-0.6408081 0.24307251 -1.1600952 0.16572571q-0.5303345 -0.088378906 -1.0496216 -0.43089294q-0.35354614 -0.24305725 -0.9833069 -0.87283325l-3.6349792 -3.634964l0.99438477 -0.9943695l3.2482605 3.2482758q0.78445435 0.7844391 1.1048584 0.99435425q0.49719238 0.29832458 1.016449 0.22097778q0.5303345 -0.088394165 0.97229004 -0.5303345q0.4529724 -0.45298767 0.6187134 -1.0606537q0.16571045 -0.629776 -0.07733154 -1.18219q-0.23202515 -0.56347656 -0.9833374 -1.3147888l-3.1377869 -3.1377869l0.99438477 -0.9943695l5.8667603 5.866791l-0.8838806 0.8838806zm3.7178345 -5.5077057l1.0275269 0.74024963q-0.33145142 0.50823975 -0.66293335 0.83969116q-0.5413513 0.54138184 -1.0054016 0.67396545q-0.47509766 0.121536255 -0.87283325 -0.03314209q-0.40881348 -0.16572571 -1.3037415 -1.060669l-3.369812 -3.3697968l-0.729187 0.7292023l-0.773407 -0.773407l0.7292175 -0.7292023l-1.4584045 -1.4584045l0.3977356 -1.5909882l2.0550232 2.0550232l0.99438477 -0.9943695l0.77337646 0.773407l-0.99435425 0.9943695l3.4250488 3.4250488q0.4308777 0.43089294 0.59661865 0.5082245q0.17678833 0.06629944 0.37564087 0.022094727q0.1878357 -0.055236816 0.40881348 -0.27619934q0.16571045 -0.16574097 0.38668823 -0.47509766zm3.994049 -5.982788l1.1490479 -0.90597534q0.66290283 1.1490479 0.49719238 2.309143q-0.1546936 1.1490479 -1.1711426 2.165512q-1.2926941 1.2926788 -2.8394775 1.2484894q-1.546814 -0.044189453 -2.9720764 -1.4694519q-1.4804993 -1.4805145 -1.5357361 -3.0604553q-0.055236816 -1.5799408 1.1600952 -2.7952728q1.1711426 -1.1711426 2.7179565 -1.1048584q1.5467834 0.044189453 2.9941406 1.4915466q0.088378906 0.088394165 0.26516724 0.26516724l-4.3752136 4.375229q1.0274963 0.9170227 2.0329285 0.95018005q1.0054016 0.011047363 1.7346191 -0.7181549q0.5524292 -0.5524292 0.65185547 -1.2263947q0.09945679 -0.67396545 -0.3093567 -1.524704zm-4.872406 1.6462402l3.2703857 -3.2703705q-0.8065491 -0.67396545 -1.4805298 -0.7292023q-1.0495911 -0.09944153 -1.8009033 0.65185547q-0.68499756 0.6850128 -0.6960449 1.6241455q-0.011047363 0.9170227 0.7070923 1.7235718zm12.843933 -5.839157l-0.7402649 -0.74024963q0.32043457 1.4252625 -0.7623291 2.5080109q-0.7071228 0.70710754 -1.6793823 0.9059906q-0.97229004 0.1988678 -1.9997864 -0.16572571q-1.0164795 -0.37565613 -1.9114075 -1.2705841q-0.8838806 -0.8838959 -1.3037109 -1.8782654q-0.41986084 -1.0164642 -0.20993042 -1.9776764q0.19888306 -0.9722748 0.92807007 -1.7014847q0.5303345 -0.53032684 1.1600952 -0.7181549q0.6408081 -0.1988678 1.259552 -0.088386536l-2.9057922 -2.9057693l0.99438477 -0.9943619l8.098572 8.098572l-0.92807007 0.9280853zm-6.0656433 0.20991516q1.1269531 1.1269531 2.1654968 1.2153473q1.0275269 0.07733154 1.668335 -0.56347656q0.65185547 -0.6518707 0.5745239 -1.6351776q-0.07733154 -1.0054169 -1.1711426 -2.099228q-1.2042847 -1.2042923 -2.2318115 -1.3037338q-1.0274963 -0.0994339 -1.7125244 0.5855789q-0.66290283 0.66291046 -0.56347656 1.646225q0.09945679 0.98332214 1.2705994 2.1544647zm13.954315 -3.590767l-8.120697 -8.120682l0.90597534 -0.905983l0.7623596 0.762352q-0.13256836 -0.77339935 0.044189453 -1.3921204q0.1878357 -0.62976074 0.7623596 -1.2042847q0.75131226 -0.7513046 1.7125244 -0.9391327q0.96121216 -0.18782043 1.9555969 0.23202515q0.99435425 0.39774323 1.8340454 1.2374344q0.90597534 0.905983 1.2926941 1.9555893q0.3977356 1.0385666 0.16571045 2.0439835q-0.22097778 0.9943695 -0.90597534 1.6793747q-0.49719238 0.49718475 -1.1048584 0.6850128q-0.59661865 0.1767807 -1.1711426 0.11048889l2.8615723 2.8615723l-0.99435425 0.9943695zm-4.26474 -6.0546036q1.1380005 1.1380005 2.1323547 1.226387q1.0054321 0.07733917 1.6572876 -0.5745239q0.66290283 -0.66291046 0.5745239 -1.701477q-0.088378906 -1.038559 -1.2595215 -2.2097092q-1.1269531 -1.1269531 -2.1434326 -1.2153397q-1.0275269 -0.0994339 -1.668335 0.54138184q-0.62976074 0.6297684 -0.5303345 1.7235718q0.11050415 1.082756 1.2374573 2.2097092zm11.396576 -7.0434494q-0.07736206 1.0275192 -0.38671875 1.7346191q-0.32040405 0.6960602 -0.90597534 1.2816315q-0.9722595 0.9722748 -1.9666443 1.0164719q-0.99435425 0.044189453 -1.7235718 -0.6850128q-0.4308777 -0.43089294 -0.5855713 -0.98332214q-0.16571045 -0.56347656 -0.06628418 -1.082756q0.09942627 -0.5413742 0.38668823 -1.049614q0.22097778 -0.3756485 0.7402649 -1.0275116q1.060669 -1.3479233 1.4363098 -2.1213226q-0.20993042 -0.20992279 -0.26516724 -0.2651596q-0.607666 -0.60767365 -1.1269531 -0.5745239q-0.7292175 0.044189453 -1.4804993 0.7954941q-0.69607544 0.69605255 -0.78445435 1.2926788q-0.088378906 0.5745239 0.37564087 1.3479233l-1.1048584 0.83968353q-0.4861145 -0.751297 -0.5745239 -1.4363098q-0.07733154 -0.69605255 0.29833984 -1.4694519q0.3645935 -0.7844467 1.1158752 -1.5357513q0.75131226 -0.751297 1.3921204 -1.038559q0.651886 -0.29830933 1.1380005 -0.25411987q0.48614502 0.044197083 0.9833374 0.36460114q0.3093567 0.19887543 0.9722595 0.8617859l1.3258362 1.3258286q1.3921204 1.3921127 1.8119507 1.701477q0.4309082 0.29830933 0.96121216 0.45298767l-1.0385437 1.0385666q-0.4640503 -0.15468597 -0.92807007 -0.5303345zm-2.2980957 -2.1434174q-0.32043457 0.762352 -1.2485046 1.9997864q-0.5303345 0.70710754 -0.6739502 1.0717087q-0.14364624 0.36460114 -0.06628418 0.7292023q0.07733154 0.3425064 0.33145142 0.5966263q0.3977356 0.39774323 0.96121216 0.36460114q0.5745239 -0.044197083 1.1490479 -0.618721q0.5745239 -0.5745239 0.773407 -1.2595291q0.19888306 -0.70710754 -0.03314209 -1.3589706q-0.16574097 -0.49718475 -0.8286438 -1.1601028l-0.3645935 -0.36460114zm5.4855957 0.4143219l-5.866791 -5.8667755l0.894928 -0.8949356l0.8838806 0.88388824q-0.2762146 -0.9612274 -0.18780518 -1.4473648q0.088378906 -0.48612976 0.44192505 -0.83968353q0.49719238 -0.49718475 1.3368835 -0.6960602l0.5745239 1.2595367q-0.5745239 0.15467834 -0.93911743 0.5192795q-0.32040405 0.32040405 -0.38671875 0.7844467q-0.06628418 0.4419403 0.17678833 0.90597534q0.3645935 0.6960602 0.99435425 1.3258286l3.0715332 3.071495l-0.99438477 0.9943695zm5.0491943 -6.8390503l1.0275269 0.74025726q-0.33148193 0.5082321 -0.66296387 0.83968353q-0.54138184 0.54138184 -1.0053711 0.67396545q-0.47509766 0.121528625 -0.87286377 -0.03314972q-0.40881348 -0.16572571 -1.3037109 -1.0606613l-3.369812 -3.3698044l-0.7292175 0.7292099l-0.77337646 -0.77339935l0.729187 -0.7292099l-1.4584045 -1.4584045l0.3977356 -1.5909882l2.0550537 2.0550308l0.99435425 -0.9943695l0.77337646 0.7733917l-0.99435425 0.9943695l3.4250793 3.4250488q0.43084717 0.43089294 0.59661865 0.5082321q0.17675781 0.06629181 0.37561035 0.022102356q0.18786621 -0.055244446 0.40881348 -0.2762146q0.16571045 -0.16572571 0.38671875 -0.47509003zm-5.08786 -7.043442l-1.1380005 -1.1380005l0.99435425 -0.9943695l1.1380005 1.1380005l-0.99435425 0.9943695zm6.960541 6.960579l-5.8667603 -5.8667755l0.99438477 -0.9943695l5.8667603 5.8667755l-0.99438477 0.9943695zm3.7841797 -5.57399l1.0274658 0.74024963q-0.3314209 0.50823975 -0.66290283 0.83969116q-0.54138184 0.54138184 -1.0054321 0.67396545q-0.47503662 0.121528625 -0.87280273 -0.03314972q-0.40881348 -0.16572571 -1.3037109 -1.0606613l-3.369812 -3.3698044l-0.729187 0.7292023l-0.7734375 -0.77339935l0.729187 -0.7292023l-1.458374 -1.4584045l0.3977661 -1.5909882l2.0549927 2.0550232l0.99438477 -0.9943695l0.77337646 0.77339935l-0.99432373 0.9943695l3.4250488 3.4250488q0.43084717 0.43089294 0.59661865 0.5082321q0.17675781 0.06629181 0.37561035 0.022102356q0.18786621 -0.055244446 0.40881348 -0.2762146q0.16571045 -0.16573334 0.38671875 -0.47509003zm-5.0878906 -7.0434494l-1.1380005 -1.1380005l0.99438477 -0.9943619l1.1380005 1.1379929l-0.99438477 0.9943695zm6.9605713 6.9605865l-5.8667603 -5.8667755l0.99438477 -0.9943695l5.8667603 5.8667755l-0.99438477 0.9943695zm-0.8010254 -5.076805q-1.6240845 -1.6241379 -1.5025635 -3.3145676q0.11047363 -1.4142075 1.1932373 -2.4969711q1.215332 -1.2153397 2.7731934 -1.18219q1.5578613 0.011047363 2.9609985 1.4142151q1.1269531 1.1269455 1.4362793 2.121315q0.3093872 0.9943695 0.022155762 2.0108414q-0.28729248 0.9943619 -1.060669 1.7677612q-1.2263794 1.226387 -2.7731934 1.2042923q-1.5578613 -0.03314209 -3.0494385 -1.5246964zm1.0275269 -1.0275192q1.1269531 1.1269531 2.1765747 1.2042923q1.060669 0.06629181 1.8009033 -0.6739578q0.7402954 -0.74025726 0.66290283 -1.7898636q-0.06628418 -1.0606613 -1.2263794 -2.2207565q-1.0827637 -1.082756 -2.1433716 -1.1490479q-1.0496216 -0.07733917 -1.789917 0.66291046q-0.7402344 0.74024963 -0.6739502 1.800911q0.06628418 1.0385666 1.1932373 2.165512zm8.579224 -2.7013626l-5.8667603 -5.866783l0.89489746 -0.894928l0.8286743 0.8286438q-0.32043457 -1.6020432 0.9059448 -2.8284302q0.5303345 -0.5303345 1.1600952 -0.7844467q0.62976074 -0.25411987 1.1600952 -0.16572571q0.5303345 0.088386536 1.0496216 0.43089294q0.33148193 0.22097015 1.0164795 0.90597534l3.612854 3.612877l-0.99438477 0.9943695l-3.5686646 -3.5686798q-0.607666 -0.60767365 -1.0275269 -0.7844467q-0.4197998 -0.19887543 -0.89489746 -0.07733917q-0.4640503 0.11048126 -0.8618164 0.5082321q-0.6408081 0.64081573 -0.6960449 1.513649q-0.055236816 0.8507385 1.0717163 1.9776917l3.2041016 3.2040787l-0.99438477 0.9943695zm8.413452 -12.19207l1.1490479 -0.905983q0.66290283 1.1490479 0.49719238 2.3091507q-0.15466309 1.1490479 -1.1711426 2.165512q-1.2926636 1.2926788 -2.8394775 1.2484818q-1.546814 -0.044189453 -2.972046 -1.4694519q-1.4805298 -1.4805069 -1.5357666 -3.0604477q-0.055236816 -1.5799408 1.1600952 -2.7952805q1.1711426 -1.1711502 2.7179565 -1.1048584q1.5467529 0.044197083 2.9941406 1.4915543q0.088378906 0.088386536 0.26513672 0.26516724l-4.375183 4.3752213q1.0275269 0.91703033 2.032898 0.9501724q1.0054321 0.011054993 1.7346191 -0.7181549q0.5524292 -0.55242157 0.6519165 -1.226387q0.09942627 -0.6739578 -0.3093872 -1.5246964zm-4.8723755 1.6462326l3.2703247 -3.2703705q-0.80651855 -0.6739578 -1.4804688 -0.7292023q-1.0496216 -0.0994339 -1.8009644 0.6518631q-0.68499756 0.6850128 -0.6960449 1.6241379q-0.011047363 0.91703033 0.7071533 1.7235718zm12.843872 -5.839157l-0.7402344 -0.74024963q0.32043457 1.4252625 -0.7623291 2.5080185q-0.7070923 0.70710754 -1.6793823 0.905983q-0.97229004 0.1988678 -1.9998169 -0.16573334q-1.0164185 -0.3756485 -1.911377 -1.2705765q-0.8838501 -0.88388824 -1.3037109 -1.8782578q-0.41986084 -1.0164642 -0.20996094 -1.977684q0.19891357 -0.9722748 0.9281006 -1.701477q0.5303345 -0.5303345 1.1600952 -0.7181549q0.6408081 -0.19887543 1.2595215 -0.088394165l-2.9057617 -2.9057617l0.99438477 -0.9943695l8.098572 8.098579l-0.9281006 0.9280777zm-6.065613 0.20992279q1.1269531 1.1269531 2.1655273 1.2153397q1.0274658 0.07733917 1.668335 -0.56347656q0.65185547 -0.6518631 0.5745239 -1.6351852q-0.07739258 -1.0054169 -1.1711426 -2.0992203q-1.2043457 -1.2042923 -2.2318115 -1.3037262q-1.0275269 -0.09944153 -1.7125244 0.5855713q-0.66296387 0.66291046 -0.56347656 1.6462326q0.09942627 0.98332214 1.2705688 2.1544647z" fill-rule="nonzero"/><path fill="#000000" fill-opacity="0.0" d="m601.8767 182.8192l128.75592 -128.7559l17.13385 17.133854l-128.75586 128.75592z" fill-rule="evenodd"/><path fill="#000000" d="m653.43567 156.6814l-8.098572 -8.098587l0.99438477 -0.9943695l8.098572 8.098587l-0.99438477 0.9943695zm-0.7788696 -5.0989075q-1.6241455 -1.6241302 -1.5026245 -3.31456q0.11047363 -1.4142151 1.1932373 -2.4969788q1.215332 -1.215332 2.7731934 -1.18219q1.5578613 0.011047363 2.9609985 1.4142151q1.1269531 1.1269531 1.4363403 2.1213226q0.30932617 0.9943695 0.022094727 2.0108337q-0.28729248 0.9943695 -1.060669 1.7677612q-1.2263794 1.2263947 -2.7731934 1.2042999q-1.5578613 -0.03315735 -3.0493774 -1.524704zm1.0274658 -1.0275116q1.1269531 1.1269531 2.1765747 1.2042847q1.060669 0.06629944 1.8009033 -0.6739502q0.7402954 -0.7402649 0.66290283 -1.7898712q-0.06628418 -1.0606537 -1.2263794 -2.2207642q-1.0827637 -1.0827484 -2.1433716 -1.1490479q-1.0496216 -0.07733154 -1.789917 0.6629181q-0.7402344 0.74024963 -0.6739502 1.8009186q0.06628418 1.038559 1.1932373 2.165512zm10.247559 -8.678635l1.1159058 -0.8507385q0.83966064 1.1711426 0.75128174 2.4085846q-0.07733154 1.2263947 -1.0385742 2.1876068q-1.2042847 1.2042999 -2.729004 1.1600952q-1.5246582 -0.06628418 -2.9941406 -1.5357361q-0.9501343 -0.95018005 -1.3479004 -1.9666443q-0.3977661 -1.038559 -0.11047363 -2.0329285q0.2982788 -1.0054169 1.0496216 -1.7567291q0.96118164 -0.96121216 2.0549927 -1.0827484q1.0827637 -0.13258362 2.1434326 0.59661865l-0.81762695 1.1048584q-0.729187 -0.4419403 -1.3810425 -0.3867035q-0.6408081 0.044189453 -1.1380005 0.54138184q-0.75128174 0.751297 -0.68499756 1.7677612q0.06628418 0.9943695 1.2374268 2.165512q1.18219 1.1822052 2.1765747 1.2705841q0.9833374 0.0773468 1.7125244 -0.65185547q0.5855713 -0.5855713 0.6187134 -1.3258362q0.03314209 -0.76234436 -0.6187134 -1.6130829zm7.0820923 -4.231598q-0.07733154 1.0275269 -0.3866577 1.7346344q-0.32043457 0.6960449 -0.90600586 1.2816315q-0.97229004 0.9722595 -1.9666748 1.0164642q-0.99432373 0.044189453 -1.7235718 -0.6850128q-0.43084717 -0.43089294 -0.5855713 -0.98332214q-0.16571045 -0.56347656 -0.06628418 -1.0827637q0.099487305 -0.5413666 0.38671875 -1.0496063q0.22094727 -0.37565613 0.7402344 -1.0275116q1.060669 -1.3479309 1.4363403 -2.1213226q-0.20996094 -0.20991516 -0.26519775 -0.26516724q-0.607666 -0.607666 -1.1269531 -0.5745239q-0.729187 0.044189453 -1.4804688 0.7955017q-0.6960449 0.6960602 -0.78448486 1.2926788q-0.088378906 0.5745239 0.3756714 1.3479156l-1.1048584 0.83969116q-0.48614502 -0.751297 -0.5745239 -1.4363098q-0.07733154 -0.6960602 0.29833984 -1.4694519q0.364563 -0.78445435 1.1159058 -1.5357513q0.75128174 -0.751297 1.3920898 -1.038559q0.65185547 -0.29830933 1.1380005 -0.25411987q0.48614502 0.044189453 0.9833374 0.36460876q0.30932617 0.1988678 0.972229 0.8617859l1.3258667 1.3258209q1.3920898 1.3921204 1.8119507 1.701477q0.4309082 0.29830933 0.9612427 0.45298767l-1.0385742 1.038559q-0.4640503 -0.15467834 -0.9281006 -0.5303345zm-2.2980957 -2.1434174q-0.32037354 0.7623596 -1.2484741 1.9997864q-0.5303345 0.70710754 -0.6739502 1.0717163q-0.14361572 0.36460876 -0.06628418 0.7292023q0.07733154 0.34249878 0.3314209 0.59661865q0.3977661 0.39775085 0.9612427 0.36460876q0.5745239 -0.044189453 1.1490479 -0.61872864q0.5745239 -0.5745239 0.77337646 -1.2595215q0.19891357 -0.70710754 -0.03314209 -1.3589783q-0.16571045 -0.49717712 -0.8286133 -1.1600952l-0.36462402 -0.36460876zm5.4745483 0.42536926l-8.098572 -8.098572l0.99438477 -0.9943695l8.098572 8.098572l-0.99438477 0.9943695zm5.6679077 -5.6678925l-5.8667603 -5.866783l0.89489746 -0.894928l0.88391113 0.8838806q-0.27618408 -0.9612198 -0.18780518 -1.4473572q0.088378906 -0.4861374 0.44189453 -0.83969116q0.49719238 -0.49718475 1.3369141 -0.6960602l0.5745239 1.2595367q-0.5745239 0.15467834 -0.93914795 0.5192795q-0.32037354 0.32041168 -0.38671875 0.7844467q-0.06628418 0.44194794 0.17681885 0.905983q0.364563 0.6960602 0.99438477 1.3258286l3.0714722 3.071495l-0.99438477 0.9943695zm0.4640503 -6.3418655q-1.6241455 -1.6241379 -1.5026245 -3.3145676q0.11053467 -1.4142075 1.1932373 -2.4969711q1.2153931 -1.2153397 2.7731934 -1.18219q1.5578613 0.011047363 2.9609985 1.4142151q1.1269531 1.1269455 1.4363403 2.121315q0.3093872 0.9943695 0.022094727 2.0108337q-0.28723145 0.9943695 -1.060669 1.7677689q-1.2263794 1.226387 -2.7731934 1.2042923q-1.5578003 -0.03314209 -3.0493774 -1.5246964zm1.0275269 -1.0275192q1.1269531 1.1269531 2.1765747 1.2042923q1.0606079 0.06629181 1.8009033 -0.6739578q0.7402344 -0.74025726 0.66290283 -1.7898636q-0.06628418 -1.0606613 -1.2263794 -2.2207565q-1.0827637 -1.0827637 -2.1434326 -1.1490479q-1.0496216 -0.0773468 -1.789856 0.66291046q-0.7402344 0.74024963 -0.6739502 1.800911q0.06628418 1.0385666 1.1932373 2.165512zm12.424072 -6.546257l-0.8617554 -0.8617859q0.30932617 1.6793747 -0.87286377 2.8615723q-0.5192871 0.5192795 -1.1711426 0.77339935q-0.6408081 0.24306488 -1.1600952 0.16572571q-0.5303345 -0.088386536 -1.0496216 -0.43089294q-0.35357666 -0.24307251 -0.9833374 -0.87283325l-3.6349487 -3.6349716l0.99438477 -0.9943695l3.24823 3.2482681q0.78448486 0.7844467 1.1048584 0.9943695q0.49719238 0.29830933 1.0164795 0.22097015q0.5303345 -0.088386536 0.97229004 -0.53032684q0.45300293 -0.45298767 0.6187134 -1.0606613q0.16571045 -0.6297684 -0.07733154 -1.1821976q-0.23205566 -0.56346893 -0.9833374 -1.3147736l-3.1377563 -3.1377869l0.99432373 -0.9943695l5.8668213 5.8667755l-0.88391113 0.88388824zm2.4472656 -2.447258l-5.8667603 -5.8667755l0.89489746 -0.894928l0.8286743 0.82863617q-0.32043457 -1.6020355 0.9059448 -2.8284225q0.5303345 -0.5303345 1.1600952 -0.7844467q0.62976074 -0.25411987 1.1600952 -0.16573334q0.5303345 0.088394165 1.0496216 0.43090057q0.33148193 0.22097015 1.0164795 0.90597534l3.612854 3.612877l-0.99438477 0.9943695l-3.5686646 -3.5686798q-0.607666 -0.60767365 -1.0275269 -0.7844467q-0.4197998 -0.19887543 -0.89489746 -0.07733917q-0.4640503 0.11048126 -0.8618164 0.5082321q-0.6408081 0.64081573 -0.6960449 1.513649q-0.055236816 0.8507385 1.0717163 1.9776917l3.2041016 3.2040787l-0.99438477 0.9943619zm10.092834 -10.092842l-0.7402344 -0.74024963q0.32037354 1.4252625 -0.76239014 2.5080185q-0.7070923 0.70710754 -1.6793823 0.905983q-0.972229 0.1988678 -1.9997559 -0.16573334q-1.0164795 -0.3756485 -1.911377 -1.2705841q-0.88391113 -0.8838806 -1.303772 -1.8782501q-0.4197998 -1.0164642 -0.2098999 -1.9776917q0.19885254 -0.97226715 0.9281006 -1.7014694q0.53027344 -0.5303345 1.1600952 -0.7181549q0.6408081 -0.19887543 1.2595215 -0.088394165l-2.9057617 -2.9057617l0.99432373 -0.9943695l8.098633 8.098579l-0.9281006 0.9280777zm-6.065674 0.20992279q1.1269531 1.1269531 2.1655273 1.2153397q1.0275269 0.07733917 1.668335 -0.56347656q0.65185547 -0.6518631 0.5745239 -1.6351852q-0.07733154 -1.0054169 -1.1711426 -2.0992203q-1.2042847 -1.2042923 -2.2318115 -1.3037262q-1.0275269 -0.09944153 -1.7125244 0.5855713q-0.66290283 0.66291046 -0.56347656 1.6462326q0.09942627 0.98332214 1.2705688 2.1544647zm5.739746 -4.745346l-1.0054321 -1.0054169l3.0493774 -3.0494003l1.0054321 1.0054169l-3.0493774 3.0494003zm6.5738525 -1.7125244l-5.8667603 -5.8667755l0.8949585 -0.8949356l0.8838501 0.8838806q-0.27618408 -0.9612198 -0.18780518 -1.4473572q0.088378906 -0.4861374 0.44195557 -0.83969116q0.49719238 -0.49718475 1.336853 -0.69605255l0.5745239 1.2595291q-0.5745239 0.15467834 -0.93914795 0.5192871q-0.32037354 0.32040405 -0.3866577 0.7844467q-0.06628418 0.4419403 0.17675781 0.90597534q0.36462402 0.6960602 0.99438477 1.3258286l3.0714722 3.071495l-0.99438477 0.9943695zm0.4640503 -6.3418655q-1.6241455 -1.6241379 -1.5025635 -3.3145676q0.11047363 -1.4142075 1.1932373 -2.4969635q1.215332 -1.2153397 2.7731934 -1.1821976q1.5578003 0.011047363 2.9609985 1.4142151q1.1269531 1.1269531 1.4362793 2.121315q0.3093872 0.9943695 0.022094727 2.0108414q-0.28723145 0.9943695 -1.060669 1.7677612q-1.2263794 1.2263947 -2.7731323 1.2042923q-1.5578613 -0.03314209 -3.0494385 -1.5246964zm1.0275269 -1.0275116q1.1269531 1.1269455 2.1765747 1.2042847q1.060669 0.06629181 1.8009033 -0.6739578q0.7402344 -0.74024963 0.66290283 -1.7898636q-0.06628418 -1.0606613 -1.2263794 -2.2207565q-1.0827637 -1.082756 -2.1434326 -1.1490479q-1.0496216 -0.07733917 -1.789856 0.66291046q-0.7402344 0.74024963 -0.6739502 1.800911q0.06628418 1.0385666 1.1932373 2.1655197zm9.496216 -3.6184006l-0.92803955 0.9280777l-8.098633 -8.098587l0.99438477 -0.9943619l2.883667 2.883667q-0.15466309 -1.4142151 0.8286743 -2.3975372q0.54138184 -0.5413742 1.2374268 -0.7954941q0.6960449 -0.2762146 1.4031372 -0.18782043q0.71813965 0.07733917 1.458435 0.46403503q0.729187 0.3756485 1.3589478 1.0054169q1.5136719 1.513649 1.5910034 3.0935898q0.07733154 1.5578461 -0.97229004 2.60746q-1.0385742 1.038559 -2.4969482 0.751297l0.7402344 0.74025726zm-2.9941406 -2.9720612q1.060669 1.0606613 1.8119507 1.237442q1.2374268 0.3093567 2.0440063 -0.49718475q0.65185547 -0.6518707 0.56347656 -1.6904297q-0.099487305 -1.049614 -1.215332 -2.165512q-1.1491089 -1.1490479 -2.15448 -1.2263947q-1.0054321 -0.0994339 -1.6462402 0.54138184q-0.65185547 0.6518631 -0.56347656 1.6904297q0.088378906 1.038559 1.1600952 2.1102676zm1.4086914 -9.36364l-1.1380005 -1.1380005l0.99438477 -0.9943695l1.1380005 1.1380005l-0.99438477 0.9943695zm6.9605713 6.9605865l-5.8667603 -5.866783l0.99438477 -0.9943619l5.8667603 5.8667755l-0.99438477 0.9943695zm2.5135498 -2.5135498l-5.8667603 -5.8667755l0.89489746 -0.894928l0.8286743 0.82863617q-0.32043457 -1.6020355 0.9059448 -2.8284225q0.5303345 -0.5303345 1.1600952 -0.7844467q0.62976074 -0.25411987 1.1600952 -0.16573334q0.5303345 0.088394165 1.0496216 0.43089294q0.33148193 0.22097778 1.0164795 0.905983l3.612854 3.612877l-0.99432373 0.9943695l-3.5687256 -3.5686798q-0.607666 -0.60767365 -1.0275269 -0.7844467q-0.4197998 -0.19887543 -0.89489746 -0.07733917q-0.4640503 0.11048126 -0.8618164 0.5082321q-0.6408081 0.64081573 -0.6960449 1.513649q-0.055236816 0.8507385 1.0717163 1.9776917l3.2041016 3.204071l-0.99438477 0.9943695z" fill-rule="nonzero"/></g></svg>