<svg version="1.1" viewBox="0.0 0.0 928.0 882.0" fill="none" stroke="none" stroke-linecap="square" stroke-miterlimit="10" xmlns:xlink="http://www.w3.org/1999/xlink" xmlns="http://www.w3.org/2000/svg"><clipPath id="p.0"><path d="m0 0l928.0 0l0 882.0l-928.0 0l0 -882.0z" clip-rule="nonzero"/></clipPath><g clip-path="url(#p.0)"><path fill="#000000" fill-opacity="0.0" d="m0 0l928.0 0l0 882.0l-928.0 0z" fill-rule="evenodd"/><path fill="#000000" fill-opacity="0.0" d="m431.73096 348.0328l0 0c0 31.084503 -2.099823 56.283478 -4.690094 56.283478l-161.13947 0c-2.590271 0 -4.6901245 -25.198975 -4.6901245 -56.283478z" fill-rule="evenodd"/><path fill="#000000" fill-opacity="0.0" d="m431.73096 348.0328l0 0c0 31.084503 -2.099823 56.283478 -4.690094 56.283478l-161.13947 0c-2.590271 0 -4.6901245 -25.198975 -4.6901245 -56.283478" fill-rule="evenodd"/><path stroke="#b7b7b7" stroke-width="4.0" stroke-linejoin="round" stroke-linecap="butt" d="m431.73096 348.0328l0 0c0 31.084503 -2.099823 56.283478 -4.690094 56.283478l-161.13947 0c-2.590271 0 -4.6901245 -25.198975 -4.6901245 -56.283478" fill-rule="evenodd"/><path fill="#000000" fill-opacity="0.0" d="m596.0276 276.2638l0 0c0 31.084473 -2.0998535 56.283447 -4.6901245 56.283447l-240.44656 0c-2.590271 0 -4.6901245 -25.198975 -4.6901245 -56.283447z" fill-rule="evenodd"/><path fill="#000000" fill-opacity="0.0" d="m596.0276 276.2638l0 0c0 31.084473 -2.0998535 56.283447 -4.6901245 56.283447l-240.44656 0c-2.590271 0 -4.6901245 -25.198975 -4.6901245 -56.283447" fill-rule="evenodd"/><path stroke="#b7b7b7" stroke-width="4.0" stroke-linejoin="round" stroke-linecap="butt" d="m596.0276 276.2638l0 0c0 31.084473 -2.0998535 56.283447 -4.6901245 56.283447l-240.44656 0c-2.590271 0 -4.6901245 -25.198975 -4.6901245 -56.283447" fill-rule="evenodd"/><path fill="#000000" fill-opacity="0.0" d="m755.34515 348.0328l0 0c0 31.084503 -2.0998535 56.283478 -4.6901245 56.283478l-240.44656 0c-2.590271 0 -4.690094 -25.198975 -4.690094 -56.283478z" fill-rule="evenodd"/><path fill="#000000" fill-opacity="0.0" d="m755.34515 348.0328l0 0c0 31.084503 -2.0998535 56.283478 -4.6901245 56.283478l-240.44656 0c-2.590271 0 -4.690094 -25.198975 -4.690094 -56.283478" fill-rule="evenodd"/><path stroke="#b7b7b7" stroke-width="4.0" stroke-linejoin="round" stroke-linecap="butt" d="m755.34515 348.0328l0 0c0 31.084503 -2.0998535 56.283478 -4.6901245 56.283478l-240.44656 0c-2.590271 0 -4.690094 -25.198975 -4.690094 -56.283478" fill-rule="evenodd"/><path fill="#cfe2f3" d="m277.91995 142.3924l0 0c0 -9.845459 7.7345276 -17.826775 17.275574 -17.826775l0 0c4.581787 0 8.975891 1.8781662 12.215698 5.2213364c3.2398071 3.3431702 5.059906 7.877472 5.059906 12.605438l0 0c0 9.845444 -7.734558 17.826767 -17.275604 17.826767l0 0c-9.541046 0 -17.275574 -7.9813232 -17.275574 -17.826767z" fill-rule="evenodd"/><path stroke="#000000" stroke-width="1.0" stroke-linejoin="round" stroke-linecap="butt" d="m277.91995 142.3924l0 0c0 -9.845459 7.7345276 -17.826775 17.275574 -17.826775l0 0c4.581787 0 8.975891 1.8781662 12.215698 5.2213364c3.2398071 3.3431702 5.059906 7.877472 5.059906 12.605438l0 0c0 9.845444 -7.734558 17.826767 -17.275604 17.826767l0 0c-9.541046 0 -17.275574 -7.9813232 -17.275574 -17.826767z" fill-rule="evenodd"/><path fill="#b6d7a8" d="m629.47375 142.3924l0 0c0 -9.845459 7.734558 -17.826775 17.275574 -17.826775l0 0c4.581787 0 8.975891 1.8781662 12.215698 5.2213364c3.2398071 3.3431702 5.0599365 7.877472 5.0599365 12.605438l0 0c0 9.845444 -7.734558 17.826767 -17.275635 17.826767l0 0c-9.541016 0 -17.275574 -7.9813232 -17.275574 -17.826767z" fill-rule="evenodd"/><path stroke="#000000" stroke-width="1.0" stroke-linejoin="round" stroke-linecap="butt" d="m629.47375 142.3924l0 0c0 -9.845459 7.734558 -17.826775 17.275574 -17.826775l0 0c4.581787 0 8.975891 1.8781662 12.215698 5.2213364c3.2398071 3.3431702 5.0599365 7.877472 5.0599365 12.605438l0 0c0 9.845444 -7.734558 17.826767 -17.275635 17.826767l0 0c-9.541016 0 -17.275574 -7.9813232 -17.275574 -17.826767z" fill-rule="evenodd"/><path fill="#ffe599" d="m438.36746 142.3924l0 0c0 -9.845459 7.7345276 -17.826775 17.275574 -17.826775l0 0c4.581787 0 8.975891 1.8781662 12.215698 5.2213364c3.2398071 3.3431702 5.059906 7.877472 5.059906 12.605438l0 0c0 9.845444 -7.734558 17.826767 -17.275604 17.826767l0 0c-9.541046 0 -17.275574 -7.9813232 -17.275574 -17.826767z" fill-rule="evenodd"/><path stroke="#000000" stroke-width="1.0" stroke-linejoin="round" stroke-linecap="butt" d="m438.36746 142.3924l0 0c0 -9.845459 7.7345276 -17.826775 17.275574 -17.826775l0 0c4.581787 0 8.975891 1.8781662 12.215698 5.2213364c3.2398071 3.3431702 5.059906 7.877472 5.059906 12.605438l0 0c0 9.845444 -7.734558 17.826767 -17.275604 17.826767l0 0c-9.541046 0 -17.275574 -7.9813232 -17.275574 -17.826767z" fill-rule="evenodd"/><path fill="#e6c9af" d="m516.5079 142.3924l0 0c0 -9.845459 7.734558 -17.826775 17.275574 -17.826775l0 0c4.581787 0 8.975891 1.8781662 12.215698 5.2213364c3.2398071 3.3431702 5.0599365 7.877472 5.0599365 12.605438l0 0c0 9.845444 -7.734558 17.826767 -17.275635 17.826767l0 0c-9.541016 0 -17.275574 -7.9813232 -17.275574 -17.826767z" fill-rule="evenodd"/><path stroke="#000000" stroke-width="1.0" stroke-linejoin="round" stroke-linecap="butt" d="m516.5079 142.3924l0 0c0 -9.845459 7.734558 -17.826775 17.275574 -17.826775l0 0c4.581787 0 8.975891 1.8781662 12.215698 5.2213364c3.2398071 3.3431702 5.0599365 7.877472 5.0599365 12.605438l0 0c0 9.845444 -7.734558 17.826767 -17.275635 17.826767l0 0c-9.541016 0 -17.275574 -7.9813232 -17.275574 -17.826767z" fill-rule="evenodd"/><path fill="#f4cccc" d="m358.14435 142.3924l0 0c0 -9.845459 7.734558 -17.826775 17.275604 -17.826775l0 0c4.5817566 0 8.975891 1.8781662 12.215668 5.2213364c3.2398071 3.3431702 5.059906 7.877472 5.059906 12.605438l0 0c0 9.845444 -7.7345276 17.826767 -17.275574 17.826767l0 0c-9.541046 0 -17.275604 -7.9813232 -17.275604 -17.826767z" fill-rule="evenodd"/><path stroke="#000000" stroke-width="1.0" stroke-linejoin="round" stroke-linecap="butt" d="m358.14435 142.3924l0 0c0 -9.845459 7.734558 -17.826775 17.275604 -17.826775l0 0c4.5817566 0 8.975891 1.8781662 12.215668 5.2213364c3.2398071 3.3431702 5.059906 7.877472 5.059906 12.605438l0 0c0 9.845444 -7.7345276 17.826767 -17.275574 17.826767l0 0c-9.541046 0 -17.275604 -7.9813232 -17.275604 -17.826767z" fill-rule="evenodd"/><path fill="#000000" fill-opacity="0.0" d="m295.19553 160.21916l0.56695557 198.39369" fill-rule="evenodd"/><path stroke="#000000" stroke-width="2.0" stroke-linejoin="round" stroke-linecap="butt" stroke-dasharray="2.0,6.0" d="m295.19553 160.21916l0.56695557 198.39369" fill-rule="evenodd"/><path fill="#000000" fill-opacity="0.0" d="m377.21915 160.21916l0.56695557 198.39369" fill-rule="evenodd"/><path stroke="#000000" stroke-width="2.0" stroke-linejoin="round" stroke-linecap="butt" stroke-dasharray="2.0,6.0" d="m377.21915 160.21916l0.56695557 198.39369" fill-rule="evenodd"/><path fill="#000000" fill-opacity="0.0" d="m455.3596 160.21916l0.56692505 198.39369" fill-rule="evenodd"/><path stroke="#000000" stroke-width="2.0" stroke-linejoin="round" stroke-linecap="butt" stroke-dasharray="2.0,6.0" d="m455.3596 160.21916l0.56692505 198.39369" fill-rule="evenodd"/><path fill="#000000" fill-opacity="0.0" d="m533.5 160.21916l0.56695557 198.39369" fill-rule="evenodd"/><path stroke="#000000" stroke-width="2.0" stroke-linejoin="round" stroke-linecap="butt" stroke-dasharray="2.0,6.0" d="m533.5 160.21916l0.56695557 198.39369" fill-rule="evenodd"/><path fill="#000000" fill-opacity="0.0" d="m646.4659 160.21916l0.56695557 198.39369" fill-rule="evenodd"/><path stroke="#000000" stroke-width="2.0" stroke-linejoin="round" stroke-linecap="butt" stroke-dasharray="2.0,6.0" d="m646.4659 160.21916l0.56695557 198.39369" fill-rule="evenodd"/><path fill="#000000" fill-opacity="0.0" d="m226.66011 354.30054l34.551163 0l0 43.748016l-34.551163 0z" fill-rule="evenodd"/><path fill="#000000" d="m235.62886 386.3405l6.59375 -17.1875l2.453125 0l7.03125 17.1875l-2.59375 0l-2.0 -5.203125l-7.1875 0l-1.890625 5.203125l-2.40625 0zm4.953125 -7.0625l5.828125 0l-1.796875 -4.75q-0.8125 -2.171875 -1.21875 -3.5625q-0.328125 1.65625 -0.921875 3.28125l-1.890625 5.03125z" fill-rule="nonzero"/><path fill="#000000" fill-opacity="0.0" d="m312.46982 282.5315l34.551178 0l0 43.748047l-34.551178 0z" fill-rule="evenodd"/><path fill="#000000" d="m323.23544 314.5715l0 -17.1875l6.4375 0q1.96875 0 3.15625 0.53125q1.1875 0.515625 1.859375 1.609375q0.6875 1.078125 0.6875 2.265625q0 1.09375 -0.609375 2.078125q-0.59375 0.96875 -1.796875 1.5625q1.5625 0.453125 2.390625 1.5625q0.84375 1.09375 0.84375 2.59375q0 1.203125 -0.515625 2.25q-0.5 1.03125 -1.25 1.59375q-0.75 0.5625 -1.890625 0.859375q-1.125 0.28125 -2.765625 0.28125l-6.546875 0zm2.265625 -9.96875l3.71875 0q1.515625 0 2.171875 -0.1875q0.859375 -0.265625 1.296875 -0.859375q0.4375 -0.59375 0.4375 -1.5q0 -0.859375 -0.40625 -1.5q-0.40625 -0.65625 -1.171875 -0.890625q-0.765625 -0.25 -2.609375 -0.25l-3.4375 0l0 5.1875zm0 7.9375l4.28125 0q1.09375 0 1.546875 -0.078125q0.78125 -0.140625 1.3125 -0.46875q0.53125 -0.328125 0.859375 -0.953125q0.34375 -0.625 0.34375 -1.453125q0 -0.953125 -0.5 -1.65625q-0.484375 -0.71875 -1.359375 -1.0q-0.875 -0.296875 -2.515625 -0.296875l-3.96875 0l0 5.90625z" fill-rule="nonzero"/><path fill="#000000" fill-opacity="0.0" d="m472.91995 354.30054l34.551178 0l0 43.748016l-34.551178 0z" fill-rule="evenodd"/><path fill="#000000" d="m496.02933 380.30927l2.28125 0.578125q-0.71875 2.796875 -2.578125 4.28125q-1.859375 1.46875 -4.546875 1.46875q-2.765625 0 -4.515625 -1.125q-1.734375 -1.140625 -2.640625 -3.28125q-0.90625 -2.15625 -0.90625 -4.609375q0 -2.6875 1.015625 -4.6875q1.03125 -2.0 2.921875 -3.03125q1.890625 -1.03125 4.171875 -1.03125q2.578125 0 4.328125 1.3125q1.765625 1.3125 2.453125 3.6875l-2.234375 0.53125q-0.609375 -1.875 -1.75 -2.734375q-1.125 -0.859375 -2.84375 -0.859375q-1.984375 0 -3.3125 0.953125q-1.328125 0.953125 -1.875 2.546875q-0.53125 1.59375 -0.53125 3.296875q0 2.1875 0.625 3.828125q0.640625 1.640625 1.984375 2.453125q1.359375 0.796875 2.921875 0.796875q1.921875 0 3.234375 -1.09375q1.328125 -1.109375 1.796875 -3.28125z" fill-rule="nonzero"/><path fill="#000000" fill-opacity="0.0" d="m228.34383 616.6365l0 0c0 31.084534 -2.099823 56.283447 -4.690094 56.283447l-161.13948 0c-2.590271 0 -4.6901016 -25.198914 -4.6901016 -56.283447z" fill-rule="evenodd"/><path fill="#000000" fill-opacity="0.0" d="m228.34383 616.6365l0 0c0 31.084534 -2.099823 56.283447 -4.690094 56.283447l-161.13948 0c-2.590271 0 -4.6901016 -25.198914 -4.6901016 -56.283447" fill-rule="evenodd"/><path stroke="#b7b7b7" stroke-width="4.0" stroke-linejoin="round" stroke-linecap="butt" d="m228.34383 616.6365l0 0c0 31.084534 -2.099823 56.283447 -4.690094 56.283447l-161.13948 0c-2.590271 0 -4.6901016 -25.198914 -4.6901016 -56.283447" fill-rule="evenodd"/><path fill="#000000" fill-opacity="0.0" d="m23.272966 618.85693l34.551178 0l0 43.748047l-34.551178 0z" fill-rule="evenodd"/><path fill="#000000" d="m32.241714 650.897l6.59375 -17.1875l2.453125 0l7.03125 17.1875l-2.59375 0l-2.0 -5.203125l-7.1875 0l-1.890625 5.203125l-2.40625 0zm4.953125 -7.0625l5.828125 0l-1.796875 -4.75q-0.8125 -2.171875 -1.21875 -3.5625q-0.328125 1.65625 -0.921875 3.28125l-1.890625 5.03125z" fill-rule="nonzero"/><path fill="#000000" fill-opacity="0.0" d="m564.53546 616.6365l0 0c0 31.084534 -2.0998535 56.283447 -4.6901245 56.283447l-240.44656 0c-2.590271 0 -4.6901245 -25.198914 -4.6901245 -56.283447z" fill-rule="evenodd"/><path fill="#000000" fill-opacity="0.0" d="m564.53546 616.6365l0 0c0 31.084534 -2.0998535 56.283447 -4.6901245 56.283447l-240.44656 0c-2.590271 0 -4.6901245 -25.198914 -4.6901245 -56.283447" fill-rule="evenodd"/><path stroke="#b7b7b7" stroke-width="4.0" stroke-linejoin="round" stroke-linecap="butt" d="m564.53546 616.6365l0 0c0 31.084534 -2.0998535 56.283447 -4.6901245 56.283447l-240.44656 0c-2.590271 0 -4.6901245 -25.198914 -4.6901245 -56.283447" fill-rule="evenodd"/><path fill="#000000" fill-opacity="0.0" d="m283.05774 623.32153l34.551178 0l0 43.748047l-34.551178 0z" fill-rule="evenodd"/><path fill="#000000" d="m293.82336 655.3615l0 -17.1875l6.4375 0q1.96875 0 3.15625 0.53125q1.1875 0.515625 1.859375 1.609375q0.6875 1.078125 0.6875 2.265625q0 1.09375 -0.609375 2.078125q-0.59375 0.96875 -1.796875 1.5625q1.5625 0.453125 2.390625 1.5625q0.84375 1.09375 0.84375 2.59375q0 1.203125 -0.515625 2.25q-0.5 1.03125 -1.25 1.59375q-0.75 0.5625 -1.890625 0.859375q-1.125 0.28125 -2.765625 0.28125l-6.546875 0zm2.265625 -9.96875l3.71875 0q1.515625 0 2.171875 -0.1875q0.859375 -0.265625 1.296875 -0.859375q0.4375 -0.59375 0.4375 -1.5q0 -0.859375 -0.40625 -1.5q-0.40625 -0.65625 -1.171875 -0.890625q-0.765625 -0.25 -2.609375 -0.25l-3.4375 0l0 5.1875zm0 7.9375l4.28125 0q1.09375 0 1.546875 -0.078125q0.78125 -0.140625 1.3125 -0.46875q0.53125 -0.328125 0.859375 -0.953125q0.34375 -0.625 0.34375 -1.453125q0 -0.953125 -0.5 -1.65625q-0.484375 -0.71875 -1.359375 -1.0q-0.875 -0.296875 -2.515625 -0.296875l-3.96875 0l0 5.90625z" fill-rule="nonzero"/><path fill="#000000" fill-opacity="0.0" d="m900.72705 617.0525l0 0c0 31.084473 -2.0998535 56.283447 -4.6901245 56.283447l-240.44653 0c-2.590271 0 -4.6901245 -25.198975 -4.6901245 -56.283447z" fill-rule="evenodd"/><path fill="#000000" fill-opacity="0.0" d="m900.72705 617.0525l0 0c0 31.084473 -2.0998535 56.283447 -4.6901245 56.283447l-240.44653 0c-2.590271 0 -4.6901245 -25.198975 -4.6901245 -56.283447" fill-rule="evenodd"/><path stroke="#b7b7b7" stroke-width="4.0" stroke-linejoin="round" stroke-linecap="butt" d="m900.72705 617.0525l0 0c0 31.084473 -2.0998535 56.283447 -4.6901245 56.283447l-240.44653 0c-2.590271 0 -4.6901245 -25.198975 -4.6901245 -56.283447" fill-rule="evenodd"/><path fill="#000000" fill-opacity="0.0" d="m616.34906 622.9029l34.55121 0l0 43.748047l-34.55121 0z" fill-rule="evenodd"/><path fill="#000000" d="m639.45844 648.9116l2.28125 0.578125q-0.71875 2.796875 -2.578125 4.28125q-1.859375 1.46875 -4.546875 1.46875q-2.765625 0 -4.515625 -1.125q-1.734375 -1.140625 -2.640625 -3.28125q-0.90625 -2.15625 -0.90625 -4.609375q0 -2.6875 1.015625 -4.6875q1.03125 -2.0 2.921875 -3.03125q1.890625 -1.03125 4.171875 -1.03125q2.578125 0 4.328125 1.3125q1.765625 1.3125 2.453125 3.6875l-2.234375 0.53125q-0.609375 -1.875 -1.75 -2.734375q-1.125 -0.859375 -2.84375 -0.859375q-1.984375 0 -3.3125 0.953125q-1.328125 0.953125 -1.875 2.546875q-0.53125 1.59375 -0.53125 3.296875q0 2.1875 0.625 3.828125q0.640625 1.640625 1.984375 2.453125q1.359375 0.796875 2.921875 0.796875q1.921875 0 3.234375 -1.09375q1.328125 -1.109375 1.796875 -3.28125z" fill-rule="nonzero"/><path fill="#cfe2f3" d="m89.43438 640.93964l0 0c0 -9.845459 7.7345505 -17.826782 17.275597 -17.826782l0 0c4.581772 0 8.9758835 1.8781738 12.215683 5.2213745c3.2398071 3.3431396 5.059906 7.8774414 5.059906 12.605408l0 0c0 9.845459 -7.734543 17.826782 -17.275589 17.826782l0 0c-9.541046 0 -17.275597 -7.9813232 -17.275597 -17.826782z" fill-rule="evenodd"/><path stroke="#000000" stroke-width="1.0" stroke-linejoin="round" stroke-linecap="butt" d="m89.43438 640.93964l0 0c0 -9.845459 7.7345505 -17.826782 17.275597 -17.826782l0 0c4.581772 0 8.9758835 1.8781738 12.215683 5.2213745c3.2398071 3.3431396 5.059906 7.8774414 5.059906 12.605408l0 0c0 9.845459 -7.734543 17.826782 -17.275589 17.826782l0 0c-9.541046 0 -17.275597 -7.9813232 -17.275597 -17.826782z" fill-rule="evenodd"/><path fill="#f4cccc" d="m162.1798 640.52234l0 0c0 -9.845459 7.734543 -17.826782 17.275589 -17.826782l0 0c4.581772 0 8.975876 1.8781738 12.215683 5.2213135c3.2398071 3.3432007 5.059906 7.8775024 5.059906 12.605469l0 0c0 9.845398 -7.734543 17.826721 -17.275589 17.826721l0 0c-9.541046 0 -17.275589 -7.9813232 -17.275589 -17.826721z" fill-rule="evenodd"/><path stroke="#000000" stroke-width="1.0" stroke-linejoin="round" stroke-linecap="butt" d="m162.1798 640.52234l0 0c0 -9.845459 7.734543 -17.826782 17.275589 -17.826782l0 0c4.581772 0 8.975876 1.8781738 12.215683 5.2213135c3.2398071 3.3432007 5.059906 7.8775024 5.059906 12.605469l0 0c0 9.845398 -7.734543 17.826721 -17.275589 17.826721l0 0c-9.541046 0 -17.275589 -7.9813232 -17.275589 -17.826721z" fill-rule="evenodd"/><path fill="#f4cccc" d="m342.94882 640.73096l0 0c0 -9.845459 7.7345276 -17.826782 17.275574 -17.826782l0 0c4.581787 0 8.975891 1.8781738 12.215698 5.2213745c3.2398071 3.3431396 5.059906 7.8774414 5.059906 12.605408l0 0c0 9.845459 -7.734558 17.826782 -17.275604 17.826782l0 0c-9.541046 0 -17.275574 -7.9813232 -17.275574 -17.826782z" fill-rule="evenodd"/><path stroke="#000000" stroke-width="1.0" stroke-linejoin="round" stroke-linecap="butt" d="m342.94882 640.73096l0 0c0 -9.845459 7.7345276 -17.826782 17.275574 -17.826782l0 0c4.581787 0 8.975891 1.8781738 12.215698 5.2213745c3.2398071 3.3431396 5.059906 7.8774414 5.059906 12.605408l0 0c0 9.845459 -7.734558 17.826782 -17.275604 17.826782l0 0c-9.541046 0 -17.275574 -7.9813232 -17.275574 -17.826782z" fill-rule="evenodd"/><path fill="#ffe599" d="m419.937 640.73096l0 0c0 -9.845459 7.7345276 -17.826782 17.275574 -17.826782l0 0c4.581787 0 8.975891 1.8781738 12.215698 5.2213745c3.2398071 3.3431396 5.059906 7.8774414 5.059906 12.605408l0 0c0 9.845459 -7.734558 17.826782 -17.275604 17.826782l0 0c-9.541046 0 -17.275574 -7.9813232 -17.275574 -17.826782z" fill-rule="evenodd"/><path stroke="#000000" stroke-width="1.0" stroke-linejoin="round" stroke-linecap="butt" d="m419.937 640.73096l0 0c0 -9.845459 7.7345276 -17.826782 17.275574 -17.826782l0 0c4.581787 0 8.975891 1.8781738 12.215698 5.2213745c3.2398071 3.3431396 5.059906 7.8774414 5.059906 12.605408l0 0c0 9.845459 -7.734558 17.826782 -17.275604 17.826782l0 0c-9.541046 0 -17.275574 -7.9813232 -17.275574 -17.826782z" fill-rule="evenodd"/><path fill="#e6c9af" d="m496.9252 640.73096l0 0c0 -9.845459 7.7345276 -17.826782 17.275604 -17.826782l0 0c4.581726 0 8.975891 1.8781738 12.215698 5.2213745c3.239746 3.3431396 5.0598755 7.8774414 5.0598755 12.605408l0 0c0 9.845459 -7.734558 17.826782 -17.275574 17.826782l0 0c-9.541077 0 -17.275604 -7.9813232 -17.275604 -17.826782z" fill-rule="evenodd"/><path stroke="#000000" stroke-width="1.0" stroke-linejoin="round" stroke-linecap="butt" d="m496.9252 640.73096l0 0c0 -9.845459 7.7345276 -17.826782 17.275604 -17.826782l0 0c4.581726 0 8.975891 1.8781738 12.215698 5.2213745c3.239746 3.3431396 5.0598755 7.8774414 5.0598755 12.605408l0 0c0 9.845459 -7.734558 17.826782 -17.275574 17.826782l0 0c-9.541077 0 -17.275604 -7.9813232 -17.275604 -17.826782z" fill-rule="evenodd"/><path fill="#e6c9af" d="m710.7113 640.73096l0 0c0 -9.845459 7.734558 -17.826782 17.275574 -17.826782l0 0c4.581787 0 8.975891 1.8781738 12.215698 5.2213745c3.2398071 3.3431396 5.0598755 7.8774414 5.0598755 12.605408l0 0c0 9.845459 -7.734558 17.826782 -17.275574 17.826782l0 0c-9.541016 0 -17.275574 -7.9813232 -17.275574 -17.826782z" fill-rule="evenodd"/><path stroke="#000000" stroke-width="1.0" stroke-linejoin="round" stroke-linecap="butt" d="m710.7113 640.73096l0 0c0 -9.845459 7.734558 -17.826782 17.275574 -17.826782l0 0c4.581787 0 8.975891 1.8781738 12.215698 5.2213745c3.2398071 3.3431396 5.0598755 7.8774414 5.0598755 12.605408l0 0c0 9.845459 -7.734558 17.826782 -17.275574 17.826782l0 0c-9.541016 0 -17.275574 -7.9813232 -17.275574 -17.826782z" fill-rule="evenodd"/><path fill="#b6d7a8" d="m805.0735 640.73096l0 0c0 -9.845459 7.734558 -17.826782 17.275574 -17.826782l0 0c4.581787 0 8.975891 1.8781738 12.215698 5.2213745c3.2398071 3.3431396 5.0599365 7.8774414 5.0599365 12.605408l0 0c0 9.845459 -7.734558 17.826782 -17.275635 17.826782l0 0c-9.541016 0 -17.275574 -7.9813232 -17.275574 -17.826782z" fill-rule="evenodd"/><path stroke="#000000" stroke-width="1.0" stroke-linejoin="round" stroke-linecap="butt" d="m805.0735 640.73096l0 0c0 -9.845459 7.734558 -17.826782 17.275574 -17.826782l0 0c4.581787 0 8.975891 1.8781738 12.215698 5.2213745c3.2398071 3.3431396 5.0599365 7.8774414 5.0599365 12.605408l0 0c0 9.845459 -7.734558 17.826782 -17.275635 17.826782l0 0c-9.541016 0 -17.275574 -7.9813232 -17.275574 -17.826782z" fill-rule="evenodd"/><path fill="#f3f3f3" d="m252.4672 510.47638l109.322845 0l0 -48.06299l218.64563 0l0 48.06299l109.322876 0l-218.64569 48.06299z" fill-rule="evenodd"/><path stroke="#d9d9d9" stroke-width="1.0" stroke-linejoin="round" stroke-linecap="butt" d="m252.4672 510.47638l109.322845 0l0 -48.06299l218.64563 0l0 48.06299l109.322876 0l-218.64569 48.06299z" fill-rule="evenodd"/><path fill="#f3f3f3" d="m60.509186 757.43567l39.385826 0l0 -48.06299l78.77166 0l0 48.06299l39.38582 0l-78.77165 48.06299z" fill-rule="evenodd"/><path stroke="#d9d9d9" stroke-width="1.0" stroke-linejoin="round" stroke-linecap="butt" d="m60.509186 757.43567l39.385826 0l0 -48.06299l78.77166 0l0 48.06299l39.38582 0l-78.77165 48.06299z" fill-rule="evenodd"/><path fill="#000000" d="m122.766235 747.65247l1.765625 0.453125q-0.5625 2.171875 -2.0 3.328125q-1.4375 1.140625 -3.53125 1.140625q-2.15625 0 -3.515625 -0.875q-1.34375 -0.890625 -2.0625 -2.546875q-0.703125 -1.671875 -0.703125 -3.59375q0 -2.078125 0.796875 -3.625q0.796875 -1.5625 2.265625 -2.359375q1.484375 -0.8125 3.25 -0.8125q2.0 0 3.359375 1.015625q1.375 1.015625 1.90625 2.875l-1.734375 0.40625q-0.46875 -1.453125 -1.359375 -2.109375q-0.875 -0.671875 -2.203125 -0.671875q-1.546875 0 -2.578125 0.734375q-1.03125 0.734375 -1.453125 1.984375q-0.421875 1.234375 -0.421875 2.5625q0 1.703125 0.5 2.96875q0.5 1.265625 1.546875 1.90625q1.046875 0.625 2.265625 0.625q1.484375 0 2.515625 -0.859375q1.03125 -0.859375 1.390625 -2.546875zm3.1291962 -0.15625q0 -2.6875 1.484375 -3.96875q1.25 -1.078125 3.046875 -1.078125q2.0 0 3.265625 1.3125q1.265625 1.296875 1.265625 3.609375q0 1.859375 -0.5625 2.9375q-0.5625 1.0625 -1.640625 1.65625q-1.0625 0.59375 -2.328125 0.59375q-2.03125 0 -3.28125 -1.296875q-1.25 -1.3125 -1.25 -3.765625zm1.6875 0q0 1.859375 0.796875 2.796875q0.8125 0.921875 2.046875 0.921875q1.21875 0 2.03125 -0.921875q0.8125 -0.9375 0.8125 -2.84375q0 -1.796875 -0.8125 -2.71875q-0.8125 -0.921875 -2.03125 -0.921875q-1.234375 0 -2.046875 0.921875q-0.796875 0.90625 -0.796875 2.765625zm15.625717 4.84375l0 -1.421875q-1.125 1.640625 -3.0625 1.640625q-0.859375 0 -1.609375 -0.328125q-0.734375 -0.328125 -1.09375 -0.828125q-0.359375 -0.5 -0.5 -1.21875q-0.109375 -0.46875 -0.109375 -1.53125l0 -5.984375l1.640625 0l0 5.359375q0 1.28125 0.109375 1.734375q0.15625 0.640625 0.65625 1.015625q0.5 0.375 1.234375 0.375q0.734375 0 1.375 -0.375q0.65625 -0.390625 0.921875 -1.03125q0.265625 -0.65625 0.265625 -1.890625l0 -5.1875l1.640625 0l0 9.671875l-1.46875 0zm4.047592 0l0 -9.671875l1.46875 0l0 1.375q1.0625 -1.59375 3.078125 -1.59375q0.875 0 1.609375 0.3125q0.734375 0.3125 1.09375 0.828125q0.375 0.5 0.515625 1.203125q0.09375 0.453125 0.09375 1.59375l0 5.953125l-1.640625 0l0 -5.890625q0 -1.0 -0.203125 -1.484375q-0.1875 -0.5 -0.671875 -0.796875q-0.484375 -0.296875 -1.140625 -0.296875q-1.046875 0 -1.8125 0.671875q-0.75 0.65625 -0.75 2.515625l0 5.28125l-1.640625 0zm13.953842 -1.46875l0.234375 1.453125q-0.6875 0.140625 -1.234375 0.140625q-0.890625 0 -1.390625 -0.28125q-0.484375 -0.28125 -0.6875 -0.734375q-0.203125 -0.46875 -0.203125 -1.9375l0 -5.578125l-1.203125 0l0 -1.265625l1.203125 0l0 -2.390625l1.625 -0.984375l0 3.375l1.65625 0l0 1.265625l-1.65625 0l0 5.671875q0 0.6875 0.078125 0.890625q0.09375 0.203125 0.28125 0.328125q0.203125 0.109375 0.578125 0.109375q0.265625 0 0.71875 -0.0625zm2.4801788 -1.84375l-0.5 -7.078125l0 -2.96875l2.03125 0l0 2.96875l-0.484375 7.078125l-1.046875 0zm-0.4375 3.3125l0 -1.875l1.890625 0l0 1.875l-1.890625 0z" fill-rule="nonzero"/><path fill="#f3f3f3" d="m354.63254 757.43567l39.385834 0l0 -48.06299l78.77167 0l0 48.06299l39.385803 0l-78.77164 48.06299z" fill-rule="evenodd"/><path stroke="#d9d9d9" stroke-width="1.0" stroke-linejoin="round" stroke-linecap="butt" d="m354.63254 757.43567l39.385834 0l0 -48.06299l78.77167 0l0 48.06299l39.385803 0l-78.77164 48.06299z" fill-rule="evenodd"/><path fill="#000000" d="m416.8896 747.65247l1.765625 0.453125q-0.5625 2.171875 -2.0 3.328125q-1.4375 1.140625 -3.53125 1.140625q-2.15625 0 -3.515625 -0.875q-1.34375 -0.890625 -2.0625 -2.546875q-0.703125 -1.671875 -0.703125 -3.59375q0 -2.078125 0.796875 -3.625q0.796875 -1.5625 2.265625 -2.359375q1.484375 -0.8125 3.25 -0.8125q2.0 0 3.359375 1.015625q1.375 1.015625 1.90625 2.875l-1.734375 0.40625q-0.46875 -1.453125 -1.359375 -2.109375q-0.875 -0.671875 -2.203125 -0.671875q-1.546875 0 -2.578125 0.734375q-1.03125 0.734375 -1.453125 1.984375q-0.421875 1.234375 -0.421875 2.5625q0 1.703125 0.5 2.96875q0.5 1.265625 1.546875 1.90625q1.046875 0.625 2.265625 0.625q1.484375 0 2.515625 -0.859375q1.03125 -0.859375 1.390625 -2.546875zm3.1292114 -0.15625q0 -2.6875 1.484375 -3.96875q1.25 -1.078125 3.046875 -1.078125q2.0 0 3.265625 1.3125q1.265625 1.296875 1.265625 3.609375q0 1.859375 -0.5625 2.9375q-0.5625 1.0625 -1.640625 1.65625q-1.0625 0.59375 -2.328125 0.59375q-2.03125 0 -3.28125 -1.296875q-1.25 -1.3125 -1.25 -3.765625zm1.6875 0q0 1.859375 0.796875 2.796875q0.8125 0.921875 2.046875 0.921875q1.21875 0 2.03125 -0.921875q0.8125 -0.9375 0.8125 -2.84375q0 -1.796875 -0.8125 -2.71875q-0.8125 -0.921875 -2.03125 -0.921875q-1.234375 0 -2.046875 0.921875q-0.796875 0.90625 -0.796875 2.765625zm15.625702 4.84375l0 -1.421875q-1.125 1.640625 -3.0625 1.640625q-0.859375 0 -1.609375 -0.328125q-0.734375 -0.328125 -1.09375 -0.828125q-0.359375 -0.5 -0.5 -1.21875q-0.109375 -0.46875 -0.109375 -1.53125l0 -5.984375l1.640625 0l0 5.359375q0 1.28125 0.109375 1.734375q0.15625 0.640625 0.65625 1.015625q0.5 0.375 1.234375 0.375q0.734375 0 1.375 -0.375q0.65625 -0.390625 0.921875 -1.03125q0.265625 -0.65625 0.265625 -1.890625l0 -5.1875l1.640625 0l0 9.671875l-1.46875 0zm4.0476074 0l0 -9.671875l1.46875 0l0 1.375q1.0625 -1.59375 3.078125 -1.59375q0.875 0 1.609375 0.3125q0.734375 0.3125 1.09375 0.828125q0.375 0.5 0.515625 1.203125q0.09375 0.453125 0.09375 1.59375l0 5.953125l-1.640625 0l0 -5.890625q0 -1.0 -0.203125 -1.484375q-0.1875 -0.5 -0.671875 -0.796875q-0.484375 -0.296875 -1.140625 -0.296875q-1.046875 0 -1.8125 0.671875q-0.75 0.65625 -0.75 2.515625l0 5.28125l-1.640625 0zm13.953827 -1.46875l0.234375 1.453125q-0.6875 0.140625 -1.234375 0.140625q-0.890625 0 -1.390625 -0.28125q-0.484375 -0.28125 -0.6875 -0.734375q-0.203125 -0.46875 -0.203125 -1.9375l0 -5.578125l-1.203125 0l0 -1.265625l1.203125 0l0 -2.390625l1.625 -0.984375l0 3.375l1.65625 0l0 1.265625l-1.65625 0l0 5.671875q0 0.6875 0.078125 0.890625q0.09375 0.203125 0.28125 0.328125q0.203125 0.109375 0.578125 0.109375q0.265625 0 0.71875 -0.0625zm2.480194 -1.84375l-0.5 -7.078125l0 -2.96875l2.03125 0l0 2.96875l-0.484375 7.078125l-1.046875 0zm-0.4375 3.3125l0 -1.875l1.890625 0l0 1.875l-1.890625 0z" fill-rule="nonzero"/><path fill="#f3f3f3" d="m693.2336 757.43567l39.385864 0l0 -48.06299l78.77161 0l0 48.06299l39.385864 0l-78.77167 48.06299z" fill-rule="evenodd"/><path stroke="#d9d9d9" stroke-width="1.0" stroke-linejoin="round" stroke-linecap="butt" d="m693.2336 757.43567l39.385864 0l0 -48.06299l78.77161 0l0 48.06299l39.385864 0l-78.77167 48.06299z" fill-rule="evenodd"/><path fill="#000000" d="m755.49066 747.65247l1.765625 0.453125q-0.5625 2.171875 -2.0 3.328125q-1.4375 1.140625 -3.53125 1.140625q-2.15625 0 -3.515625 -0.875q-1.34375 -0.890625 -2.0625 -2.546875q-0.703125 -1.671875 -0.703125 -3.59375q0 -2.078125 0.796875 -3.625q0.796875 -1.5625 2.265625 -2.359375q1.484375 -0.8125 3.25 -0.8125q2.0 0 3.359375 1.015625q1.375 1.015625 1.90625 2.875l-1.734375 0.40625q-0.46875 -1.453125 -1.359375 -2.109375q-0.875 -0.671875 -2.203125 -0.671875q-1.546875 0 -2.578125 0.734375q-1.03125 0.734375 -1.453125 1.984375q-0.421875 1.234375 -0.421875 2.5625q0 1.703125 0.5 2.96875q0.5 1.265625 1.546875 1.90625q1.046875 0.625 2.265625 0.625q1.484375 0 2.515625 -0.859375q1.03125 -0.859375 1.390625 -2.546875zm3.1291504 -0.15625q0 -2.6875 1.484375 -3.96875q1.25 -1.078125 3.046875 -1.078125q2.0 0 3.265625 1.3125q1.265625 1.296875 1.265625 3.609375q0 1.859375 -0.5625 2.9375q-0.5625 1.0625 -1.640625 1.65625q-1.0625 0.59375 -2.328125 0.59375q-2.03125 0 -3.28125 -1.296875q-1.25 -1.3125 -1.25 -3.765625zm1.6875 0q0 1.859375 0.796875 2.796875q0.8125 0.921875 2.046875 0.921875q1.21875 0 2.03125 -0.921875q0.8125 -0.9375 0.8125 -2.84375q0 -1.796875 -0.8125 -2.71875q-0.8125 -0.921875 -2.03125 -0.921875q-1.234375 0 -2.046875 0.921875q-0.796875 0.90625 -0.796875 2.765625zm15.625732 4.84375l0 -1.421875q-1.125 1.640625 -3.0625 1.640625q-0.859375 0 -1.609375 -0.328125q-0.734375 -0.328125 -1.09375 -0.828125q-0.359375 -0.5 -0.5 -1.21875q-0.109375 -0.46875 -0.109375 -1.53125l0 -5.984375l1.640625 0l0 5.359375q0 1.28125 0.109375 1.734375q0.15625 0.640625 0.65625 1.015625q0.5 0.375 1.234375 0.375q0.734375 0 1.375 -0.375q0.65625 -0.390625 0.921875 -1.03125q0.265625 -0.65625 0.265625 -1.890625l0 -5.1875l1.640625 0l0 9.671875l-1.46875 0zm4.0476074 0l0 -9.671875l1.46875 0l0 1.375q1.0625 -1.59375 3.078125 -1.59375q0.875 0 1.609375 0.3125q0.734375 0.3125 1.09375 0.828125q0.375 0.5 0.515625 1.203125q0.09375 0.453125 0.09375 1.59375l0 5.953125l-1.640625 0l0 -5.890625q0 -1.0 -0.203125 -1.484375q-0.1875 -0.5 -0.671875 -0.796875q-0.484375 -0.296875 -1.140625 -0.296875q-1.046875 0 -1.8125 0.671875q-0.75 0.65625 -0.75 2.515625l0 5.28125l-1.640625 0zm13.953857 -1.46875l0.234375 1.453125q-0.6875 0.140625 -1.234375 0.140625q-0.890625 0 -1.390625 -0.28125q-0.484375 -0.28125 -0.6875 -0.734375q-0.203125 -0.46875 -0.203125 -1.9375l0 -5.578125l-1.203125 0l0 -1.265625l1.203125 0l0 -2.390625l1.625 -0.984375l0 3.375l1.65625 0l0 1.265625l-1.65625 0l0 5.671875q0 0.6875 0.078125 0.890625q0.09375 0.203125 0.28125 0.328125q0.203125 0.109375 0.578125 0.109375q0.265625 0 0.71875 -0.0625zm2.4801636 -1.84375l-0.5 -7.078125l0 -2.96875l2.03125 0l0 2.96875l-0.484375 7.078125l-1.046875 0zm-0.4375 3.3125l0 -1.875l1.890625 0l0 1.875l-1.890625 0z" fill-rule="nonzero"/><path fill="#000000" fill-opacity="0.0" d="m101.79002 823.3333l77.98425 0l0 43.748047l-77.98425 0z" fill-rule="evenodd"/><path fill="#000000" d="m119.4052 855.37335l6.59375 -17.1875l2.453125 0l7.03125 17.1875l-2.59375 0l-2.0 -5.203125l-7.1875 0l-1.890625 5.203125l-2.40625 0zm4.953125 -7.0625l5.828125 0l-1.796875 -4.75q-0.8125 -2.171875 -1.21875 -3.5625q-0.328125 1.65625 -0.921875 3.28125l-1.890625 5.03125zm13.2578125 -2.984375l0 -2.40625l2.40625 0l0 2.40625l-2.40625 0zm0 10.046875l0 -2.40625l2.40625 0l0 2.40625l-2.40625 0zm23.242188 -2.03125l0 2.03125l-11.34375 0q-0.03125 -0.765625 0.234375 -1.46875q0.4375 -1.15625 1.390625 -2.28125q0.953125 -1.125 2.765625 -2.609375q2.796875 -2.296875 3.78125 -3.625q0.984375 -1.34375 0.984375 -2.546875q0 -1.25 -0.90625 -2.109375q-0.890625 -0.859375 -2.328125 -0.859375q-1.515625 0 -2.4375 0.921875q-0.90625 0.90625 -0.921875 2.515625l-2.171875 -0.21875q0.21875 -2.421875 1.671875 -3.6875q1.453125 -1.28125 3.90625 -1.28125q2.46875 0 3.90625 1.375q1.453125 1.359375 1.453125 3.390625q0 1.03125 -0.421875 2.03125q-0.421875 1.0 -1.40625 2.109375q-0.96875 1.09375 -3.25 3.015625q-1.890625 1.59375 -2.4375 2.15625q-0.53125 0.5625 -0.890625 1.140625l8.421875 0z" fill-rule="nonzero"/><path fill="#000000" fill-opacity="0.0" d="m397.75067 823.33203l77.98422 0l0 43.748047l-77.98422 0z" fill-rule="evenodd"/><path fill="#000000" d="m417.16272 855.372l0 -17.1875l6.4375 0q1.96875 0 3.15625 0.53125q1.1875 0.515625 1.859375 1.609375q0.6875 1.078125 0.6875 2.265625q0 1.09375 -0.609375 2.078125q-0.59375 0.96875 -1.796875 1.5625q1.5625 0.453125 2.390625 1.5625q0.84375 1.09375 0.84375 2.59375q0 1.203125 -0.515625 2.25q-0.5 1.03125 -1.25 1.59375q-0.75 0.5625 -1.890625 0.859375q-1.125 0.28125 -2.765625 0.28125l-6.546875 0zm2.265625 -9.96875l3.71875 0q1.515625 0 2.171875 -0.1875q0.859375 -0.265625 1.296875 -0.859375q0.4375 -0.59375 0.4375 -1.5q0 -0.859375 -0.40625 -1.5q-0.40625 -0.65625 -1.171875 -0.890625q-0.765625 -0.25 -2.609375 -0.25l-3.4375 0l0 5.1875zm0 7.9375l4.28125 0q1.09375 0 1.546875 -0.078125q0.78125 -0.140625 1.3125 -0.46875q0.53125 -0.328125 0.859375 -0.953125q0.34375 -0.625 0.34375 -1.453125q0 -0.953125 -0.5 -1.65625q-0.484375 -0.71875 -1.359375 -1.0q-0.875 -0.296875 -2.515625 -0.296875l-3.96875 0l0 5.90625zm14.1484375 -8.015625l0 -2.40625l2.40625 0l0 2.40625l-2.40625 0zm0 10.046875l0 -2.40625l2.40625 0l0 2.40625l-2.40625 0zm12.1796875 -4.53125l2.109375 -0.28125q0.359375 1.78125 1.234375 2.578125q0.875 0.796875 2.125 0.796875q1.484375 0 2.5 -1.03125q1.03125 -1.03125 1.03125 -2.5625q0 -1.453125 -0.953125 -2.390625q-0.9375 -0.953125 -2.40625 -0.953125q-0.59375 0 -1.484375 0.234375l0.234375 -1.84375q0.203125 0.015625 0.34375 0.015625q1.34375 0 2.421875 -0.703125q1.078125 -0.703125 1.078125 -2.15625q0 -1.171875 -0.796875 -1.921875q-0.78125 -0.765625 -2.015625 -0.765625q-1.234375 0 -2.0625 0.78125q-0.8125 0.765625 -1.046875 2.3125l-2.109375 -0.375q0.390625 -2.125 1.75 -3.28125q1.375 -1.171875 3.421875 -1.171875q1.40625 0 2.578125 0.609375q1.1875 0.59375 1.8125 1.640625q0.640625 1.046875 0.640625 2.21875q0 1.109375 -0.609375 2.03125q-0.59375 0.90625 -1.765625 1.4375q1.53125 0.359375 2.375 1.46875q0.84375 1.109375 0.84375 2.765625q0 2.25 -1.640625 3.828125q-1.640625 1.5625 -4.15625 1.5625q-2.265625 0 -3.765625 -1.34375q-1.484375 -1.359375 -1.6875 -3.5z" fill-rule="nonzero"/><path fill="#000000" fill-opacity="0.0" d="m736.3517 823.3333l77.98425 0l0 43.748047l-77.98425 0z" fill-rule="evenodd"/><path fill="#000000" d="m767.4454 849.3421l2.28125 0.578125q-0.71875 2.796875 -2.578125 4.28125q-1.859375 1.46875 -4.546875 1.46875q-2.765625 0 -4.515625 -1.125q-1.734375 -1.140625 -2.640625 -3.28125q-0.90625 -2.15625 -0.90625 -4.609375q0 -2.6875 1.015625 -4.6875q1.03125 -2.0 2.921875 -3.03125q1.890625 -1.03125 4.171875 -1.03125q2.578125 0 4.328125 1.3125q1.765625 1.3125 2.453125 3.6875l-2.234375 0.53125q-0.609375 -1.875 -1.75 -2.734375q-1.125 -0.859375 -2.84375 -0.859375q-1.984375 0 -3.3125 0.953125q-1.328125 0.953125 -1.875 2.546875q-0.53125 1.59375 -0.53125 3.296875q0 2.1875 0.625 3.828125q0.640625 1.640625 1.984375 2.453125q1.359375 0.796875 2.921875 0.796875q1.921875 0 3.234375 -1.09375q1.328125 -1.109375 1.796875 -3.28125zm5.3945312 -4.015625l0 -2.40625l2.40625 0l0 2.40625l-2.40625 0zm0 10.046875l0 -2.40625l2.40625 0l0 2.40625l-2.40625 0zm23.242188 -2.03125l0 2.03125l-11.34375 0q-0.03125 -0.765625 0.234375 -1.46875q0.4375 -1.15625 1.390625 -2.28125q0.953125 -1.125 2.765625 -2.609375q2.796875 -2.296875 3.78125 -3.625q0.984375 -1.34375 0.984375 -2.546875q0 -1.25 -0.90625 -2.109375q-0.890625 -0.859375 -2.328125 -0.859375q-1.515625 0 -2.4375 0.921875q-0.90625 0.90625 -0.921875 2.515625l-2.171875 -0.21875q0.21875 -2.421875 1.671875 -3.6875q1.453125 -1.28125 3.90625 -1.28125q2.46875 0 3.90625 1.375q1.453125 1.359375 1.453125 3.390625q0 1.03125 -0.421875 2.03125q-0.421875 1.0 -1.40625 2.109375q-0.96875 1.09375 -3.25 3.015625q-1.890625 1.59375 -2.4375 2.15625q-0.53125 0.5625 -0.890625 1.140625l8.421875 0z" fill-rule="nonzero"/><path fill="#000000" fill-opacity="0.0" d="m264.0 72.0l436.0 4.0" fill-rule="evenodd"/><path stroke="#999999" stroke-width="8.0" stroke-linejoin="round" stroke-linecap="butt" d="m264.0 72.0l408.58447 3.7484818" fill-rule="evenodd"/><path fill="#999999" stroke="#999999" stroke-width="8.0" stroke-linecap="butt" d="m672.5845 75.74848l-9.078857 8.913757l24.799683 -8.769531l-24.634583 -9.223053z" fill-rule="evenodd"/><path fill="#000000" fill-opacity="0.0" d="m267.70078 28.251968l157.5433 0l0 43.74803l-157.5433 0z" fill-rule="evenodd"/><path fill="#000000" d="m278.16953 55.171967l0 -13.359375l9.65625 0l0 1.578125l-7.875 0l0 4.09375l7.375 0l0 1.5625l-7.375 0l0 4.546875l8.1875 0l0 1.578125l-9.96875 0zm14.896698 0l-3.6875 -9.671875l1.734375 0l2.078125 5.796875q0.328125 0.9375 0.625 1.9375q0.203125 -0.765625 0.609375 -1.828125l2.140625 -5.90625l1.6875 0l-3.65625 9.671875l-1.53125 0zm13.265625 -3.109375l1.6875 0.203125q-0.40625 1.484375 -1.484375 2.3125q-1.078125 0.8125 -2.765625 0.8125q-2.125 0 -3.375 -1.296875q-1.234375 -1.3125 -1.234375 -3.671875q0 -2.453125 1.25 -3.796875q1.265625 -1.34375 3.265625 -1.34375q1.9375 0 3.15625 1.328125q1.234375 1.3125 1.234375 3.703125q0 0.15625 0 0.4375l-7.21875 0q0.09375 1.59375 0.90625 2.453125q0.8125 0.84375 2.015625 0.84375q0.90625 0 1.546875 -0.46875q0.640625 -0.484375 1.015625 -1.515625zm-5.390625 -2.65625l5.40625 0q-0.109375 -1.21875 -0.625 -1.828125q-0.78125 -0.953125 -2.03125 -0.953125q-1.125 0 -1.90625 0.765625q-0.765625 0.75 -0.84375 2.015625zm9.141357 5.765625l0 -9.671875l1.46875 0l0 1.375q1.0625 -1.59375 3.078125 -1.59375q0.875 0 1.609375 0.3125q0.734375 0.3125 1.09375 0.828125q0.375 0.5 0.515625 1.203125q0.09375 0.453125 0.09375 1.59375l0 5.953125l-1.640625 0l0 -5.890625q0 -1.0 -0.203125 -1.484375q-0.1875 -0.5 -0.671875 -0.796875q-0.484375 -0.296875 -1.140625 -0.296875q-1.046875 0 -1.8125 0.671875q-0.75 0.65625 -0.75 2.515625l0 5.28125l-1.640625 0zm13.953827 -1.46875l0.234375 1.453125q-0.6875 0.140625 -1.234375 0.140625q-0.890625 0 -1.390625 -0.28125q-0.484375 -0.28125 -0.6875 -0.734375q-0.203125 -0.46875 -0.203125 -1.9375l0 -5.578125l-1.203125 0l0 -1.265625l1.203125 0l0 -2.390625l1.625 -0.984375l0 3.375l1.65625 0l0 1.265625l-1.65625 0l0 5.671875q0 0.6875 0.078125 0.890625q0.09375 0.203125 0.28125 0.328125q0.203125 0.109375 0.578125 0.109375q0.265625 0 0.71875 -0.0625zm10.060638 1.46875l0 -11.78125l-4.40625 0l0 -1.578125l10.578125 0l0 1.578125l-4.40625 0l0 11.78125l-1.765625 0zm7.0939026 -11.46875l0 -1.890625l1.640625 0l0 1.890625l-1.640625 0zm0 11.46875l0 -9.671875l1.640625 0l0 9.671875l-1.640625 0zm4.144806 0l0 -9.671875l1.46875 0l0 1.359375q0.453125 -0.71875 1.203125 -1.140625q0.765625 -0.4375 1.71875 -0.4375q1.078125 0 1.765625 0.453125q0.6875 0.4375 0.96875 1.234375q1.15625 -1.6875 2.984375 -1.6875q1.453125 0 2.21875 0.796875q0.78125 0.796875 0.78125 2.453125l0 6.640625l-1.640625 0l0 -6.09375q0 -0.984375 -0.15625 -1.40625q-0.15625 -0.4375 -0.578125 -0.703125q-0.421875 -0.265625 -0.984375 -0.265625q-1.015625 0 -1.6875 0.6875q-0.671875 0.671875 -0.671875 2.15625l0 5.625l-1.640625 0l0 -6.28125q0 -1.09375 -0.40625 -1.640625q-0.40625 -0.546875 -1.3125 -0.546875q-0.6875 0 -1.28125 0.359375q-0.59375 0.359375 -0.859375 1.0625q-0.25 0.703125 -0.25 2.03125l0 5.015625l-1.640625 0zm22.165802 -3.109375l1.6875 0.203125q-0.40625 1.484375 -1.484375 2.3125q-1.078125 0.8125 -2.765625 0.8125q-2.125 0 -3.375 -1.296875q-1.234375 -1.3125 -1.234375 -3.671875q0 -2.453125 1.25 -3.796875q1.265625 -1.34375 3.265625 -1.34375q1.9375 0 3.15625 1.328125q1.234375 1.3125 1.234375 3.703125q0 0.15625 0 0.4375l-7.21875 0q0.09375 1.59375 0.90625 2.453125q0.8125 0.84375 2.015625 0.84375q0.90625 0 1.546875 -0.46875q0.640625 -0.484375 1.015625 -1.515625zm-5.390625 -2.65625l5.40625 0q-0.109375 -1.21875 -0.625 -1.828125q-0.78125 -0.953125 -2.03125 -0.953125q-1.125 0 -1.90625 0.765625q-0.765625 0.75 -0.84375 2.015625z" fill-rule="nonzero"/></g></svg>