<svg version="1.1" viewBox="0.0 0.0 773.4461942257218 504.31758530183725" fill="none" stroke="none" stroke-linecap="square" stroke-miterlimit="10" xmlns:xlink="http://www.w3.org/1999/xlink" xmlns="http://www.w3.org/2000/svg"><clipPath id="p.0"><path d="m0 0l773.44617 0l0 504.3176l-773.44617 0l0 -504.3176z" clip-rule="nonzero"/></clipPath><g clip-path="url(#p.0)"><path fill="#000000" fill-opacity="0.0" d="m0 0l773.44617 0l0 504.3176l-773.44617 0z" fill-rule="evenodd"/><path fill="#000000" fill-opacity="0.0" d="m123.44883 99.83465l0 0c0 13.933228 -0.94122314 25.228348 -2.1022797 25.228348l-27.574974 0c-1.1610565 0 -2.1022797 -11.29512 -2.1022797 -25.228348z" fill-rule="evenodd"/><path fill="#000000" fill-opacity="0.0" d="m123.44883 99.83465l0 0c0 13.933228 -0.94122314 25.228348 -2.1022797 25.228348l-27.574974 0c-1.1610565 0 -2.1022797 -11.29512 -2.1022797 -25.228348" fill-rule="evenodd"/><path stroke="#b7b7b7" stroke-width="4.0" stroke-linejoin="round" stroke-linecap="butt" d="m123.44883 99.83465l0 0c0 13.933228 -0.94122314 25.228348 -2.1022797 25.228348l-27.574974 0c-1.1610565 0 -2.1022797 -11.29512 -2.1022797 -25.228348" fill-rule="evenodd"/><path fill="#000000" fill-opacity="0.0" d="m82.198166 58.732285l638.55115 0" fill-rule="evenodd"/><path stroke="#999999" stroke-width="8.0" stroke-linejoin="round" stroke-linecap="butt" d="m82.198166 58.732285l611.1345 0" fill-rule="evenodd"/><path fill="#999999" stroke="#999999" stroke-width="8.0" stroke-linecap="butt" d="m693.33264 58.732285l-8.996643 8.996666l24.71814 -8.996666l-24.71814 -8.99667z" fill-rule="evenodd"/><path fill="#000000" fill-opacity="0.0" d="m82.77034 10.984252l157.5433 0l0 43.74803l-157.5433 0z" fill-rule="evenodd"/><path fill="#000000" d="m93.23909 37.90425l0 -13.359377l9.65625 0l0 1.578125l-7.875 0l0 4.09375l7.375 0l0 1.5625l-7.375 0l0 4.546877l8.1875 0l0 1.578125l-9.96875 0zm14.896698 0l-3.6875 -9.671877l1.734375 0l2.078125 5.796877q0.328125 0.9375 0.625 1.9375q0.203125 -0.765625 0.609375 -1.828125l2.140625 -5.906252l1.6875 0l-3.65625 9.671877l-1.53125 0zm13.265625 -3.109375l1.6875 0.203125q-0.40625 1.484375 -1.484375 2.3125q-1.078125 0.8125 -2.765625 0.8125q-2.125 0 -3.375 -1.296875q-1.234375 -1.3125 -1.234375 -3.671875q0 -2.453127 1.25 -3.796877q1.265625 -1.34375 3.265625 -1.34375q1.9375 0 3.15625 1.328125q1.234375 1.3125 1.234375 3.703127q0 0.15625 0 0.4375l-7.21875 0q0.09375 1.59375 0.90625 2.453125q0.8125 0.84375 2.015625 0.84375q0.90625 0 1.546875 -0.46875q0.640625 -0.484375 1.015625 -1.515625zm-5.390625 -2.65625l5.40625 0q-0.109375 -1.2187519 -0.625 -1.8281269q-0.78125 -0.953125 -2.03125 -0.953125q-1.125 0 -1.90625 0.765625q-0.765625 0.75 -0.84375 2.015627zm9.141342 5.765625l0 -9.671877l1.46875 0l0 1.375q1.0625 -1.59375 3.078125 -1.59375q0.875 0 1.609375 0.3125q0.734375 0.3125 1.09375 0.828125q0.375 0.5 0.515625 1.203125q0.09375 0.453125 0.09375 1.59375l0 5.953127l-1.640625 0l0 -5.890625q0 -1.0000019 -0.203125 -1.4843769q-0.1875 -0.5 -0.671875 -0.796875q-0.484375 -0.296875 -1.140625 -0.296875q-1.046875 0 -1.8125 0.671875q-0.75 0.65625 -0.75 2.515627l0 5.28125l-1.640625 0zm13.953842 -1.46875l0.234375 1.453125q-0.6875 0.140625 -1.234375 0.140625q-0.890625 0 -1.390625 -0.28125q-0.484375 -0.28125 -0.6875 -0.734375q-0.203125 -0.46875 -0.203125 -1.9375l0 -5.578127l-1.203125 0l0 -1.265625l1.203125 0l0 -2.390625l1.625 -0.984375l0 3.375l1.65625 0l0 1.265625l-1.65625 0l0 5.671877q0 0.6875 0.078125 0.890625q0.09375 0.203125 0.28125 0.328125q0.203125 0.109375 0.578125 0.109375q0.265625 0 0.71875 -0.0625zm10.060623 1.46875l0 -11.781252l-4.40625 0l0 -1.578125l10.578125 0l0 1.578125l-4.40625 0l0 11.781252l-1.765625 0zm7.0939026 -11.468752l0 -1.890625l1.640625 0l0 1.890625l-1.640625 0zm0 11.468752l0 -9.671877l1.640625 0l0 9.671877l-1.640625 0zm4.144821 0l0 -9.671877l1.46875 0l0 1.359375q0.453125 -0.71875 1.203125 -1.140625q0.765625 -0.4375 1.71875 -0.4375q1.078125 0 1.765625 0.453125q0.6875 0.4375 0.96875 1.234375q1.15625 -1.6875 2.984375 -1.6875q1.453125 0 2.21875 0.796875q0.78125 0.796875 0.78125 2.453125l0 6.640627l-1.640625 0l0 -6.093752q0 -0.984375 -0.15625 -1.40625q-0.15625 -0.4375 -0.578125 -0.703125q-0.421875 -0.265625 -0.984375 -0.265625q-1.015625 0 -1.6875 0.6875q-0.671875 0.671875 -0.671875 2.156252l0 5.625l-1.640625 0l0 -6.281252q0 -1.09375 -0.40625 -1.640625q-0.40625 -0.546875 -1.3125 -0.546875q-0.6875 0 -1.28125 0.359375q-0.59375 0.359375 -0.859375 1.0625q-0.25 0.703125 -0.25 2.031252l0 5.015625l-1.640625 0zm22.165802 -3.109375l1.6875 0.203125q-0.40625 1.484375 -1.484375 2.3125q-1.078125 0.8125 -2.765625 0.8125q-2.125 0 -3.375 -1.296875q-1.234375 -1.3125 -1.234375 -3.671875q0 -2.453127 1.25 -3.796877q1.265625 -1.34375 3.265625 -1.34375q1.9375 0 3.15625 1.328125q1.234375 1.3125 1.234375 3.703127q0 0.15625 0 0.4375l-7.21875 0q0.09375 1.59375 0.90625 2.453125q0.8125 0.84375 2.015625 0.84375q0.90625 0 1.546875 -0.46875q0.640625 -0.484375 1.015625 -1.515625zm-5.390625 -2.65625l5.40625 0q-0.109375 -1.2187519 -0.625 -1.8281269q-0.78125 -0.953125 -2.03125 -0.953125q-1.125 0 -1.90625 0.765625q-0.765625 0.75 -0.84375 2.015627z" fill-rule="nonzero"/><path fill="#000000" fill-opacity="0.0" d="m154.79155 100.13914l0 0c0 13.933228 -0.94122314 25.228348 -2.1022797 25.228348l-26.724579 0c-1.1610565 0 -2.1022797 -11.29512 -2.1022797 -25.228348z" fill-rule="evenodd"/><path fill="#000000" fill-opacity="0.0" d="m154.79155 100.13914l0 0c0 13.933228 -0.94122314 25.228348 -2.1022797 25.228348l-26.724579 0c-1.1610565 0 -2.1022797 -11.29512 -2.1022797 -25.228348" fill-rule="evenodd"/><path stroke="#b7b7b7" stroke-width="4.0" stroke-linejoin="round" stroke-linecap="butt" d="m154.79155 100.13914l0 0c0 13.933228 -0.94122314 25.228348 -2.1022797 25.228348l-26.724579 0c-1.1610565 0 -2.1022797 -11.29512 -2.1022797 -25.228348" fill-rule="evenodd"/><path fill="#000000" fill-opacity="0.0" d="m186.13426 100.13914l0 0c0 13.933228 -0.94122314 25.228348 -2.1022797 25.228348l-26.724564 0c-1.1610565 0 -2.1022797 -11.29512 -2.1022797 -25.228348z" fill-rule="evenodd"/><path fill="#000000" fill-opacity="0.0" d="m186.13426 100.13914l0 0c0 13.933228 -0.94122314 25.228348 -2.1022797 25.228348l-26.724564 0c-1.1610565 0 -2.1022797 -11.29512 -2.1022797 -25.228348" fill-rule="evenodd"/><path stroke="#b7b7b7" stroke-width="4.0" stroke-linejoin="round" stroke-linecap="butt" d="m186.13426 100.13914l0 0c0 13.933228 -0.94122314 25.228348 -2.1022797 25.228348l-26.724564 0c-1.1610565 0 -2.1022797 -11.29512 -2.1022797 -25.228348" fill-rule="evenodd"/><path fill="#000000" fill-opacity="0.0" d="m217.47699 100.13914l0 0c0 13.933228 -0.94122314 25.228348 -2.1022797 25.228348l-26.724579 0c-1.1610565 0 -2.1022797 -11.29512 -2.1022797 -25.228348z" fill-rule="evenodd"/><path fill="#000000" fill-opacity="0.0" d="m217.47699 100.13914l0 0c0 13.933228 -0.94122314 25.228348 -2.1022797 25.228348l-26.724579 0c-1.1610565 0 -2.1022797 -11.29512 -2.1022797 -25.228348" fill-rule="evenodd"/><path stroke="#b7b7b7" stroke-width="4.0" stroke-linejoin="round" stroke-linecap="butt" d="m217.47699 100.13914l0 0c0 13.933228 -0.94122314 25.228348 -2.1022797 25.228348l-26.724579 0c-1.1610565 0 -2.1022797 -11.29512 -2.1022797 -25.228348" fill-rule="evenodd"/><path fill="#000000" fill-opacity="0.0" d="m249.25363 99.83465l0 0c0 13.933228 -0.9412079 25.228348 -2.1022644 25.228348l-27.574982 0c-1.1610565 0 -2.1022797 -11.29512 -2.1022797 -25.228348z" fill-rule="evenodd"/><path fill="#000000" fill-opacity="0.0" d="m249.25363 99.83465l0 0c0 13.933228 -0.9412079 25.228348 -2.1022644 25.228348l-27.574982 0c-1.1610565 0 -2.1022797 -11.29512 -2.1022797 -25.228348" fill-rule="evenodd"/><path stroke="#b7b7b7" stroke-width="4.0" stroke-linejoin="round" stroke-linecap="butt" d="m249.25363 99.83465l0 0c0 13.933228 -0.9412079 25.228348 -2.1022644 25.228348l-27.574982 0c-1.1610565 0 -2.1022797 -11.29512 -2.1022797 -25.228348" fill-rule="evenodd"/><path fill="#000000" fill-opacity="0.0" d="m280.59634 100.13914l0 0c0 13.933228 -0.94122314 25.228348 -2.1022644 25.228348l-26.724579 0c-1.1610565 0 -2.1022797 -11.29512 -2.1022797 -25.228348z" fill-rule="evenodd"/><path fill="#000000" fill-opacity="0.0" d="m280.59634 100.13914l0 0c0 13.933228 -0.94122314 25.228348 -2.1022644 25.228348l-26.724579 0c-1.1610565 0 -2.1022797 -11.29512 -2.1022797 -25.228348" fill-rule="evenodd"/><path stroke="#b7b7b7" stroke-width="4.0" stroke-linejoin="round" stroke-linecap="butt" d="m280.59634 100.13914l0 0c0 13.933228 -0.94122314 25.228348 -2.1022644 25.228348l-26.724579 0c-1.1610565 0 -2.1022797 -11.29512 -2.1022797 -25.228348" fill-rule="evenodd"/><path fill="#000000" fill-opacity="0.0" d="m311.9391 100.13914l0 0c0 13.933228 -0.94122314 25.228348 -2.102295 25.228348l-26.724579 0c-1.1610413 0 -2.1022644 -11.29512 -2.1022644 -25.228348z" fill-rule="evenodd"/><path fill="#000000" fill-opacity="0.0" d="m311.9391 100.13914l0 0c0 13.933228 -0.94122314 25.228348 -2.102295 25.228348l-26.724579 0c-1.1610413 0 -2.1022644 -11.29512 -2.1022644 -25.228348" fill-rule="evenodd"/><path stroke="#b7b7b7" stroke-width="4.0" stroke-linejoin="round" stroke-linecap="butt" d="m311.9391 100.13914l0 0c0 13.933228 -0.94122314 25.228348 -2.102295 25.228348l-26.724579 0c-1.1610413 0 -2.1022644 -11.29512 -2.1022644 -25.228348" fill-rule="evenodd"/><path fill="#000000" fill-opacity="0.0" d="m343.2818 100.13914l0 0c0 13.933228 -0.94122314 25.228348 -2.1022644 25.228348l-26.724579 0c-1.1610718 0 -2.102295 -11.29512 -2.102295 -25.228348z" fill-rule="evenodd"/><path fill="#000000" fill-opacity="0.0" d="m343.2818 100.13914l0 0c0 13.933228 -0.94122314 25.228348 -2.1022644 25.228348l-26.724579 0c-1.1610718 0 -2.102295 -11.29512 -2.102295 -25.228348" fill-rule="evenodd"/><path stroke="#b7b7b7" stroke-width="4.0" stroke-linejoin="round" stroke-linecap="butt" d="m343.2818 100.13914l0 0c0 13.933228 -0.94122314 25.228348 -2.1022644 25.228348l-26.724579 0c-1.1610718 0 -2.102295 -11.29512 -2.102295 -25.228348" fill-rule="evenodd"/><path fill="#000000" fill-opacity="0.0" d="m375.05844 99.98645l0 0c0 13.933228 -0.94122314 25.228348 -2.1022644 25.228348l-27.574982 0c-1.1610413 0 -2.1022644 -11.29512 -2.1022644 -25.228348z" fill-rule="evenodd"/><path fill="#000000" fill-opacity="0.0" d="m375.05844 99.98645l0 0c0 13.933228 -0.94122314 25.228348 -2.1022644 25.228348l-27.574982 0c-1.1610413 0 -2.1022644 -11.29512 -2.1022644 -25.228348" fill-rule="evenodd"/><path stroke="#b7b7b7" stroke-width="4.0" stroke-linejoin="round" stroke-linecap="butt" d="m375.05844 99.98645l0 0c0 13.933228 -0.94122314 25.228348 -2.1022644 25.228348l-27.574982 0c-1.1610413 0 -2.1022644 -11.29512 -2.1022644 -25.228348" fill-rule="evenodd"/><path fill="#000000" fill-opacity="0.0" d="m406.40118 100.29094l0 0c0 13.933228 -0.94122314 25.228348 -2.102295 25.228348l-26.724579 0c-1.1610413 0 -2.1022644 -11.29512 -2.1022644 -25.228348z" fill-rule="evenodd"/><path fill="#000000" fill-opacity="0.0" d="m406.40118 100.29094l0 0c0 13.933228 -0.94122314 25.228348 -2.102295 25.228348l-26.724579 0c-1.1610413 0 -2.1022644 -11.29512 -2.1022644 -25.228348" fill-rule="evenodd"/><path stroke="#b7b7b7" stroke-width="4.0" stroke-linejoin="round" stroke-linecap="butt" d="m406.40118 100.29094l0 0c0 13.933228 -0.94122314 25.228348 -2.102295 25.228348l-26.724579 0c-1.1610413 0 -2.1022644 -11.29512 -2.1022644 -25.228348" fill-rule="evenodd"/><path fill="#000000" fill-opacity="0.0" d="m437.7439 100.29094l0 0c0 13.933228 -0.94122314 25.228348 -2.102295 25.228348l-26.724579 0c-1.1610413 0 -2.1022644 -11.29512 -2.1022644 -25.228348z" fill-rule="evenodd"/><path fill="#000000" fill-opacity="0.0" d="m437.7439 100.29094l0 0c0 13.933228 -0.94122314 25.228348 -2.102295 25.228348l-26.724579 0c-1.1610413 0 -2.1022644 -11.29512 -2.1022644 -25.228348" fill-rule="evenodd"/><path stroke="#b7b7b7" stroke-width="4.0" stroke-linejoin="round" stroke-linecap="butt" d="m437.7439 100.29094l0 0c0 13.933228 -0.94122314 25.228348 -2.102295 25.228348l-26.724579 0c-1.1610413 0 -2.1022644 -11.29512 -2.1022644 -25.228348" fill-rule="evenodd"/><path fill="#000000" fill-opacity="0.0" d="m469.0866 100.29094l0 0c0 13.933228 -0.94122314 25.228348 -2.1022644 25.228348l-26.724579 0c-1.1610718 0 -2.102295 -11.29512 -2.102295 -25.228348z" fill-rule="evenodd"/><path fill="#000000" fill-opacity="0.0" d="m469.0866 100.29094l0 0c0 13.933228 -0.94122314 25.228348 -2.1022644 25.228348l-26.724579 0c-1.1610718 0 -2.102295 -11.29512 -2.102295 -25.228348" fill-rule="evenodd"/><path stroke="#b7b7b7" stroke-width="4.0" stroke-linejoin="round" stroke-linecap="butt" d="m469.0866 100.29094l0 0c0 13.933228 -0.94122314 25.228348 -2.1022644 25.228348l-26.724579 0c-1.1610718 0 -2.102295 -11.29512 -2.102295 -25.228348" fill-rule="evenodd"/><path fill="#000000" fill-opacity="0.0" d="m500.0152 99.83467l0 0c0 13.933235 -0.94122314 25.228348 -2.102295 25.228348l-26.724548 0c-1.1610718 0 -2.102295 -11.295113 -2.102295 -25.228348z" fill-rule="evenodd"/><path fill="#000000" fill-opacity="0.0" d="m500.0152 99.83467l0 0c0 13.933235 -0.94122314 25.228348 -2.102295 25.228348l-26.724548 0c-1.1610718 0 -2.102295 -11.295113 -2.102295 -25.228348" fill-rule="evenodd"/><path stroke="#b7b7b7" stroke-width="4.0" stroke-linejoin="round" stroke-linecap="butt" d="m500.0152 99.83467l0 0c0 13.933235 -0.94122314 25.228348 -2.102295 25.228348l-26.724548 0c-1.1610718 0 -2.102295 -11.295113 -2.102295 -25.228348" fill-rule="evenodd"/><path fill="#000000" fill-opacity="0.0" d="m531.3579 99.83467l0 0c0 13.933235 -0.94122314 25.228348 -2.102295 25.228348l-26.724548 0c-1.1610718 0 -2.102295 -11.295113 -2.102295 -25.228348z" fill-rule="evenodd"/><path fill="#000000" fill-opacity="0.0" d="m531.3579 99.83467l0 0c0 13.933235 -0.94122314 25.228348 -2.102295 25.228348l-26.724548 0c-1.1610718 0 -2.102295 -11.295113 -2.102295 -25.228348" fill-rule="evenodd"/><path stroke="#b7b7b7" stroke-width="4.0" stroke-linejoin="round" stroke-linecap="butt" d="m531.3579 99.83467l0 0c0 13.933235 -0.94122314 25.228348 -2.102295 25.228348l-26.724548 0c-1.1610718 0 -2.102295 -11.295113 -2.102295 -25.228348" fill-rule="evenodd"/><path fill="#000000" fill-opacity="0.0" d="m563.1346 99.681984l0 0c0 13.933235 -0.94122314 25.228348 -2.102295 25.228348l-27.574951 0c-1.1610718 0 -2.102295 -11.295113 -2.102295 -25.228348z" fill-rule="evenodd"/><path fill="#000000" fill-opacity="0.0" d="m563.1346 99.681984l0 0c0 13.933235 -0.94122314 25.228348 -2.102295 25.228348l-27.574951 0c-1.1610718 0 -2.102295 -11.295113 -2.102295 -25.228348" fill-rule="evenodd"/><path stroke="#b7b7b7" stroke-width="4.0" stroke-linejoin="round" stroke-linecap="butt" d="m563.1346 99.681984l0 0c0 13.933235 -0.94122314 25.228348 -2.102295 25.228348l-27.574951 0c-1.1610718 0 -2.102295 -11.295113 -2.102295 -25.228348" fill-rule="evenodd"/><path fill="#000000" fill-opacity="0.0" d="m594.4773 99.98647l0 0c0 13.933235 -0.94122314 25.228348 -2.102295 25.228348l-26.724548 0c-1.1610718 0 -2.102295 -11.295113 -2.102295 -25.228348z" fill-rule="evenodd"/><path fill="#000000" fill-opacity="0.0" d="m594.4773 99.98647l0 0c0 13.933235 -0.94122314 25.228348 -2.102295 25.228348l-26.724548 0c-1.1610718 0 -2.102295 -11.295113 -2.102295 -25.228348" fill-rule="evenodd"/><path stroke="#b7b7b7" stroke-width="4.0" stroke-linejoin="round" stroke-linecap="butt" d="m594.4773 99.98647l0 0c0 13.933235 -0.94122314 25.228348 -2.102295 25.228348l-26.724548 0c-1.1610718 0 -2.102295 -11.295113 -2.102295 -25.228348" fill-rule="evenodd"/><path fill="#000000" fill-opacity="0.0" d="m625.82 99.98647l0 0c0 13.933235 -0.94122314 25.228348 -2.102295 25.228348l-26.724548 0c-1.1610718 0 -2.102295 -11.295113 -2.102295 -25.228348z" fill-rule="evenodd"/><path fill="#000000" fill-opacity="0.0" d="m625.82 99.98647l0 0c0 13.933235 -0.94122314 25.228348 -2.102295 25.228348l-26.724548 0c-1.1610718 0 -2.102295 -11.295113 -2.102295 -25.228348" fill-rule="evenodd"/><path stroke="#b7b7b7" stroke-width="4.0" stroke-linejoin="round" stroke-linecap="butt" d="m625.82 99.98647l0 0c0 13.933235 -0.94122314 25.228348 -2.102295 25.228348l-26.724548 0c-1.1610718 0 -2.102295 -11.295113 -2.102295 -25.228348" fill-rule="evenodd"/><path fill="#000000" fill-opacity="0.0" d="m657.1627 99.98647l0 0c0 13.933235 -0.94122314 25.228348 -2.102295 25.228348l-26.724548 0c-1.1610718 0 -2.102295 -11.295113 -2.102295 -25.228348z" fill-rule="evenodd"/><path fill="#000000" fill-opacity="0.0" d="m657.1627 99.98647l0 0c0 13.933235 -0.94122314 25.228348 -2.102295 25.228348l-26.724548 0c-1.1610718 0 -2.102295 -11.295113 -2.102295 -25.228348" fill-rule="evenodd"/><path stroke="#b7b7b7" stroke-width="4.0" stroke-linejoin="round" stroke-linecap="butt" d="m657.1627 99.98647l0 0c0 13.933235 -0.94122314 25.228348 -2.102295 25.228348l-26.724548 0c-1.1610718 0 -2.102295 -11.295113 -2.102295 -25.228348" fill-rule="evenodd"/><path fill="#000000" fill-opacity="0.0" d="m651.53284 466.4777l0 0c0 13.933228 -0.94122314 25.228333 -2.102295 25.228333l-492.55136 0c-1.1610565 0 -2.1022797 -11.295105 -2.1022797 -25.228333z" fill-rule="evenodd"/><path fill="#000000" fill-opacity="0.0" d="m651.53284 466.4777l0 0c0 13.933228 -0.94122314 25.228333 -2.102295 25.228333l-492.55136 0c-1.1610565 0 -2.1022797 -11.295105 -2.1022797 -25.228333" fill-rule="evenodd"/><path stroke="#b7b7b7" stroke-width="4.0" stroke-linejoin="round" stroke-linecap="butt" d="m651.53284 466.4777l0 0c0 13.933228 -0.94122314 25.228333 -2.102295 25.228333l-492.55136 0c-1.1610565 0 -2.1022797 -11.295105 -2.1022797 -25.228333" fill-rule="evenodd"/><path fill="#000000" fill-opacity="0.0" d="m113.19948 129.55643l153.38582 44.692917" fill-rule="evenodd"/><path stroke="#000000" stroke-width="1.0" stroke-linejoin="round" stroke-linecap="butt" stroke-dasharray="1.0,3.0" d="m113.19948 129.55643l153.38582 44.692917" fill-rule="evenodd"/><path fill="#000000" fill-opacity="0.0" d="m147.45145 128.81364l125.82678 37.984253" fill-rule="evenodd"/><path stroke="#000000" stroke-width="1.0" stroke-linejoin="round" stroke-linecap="butt" stroke-dasharray="1.0,3.0" d="m147.45145 128.81364l125.82678 37.984253" fill-rule="evenodd"/><path fill="#000000" fill-opacity="0.0" d="m206.27296 127.32284l62.551193 26.047234" fill-rule="evenodd"/><path stroke="#000000" stroke-width="1.0" stroke-linejoin="round" stroke-linecap="butt" stroke-dasharray="1.0,3.0" d="m206.27296 127.32284l62.551193 26.047234" fill-rule="evenodd"/><path fill="#000000" fill-opacity="0.0" d="m236.80052 127.32284l60.314957 28.283455" fill-rule="evenodd"/><path stroke="#000000" stroke-width="1.0" stroke-linejoin="round" stroke-linecap="butt" stroke-dasharray="1.0,3.0" d="m236.80052 127.32284l60.314957 28.283455" fill-rule="evenodd"/><path fill="#000000" fill-opacity="0.0" d="m273.2861 128.81364l42.456665 26.803146" fill-rule="evenodd"/><path stroke="#000000" stroke-width="1.0" stroke-linejoin="round" stroke-linecap="butt" stroke-dasharray="1.0,3.0" d="m273.2861 128.81364l42.456665 26.803146" fill-rule="evenodd"/><path fill="#000000" fill-opacity="0.0" d="m299.34647 128.81364l23.086609 23.84253" fill-rule="evenodd"/><path stroke="#000000" stroke-width="1.0" stroke-linejoin="round" stroke-linecap="butt" stroke-dasharray="1.0,3.0" d="m299.34647 128.81364l23.086609 23.84253" fill-rule="evenodd"/><path fill="#000000" fill-opacity="0.0" d="m329.1286 130.30183l5.952759 17.133865" fill-rule="evenodd"/><path stroke="#000000" stroke-width="1.0" stroke-linejoin="round" stroke-linecap="butt" stroke-dasharray="1.0,3.0" d="m329.1286 130.30183l5.952759 17.133865" fill-rule="evenodd"/><path fill="#000000" fill-opacity="0.0" d="m361.88977 128.81364l-2.2362366 17.858276" fill-rule="evenodd"/><path stroke="#000000" stroke-width="1.0" stroke-linejoin="round" stroke-linecap="butt" stroke-dasharray="1.0,3.0" d="m361.88977 128.81364l-2.2362366 17.858276" fill-rule="evenodd"/><path fill="#000000" fill-opacity="0.0" d="m393.16272 128.81364l-5.2283325 12.661423" fill-rule="evenodd"/><path stroke="#000000" stroke-width="1.0" stroke-linejoin="round" stroke-linecap="butt" stroke-dasharray="1.0,3.0" d="m393.16272 128.81364l-5.2283325 12.661423" fill-rule="evenodd"/><path fill="#000000" fill-opacity="0.0" d="m424.4357 130.30183l-21.606293 25.32283" fill-rule="evenodd"/><path stroke="#000000" stroke-width="1.0" stroke-linejoin="round" stroke-linecap="butt" stroke-dasharray="1.0,3.0" d="m424.4357 130.30183l-21.606293 25.32283" fill-rule="evenodd"/><path fill="#000000" fill-opacity="0.0" d="m452.72964 129.55643l-30.519684 29.039368" fill-rule="evenodd"/><path stroke="#000000" stroke-width="1.0" stroke-linejoin="round" stroke-linecap="butt" stroke-dasharray="1.0,3.0" d="m452.72964 129.55643l-30.519684 29.039368" fill-rule="evenodd"/><path fill="#000000" fill-opacity="0.0" d="m485.4908 128.81364l-55.08661 37.984253" fill-rule="evenodd"/><path stroke="#000000" stroke-width="1.0" stroke-linejoin="round" stroke-linecap="butt" stroke-dasharray="1.0,3.0" d="m485.4908 128.81364l-55.08661 37.984253" fill-rule="evenodd"/><path fill="#000000" fill-opacity="0.0" d="m509.3176 131.79002l-65.51181 40.220474" fill-rule="evenodd"/><path stroke="#000000" stroke-width="1.0" stroke-linejoin="round" stroke-linecap="butt" stroke-dasharray="1.0,3.0" d="m509.3176 131.79002l-65.51181 40.220474" fill-rule="evenodd"/><path fill="#000000" fill-opacity="0.0" d="m541.3333 131.04724l-93.07083 52.157486" fill-rule="evenodd"/><path stroke="#000000" stroke-width="1.0" stroke-linejoin="round" stroke-linecap="butt" stroke-dasharray="1.0,3.0" d="m541.3333 131.04724l-93.07083 52.157486" fill-rule="evenodd"/><path fill="#000000" fill-opacity="0.0" d="m575.5853 128.81364l-122.11026 60.314972" fill-rule="evenodd"/><path stroke="#000000" stroke-width="1.0" stroke-linejoin="round" stroke-linecap="butt" stroke-dasharray="1.0,3.0" d="m575.5853 128.81364l-122.11026 60.314972" fill-rule="evenodd"/><path fill="#000000" fill-opacity="0.0" d="m178.72179 130.30183l77.44881 25.32283" fill-rule="evenodd"/><path stroke="#000000" stroke-width="1.0" stroke-linejoin="round" stroke-linecap="butt" stroke-dasharray="1.0,3.0" d="m178.72179 130.30183l77.44881 25.32283" fill-rule="evenodd"/><path fill="#fce5cd" d="m359.16772 166.49522l30.801727 -21.610703l-3.03714 19.840866l34.964386 -3.2341614l-13.886444 10.648865l36.371216 3.0627594l-28.881805 8.7113495l33.044434 10.488647l-39.416626 -1.2966461l10.824463 19.199997l-34.13681 -13.55513l-6.3970337 19.673203l-22.468231 -17.892181l-16.940125 24.83368l-6.372223 -22.255295l-24.437805 7.4147034l7.4894104 -13.711624l-45.78058 2.4218903l29.68454 -10.477463l-30.801727 -11.774109l38.291138 -3.7185364l-35.229187 -19.829681l57.449158 14.997086l8.606598 -14.997086z" fill-rule="evenodd"/><path stroke="#cccccc" stroke-width="1.0" stroke-linejoin="round" stroke-linecap="butt" d="m359.16772 166.49522l30.801727 -21.610703l-3.03714 19.840866l34.964386 -3.2341614l-13.886444 10.648865l36.371216 3.0627594l-28.881805 8.7113495l33.044434 10.488647l-39.416626 -1.2966461l10.824463 19.199997l-34.13681 -13.55513l-6.3970337 19.673203l-22.468231 -17.892181l-16.940125 24.83368l-6.372223 -22.255295l-24.437805 7.4147034l7.4894104 -13.711624l-45.78058 2.4218903l29.68454 -10.477463l-30.801727 -11.774109l38.291138 -3.7185364l-35.229187 -19.829681l57.449158 14.997086l8.606598 -14.997086z" fill-rule="evenodd"/><path fill="#000000" d="m328.05124 184.85564l1.765625 0.453125q-0.5625 2.171875 -2.0 3.328125q-1.4375 1.140625 -3.53125 1.140625q-2.15625 0 -3.515625 -0.875q-1.34375 -0.890625 -2.0625 -2.546875q-0.703125 -1.671875 -0.703125 -3.59375q0 -2.078125 0.796875 -3.625q0.796875 -1.5625 2.265625 -2.359375q1.484375 -0.8125 3.25 -0.8125q2.0 0 3.359375 1.015625q1.375 1.015625 1.90625 2.875l-1.734375 0.40625q-0.46875 -1.453125 -1.359375 -2.109375q-0.875 -0.671875 -2.203125 -0.671875q-1.546875 0 -2.578125 0.734375q-1.03125 0.734375 -1.453125 1.984375q-0.421875 1.234375 -0.421875 2.5625q0 1.703125 0.5 2.96875q0.5 1.265625 1.546875 1.90625q1.046875 0.625 2.265625 0.625q1.484375 0 2.515625 -0.859375q1.03125 -0.859375 1.390625 -2.546875zm3.1292114 -0.15625q0 -2.6875 1.484375 -3.96875q1.25 -1.078125 3.046875 -1.078125q2.0 0 3.265625 1.3125q1.265625 1.296875 1.265625 3.609375q0 1.859375 -0.5625 2.9375q-0.5625 1.0625 -1.640625 1.65625q-1.0625 0.59375 -2.328125 0.59375q-2.03125 0 -3.28125 -1.296875q-1.25 -1.3125 -1.25 -3.765625zm1.6875 0q0 1.859375 0.796875 2.796875q0.8125 0.921875 2.046875 0.921875q1.21875 0 2.03125 -0.921875q0.8125 -0.9375 0.8125 -2.84375q0 -1.796875 -0.8125 -2.71875q-0.8125 -0.921875 -2.03125 -0.921875q-1.234375 0 -2.046875 0.921875q-0.796875 0.90625 -0.796875 2.765625zm9.297577 4.84375l0 -9.671875l1.46875 0l0 1.359375q0.453125 -0.71875 1.203125 -1.140625q0.765625 -0.4375 1.71875 -0.4375q1.078125 0 1.765625 0.453125q0.6875 0.4375 0.96875 1.234375q1.15625 -1.6875 2.984375 -1.6875q1.453125 0 2.21875 0.796875q0.78125 0.796875 0.78125 2.453125l0 6.640625l-1.640625 0l0 -6.09375q0 -0.984375 -0.15625 -1.40625q-0.15625 -0.4375 -0.578125 -0.703125q-0.421875 -0.265625 -0.984375 -0.265625q-1.015625 0 -1.6875 0.6875q-0.671875 0.671875 -0.671875 2.15625l0 5.625l-1.640625 0l0 -6.28125q0 -1.09375 -0.40625 -1.640625q-0.40625 -0.546875 -1.3125 -0.546875q-0.6875 0 -1.28125 0.359375q-0.59375 0.359375 -0.859375 1.0625q-0.25 0.703125 -0.25 2.03125l0 5.015625l-1.640625 0zm17.040802 0l-1.515625 0l0 -13.359375l1.640625 0l0 4.765625q1.046875 -1.296875 2.65625 -1.296875q0.890625 0 1.6875 0.359375q0.796875 0.359375 1.3125 1.015625q0.515625 0.640625 0.796875 1.5625q0.296875 0.921875 0.296875 1.96875q0 2.484375 -1.234375 3.84375q-1.21875 1.359375 -2.953125 1.359375q-1.703125 0 -2.6875 -1.4375l0 1.21875zm-0.015625 -4.90625q0 1.734375 0.484375 2.515625q0.765625 1.265625 2.09375 1.265625q1.078125 0 1.859375 -0.9375q0.78125 -0.9375 0.78125 -2.78125q0 -1.890625 -0.75 -2.796875q-0.75 -0.90625 -1.828125 -0.90625q-1.0625 0 -1.859375 0.9375q-0.78125 0.9375 -0.78125 2.703125zm8.891357 -6.5625l0 -1.890625l1.640625 0l0 1.890625l-1.640625 0zm0 11.46875l0 -9.671875l1.640625 0l0 9.671875l-1.640625 0zm4.144806 0l0 -9.671875l1.46875 0l0 1.375q1.0625 -1.59375 3.078125 -1.59375q0.875 0 1.609375 0.3125q0.734375 0.3125 1.09375 0.828125q0.375 0.5 0.515625 1.203125q0.09375 0.453125 0.09375 1.59375l0 5.953125l-1.640625 0l0 -5.890625q0 -1.0 -0.203125 -1.484375q-0.1875 -0.5 -0.671875 -0.796875q-0.484375 -0.296875 -1.140625 -0.296875q-1.046875 0 -1.8125 0.671875q-0.75 0.65625 -0.75 2.515625l0 5.28125l-1.640625 0zm17.000732 -3.109375l1.6875 0.203125q-0.40625 1.484375 -1.484375 2.3125q-1.078125 0.8125 -2.765625 0.8125q-2.125 0 -3.375 -1.296875q-1.234375 -1.3125 -1.234375 -3.671875q0 -2.453125 1.25 -3.796875q1.265625 -1.34375 3.265625 -1.34375q1.9375 0 3.15625 1.328125q1.234375 1.3125 1.234375 3.703125q0 0.15625 0 0.4375l-7.21875 0q0.09375 1.59375 0.90625 2.453125q0.8125 0.84375 2.015625 0.84375q0.90625 0 1.546875 -0.46875q0.640625 -0.484375 1.015625 -1.515625zm-5.390625 -2.65625l5.40625 0q-0.109375 -1.21875 -0.625 -1.828125q-0.78125 -0.953125 -2.03125 -0.953125q-1.125 0 -1.90625 0.765625q-0.765625 0.75 -0.84375 2.015625zm10.016327 2.453125l-0.5 -7.078125l0 -2.96875l2.03125 0l0 2.96875l-0.484375 7.078125l-1.046875 0zm-0.4375 3.3125l0 -1.875l1.890625 0l0 1.875l-1.890625 0z" fill-rule="nonzero"/><path fill="#000000" fill-opacity="0.0" d="m99.41207 128.22835l17.291344 130.83464" fill-rule="evenodd"/><path stroke="#000000" stroke-width="1.0" stroke-linejoin="round" stroke-linecap="butt" stroke-dasharray="1.0,3.0" d="m99.41207 128.22835l17.291344 130.83464" fill-rule="evenodd"/><path fill="#000000" fill-opacity="0.0" d="m269.42258 237.72441l-52.37796 25.196854" fill-rule="evenodd"/><path stroke="#000000" stroke-width="1.0" stroke-linejoin="round" stroke-linecap="butt" stroke-dasharray="1.0,3.0" d="m269.42258 237.72441l-52.37796 25.196854" fill-rule="evenodd"/><path fill="#fce5cd" d="m547.24384 276.97815l30.801758 -21.610703l-3.0371704 19.840866l34.964355 -3.2341614l-13.886414 10.648865l36.371216 3.0627747l-28.881775 8.711334l33.044434 10.488647l-39.416687 -1.2966309l10.824463 19.200012l-34.13678 -13.555145l-6.3970337 19.673187l-22.4682 -17.892181l-16.940186 24.83371l-6.3721924 -22.25531l-24.437805 7.4147034l7.4894104 -13.711609l-45.78058 2.421875l29.68454 -10.477478l-30.801727 -11.774109l38.291138 -3.7185059l-35.229187 -19.829712l57.44919 14.997101l8.606567 -14.997101z" fill-rule="evenodd"/><path stroke="#cccccc" stroke-width="1.0" stroke-linejoin="round" stroke-linecap="butt" d="m547.24384 276.97815l30.801758 -21.610703l-3.0371704 19.840866l34.964355 -3.2341614l-13.886414 10.648865l36.371216 3.0627747l-28.881775 8.711334l33.044434 10.488647l-39.416687 -1.2966309l10.824463 19.200012l-34.13678 -13.555145l-6.3970337 19.673187l-22.4682 -17.892181l-16.940186 24.83371l-6.3721924 -22.25531l-24.437805 7.4147034l7.4894104 -13.711609l-45.78058 2.421875l29.68454 -10.477478l-30.801727 -11.774109l38.291138 -3.7185059l-35.229187 -19.829712l57.44919 14.997101l8.606567 -14.997101z" fill-rule="evenodd"/><path fill="#000000" d="m516.1274 295.3386l1.765625 0.453125q-0.5625 2.171875 -2.0 3.328125q-1.4375 1.140625 -3.53125 1.140625q-2.1562805 0 -3.5156555 -0.875q-1.34375 -0.890625 -2.0625 -2.546875q-0.703125 -1.671875 -0.703125 -3.59375q0 -2.078125 0.796875 -3.625q0.796875 -1.5625 2.265625 -2.359375q1.484375 -0.8125 3.2500305 -0.8125q2.0 0 3.359375 1.015625q1.375 1.015625 1.90625 2.875l-1.734375 0.40625q-0.46875 -1.453125 -1.359375 -2.109375q-0.875 -0.671875 -2.203125 -0.671875q-1.5469055 0 -2.5781555 0.734375q-1.03125 0.734375 -1.453125 1.984375q-0.421875 1.234375 -0.421875 2.5625q0 1.703125 0.5 2.96875q0.5 1.265625 1.546875 1.90625q1.046875 0.625 2.2656555 0.625q1.484375 0 2.515625 -0.859375q1.03125 -0.859375 1.390625 -2.546875zm3.1291504 -0.15625q0 -2.6875 1.484375 -3.96875q1.25 -1.078125 3.046875 -1.078125q2.0 0 3.265625 1.3125q1.265625 1.296875 1.265625 3.609375q0 1.859375 -0.5625 2.9375q-0.5625 1.0625 -1.640625 1.65625q-1.0625 0.59375 -2.328125 0.59375q-2.03125 0 -3.28125 -1.296875q-1.25 -1.3125 -1.25 -3.765625zm1.6875 0q0 1.859375 0.796875 2.796875q0.8125 0.921875 2.046875 0.921875q1.21875 0 2.03125 -0.921875q0.8125 -0.9375 0.8125 -2.84375q0 -1.796875 -0.8125 -2.71875q-0.8125 -0.921875 -2.03125 -0.921875q-1.234375 0 -2.046875 0.921875q-0.796875 0.90625 -0.796875 2.765625zm9.297607 4.84375l0 -9.671875l1.46875 0l0 1.359375q0.453125 -0.71875 1.203125 -1.140625q0.765625 -0.4375 1.71875 -0.4375q1.078125 0 1.765625 0.453125q0.6875 0.4375 0.96875 1.234375q1.15625 -1.6875 2.984375 -1.6875q1.453125 0 2.21875 0.796875q0.78125 0.796875 0.78125 2.453125l0 6.640625l-1.640625 0l0 -6.09375q0 -0.984375 -0.15625 -1.40625q-0.15625 -0.4375 -0.578125 -0.703125q-0.421875 -0.265625 -0.984375 -0.265625q-1.015625 0 -1.6875 0.6875q-0.671875 0.671875 -0.671875 2.15625l0 5.625l-1.640625 0l0 -6.28125q0 -1.09375 -0.40625 -1.640625q-0.40625 -0.546875 -1.3125 -0.546875q-0.6875 0 -1.28125 0.359375q-0.59375 0.359375 -0.859375 1.0625q-0.25 0.703125 -0.25 2.03125l0 5.015625l-1.640625 0zm17.040833 0l-1.515625 0l0 -13.359375l1.640625 0l0 4.765625q1.046875 -1.296875 2.65625 -1.296875q0.890625 0 1.6875 0.359375q0.796875 0.359375 1.3125 1.015625q0.515625 0.640625 0.796875 1.5625q0.296875 0.921875 0.296875 1.96875q0 2.484375 -1.234375 3.84375q-1.21875 1.359375 -2.953125 1.359375q-1.703125 0 -2.6875 -1.4375l0 1.21875zm-0.015625 -4.90625q0 1.734375 0.484375 2.515625q0.765625 1.265625 2.09375 1.265625q1.078125 0 1.859375 -0.9375q0.78125 -0.9375 0.78125 -2.78125q0 -1.890625 -0.75 -2.796875q-0.75 -0.90625 -1.828125 -0.90625q-1.0625 0 -1.859375 0.9375q-0.78125 0.9375 -0.78125 2.703125zm8.891296 -6.5625l0 -1.890625l1.640625 0l0 1.890625l-1.640625 0zm0 11.46875l0 -9.671875l1.640625 0l0 9.671875l-1.640625 0zm4.1448364 0l0 -9.671875l1.46875 0l0 1.375q1.0625 -1.59375 3.078125 -1.59375q0.875 0 1.609375 0.3125q0.734375 0.3125 1.09375 0.828125q0.375 0.5 0.515625 1.203125q0.09375 0.453125 0.09375 1.59375l0 5.953125l-1.640625 0l0 -5.890625q0 -1.0 -0.203125 -1.484375q-0.1875 -0.5 -0.671875 -0.796875q-0.484375 -0.296875 -1.140625 -0.296875q-1.046875 0 -1.8125 0.671875q-0.75 0.65625 -0.75 2.515625l0 5.28125l-1.640625 0zm17.000732 -3.109375l1.6875 0.203125q-0.40625 1.484375 -1.484375 2.3125q-1.078125 0.8125 -2.765625 0.8125q-2.125 0 -3.375 -1.296875q-1.234375 -1.3125 -1.234375 -3.671875q0 -2.453125 1.25 -3.796875q1.265625 -1.34375 3.265625 -1.34375q1.9375 0 3.15625 1.328125q1.234375 1.3125 1.234375 3.703125q0 0.15625 0 0.4375l-7.21875 0q0.09375 1.59375 0.90625 2.453125q0.8125 0.84375 2.015625 0.84375q0.90625 0 1.546875 -0.46875q0.640625 -0.484375 1.015625 -1.515625zm-5.390625 -2.65625l5.40625 0q-0.109375 -1.21875 -0.625 -1.828125q-0.78125 -0.953125 -2.03125 -0.953125q-1.125 0 -1.90625 0.765625q-0.765625 0.75 -0.84375 2.015625zm10.016357 2.453125l-0.5 -7.078125l0 -2.96875l2.03125 0l0 2.96875l-0.484375 7.078125l-1.046875 0zm-0.4375 3.3125l0 -1.875l1.890625 0l0 1.875l-1.890625 0z" fill-rule="nonzero"/><path fill="#000000" fill-opacity="0.0" d="m426.61417 236.87927l54.015747 20.15747" fill-rule="evenodd"/><path stroke="#000000" stroke-width="1.0" stroke-linejoin="round" stroke-linecap="butt" stroke-dasharray="1.0,3.0" d="m426.61417 236.87927l54.015747 20.15747" fill-rule="evenodd"/><path fill="#000000" fill-opacity="0.0" d="m613.7638 131.11023l-7.2125854 131.84253" fill-rule="evenodd"/><path stroke="#000000" stroke-width="1.0" stroke-linejoin="round" stroke-linecap="butt" stroke-dasharray="1.0,3.0" d="m613.7638 131.11023l-7.2125854 131.84253" fill-rule="evenodd"/><path fill="#fce5cd" d="m223.38878 412.07135l26.170258 -21.610718l-2.5804749 19.84085l29.706955 -3.2341309l-11.798401 10.648865l30.902283 3.0627441l-24.539001 8.711365l28.075714 10.488647l-33.489777 -1.2966614l9.196869 19.200012l-29.003845 -13.555145l-5.43515 19.673187l-19.089798 -17.89215l-14.392944 24.83368l-5.4140472 -22.25531l-20.76323 7.4147034l6.363266 -13.711609l-38.89679 2.421875l25.221039 -10.4774475l-26.170242 -11.774109l32.53351 -3.7185364l-29.931961 -19.829712l48.81082 14.997101l7.3124847 -14.997101z" fill-rule="evenodd"/><path stroke="#cccccc" stroke-width="1.0" stroke-linejoin="round" stroke-linecap="butt" d="m223.38878 412.07135l26.170258 -21.610718l-2.5804749 19.84085l29.706955 -3.2341309l-11.798401 10.648865l30.902283 3.0627441l-24.539001 8.711365l28.075714 10.488647l-33.489777 -1.2966614l9.196869 19.200012l-29.003845 -13.555145l-5.43515 19.673187l-19.089798 -17.89215l-14.392944 24.83368l-5.4140472 -22.25531l-20.76323 7.4147034l6.363266 -13.711609l-38.89679 2.421875l25.221039 -10.4774475l-26.170242 -11.774109l32.53351 -3.7185364l-29.931961 -19.829712l48.81082 14.997101l7.3124847 -14.997101z" fill-rule="evenodd"/><path fill="#000000" d="m190.42247 435.11926l0 -13.359375l4.609375 0q1.546875 0 2.375 0.203125q1.140625 0.25 1.953125 0.953125q1.0625 0.890625 1.578125 2.28125q0.53125 1.390625 0.53125 3.171875q0 1.515625 -0.359375 2.703125q-0.359375 1.171875 -0.921875 1.9375q-0.546875 0.765625 -1.203125 1.21875q-0.65625 0.4375 -1.59375 0.671875q-0.9375 0.21875 -2.140625 0.21875l-4.828125 0zm1.765625 -1.578125l2.859375 0q1.3125 0 2.0625 -0.234375q0.75 -0.25 1.203125 -0.703125q0.625 -0.625 0.96875 -1.6875q0.359375 -1.0625 0.359375 -2.578125q0 -2.09375 -0.6875 -3.21875q-0.6875 -1.125 -1.671875 -1.5q-0.703125 -0.28125 -2.28125 -0.28125l-2.8125 0l0 10.203125zm18.129196 -1.53125l1.6875 0.203125q-0.40625 1.484375 -1.484375 2.3125q-1.078125 0.8125 -2.765625 0.8125q-2.125 0 -3.375 -1.296875q-1.234375 -1.3125 -1.234375 -3.671875q0 -2.453125 1.25 -3.796875q1.265625 -1.34375 3.265625 -1.34375q1.9375 0 3.15625 1.328125q1.234375 1.3125 1.234375 3.703125q0 0.15625 0 0.4375l-7.21875 0q0.09375 1.59375 0.90625 2.453125q0.8125 0.84375 2.015625 0.84375q0.90625 0 1.546875 -0.46875q0.640625 -0.484375 1.015625 -1.515625zm-5.390625 -2.65625l5.40625 0q-0.109375 -1.21875 -0.625 -1.828125q-0.78125 -0.953125 -2.03125 -0.953125q-1.125 0 -1.90625 0.765625q-0.765625 0.75 -0.84375 2.015625zm15.406967 5.765625l0 -1.21875q-0.90625 1.4375 -2.703125 1.4375q-1.15625 0 -2.125 -0.640625q-0.96875 -0.640625 -1.5 -1.78125q-0.53125 -1.140625 -0.53125 -2.625q0 -1.453125 0.484375 -2.625q0.484375 -1.1875 1.4375 -1.8125q0.96875 -0.625 2.171875 -0.625q0.875 0 1.546875 0.375q0.6875 0.359375 1.109375 0.953125l0 -4.796875l1.640625 0l0 13.359375l-1.53125 0zm-5.171875 -4.828125q0 1.859375 0.78125 2.78125q0.78125 0.921875 1.84375 0.921875q1.078125 0 1.828125 -0.875q0.75 -0.890625 0.75 -2.6875q0 -1.984375 -0.765625 -2.90625q-0.765625 -0.9375 -1.890625 -0.9375q-1.078125 0 -1.8125 0.890625q-0.734375 0.890625 -0.734375 2.8125zm15.610092 4.828125l0 -1.421875q-1.125 1.640625 -3.0625 1.640625q-0.859375 0 -1.609375 -0.328125q-0.734375 -0.328125 -1.09375 -0.828125q-0.359375 -0.5 -0.5 -1.21875q-0.109375 -0.46875 -0.109375 -1.53125l0 -5.984375l1.640625 0l0 5.359375q0 1.28125 0.109375 1.734375q0.15625 0.640625 0.65625 1.015625q0.5 0.375 1.234375 0.375q0.734375 0 1.375 -0.375q0.65625 -0.390625 0.921875 -1.03125q0.265625 -0.65625 0.265625 -1.890625l0 -5.1875l1.640625 0l0 9.671875l-1.46875 0zm10.360092 -3.546875l1.609375 0.21875q-0.265625 1.65625 -1.359375 2.609375q-1.078125 0.9375 -2.671875 0.9375q-1.984375 0 -3.1875 -1.296875q-1.203125 -1.296875 -1.203125 -3.71875q0 -1.578125 0.515625 -2.75q0.515625 -1.171875 1.578125 -1.75q1.0625 -0.59375 2.3125 -0.59375q1.578125 0 2.578125 0.796875q1.0 0.796875 1.28125 2.265625l-1.59375 0.234375q-0.234375 -0.96875 -0.8125 -1.453125q-0.578125 -0.5 -1.390625 -0.5q-1.234375 0 -2.015625 0.890625q-0.78125 0.890625 -0.78125 2.8125q0 1.953125 0.75 2.84375q0.75 0.875 1.953125 0.875q0.96875 0 1.609375 -0.59375q0.65625 -0.59375 0.828125 -1.828125zm6.59375 2.078125l0.234375 1.453125q-0.6875 0.140625 -1.234375 0.140625q-0.890625 0 -1.390625 -0.28125q-0.484375 -0.28125 -0.6875 -0.734375q-0.203125 -0.46875 -0.203125 -1.9375l0 -5.578125l-1.203125 0l0 -1.265625l1.203125 0l0 -2.390625l1.625 -0.984375l0 3.375l1.65625 0l0 1.265625l-1.65625 0l0 5.671875q0 0.6875 0.078125 0.890625q0.09375 0.203125 0.28125 0.328125q0.203125 0.109375 0.578125 0.109375q0.265625 0 0.71875 -0.0625zm2.4801788 -1.84375l-0.5 -7.078125l0 -2.96875l2.03125 0l0 2.96875l-0.484375 7.078125l-1.046875 0zm-0.4375 3.3125l0 -1.875l1.890625 0l0 1.875l-1.890625 0z" fill-rule="nonzero"/><path fill="#fce5cd" d="m569.37506 412.07266l30.801758 -21.610718l-3.0371704 19.84085l34.964417 -3.2341309l-13.886475 10.648865l36.371216 3.0627441l-28.881775 8.711365l33.044434 10.488647l-39.416687 -1.2966614l10.824524 19.200012l-34.13684 -13.555145l-6.3970337 19.673187l-22.4682 -17.89215l-16.940125 24.83368l-6.3722534 -22.25531l-24.437805 7.4147034l7.489441 -13.711609l-45.78058 2.421875l29.68454 -10.4774475l-30.801758 -11.774109l38.29117 -3.7185364l-35.229187 -19.829712l57.449158 14.997101l8.606567 -14.997101z" fill-rule="evenodd"/><path stroke="#cccccc" stroke-width="1.0" stroke-linejoin="round" stroke-linecap="butt" d="m569.37506 412.07266l30.801758 -21.610718l-3.0371704 19.84085l34.964417 -3.2341309l-13.886475 10.648865l36.371216 3.0627441l-28.881775 8.711365l33.044434 10.488647l-39.416687 -1.2966614l10.824524 19.200012l-34.13684 -13.555145l-6.3970337 19.673187l-22.4682 -17.89215l-16.940125 24.83368l-6.3722534 -22.25531l-24.437805 7.4147034l7.489441 -13.711609l-45.78058 2.421875l29.68454 -10.4774475l-30.801758 -11.774109l38.29117 -3.7185364l-35.229187 -19.829712l57.449158 14.997101l8.606567 -14.997101z" fill-rule="evenodd"/><path fill="#000000" d="m538.2586 430.43307l1.765625 0.453125q-0.5625 2.171875 -2.0 3.328125q-1.4375 1.140625 -3.53125 1.140625q-2.15625 0 -3.515625 -0.875q-1.34375 -0.890625 -2.0625 -2.546875q-0.703125 -1.671875 -0.703125 -3.59375q0 -2.078125 0.796875 -3.625q0.796875 -1.5625 2.265625 -2.359375q1.484375 -0.8125 3.25 -0.8125q2.0 0 3.359375 1.015625q1.375 1.015625 1.90625 2.875l-1.734375 0.40625q-0.46875 -1.453125 -1.359375 -2.109375q-0.875 -0.671875 -2.203125 -0.671875q-1.546875 0 -2.578125 0.734375q-1.03125 0.734375 -1.453125 1.984375q-0.421875 1.234375 -0.421875 2.5625q0 1.703125 0.5 2.96875q0.5 1.265625 1.546875 1.90625q1.046875 0.625 2.265625 0.625q1.484375 0 2.515625 -0.859375q1.03125 -0.859375 1.390625 -2.546875zm3.1292114 -0.15625q0 -2.6875 1.484375 -3.96875q1.25 -1.078125 3.046875 -1.078125q2.0 0 3.265625 1.3125q1.265625 1.296875 1.265625 3.609375q0 1.859375 -0.5625 2.9375q-0.5625 1.0625 -1.640625 1.65625q-1.0625 0.59375 -2.328125 0.59375q-2.03125 0 -3.28125 -1.296875q-1.25 -1.3125 -1.25 -3.765625zm1.6875 0q0 1.859375 0.796875 2.796875q0.8125 0.921875 2.046875 0.921875q1.21875 0 2.03125 -0.921875q0.8125 -0.9375 0.8125 -2.84375q0 -1.796875 -0.8125 -2.71875q-0.8125 -0.921875 -2.03125 -0.921875q-1.234375 0 -2.046875 0.921875q-0.796875 0.90625 -0.796875 2.765625zm9.297546 4.84375l0 -9.671875l1.46875 0l0 1.359375q0.453125 -0.71875 1.203125 -1.140625q0.765625 -0.4375 1.71875 -0.4375q1.078125 0 1.765625 0.453125q0.6875 0.4375 0.96875 1.234375q1.15625 -1.6875 2.984375 -1.6875q1.453125 0 2.21875 0.796875q0.78125 0.796875 0.78125 2.453125l0 6.640625l-1.640625 0l0 -6.09375q0 -0.984375 -0.15625 -1.40625q-0.15625 -0.4375 -0.578125 -0.703125q-0.421875 -0.265625 -0.984375 -0.265625q-1.015625 0 -1.6875 0.6875q-0.671875 0.671875 -0.671875 2.15625l0 5.625l-1.640625 0l0 -6.28125q0 -1.09375 -0.40625 -1.640625q-0.40625 -0.546875 -1.3125 -0.546875q-0.6875 0 -1.28125 0.359375q-0.59375 0.359375 -0.859375 1.0625q-0.25 0.703125 -0.25 2.03125l0 5.015625l-1.640625 0zm17.040833 0l-1.515625 0l0 -13.359375l1.640625 0l0 4.765625q1.046875 -1.296875 2.65625 -1.296875q0.890625 0 1.6875 0.359375q0.796875 0.359375 1.3125 1.015625q0.515625 0.640625 0.796875 1.5625q0.296875 0.921875 0.296875 1.96875q0 2.484375 -1.234375 3.84375q-1.21875 1.359375 -2.953125 1.359375q-1.703125 0 -2.6875 -1.4375l0 1.21875zm-0.015625 -4.90625q0 1.734375 0.484375 2.515625q0.765625 1.265625 2.09375 1.265625q1.078125 0 1.859375 -0.9375q0.78125 -0.9375 0.78125 -2.78125q0 -1.890625 -0.75 -2.796875q-0.75 -0.90625 -1.828125 -0.90625q-1.0625 0 -1.859375 0.9375q-0.78125 0.9375 -0.78125 2.703125zm8.891357 -6.5625l0 -1.890625l1.640625 0l0 1.890625l-1.640625 0zm0 11.46875l0 -9.671875l1.640625 0l0 9.671875l-1.640625 0zm4.1447754 0l0 -9.671875l1.46875 0l0 1.375q1.0625 -1.59375 3.078125 -1.59375q0.875 0 1.609375 0.3125q0.734375 0.3125 1.09375 0.828125q0.375 0.5 0.515625 1.203125q0.09375 0.453125 0.09375 1.59375l0 5.953125l-1.640625 0l0 -5.890625q0 -1.0 -0.203125 -1.484375q-0.1875 -0.5 -0.671875 -0.796875q-0.484375 -0.296875 -1.140625 -0.296875q-1.046875 0 -1.8125 0.671875q-0.75 0.65625 -0.75 2.515625l0 5.28125l-1.640625 0zm17.000732 -3.109375l1.6875 0.203125q-0.40625 1.484375 -1.484375 2.3125q-1.078125 0.8125 -2.765625 0.8125q-2.125 0 -3.375 -1.296875q-1.234375 -1.3125 -1.234375 -3.671875q0 -2.453125 1.25 -3.796875q1.265625 -1.34375 3.265625 -1.34375q1.9375 0 3.15625 1.328125q1.234375 1.3125 1.234375 3.703125q0 0.15625 0 0.4375l-7.21875 0q0.09375 1.59375 0.90625 2.453125q0.8125 0.84375 2.015625 0.84375q0.90625 0 1.546875 -0.46875q0.640625 -0.484375 1.015625 -1.515625zm-5.390625 -2.65625l5.40625 0q-0.109375 -1.21875 -0.625 -1.828125q-0.78125 -0.953125 -2.03125 -0.953125q-1.125 0 -1.90625 0.765625q-0.765625 0.75 -0.84375 2.015625zm10.016357 2.453125l-0.5 -7.078125l0 -2.96875l2.03125 0l0 2.96875l-0.484375 7.078125l-1.046875 0zm-0.4375 3.3125l0 -1.875l1.890625 0l0 1.875l-1.890625 0z" fill-rule="nonzero"/><path fill="#000000" fill-opacity="0.0" d="m136.00525 129.24672l20.251968 267.74805" fill-rule="evenodd"/><path stroke="#000000" stroke-width="1.0" stroke-linejoin="round" stroke-linecap="butt" stroke-dasharray="1.0,3.0" d="m136.00525 129.24672l20.251968 267.74805" fill-rule="evenodd"/><path fill="#000000" fill-opacity="0.0" d="m274.90814 368.0525l-12.535431 32.787415" fill-rule="evenodd"/><path stroke="#000000" stroke-width="1.0" stroke-linejoin="round" stroke-linecap="butt" stroke-dasharray="1.0,3.0" d="m274.90814 368.0525l-12.535431 32.787415" fill-rule="evenodd"/><path fill="#000000" fill-opacity="0.0" d="m495.80054 369.01575l18.330688 27.968506" fill-rule="evenodd"/><path stroke="#000000" stroke-width="1.0" stroke-linejoin="round" stroke-linecap="butt" stroke-dasharray="1.0,3.0" d="m495.80054 369.01575l18.330688 27.968506" fill-rule="evenodd"/><path fill="#000000" fill-opacity="0.0" d="m645.3123 129.7979l-8.692871 276.8504" fill-rule="evenodd"/><path stroke="#000000" stroke-width="1.0" stroke-linejoin="round" stroke-linecap="butt" stroke-dasharray="1.0,3.0" d="m645.3123 129.7979l-8.692871 276.8504" fill-rule="evenodd"/><path fill="#fce5cd" d="m175.34941 276.97815l26.170242 -21.610703l-2.5804596 19.840866l29.70697 -3.2341614l-11.798416 10.648865l30.902267 3.0627747l-24.539001 8.711334l28.075714 10.488647l-33.48976 -1.2966309l9.196854 19.200012l-29.003845 -13.555145l-5.435135 19.673187l-19.089798 -17.892181l-14.392944 24.83371l-5.4140472 -22.25531l-20.76323 7.4147034l6.363266 -13.711609l-38.896782 2.421875l25.221031 -10.477478l-26.17025 -11.774109l32.533516 -3.7185059l-29.931961 -19.829712l48.81082 14.997101l7.3124847 -14.997101z" fill-rule="evenodd"/><path stroke="#cccccc" stroke-width="1.0" stroke-linejoin="round" stroke-linecap="butt" d="m175.34941 276.97815l26.170242 -21.610703l-2.5804596 19.840866l29.70697 -3.2341614l-11.798416 10.648865l30.902267 3.0627747l-24.539001 8.711334l28.075714 10.488647l-33.48976 -1.2966309l9.196854 19.200012l-29.003845 -13.555145l-5.435135 19.673187l-19.089798 -17.892181l-14.392944 24.83371l-5.4140472 -22.25531l-20.76323 7.4147034l6.363266 -13.711609l-38.896782 2.421875l25.221031 -10.477478l-26.17025 -11.774109l32.533516 -3.7185059l-29.931961 -19.829712l48.81082 14.997101l7.3124847 -14.997101z" fill-rule="evenodd"/><path fill="#000000" d="m142.3831 300.0261l0 -13.359375l4.609375 0q1.546875 0 2.375 0.203125q1.140625 0.25 1.953125 0.953125q1.0625 0.890625 1.578125 2.28125q0.53125 1.390625 0.53125 3.171875q0 1.515625 -0.359375 2.703125q-0.359375 1.171875 -0.921875 1.9375q-0.546875 0.765625 -1.203125 1.21875q-0.65625 0.4375 -1.59375 0.671875q-0.9375 0.21875 -2.140625 0.21875l-4.828125 0zm1.765625 -1.578125l2.859375 0q1.3125 0 2.0625 -0.234375q0.75 -0.25 1.203125 -0.703125q0.625 -0.625 0.96875 -1.6875q0.359375 -1.0625 0.359375 -2.578125q0 -2.09375 -0.6875 -3.21875q-0.6875 -1.125 -1.671875 -1.5q-0.703125 -0.28125 -2.28125 -0.28125l-2.8125 0l0 10.203125zm18.129196 -1.53125l1.6875 0.203125q-0.40625 1.484375 -1.484375 2.3125q-1.078125 0.8125 -2.765625 0.8125q-2.125 0 -3.375 -1.296875q-1.234375 -1.3125 -1.234375 -3.671875q0 -2.453125 1.25 -3.796875q1.265625 -1.34375 3.265625 -1.34375q1.9375 0 3.15625 1.328125q1.234375 1.3125 1.234375 3.703125q0 0.15625 0 0.4375l-7.21875 0q0.09375 1.59375 0.90625 2.453125q0.8125 0.84375 2.015625 0.84375q0.90625 0 1.546875 -0.46875q0.640625 -0.484375 1.015625 -1.515625zm-5.390625 -2.65625l5.40625 0q-0.109375 -1.21875 -0.625 -1.828125q-0.78125 -0.953125 -2.03125 -0.953125q-1.125 0 -1.90625 0.765625q-0.765625 0.75 -0.84375 2.015625zm15.406967 5.765625l0 -1.21875q-0.90625 1.4375 -2.703125 1.4375q-1.15625 0 -2.125 -0.640625q-0.96875 -0.640625 -1.5 -1.78125q-0.53125 -1.140625 -0.53125 -2.625q0 -1.453125 0.484375 -2.625q0.484375 -1.1875 1.4375 -1.8125q0.96875 -0.625 2.171875 -0.625q0.875 0 1.546875 0.375q0.6875 0.359375 1.109375 0.953125l0 -4.796875l1.640625 0l0 13.359375l-1.53125 0zm-5.171875 -4.828125q0 1.859375 0.78125 2.78125q0.78125 0.921875 1.84375 0.921875q1.078125 0 1.828125 -0.875q0.75 -0.890625 0.75 -2.6875q0 -1.984375 -0.765625 -2.90625q-0.765625 -0.9375 -1.890625 -0.9375q-1.078125 0 -1.8125 0.890625q-0.734375 0.890625 -0.734375 2.8125zm15.610092 4.828125l0 -1.421875q-1.125 1.640625 -3.0625 1.640625q-0.859375 0 -1.609375 -0.328125q-0.734375 -0.328125 -1.09375 -0.828125q-0.359375 -0.5 -0.5 -1.21875q-0.109375 -0.46875 -0.109375 -1.53125l0 -5.984375l1.640625 0l0 5.359375q0 1.28125 0.109375 1.734375q0.15625 0.640625 0.65625 1.015625q0.5 0.375 1.234375 0.375q0.734375 0 1.375 -0.375q0.65625 -0.390625 0.921875 -1.03125q0.265625 -0.65625 0.265625 -1.890625l0 -5.1875l1.640625 0l0 9.671875l-1.46875 0zm10.360092 -3.546875l1.609375 0.21875q-0.265625 1.65625 -1.359375 2.609375q-1.078125 0.9375 -2.671875 0.9375q-1.984375 0 -3.1875 -1.296875q-1.203125 -1.296875 -1.203125 -3.71875q0 -1.578125 0.515625 -2.75q0.515625 -1.171875 1.578125 -1.75q1.0625 -0.59375 2.3125 -0.59375q1.578125 0 2.578125 0.796875q1.0 0.796875 1.28125 2.265625l-1.59375 0.234375q-0.234375 -0.96875 -0.8125 -1.453125q-0.578125 -0.5 -1.390625 -0.5q-1.234375 0 -2.015625 0.890625q-0.78125 0.890625 -0.78125 2.8125q0 1.953125 0.75 2.84375q0.75 0.875 1.953125 0.875q0.96875 0 1.609375 -0.59375q0.65625 -0.59375 0.828125 -1.828125zm6.59375 2.078125l0.234375 1.453125q-0.6875 0.140625 -1.234375 0.140625q-0.890625 0 -1.390625 -0.28125q-0.484375 -0.28125 -0.6875 -0.734375q-0.203125 -0.46875 -0.203125 -1.9375l0 -5.578125l-1.203125 0l0 -1.265625l1.203125 0l0 -2.390625l1.625 -0.984375l0 3.375l1.65625 0l0 1.265625l-1.65625 0l0 5.671875q0 0.6875 0.078125 0.890625q0.09375 0.203125 0.28125 0.328125q0.203125 0.109375 0.578125 0.109375q0.265625 0 0.71875 -0.0625zm2.4801788 -1.84375l-0.5 -7.078125l0 -2.96875l2.03125 0l0 2.96875l-0.484375 7.078125l-1.046875 0zm-0.4375 3.3125l0 -1.875l1.890625 0l0 1.875l-1.890625 0z" fill-rule="nonzero"/><path fill="#000000" fill-opacity="0.0" d="m624.72705 336.021l0 0c0 13.933228 -0.94122314 25.228333 -2.102295 25.228333l-496.6458 0c-1.1610565 0 -2.1022797 -11.295105 -2.1022797 -25.228333z" fill-rule="evenodd"/><path fill="#000000" fill-opacity="0.0" d="m624.72705 336.021l0 0c0 13.933228 -0.94122314 25.228333 -2.102295 25.228333l-496.6458 0c-1.1610565 0 -2.1022797 -11.295105 -2.1022797 -25.228333" fill-rule="evenodd"/><path stroke="#b7b7b7" stroke-width="4.0" stroke-linejoin="round" stroke-linecap="butt" d="m624.72705 336.021l0 0c0 13.933228 -0.94122314 25.228333 -2.102295 25.228333l-496.6458 0c-1.1610565 0 -2.1022797 -11.295105 -2.1022797 -25.228333" fill-rule="evenodd"/><path fill="#000000" fill-opacity="0.0" d="m592.7113 205.56299l0 0c0 13.933228 -0.94122314 25.228348 -2.102295 25.228348l-496.8348 0c-1.1610565 0 -2.1022797 -11.29512 -2.1022797 -25.228348z" fill-rule="evenodd"/><path fill="#000000" fill-opacity="0.0" d="m592.7113 205.56299l0 0c0 13.933228 -0.94122314 25.228348 -2.102295 25.228348l-496.8348 0c-1.1610565 0 -2.1022797 -11.29512 -2.1022797 -25.228348" fill-rule="evenodd"/><path stroke="#b7b7b7" stroke-width="4.0" stroke-linejoin="round" stroke-linecap="butt" d="m592.7113 205.56299l0 0c0 13.933228 -0.94122314 25.228348 -2.102295 25.228348l-496.8348 0c-1.1610565 0 -2.1022797 -11.29512 -2.1022797 -25.228348" fill-rule="evenodd"/></g></svg>