<svg version="1.1" viewBox="0.0 0.0 793.7952755905512 291.79002624671915" fill="none" stroke="none" stroke-linecap="square" stroke-miterlimit="10" xmlns:xlink="http://www.w3.org/1999/xlink" xmlns="http://www.w3.org/2000/svg"><clipPath id="p.0"><path d="m0 0l793.7953 0l0 291.79004l-793.7953 0l0 -291.79004z" clip-rule="nonzero"/></clipPath><g clip-path="url(#p.0)"><path fill="#000000" fill-opacity="0.0" d="m0 0l793.7953 0l0 291.79004l-793.7953 0z" fill-rule="evenodd"/><path fill="#fff6f6" d="m383.5958 146.60324l0 45.417755c0 -5.0167084 -7.819153 -9.083557 -17.46457 -9.083557c-9.645416 0 -17.46457 4.0668488 -17.46457 9.083557l0 -45.417755l0 0c0 -5.0167084 7.819153 -9.083557 17.46457 -9.083557c9.645416 0 17.46457 4.0668488 17.46457 9.083557z" fill-rule="evenodd"/><path stroke="#000000" stroke-width="1.0" stroke-linejoin="round" stroke-linecap="butt" stroke-dasharray="1.0,3.0" d="m383.5958 146.60324l0 45.417755c0 -5.0167084 -7.819153 -9.083557 -17.46457 -9.083557c-9.645416 0 -17.46457 4.0668488 -17.46457 9.083557l0 -45.417755l0 0c0 -5.0167084 7.819153 -9.083557 17.46457 -9.083557c9.645416 0 17.46457 4.0668488 17.46457 9.083557z" fill-rule="evenodd"/><path fill="#fff6f6" d="m109.45145 146.60324l0 45.417755c0 -5.0167084 -7.819153 -9.083557 -17.46457 -9.083557c-9.645416 0 -17.46457 4.0668488 -17.46457 9.083557l0 -45.417755l0 0c0 -5.0167084 7.819153 -9.083557 17.46457 -9.083557c9.645416 0 17.46457 4.0668488 17.46457 9.083557z" fill-rule="evenodd"/><path stroke="#000000" stroke-width="1.0" stroke-linejoin="round" stroke-linecap="butt" stroke-dasharray="1.0,3.0" d="m109.45145 146.60324l0 45.417755c0 -5.0167084 -7.819153 -9.083557 -17.46457 -9.083557c-9.645416 0 -17.46457 4.0668488 -17.46457 9.083557l0 -45.417755l0 0c0 -5.0167084 7.819153 -9.083557 17.46457 -9.083557c9.645416 0 17.46457 4.0668488 17.46457 9.083557z" fill-rule="evenodd"/><path fill="#ffe9e9" d="m144.00394 146.60324l0 45.417755c0 -5.0167084 -7.819153 -9.083557 -17.46457 -9.083557c-9.645409 0 -17.464561 4.0668488 -17.464561 9.083557l0 -45.417755l0 0c0 -5.0167084 7.819153 -9.083557 17.464561 -9.083557c9.645416 0 17.46457 4.0668488 17.46457 9.083557z" fill-rule="evenodd"/><path stroke="#000000" stroke-width="1.0" stroke-linejoin="round" stroke-linecap="butt" stroke-dasharray="1.0,3.0" d="m144.00394 146.60324l0 45.417755c0 -5.0167084 -7.819153 -9.083557 -17.46457 -9.083557c-9.645409 0 -17.464561 4.0668488 -17.464561 9.083557l0 -45.417755l0 0c0 -5.0167084 7.819153 -9.083557 17.464561 -9.083557c9.645416 0 17.46457 4.0668488 17.46457 9.083557z" fill-rule="evenodd"/><path fill="#000000" fill-opacity="0.0" d="m143.63518 243.86351l242.14174 0l0 26.362198l-242.14174 0z" fill-rule="evenodd"/><path fill="#434343" d="m246.12807 262.12463l-1.28125 0l0 -8.20314q-0.46875 0.4375 -1.21875 0.890625q-0.75 0.4375 -1.359375 0.65625l0 -1.25q1.078125 -0.5 1.890625 -1.21875q0.8125 -0.734375 1.140625 -1.40625l0.828125 0l0 10.531265zm3.3073578 -5.171875q0 -1.8593903 0.375 -2.9843903q0.390625 -1.140625 1.140625 -1.75q0.765625 -0.625 1.90625 -0.625q0.84375 0 1.46875 0.34375q0.640625 0.328125 1.0625 0.96875q0.421875 0.640625 0.65625 1.5625q0.234375 0.921875 0.234375 2.4843903q0 1.84375 -0.390625 2.984375q-0.375 1.125 -1.125 1.75q-0.75 0.609375 -1.90625 0.609375q-1.515625 0 -2.390625 -1.078125q-1.03125 -1.3125 -1.03125 -4.265625zm1.328125 0q0 2.578125 0.59375 3.4375q0.609375 0.859375 1.5 0.859375q0.890625 0 1.484375 -0.859375q0.609375 -0.859375 0.609375 -3.4375q0 -2.5937653 -0.609375 -3.4375153q-0.59375 -0.859375 -1.5 -0.859375q-0.890625 0 -1.421875 0.75q-0.65625 0.96875 -0.65625 3.5468903zm6.822998 0q0 -1.8593903 0.375 -2.9843903q0.390625 -1.140625 1.140625 -1.75q0.765625 -0.625 1.90625 -0.625q0.84375 0 1.46875 0.34375q0.640625 0.328125 1.0625 0.96875q0.421875 0.640625 0.65625 1.5625q0.234375 0.921875 0.234375 2.4843903q0 1.84375 -0.390625 2.984375q-0.375 1.125 -1.125 1.75q-0.75 0.609375 -1.90625 0.609375q-1.515625 0 -2.390625 -1.078125q-1.03125 -1.3125 -1.03125 -4.265625zm1.328125 0q0 2.578125 0.59375 3.4375q0.609375 0.859375 1.5 0.859375q0.890625 0 1.484375 -0.859375q0.609375 -0.859375 0.609375 -3.4375q0 -2.5937653 -0.609375 -3.4375153q-0.59375 -0.859375 -1.5 -0.859375q-0.890625 0 -1.421875 0.75q-0.65625 0.96875 -0.65625 3.5468903zm11.2543335 5.171875l0 -7.5937653l1.15625 0l0 1.0625q0.34371948 -0.5625 0.9374695 -0.890625q0.609375 -0.34375 1.359375 -0.34375q0.84375 0 1.375 0.34375q0.546875 0.34375 0.765625 0.984375q0.90625 -1.328125 2.359375 -1.328125q1.125 0 1.734375 0.625q0.609375 0.625 0.609375 1.9218903l0 5.21875l-1.28125 0l0 -4.78125q0 -0.78125 -0.125 -1.109375q-0.125 -0.34376526 -0.453125 -0.54689026q-0.328125 -0.21875 -0.78125 -0.21875q-0.796875 0 -1.328125 0.53125q-0.53125 0.53126526 -0.53125 1.7031403l0 4.421875l-1.28125 0l0 -4.9375q0 -0.859375 -0.3125 -1.2812653q-0.3125 -0.4375 -1.03125 -0.4375q-0.546875 0 -1.015625 0.296875q-0.453125 0.28126526 -0.671875 0.82814026q-0.20309448 0.546875 -0.20309448 1.59375l0 3.9375l-1.28125 0zm11.693115 -2.265625l1.265625 -0.203125q0.109375 0.765625 0.59375 1.171875q0.5 0.40625 1.375 0.40625q0.890625 0 1.3125 -0.359375q0.4375 -0.359375 0.4375 -0.84375q0 -0.4375 -0.375 -0.6875q-0.265625 -0.171875 -1.3125 -0.4375q-1.421875 -0.359375 -1.96875 -0.609375q-0.546875 -0.265625 -0.828125 -0.734375q-0.28125 -0.46875 -0.28125 -1.015625q0 -0.515625 0.21875 -0.93751526q0.234375 -0.4375 0.640625 -0.734375q0.296875 -0.21875 0.8125 -0.359375q0.53125 -0.15625 1.125 -0.15625q0.890625 0 1.5625 0.265625q0.671875 0.25 1.0 0.6875q0.328125 0.4375 0.4375 1.1718903l-1.25 0.171875q-0.09375 -0.578125 -0.5 -0.90626526q-0.40625 -0.34375 -1.15625 -0.34375q-0.890625 0 -1.28125 0.296875q-0.375 0.296875 -0.375 0.68751526q0 0.25 0.15625 0.453125q0.15625 0.203125 0.5 0.34375q0.1875 0.078125 1.140625 0.328125q1.359375 0.359375 1.890625 0.59375q0.546875 0.234375 0.859375 0.6875q0.3125 0.4375 0.3125 1.09375q0 0.640625 -0.375 1.21875q-0.375 0.5625 -1.09375 0.875q-0.703125 0.3125 -1.59375 0.3125q-1.484375 0 -2.265625 -0.609375q-0.765625 -0.625 -0.984375 -1.828125z" fill-rule="nonzero"/><path fill="#fff6f6" d="m308.43045 130.99173l57.700775 -32.961548l57.700806 32.961548l-40.10031 0l0 21.526642l-35.20096 0l0 -21.526642z" fill-rule="evenodd"/><path stroke="#000000" stroke-width="1.0" stroke-linejoin="round" stroke-linecap="butt" stroke-dasharray="1.0,3.0" d="m308.43045 130.99173l57.700775 -32.961548l57.700806 32.961548l-40.10031 0l0 21.526642l-35.20096 0l0 -21.526642z" fill-rule="evenodd"/><path fill="#ffe9e9" d="m420.37534 146.60324l0 45.417755c0 -5.0167084 -7.819153 -9.083557 -17.46457 -9.083557c-9.645416 0 -17.46457 4.0668488 -17.46457 9.083557l0 -45.417755l0 0c0 -5.0167084 7.819153 -9.083557 17.46457 -9.083557c9.645416 0 17.46457 4.0668488 17.46457 9.083557z" fill-rule="evenodd"/><path stroke="#000000" stroke-width="1.0" stroke-linejoin="round" stroke-linecap="butt" stroke-dasharray="1.0,3.0" d="m420.37534 146.60324l0 45.417755c0 -5.0167084 -7.819153 -9.083557 -17.46457 -9.083557c-9.645416 0 -17.46457 4.0668488 -17.46457 9.083557l0 -45.417755l0 0c0 -5.0167084 7.819153 -9.083557 17.46457 -9.083557c9.645416 0 17.46457 4.0668488 17.46457 9.083557z" fill-rule="evenodd"/><path fill="#ffe9e9" d="m345.20996 130.99173l57.700806 -32.961548l57.700775 32.961548l-40.10031 0l0 21.526642l-35.200928 0l0 -21.526642z" fill-rule="evenodd"/><path stroke="#000000" stroke-width="1.0" stroke-linejoin="round" stroke-linecap="butt" stroke-dasharray="1.0,3.0" d="m345.20996 130.99173l57.700806 -32.961548l57.700775 32.961548l-40.10031 0l0 21.526642l-35.200928 0l0 -21.526642z" fill-rule="evenodd"/><path fill="#fff6f6" d="m91.94945 109.76604l21.085472 -17.989136l-2.0790863 16.515884l23.935005 -2.6921616l-9.50602 8.864296l24.898079 2.5494995l-19.771164 7.25148l22.620712 8.7309265l-26.982841 -1.0793457l7.409935 15.982422l-23.3685 -11.283539l-4.3791122 16.376328l-15.380722 -14.893768l-11.596443 20.671997l-4.3621216 -18.525711l-16.72902 6.1721344l5.1269073 -11.413788l-31.339287 2.0160217l20.320683 -8.721634l-21.08547 -9.800972l26.212381 -3.095375l-24.116299 -16.506577l39.32707 12.483833l5.891693 -12.483833z" fill-rule="evenodd"/><path stroke="#000000" stroke-width="1.0" stroke-linejoin="round" stroke-linecap="butt" stroke-dasharray="1.0,3.0" d="m91.94945 109.76604l21.085472 -17.989136l-2.0790863 16.515884l23.935005 -2.6921616l-9.50602 8.864296l24.898079 2.5494995l-19.771164 7.25148l22.620712 8.7309265l-26.982841 -1.0793457l7.409935 15.982422l-23.3685 -11.283539l-4.3791122 16.376328l-15.380722 -14.893768l-11.596443 20.671997l-4.3621216 -18.525711l-16.72902 6.1721344l5.1269073 -11.413788l-31.339287 2.0160217l20.320683 -8.721634l-21.08547 -9.800972l26.212381 -3.095375l-24.116299 -16.506577l39.32707 12.483833l5.891693 -12.483833z" fill-rule="evenodd"/><path fill="#ffe9e9" d="m126.50194 109.76604l21.08548 -17.989136l-2.0791016 16.515884l23.935028 -2.6921616l-9.506027 8.864296l24.898071 2.5494995l-19.771164 7.25148l22.620712 8.7309265l-26.982834 -1.0793457l7.4099426 15.982422l-23.368515 -11.283539l-4.3791046 16.376328l-15.38073 -14.893768l-11.596443 20.671997l-4.3621216 -18.525711l-16.72902 6.1721344l5.126915 -11.413788l-31.339294 2.0160217l20.320686 -8.721634l-21.085472 -9.800972l26.21238 -3.095375l-24.116295 -16.506577l39.327072 12.483833l5.891693 -12.483833z" fill-rule="evenodd"/><path stroke="#000000" stroke-width="1.0" stroke-linejoin="round" stroke-linecap="butt" stroke-dasharray="1.0,3.0" d="m126.50194 109.76604l21.08548 -17.989136l-2.0791016 16.515884l23.935028 -2.6921616l-9.506027 8.864296l24.898071 2.5494995l-19.771164 7.25148l22.620712 8.7309265l-26.982834 -1.0793457l7.4099426 15.982422l-23.368515 -11.283539l-4.3791046 16.376328l-15.38073 -14.893768l-11.596443 20.671997l-4.3621216 -18.525711l-16.72902 6.1721344l5.126915 -11.413788l-31.339294 2.0160217l20.320686 -8.721634l-21.085472 -9.800972l26.21238 -3.095375l-24.116295 -16.506577l39.327072 12.483833l5.891693 -12.483833z" fill-rule="evenodd"/><path fill="#000000" fill-opacity="0.0" d="m0 229.49081l786.86615 0" fill-rule="evenodd"/><path stroke="#999999" stroke-width="3.0" stroke-linejoin="round" stroke-linecap="butt" d="m0 229.49081l768.86615 0" fill-rule="evenodd"/><path fill="#999999" stroke="#999999" stroke-width="3.0" stroke-linecap="butt" d="m768.86615 234.44601l13.614258 -4.9552l-13.614258 -4.9552z" fill-rule="evenodd"/><path fill="#000000" fill-opacity="0.0" d="m143.7769 200.01837l0 76.06299" fill-rule="evenodd"/><path stroke="#666666" stroke-width="1.0" stroke-linejoin="round" stroke-linecap="butt" d="m143.7769 200.01837l0 76.06299" fill-rule="evenodd"/><path fill="#000000" fill-opacity="0.0" d="m385.63516 200.01837l0 76.06299" fill-rule="evenodd"/><path stroke="#666666" stroke-width="1.0" stroke-linejoin="round" stroke-linecap="butt" d="m385.63516 200.01837l0 76.06299" fill-rule="evenodd"/><path fill="#cfe2f3" d="m40.122047 201.31627l0 0c0 -9.845444 7.7345467 -17.826767 17.275589 -17.826767l0 0c4.581772 0 8.9758835 1.8781738 12.215691 5.221344c3.2397995 3.3431702 5.0598984 7.877472 5.0598984 12.605423l0 0c0 9.845459 -7.734543 17.826782 -17.275589 17.826782l0 0c-9.541042 0 -17.275589 -7.9813232 -17.275589 -17.826782z" fill-rule="evenodd"/><path stroke="#666666" stroke-width="1.0" stroke-linejoin="round" stroke-linecap="butt" d="m40.122047 201.31627l0 0c0 -9.845444 7.7345467 -17.826767 17.275589 -17.826767l0 0c4.581772 0 8.9758835 1.8781738 12.215691 5.221344c3.2397995 3.3431702 5.0598984 7.877472 5.0598984 12.605423l0 0c0 9.845459 -7.734543 17.826782 -17.275589 17.826782l0 0c-9.541042 0 -17.275589 -7.9813232 -17.275589 -17.826782z" fill-rule="evenodd"/><path fill="#434343" d="m58.775208 206.39627l-1.28125 0l0 -8.203125q-0.46875 0.4375 -1.21875 0.890625q-0.75 0.4375 -1.359375 0.65625l0 -1.25q1.078125 -0.5 1.890625 -1.21875q0.8125 -0.734375 1.140625 -1.40625l0.828125 0l0 10.53125z" fill-rule="nonzero"/><path fill="#b6d7a8" d="m178.32677 201.31627l0 0c0 -9.845444 7.734543 -17.826767 17.275589 -17.826767l0 0c4.581772 0 8.975891 1.8781738 12.215698 5.221344c3.2397919 3.3431702 5.059906 7.877472 5.059906 12.605423l0 0c0 9.845459 -7.734558 17.826782 -17.275604 17.826782l0 0c-9.541046 0 -17.275589 -7.9813232 -17.275589 -17.826782z" fill-rule="evenodd"/><path stroke="#666666" stroke-width="1.0" stroke-linejoin="round" stroke-linecap="butt" d="m178.32677 201.31627l0 0c0 -9.845444 7.734543 -17.826767 17.275589 -17.826767l0 0c4.581772 0 8.975891 1.8781738 12.215698 5.221344c3.2397919 3.3431702 5.059906 7.877472 5.059906 12.605423l0 0c0 9.845459 -7.734558 17.826782 -17.275604 17.826782l0 0c-9.541046 0 -17.275589 -7.9813232 -17.275589 -17.826782z" fill-rule="evenodd"/><path fill="#434343" d="m192.13618 203.64627l1.34375 -0.109375q0.15625 0.984375 0.703125 1.484375q0.546875 0.5 1.328125 0.5q0.921875 0 1.5625 -0.703125q0.65625 -0.703125 0.65625 -1.859375q0 -1.109375 -0.625 -1.734375q-0.625 -0.640625 -1.625 -0.640625q-0.625 0 -1.125 0.28125q-0.5 0.28125 -0.78125 0.734375l-1.203125 -0.15625l1.015625 -5.390625l5.21875 0l0 1.21875l-4.1875 0l-0.578125 2.828125q0.953125 -0.65625 1.984375 -0.65625q1.375 0 2.3125 0.953125q0.953125 0.953125 0.953125 2.4375q0 1.4375 -0.828125 2.46875q-1.015625 1.265625 -2.75 1.265625q-1.4375 0 -2.34375 -0.796875q-0.90625 -0.796875 -1.03125 -2.125z" fill-rule="nonzero"/><path fill="#ffe599" d="m109.22572 201.31627l0 0c0 -9.845444 7.734543 -17.826767 17.275589 -17.826767l0 0c4.581772 0 8.975891 1.8781738 12.215683 5.221344c3.2398071 3.3431702 5.059906 7.877472 5.059906 12.605423l0 0c0 9.845459 -7.734543 17.826782 -17.275589 17.826782l0 0c-9.541046 0 -17.275589 -7.9813232 -17.275589 -17.826782z" fill-rule="evenodd"/><path stroke="#666666" stroke-width="1.0" stroke-linejoin="round" stroke-linecap="butt" d="m109.22572 201.31627l0 0c0 -9.845444 7.734543 -17.826767 17.275589 -17.826767l0 0c4.581772 0 8.975891 1.8781738 12.215683 5.221344c3.2398071 3.3431702 5.059906 7.877472 5.059906 12.605423l0 0c0 9.845459 -7.734543 17.826782 -17.275589 17.826782l0 0c-9.541046 0 -17.275589 -7.9813232 -17.275589 -17.826782z" fill-rule="evenodd"/><path fill="#434343" d="m123.03513 203.63065l1.296875 -0.171875q0.21875 1.09375 0.75 1.578125q0.53125 0.484375 1.296875 0.484375q0.90625 0 1.53125 -0.625q0.6406174 -0.640625 0.6406174 -1.5625q0 -0.890625 -0.5937424 -1.46875q-0.578125 -0.578125 -1.46875 -0.578125q-0.359375 0 -0.90625 0.140625l0.140625 -1.125q0.125 0.015625 0.203125 0.015625q0.828125 0 1.484375 -0.421875q0.6562424 -0.4375 0.6562424 -1.34375q0 -0.703125 -0.48436737 -1.15625q-0.46875 -0.46875 -1.234375 -0.46875q-0.75 0 -1.25 0.46875q-0.5 0.46875 -0.640625 1.421875l-1.28125 -0.234375q0.234375 -1.296875 1.0625 -2.0q0.84375 -0.71875 2.09375 -0.71875q0.859375 0 1.578125 0.375q0.7187424 0.359375 1.0937424 1.0q0.390625 0.640625 0.390625 1.34375q0 0.6875 -0.375 1.25q-0.359375 0.546875 -1.0624924 0.875q0.9218674 0.21875 1.4374924 0.90625q0.515625 0.671875 0.515625 1.6875q0 1.375 -1.0 2.328125q-0.9999924 0.953125 -2.5312424 0.953125q-1.390625 0 -2.296875 -0.8125q-0.90625 -0.828125 -1.046875 -2.140625z" fill-rule="nonzero"/><path fill="#e6c9af" d="m143.77559 201.31627l0 0c0 -9.845444 7.734543 -17.826767 17.275589 -17.826767l0 0c4.581772 0 8.975891 1.8781738 12.215683 5.221344c3.2398071 3.3431702 5.059906 7.877472 5.059906 12.605423l0 0c0 9.845459 -7.734543 17.826782 -17.275589 17.826782l0 0c-9.541046 0 -17.275589 -7.9813232 -17.275589 -17.826782z" fill-rule="evenodd"/><path stroke="#666666" stroke-width="1.0" stroke-linejoin="round" stroke-linecap="butt" d="m143.77559 201.31627l0 0c0 -9.845444 7.734543 -17.826767 17.275589 -17.826767l0 0c4.581772 0 8.975891 1.8781738 12.215683 5.221344c3.2398071 3.3431702 5.059906 7.877472 5.059906 12.605423l0 0c0 9.845459 -7.734543 17.826782 -17.275589 17.826782l0 0c-9.541046 0 -17.275589 -7.9813232 -17.275589 -17.826782z" fill-rule="evenodd"/><path fill="#434343" d="m161.71 206.39627l0 -2.515625l-4.546875 0l0 -1.171875l4.78125 -6.796875l1.0625 0l0 6.796875l1.40625 0l0 1.171875l-1.40625 0l0 2.515625l-1.296875 0zm0 -3.6875l0 -4.734375l-3.28125 4.734375l3.28125 0z" fill-rule="nonzero"/><path fill="#f4cccc" d="m74.67454 201.31627l0 0c0 -9.845444 7.7345505 -17.826767 17.275597 -17.826767l0 0c4.581772 0 8.9758835 1.8781738 12.215683 5.221344c3.2397995 3.3431702 5.059906 7.877472 5.059906 12.605423l0 0c0 9.845459 -7.7345505 17.826782 -17.275589 17.826782l0 0c-9.541046 0 -17.275597 -7.9813232 -17.275597 -17.826782z" fill-rule="evenodd"/><path stroke="#666666" stroke-width="1.0" stroke-linejoin="round" stroke-linecap="butt" d="m74.67454 201.31627l0 0c0 -9.845444 7.7345505 -17.826767 17.275597 -17.826767l0 0c4.581772 0 8.9758835 1.8781738 12.215683 5.221344c3.2397995 3.3431702 5.059906 7.877472 5.059906 12.605423l0 0c0 9.845459 -7.7345505 17.826782 -17.275589 17.826782l0 0c-9.541046 0 -17.275597 -7.9813232 -17.275597 -17.826782z" fill-rule="evenodd"/><path fill="#434343" d="m95.24958 205.1619l0 1.234375l-6.9375 0q-0.015625 -0.46875 0.15625 -0.890625q0.265625 -0.71875 0.84375 -1.40625q0.59375 -0.6875 1.6875 -1.578125q1.71875 -1.40625 2.3125 -2.21875q0.609375 -0.828125 0.609375 -1.5625q0 -0.765625 -0.5625 -1.28125q-0.546875 -0.53125 -1.421875 -0.53125q-0.921875 0 -1.484375 0.5625q-0.5625 0.5625 -0.5625 1.546875l-1.328125 -0.140625q0.140625 -1.484375 1.015625 -2.25q0.890625 -0.78125 2.390625 -0.78125q1.515625 0 2.390625 0.84375q0.875 0.828125 0.875 2.0625q0 0.640625 -0.265625 1.25q-0.25 0.59375 -0.84375 1.265625q-0.59375 0.671875 -1.984375 1.859375q-1.15625 0.96875 -1.484375 1.3125q-0.328125 0.34375 -0.546875 0.703125l5.140625 0z" fill-rule="nonzero"/><path fill="#cfe2f3" d="m212.87796 201.31627l0 0c0 -9.845444 7.734543 -17.826767 17.275589 -17.826767l0 0c4.581772 0 8.975876 1.8781738 12.215683 5.221344c3.2398071 3.3431702 5.059906 7.877472 5.059906 12.605423l0 0c0 9.845459 -7.734543 17.826782 -17.275589 17.826782l0 0c-9.541046 0 -17.275589 -7.9813232 -17.275589 -17.826782z" fill-rule="evenodd"/><path stroke="#666666" stroke-width="1.0" stroke-linejoin="round" stroke-linecap="butt" d="m212.87796 201.31627l0 0c0 -9.845444 7.734543 -17.826767 17.275589 -17.826767l0 0c4.581772 0 8.975876 1.8781738 12.215683 5.221344c3.2398071 3.3431702 5.059906 7.877472 5.059906 12.605423l0 0c0 9.845459 -7.734543 17.826782 -17.275589 17.826782l0 0c-9.541046 0 -17.275589 -7.9813232 -17.275589 -17.826782z" fill-rule="evenodd"/><path fill="#434343" d="m233.37486 198.4744l-1.28125 0.09375q-0.171875 -0.75 -0.484375 -1.09375q-0.53125 -0.546875 -1.296875 -0.546875q-0.609375 0 -1.078125 0.34375q-0.609375 0.4375 -0.96875 1.296875q-0.34375 0.84375 -0.359375 2.421875q0.46875 -0.71875 1.140625 -1.0625q0.671875 -0.34375 1.40625 -0.34375q1.296875 0 2.203125 0.953125q0.90625 0.953125 0.90625 2.453125q0 0.984375 -0.4375 1.84375q-0.421875 0.84375 -1.171875 1.296875q-0.734375 0.4375 -1.6875 0.4375q-1.609375 0 -2.625 -1.171875q-1.015625 -1.1875 -1.015625 -3.90625q0 -3.046875 1.125 -4.421875q0.984375 -1.203125 2.640625 -1.203125q1.234375 0 2.03125 0.703125q0.796875 0.6875 0.953125 1.90625zm-5.265625 4.515625q0 0.671875 0.28125 1.28125q0.28125 0.609375 0.78125 0.9375q0.515625 0.3125 1.078125 0.3125q0.8125 0 1.390625 -0.65625q0.59375 -0.671875 0.59375 -1.796875q0 -1.09375 -0.578125 -1.71875q-0.578125 -0.625 -1.453125 -0.625q-0.875 0 -1.484375 0.625q-0.609375 0.625 -0.609375 1.640625z" fill-rule="nonzero"/><path fill="#b6d7a8" d="m351.08267 201.31627l0 0c0 -9.845444 7.734558 -17.826767 17.275604 -17.826767l0 0c4.5817566 0 8.975891 1.8781738 12.215668 5.221344c3.2398071 3.3431702 5.059906 7.877472 5.059906 12.605423l0 0c0 9.845459 -7.7345276 17.826782 -17.275574 17.826782l0 0c-9.541046 0 -17.275604 -7.9813232 -17.275604 -17.826782z" fill-rule="evenodd"/><path stroke="#666666" stroke-width="1.0" stroke-linejoin="round" stroke-linecap="butt" d="m351.08267 201.31627l0 0c0 -9.845444 7.734558 -17.826767 17.275604 -17.826767l0 0c4.5817566 0 8.975891 1.8781738 12.215668 5.221344c3.2398071 3.3431702 5.059906 7.877472 5.059906 12.605423l0 0c0 9.845459 -7.7345276 17.826782 -17.275574 17.826782l0 0c-9.541046 0 -17.275604 -7.9813232 -17.275604 -17.826782z" fill-rule="evenodd"/><path fill="#434343" d="m365.66028 206.39627l-1.28125 0l0 -8.203125q-0.46875 0.4375 -1.21875 0.890625q-0.75 0.4375 -1.359375 0.65625l0 -1.25q1.078125 -0.5 1.890625 -1.21875q0.8125 -0.734375 1.140625 -1.40625l0.828125 0l0 10.53125zm3.307373 -5.171875q0 -1.859375 0.375 -2.984375q0.390625 -1.140625 1.140625 -1.75q0.765625 -0.625 1.90625 -0.625q0.84375 0 1.46875 0.34375q0.640625 0.328125 1.0625 0.96875q0.421875 0.640625 0.65625 1.5625q0.234375 0.921875 0.234375 2.484375q0 1.84375 -0.390625 2.984375q-0.375 1.125 -1.125 1.75q-0.75 0.609375 -1.90625 0.609375q-1.515625 0 -2.390625 -1.078125q-1.03125 -1.3125 -1.03125 -4.265625zm1.328125 0q0 2.578125 0.59375 3.4375q0.609375 0.859375 1.5 0.859375q0.890625 0 1.484375 -0.859375q0.609375 -0.859375 0.609375 -3.4375q0 -2.59375 -0.609375 -3.4375q-0.59375 -0.859375 -1.5 -0.859375q-0.890625 0 -1.421875 0.75q-0.65625 0.96875 -0.65625 3.546875z" fill-rule="nonzero"/><path fill="#ffe599" d="m281.98163 201.31627l0 0c0 -9.845444 7.734558 -17.826767 17.275604 -17.826767l0 0c4.5817566 0 8.975861 1.8781738 12.215668 5.221344c3.2398071 3.3431702 5.059906 7.877472 5.059906 12.605423l0 0c0 9.845459 -7.734558 17.826782 -17.275574 17.826782l0 0c-9.541046 0 -17.275604 -7.9813232 -17.275604 -17.826782z" fill-rule="evenodd"/><path stroke="#666666" stroke-width="1.0" stroke-linejoin="round" stroke-linecap="butt" d="m281.98163 201.31627l0 0c0 -9.845444 7.734558 -17.826767 17.275604 -17.826767l0 0c4.5817566 0 8.975861 1.8781738 12.215668 5.221344c3.2398071 3.3431702 5.059906 7.877472 5.059906 12.605423l0 0c0 9.845459 -7.734558 17.826782 -17.275574 17.826782l0 0c-9.541046 0 -17.275604 -7.9813232 -17.275604 -17.826782z" fill-rule="evenodd"/><path fill="#434343" d="m297.77542 200.70877q-0.796875 -0.296875 -1.1875 -0.84375q-0.390625 -0.546875 -0.390625 -1.296875q0 -1.140625 0.8125 -1.921875q0.828125 -0.78125 2.203125 -0.78125q1.375 0 2.203125 0.796875q0.84375 0.796875 0.84375 1.9375q0 0.734375 -0.390625 1.28125q-0.375 0.53125 -1.15625 0.828125q0.96875 0.3125 1.46875 1.015625q0.5 0.703125 0.5 1.671875q0 1.34375 -0.953125 2.265625q-0.9375 0.90625 -2.5 0.90625q-1.546875 0 -2.5 -0.90625q-0.953125 -0.921875 -0.953125 -2.296875q0 -1.03125 0.515625 -1.71875q0.515625 -0.6875 1.484375 -0.9375zm-0.265625 -2.1875q0 0.75 0.484375 1.21875q0.484375 0.46875 1.25 0.46875q0.734375 0 1.203125 -0.46875q0.484375 -0.46875 0.484375 -1.140625q0 -0.71875 -0.5 -1.1875q-0.484375 -0.484375 -1.203125 -0.484375q-0.734375 0 -1.234375 0.46875q-0.484375 0.46875 -0.484375 1.125zm-0.40625 4.84375q0 0.5625 0.25 1.078125q0.265625 0.5 0.78125 0.796875q0.515625 0.28125 1.109375 0.28125q0.921875 0 1.515625 -0.59375q0.609375 -0.59375 0.609375 -1.515625q0 -0.9375 -0.625 -1.53125q-0.609375 -0.609375 -1.546875 -0.609375q-0.90625 0 -1.5 0.609375q-0.59375 0.59375 -0.59375 1.484375z" fill-rule="nonzero"/><path fill="#e6c9af" d="m316.5315 201.31627l0 0c0 -9.845444 7.734558 -17.826767 17.275604 -17.826767l0 0c4.5817566 0 8.975861 1.8781738 12.215668 5.221344c3.2398071 3.3431702 5.059906 7.877472 5.059906 12.605423l0 0c0 9.845459 -7.7345276 17.826782 -17.275574 17.826782l0 0c-9.541046 0 -17.275604 -7.9813232 -17.275604 -17.826782z" fill-rule="evenodd"/><path stroke="#666666" stroke-width="1.0" stroke-linejoin="round" stroke-linecap="butt" d="m316.5315 201.31627l0 0c0 -9.845444 7.734558 -17.826767 17.275604 -17.826767l0 0c4.5817566 0 8.975861 1.8781738 12.215668 5.221344c3.2398071 3.3431702 5.059906 7.877472 5.059906 12.605423l0 0c0 9.845459 -7.7345276 17.826782 -17.275574 17.826782l0 0c-9.541046 0 -17.275604 -7.9813232 -17.275604 -17.826782z" fill-rule="evenodd"/><path fill="#434343" d="m330.5284 203.9744l1.25 -0.125q0.15625 0.875 0.59375 1.28125q0.4375 0.390625 1.140625 0.390625q0.59375 0 1.03125 -0.265625q0.453125 -0.28125 0.734375 -0.734375q0.296875 -0.453125 0.484375 -1.21875q0.1875 -0.78125 0.1875 -1.59375q0 -0.078125 0 -0.25q-0.390625 0.609375 -1.0625 1.0q-0.65625 0.375 -1.4375 0.375q-1.3125 0 -2.21875 -0.9375q-0.890625 -0.953125 -0.890625 -2.484375q0 -1.609375 0.9375 -2.578125q0.9375 -0.96875 2.359375 -0.96875q1.03125 0 1.875 0.546875q0.84375 0.546875 1.28125 1.578125q0.4375 1.015625 0.4375 2.953125q0 2.0 -0.4375 3.203125q-0.421875 1.1875 -1.296875 1.8125q-0.859375 0.609375 -2.015625 0.609375q-1.234375 0 -2.015625 -0.671875q-0.78125 -0.6875 -0.9375 -1.921875zm5.28125 -4.640625q0 -1.109375 -0.59375 -1.75q-0.59375 -0.65625 -1.421875 -0.65625q-0.859375 0 -1.5 0.703125q-0.625 0.703125 -0.625 1.8125q0 1.0 0.59375 1.640625q0.609375 0.625 1.5 0.625q0.890625 0 1.46875 -0.625q0.578125 -0.640625 0.578125 -1.75z" fill-rule="nonzero"/><path fill="#f4cccc" d="m247.43045 201.31627l0 0c0 -9.845444 7.734543 -17.826767 17.275574 -17.826767l0 0c4.581787 0 8.975891 1.8781738 12.215698 5.221344c3.2398071 3.3431702 5.059906 7.877472 5.059906 12.605423l0 0c0 9.845459 -7.734558 17.826782 -17.275604 17.826782l0 0c-9.541031 0 -17.275574 -7.9813232 -17.275574 -17.826782z" fill-rule="evenodd"/><path stroke="#666666" stroke-width="1.0" stroke-linejoin="round" stroke-linecap="butt" d="m247.43045 201.31627l0 0c0 -9.845444 7.734543 -17.826767 17.275574 -17.826767l0 0c4.581787 0 8.975891 1.8781738 12.215698 5.221344c3.2398071 3.3431702 5.059906 7.877472 5.059906 12.605423l0 0c0 9.845459 -7.734558 17.826782 -17.275604 17.826782l0 0c-9.541031 0 -17.275574 -7.9813232 -17.275574 -17.826782z" fill-rule="evenodd"/><path fill="#434343" d="m261.318 197.27127l0 -1.234375l6.796875 0l0 1.0q-1.0 1.078125 -1.984375 2.84375q-0.984375 1.765625 -1.515625 3.625q-0.390625 1.328125 -0.5 2.890625l-1.328125 0q0.03125 -1.234375 0.484375 -2.984375q0.46875 -1.765625 1.34375 -3.390625q0.875 -1.625 1.84375 -2.75l-5.140625 0z" fill-rule="nonzero"/><path fill="#cfe2f3" d="m385.63385 201.31627l0 0c0 -9.845444 7.734558 -17.826767 17.275604 -17.826767l0 0c4.5817566 0 8.975891 1.8781738 12.215668 5.221344c3.2398071 3.3431702 5.059906 7.877472 5.059906 12.605423l0 0c0 9.845459 -7.7345276 17.826782 -17.275574 17.826782l0 0c-9.541046 0 -17.275604 -7.9813232 -17.275604 -17.826782z" fill-rule="evenodd"/><path stroke="#666666" stroke-width="1.0" stroke-linejoin="round" stroke-linecap="butt" d="m385.63385 201.31627l0 0c0 -9.845444 7.734558 -17.826767 17.275604 -17.826767l0 0c4.5817566 0 8.975891 1.8781738 12.215668 5.221344c3.2398071 3.3431702 5.059906 7.877472 5.059906 12.605423l0 0c0 9.845459 -7.7345276 17.826782 -17.275574 17.826782l0 0c-9.541046 0 -17.275604 -7.9813232 -17.275604 -17.826782z" fill-rule="evenodd"/><path fill="#434343" d="m400.75574 206.39627l-1.28125 0l0 -8.203125q-0.46875 0.4375 -1.21875 0.890625q-0.75 0.4375 -1.359375 0.65625l0 -1.25q1.078125 -0.5 1.890625 -1.21875q0.8125 -0.734375 1.140625 -1.40625l0.828125 0l0 10.53125zm7.062561 0l-1.28125 0l0 -8.203125q-0.46875 0.4375 -1.21875 0.890625q-0.75 0.4375 -1.359375 0.65625l0 -1.25q1.078125 -0.5 1.890625 -1.21875q0.8125 -0.734375 1.140625 -1.40625l0.828125 0l0 10.53125z" fill-rule="nonzero"/><path fill="#b6d7a8" d="m523.83856 201.31627l0 0c0 -9.845444 7.734558 -17.826767 17.275635 -17.826767l0 0c4.581726 0 8.975891 1.8781738 12.215637 5.221344c3.2398071 3.3431702 5.0599365 7.877472 5.0599365 12.605423l0 0c0 9.845459 -7.734558 17.826782 -17.275574 17.826782l0 0c-9.541077 0 -17.275635 -7.9813232 -17.275635 -17.826782z" fill-rule="evenodd"/><path stroke="#666666" stroke-width="1.0" stroke-linejoin="round" stroke-linecap="butt" d="m523.83856 201.31627l0 0c0 -9.845444 7.734558 -17.826767 17.275635 -17.826767l0 0c4.581726 0 8.975891 1.8781738 12.215637 5.221344c3.2398071 3.3431702 5.0599365 7.877472 5.0599365 12.605423l0 0c0 9.845459 -7.734558 17.826782 -17.275574 17.826782l0 0c-9.541077 0 -17.275635 -7.9813232 -17.275635 -17.826782z" fill-rule="evenodd"/><path fill="#434343" d="m538.4162 206.39627l-1.28125 0l0 -8.203125q-0.46875 0.4375 -1.21875 0.890625q-0.75 0.4375 -1.359375 0.65625l0 -1.25q1.078125 -0.5 1.890625 -1.21875q0.8125 -0.734375 1.140625 -1.40625l0.828125 0l0 10.53125zm3.307373 -2.75l1.34375 -0.109375q0.15625 0.984375 0.703125 1.484375q0.546875 0.5 1.328125 0.5q0.921875 0 1.5625 -0.703125q0.65625 -0.703125 0.65625 -1.859375q0 -1.109375 -0.625 -1.734375q-0.625 -0.640625 -1.625 -0.640625q-0.625 0 -1.125 0.28125q-0.5 0.28125 -0.78125 0.734375l-1.203125 -0.15625l1.015625 -5.390625l5.21875 0l0 1.21875l-4.1875 0l-0.578125 2.828125q0.953125 -0.65625 1.984375 -0.65625q1.375 0 2.3125 0.953125q0.953125 0.953125 0.953125 2.4375q0 1.4375 -0.828125 2.46875q-1.015625 1.265625 -2.75 1.265625q-1.4375 0 -2.34375 -0.796875q-0.90625 -0.796875 -1.03125 -2.125z" fill-rule="nonzero"/><path fill="#ffe599" d="m454.73752 201.31627l0 0c0 -9.845444 7.734558 -17.826767 17.275604 -17.826767l0 0c4.581787 0 8.975891 1.8781738 12.215698 5.221344c3.2397766 3.3431702 5.059906 7.877472 5.059906 12.605423l0 0c0 9.845459 -7.734558 17.826782 -17.275604 17.826782l0 0c-9.541046 0 -17.275604 -7.9813232 -17.275604 -17.826782z" fill-rule="evenodd"/><path stroke="#666666" stroke-width="1.0" stroke-linejoin="round" stroke-linecap="butt" d="m454.73752 201.31627l0 0c0 -9.845444 7.734558 -17.826767 17.275604 -17.826767l0 0c4.581787 0 8.975891 1.8781738 12.215698 5.221344c3.2397766 3.3431702 5.059906 7.877472 5.059906 12.605423l0 0c0 9.845459 -7.734558 17.826782 -17.275604 17.826782l0 0c-9.541046 0 -17.275604 -7.9813232 -17.275604 -17.826782z" fill-rule="evenodd"/><path fill="#434343" d="m469.31516 206.39627l-1.28125 0l0 -8.203125q-0.46875 0.4375 -1.21875 0.890625q-0.75 0.4375 -1.359375 0.65625l0 -1.25q1.078125 -0.5 1.890625 -1.21875q0.8125 -0.734375 1.140625 -1.40625l0.828125 0l0 10.53125zm3.3073425 -2.765625l1.296875 -0.171875q0.21875 1.09375 0.75 1.578125q0.53125 0.484375 1.296875 0.484375q0.90625 0 1.53125 -0.625q0.640625 -0.640625 0.640625 -1.5625q0 -0.890625 -0.59375 -1.46875q-0.578125 -0.578125 -1.46875 -0.578125q-0.359375 0 -0.90625 0.140625l0.140625 -1.125q0.125 0.015625 0.203125 0.015625q0.828125 0 1.484375 -0.421875q0.65625 -0.4375 0.65625 -1.34375q0 -0.703125 -0.484375 -1.15625q-0.46875 -0.46875 -1.234375 -0.46875q-0.75 0 -1.25 0.46875q-0.5 0.46875 -0.640625 1.421875l-1.28125 -0.234375q0.234375 -1.296875 1.0625 -2.0q0.84375 -0.71875 2.09375 -0.71875q0.859375 0 1.578125 0.375q0.71875 0.359375 1.09375 1.0q0.390625 0.640625 0.390625 1.34375q0 0.6875 -0.375 1.25q-0.359375 0.546875 -1.0625 0.875q0.921875 0.21875 1.4375 0.90625q0.515625 0.671875 0.515625 1.6875q0 1.375 -1.0 2.328125q-1.0 0.953125 -2.53125 0.953125q-1.390625 0 -2.296875 -0.8125q-0.90625 -0.828125 -1.046875 -2.140625z" fill-rule="nonzero"/><path fill="#e6c9af" d="m489.2874 201.31627l0 0c0 -9.845444 7.7345276 -17.826767 17.275574 -17.826767l0 0c4.581787 0 8.975891 1.8781738 12.215698 5.221344c3.2398071 3.3431702 5.0598755 7.877472 5.0598755 12.605423l0 0c0 9.845459 -7.734497 17.826782 -17.275574 17.826782l0 0c-9.541046 0 -17.275574 -7.9813232 -17.275574 -17.826782z" fill-rule="evenodd"/><path stroke="#666666" stroke-width="1.0" stroke-linejoin="round" stroke-linecap="butt" d="m489.2874 201.31627l0 0c0 -9.845444 7.7345276 -17.826767 17.275574 -17.826767l0 0c4.581787 0 8.975891 1.8781738 12.215698 5.221344c3.2398071 3.3431702 5.0598755 7.877472 5.0598755 12.605423l0 0c0 9.845459 -7.734497 17.826782 -17.275574 17.826782l0 0c-9.541046 0 -17.275574 -7.9813232 -17.275574 -17.826782z" fill-rule="evenodd"/><path fill="#434343" d="m503.86502 206.39627l-1.28125 0l0 -8.203125q-0.46875 0.4375 -1.21875 0.890625q-0.75 0.4375 -1.359375 0.65625l0 -1.25q1.078125 -0.5 1.890625 -1.21875q0.8125 -0.734375 1.140625 -1.40625l0.828125 0l0 10.53125zm7.4323425 0l0 -2.515625l-4.546875 0l0 -1.171875l4.78125 -6.796875l1.0625 0l0 6.796875l1.40625 0l0 1.171875l-1.40625 0l0 2.515625l-1.296875 0zm0 -3.6875l0 -4.734375l-3.28125 4.734375l3.28125 0z" fill-rule="nonzero"/><path fill="#f4cccc" d="m420.18634 201.31627l0 0c0 -9.845444 7.734558 -17.826767 17.275604 -17.826767l0 0c4.5817566 0 8.975891 1.8781738 12.215698 5.221344c3.2397766 3.3431702 5.0598755 7.877472 5.0598755 12.605423l0 0c0 9.845459 -7.7345276 17.826782 -17.275574 17.826782l0 0c-9.541046 0 -17.275604 -7.9813232 -17.275604 -17.826782z" fill-rule="evenodd"/><path stroke="#666666" stroke-width="1.0" stroke-linejoin="round" stroke-linecap="butt" d="m420.18634 201.31627l0 0c0 -9.845444 7.734558 -17.826767 17.275604 -17.826767l0 0c4.5817566 0 8.975891 1.8781738 12.215698 5.221344c3.2397766 3.3431702 5.0598755 7.877472 5.0598755 12.605423l0 0c0 9.845459 -7.7345276 17.826782 -17.275574 17.826782l0 0c-9.541046 0 -17.275604 -7.9813232 -17.275604 -17.826782z" fill-rule="evenodd"/><path fill="#434343" d="m434.76395 206.39627l-1.28125 0l0 -8.203125q-0.46875 0.4375 -1.21875 0.890625q-0.75 0.4375 -1.359375 0.65625l0 -1.25q1.078125 -0.5 1.890625 -1.21875q0.8125 -0.734375 1.140625 -1.40625l0.828125 0l0 10.53125zm10.072998 -1.234375l0 1.234375l-6.9375 0q-0.015625 -0.46875 0.15625 -0.890625q0.265625 -0.71875 0.84375 -1.40625q0.59375 -0.6875 1.6875 -1.578125q1.71875 -1.40625 2.3125 -2.21875q0.609375 -0.828125 0.609375 -1.5625q0 -0.765625 -0.5625 -1.28125q-0.546875 -0.53125 -1.421875 -0.53125q-0.921875 0 -1.484375 0.5625q-0.5625 0.5625 -0.5625 1.546875l-1.328125 -0.140625q0.140625 -1.484375 1.015625 -2.25q0.890625 -0.78125 2.390625 -0.78125q1.515625 0 2.390625 0.84375q0.875 0.828125 0.875 2.0625q0 0.640625 -0.265625 1.25q-0.25 0.59375 -0.84375 1.265625q-0.59375 0.671875 -1.984375 1.859375q-1.15625 0.96875 -1.484375 1.3125q-0.328125 0.34375 -0.546875 0.703125l5.140625 0z" fill-rule="nonzero"/><path fill="#cfe2f3" d="m558.3898 201.31627l0 0c0 -9.845444 7.734558 -17.826767 17.275574 -17.826767l0 0c4.581787 0 8.975891 1.8781738 12.215698 5.221344c3.2398071 3.3431702 5.0598755 7.877472 5.0598755 12.605423l0 0c0 9.845459 -7.734497 17.826782 -17.275574 17.826782l0 0c-9.541016 0 -17.275574 -7.9813232 -17.275574 -17.826782z" fill-rule="evenodd"/><path stroke="#666666" stroke-width="1.0" stroke-linejoin="round" stroke-linecap="butt" d="m558.3898 201.31627l0 0c0 -9.845444 7.734558 -17.826767 17.275574 -17.826767l0 0c4.581787 0 8.975891 1.8781738 12.215698 5.221344c3.2398071 3.3431702 5.0598755 7.877472 5.0598755 12.605423l0 0c0 9.845459 -7.734497 17.826782 -17.275574 17.826782l0 0c-9.541016 0 -17.275574 -7.9813232 -17.275574 -17.826782z" fill-rule="evenodd"/><path fill="#434343" d="m572.96735 206.39627l-1.28125 0l0 -8.203125q-0.46875 0.4375 -1.21875 0.890625q-0.75 0.4375 -1.359375 0.65625l0 -1.25q1.078125 -0.5 1.890625 -1.21875q0.8125 -0.734375 1.140625 -1.40625l0.828125 0l0 10.53125zm9.994873 -7.921875l-1.28125 0.09375q-0.171875 -0.75 -0.484375 -1.09375q-0.53125 -0.546875 -1.296875 -0.546875q-0.609375 0 -1.078125 0.34375q-0.609375 0.4375 -0.96875 1.296875q-0.34375 0.84375 -0.359375 2.421875q0.46875 -0.71875 1.140625 -1.0625q0.671875 -0.34375 1.40625 -0.34375q1.296875 0 2.203125 0.953125q0.90625 0.953125 0.90625 2.453125q0 0.984375 -0.4375 1.84375q-0.421875 0.84375 -1.171875 1.296875q-0.734375 0.4375 -1.6875 0.4375q-1.609375 0 -2.625 -1.171875q-1.015625 -1.1875 -1.015625 -3.90625q0 -3.046875 1.125 -4.421875q0.984375 -1.203125 2.640625 -1.203125q1.234375 0 2.03125 0.703125q0.796875 0.6875 0.953125 1.90625zm-5.265625 4.515625q0 0.671875 0.28125 1.28125q0.28125 0.609375 0.78125 0.9375q0.515625 0.3125 1.078125 0.3125q0.8125 0 1.390625 -0.65625q0.59375 -0.671875 0.59375 -1.796875q0 -1.09375 -0.578125 -1.71875q-0.578125 -0.625 -1.453125 -0.625q-0.875 0 -1.484375 0.625q-0.609375 0.625 -0.609375 1.640625z" fill-rule="nonzero"/><path fill="#b6d7a8" d="m696.5945 201.31627l0 0c0 -9.845444 7.734558 -17.826767 17.275574 -17.826767l0 0c4.581787 0 8.975891 1.8781738 12.215698 5.221344c3.2398071 3.3431702 5.0599365 7.877472 5.0599365 12.605423l0 0c0 9.845459 -7.734558 17.826782 -17.275635 17.826782l0 0c-9.541016 0 -17.275574 -7.9813232 -17.275574 -17.826782z" fill-rule="evenodd"/><path stroke="#666666" stroke-width="1.0" stroke-linejoin="round" stroke-linecap="butt" d="m696.5945 201.31627l0 0c0 -9.845444 7.734558 -17.826767 17.275574 -17.826767l0 0c4.581787 0 8.975891 1.8781738 12.215698 5.221344c3.2398071 3.3431702 5.0599365 7.877472 5.0599365 12.605423l0 0c0 9.845459 -7.734558 17.826782 -17.275635 17.826782l0 0c-9.541016 0 -17.275574 -7.9813232 -17.275574 -17.826782z" fill-rule="evenodd"/><path fill="#434343" d="m713.094 205.1619l0 1.234375l-6.9375 0q-0.015625 -0.46875 0.15625 -0.890625q0.265625 -0.71875 0.84375 -1.40625q0.59375 -0.6875 1.6875 -1.578125q1.71875 -1.40625 2.3125 -2.21875q0.609375 -0.828125 0.609375 -1.5625q0 -0.765625 -0.5625 -1.28125q-0.546875 -0.53125 -1.421875 -0.53125q-0.921875 0 -1.484375 0.5625q-0.5625 0.5625 -0.5625 1.546875l-1.328125 -0.140625q0.140625 -1.484375 1.015625 -2.25q0.890625 -0.78125 2.390625 -0.78125q1.515625 0 2.390625 0.84375q0.875 0.828125 0.875 2.0625q0 0.640625 -0.265625 1.25q-0.25 0.59375 -0.84375 1.265625q-0.59375 0.671875 -1.984375 1.859375q-1.15625 0.96875 -1.484375 1.3125q-0.328125 0.34375 -0.546875 0.703125l5.140625 0zm1.385437 -3.9375q0 -1.859375 0.375 -2.984375q0.390625 -1.140625 1.140625 -1.75q0.765625 -0.625 1.90625 -0.625q0.84375 0 1.46875 0.34375q0.640625 0.328125 1.0625 0.96875q0.421875 0.640625 0.65625 1.5625q0.234375 0.921875 0.234375 2.484375q0 1.84375 -0.390625 2.984375q-0.375 1.125 -1.125 1.75q-0.75 0.609375 -1.90625 0.609375q-1.515625 0 -2.390625 -1.078125q-1.03125 -1.3125 -1.03125 -4.265625zm1.328125 0q0 2.578125 0.59375 3.4375q0.609375 0.859375 1.5 0.859375q0.890625 0 1.484375 -0.859375q0.609375 -0.859375 0.609375 -3.4375q0 -2.59375 -0.609375 -3.4375q-0.59375 -0.859375 -1.5 -0.859375q-0.890625 0 -1.421875 0.75q-0.65625 0.96875 -0.65625 3.546875z" fill-rule="nonzero"/><path fill="#ffe599" d="m627.4934 201.31627l0 0c0 -9.845444 7.734558 -17.826767 17.275635 -17.826767l0 0c4.581787 0 8.975891 1.8781738 12.215698 5.221344c3.239746 3.3431702 5.0598755 7.877472 5.0598755 12.605423l0 0c0 9.845459 -7.734558 17.826782 -17.275574 17.826782l0 0c-9.541077 0 -17.275635 -7.9813232 -17.275635 -17.826782z" fill-rule="evenodd"/><path stroke="#666666" stroke-width="1.0" stroke-linejoin="round" stroke-linecap="butt" d="m627.4934 201.31627l0 0c0 -9.845444 7.734558 -17.826767 17.275635 -17.826767l0 0c4.581787 0 8.975891 1.8781738 12.215698 5.221344c3.239746 3.3431702 5.0598755 7.877472 5.0598755 12.605423l0 0c0 9.845459 -7.734558 17.826782 -17.275574 17.826782l0 0c-9.541077 0 -17.275635 -7.9813232 -17.275635 -17.826782z" fill-rule="evenodd"/><path fill="#434343" d="m642.07104 206.39627l-1.28125 0l0 -8.203125q-0.46875 0.4375 -1.21875 0.890625q-0.75 0.4375 -1.359375 0.65625l0 -1.25q1.078125 -0.5 1.890625 -1.21875q0.8125 -0.734375 1.140625 -1.40625l0.828125 0l0 10.53125zm5.291748 -5.6875q-0.796875 -0.296875 -1.1875 -0.84375q-0.390625 -0.546875 -0.390625 -1.296875q0 -1.140625 0.8125 -1.921875q0.828125 -0.78125 2.203125 -0.78125q1.375 0 2.203125 0.796875q0.84375 0.796875 0.84375 1.9375q0 0.734375 -0.390625 1.28125q-0.375 0.53125 -1.15625 0.828125q0.96875 0.3125 1.46875 1.015625q0.5 0.703125 0.5 1.671875q0 1.34375 -0.953125 2.265625q-0.9375 0.90625 -2.5 0.90625q-1.546875 0 -2.5 -0.90625q-0.953125 -0.921875 -0.953125 -2.296875q0 -1.03125 0.515625 -1.71875q0.515625 -0.6875 1.484375 -0.9375zm-0.265625 -2.1875q0 0.75 0.484375 1.21875q0.484375 0.46875 1.25 0.46875q0.734375 0 1.203125 -0.46875q0.484375 -0.46875 0.484375 -1.140625q0 -0.71875 -0.5 -1.1875q-0.484375 -0.484375 -1.203125 -0.484375q-0.734375 0 -1.234375 0.46875q-0.484375 0.46875 -0.484375 1.125zm-0.40625 4.84375q0 0.5625 0.25 1.078125q0.265625 0.5 0.78125 0.796875q0.515625 0.28125 1.109375 0.28125q0.921875 0 1.515625 -0.59375q0.609375 -0.59375 0.609375 -1.515625q0 -0.9375 -0.625 -1.53125q-0.609375 -0.609375 -1.546875 -0.609375q-0.90625 0 -1.5 0.609375q-0.59375 0.59375 -0.59375 1.484375z" fill-rule="nonzero"/><path fill="#e6c9af" d="m662.04333 201.31627l0 0c0 -9.845444 7.734497 -17.826767 17.275574 -17.826767l0 0c4.581787 0 8.975891 1.8781738 12.215698 5.221344c3.2398071 3.3431702 5.0598755 7.877472 5.0598755 12.605423l0 0c0 9.845459 -7.734558 17.826782 -17.275574 17.826782l0 0c-9.541077 0 -17.275574 -7.9813232 -17.275574 -17.826782z" fill-rule="evenodd"/><path stroke="#666666" stroke-width="1.0" stroke-linejoin="round" stroke-linecap="butt" d="m662.04333 201.31627l0 0c0 -9.845444 7.734497 -17.826767 17.275574 -17.826767l0 0c4.581787 0 8.975891 1.8781738 12.215698 5.221344c3.2398071 3.3431702 5.0598755 7.877472 5.0598755 12.605423l0 0c0 9.845459 -7.734558 17.826782 -17.275574 17.826782l0 0c-9.541077 0 -17.275574 -7.9813232 -17.275574 -17.826782z" fill-rule="evenodd"/><path fill="#434343" d="m676.6209 206.39627l-1.28125 0l0 -8.203125q-0.46875 0.4375 -1.21875 0.890625q-0.75 0.4375 -1.359375 0.65625l0 -1.25q1.078125 -0.5 1.890625 -1.21875q0.8125 -0.734375 1.140625 -1.40625l0.828125 0l0 10.53125zm3.494873 -2.421875l1.25 -0.125q0.15625 0.875 0.59375 1.28125q0.4375 0.390625 1.140625 0.390625q0.59375 0 1.03125 -0.265625q0.453125 -0.28125 0.734375 -0.734375q0.296875 -0.453125 0.484375 -1.21875q0.1875 -0.78125 0.1875 -1.59375q0 -0.078125 0 -0.25q-0.390625 0.609375 -1.0625 1.0q-0.65625 0.375 -1.4375 0.375q-1.3125 0 -2.21875 -0.9375q-0.890625 -0.953125 -0.890625 -2.484375q0 -1.609375 0.9375 -2.578125q0.9375 -0.96875 2.359375 -0.96875q1.03125 0 1.875 0.546875q0.84375 0.546875 1.28125 1.578125q0.4375 1.015625 0.4375 2.953125q0 2.0 -0.4375 3.203125q-0.421875 1.1875 -1.296875 1.8125q-0.859375 0.609375 -2.015625 0.609375q-1.234375 0 -2.015625 -0.671875q-0.78125 -0.6875 -0.9375 -1.921875zm5.28125 -4.640625q0 -1.109375 -0.59375 -1.75q-0.59375 -0.65625 -1.421875 -0.65625q-0.859375 0 -1.5 0.703125q-0.625 0.703125 -0.625 1.8125q0 1.0 0.59375 1.640625q0.609375 0.625 1.5 0.625q0.890625 0 1.46875 -0.625q0.578125 -0.640625 0.578125 -1.75z" fill-rule="nonzero"/><path fill="#f4cccc" d="m592.94226 201.31627l0 0c0 -9.845444 7.734558 -17.826767 17.275574 -17.826767l0 0c4.581787 0 8.975891 1.8781738 12.215698 5.221344c3.2398071 3.3431702 5.0598755 7.877472 5.0598755 12.605423l0 0c0 9.845459 -7.734497 17.826782 -17.275574 17.826782l0 0c-9.541016 0 -17.275574 -7.9813232 -17.275574 -17.826782z" fill-rule="evenodd"/><path stroke="#666666" stroke-width="1.0" stroke-linejoin="round" stroke-linecap="butt" d="m592.94226 201.31627l0 0c0 -9.845444 7.734558 -17.826767 17.275574 -17.826767l0 0c4.581787 0 8.975891 1.8781738 12.215698 5.221344c3.2398071 3.3431702 5.0598755 7.877472 5.0598755 12.605423l0 0c0 9.845459 -7.734497 17.826782 -17.275574 17.826782l0 0c-9.541016 0 -17.275574 -7.9813232 -17.275574 -17.826782z" fill-rule="evenodd"/><path fill="#434343" d="m607.51984 206.39627l-1.28125 0l0 -8.203125q-0.46875 0.4375 -1.21875 0.890625q-0.75 0.4375 -1.359375 0.65625l0 -1.25q1.078125 -0.5 1.890625 -1.21875q0.8125 -0.734375 1.140625 -1.40625l0.828125 0l0 10.53125zm3.385498 -9.125l0 -1.234375l6.796875 0l0 1.0q-1.0 1.078125 -1.984375 2.84375q-0.984375 1.765625 -1.515625 3.625q-0.390625 1.328125 -0.5 2.890625l-1.328125 0q0.03125 -1.234375 0.484375 -2.984375q0.46875 -1.765625 1.34375 -3.390625q0.875 -1.625 1.84375 -2.75l-5.140625 0z" fill-rule="nonzero"/><path fill="#ff9191" d="m178.51706 146.60324l0 45.417755c0 -5.0167084 -7.819153 -9.083557 -17.46457 -9.083557c-9.645416 0 -17.46457 4.0668488 -17.46457 9.083557l0 -45.417755l0 0c0 -5.0167084 7.819153 -9.083557 17.46457 -9.083557c9.645416 0 17.46457 4.0668488 17.46457 9.083557z" fill-rule="evenodd"/><path stroke="#666666" stroke-width="1.0" stroke-linejoin="round" stroke-linecap="butt" d="m178.51706 146.60324l0 45.417755c0 -5.0167084 -7.819153 -9.083557 -17.46457 -9.083557c-9.645416 0 -17.46457 4.0668488 -17.46457 9.083557l0 -45.417755l0 0c0 -5.0167084 7.819153 -9.083557 17.46457 -9.083557c9.645416 0 17.46457 4.0668488 17.46457 9.083557z" fill-rule="evenodd"/><path fill="#ff9191" d="m454.9265 146.60324l0 45.417755c0 -5.0167084 -7.819153 -9.083557 -17.46457 -9.083557c-9.645416 0 -17.46457 4.0668488 -17.46457 9.083557l0 -45.417755l0 0c0 -5.0167084 7.819153 -9.083557 17.46457 -9.083557c9.645416 0 17.46457 4.0668488 17.46457 9.083557z" fill-rule="evenodd"/><path stroke="#666666" stroke-width="1.0" stroke-linejoin="round" stroke-linecap="butt" d="m454.9265 146.60324l0 45.417755c0 -5.0167084 -7.819153 -9.083557 -17.46457 -9.083557c-9.645416 0 -17.46457 4.0668488 -17.46457 9.083557l0 -45.417755l0 0c0 -5.0167084 7.819153 -9.083557 17.46457 -9.083557c9.645416 0 17.46457 4.0668488 17.46457 9.083557z" fill-rule="evenodd"/><path fill="#000000" fill-opacity="0.0" d="m423.0 98.049324c-2.8761902 -2.8762054 -9.936584 -12.158798 -17.257233 -17.257217c-7.3206177 -5.098427 -16.992981 -10.065186 -26.666656 -13.333336c-9.673676 -3.2681503 -19.478546 -5.3604546 -31.375336 -6.275589c-11.896759 -0.91513824 -26.408997 -0.261158 -40.00525 0.7847748c-13.596222 1.0459328 -28.499115 2.6150513 -41.572174 5.490814c-13.073044 2.875763 -24.446625 5.881012 -36.866135 11.763779c-12.41951 5.8827667 -31.375763 19.610672 -37.650925 23.532806" fill-rule="evenodd"/><path stroke="#666666" stroke-width="1.0" stroke-linejoin="round" stroke-linecap="butt" d="m420.69427 95.513885l-0.574646 -0.65743256c-1.1807251 -1.3543701 -2.561737 -2.9436722 -4.0815735 -4.602417c-3.0397034 -3.3174667 -6.634918 -6.9127197 -10.295288 -9.461937c-7.320648 -5.098419 -16.992981 -10.06517 -26.666656 -13.333328c-9.673676 -3.2681503 -19.478546 -5.3604546 -31.375336 -6.275593c-11.896759 -0.91513443 -26.408997 -0.26115417 -40.00525 0.7847786c-13.596222 1.045929 -28.499115 2.6150513 -41.572174 5.490814c-13.073059 2.8757706 -24.446625 5.8810196 -36.866135 11.763779c-12.41951 5.8827667 -31.375763 19.610672 -37.650925 23.532814" fill-rule="evenodd"/><path fill="#666666" stroke="#666666" stroke-width="1.0" stroke-linecap="butt" d="m420.69424 95.51388l-1.5885925 -0.07537079l2.9107666 1.5292664l-1.2467957 -3.0425034z" fill-rule="evenodd"/><path fill="#efefef" d="m263.76904 18.564304l0 0c0 -2.887536 2.3407898 -5.228346 5.2283325 -5.228346l14.005249 0l0 0l28.850403 0l62.089233 0c1.3866272 0 2.7164917 0.55084133 3.696991 1.5313463c0.98049927 0.98050594 1.5313416 2.3103552 1.5313416 3.6969995l0 13.070866l0 0l0 7.8425217l0 0c0 2.887535 -2.3407898 5.228344 -5.2283325 5.228344l-62.089233 0l-15.629608 15.349068l-13.220795 -15.349068l-14.005249 0c-2.8875427 0 -5.2283325 -2.3408089 -5.2283325 -5.228344l0 0l0 -7.8425217l0 0z" fill-rule="evenodd"/><path stroke="#666666" stroke-width="1.0" stroke-linejoin="round" stroke-linecap="butt" d="m263.76904 18.564304l0 0c0 -2.887536 2.3407898 -5.228346 5.2283325 -5.228346l14.005249 0l0 0l28.850403 0l62.089233 0c1.3866272 0 2.7164917 0.55084133 3.696991 1.5313463c0.98049927 0.98050594 1.5313416 2.3103552 1.5313416 3.6969995l0 13.070866l0 0l0 7.8425217l0 0c0 2.887535 -2.3407898 5.228344 -5.2283325 5.228344l-62.089233 0l-15.629608 15.349068l-13.220795 -15.349068l-14.005249 0c-2.8875427 0 -5.2283325 -2.3408089 -5.2283325 -5.228344l0 0l0 -7.8425217l0 0z" fill-rule="evenodd"/><path fill="#434343" d="m275.42535 34.100998l0 -10.484375l3.96875 0q1.046875 0 1.59375 0.09375q0.765625 0.125 1.28125 0.484375q0.53125 0.359375 0.84375 1.015625q0.328125 0.65625 0.328125 1.4375q0 1.328125 -0.859375 2.265625q-0.84375 0.921875 -3.078125 0.921875l-2.6875 0l0 4.265625l-1.390625 0zm1.390625 -5.5l2.71875 0q1.34375 0 1.90625 -0.5q0.5625 -0.5 0.5625 -1.40625q0 -0.671875 -0.328125 -1.140625q-0.328125 -0.46875 -0.875 -0.609375q-0.359375 -0.09375 -1.296875 -0.09375l-2.6875 0l0 3.75zm8.213104 5.5l0 -7.59375l1.15625 0l0 1.140625q0.453125 -0.796875 0.828125 -1.046875q0.375 -0.265625 0.8125 -0.265625q0.65625 0 1.328125 0.40625l-0.4375 1.203125q-0.46875 -0.28125 -0.953125 -0.28125q-0.421875 0 -0.765625 0.25q-0.328125 0.25 -0.46875 0.703125q-0.21875 0.6875 -0.21875 1.5l0 3.984375l-1.28125 0zm4.4118958 -3.796875q0 -2.109375 1.171875 -3.125q0.984375 -0.84375 2.390625 -0.84375q1.578125 0 2.5625 1.03125q1.0 1.015625 1.0 2.828125q0 1.46875 -0.4375 2.3125q-0.4375 0.828125 -1.28125 1.296875q-0.84375 0.46875 -1.84375 0.46875q-1.59375 0 -2.578125 -1.015625q-0.984375 -1.03125 -0.984375 -2.953125zm1.328125 0q0 1.453125 0.625 2.1875q0.640625 0.71875 1.609375 0.71875q0.96875 0 1.59375 -0.71875q0.640625 -0.734375 0.640625 -2.234375q0 -1.40625 -0.640625 -2.125q-0.640625 -0.734375 -1.59375 -0.734375q-0.96875 0 -1.609375 0.71875q-0.625 0.71875 -0.625 2.1875zm12.260498 1.015625l1.265625 0.15625q-0.203125 1.3125 -1.0625 2.0625q-0.84375 0.734375 -2.09375 0.734375q-1.5625 0 -2.515625 -1.015625q-0.9375 -1.03125 -0.9375 -2.921875q0 -1.234375 0.40625 -2.15625q0.40625 -0.921875 1.234375 -1.375q0.84375 -0.46875 1.8125 -0.46875q1.25 0 2.03125 0.625q0.78125 0.625 1.015625 1.765625l-1.265625 0.203125q-0.171875 -0.765625 -0.625 -1.15625q-0.453125 -0.390625 -1.09375 -0.390625q-0.984375 0 -1.59375 0.703125q-0.609375 0.703125 -0.609375 2.203125q0 1.53125 0.578125 2.234375q0.59375 0.6875 1.546875 0.6875q0.75 0 1.265625 -0.453125q0.515625 -0.46875 0.640625 -1.4375zm7.578125 0.328125l1.328125 0.171875q-0.3125 1.171875 -1.171875 1.8125q-0.84375 0.640625 -2.171875 0.640625q-1.671875 0 -2.65625 -1.015625q-0.96875 -1.03125 -0.96875 -2.890625q0 -1.921875 0.984375 -2.96875q1.0 -1.0625 2.578125 -1.0625q1.515625 0 2.484375 1.03125q0.96875 1.03125 0.96875 2.921875q0 0.109375 -0.015625 0.34375l-5.65625 0q0.0625 1.25 0.703125 1.921875q0.640625 0.65625 1.59375 0.65625q0.703125 0 1.203125 -0.359375q0.5 -0.375 0.796875 -1.203125zm-4.234375 -2.078125l4.25 0q-0.09375 -0.953125 -0.484375 -1.4375q-0.625 -0.75 -1.609375 -0.75q-0.875 0 -1.484375 0.59375q-0.609375 0.59375 -0.671875 1.59375zm12.385468 2.078125l1.328125 0.171875q-0.3125 1.171875 -1.171875 1.8125q-0.84375 0.640625 -2.171875 0.640625q-1.671875 0 -2.65625 -1.015625q-0.96875 -1.03125 -0.96875 -2.890625q0 -1.921875 0.984375 -2.96875q1.0 -1.0625 2.578125 -1.0625q1.515625 0 2.484375 1.03125q0.96875 1.03125 0.96875 2.921875q0 0.109375 -0.015625 0.34375l-5.65625 0q0.0625 1.25 0.703125 1.921875q0.640625 0.65625 1.59375 0.65625q0.703125 0 1.203125 -0.359375q0.5 -0.375 0.796875 -1.203125zm-4.234375 -2.078125l4.25 0q-0.09375 -0.953125 -0.484375 -1.4375q-0.625 -0.75 -1.609375 -0.75q-0.875 0 -1.484375 0.59375q-0.609375 0.59375 -0.671875 1.59375zm12.104248 4.53125l0 -0.953125q-0.71875 1.125 -2.125 1.125q-0.90625 0 -1.671875 -0.5q-0.75 -0.5 -1.171875 -1.390625q-0.421875 -0.90625 -0.421875 -2.078125q0 -1.140625 0.375 -2.0625q0.390625 -0.921875 1.140625 -1.40625q0.765625 -0.5 1.703125 -0.5q0.6875 0 1.21875 0.296875q0.53125 0.28125 0.875 0.734375l0 -3.75l1.28125 0l0 10.484375l-1.203125 0zm-4.0625 -3.796875q0 1.46875 0.609375 2.1875q0.625 0.71875 1.453125 0.71875q0.84375 0 1.4375 -0.6875q0.59375 -0.6875 0.59375 -2.109375q0 -1.5625 -0.609375 -2.28125q-0.59375 -0.734375 -1.484375 -0.734375q-0.84375 0 -1.421875 0.703125q-0.578125 0.703125 -0.578125 2.203125zm14.1762085 2.640625l0.1875 1.140625q-0.546875 0.109375 -0.984375 0.109375q-0.6875 0 -1.078125 -0.21875q-0.390625 -0.21875 -0.546875 -0.578125q-0.15625 -0.359375 -0.15625 -1.515625l0 -4.375l-0.953125 0l0 -1.0l0.953125 0l0 -1.890625l1.28125 -0.765625l0 2.65625l1.296875 0l0 1.0l-1.296875 0l0 4.4375q0 0.546875 0.0625 0.71875q0.078125 0.15625 0.21875 0.25q0.15625 0.078125 0.453125 0.078125q0.203125 0 0.5625 -0.046875zm0.77508545 -2.640625q0 -2.109375 1.171875 -3.125q0.984375 -0.84375 2.390625 -0.84375q1.578125 0 2.5625 1.03125q1.0 1.015625 1.0 2.828125q0 1.46875 -0.4375 2.3125q-0.4375 0.828125 -1.28125 1.296875q-0.84375 0.46875 -1.84375 0.46875q-1.59375 0 -2.578125 -1.015625q-0.984375 -1.03125 -0.984375 -2.953125zm1.328125 0q0 1.453125 0.625 2.1875q0.640625 0.71875 1.609375 0.71875q0.96875 0 1.59375 -0.71875q0.640625 -0.734375 0.640625 -2.234375q0 -1.40625 -0.640625 -2.125q-0.640625 -0.734375 -1.59375 -0.734375q-0.96875 0 -1.609375 0.71875q-0.625 0.71875 -0.625 2.1875zm15.8637085 3.796875l-1.28125 0l0 -8.203125q-0.46875 0.4375 -1.21875 0.890625q-0.75 0.4375 -1.359375 0.65625l0 -1.25q1.078125 -0.5 1.890625 -1.21875q0.8125 -0.734375 1.140625 -1.40625l0.828125 0l0 10.53125zm5.291748 -5.6875q-0.796875 -0.296875 -1.1875 -0.84375q-0.390625 -0.546875 -0.390625 -1.296875q0 -1.140625 0.8125 -1.921875q0.828125 -0.78125 2.203125 -0.78125q1.375 0 2.203125 0.796875q0.84375 0.796875 0.84375 1.9375q0 0.734375 -0.390625 1.28125q-0.375 0.53125 -1.15625 0.828125q0.96875 0.3125 1.46875 1.015625q0.5 0.703125 0.5 1.671875q0 1.34375 -0.953125 2.265625q-0.9375 0.90625 -2.5 0.90625q-1.546875 0 -2.5 -0.90625q-0.953125 -0.921875 -0.953125 -2.296875q0 -1.03125 0.515625 -1.71875q0.515625 -0.6875 1.484375 -0.9375zm-0.265625 -2.1875q0 0.75 0.484375 1.21875q0.484375 0.46875 1.25 0.46875q0.734375 0 1.203125 -0.46875q0.484375 -0.46875 0.484375 -1.140625q0 -0.71875 -0.5 -1.1875q-0.484375 -0.484375 -1.203125 -0.484375q-0.734375 0 -1.234375 0.46875q-0.484375 0.46875 -0.484375 1.125zm-0.40625 4.84375q0 0.5625 0.25 1.078125q0.265625 0.5 0.78125 0.796875q0.515625 0.28125 1.109375 0.28125q0.921875 0 1.515625 -0.59375q0.609375 -0.59375 0.609375 -1.515625q0 -0.9375 -0.625 -1.53125q-0.609375 -0.609375 -1.546875 -0.609375q-0.90625 0 -1.5 0.609375q-0.59375 0.59375 -0.59375 1.484375z" fill-rule="nonzero"/><path fill="#000000" fill-opacity="0.0" d="m144.5433 269.86353l241.19684 0" fill-rule="evenodd"/><path stroke="#666666" stroke-width="1.0" stroke-linejoin="round" stroke-linecap="butt" d="m147.9704 269.86353l234.34268 0" fill-rule="evenodd"/><path fill="#666666" stroke="#666666" stroke-width="1.0" stroke-linecap="butt" d="m147.9704 269.86353l1.1245728 -1.1246033l-3.0897675 1.1246033l3.0897675 1.1245728z" fill-rule="evenodd"/><path fill="#666666" stroke="#666666" stroke-width="1.0" stroke-linecap="butt" d="m382.31308 269.86353l-1.1246033 1.1245728l3.0897827 -1.1245728l-3.0897827 -1.1246033z" fill-rule="evenodd"/><path fill="#ff9191" d="m161.01506 109.76604l21.08548 -17.989136l-2.0790863 16.515884l23.935013 -2.6921616l-9.506027 8.864296l24.898071 2.5494995l-19.771164 7.25148l22.620712 8.7309265l-26.982834 -1.0793457l7.4099426 15.982422l-23.368515 -11.283539l-4.3791046 16.376328l-15.380722 -14.893768l-11.596451 20.671997l-4.3621216 -18.525711l-16.729012 6.1721344l5.1268997 -11.413788l-31.33928 2.0160217l20.320679 -8.721634l-21.085472 -9.800972l26.21238 -3.095375l-24.116295 -16.506577l39.327065 12.483833l5.891693 -12.483833z" fill-rule="evenodd"/><path stroke="#666666" stroke-width="1.0" stroke-linejoin="round" stroke-linecap="butt" d="m161.01506 109.76604l21.08548 -17.989136l-2.0790863 16.515884l23.935013 -2.6921616l-9.506027 8.864296l24.898071 2.5494995l-19.771164 7.25148l22.620712 8.7309265l-26.982834 -1.0793457l7.4099426 15.982422l-23.368515 -11.283539l-4.3791046 16.376328l-15.380722 -14.893768l-11.596451 20.671997l-4.3621216 -18.525711l-16.729012 6.1721344l5.1268997 -11.413788l-31.33928 2.0160217l20.320679 -8.721634l-21.085472 -9.800972l26.21238 -3.095375l-24.116295 -16.506577l39.327065 12.483833l5.891693 -12.483833z" fill-rule="evenodd"/><path fill="#fff6f6" d="m132.86504 128.27121l0 -10.484383l3.96875 0q1.046875 0 1.59375 0.09375q0.765625 0.125 1.28125 0.484375q0.53125 0.359375 0.84375 1.015625q0.328125 0.65625 0.328125 1.4375q0 1.328125 -0.859375 2.265625q-0.84375 0.921875 -3.078125 0.921875l-2.6875 0l0 4.2656326l-1.390625 0zm1.390625 -5.5000076l2.71875 0q1.34375 0 1.90625 -0.5q0.5625 -0.5 0.5625 -1.40625q0 -0.671875 -0.328125 -1.140625q-0.328125 -0.46875 -0.875 -0.609375q-0.359375 -0.09375 -1.296875 -0.09375l-2.6875 0l0 3.75zm8.213104 5.5000076l0 -7.5937576l1.15625 0l0 1.140625q0.453125 -0.796875 0.828125 -1.046875q0.375 -0.265625 0.8125 -0.265625q0.65625 0 1.328125 0.40625l-0.4375 1.203125q-0.46875 -0.28125 -0.953125 -0.28125q-0.421875 0 -0.765625 0.25q-0.328125 0.25 -0.46875 0.703125q-0.21875 0.6875 -0.21875 1.5l0 3.9843826l-1.28125 0zm4.4118958 -3.7968826q0 -2.109375 1.171875 -3.125q0.984375 -0.84375 2.390625 -0.84375q1.578125 0 2.5625 1.03125q1.0 1.015625 1.0 2.828125q0 1.46875 -0.4375 2.3125q-0.4375 0.828125 -1.28125 1.296875q-0.84375 0.46875763 -1.84375 0.46875763q-1.59375 0 -2.578125 -1.0156326q-0.984375 -1.03125 -0.984375 -2.953125zm1.328125 0q0 1.453125 0.625 2.1875q0.640625 0.71875 1.609375 0.71875q0.96875 0 1.59375 -0.71875q0.640625 -0.734375 0.640625 -2.234375q0 -1.40625 -0.640625 -2.125q-0.640625 -0.734375 -1.59375 -0.734375q-0.96875 0 -1.609375 0.71875q-0.625 0.71875 -0.625 2.1875zm12.260483 1.015625l1.265625 0.15625q-0.203125 1.3125 -1.0625 2.0625q-0.84375 0.7343826 -2.09375 0.7343826q-1.5625 0 -2.515625 -1.0156326q-0.9375 -1.03125 -0.9375 -2.921875q0 -1.234375 0.40625 -2.15625q0.40625 -0.921875 1.234375 -1.375q0.84375 -0.46875 1.8125 -0.46875q1.25 0 2.03125 0.625q0.78125 0.625 1.015625 1.765625l-1.265625 0.203125q-0.171875 -0.765625 -0.625 -1.15625q-0.453125 -0.390625 -1.09375 -0.390625q-0.984375 0 -1.59375 0.703125q-0.609375 0.703125 -0.609375 2.203125q0 1.53125 0.578125 2.234375q0.59375 0.6875 1.546875 0.6875q0.75 0 1.265625 -0.453125q0.515625 -0.46875 0.640625 -1.4375zm7.578125 0.328125l1.328125 0.171875q-0.3125 1.171875 -1.171875 1.8125q-0.84375 0.6406326 -2.171875 0.6406326q-1.671875 0 -2.65625 -1.0156326q-0.96875 -1.03125 -0.96875 -2.890625q0 -1.921875 0.984375 -2.96875q1.0 -1.0625 2.578125 -1.0625q1.515625 0 2.484375 1.03125q0.96875 1.03125 0.96875 2.921875q0 0.109375 -0.015625 0.34375l-5.65625 0q0.0625 1.25 0.703125 1.921875q0.640625 0.65625 1.59375 0.65625q0.703125 0 1.203125 -0.359375q0.5 -0.375 0.796875 -1.203125zm-4.234375 -2.078125l4.25 0q-0.09375 -0.953125 -0.484375 -1.4375q-0.625 -0.75 -1.609375 -0.75q-0.875 0 -1.484375 0.59375q-0.609375 0.59375 -0.671875 1.59375zm6.666733 2.265625l1.265625 -0.203125q0.109375 0.765625 0.59375 1.171875q0.5 0.40625 1.375 0.40625q0.890625 0 1.3125 -0.359375q0.4375 -0.359375 0.4375 -0.84375q0 -0.4375 -0.375 -0.6875q-0.265625 -0.171875 -1.3125 -0.4375q-1.421875 -0.359375 -1.96875 -0.609375q-0.546875 -0.265625 -0.828125 -0.734375q-0.28125 -0.46875 -0.28125 -1.015625q0 -0.515625 0.21875 -0.9375q0.234375 -0.4375 0.640625 -0.734375q0.296875 -0.21875 0.8125 -0.359375q0.53125 -0.15625 1.125 -0.15625q0.890625 0 1.5625 0.265625q0.671875 0.25 1.0 0.6875q0.328125 0.4375 0.4375 1.171875l-1.25 0.171875q-0.09375 -0.578125 -0.5 -0.90625q-0.40625 -0.34375 -1.15625 -0.34375q-0.890625 0 -1.28125 0.296875q-0.375 0.296875 -0.375 0.6875q0 0.25 0.15625 0.453125q0.15625 0.203125 0.5 0.34375q0.1875 0.078125 1.140625 0.328125q1.359375 0.359375 1.890625 0.59375q0.546875 0.234375 0.859375 0.6875q0.3125 0.4375 0.3125 1.09375q0 0.640625 -0.375 1.21875q-0.375 0.5625 -1.09375 0.8750076q-0.703125 0.3125 -1.59375 0.3125q-1.484375 0 -2.265625 -0.6093826q-0.765625 -0.625 -0.984375 -1.828125zm7.328125 0l1.265625 -0.203125q0.109375 0.765625 0.59375 1.171875q0.5 0.40625 1.375 0.40625q0.890625 0 1.3125 -0.359375q0.4375 -0.359375 0.4375 -0.84375q0 -0.4375 -0.375 -0.6875q-0.265625 -0.171875 -1.3125 -0.4375q-1.421875 -0.359375 -1.96875 -0.609375q-0.546875 -0.265625 -0.828125 -0.734375q-0.28125 -0.46875 -0.28125 -1.015625q0 -0.515625 0.21875 -0.9375q0.234375 -0.4375 0.640625 -0.734375q0.296875 -0.21875 0.8125 -0.359375q0.53125 -0.15625 1.125 -0.15625q0.890625 0 1.5625 0.265625q0.671875 0.25 1.0 0.6875q0.328125 0.4375 0.4375 1.171875l-1.25 0.171875q-0.09375 -0.578125 -0.5 -0.90625q-0.40625 -0.34375 -1.15625 -0.34375q-0.890625 0 -1.28125 0.296875q-0.375 0.296875 -0.375 0.6875q0 0.25 0.15625 0.453125q0.15625 0.203125 0.5 0.34375q0.1875 0.078125 1.140625 0.328125q1.359375 0.359375 1.890625 0.59375q0.546875 0.234375 0.859375 0.6875q0.3125 0.4375 0.3125 1.09375q0 0.640625 -0.375 1.21875q-0.375 0.5625 -1.09375 0.8750076q-0.703125 0.3125 -1.59375 0.3125q-1.484375 0 -2.265625 -0.6093826q-0.765625 -0.625 -0.984375 -1.828125zm8.53125 -0.34375l-0.390625 -5.5625l0 -2.3125l1.59375 0l0 2.3125l-0.375 5.5625l-0.828125 0zm-0.34375 2.6093826l0 -1.4687576l1.484375 0l0 1.4687576l-1.484375 0z" fill-rule="nonzero"/><path fill="#ff9191" d="m379.76117 130.99173l57.700775 -32.961548l57.700775 32.961548l-40.10031 0l0 21.526642l-35.200928 0l0 -21.526642z" fill-rule="evenodd"/><path stroke="#666666" stroke-width="1.0" stroke-linejoin="round" stroke-linecap="butt" d="m379.76117 130.99173l57.700775 -32.961548l57.700775 32.961548l-40.10031 0l0 21.526642l-35.200928 0l0 -21.526642z" fill-rule="evenodd"/><path fill="#fff6f6" d="m417.04773 120.789444l1.3125 -0.109375q0.09375 0.78125 0.421875 1.296875q0.34375 0.5 1.0625 0.8125q0.71875 0.3125 1.609375 0.3125q0.796875 0 1.40625 -0.234375q0.609375 -0.234375 0.90625 -0.640625q0.296875 -0.421875 0.296875 -0.90625q0 -0.5 -0.296875 -0.859375q-0.28125 -0.375 -0.9375 -0.625q-0.421875 -0.171875 -1.875 -0.515625q-1.4375 -0.34375 -2.015625 -0.65625q-0.75 -0.390625 -1.125 -0.96875q-0.359375 -0.59375 -0.359375 -1.3125q0 -0.796875 0.4375 -1.484375q0.453125 -0.6875 1.3125 -1.046875q0.875 -0.359375 1.9375 -0.359375q1.171875 0 2.0625 0.375q0.890625 0.375 1.359375 1.109375q0.484375 0.734375 0.515625 1.65625l-1.328125 0.09375q-0.109375 -1.0 -0.734375 -1.5q-0.609375 -0.515625 -1.8125 -0.515625q-1.265625 0 -1.84375 0.46875q-0.578125 0.46875 -0.578125 1.109375q0 0.5625 0.421875 0.9375q0.390625 0.359375 2.078125 0.75q1.703125 0.375 2.328125 0.65625q0.921875 0.421875 1.359375 1.078125q0.4375 0.640625 0.4375 1.484375q0 0.84375 -0.484375 1.59375q-0.484375 0.734375 -1.390625 1.140625q-0.890625 0.40625 -2.015625 0.40625q-1.421875 0 -2.390625 -0.40625q-0.953125 -0.421875 -1.5 -1.25q-0.546875 -0.828125 -0.578125 -1.890625zm15.291229 0.921875l1.328125 0.171875q-0.3125 1.171875 -1.171875 1.8125q-0.84375 0.640625 -2.171875 0.640625q-1.671875 0 -2.65625 -1.015625q-0.96875 -1.03125 -0.96875 -2.890625q0 -1.921875 0.984375 -2.96875q1.0 -1.0625 2.578125 -1.0625q1.515625 0 2.484375 1.03125q0.96875 1.03125 0.96875 2.921875q0 0.109375 -0.015625 0.34375l-5.65625 0q0.0625 1.25 0.703125 1.921875q0.640625 0.65625 1.59375 0.65625q0.703125 0 1.203125 -0.359375q0.5 -0.375 0.796875 -1.203125zm-4.234375 -2.078125l4.25 0q-0.09375 -0.953125 -0.484375 -1.4375q-0.625 -0.75 -1.609375 -0.75q-0.875 0 -1.484375 0.59375q-0.609375 0.59375 -0.671875 1.59375zm7.182373 4.53125l0 -7.59375l1.15625 0l0 1.078125q0.84375 -1.25 2.421875 -1.25q0.6875 0 1.265625 0.25q0.578125 0.234375 0.859375 0.640625q0.28125 0.40625 0.40625 0.953125q0.0625 0.359375 0.0625 1.25l0 4.671875l-1.28125 0l0 -4.625q0 -0.78125 -0.15625 -1.171875q-0.15625 -0.390625 -0.546875 -0.625q-0.375 -0.234375 -0.890625 -0.234375q-0.8125 0 -1.421875 0.53125q-0.59375 0.515625 -0.59375 1.96875l0 4.15625l-1.28125 0zm13.072968 0l0 -0.953125q-0.71875 1.125 -2.125 1.125q-0.90625 0 -1.671875 -0.5q-0.75 -0.5 -1.171875 -1.390625q-0.421875 -0.90625 -0.421875 -2.078125q0 -1.140625 0.375 -2.0625q0.390625 -0.921875 1.140625 -1.40625q0.765625 -0.5 1.703125 -0.5q0.6875 0 1.21875 0.296875q0.53125 0.28125 0.875 0.734375l0 -3.75l1.28125 0l0 10.484375l-1.203125 0zm-4.0625 -3.796875q0 1.46875 0.609375 2.1875q0.625 0.71875 1.453125 0.71875q0.84375 0 1.4375 -0.6875q0.59375 -0.6875 0.59375 -2.109375q0 -1.5625 -0.609375 -2.28125q-0.59375 -0.734375 -1.484375 -0.734375q-0.84375 0 -1.421875 0.703125q-0.578125 0.703125 -0.578125 2.203125zm7.979248 1.1875l-0.390625 -5.5625l0 -2.3125l1.59375 0l0 2.3125l-0.375 5.5625l-0.828125 0zm-0.34375 2.609375l0 -1.46875l1.484375 0l0 1.46875l-1.484375 0z" fill-rule="nonzero"/><path fill="#000000" fill-opacity="0.0" d="m640.27295 91.7769l0 0c12.019836 0 21.763794 0.81196594 21.763794 1.8135757l0 134.10513c0 1.0016022 -9.7439575 1.8135681 -21.763794 1.8135681z" fill-rule="evenodd"/><path fill="#000000" fill-opacity="0.0" d="m640.27295 91.7769l0 0c12.019836 0 21.763794 0.81196594 21.763794 1.8135757l0 134.10513c0 1.0016022 -9.7439575 1.8135681 -21.763794 1.8135681" fill-rule="evenodd"/><path stroke="#558fc4" stroke-width="4.0" stroke-linejoin="round" stroke-linecap="butt" d="m640.27295 91.7769l0 0c12.019836 0 21.763794 0.81196594 21.763794 1.8135757l0 134.10513c0 1.0016022 -9.7439575 1.8135681 -21.763794 1.8135681" fill-rule="evenodd"/></g></svg>