<svg version="1.1" viewBox="0.0 0.0 694.0 154.0" fill="none" stroke="none" stroke-linecap="square" stroke-miterlimit="10" xmlns:xlink="http://www.w3.org/1999/xlink" xmlns="http://www.w3.org/2000/svg"><clipPath id="p.0"><path d="m0 0l694.0 0l0 154.0l-694.0 0l0 -154.0z" clip-rule="nonzero"/></clipPath><g clip-path="url(#p.0)"><path fill="#000000" fill-opacity="0.0" d="m0 0l694.0 0l0 154.0l-694.0 0z" fill-rule="evenodd"/><path fill="#000000" fill-opacity="0.0" d="m51.04987 102.55905l610.83466 0" fill-rule="evenodd"/><path stroke="#999999" stroke-width="8.0" stroke-linejoin="round" stroke-linecap="butt" d="m51.04987 102.55905l583.41797 0" fill-rule="evenodd"/><path fill="#999999" stroke="#999999" stroke-width="8.0" stroke-linecap="butt" d="m634.46783 102.55905l-8.996704 8.996674l24.71814 -8.996674l-24.71814 -8.996666z" fill-rule="evenodd"/><path fill="#000000" fill-opacity="0.0" d="m387.14435 69.82103l0 0c0 -6.1139984 4.9563904 -11.070374 11.070374 -11.070374l157.98523 0c2.9360352 0 5.751831 1.1663399 7.827942 3.2424393c2.0761108 2.0760956 3.2424316 4.8918915 3.2424316 7.8279343l0 34.237206c0 6.1139984 -4.95636 11.070374 -11.070374 11.070374l-157.98523 0c-6.113983 0 -11.070374 -4.956375 -11.070374 -11.070374z" fill-rule="evenodd"/><path fill="#000000" fill-opacity="0.0" d="m398.21472 115.12861c-6.113983 0 -11.070374 -4.956375 -11.070374 -11.070374l0 -34.237206l0 0c0 -6.1139984 4.9563904 -11.070374 11.070374 -11.070374m157.98523 0c2.9360352 0 5.751831 1.1663399 7.827942 3.2424393c2.0761108 2.0760956 3.2424316 4.8918915 3.2424316 7.8279343l0 34.237206c0 6.1139984 -4.95636 11.070374 -11.070374 11.070374" fill-rule="evenodd"/><path stroke="#595959" stroke-width="2.0" stroke-linejoin="round" stroke-linecap="butt" d="m398.21472 115.12861c-6.113983 0 -11.070374 -4.956375 -11.070374 -11.070374l0 -34.237206l0 0c0 -6.1139984 4.9563904 -11.070374 11.070374 -11.070374m157.98523 0c2.9360352 0 5.751831 1.1663399 7.827942 3.2424393c2.0761108 2.0760956 3.2424316 4.8918915 3.2424316 7.8279343l0 34.237206c0 6.1139984 -4.95636 11.070374 -11.070374 11.070374" fill-rule="evenodd"/><path fill="#b6d7a8" d="m404.57944 86.93982l0 0c0 5.8359528 4.5829163 10.566925 10.236237 10.566925l0 0c2.7148132 0 5.3184204 -1.1132965 7.238098 -3.0949783c1.9196472 -1.9816818 2.998108 -4.669426 2.998108 -7.4719467l0 0c0 -5.8359528 -4.5829163 -10.566933 -10.236206 -10.566933l0 0c-5.6533203 0 -10.236237 4.73098 -10.236237 10.566933z" fill-rule="evenodd"/><path stroke="#595959" stroke-width="1.0" stroke-linejoin="round" stroke-linecap="butt" d="m404.57944 86.93982l0 0c0 5.8359528 4.5829163 10.566925 10.236237 10.566925l0 0c2.7148132 0 5.3184204 -1.1132965 7.238098 -3.0949783c1.9196472 -1.9816818 2.998108 -4.669426 2.998108 -7.4719467l0 0c0 -5.8359528 -4.5829163 -10.566933 -10.236206 -10.566933l0 0c-5.6533203 0 -10.236237 4.73098 -10.236237 10.566933z" fill-rule="evenodd"/><path fill="#e6c9af" d="m454.3925 86.93982l0 0c0 5.8359528 4.5829163 10.566925 10.236237 10.566925l0 0c2.7148132 0 5.3184204 -1.1132965 7.238098 -3.0949783c1.9196777 -1.9816818 2.998108 -4.669426 2.998108 -7.4719467l0 0c0 -5.8359528 -4.5829163 -10.566933 -10.236206 -10.566933l0 0c-5.6533203 0 -10.236237 4.73098 -10.236237 10.566933z" fill-rule="evenodd"/><path stroke="#595959" stroke-width="1.0" stroke-linejoin="round" stroke-linecap="butt" d="m454.3925 86.93982l0 0c0 5.8359528 4.5829163 10.566925 10.236237 10.566925l0 0c2.7148132 0 5.3184204 -1.1132965 7.238098 -3.0949783c1.9196777 -1.9816818 2.998108 -4.669426 2.998108 -7.4719467l0 0c0 -5.8359528 -4.5829163 -10.566933 -10.236206 -10.566933l0 0c-5.6533203 0 -10.236237 4.73098 -10.236237 10.566933z" fill-rule="evenodd"/><path fill="#f4cccc" d="m527.3457 86.93982l0 0c0 5.8359528 4.5828857 10.566925 10.236206 10.566925l0 0c2.7148438 0 5.3184204 -1.1132965 7.238098 -3.0949783c1.9196777 -1.9816818 2.998108 -4.669426 2.998108 -7.4719467l0 0c0 -5.8359528 -4.5828857 -10.566933 -10.236206 -10.566933l0 0c-5.6533203 0 -10.236206 4.73098 -10.236206 10.566933z" fill-rule="evenodd"/><path stroke="#595959" stroke-width="1.0" stroke-linejoin="round" stroke-linecap="butt" d="m527.3457 86.93982l0 0c0 5.8359528 4.5828857 10.566925 10.236206 10.566925l0 0c2.7148438 0 5.3184204 -1.1132965 7.238098 -3.0949783c1.9196777 -1.9816818 2.998108 -4.669426 2.998108 -7.4719467l0 0c0 -5.8359528 -4.5828857 -10.566933 -10.236206 -10.566933l0 0c-5.6533203 0 -10.236206 4.73098 -10.236206 10.566933z" fill-rule="evenodd"/><path fill="#000000" fill-opacity="0.0" d="m98.333336 70.33284l0 0c0 -6.1139984 4.956375 -11.070374 11.070374 -11.070374l182.1427 0c2.9360657 0 5.751831 1.1663399 7.827942 3.2424393c2.0761108 2.0760956 3.2424316 4.8918915 3.2424316 7.8279343l0 34.237206c0 6.1139984 -4.95636 11.070374 -11.070374 11.070374l-182.1427 0c-6.1139984 0 -11.070374 -4.956375 -11.070374 -11.070374z" fill-rule="evenodd"/><path fill="#000000" fill-opacity="0.0" d="m109.40371 115.64042c-6.1139984 0 -11.070374 -4.956375 -11.070374 -11.070374l0 -34.237206l0 0c0 -6.1139984 4.956375 -11.070374 11.070374 -11.070374m182.1427 0c2.9360657 0 5.751831 1.1663399 7.827942 3.2424393c2.0761108 2.0760956 3.2424316 4.8918915 3.2424316 7.8279343l0 34.237206c0 6.1139984 -4.95636 11.070374 -11.070374 11.070374" fill-rule="evenodd"/><path stroke="#595959" stroke-width="2.0" stroke-linejoin="round" stroke-linecap="butt" d="m109.40371 115.64042c-6.1139984 0 -11.070374 -4.956375 -11.070374 -11.070374l0 -34.237206l0 0c0 -6.1139984 4.956375 -11.070374 11.070374 -11.070374m182.1427 0c2.9360657 0 5.751831 1.1663399 7.827942 3.2424393c2.0761108 2.0760956 3.2424316 4.8918915 3.2424316 7.8279343l0 34.237206c0 6.1139984 -4.95636 11.070374 -11.070374 11.070374" fill-rule="evenodd"/><path fill="#d8eeff" d="m263.3622 86.93982l0 0c0 -5.8359528 4.730957 -10.566933 10.566925 -10.566933l0 0c2.8025208 0 5.490265 1.1132965 7.4719543 3.094986c1.9816589 1.9816818 3.0949707 4.6694183 3.0949707 7.4719467l0 0c0 5.8359528 -4.7309875 10.566925 -10.566925 10.566925l0 0c-5.835968 0 -10.566925 -4.7309723 -10.566925 -10.566925z" fill-rule="evenodd"/><path stroke="#595959" stroke-width="1.0" stroke-linejoin="round" stroke-linecap="butt" d="m263.3622 86.93982l0 0c0 -5.8359528 4.730957 -10.566933 10.566925 -10.566933l0 0c2.8025208 0 5.490265 1.1132965 7.4719543 3.094986c1.9816589 1.9816818 3.0949707 4.6694183 3.0949707 7.4719467l0 0c0 5.8359528 -4.7309875 10.566925 -10.566925 10.566925l0 0c-5.835968 0 -10.566925 -4.7309723 -10.566925 -10.566925z" fill-rule="evenodd"/><path fill="#f4cccc" d="m116.77614 86.93982l0 0c0 5.8359528 4.5829086 10.566925 10.236221 10.566925l0 0c2.7148132 0 5.3184357 -1.1132965 7.238098 -3.0949783c1.9196625 -1.9816818 2.9981232 -4.669426 2.9981232 -7.4719467l0 0c0 -5.8359528 -4.5829163 -10.566933 -10.236221 -10.566933l0 0c-5.6533127 0 -10.236221 4.73098 -10.236221 10.566933z" fill-rule="evenodd"/><path stroke="#595959" stroke-width="1.0" stroke-linejoin="round" stroke-linecap="butt" d="m116.77614 86.93982l0 0c0 5.8359528 4.5829086 10.566925 10.236221 10.566925l0 0c2.7148132 0 5.3184357 -1.1132965 7.238098 -3.0949783c1.9196625 -1.9816818 2.9981232 -4.669426 2.9981232 -7.4719467l0 0c0 -5.8359528 -4.5829163 -10.566933 -10.236221 -10.566933l0 0c-5.6533127 0 -10.236221 4.73098 -10.236221 10.566933z" fill-rule="evenodd"/><path fill="#ffe599" d="m146.46274 86.93982l0 0c0 5.8359528 4.582901 10.566925 10.236221 10.566925l0 0c2.7148132 0 5.3184357 -1.1132965 7.238098 -3.0949783c1.9196625 -1.9816818 2.9981232 -4.669426 2.9981232 -7.4719467l0 0c0 -5.8359528 -4.5829163 -10.566933 -10.236221 -10.566933l0 0c-5.6533203 0 -10.236221 4.73098 -10.236221 10.566933z" fill-rule="evenodd"/><path stroke="#595959" stroke-width="1.0" stroke-linejoin="round" stroke-linecap="butt" d="m146.46274 86.93982l0 0c0 5.8359528 4.582901 10.566925 10.236221 10.566925l0 0c2.7148132 0 5.3184357 -1.1132965 7.238098 -3.0949783c1.9196625 -1.9816818 2.9981232 -4.669426 2.9981232 -7.4719467l0 0c0 -5.8359528 -4.5829163 -10.566933 -10.236221 -10.566933l0 0c-5.6533203 0 -10.236221 4.73098 -10.236221 10.566933z" fill-rule="evenodd"/><path fill="#e6c9af" d="m186.20615 86.93982l0 0c0 5.8359528 4.5829163 10.566925 10.236221 10.566925l0 0c2.7148132 0 5.3184357 -1.1132965 7.238098 -3.0949783c1.9196625 -1.9816818 2.9981232 -4.669426 2.9981232 -7.4719467l0 0c0 -5.8359528 -4.5829163 -10.566933 -10.236221 -10.566933l0 0c-5.653305 0 -10.236221 4.73098 -10.236221 10.566933z" fill-rule="evenodd"/><path stroke="#595959" stroke-width="1.0" stroke-linejoin="round" stroke-linecap="butt" d="m186.20615 86.93982l0 0c0 5.8359528 4.5829163 10.566925 10.236221 10.566925l0 0c2.7148132 0 5.3184357 -1.1132965 7.238098 -3.0949783c1.9196625 -1.9816818 2.9981232 -4.669426 2.9981232 -7.4719467l0 0c0 -5.8359528 -4.5829163 -10.566933 -10.236221 -10.566933l0 0c-5.653305 0 -10.236221 4.73098 -10.236221 10.566933z" fill-rule="evenodd"/><path fill="#b6d7a8" d="m219.4141 86.93982l0 0c0 5.8359528 4.5829163 10.566925 10.236221 10.566925l0 0c2.7148132 0 5.3184357 -1.1132965 7.238098 -3.0949783c1.9196625 -1.9816818 2.9981232 -4.669426 2.9981232 -7.4719467l0 0c0 -5.8359528 -4.5829163 -10.566933 -10.236221 -10.566933l0 0c-5.653305 0 -10.236221 4.73098 -10.236221 10.566933z" fill-rule="evenodd"/><path stroke="#595959" stroke-width="1.0" stroke-linejoin="round" stroke-linecap="butt" d="m219.4141 86.93982l0 0c0 5.8359528 4.5829163 10.566925 10.236221 10.566925l0 0c2.7148132 0 5.3184357 -1.1132965 7.238098 -3.0949783c1.9196625 -1.9816818 2.9981232 -4.669426 2.9981232 -7.4719467l0 0c0 -5.8359528 -4.5829163 -10.566933 -10.236221 -10.566933l0 0c-5.653305 0 -10.236221 4.73098 -10.236221 10.566933z" fill-rule="evenodd"/><path fill="#d8eeff" d="m499.8491 86.93982l0 0c0 -5.8359528 4.730957 -10.566933 10.566925 -10.566933l0 0c2.8024902 0 5.4902344 1.1132965 7.471924 3.094986c1.9816895 1.9816818 3.0949707 4.6694183 3.0949707 7.4719467l0 0c0 5.8359528 -4.730957 10.566925 -10.566895 10.566925l0 0c-5.835968 0 -10.566925 -4.7309723 -10.566925 -10.566925z" fill-rule="evenodd"/><path stroke="#595959" stroke-width="1.0" stroke-linejoin="round" stroke-linecap="butt" d="m499.8491 86.93982l0 0c0 -5.8359528 4.730957 -10.566933 10.566925 -10.566933l0 0c2.8024902 0 5.4902344 1.1132965 7.471924 3.094986c1.9816895 1.9816818 3.0949707 4.6694183 3.0949707 7.4719467l0 0c0 5.8359528 -4.730957 10.566925 -10.566895 10.566925l0 0c-5.835968 0 -10.566925 -4.7309723 -10.566925 -10.566925z" fill-rule="evenodd"/><path fill="#000000" fill-opacity="0.0" d="m147.8924 17.0l105.165344 0l0 36.220474l-105.165344 0z" fill-rule="evenodd"/><path fill="#000000" d="m157.73615 39.623123l1.65625 -0.140625q0.125 1.0 0.546875 1.640625q0.4375 0.640625 1.34375 1.046875q0.921875 0.390625 2.0625 0.390625q1.0 0 1.78125 -0.296875q0.78125 -0.296875 1.15625 -0.8125q0.375 -0.53125 0.375 -1.15625q0 -0.625 -0.375 -1.09375q-0.359375 -0.46875 -1.1875 -0.796875q-0.546875 -0.203125 -2.390625 -0.640625q-1.828125 -0.453125 -2.5625 -0.84375q-0.96875 -0.5 -1.4375 -1.234375q-0.46875 -0.75 -0.46875 -1.671875q0 -1.0 0.578125 -1.875q0.578125 -0.890625 1.671875 -1.34375q1.109375 -0.453125 2.453125 -0.453125q1.484375 0 2.609375 0.484375q1.140625 0.46875 1.75 1.40625q0.609375 0.921875 0.65625 2.09375l-1.6875 0.125q-0.140625 -1.265625 -0.9375 -1.90625q-0.78125 -0.65625 -2.3125 -0.65625q-1.609375 0 -2.34375 0.59375q-0.734375 0.59375 -0.734375 1.421875q0 0.71875 0.53125 1.171875q0.5 0.46875 2.65625 0.96875q2.15625 0.484375 2.953125 0.84375q1.171875 0.53125 1.71875 1.359375q0.5625 0.828125 0.5625 1.90625q0 1.0625 -0.609375 2.015625q-0.609375 0.9375 -1.75 1.46875q-1.140625 0.515625 -2.578125 0.515625q-1.8125 0 -3.046875 -0.53125q-1.21875 -0.53125 -1.921875 -1.59375q-0.6875 -1.0625 -0.71875 -2.40625zm19.459198 1.1875l1.6875 0.203125q-0.40625 1.484375 -1.484375 2.3125q-1.078125 0.8125 -2.765625 0.8125q-2.125 0 -3.375 -1.296875q-1.234375 -1.3125 -1.234375 -3.671875q0 -2.453125 1.25 -3.796875q1.265625 -1.34375 3.265625 -1.34375q1.9375 0 3.15625 1.328125q1.234375 1.3125 1.234375 3.703125q0 0.15625 0 0.4375l-7.21875 0q0.09375 1.59375 0.90625 2.453125q0.8125 0.84375 2.015625 0.84375q0.90625 0 1.546875 -0.46875q0.640625 -0.484375 1.015625 -1.515625zm-5.390625 -2.65625l5.40625 0q-0.109375 -1.21875 -0.625 -1.828125q-0.78125 -0.953125 -2.03125 -0.953125q-1.125 0 -1.90625 0.765625q-0.765625 0.75 -0.84375 2.015625zm8.485092 2.875l1.625 -0.25q0.125 0.96875 0.75 1.5q0.625 0.515625 1.75 0.515625q1.125 0 1.671875 -0.453125q0.546875 -0.46875 0.546875 -1.09375q0 -0.546875 -0.484375 -0.875q-0.328125 -0.21875 -1.671875 -0.546875q-1.8125 -0.46875 -2.515625 -0.796875q-0.6875 -0.328125 -1.046875 -0.90625q-0.359375 -0.59375 -0.359375 -1.3125q0 -0.640625 0.296875 -1.1875q0.296875 -0.5625 0.8125 -0.921875q0.375 -0.28125 1.03125 -0.46875q0.671875 -0.203125 1.421875 -0.203125q1.140625 0 2.0 0.328125q0.859375 0.328125 1.265625 0.890625q0.421875 0.5625 0.578125 1.5l-1.609375 0.21875q-0.109375 -0.75 -0.640625 -1.171875q-0.515625 -0.421875 -1.46875 -0.421875q-1.140625 0 -1.625 0.375q-0.46875 0.375 -0.46875 0.875q0 0.3125 0.1875 0.578125q0.203125 0.265625 0.640625 0.4375q0.234375 0.09375 1.4375 0.421875q1.75 0.453125 2.4375 0.75q0.6875 0.296875 1.078125 0.859375q0.390625 0.5625 0.390625 1.40625q0 0.828125 -0.484375 1.546875q-0.46875 0.71875 -1.375 1.125q-0.90625 0.390625 -2.046875 0.390625q-1.875 0 -2.875 -0.78125q-0.984375 -0.78125 -1.25 -2.328125zm9.328125 0l1.625 -0.25q0.125 0.96875 0.75 1.5q0.625 0.515625 1.75 0.515625q1.125 0 1.671875 -0.453125q0.546875 -0.46875 0.546875 -1.09375q0 -0.546875 -0.484375 -0.875q-0.328125 -0.21875 -1.671875 -0.546875q-1.8125 -0.46875 -2.515625 -0.796875q-0.6875 -0.328125 -1.046875 -0.90625q-0.359375 -0.59375 -0.359375 -1.3125q0 -0.640625 0.296875 -1.1875q0.296875 -0.5625 0.8125 -0.921875q0.375 -0.28125 1.03125 -0.46875q0.671875 -0.203125 1.421875 -0.203125q1.140625 0 2.0 0.328125q0.859375 0.328125 1.265625 0.890625q0.421875 0.5625 0.578125 1.5l-1.609375 0.21875q-0.109375 -0.75 -0.640625 -1.171875q-0.515625 -0.421875 -1.46875 -0.421875q-1.140625 0 -1.625 0.375q-0.46875 0.375 -0.46875 0.875q0 0.3125 0.1875 0.578125q0.203125 0.265625 0.640625 0.4375q0.234375 0.09375 1.4375 0.421875q1.75 0.453125 2.4375 0.75q0.6875 0.296875 1.078125 0.859375q0.390625 0.5625 0.390625 1.40625q0 0.828125 -0.484375 1.546875q-0.46875 0.71875 -1.375 1.125q-0.90625 0.390625 -2.046875 0.390625q-1.875 0 -2.875 -0.78125q-0.984375 -0.78125 -1.25 -2.328125zm9.984375 -8.578125l0 -1.890625l1.640625 0l0 1.890625l-1.640625 0zm0 11.46875l0 -9.671875l1.640625 0l0 9.671875l-1.640625 0zm3.5354462 -4.84375q0 -2.6875 1.484375 -3.96875q1.25 -1.078125 3.046875 -1.078125q2.0 0 3.265625 1.3125q1.265625 1.296875 1.265625 3.609375q0 1.859375 -0.5625 2.9375q-0.5625 1.0625 -1.640625 1.65625q-1.0625 0.59375 -2.328125 0.59375q-2.03125 0 -3.28125 -1.296875q-1.25 -1.3125 -1.25 -3.765625zm1.6875 0q0 1.859375 0.796875 2.796875q0.8125 0.921875 2.046875 0.921875q1.21875 0 2.03125 -0.921875q0.8125 -0.9375 0.8125 -2.84375q0 -1.796875 -0.8125 -2.71875q-0.8125 -0.921875 -2.03125 -0.921875q-1.234375 0 -2.046875 0.921875q-0.796875 0.90625 -0.796875 2.765625zm9.297592 4.84375l0 -9.671875l1.46875 0l0 1.375q1.0625 -1.59375 3.078125 -1.59375q0.875 0 1.609375 0.3125q0.734375 0.3125 1.09375 0.828125q0.375 0.5 0.515625 1.203125q0.09375 0.453125 0.09375 1.59375l0 5.953125l-1.640625 0l0 -5.890625q0 -1.0 -0.203125 -1.484375q-0.1875 -0.5 -0.671875 -0.796875q-0.484375 -0.296875 -1.140625 -0.296875q-1.046875 0 -1.8125 0.671875q-0.75 0.65625 -0.75 2.515625l0 5.28125l-1.640625 0zm21.277771 0l-1.640625 0l0 -10.453125q-0.59375 0.5625 -1.5625 1.140625q-0.953125 0.5625 -1.71875 0.84375l0 -1.59375q1.375 -0.640625 2.40625 -1.5625q1.03125 -0.921875 1.453125 -1.78125l1.0625 0l0 13.40625z" fill-rule="nonzero"/><path fill="#000000" fill-opacity="0.0" d="m426.38846 17.0l101.63779 0l0 36.220474l-101.63779 0z" fill-rule="evenodd"/><path fill="#000000" d="m436.2322 39.623123l1.65625 -0.140625q0.125 1.0 0.546875 1.640625q0.4375 0.640625 1.34375 1.046875q0.921875 0.390625 2.0625 0.390625q1.0 0 1.78125 -0.296875q0.78125 -0.296875 1.15625 -0.8125q0.375 -0.53125 0.375 -1.15625q0 -0.625 -0.375 -1.09375q-0.359375 -0.46875 -1.1875 -0.796875q-0.546875 -0.203125 -2.390625 -0.640625q-1.828125 -0.453125 -2.5625 -0.84375q-0.96875 -0.5 -1.4375 -1.234375q-0.46875 -0.75 -0.46875 -1.671875q0 -1.0 0.578125 -1.875q0.578125 -0.890625 1.671875 -1.34375q1.109375 -0.453125 2.453125 -0.453125q1.484375 0 2.609375 0.484375q1.140625 0.46875 1.75 1.40625q0.609375 0.921875 0.65625 2.09375l-1.6875 0.125q-0.140625 -1.265625 -0.9375 -1.90625q-0.78125 -0.65625 -2.3125 -0.65625q-1.609375 0 -2.34375 0.59375q-0.734375 0.59375 -0.734375 1.421875q0 0.71875 0.53125 1.171875q0.5 0.46875 2.65625 0.96875q2.15625 0.484375 2.953125 0.84375q1.171875 0.53125 1.71875 1.359375q0.5625 0.828125 0.5625 1.90625q0 1.0625 -0.609375 2.015625q-0.609375 0.9375 -1.75 1.46875q-1.140625 0.515625 -2.578125 0.515625q-1.8125 0 -3.046875 -0.53125q-1.21875 -0.53125 -1.921875 -1.59375q-0.6875 -1.0625 -0.71875 -2.40625zm19.459198 1.1875l1.6875 0.203125q-0.40625 1.484375 -1.484375 2.3125q-1.078125 0.8125 -2.765625 0.8125q-2.125 0 -3.375 -1.296875q-1.234375 -1.3125 -1.234375 -3.671875q0 -2.453125 1.25 -3.796875q1.265625 -1.34375 3.265625 -1.34375q1.9375 0 3.15625 1.328125q1.234375 1.3125 1.234375 3.703125q0 0.15625 0 0.4375l-7.21875 0q0.09375 1.59375 0.90625 2.453125q0.8125 0.84375 2.015625 0.84375q0.90625 0 1.546875 -0.46875q0.640625 -0.484375 1.015625 -1.515625zm-5.390625 -2.65625l5.40625 0q-0.109375 -1.21875 -0.625 -1.828125q-0.78125 -0.953125 -2.03125 -0.953125q-1.125 0 -1.90625 0.765625q-0.765625 0.75 -0.84375 2.015625zm8.485077 2.875l1.625 -0.25q0.125 0.96875 0.75 1.5q0.625 0.515625 1.75 0.515625q1.125 0 1.671875 -0.453125q0.546875 -0.46875 0.546875 -1.09375q0 -0.546875 -0.484375 -0.875q-0.328125 -0.21875 -1.671875 -0.546875q-1.8125 -0.46875 -2.515625 -0.796875q-0.6875 -0.328125 -1.046875 -0.90625q-0.359375 -0.59375 -0.359375 -1.3125q0 -0.640625 0.296875 -1.1875q0.296875 -0.5625 0.8125 -0.921875q0.375 -0.28125 1.03125 -0.46875q0.671875 -0.203125 1.421875 -0.203125q1.140625 0 2.0 0.328125q0.859375 0.328125 1.265625 0.890625q0.421875 0.5625 0.578125 1.5l-1.609375 0.21875q-0.109375 -0.75 -0.640625 -1.171875q-0.515625 -0.421875 -1.46875 -0.421875q-1.140625 0 -1.625 0.375q-0.46875 0.375 -0.46875 0.875q0 0.3125 0.1875 0.578125q0.203125 0.265625 0.640625 0.4375q0.234375 0.09375 1.4375 0.421875q1.75 0.453125 2.4375 0.75q0.6875 0.296875 1.078125 0.859375q0.390625 0.5625 0.390625 1.40625q0 0.828125 -0.484375 1.546875q-0.46875 0.71875 -1.375 1.125q-0.90625 0.390625 -2.046875 0.390625q-1.875 0 -2.875 -0.78125q-0.984375 -0.78125 -1.25 -2.328125zm9.328125 0l1.625 -0.25q0.125 0.96875 0.75 1.5q0.625 0.515625 1.75 0.515625q1.125 0 1.671875 -0.453125q0.546875 -0.46875 0.546875 -1.09375q0 -0.546875 -0.484375 -0.875q-0.328125 -0.21875 -1.671875 -0.546875q-1.8125 -0.46875 -2.515625 -0.796875q-0.6875 -0.328125 -1.046875 -0.90625q-0.359375 -0.59375 -0.359375 -1.3125q0 -0.640625 0.296875 -1.1875q0.296875 -0.5625 0.8125 -0.921875q0.375 -0.28125 1.03125 -0.46875q0.671875 -0.203125 1.421875 -0.203125q1.140625 0 2.0 0.328125q0.859375 0.328125 1.265625 0.890625q0.421875 0.5625 0.578125 1.5l-1.609375 0.21875q-0.109375 -0.75 -0.640625 -1.171875q-0.515625 -0.421875 -1.46875 -0.421875q-1.140625 0 -1.625 0.375q-0.46875 0.375 -0.46875 0.875q0 0.3125 0.1875 0.578125q0.203125 0.265625 0.640625 0.4375q0.234375 0.09375 1.4375 0.421875q1.75 0.453125 2.4375 0.75q0.6875 0.296875 1.078125 0.859375q0.390625 0.5625 0.390625 1.40625q0 0.828125 -0.484375 1.546875q-0.46875 0.71875 -1.375 1.125q-0.90625 0.390625 -2.046875 0.390625q-1.875 0 -2.875 -0.78125q-0.984375 -0.78125 -1.25 -2.328125zm9.984375 -8.578125l0 -1.890625l1.640625 0l0 1.890625l-1.640625 0zm0 11.46875l0 -9.671875l1.640625 0l0 9.671875l-1.640625 0zm3.5354614 -4.84375q0 -2.6875 1.484375 -3.96875q1.25 -1.078125 3.046875 -1.078125q2.0 0 3.265625 1.3125q1.265625 1.296875 1.265625 3.609375q0 1.859375 -0.5625 2.9375q-0.5625 1.0625 -1.640625 1.65625q-1.0625 0.59375 -2.328125 0.59375q-2.03125 0 -3.28125 -1.296875q-1.25 -1.3125 -1.25 -3.765625zm1.6875 0q0 1.859375 0.796875 2.796875q0.8125 0.921875 2.046875 0.921875q1.21875 0 2.03125 -0.921875q0.8125 -0.9375 0.8125 -2.84375q0 -1.796875 -0.8125 -2.71875q-0.8125 -0.921875 -2.03125 -0.921875q-1.234375 0 -2.046875 0.921875q-0.796875 0.90625 -0.796875 2.765625zm9.297577 4.84375l0 -9.671875l1.46875 0l0 1.375q1.0625 -1.59375 3.078125 -1.59375q0.875 0 1.609375 0.3125q0.734375 0.3125 1.09375 0.828125q0.375 0.5 0.515625 1.203125q0.09375 0.453125 0.09375 1.59375l0 5.953125l-1.640625 0l0 -5.890625q0 -1.0 -0.203125 -1.484375q-0.1875 -0.5 -0.671875 -0.796875q-0.484375 -0.296875 -1.140625 -0.296875q-1.046875 0 -1.8125 0.671875q-0.75 0.65625 -0.75 2.515625l0 5.28125l-1.640625 0zm23.715271 -1.578125l0 1.578125l-8.828125 0q-0.015625 -0.59375 0.1875 -1.140625q0.34375 -0.90625 1.078125 -1.78125q0.75 -0.875 2.15625 -2.015625q2.171875 -1.78125 2.9375 -2.828125q0.765625 -1.046875 0.765625 -1.96875q0 -0.984375 -0.703125 -1.640625q-0.6875 -0.671875 -1.8125 -0.671875q-1.1875 0 -1.90625 0.71875q-0.703125 0.703125 -0.703125 1.953125l-1.6875 -0.171875q0.171875 -1.890625 1.296875 -2.875q1.140625 -0.984375 3.03125 -0.984375q1.921875 0 3.046875 1.0625q1.125 1.0625 1.125 2.640625q0 0.796875 -0.328125 1.578125q-0.328125 0.78125 -1.09375 1.640625q-0.75 0.84375 -2.53125 2.34375q-1.46875 1.234375 -1.890625 1.6875q-0.421875 0.4375 -0.6875 0.875l6.546875 0z" fill-rule="nonzero"/></g></svg>