<?xml version="1.0" encoding="UTF-8" standalone="no"?>
<!-- Generator: Adobe Illustrator 13.0.0, SVG Export Plug-In . SVG Version: 6.00 Build 14948)  -->

<svg
   xmlns:dc="http://purl.org/dc/elements/1.1/"
   xmlns:cc="http://creativecommons.org/ns#"
   xmlns:rdf="http://www.w3.org/1999/02/22-rdf-syntax-ns#"
   xmlns:svg="http://www.w3.org/2000/svg"
   xmlns="http://www.w3.org/2000/svg"
   xmlns:sodipodi="http://sodipodi.sourceforge.net/DTD/sodipodi-0.dtd"
   xmlns:inkscape="http://www.inkscape.org/namespaces/inkscape"
   version="1.1"
   id="Layer_1"
   x="0px"
   y="0px"
   width="1000.012"
   height="1145.021"
   viewBox="0 0 1000.012 1145.021"
   enable-background="new 0 0 300 300"
   xml:space="preserve"
   inkscape:version="0.91 r13725"
   sodipodi:docname="Adobe_1993.svg"><metadata
   id="metadata25"><rdf:RDF><cc:Work
       rdf:about=""><dc:format>image/svg+xml</dc:format><dc:type
         rdf:resource="http://purl.org/dc/dcmitype/StillImage" /><dc:title /></cc:Work></rdf:RDF></metadata><defs
   id="defs23" /><sodipodi:namedview
   pagecolor="#ffffff"
   bordercolor="#666666"
   borderopacity="1"
   objecttolerance="10"
   gridtolerance="10"
   guidetolerance="10"
   inkscape:pageopacity="0"
   inkscape:pageshadow="2"
   inkscape:window-width="1366"
   inkscape:window-height="705"
   id="namedview21"
   showgrid="false"
   inkscape:zoom="0.35355339"
   inkscape:cx="531.06511"
   inkscape:cy="643.92575"
   inkscape:window-x="-8"
   inkscape:window-y="-8"
   inkscape:window-maximized="1"
   inkscape:current-layer="Layer_1" />








<path
   d="m 931.4897,57.814778 6.95013,0 c 8.56877,0 15.58684,-2.841601 15.58684,-10.355259 0,-5.651229 -4.1445,-10.882813 -15.02731,-10.882813 -3.40513,0 -5.72317,0 -7.51366,0.247791 l 0,20.990281 z m 0,36.505185 -11.65417,0 0,-64.72936 c 5.40744,-0.771349 10.85084,-1.826458 19.41162,-1.826458 10.35526,0 16.8138,2.106222 20.95431,5.231584 3.61695,2.841601 5.6872,7.193927 5.6872,13.444651 0,8.285006 -5.43941,13.688445 -12.38954,15.514903 l 0,0.491585 c 5.65123,1.055109 9.26418,6.214754 10.56708,15.830637 1.54669,10.107468 2.8416,13.936236 3.89671,16.042458 l -11.90196,0 c -1.54669,-2.106222 -2.87757,-8.037216 -4.17647,-16.534043 -1.26293,-7.825395 -5.65123,-10.914787 -13.69244,-10.914787 l -6.70634,0 0,27.44883 z m 10.60304,-82.070721 c -25.62636,0 -46.33688,21.481866 -46.33688,48.407137 0,26.925272 20.71052,48.407141 46.58068,48.407141 25.62237,0.27976 46.08909,-21.481869 46.08909,-48.407141 0,-26.925271 -20.46672,-48.407137 -46.08909,-48.407137 l -0.2438,0 z m 0.2438,-9.8277045 c 32.04895,0 57.67536,25.9061315 57.67536,57.9910475 0,32.612471 -25.62641,58.482635 -57.91916,58.482635 -32.3327,0 -58.48263,-25.870164 -58.48263,-58.482635 0,-32.084916 26.14993,-57.9910475 58.48263,-57.9910475 l 0.2438,0 z"
   id="path3"
   inkscape:connector-curvature="0" /><g
   id="g4156"><path
     inkscape:connector-curvature="0"
     id="path5"
     d="m 111.37798,1040.4813 -9.72379,-57.59941 c -2.773659,-16.60198 -6.318666,-42.54808 -9.020386,-60.52091 l -1.055109,0 c -2.841601,18.10872 -6.810251,44.79019 -9.723792,60.6608 l -10.463167,57.45952 39.986244,0 z m -45.209835,37.5323 -12.637332,63.922 -46.6845921,0 58.2348421,-265.93948 57.215697,0 52.89935,265.93948 -46.92839,0 -12.35756,-63.922 -49.742015,0 z" /><path
     inkscape:connector-curvature="0"
     id="path7"
     d="m 281.45441,1023.1439 c 0,-3.545 0,-7.6895 -0.7034,-11.4823 -1.85843,-13.12892 -8.84454,-24.95493 -20.07905,-24.95493 -19.27173,0 -26.36175,27.76453 -26.36175,60.23713 0,37.3125 10.10747,58.5506 25.69431,58.5506 7.12599,0 15.33905,-3.6529 19.79929,-19.3117 1.08708,-3.1214 1.6506,-7.2978 1.6506,-12.1777 l 0,-50.8611 z m 47.91556,-154.20582 0,217.84812 c 0,17.2654 0.87925,38.5075 1.58266,55.1095 l -41.38506,0 -2.70172,-22.1533 -0.98317,0 c -6.95014,13.6604 -22.07737,25.2746 -40.15811,25.2746 -39.63054,0 -59.28595,-43.7351 -59.28595,-98.9564 0,-67.28724 29.30726,-100.00762 61.25229,-100.00762 16.7099,0 27.52077,8.1811 32.96418,20.01511 l 0.80732,0 0,-97.13001 47.90756,0 z" /><path
     inkscape:connector-curvature="0"
     id="path9"
     d="m 429.16573,1108.2681 c 18.28856,0 22.81673,-34.471 22.81673,-63.0109 0,-27.1331 -4.52817,-62.48721 -23.62006,-62.48721 -20.22293,0 -24.47134,35.35411 -24.47134,62.48721 0,32.7524 5.3355,63.0109 24.85102,63.0109 l 0.42365,0 z m -0.91124,36.7529 c -44.15872,0 -71.85534,-35.454 -71.85534,-98.9165 0,-69.26151 35.55798,-100.04752 72.9784,-100.04752 43.56322,0 70.87217,37.18061 70.87217,98.92452 0,79.333 -42.78788,100.0395 -71.60755,100.0395 l -0.38768,0 z" /><path
     inkscape:connector-curvature="0"
     id="path11"
     d="m 574.95066,1073.0937 c 0,4.808 0.87926,9.3042 1.8984,12.3176 4.80794,16.1184 12.95307,20.0831 19.47956,20.0831 18.53635,0 26.01404,-23.4882 26.01404,-61.0485 0,-34.1911 -7.90133,-57.73923 -26.22586,-57.73923 -9.08833,0 -16.74187,9.86767 -19.37565,20.46673 -0.91523,3.3332 -1.79049,8.5248 -1.79049,12.1058 l 0,53.8145 z m -47.91955,-204.15562 47.91556,0 0,100.39125 0.77135,0 c 9.44003,-14.81549 22.00942,-23.27635 40.26201,-23.27635 36.12151,0 54.27019,41.07333 54.27019,94.78002 0,67.8587 -27.06516,104.184 -62.13555,104.184 -16.7099,0 -27.8365,-7.4097 -37.87603,-26.1819 l -1.01115,0 -2.66575,23.0606 -41.14127,0 c 0.70341,-15.9706 1.61064,-37.8441 1.61064,-55.1095 l 0,-217.84812 z" /><path
     inkscape:connector-curvature="0"
     id="path13"
     d="m 785.07729,1027.1805 c 0.24779,-27.0612 -7.68951,-46.02515 -22.88868,-46.02515 -17.34136,0 -24.71514,25.38655 -25.2387,46.02515 l 48.12738,0 z m -48.30323,33.8794 c 0.56353,34.8546 18.88806,46.197 41.63286,46.197 14.42382,0 26.78139,-3.2013 35.90969,-6.6344 l 6.45854,34.4709 c -12.70927,5.4714 -32.3327,8.9125 -51.14882,8.9125 -51.42459,0 -79.50888,-35.1424 -79.50888,-95.1637 0,-64.41361 32.5765,-103.10095 75.12058,-103.10095 41.10531,0 63.88608,34.19113 63.88608,90.00405 0,12.7772 -0.52756,19.9751 -1.37085,25.5864 l -90.9792,-0.2718 z" /></g><g
   id="g4151"
   style="fill:#ed1c24;fill-opacity:1"><polygon
     transform="matrix(3.9966263,0,0,3.9966263,-172.14668,-31.058201)"
     style="fill:#ed1c24;fill-opacity:1"
     id="polygon15"
     points="173.845,7.771 250.539,7.771 250.539,191.383 " /><polygon
     transform="matrix(3.9966263,0,0,3.9966263,-172.14668,-31.058201)"
     style="fill:#ed1c24;fill-opacity:1"
     id="polygon17"
     points="119.811,7.771 43.073,7.771 43.073,191.383 " /><polygon
     transform="matrix(3.9966263,0,0,3.9966263,-172.14668,-31.058201)"
     style="fill:#ed1c24;fill-opacity:1"
     id="polygon19"
     points="113.294,154.441 146.837,75.427 195.697,191.373 163.683,191.373 149.067,154.441 " /></g>
</svg>