<svg xmlns="http://www.w3.org/2000/svg" width="2500" height="2500" viewBox="0 0 192.756 192.756"><g fill-rule="evenodd" clip-rule="evenodd"><path fill="#fff" d="M0 0h192.756v192.756H0V0z"/><path d="M66.355 75.039c-5.785 3.386-7.561 3.651-13.797 7.41 3.628-3.959 4.895-5.625 7.168-8.947-5.79.308-14.176.998-20.19 2.328 5.234-2.776 15.58-5.894 21.041-6.621-1.267-1.742-11.508-7.31-14.065-8.359 8.106.628 18.025 3.636 22.82 6.596 1.938-.583 3.874-.63 7.378-.936-.891 1.541-.905 2.436-4.37 4.712.96 2.556-1.322 16.63-3.199 20.375-.082-5.895-.608-13.339-2.786-16.558zM24.148 125.518c-3.332-1.227-5.723-2.66-8.338-5.113.787-2.156 1.683-3.869 3.156-6.023-2.713.387-4.674.682-6.997 1.139-1.902-3.32-2.74-6.498-3.709-10.92-.524 4.682-.714 8.035-.041 11.777-2.127.582-3.639 1.105-5.385 1.889 2.441 1.514 4.427 2.684 7.188 3.951 1.458 3.152 2.982 5.303 5.447 7.715-.587-2.059-.722-3.719-.512-5.875 3.085.899 5.698 1.346 9.191 1.46zM32.77 78.703c-1.049 1.341-2.235 3.837-2.554 5 8.522 1.176 15.394 5.546 15.394 5.546-7.5-1.321-11.414-1.159-14.196-.914-2.777.274-3.34.608-3.34.608-2.011 4.369-3.208 11.968-3.208 11.972-1.363-3.268-3.333-9.825-3.333-9.83-3.764 2.025-12.416 10.166-12.423 10.17 4.76-9.542 9.581-13.911 9.586-13.911-1.662-1.661-6.015-2.494-9.196-2.638 1.658-.681 5.904-1.479 9.164-1.616 3.254-.103 5.223.097 5.228.097 2.924-2.305 7.333-4.245 8.878-4.484zM41.813 119.613c-1.517 2.029-2.797 3.648-4.476 5.52-2.875.777-5.161 1.072-7.955 1.088 1.714.889 3.381 1.436 5.162 1.787-1.781 1.633-3.307 2.799-5.043 3.898 2.915-.703 6.772-1.947 9.622-3.613 1.475.041 2.877-.053 3.899-.234-.247-.889-.432-1.525-.648-2.664 2.697-2.088 4.66-3.967 6.874-6.223-2.373 1.658-4.436 2.912-7.162 4.207a62.823 62.823 0 0 1-.273-3.766z" fill="#37a094"/><path d="M38.041 101.102c.115 1.246.194 4.354.194 5.494 0 1.045-.015 4.551-.212 6.064l-.024.123 6.854.002c3.349 0 6.921-.852 6.921-3.236 0-1.496-1.351-2.604-3.889-3.213 1.862-.395 3.131-1.428 3.131-2.619 0-1.941-2.805-2.686-5.424-2.73l-7.56-.008.009.123zm5.294 1.199c2.861.01 3.923.482 3.923 1.729 0 .336-.126.629-.38.875-.549.521-1.641.789-2.994.738h-.067l-.79 1.66h.8c1.577-.045 2.945.357 3.647 1.043.326.318.488.676.488 1.066 0 1.316-1.436 1.986-4.253 1.986-.476 0-1.24-.002-1.731-.027-.102-1.725-.109-4.078-.109-4.775 0-.82.046-2.652.113-4.219a10 10 0 0 1 1.353-.076zM67.572 100.979h-3.32l.141 2.973c.058 1.48.119 2.988.243 4.451-.226-.447-.416-.695-1.408-1.867-.032-.043-3.485-4.312-4.687-5.52l-.035-.037H54.63l.006.117c.115 1.244.195 4.354.195 5.5 0 1.041-.015 4.551-.216 6.062l-.015.119h3.44l-.007-.111c-.202-2.895-.202-5.797-.202-8.6v-.008c.118.334.28.645.821 1.287.06.07 5.971 6.979 6.274 7.391l.029.041h2.768l-.014-.119c-.208-1.516-.221-5.021-.221-6.062 0-1.146.083-4.264.194-5.5l.016-.117h-.126zM71.578 101.094c.11 1.252.194 4.357.194 5.502 0 1.041-.015 4.547-.221 6.059l-.012.121h4.102l-.012-.121c-.147-1.08-.196-3.152-.212-4.75.167.008.754.031.754.031l.573.021c5.41 0 8.037-1.162 8.037-3.557 0-2.73-3.683-3.363-6.77-3.422h-6.443l.01.116zm5.025 1.308c1.921-.029 3.275.287 3.925.93.289.287.437.646.437 1.068 0 1.713-2.389 2.066-4.392 2.066l-.81-.018s-.203-.02-.327-.037c-.015-.391-.02-.904-.02-1.492 0-.754.01-1.615.05-2.443a13.59 13.59 0 0 1 1.137-.074zM92.617 101.094c.119 1.252.198 4.357.198 5.502 0 1.041-.014 4.547-.214 6.059l-.017.121h4.103l-.019-.121c-.139-1.08-.192-3.152-.209-4.75l.747.031.58.021c5.408 0 8.037-1.162 8.037-3.557 0-2.73-3.682-3.363-6.773-3.422h-6.44l.007.116zm5.029 1.308c1.92-.029 3.273.287 3.92.93.293.287.445.646.445 1.068 0 1.713-2.393 2.066-4.4 2.066l-.808-.018s-.201-.02-.325-.037c-.013-.391-.02-.912-.02-1.494 0-.756.013-1.613.05-2.441.249-.031.697-.062 1.138-.074zM111.322 100.986h-.066l-.031.066c-.764 1.674-5.674 10.256-6.439 11.566l-.094.166h3.52l.023-.072c.309-.801.701-1.717 1.164-2.701l2.912-.035 2.395.023s.422.01.523.01c.637 1.271 1.104 2.232 1.311 2.707l.025.068h4.076l-6.566-11.799h-2.753v.001zm.998 3.475c.326.557 1.168 2.135 2.119 3.996l-.314.01-1.805.02s-1.867-.025-2.158-.033a98.74 98.74 0 0 1 2.158-3.993zM122.266 101.096c.109 1.244.199 4.355.199 5.5 0 1.041-.023 4.547-.225 6.059l-.014.123h4.102l-.012-.119c-.209-1.521-.221-5.021-.221-6.062 0-.82.047-2.652.113-4.121a18.94 18.94 0 0 1 1.115-.066c1.916-.033 3.271.287 3.914.928.299.283.451.65.451 1.064 0 1.363-1.605 2.051-3.09 2.115a5.358 5.358 0 0 1-.875-.035l-.281-.039.184.215c1.434 1.701 3.623 4.666 4.539 6.08l.037.049h4.395l-.131-.18c-.15-.189-3.033-3.566-4.254-5.01 0 0-.047-.053-.074-.09 2.23-.543 3.33-1.555 3.33-3.105 0-2.727-3.688-3.363-6.775-3.414l-6.439-.008.012.116zM142.432 100.975h-3.936l.014.117c.113 1.248.191 4.359.191 5.502 0 1.035-.012 4.543-.215 6.057l-.014.125h4.104l-.021-.125c-.199-1.514-.215-5.021-.215-6.057 0-1.145.084-4.262.195-5.502l.01-.117h-.113zM146.268 101.102c.113 1.244.197 4.352.197 5.494 0 1.045-.014 4.551-.215 6.064l-.018.123 6.85.002c3.346 0 6.928-.852 6.928-3.236 0-1.496-1.359-2.604-3.898-3.213 1.861-.395 3.131-1.428 3.131-2.619 0-1.941-2.801-2.686-5.424-2.73l-7.559-.008.008.123zm5.294 1.199c2.865.01 3.93.482 3.93 1.729 0 .336-.129.629-.389.875-.539.521-1.633.789-2.988.738h-.07l-.787 1.66h.801c1.578-.045 2.941.357 3.645 1.043.324.318.486.676.486 1.066 0 1.316-1.426 1.986-4.248 1.986-.479 0-1.246-.002-1.732-.027-.102-1.725-.104-4.078-.104-4.775 0-.83.039-2.652.117-4.219a9.665 9.665 0 0 1 1.339-.076zM170.219 100.975h-2.762l-.027.062c-.812 1.781-6.008 10.828-6.439 11.574l-.094.164h3.521l.025-.074a39.31 39.31 0 0 1 1.162-2.701c.125 0 2.904-.037 2.904-.037l2.398.029s.42.008.527.008c.637 1.266 1.104 2.229 1.307 2.705l.031.07h4.072l-6.564-11.801h-.061v.001zm-1.694 3.476c.328.557 1.164 2.135 2.119 3.992l-.309.01-1.814.025-2.154-.035a95.133 95.133 0 0 1 2.158-3.992zM177.869 104.037c0 2.072 2.609 2.914 4.914 3.658 1.789.576 3.631 1.18 3.631 2.164 0 .303-.09.543-.291.729-.418.406-1.301.578-2.686.525-1.352-.057-2.906-.404-4.617-1.043l-.723-.268.002.457v2.121l.469.082.289.047c.861.17 2.5.475 4.152.475 4.328 0 6.912-1.369 6.912-3.658 0-2.125-2.668-2.979-5.021-3.727-1.736-.557-3.533-1.125-3.533-2.035 0-.26 0-1.051 2.223-1.051 1.666 0 3.295.541 4.172.832l.852.271-.012-.441v-2.145l-.838-.119c-.834-.129-2.227-.344-3.674-.344-3.721.001-6.221 1.396-6.221 3.47z"/></g></svg>