<?xml version="1.0" encoding="UTF-8" standalone="no"?>
<!-- Created with Inkscape (http://www.inkscape.org/) -->

<svg
   xmlns:dc="http://purl.org/dc/elements/1.1/"
   xmlns:cc="http://creativecommons.org/ns#"
   xmlns:rdf="http://www.w3.org/1999/02/22-rdf-syntax-ns#"
   xmlns:svg="http://www.w3.org/2000/svg"
   xmlns="http://www.w3.org/2000/svg"
   xmlns:sodipodi="http://sodipodi.sourceforge.net/DTD/sodipodi-0.dtd"
   xmlns:inkscape="http://www.inkscape.org/namespaces/inkscape"
   width="302.944"
   height="141.99899"
   viewBox="0 0 80.153929 37.570567"
   version="1.1"
   id="svg3430"
   inkscape:version="0.92.0 r15299"
   sodipodi:docname="cgi.svg">
  <defs
     id="defs3424" />
  <sodipodi:namedview
     id="base"
     pagecolor="#ffffff"
     bordercolor="#666666"
     borderopacity="1.0"
     inkscape:pageopacity="0.0"
     inkscape:pageshadow="2"
     inkscape:zoom="2.980621"
     inkscape:cx="150.472"
     inkscape:cy="69.999499"
     inkscape:document-units="mm"
     inkscape:current-layer="layer1"
     showgrid="false"
     fit-margin-top="0"
     fit-margin-left="0"
     fit-margin-right="0"
     fit-margin-bottom="0"
     units="px"
     inkscape:window-width="1280"
     inkscape:window-height="744"
     inkscape:window-x="-4"
     inkscape:window-y="-4"
     inkscape:window-maximized="1" />
  <metadata
     id="metadata3427">
    <rdf:RDF>
      <cc:Work
         rdf:about="">
        <dc:format>image/svg+xml</dc:format>
        <dc:type
           rdf:resource="http://purl.org/dc/dcmitype/StillImage" />
        <dc:title></dc:title>
      </cc:Work>
    </rdf:RDF>
  </metadata>
  <g
     inkscape:label="Layer 1"
     inkscape:groupmode="layer"
     id="layer1"
     transform="translate(-289.78286,-284.75368)">
    <g
       id="g3458"
       transform="matrix(0.26458333,0,0,0.26458333,273.26095,268.03175)">
      <g
         id="Layer_1">
	<g
   id="g3438">
		<path
   id="path3432"
   d="m 138.245,91.201 c -27.399,0 -44.199,21.399 -44.199,42.999 0,26 21.2,42.999 44.399,42.999 15.399,0 30,-6.799 42.399,-17.799 v 32.2 c -13,7.8 -30.8,12.6 -44.6,12.6 -39.599,0 -72.799,-32.199 -72.799,-69.999 0,-39.999 33.399,-69.999 72.999,-69.999 15.2,0 33,4.6 44.599,10.4 v 31.599 c -14.599,-9.6 -29.398,-15 -42.798,-15 z"
   inkscape:connector-curvature="0"
   style="fill:#e11937" />

		<path
   id="path3434"
   d="m 265.025,204.199 c -39.799,0 -73.398,-31 -73.398,-69.999 0,-39.399 33.4,-69.999 75.199,-69.999 15.199,0 34,4 45.6,9.4 V 105 c -13.199,-7.6 -30.199,-13.8 -45,-13.8 -27.398,0 -45.199,21.399 -45.199,42.999 0,25.399 21,43.8 45.6,43.8 5.199,0 10.199,-0.4 16.6,-2.801 V 150 h -22.398 v -26.6 h 51.199 v 70.799 c -14.603,6.601 -31.001,10 -48.203,10 z"
   inkscape:connector-curvature="0"
   style="fill:#e11937" />

		<path
   id="path3436"
   d="M 335.59,201.399 V 67.001 h 28.799 v 134.398 z"
   inkscape:connector-curvature="0"
   style="fill:#e11937" />

	</g>

</g>
      <g
         id="Protection">
</g>
      <g
         id="Guides">
</g>
    </g>
  </g>
</svg>
