<?xml version="1.0" encoding="utf-8"?>
<!-- Generator: Adobe Illustrator 19.2.1, SVG Export Plug-In . SVG Version: 6.00 Build 0)  -->
<svg version="1.1" id="layer" xmlns="http://www.w3.org/2000/svg" xmlns:xlink="http://www.w3.org/1999/xlink" x="0px" y="0px"
	 viewBox="0 0 652 652" style="enable-background:new 0 0 652 652;" xml:space="preserve">
<style type="text/css">
	.st0{fill:#1D1F29;}
	.st1{fill:#00A1DF;}
</style>
<g>
	<path class="st0" d="M57.3,254.3v33.3h71.5c9.4,0,14.3-1.8,14.3-10.1v-13.1c0-8.3-4.9-10.1-14.3-10.1H57.3z M26.2,232.6h115.9
		c20.7,0,30.1,6.5,30.1,24.4v27.9c0,17.5-9.4,24.4-30.1,24.4H57.3v49h-31V232.6z"/>
</g>
<polygon class="st0" points="176.6,232.6 208.3,232.6 208.3,334.8 309.2,334.8 309.2,358.3 176.6,358.3 "/>
<polygon class="st0" points="515.1,293.8 450.3,232.6 492.2,232.6 535.4,273.3 576.2,232.6 612.4,232.6 553.7,290.3 626,358.3 
	583.2,358.3 533.9,311.4 488.6,358.3 451.5,358.3 "/>
<rect x="313.6" y="334.8" class="st1" width="132.6" height="23.4"/>
<rect x="313.6" y="232.6" class="st1" width="132.6" height="23.4"/>
<rect x="313.6" y="284.8" class="st1" width="132.6" height="23.4"/>
<polygon class="st0" points="37.4,418.7 33,418.7 33,401.2 26,401.2 26,397.5 44.3,397.5 44.3,401.2 37.4,401.2 "/>
<polygon class="st0" points="67.2,409.7 57.4,409.7 57.4,418.7 53,418.7 53,397.5 57.4,397.5 57.4,406.1 67.2,406.1 67.2,397.5 
	71.6,397.5 71.6,418.7 67.2,418.7 "/>
<polygon class="st0" points="82.5,397.5 96.7,397.5 96.7,400.7 86.6,400.7 86.6,405.7 92.8,405.7 92.8,408.8 86.6,408.8 86.6,415.6 
	96.7,415.6 96.7,418.7 82.5,418.7 "/>
<polygon class="st0" points="139.5,404 132.8,418.2 125.8,404.1 125.8,418.7 121.6,418.7 121.6,397.5 127.3,397.5 132.8,408.8 
	138.3,397.5 144,397.5 144,418.7 139.5,418.7 "/>
<path class="st0" d="M160.7,411.3h5.8l-2.9-8.5L160.7,411.3z M167.5,414.2h-7.7l-1.6,4.5h-4.8l7.8-21.2h4.7l7.8,21.2h-4.6
	L167.5,414.2z"/>
<polygon class="st0" points="187.3,402.7 187.3,418.7 183,418.7 183,397.5 188.8,397.5 197.7,410.9 197.7,397.5 202,397.5 
	202,418.7 197.5,418.7 "/>
<g>
	<path class="st0" d="M215.7,416.6c-1.6-1.4-2.5-3.5-2.5-6.3v-12.8h4.4v12.2c0,3.4,1.6,5.2,4.8,5.2c3.2,0,4.8-1.7,4.8-5.2v-12.2h4.5
		v12.8c0,2.8-0.8,4.9-2.5,6.3c-1.7,1.4-3.9,2.1-6.8,2.1C219.6,418.8,217.4,418.1,215.7,416.6"/>
</g>
<polygon class="st0" points="247,406 253.3,406 253.3,409.2 247,409.2 247,418.7 242.8,418.7 242.8,397.5 256.9,397.5 256.9,400.7 
	247,400.7 "/>
<path class="st0" d="M271,411.3h5.8l-2.9-8.5L271,411.3z M277.8,414.2h-7.7l-1.6,4.5h-4.8l7.8-21.2h4.7l7.8,21.2h-4.6L277.8,414.2z"
	/>
<g>
	<path class="st0" d="M302.6,401.1c-2.1,0-3.7,0.7-4.8,2c-1,1.2-1.4,2.9-1.4,5c0,2,0.5,3.7,1.5,4.9c1.1,1.4,2.7,2.1,4.7,2.1
		c1.9,0,3.4-0.5,4.6-1.6l4.1,1.8c-2,2.4-4.8,3.6-8.6,3.6c-3.2,0-5.8-1-7.9-3.1c-2.1-2.1-3.1-4.7-3.1-7.8c0-3.4,1-6,2.9-7.9
		c2-2,4.7-2.9,8.1-2.9c4.1,0,7,1.3,9,3.9l-3.9,2.1C306.5,401.8,304.8,401.1,302.6,401.1"/>
</g>
<polygon class="st0" points="331.2,418.7 326.8,418.7 326.8,401.2 319.8,401.2 319.8,397.5 338.1,397.5 338.1,401.2 331.2,401.2 "/>
<g>
	<path class="st0" d="M349.1,416.6c-1.6-1.4-2.5-3.5-2.5-6.3v-12.8h4.4v12.2c0,3.4,1.6,5.2,4.8,5.2c3.2,0,4.8-1.7,4.8-5.2v-12.2h4.5
		v12.8c0,2.8-0.8,4.9-2.5,6.3c-1.7,1.4-3.9,2.1-6.8,2.1S350.8,418.1,349.1,416.6"/>
	<path class="st0" d="M380.5,401v6.2h5.5c1,0,1.8-0.3,2.5-0.9c0.7-0.6,1-1.3,1-2.3c0-0.9-0.4-1.6-1-2.2c-0.7-0.6-1.5-0.8-2.5-0.8
		H380.5z M391.2,409.5c-0.3,0.2-0.9,0.6-1.7,0.9l4,8.3h-4.9l-3.8-8h-4.4v8h-4.3v-21.2h11.2c1.8,0,3.4,0.6,4.6,1.8
		c1.2,1.2,1.8,2.8,1.8,4.6c0,1.4-0.4,2.7-1.1,3.8C392.2,408.6,391.7,409.1,391.2,409.5"/>
</g>
<rect x="404" y="397.5" class="st0" width="4" height="21.2"/>
<polygon class="st0" points="423.2,402.7 423.2,418.7 418.9,418.7 418.9,397.5 424.7,397.5 433.6,410.9 433.6,397.5 437.9,397.5 
	437.9,418.7 433.4,418.7 "/>
<g>
	<path class="st0" d="M451.2,415.9c-2.1-2.1-3.1-4.7-3.1-7.8c0-3.4,1-6.1,2.9-8.1c2-2,4.7-3.1,8.1-3.1c3.9,0,6.9,1.4,9,4.2l-3.8,2.1
		c-0.5-0.8-1.3-1.4-2.2-1.8c-1-0.5-2-0.7-2.9-0.7c-4.2,0-6.3,2.5-6.3,7.5c0,2.1,0.5,3.7,1.5,5c1.1,1.3,2.7,2,4.8,2
		c1.2,0,2.3-0.3,3.3-0.8c1.1-0.6,1.8-1.5,2.1-2.5h-5v-3.3h9.8v2.1c0,2.4-1.1,4.4-3.3,6.1c-2,1.5-4.3,2.3-6.8,2.3
		C455.9,419,453.3,417.9,451.2,415.9"/>
	<path class="st0" d="M504.2,401.1c-2.1,0-3.7,0.7-4.8,2c-1,1.2-1.4,2.9-1.4,5c0,2,0.5,3.7,1.5,4.9c1.1,1.4,2.7,2.1,4.7,2.1
		c1.9,0,3.4-0.5,4.6-1.6l4.1,1.8c-2,2.4-4.8,3.6-8.6,3.6c-3.2,0-5.8-1-7.9-3.1c-2.1-2.1-3.1-4.7-3.1-7.8c0-3.4,1-6,2.9-7.9
		c2-2,4.7-2.9,8.1-2.9c4.1,0,7,1.3,9,3.9l-3.9,2.1C508.2,401.8,506.5,401.1,504.2,401.1"/>
</g>
<polygon class="st0" points="522.5,397.5 526.8,397.5 526.8,415.1 537.7,415.1 537.7,418.7 522.5,418.7 "/>
<g>
	<path class="st0" d="M549.8,408.1c0,4.8,2,7.2,5.9,7.2c4,0,5.9-2.4,5.9-7.2c0-4.8-2-7.1-5.9-7.1C551.8,401,549.8,403.3,549.8,408.1
		 M547.9,416c-1.9-2-2.9-4.6-2.9-7.9c0-3.4,0.9-6,2.8-7.9c1.8-2,4.5-2.9,7.9-2.9c3.4,0,6,1,7.9,2.9c1.8,2,2.8,4.6,2.8,7.9
		c0,3.4-0.9,6-2.7,8c-1.8,2-4.5,2.9-7.9,2.9C552.4,419,549.8,418,547.9,416"/>
	<path class="st0" d="M578.7,416.6c-1.6-1.4-2.5-3.5-2.5-6.3v-12.8h4.4v12.2c0,3.4,1.6,5.2,4.8,5.2c3.2,0,4.8-1.7,4.8-5.2v-12.2h4.5
		v12.8c0,2.8-0.8,4.9-2.5,6.3c-1.7,1.4-3.9,2.1-6.8,2.1C582.6,418.8,580.4,418.1,578.7,416.6"/>
	<path class="st0" d="M610.1,401v14.2h2.1c2.5,0,4.5-0.6,6.1-1.7c1.8-1.3,2.6-3,2.6-5.4s-0.9-4.1-2.6-5.4c-1.5-1.1-3.6-1.7-6.1-1.7
		H610.1z M605.6,418.7v-21.2h7.5c2.5,0,4.8,0.5,6.8,1.5c2.2,1.1,3.8,2.7,4.7,4.9c0.6,1.3,0.9,2.7,0.9,4.1c0,2.3-0.6,4.2-1.9,6
		c-2.3,3.2-5.9,4.8-10.8,4.8H605.6z"/>
</g>
</svg>
