<?xml version="1.0" encoding="UTF-8" standalone="no"?>
<svg xmlns="http://www.w3.org/2000/svg" xmlns:xlink="http://www.w3.org/1999/xlink" contentScriptType="application/ecmascript" contentStyleType="text/css" height="789.0625px" preserveAspectRatio="none" style="width:618px;height:789px;" version="1.1" viewBox="0 0 618 789" width="618.75px" zoomAndPan="magnify"><defs><filter height="300%" id="f1ti5lqt6sivp8" width="300%" x="-1" y="-1"><feGaussianBlur result="blurOut" stdDeviation="3.125"/><feColorMatrix in="blurOut" result="blurOut2" type="matrix" values="0 0 0 0 0 0 0 0 0 0 0 0 0 0 0 0 0 0 .4 0"/><feOffset dx="6.25" dy="6.25" in="blurOut2" result="blurOut3"/><feBlend in="SourceGraphic" in2="blurOut3" mode="normal"/></filter></defs><g><!--MD5=[99b31deea5d7419a569cd5090bf83263]
cluster System--><polygon fill="#FFFFFF" filter="url(#f1ti5lqt6sivp8)" points="34.375,290.625,137.5,290.625,148.4375,325.4639,293.75,325.4639,293.75,595.3125,34.375,595.3125,34.375,290.625" style="stroke: #000000; stroke-width: 2.34375;"/><line style="stroke: #000000; stroke-width: 2.34375;" x1="34.375" x2="148.4375" y1="325.4639" y2="325.4639"/><text fill="#000000" font-family="sans-serif" font-size="21.875" font-weight="bold" lengthAdjust="spacingAndGlyphs" textLength="93.75" x="40.625" y="314.0549">System</text><!--MD5=[815249f79c2c08157ac02b3106e03757]
cluster Database--><path d="M331.25,265.625 C331.25,250 412.5,250 412.5,250 C412.5,250 493.75,250 493.75,265.625 L493.75,745.3125 C493.75,760.9375 412.5,760.9375 412.5,760.9375 C412.5,760.9375 331.25,760.9375 331.25,745.3125 L331.25,265.625 " fill="#FFFFFF" filter="url(#f1ti5lqt6sivp8)" style="stroke: #000000; stroke-width: 2.34375;"/><path d="M331.25,265.625 C331.25,281.25 412.5,281.25 412.5,281.25 C412.5,281.25 493.75,281.25 493.75,265.625 " fill="none" style="stroke: #000000; stroke-width: 2.34375;"/><text fill="#000000" font-family="sans-serif" font-size="21.875" font-weight="bold" lengthAdjust="spacingAndGlyphs" textLength="120.3125" x="352.3438" y="304.6799">Database</text><!--MD5=[9a5c9fc95b417b6149e52d7e2302f23c]
cluster Jet cluster--><polygon fill="#FFFFFF" filter="url(#f1ti5lqt6sivp8)" points="243.75,37.5,384.375,37.5,395.3125,72.3389,400,72.3389,400,173.4375,243.75,173.4375,243.75,37.5" style="stroke: #000000; stroke-width: 2.34375;"/><line style="stroke: #000000; stroke-width: 2.34375;" x1="243.75" x2="395.3125" y1="72.3389" y2="72.3389"/><text fill="#000000" font-family="sans-serif" font-size="21.875" font-weight="bold" lengthAdjust="spacingAndGlyphs" textLength="131.25" x="250" y="60.9299">Jet cluster</text><!--MD5=[6e8f311b0aa23032184ffba0ef926f91]
entity App--><rect fill="#FEFECE" filter="url(#f1ti5lqt6sivp8)" height="56.7139" style="stroke: #A80036; stroke-width: 2.34375;" width="78.125" x="59.375" y="345.3125"/><rect fill="#FEFECE" height="7.8125" style="stroke: #A80036; stroke-width: 2.34375;" width="15.625" x="51.5625" y="353.125"/><rect fill="#FEFECE" height="7.8125" style="stroke: #A80036; stroke-width: 2.34375;" width="15.625" x="51.5625" y="386.4014"/><text fill="#000000" font-family="sans-serif" font-size="21.875" lengthAdjust="spacingAndGlyphs" textLength="46.875" x="75" y="381.2424">App</text><!--MD5=[7f2f8f021ba496bad1f94a1981c7f515]
entity Cache--><rect fill="#FEFECE" filter="url(#f1ti5lqt6sivp8)" height="56.7139" style="stroke: #A80036; stroke-width: 2.34375;" width="100" x="168.75" y="514.0625"/><rect fill="#FEFECE" height="7.8125" style="stroke: #A80036; stroke-width: 2.34375;" width="15.625" x="160.9375" y="521.875"/><rect fill="#FEFECE" height="7.8125" style="stroke: #A80036; stroke-width: 2.34375;" width="15.625" x="160.9375" y="555.1514"/><text fill="#000000" font-family="sans-serif" font-size="21.875" lengthAdjust="spacingAndGlyphs" textLength="68.75" x="184.375" y="549.9924">Cache</text><!--MD5=[645d8587175d8f7ad110cd370775931d]
entity API--><ellipse cx="254.6875" cy="373.4375" fill="#FEFECE" filter="url(#f1ti5lqt6sivp8)" rx="12.5" ry="12.5" style="stroke: #A80036; stroke-width: 3.125;"/><text fill="#000000" font-family="sans-serif" font-size="21.875" lengthAdjust="spacingAndGlyphs" textLength="35.9375" x="236.7188" y="420.3049">API</text><!--MD5=[c9cdec996607f0db33d5cd5e2148af87]
entity RDBMS--><rect fill="#FEFECE" filter="url(#f1ti5lqt6sivp8)" height="56.7139" style="stroke: #A80036; stroke-width: 2.34375;" width="112.5" x="356.25" y="514.0625"/><rect fill="#FEFECE" height="7.8125" style="stroke: #A80036; stroke-width: 2.34375;" width="15.625" x="348.4375" y="521.875"/><rect fill="#FEFECE" height="7.8125" style="stroke: #A80036; stroke-width: 2.34375;" width="15.625" x="348.4375" y="555.1514"/><text fill="#000000" font-family="sans-serif" font-size="21.875" lengthAdjust="spacingAndGlyphs" textLength="81.25" x="371.875" y="549.9924">RDBMS</text><!--MD5=[2bba5e7b7fe4bc2fbd9825db3f1d4f93]
entity SQL--><ellipse cx="404.6875" cy="721.875" fill="#FEFECE" filter="url(#f1ti5lqt6sivp8)" rx="12.5" ry="12.5" style="stroke: #A80036; stroke-width: 3.125;"/><text fill="#000000" font-family="sans-serif" font-size="21.875" lengthAdjust="spacingAndGlyphs" textLength="43.75" x="382.8125" y="768.7424">SQL</text><!--MD5=[44f917c62db76ee2dfdbfd2b87c8cd5d]
entity binlog--><ellipse cx="407.8125" cy="373.4375" fill="#FEFECE" filter="url(#f1ti5lqt6sivp8)" rx="12.5" ry="12.5" style="stroke: #A80036; stroke-width: 3.125;"/><text fill="#000000" font-family="sans-serif" font-size="21.875" lengthAdjust="spacingAndGlyphs" textLength="70.3125" x="372.6563" y="420.3049">binlog</text><!--MD5=[6f8e1bafa7a935824e7a778f64b48529]
entity Jet--><rect fill="#FEFECE" filter="url(#f1ti5lqt6sivp8)" height="56.7139" style="stroke: #A80036; stroke-width: 2.34375;" width="62.5" x="290.625" y="92.1875"/><rect fill="#FEFECE" height="7.8125" style="stroke: #A80036; stroke-width: 2.34375;" width="15.625" x="282.8125" y="100"/><rect fill="#FEFECE" height="7.8125" style="stroke: #A80036; stroke-width: 2.34375;" width="15.625" x="282.8125" y="133.2764"/><text fill="#000000" font-family="sans-serif" font-size="21.875" lengthAdjust="spacingAndGlyphs" textLength="31.25" x="306.25" y="128.1174">Jet</text><!--MD5=[f8b428a44eb5f58f952aa73b4e450597]
entity XYZ--><rect fill="#FEFECE" filter="url(#f1ti5lqt6sivp8)" height="56.7139" style="stroke: #A80036; stroke-width: 2.34375;" width="76.5625" x="525.7813" y="693.75"/><rect fill="#FEFECE" height="7.8125" style="stroke: #A80036; stroke-width: 2.34375;" width="15.625" x="517.9688" y="701.5625"/><rect fill="#FEFECE" height="7.8125" style="stroke: #A80036; stroke-width: 2.34375;" width="15.625" x="517.9688" y="734.8389"/><text fill="#000000" font-family="sans-serif" font-size="21.875" lengthAdjust="spacingAndGlyphs" textLength="45.3125" x="541.4063" y="729.6799">XYZ</text><!--MD5=[37ead791c0f1a31107be26b3ae366336]
link API to Cache--><path d="M251.8672,387.9969 C246.0094,414.9922 232.4203,477.6203 224.5922,513.7031 " fill="none" id="API-Cache" style="stroke: #A80036; stroke-width: 1.5625;"/><!--MD5=[56e9922a35360b7b85303e9b275ede14]
link App to API--><path d="M137.8659,373.4375 C167.4969,373.4375 207.0625,373.4375 231.7016,373.4375 " fill="none" id="App-&gt;API" style="stroke: #A80036; stroke-width: 1.5625;"/><polygon fill="#A80036" points="240.0578,373.4375,225.9953,367.1875,232.2453,373.4375,225.9953,379.6875,240.0578,373.4375" style="stroke: #A80036; stroke-width: 1.5625;"/><text fill="#000000" font-family="sans-serif" font-size="20.3125" lengthAdjust="spacingAndGlyphs" textLength="45.3125" x="166.4063" y="362.6045">read</text><!--MD5=[bed241eed914041fb93d059e03a4c02f]
link RDBMS to SQL--><path d="M411.3141,570.5656 C409.6063,609.1547 406.5219,678.8464 405.2547,707.4902 " fill="none" id="RDBMS-SQL" style="stroke: #A80036; stroke-width: 1.5625;"/><!--MD5=[80b71904a919b301a53cabd8b570aec3]
link binlog to RDBMS--><path d="M408.1797,387.9969 C408.9437,414.9922 410.7172,477.6203 411.7375,513.7031 " fill="none" id="binlog-RDBMS" style="stroke: #A80036; stroke-width: 1.5625;"/><!--MD5=[18aa8c504a1466b84cb811ef70e9b27d]
link Cache to SQL--><path d="M246.9906,570.5656 C285.2453,606.8938 352.5313,670.7861 385.4516,702.0469 " fill="none" id="Cache-&gt;SQL" style="stroke: #A80036; stroke-width: 1.5625;"/><polygon fill="#A80036" points="391.1844,707.4902,385.2905,693.2747,385.5191,702.1106,376.6832,702.3392,391.1844,707.4902" style="stroke: #A80036; stroke-width: 1.5625;"/><text fill="#000000" font-family="sans-serif" font-size="20.3125" lengthAdjust="spacingAndGlyphs" textLength="45.3125" x="325" y="640.7295">read</text><!--MD5=[53c6ba069d051afb7d7d052321c88cfb]
reverse link SQL to XYZ--><path d="M426.8047,721.875 C452.35,721.875 494.8281,721.875 525.7734,721.875 " fill="none" id="SQL&lt;-XYZ" style="stroke: #A80036; stroke-width: 1.5625;"/><polygon fill="#A80036" points="418.8313,721.875,432.8938,728.125,426.6438,721.875,432.8938,715.625,418.8313,721.875" style="stroke: #A80036; stroke-width: 1.5625;"/><text fill="#000000" font-family="sans-serif" font-size="20.3125" lengthAdjust="spacingAndGlyphs" textLength="50" x="447.2656" y="711.042">write</text><!--MD5=[d77c456c8a20458da3aa7978c9ae1b69]
link Jet to binlog--><path d="M331.0719,148.6297 C348.3547,198.9078 385.3313,306.4766 400.7906,351.45 " fill="none" id="Jet-&gt;binlog" style="stroke: #A80036; stroke-width: 1.5625;"/><polygon fill="#A80036" points="403.4172,359.0906,404.7597,343.7605,400.8791,351.7019,392.9377,347.8214,403.4172,359.0906" style="stroke: #A80036; stroke-width: 1.5625;"/><text fill="#000000" font-family="sans-serif" font-size="20.3125" lengthAdjust="spacingAndGlyphs" textLength="45.3125" x="357.8125" y="218.8545">read</text><!--MD5=[4207dba1f19bb9c20058528b35559e0a]
link Jet to API--><path d="M302.9437,149.0094 C294.0031,163.1281 284.0219,181.0391 278.125,198.4375 C260.1313,251.5344 255.9,318.1891 254.9406,351.275 " fill="none" id="Jet-&gt;API" style="stroke: #A80036; stroke-width: 1.5625;"/><polygon fill="#A80036" points="254.7531,359.3078,261.3269,345.3937,254.9339,351.4974,248.8303,345.1044,254.7531,359.3078" style="stroke: #A80036; stroke-width: 1.5625;"/><text fill="#000000" font-family="sans-serif" font-size="20.3125" lengthAdjust="spacingAndGlyphs" textLength="50" x="279.6875" y="218.8545">write</text><!--MD5=[1ee1aa1e665d2dcd2e4c6de18fee8cbe]
@startuml
skinparam dpi 150
package System {
 [App]
 [Cache] -up-() API
 [App] -right-> API: read
}
database Database {
 [RDBMS] -down- () SQL
 [RDBMS] -up- () binlog
}
package "Jet cluster" {
 [Jet]
}
[Cache] -right-> SQL: read
[XYZ] -left-> SQL: write
[Jet] -down-> binlog: read
[Jet] -down-> API: write
@enduml

PlantUML version 1.2020.10(Sun May 17 09:35:57 UTC 2020)
(GPL source distribution)
Java Runtime: Java(TM) SE Runtime Environment
JVM: Java HotSpot(TM) 64-Bit Server VM
Java Version: 14.0.1+7
Operating System: Linux
Default Encoding: UTF-8
Language: en
Country: US
--></g></svg>