<svg version="1.1" viewBox="0.0 0.0 757.8950131233596 423.5301837270341" fill="none" stroke="none" stroke-linecap="square" stroke-miterlimit="10" xmlns:xlink="http://www.w3.org/1999/xlink" xmlns="http://www.w3.org/2000/svg"><clipPath id="p.0"><path d="m0 0l757.895 0l0 423.53018l-757.895 0l0 -423.53018z" clip-rule="nonzero"/></clipPath><g clip-path="url(#p.0)"><path fill="#000000" fill-opacity="0.0" d="m0 0l757.895 0l0 423.53018l-757.895 0z" fill-rule="evenodd"/><path fill="#d9ead3" d="m6.023622 47.943123l0 0c0 -23.88933 19.366127 -43.25546 43.25546 -43.25546l173.01663 0l0 0c11.472061 0 22.474258 4.5572586 30.586243 12.6692295c8.111969 8.111973 12.66922 19.114168 12.66922 30.58623l0 317.26862c0 23.889343 -19.36612 43.255463 -43.255463 43.255463l-173.01663 0c-23.88933 0 -43.25546 -19.36612 -43.25546 -43.255463z" fill-rule="evenodd"/><path stroke="#666666" stroke-width="1.0" stroke-linejoin="round" stroke-linecap="butt" d="m6.023622 47.943123l0 0c0 -23.88933 19.366127 -43.25546 43.25546 -43.25546l173.01663 0l0 0c11.472061 0 22.474258 4.5572586 30.586243 12.6692295c8.111969 8.111973 12.66922 19.114168 12.66922 30.58623l0 317.26862c0 23.889343 -19.36612 43.255463 -43.255463 43.255463l-173.01663 0c-23.88933 0 -43.25546 -19.36612 -43.25546 -43.255463z" fill-rule="evenodd"/><path fill="#434343" d="m96.42607 368.10373l0 8.703125q0 1.796875 -1.34375 3.109375q-1.328125 1.3125 -3.171875 1.3125q-1.109375 0 -2.1875 -0.515625q-1.078125 -0.515625 -2.34375 -1.671875l0 -3.625q0 -0.359375 0.140625 -0.5q0.140625 -0.15625 0.359375 -0.15625q0.21875 0 0.359375 0.15625q0.140625 0.140625 0.140625 0.5l-0.015625 3.15625q0.90625 0.828125 1.78125 1.25q0.890625 0.421875 1.765625 0.421875q0.953125 0 1.8125 -0.46875q0.640625 -0.359375 1.171875 -1.1875q0.546875 -0.828125 0.546875 -1.78125l0 -8.703125l-3.859375 0q-0.359375 0 -0.515625 -0.125q-0.15625 -0.140625 -0.15625 -0.359375q0 -0.21875 0.15625 -0.359375q0.15625 -0.140625 0.515625 -0.140625l7.1875 0q0.359375 0 0.5 0.140625q0.15625 0.140625 0.15625 0.359375q0 0.21875 -0.15625 0.359375q-0.140625 0.125 -0.5 0.125l-2.34375 0zm15.886719 7.890625l-10.03125 0q0.25 1.90625 1.59375 3.078125q1.34375 1.171875 3.328125 1.171875q1.09375 0 2.296875 -0.359375q1.21875 -0.375 1.984375 -0.96875q0.21875 -0.171875 0.375 -0.171875q0.1875 0 0.328125 0.140625q0.140625 0.140625 0.140625 0.34375q0 0.203125 -0.1875 0.390625q-0.5625 0.578125 -2.0 1.09375q-1.421875 0.515625 -2.9375 0.515625q-2.53125 0 -4.234375 -1.65625q-1.6875 -1.671875 -1.6875 -4.015625q0 -2.15625 1.578125 -3.6875q1.59375 -1.53125 3.9375 -1.53125q2.421875 0 3.96875 1.578125q1.5625 1.578125 1.546875 4.078125zm-1.0 -1.0q-0.296875 -1.625 -1.546875 -2.640625q-1.234375 -1.015625 -2.96875 -1.015625q-1.71875 0 -2.96875 1.015625q-1.234375 1.0 -1.53125 2.640625l9.015625 0zm8.058594 -4.3125l5.34375 0q0.34375 0 0.5 0.140625q0.15625 0.140625 0.15625 0.375q0 0.203125 -0.15625 0.34375q-0.15625 0.140625 -0.5 0.140625l-5.34375 0l0 6.546875q0 0.859375 0.671875 1.4375q0.6875 0.578125 2.015625 0.578125q1.0 0 2.15625 -0.296875q1.15625 -0.3125 1.8125 -0.6875q0.234375 -0.140625 0.375 -0.140625q0.1875 0 0.328125 0.140625q0.140625 0.140625 0.140625 0.34375q0 0.171875 -0.140625 0.328125q-0.375 0.390625 -1.828125 0.84375q-1.453125 0.453125 -2.765625 0.453125q-1.734375 0 -2.75 -0.8125q-1.015625 -0.8125 -1.015625 -2.1875l0 -6.546875l-1.8125 0q-0.359375 0 -0.515625 -0.140625q-0.140625 -0.140625 -0.140625 -0.359375q0 -0.21875 0.140625 -0.359375q0.15625 -0.140625 0.515625 -0.140625l1.8125 0l0 -2.90625q0 -0.34375 0.140625 -0.5q0.140625 -0.15625 0.34375 -0.15625q0.234375 0 0.375 0.15625q0.140625 0.15625 0.140625 0.5l0 2.90625zm34.664078 -2.578125l0 8.703125q0 1.796875 -1.34375 3.109375q-1.328125 1.3125 -3.171875 1.3125q-1.109375 0 -2.1875 -0.515625q-1.0781403 -0.515625 -2.3437653 -1.671875l0 -3.625q0 -0.359375 0.140625 -0.5q0.140625 -0.15625 0.359375 -0.15625q0.21875 0 0.359375 0.15625q0.140625 0.140625 0.140625 0.5l-0.015625 3.15625q0.90626526 0.828125 1.7812653 1.25q0.890625 0.421875 1.765625 0.421875q0.953125 0 1.8125 -0.46875q0.640625 -0.359375 1.171875 -1.1875q0.546875 -0.828125 0.546875 -1.78125l0 -8.703125l-3.859375 0q-0.359375 0 -0.515625 -0.125q-0.15625 -0.140625 -0.15625 -0.359375q0 -0.21875 0.15625 -0.359375q0.15625 -0.140625 0.515625 -0.140625l7.1875 0q0.359375 0 0.5 0.140625q0.15625 0.140625 0.15625 0.359375q0 0.21875 -0.15625 0.359375q-0.140625 0.125 -0.5 0.125l-2.34375 0zm11.292969 12.734375l-1.375 0l-4.953125 -12.734375l-0.765625 0q-0.265625 0 -0.390625 -0.046875q-0.109375 -0.046875 -0.1875 -0.171875q-0.078125 -0.125 -0.078125 -0.265625q0 -0.140625 0.078125 -0.265625q0.078125 -0.125 0.1875 -0.171875q0.125 -0.0625 0.390625 -0.0625l3.671875 0q0.28125 0 0.390625 0.0625q0.109375 0.046875 0.1875 0.171875q0.078125 0.125 0.078125 0.265625q0 0.140625 -0.09375 0.265625q-0.078125 0.125 -0.1875 0.171875q-0.109375 0.046875 -0.375 0.046875l-1.890625 0l4.578125 11.75l0.0625 0l4.515625 -11.75l-1.875 0q-0.28125 0 -0.40625 -0.046875q-0.109375 -0.046875 -0.1875 -0.171875q-0.078125 -0.125 -0.078125 -0.265625q0 -0.140625 0.078125 -0.265625q0.09375 -0.125 0.203125 -0.171875q0.109375 -0.0625 0.390625 -0.0625l3.65625 0q0.28125 0 0.390625 0.0625q0.125 0.046875 0.203125 0.171875q0.078125 0.125 0.078125 0.265625q0 0.140625 -0.09375 0.265625q-0.078125 0.125 -0.1875 0.171875q-0.109375 0.046875 -0.390625 0.046875l-0.75 0l-4.875 12.734375zm14.324219 -4.109375l-1.125 0l-3.796875 -8.625l-0.1875 0l0 11.75l1.828125 0q0.34375 0 0.5 0.140625q0.15625 0.125 0.15625 0.34375q0 0.21875 -0.15625 0.359375q-0.15625 0.140625 -0.5 0.140625l-3.640625 0q-0.34375 0 -0.5 -0.140625q-0.15625 -0.140625 -0.15625 -0.359375q0 -0.21875 0.15625 -0.34375q0.15625 -0.140625 0.5 -0.140625l0.828125 0l0 -11.75l-0.609375 0q-0.359375 0 -0.515625 -0.125q-0.140625 -0.140625 -0.140625 -0.359375q0 -0.21875 0.140625 -0.359375q0.15625 -0.140625 0.515625 -0.140625l2.40625 0l3.734375 8.484375l3.65625 -8.484375l2.421875 0q0.359375 0 0.515625 0.140625q0.15625 0.140625 0.15625 0.359375q0 0.21875 -0.15625 0.359375q-0.15625 0.125 -0.515625 0.125l-0.609375 0l0 11.75l0.8125 0q0.375 0 0.515625 0.140625q0.15625 0.125 0.15625 0.34375q0 0.21875 -0.15625 0.359375q-0.140625 0.140625 -0.515625 0.140625l-3.609375 0q-0.359375 0 -0.515625 -0.140625q-0.15625 -0.140625 -0.15625 -0.359375q0 -0.21875 0.140625 -0.34375q0.15625 -0.140625 0.53125 -0.140625l1.8125 0l0 -11.75l-0.21875 0l-3.703125 8.625z" fill-rule="nonzero"/><path fill="#c9daf8" d="m54.19685 44.651134l0 0c0 -6.010021 4.8720856 -10.882107 10.882107 -10.882107l141.4169 0c2.8861084 0 5.654022 1.1465073 7.694809 3.1872978c2.0407867 2.0407906 3.1873016 4.8086967 3.1873016 7.694809l0 43.527126c0 6.010025 -4.8720856 10.882103 -10.882111 10.882103l-141.4169 0l0 0c-6.010021 0 -10.882107 -4.872078 -10.882107 -10.882103z" fill-rule="evenodd"/><path stroke="#666666" stroke-width="2.0" stroke-linejoin="round" stroke-linecap="butt" d="m54.19685 44.651134l0 0c0 -6.010021 4.8720856 -10.882107 10.882107 -10.882107l141.4169 0c2.8861084 0 5.654022 1.1465073 7.694809 3.1872978c2.0407867 2.0407906 3.1873016 4.8086967 3.1873016 7.694809l0 43.527126c0 6.010025 -4.8720856 10.882103 -10.882111 10.882103l-141.4169 0l0 0c-6.010021 0 -10.882107 -4.872078 -10.882107 -10.882103z" fill-rule="evenodd"/><path fill="#434343" d="m103.29912 62.220325l0 -0.328125q0 -0.34375 0.140625 -0.5q0.140625 -0.15625 0.359375 -0.15625q0.21875 0 0.34375 0.15625q0.140625 0.15625 0.140625 0.5l0 2.5156212q0 0.34375 -0.140625 0.5q-0.125 0.15625 -0.34375 0.15625q-0.21875 0 -0.359375 -0.140625q-0.125 -0.140625 -0.140625 -0.453125q-0.046875 -0.9843712 -1.015625 -1.7656212q-0.953125 -0.796875 -2.5 -0.796875q-1.625 0 -2.59375 0.84375q-0.953125 0.828125 -0.953125 1.9687462q0 0.59375 0.265625 1.078125q0.28125 0.46875 0.71875 0.765625q0.453125 0.296875 1.015625 0.484375q0.5625 0.1875 1.75 0.375q2.0 0.328125 2.765625 0.671875q1.015625 0.453125 1.53125 1.265625q0.53125 0.8125 0.53125 1.90625q0 1.6875 -1.34375 2.890625q-1.34375 1.1875 -3.640625 1.1875q-2.5625 0 -4.09375 -1.609375l0 0.5625q0 0.34375 -0.140625 0.5q-0.125 0.15625 -0.359375 0.15625q-0.203125 0 -0.34375 -0.15625q-0.140625 -0.15625 -0.140625 -0.5l0 -2.71875q0 -0.359375 0.125 -0.515625q0.140625 -0.15625 0.359375 -0.15625q0.21875 0 0.34375 0.140625q0.140625 0.140625 0.15625 0.453125q0.0625 1.078125 1.15625 1.96875q1.09375 0.890625 2.9375 0.890625q1.859375 0 2.921875 -0.921875q1.078125 -0.9375 1.078125 -2.203125q0 -0.765625 -0.40625 -1.375q-0.40625 -0.609375 -1.21875 -0.953125q-0.5625 -0.25 -2.34375 -0.546875q-2.453125 -0.421875 -3.53125 -1.265625q-1.078125 -0.84375 -1.078125 -2.390625q0 -1.5468712 1.234375 -2.6562462q1.234375 -1.125 3.265625 -1.125q2.0625 0 3.546875 1.296875zm16.386719 7.687496q0 2.25 -1.609375 3.84375q-1.609375 1.59375 -3.890625 1.59375q-2.296875 0 -3.90625 -1.59375q-1.59375 -1.609375 -1.59375 -3.84375q0 -2.25 1.59375 -3.84375q1.609375 -1.609375 3.90625 -1.609375q2.28125 0 3.890625 1.59375q1.609375 1.59375 1.609375 3.859375zm-1.0 0q0 -1.859375 -1.3125 -3.15625q-1.3125 -1.296875 -3.1875 -1.296875q-1.875 0 -3.203125 1.3125q-1.3125 1.296875 -1.3125 3.140625q0 1.828125 1.3125 3.140625q1.328125 1.3125 3.203125 1.3125q1.875 0 3.1875 -1.3125q1.3125 -1.3125 1.3125 -3.140625zm13.277344 5.046875l0 -1.4375q-2.015625 1.828125 -4.359375 1.828125q-1.453125 0 -2.203125 -0.796875q-0.96875 -1.03125 -0.96875 -2.390625l0 -6.359375l-1.328125 0q-0.34375 0 -0.5 -0.140625q-0.15625 -0.140625 -0.15625 -0.359375q0 -0.21875 0.15625 -0.359375q0.15625 -0.140625 0.5 -0.140625l2.3125 0l0 7.359375q0 0.953125 0.609375 1.578125q0.609375 0.625 1.53125 0.625q2.390625 0 4.40625 -2.203125l0 -6.359375l-1.828125 0q-0.34375 0 -0.5 -0.140625q-0.15625 -0.140625 -0.15625 -0.359375q0 -0.21875 0.15625 -0.359375q0.15625 -0.140625 0.5 -0.140625l2.8125 0l0 9.171875l0.828125 0q0.34375 0 0.5 0.140625q0.15625 0.125 0.15625 0.34375q0 0.21875 -0.15625 0.359375q-0.15625 0.140625 -0.5 0.140625l-1.8125 0zm9.855469 -10.15625l0 2.484375q1.921875 -1.734375 2.875 -2.21875q0.953125 -0.5 1.765625 -0.5q0.875 0 1.625 0.59375q0.765625 0.578125 0.765625 0.890625q0 0.21875 -0.15625 0.375q-0.140625 0.140625 -0.359375 0.140625q-0.125 0 -0.203125 -0.03125q-0.078125 -0.046875 -0.3125 -0.28125q-0.40625 -0.40625 -0.71875 -0.546875q-0.296875 -0.15625 -0.59375 -0.15625q-0.640625 0 -1.546875 0.515625q-0.90625 0.515625 -3.140625 2.515625l0 5.390625l4.359375 0q0.359375 0 0.5 0.140625q0.15625 0.125 0.15625 0.34375q0 0.21875 -0.15625 0.359375q-0.140625 0.140625 -0.5 0.140625l-7.734375 0q-0.34375 0 -0.5 -0.125q-0.15625 -0.140625 -0.15625 -0.359375q0 -0.203125 0.140625 -0.328125q0.15625 -0.140625 0.515625 -0.140625l2.390625 0l0 -8.203125l-1.828125 0q-0.34375 0 -0.5 -0.140625q-0.15625 -0.140625 -0.15625 -0.359375q0 -0.21875 0.140625 -0.359375q0.15625 -0.140625 0.515625 -0.140625l2.8125 0zm19.683594 1.0l0 -0.328125q0 -0.359375 0.140625 -0.515625q0.140625 -0.15625 0.34375 -0.15625q0.234375 0 0.375 0.15625q0.140625 0.15625 0.140625 0.515625l0 2.234375q-0.015625 0.359375 -0.15625 0.515625q-0.125 0.140625 -0.359375 0.140625q-0.1875 0 -0.328125 -0.125q-0.140625 -0.140625 -0.15625 -0.453125q-0.078125 -0.828125 -1.109375 -1.578125q-1.015625 -0.75 -2.75 -0.75q-2.1875 0 -3.328125 1.375q-1.140625 1.359375 -1.140625 3.125q0 1.921875 1.25 3.171875q1.265625 1.234375 3.25 1.234375q1.15625 0 2.34375 -0.421875q1.1875 -0.421875 2.15625 -1.359375q0.234375 -0.234375 0.421875 -0.234375q0.203125 0 0.328125 0.140625q0.140625 0.125 0.140625 0.328125q0 0.5 -1.171875 1.265625q-1.921875 1.265625 -4.265625 1.265625q-2.375 0 -3.90625 -1.515625q-1.53125 -1.53125 -1.53125 -3.859375q0 -2.375 1.5625 -3.9375q1.578125 -1.578125 3.953125 -1.578125q2.265625 0 3.796875 1.34375zm15.621094 4.3125l-10.03125 0q0.25 1.90625 1.59375 3.078125q1.34375 1.171875 3.328125 1.171875q1.09375 0 2.296875 -0.359375q1.21875 -0.375 1.984375 -0.96875q0.21875 -0.171875 0.375 -0.171875q0.1875 0 0.328125 0.140625q0.140625 0.140625 0.140625 0.34375q0 0.203125 -0.1875 0.390625q-0.5625 0.578125 -2.0 1.09375q-1.421875 0.515625 -2.9375 0.515625q-2.53125 0 -4.234375 -1.65625q-1.6875 -1.671875 -1.6875 -4.015625q0 -2.15625 1.578125 -3.6875q1.59375 -1.53125 3.9375 -1.53125q2.421875 0 3.96875 1.578125q1.5625 1.578125 1.546875 4.078125zm-1.0 -1.0q-0.296875 -1.625 -1.546875 -2.640625q-1.234375 -1.015625 -2.96875 -1.015625q-1.71875 0 -2.96875 1.015625q-1.234375 1.0 -1.53125 2.640625l9.015625 0z" fill-rule="nonzero"/><path fill="#c9daf8" d="m54.19685 155.7535l0 0c0 -6.010025 4.8720856 -10.882111 10.882107 -10.882111l141.4169 0c2.8861084 0 5.654022 1.1465149 7.694809 3.1873016c2.0407867 2.0407867 3.1873016 4.8087006 3.1873016 7.694809l0 43.52713c0 6.010025 -4.8720856 10.882111 -10.882111 10.882111l-141.4169 0l0 0c-6.010021 0 -10.882107 -4.8720856 -10.882107 -10.882111z" fill-rule="evenodd"/><path stroke="#666666" stroke-width="2.0" stroke-linejoin="round" stroke-linecap="butt" d="m54.19685 155.7535l0 0c0 -6.010025 4.8720856 -10.882111 10.882107 -10.882111l141.4169 0c2.8861084 0 5.654022 1.1465149 7.694809 3.1873016c2.0407867 2.0407867 3.1873016 4.8087006 3.1873016 7.694809l0 43.52713c0 6.010025 -4.8720856 10.882111 -10.882111 10.882111l-141.4169 0l0 0c-6.010021 0 -10.882107 -4.8720856 -10.882107 -10.882111z" fill-rule="evenodd"/><path fill="#434343" d="m80.896774 161.4008l0 1.0q1.25 -1.34375 2.515625 -1.34375q0.765625 0 1.34375 0.40625q0.578125 0.40625 0.953125 1.21875q0.65625 -0.8125 1.328125 -1.21875q0.6875 -0.40625 1.359375 -0.40625q1.0625 0 1.703125 0.6875q0.828125 0.890625 0.828125 1.953125l0 6.875l0.828125 0q0.359375 0 0.5 0.140625q0.15625 0.125 0.15625 0.34375q0 0.21875 -0.15625 0.359375q-0.140625 0.140625 -0.5 0.140625l-1.8125 0l0 -7.765625q0 -0.75 -0.453125 -1.234375q-0.453125 -0.5 -1.0625 -0.5q-0.53125 0 -1.140625 0.40625q-0.59375 0.390625 -1.34375 1.578125l0 6.53125l0.8125 0q0.359375 0 0.5 0.140625q0.15625 0.125 0.15625 0.34375q0 0.21875 -0.15625 0.359375q-0.140625 0.140625 -0.5 0.140625l-1.8125 0l0 -7.703125q0 -0.78125 -0.46875 -1.28125q-0.453125 -0.515625 -1.03125 -0.515625q-0.53125 0 -1.046875 0.328125q-0.71875 0.484375 -1.5 1.65625l0 6.53125l0.828125 0q0.359375 0 0.5 0.140625q0.15625 0.125 0.15625 0.34375q0 0.21875 -0.15625 0.359375q-0.140625 0.140625 -0.5 0.140625l-2.640625 0q-0.359375 0 -0.515625 -0.140625q-0.140625 -0.140625 -0.140625 -0.359375q0 -0.21875 0.140625 -0.34375q0.15625 -0.140625 0.515625 -0.140625l0.828125 0l0 -8.171875l-0.828125 0q-0.359375 0 -0.515625 -0.140625q-0.140625 -0.140625 -0.140625 -0.359375q0 -0.21875 0.140625 -0.359375q0.15625 -0.140625 0.515625 -0.140625l1.8125 0zm21.714844 10.15625l0 -1.421875q-2.140625 1.8125 -4.578125 1.8125q-1.765625 0 -2.765625 -0.890625q-1.0 -0.90625 -1.0 -2.203125q0 -1.4375 1.3125 -2.5q1.3125 -1.0625 3.828125 -1.0625q0.6875 0 1.484375 0.09375q0.796875 0.078125 1.71875 0.265625l0 -1.59375q0 -0.8125 -0.75 -1.40625q-0.75 -0.59375 -2.25 -0.59375q-1.140625 0 -3.21875 0.65625q-0.375 0.125 -0.484375 0.125q-0.1875 0 -0.328125 -0.140625q-0.125 -0.140625 -0.125 -0.359375q0 -0.1875 0.109375 -0.3125q0.171875 -0.171875 1.328125 -0.484375q1.828125 -0.484375 2.765625 -0.484375q1.859375 0 2.90625 0.921875q1.046875 0.921875 1.046875 2.078125l0 6.515625l1.3125 0q0.359375 0 0.515625 0.140625q0.15625 0.125 0.15625 0.34375q0 0.21875 -0.15625 0.359375q-0.15625 0.140625 -0.515625 0.140625l-2.3125 0zm0 -4.90625q-0.6875 -0.1875 -1.46875 -0.28125q-0.765625 -0.09375 -1.625 -0.09375q-2.140625 0 -3.34375 0.921875q-0.921875 0.6875 -0.921875 1.65625q0 0.890625 0.6875 1.5q0.703125 0.609375 2.046875 0.609375q1.28125 0 2.375 -0.515625q1.09375 -0.515625 2.25 -1.625l0 -2.171875zm7.8710938 -5.25l0 1.796875q0.875 -1.0625 1.875 -1.59375q1.015625 -0.546875 2.390625 -0.546875q1.453125 0 2.671875 0.6875q1.234375 0.671875 1.90625 1.890625q0.671875 1.203125 0.671875 2.546875q0 2.109375 -1.515625 3.625q-1.515625 1.5 -3.734375 1.5q-2.625 0 -4.265625 -2.140625l0 5.9375l2.390625 0q0.34375 0 0.5 0.125q0.15625 0.140625 0.15625 0.359375q0 0.21875 -0.15625 0.359375q-0.15625 0.140625 -0.5 0.140625l-4.703125 0q-0.359375 0 -0.515625 -0.140625q-0.140625 -0.140625 -0.140625 -0.359375q0 -0.21875 0.140625 -0.359375q0.15625 -0.125 0.515625 -0.125l1.328125 0l0 -12.703125l-1.328125 0q-0.359375 0 -0.515625 -0.140625q-0.140625 -0.140625 -0.140625 -0.359375q0 -0.21875 0.140625 -0.359375q0.15625 -0.140625 0.515625 -0.140625l2.3125 0zm8.53125 4.78125q0 -1.703125 -1.25 -2.90625q-1.234375 -1.21875 -3.015625 -1.21875q-1.78125 0 -3.03125 1.21875q-1.234375 1.21875 -1.234375 2.90625q0 1.6875 1.234375 2.90625q1.25 1.21875 3.03125 1.21875q1.78125 0 3.015625 -1.203125q1.25 -1.21875 1.25 -2.921875zm14.339844 -7.359375l0 8.234375q0 2.078125 -1.390625 3.484375q-1.375 1.40625 -3.328125 1.40625q-1.3125 0 -2.34375 -0.578125q-1.015625 -0.578125 -1.734375 -1.734375q-0.703125 -1.171875 -0.703125 -2.578125l0 -8.234375l-0.84375 0q-0.34375 0 -0.5 -0.125q-0.15625 -0.140625 -0.15625 -0.359375q0 -0.21875 0.171875 -0.375q0.140625 -0.125 0.484375 -0.125l3.640625 0q0.34375 0 0.5 0.140625q0.15625 0.140625 0.15625 0.359375q0 0.21875 -0.15625 0.359375q-0.15625 0.125 -0.5 0.125l-1.8125 0l0 8.234375q0 1.625 1.109375 2.765625q1.109375 1.140625 2.640625 1.140625q0.96875 0 1.765625 -0.4375q0.8125 -0.453125 1.40625 -1.375q0.609375 -0.9375 0.609375 -2.09375l0 -8.234375l-1.8125 0q-0.359375 0 -0.515625 -0.125q-0.140625 -0.140625 -0.140625 -0.359375q0 -0.21875 0.140625 -0.359375q0.15625 -0.140625 0.515625 -0.140625l3.625 0q0.359375 0 0.5 0.140625q0.15625 0.140625 0.15625 0.359375q0 0.21875 -0.15625 0.359375q-0.140625 0.125 -0.5 0.125l-0.828125 0zm12.886719 3.234375q0 -0.34375 0.140625 -0.5q0.140625 -0.15625 0.359375 -0.15625q0.21875 0 0.359375 0.15625q0.140625 0.15625 0.140625 0.515625l0 1.6875q0 0.359375 -0.140625 0.515625q-0.140625 0.140625 -0.359375 0.140625q-0.203125 0 -0.34375 -0.125q-0.125 -0.125 -0.15625 -0.421875q-0.0625 -0.703125 -0.71875 -1.15625q-0.96875 -0.65625 -2.546875 -0.65625q-1.65625 0 -2.5625 0.65625q-0.703125 0.515625 -0.703125 1.125q0 0.703125 0.828125 1.171875q0.5625 0.328125 2.125 0.515625q2.0625 0.21875 2.859375 0.5q1.125 0.40625 1.6875 1.140625q0.5625 0.71875 0.5625 1.5625q0 1.25 -1.21875 2.234375q-1.203125 0.984375 -3.53125 0.984375q-2.328125 0 -3.828125 -1.1875q0 0.390625 -0.046875 0.515625q-0.046875 0.109375 -0.171875 0.203125q-0.109375 0.078125 -0.265625 0.078125q-0.21875 0 -0.359375 -0.15625q-0.140625 -0.15625 -0.140625 -0.5l0 -2.03125q0 -0.34375 0.140625 -0.5q0.140625 -0.15625 0.359375 -0.15625q0.203125 0 0.34375 0.15625q0.15625 0.140625 0.15625 0.390625q0 0.53125 0.265625 0.890625q0.421875 0.5625 1.3125 0.9375q0.890625 0.375 2.203125 0.375q1.921875 0 2.859375 -0.71875q0.9375 -0.71875 0.9375 -1.515625q0 -0.90625 -0.953125 -1.46875q-0.96875 -0.546875 -2.796875 -0.734375q-1.828125 -0.1875 -2.625 -0.484375q-0.796875 -0.3125 -1.25 -0.921875q-0.4375 -0.609375 -0.4375 -1.3125q0 -1.265625 1.234375 -2.0q1.25 -0.75 2.96875 -0.75q2.03125 0 3.3125 1.0zm11.636719 -5.703125l0 2.546875l-1.453125 0l0 -2.546875l1.453125 0zm0.03125 5.046875l0 9.171875l3.875 0q0.359375 0 0.515625 0.140625q0.15625 0.125 0.15625 0.34375q0 0.21875 -0.15625 0.359375q-0.15625 0.140625 -0.515625 0.140625l-8.71875 0q-0.359375 0 -0.515625 -0.140625q-0.140625 -0.140625 -0.140625 -0.359375q0 -0.21875 0.140625 -0.34375q0.15625 -0.140625 0.515625 -0.140625l3.859375 0l0 -8.171875l-2.859375 0q-0.359375 0 -0.515625 -0.140625q-0.15625 -0.140625 -0.15625 -0.34375q0 -0.234375 0.140625 -0.375q0.15625 -0.140625 0.53125 -0.140625l3.84375 0zm10.699219 0l0 1.5q1.03125 -1.046875 1.859375 -1.4375q0.84375 -0.40625 1.890625 -0.40625q1.125 0 2.046875 0.484375q0.65625 0.34375 1.1875 1.15625q0.53125 0.8125 0.53125 1.671875l0 6.203125l0.828125 0q0.359375 0 0.5 0.140625q0.15625 0.125 0.15625 0.34375q0 0.21875 -0.15625 0.359375q-0.140625 0.140625 -0.5 0.140625l-2.625 0q-0.375 0 -0.53125 -0.140625q-0.140625 -0.140625 -0.140625 -0.359375q0 -0.21875 0.140625 -0.34375q0.15625 -0.140625 0.53125 -0.140625l0.8125 0l0 -6.03125q0 -1.046875 -0.765625 -1.765625q-0.75 -0.71875 -2.03125 -0.71875q-0.96875 0 -1.6875 0.390625q-0.71875 0.390625 -2.046875 1.953125l0 6.171875l1.125 0q0.34375 0 0.5 0.140625q0.15625 0.125 0.15625 0.34375q0 0.21875 -0.15625 0.359375q-0.15625 0.140625 -0.5 0.140625l-3.21875 0q-0.34375 0 -0.5 -0.140625q-0.15625 -0.140625 -0.15625 -0.359375q0 -0.21875 0.15625 -0.34375q0.15625 -0.140625 0.5 -0.140625l1.109375 0l0 -8.171875l-0.828125 0q-0.34375 0 -0.5 -0.140625q-0.15625 -0.140625 -0.15625 -0.359375q0 -0.21875 0.15625 -0.359375q0.15625 -0.140625 0.5 -0.140625l1.8125 0zm20.902344 1.8125l0 -1.8125l2.3125 0q0.34375 0 0.5 0.140625q0.15625 0.140625 0.15625 0.375q0 0.203125 -0.15625 0.34375q-0.15625 0.140625 -0.5 0.140625l-1.328125 0l0 9.84375q0 0.984375 -0.421875 1.75q-0.28125 0.515625 -0.9375 1.0625q-0.65625 0.5625 -1.203125 0.796875q-0.53125 0.234375 -1.4375 0.234375l-2.78125 0q-0.359375 0 -0.515625 -0.140625q-0.140625 -0.140625 -0.140625 -0.359375q0 -0.21875 0.140625 -0.359375q0.15625 -0.140625 0.515625 -0.140625l2.8125 0.015625q0.875 0 1.5625 -0.453125q0.703125 -0.4375 1.15625 -1.296875q0.265625 -0.5 0.265625 -1.25l0 -2.96875q-1.578125 2.171875 -4.078125 2.171875q-2.03125 0 -3.5 -1.5q-1.46875 -1.515625 -1.46875 -3.625q0 -2.125 1.46875 -3.625q1.46875 -1.5 3.5 -1.5q2.5 0 4.078125 2.15625zm0 2.96875q0 -1.734375 -1.1875 -2.921875q-1.1875 -1.203125 -2.84375 -1.203125q-1.65625 0 -2.84375 1.203125q-1.171875 1.1875 -1.171875 2.921875q0 1.734375 1.171875 2.9375q1.1875 1.1875 2.84375 1.1875q1.65625 0 2.84375 -1.1875q1.1875 -1.203125 1.1875 -2.9375z" fill-rule="nonzero"/><path fill="#434343" d="m83.240524 194.93205l0 4.640625l3.375 0q0.359375 0 0.5 0.140625q0.15625 0.125 0.15625 0.34375q0 0.21875 -0.15625 0.359375q-0.140625 0.140625 -0.5 0.140625l-5.6875 0q-0.34375 0 -0.5 -0.140625q-0.15625 -0.140625 -0.15625 -0.359375q0 -0.21875 0.15625 -0.34375q0.15625 -0.140625 0.5 -0.140625l1.328125 0l0 -11.75l-1.328125 0q-0.34375 0 -0.5 -0.125q-0.15625 -0.140625 -0.15625 -0.359375q0 -0.21875 0.15625 -0.359375q0.15625 -0.140625 0.5 -0.140625l5.71875 0q2.03125 0 3.3125 1.203125q1.28125 1.1875 1.28125 2.796875q0 0.953125 -0.421875 1.71875q-0.40625 0.75 -0.984375 1.1875q-0.890625 0.65625 -1.828125 0.96875q-0.671875 0.21875 -1.6875 0.21875l-3.078125 0zm0 -0.984375l3.140625 0q1.09375 0 2.046875 -0.484375q0.953125 -0.484375 1.390625 -1.1875q0.4375 -0.703125 0.4375 -1.4375q0 -1.15625 -1.0 -2.078125q-0.984375 -0.9375 -2.515625 -0.9375l-3.5 0l0 6.125zm16.605469 6.609375l-4.5625 -9.15625l-0.296875 0q-0.359375 0 -0.515625 -0.140625q-0.140625 -0.140625 -0.140625 -0.34375q0 -0.15625 0.078125 -0.28125q0.078125 -0.125 0.1875 -0.171875q0.125 -0.0625 0.390625 -0.0625l2.6875 0q0.359375 0 0.5 0.140625q0.15625 0.140625 0.15625 0.375q0 0.203125 -0.15625 0.34375q-0.140625 0.140625 -0.5 0.140625l-1.3125 0l4.015625 8.078125l3.953125 -8.078125l-1.3125 0q-0.359375 0 -0.515625 -0.140625q-0.140625 -0.140625 -0.140625 -0.359375q0 -0.21875 0.140625 -0.359375q0.15625 -0.140625 0.515625 -0.140625l2.671875 0q0.375 0 0.515625 0.140625q0.15625 0.140625 0.15625 0.375q0 0.140625 -0.09375 0.28125q-0.09375 0.125 -0.21875 0.171875q-0.109375 0.03125 -0.640625 0.03125l-6.234375 12.703125l1.53125 0q0.34375 0 0.5 0.125q0.15625 0.140625 0.15625 0.359375q0 0.21875 -0.15625 0.359375q-0.15625 0.140625 -0.5 0.140625l-5.671875 0q-0.359375 0 -0.515625 -0.140625q-0.140625 -0.140625 -0.140625 -0.359375q0 -0.21875 0.140625 -0.359375q0.15625 -0.125 0.515625 -0.125l3.078125 0l1.734375 -3.546875zm12.324219 -10.15625l5.34375 0q0.34375 0 0.5 0.140625q0.15625 0.140625 0.15625 0.375q0 0.203125 -0.15625 0.34375q-0.15625 0.140625 -0.5 0.140625l-5.34375 0l0 6.546875q0 0.859375 0.671875 1.4375q0.6875 0.578125 2.015625 0.578125q1.0 0 2.15625 -0.296875q1.15625 -0.3125 1.8125 -0.6875q0.234375 -0.140625 0.375 -0.140625q0.1875 0 0.328125 0.140625q0.140625 0.140625 0.140625 0.34375q0 0.171875 -0.140625 0.328125q-0.375 0.390625 -1.828125 0.84375q-1.453125 0.453125 -2.765625 0.453125q-1.734375 0 -2.75 -0.8125q-1.015625 -0.8125 -1.015625 -2.1875l0 -6.546875l-1.8125 0q-0.359375 0 -0.515625 -0.140625q-0.140625 -0.140625 -0.140625 -0.359375q0 -0.21875 0.140625 -0.359375q0.15625 -0.140625 0.515625 -0.140625l1.8125 0l0 -2.90625q0 -0.34375 0.140625 -0.5q0.140625 -0.15625 0.34375 -0.15625q0.234375 0 0.375 0.15625q0.140625 0.15625 0.140625 0.5l0 2.90625zm13.183594 -4.546875l0 6.046875q0.9375 -1.015625 1.796875 -1.421875q0.859375 -0.421875 1.921875 -0.421875q1.15625 0 1.953125 0.40625q0.796875 0.40625 1.328125 1.25q0.546875 0.828125 0.546875 1.75l0 6.109375l1.109375 0q0.359375 0 0.5 0.140625q0.15625 0.125 0.15625 0.34375q0 0.21875 -0.15625 0.359375q-0.140625 0.140625 -0.5 0.140625l-3.203125 0q-0.359375 0 -0.515625 -0.140625q-0.15625 -0.140625 -0.15625 -0.359375q0 -0.21875 0.15625 -0.34375q0.15625 -0.140625 0.515625 -0.140625l1.109375 0l0 -6.03125q0 -1.078125 -0.78125 -1.78125q-0.765625 -0.71875 -2.125 -0.71875q-1.078125 0 -1.84375 0.53125q-0.546875 0.375 -1.8125 1.765625l0 6.234375l1.109375 0q0.34375 0 0.5 0.140625q0.15625 0.125 0.15625 0.34375q0 0.21875 -0.15625 0.359375q-0.15625 0.140625 -0.5 0.140625l-3.21875 0q-0.34375 0 -0.5 -0.140625q-0.15625 -0.140625 -0.15625 -0.359375q0 -0.21875 0.15625 -0.34375q0.15625 -0.140625 0.5 -0.140625l1.125 0l0 -12.734375l-1.328125 0q-0.359375 0 -0.515625 -0.140625q-0.140625 -0.140625 -0.140625 -0.359375q0 -0.203125 0.140625 -0.34375q0.15625 -0.140625 0.515625 -0.140625l2.3125 0zm23.136719 9.65625q0 2.25 -1.609375 3.84375q-1.609375 1.59375 -3.890625 1.59375q-2.296875 0 -3.90625 -1.59375q-1.59375 -1.609375 -1.59375 -3.84375q0 -2.25 1.59375 -3.84375q1.609375 -1.609375 3.90625 -1.609375q2.28125 0 3.890625 1.59375q1.609375 1.59375 1.609375 3.859375zm-1.0 0q0 -1.859375 -1.3125 -3.15625q-1.3125 -1.296875 -3.1875 -1.296875q-1.875 0 -3.203125 1.3125q-1.3125 1.296875 -1.3125 3.140625q0 1.828125 1.3125 3.140625q1.328125 1.3125 3.203125 1.3125q1.875 0 3.1875 -1.3125q1.3125 -1.3125 1.3125 -3.140625zm6.7148438 -5.109375l0 1.5q1.03125 -1.046875 1.859375 -1.4375q0.84375 -0.40625 1.890625 -0.40625q1.125 0 2.046875 0.484375q0.65625 0.34375 1.1875 1.15625q0.53125 0.8125 0.53125 1.671875l0 6.203125l0.828125 0q0.359375 0 0.5 0.140625q0.15625 0.125 0.15625 0.34375q0 0.21875 -0.15625 0.359375q-0.140625 0.140625 -0.5 0.140625l-2.625 0q-0.375 0 -0.53125 -0.140625q-0.140625 -0.140625 -0.140625 -0.359375q0 -0.21875 0.140625 -0.34375q0.15625 -0.140625 0.53125 -0.140625l0.8125 0l0 -6.03125q0 -1.046875 -0.765625 -1.765625q-0.75 -0.71875 -2.03125 -0.71875q-0.96875 0 -1.6875 0.390625q-0.71875 0.390625 -2.046875 1.953125l0 6.171875l1.125 0q0.34375 0 0.5 0.140625q0.15625 0.125 0.15625 0.34375q0 0.21875 -0.15625 0.359375q-0.15625 0.140625 -0.5 0.140625l-3.21875 0q-0.34375 0 -0.5 -0.140625q-0.15625 -0.140625 -0.15625 -0.359375q0 -0.21875 0.15625 -0.34375q0.15625 -0.140625 0.5 -0.140625l1.109375 0l0 -8.171875l-0.828125 0q-0.34375 0 -0.5 -0.140625q-0.15625 -0.140625 -0.15625 -0.359375q0 -0.21875 0.15625 -0.359375q0.15625 -0.140625 0.5 -0.140625l1.8125 0zm17.480469 4.3125q0 -1.34375 0.34375 -2.84375q0.359375 -1.515625 1.34375 -3.5q1.0 -1.984375 1.46875 -2.390625q0.140625 -0.125 0.296875 -0.125q0.21875 0 0.359375 0.140625q0.140625 0.140625 0.140625 0.328125q0 0.125 -0.078125 0.265625q-1.28125 2.359375 -1.84375 4.28125q-0.546875 1.921875 -0.546875 3.84375q0 1.9375 0.546875 3.859375q0.5625 1.921875 1.84375 4.28125q0.078125 0.140625 0.078125 0.265625q0 0.1875 -0.140625 0.328125q-0.140625 0.15625 -0.359375 0.15625q-0.15625 0 -0.296875 -0.125q-0.4375 -0.40625 -1.421875 -2.34375q-0.984375 -1.921875 -1.359375 -3.40625q-0.375 -1.5 -0.375 -3.015625zm14.792969 0.015625q0 1.34375 -0.359375 2.859375q-0.34375 1.5 -1.34375 3.484375q-0.984375 2.0 -1.4375 2.390625q-0.140625 0.140625 -0.3125 0.140625q-0.203125 0 -0.359375 -0.15625q-0.140625 -0.140625 -0.140625 -0.328125q0 -0.125 0.078125 -0.265625q1.296875 -2.359375 1.84375 -4.28125q0.546875 -1.921875 0.546875 -3.84375q0 -1.9375 -0.546875 -3.859375q-0.546875 -1.921875 -1.84375 -4.28125q-0.078125 -0.140625 -0.078125 -0.265625q0 -0.1875 0.140625 -0.328125q0.15625 -0.140625 0.359375 -0.140625q0.171875 0 0.3125 0.125q0.421875 0.390625 1.40625 2.328125q0.984375 1.9375 1.359375 3.421875q0.375 1.484375 0.375 3.0z" fill-rule="nonzero"/><path fill="#c9daf8" d="m54.19685 266.85587l0 0c0 -6.0100403 4.8720856 -10.882111 10.882107 -10.882111l141.4169 0c2.8861084 0 5.654022 1.1465149 7.694809 3.1872864c2.0407867 2.040802 3.1873016 4.808716 3.1873016 7.694824l0 43.52713c0 6.01001 -4.8720856 10.882111 -10.882111 10.882111l-141.4169 0l0 0c-6.010021 0 -10.882107 -4.872101 -10.882107 -10.882111z" fill-rule="evenodd"/><path stroke="#666666" stroke-width="2.0" stroke-linejoin="round" stroke-linecap="butt" d="m54.19685 266.85587l0 0c0 -6.0100403 4.8720856 -10.882111 10.882107 -10.882111l141.4169 0c2.8861084 0 5.654022 1.1465149 7.694809 3.1872864c2.0407867 2.040802 3.1873016 4.808716 3.1873016 7.694824l0 43.52713c0 6.01001 -4.8720856 10.882111 -10.882111 10.882111l-141.4169 0l0 0c-6.010021 0 -10.882107 -4.872101 -10.882107 -10.882111z" fill-rule="evenodd"/><path fill="#434343" d="m117.70146 284.42505l0 -0.328125q0 -0.34375 0.140625 -0.5q0.140625 -0.15625 0.359375 -0.15625q0.21875 0 0.34375 0.15625q0.140625 0.15625 0.140625 0.5l0 2.515625q0 0.34375 -0.140625 0.5q-0.125 0.15625 -0.34375 0.15625q-0.21875 0 -0.359375 -0.140625q-0.125 -0.140625 -0.140625 -0.453125q-0.046875 -0.984375 -1.015625 -1.765625q-0.953125 -0.796875 -2.5 -0.796875q-1.625 0 -2.59375 0.84375q-0.953125 0.828125 -0.953125 1.96875q0 0.59375 0.265625 1.078125q0.28125 0.46875 0.71875 0.765625q0.453125 0.296875 1.015625 0.484375q0.5625 0.1875 1.75 0.375q2.0 0.328125 2.765625 0.671875q1.015625 0.453125 1.53125 1.265625q0.53125 0.8125 0.53125 1.90625q0 1.6875 -1.34375 2.890625q-1.34375 1.1875 -3.640625 1.1875q-2.5625 0 -4.09375 -1.609375l0 0.5625q0 0.34375 -0.140625 0.5q-0.125 0.15625 -0.359375 0.15625q-0.203125 0 -0.34375 -0.15625q-0.140625 -0.15625 -0.140625 -0.5l0 -2.71875q0 -0.359375 0.125 -0.515625q0.140625 -0.15625 0.359375 -0.15625q0.21875 0 0.34375 0.140625q0.140625 0.140625 0.15625 0.453125q0.0625 1.078125 1.15625 1.96875q1.09375 0.890625 2.9375 0.890625q1.859375 0 2.921875 -0.921875q1.078125 -0.9375 1.078125 -2.203125q0 -0.765625 -0.40625 -1.375q-0.40625 -0.609375 -1.21875 -0.953125q-0.5625 -0.25 -2.34375 -0.546875q-2.453125 -0.421875 -3.53125 -1.265625q-1.078125 -0.84375 -1.078125 -2.390625q0 -1.546875 1.234375 -2.65625q1.234375 -1.125 3.265625 -1.125q2.0625 0 3.546875 1.296875zm11.371094 -2.46875l0 2.546875l-1.453125 0l0 -2.546875l1.453125 0zm0.03125 5.046875l0 9.171875l3.875 0q0.359375 0 0.515625 0.140625q0.15625 0.125 0.15625 0.34375q0 0.21875 -0.15625 0.359375q-0.15625 0.140625 -0.515625 0.140625l-8.71875 0q-0.359375 0 -0.515625 -0.140625q-0.140625 -0.140625 -0.140625 -0.359375q0 -0.21875 0.140625 -0.34375q0.15625 -0.140625 0.515625 -0.140625l3.859375 0l0 -8.171875l-2.859375 0q-0.359375 0 -0.515625 -0.140625q-0.15625 -0.140625 -0.15625 -0.34375q0 -0.234375 0.140625 -0.375q0.15625 -0.140625 0.53125 -0.140625l3.84375 0zm10.699219 0l0 1.5q1.03125 -1.046875 1.859375 -1.4375q0.84375 -0.40625 1.890625 -0.40625q1.125 0 2.046875 0.484375q0.65625 0.34375 1.1875 1.15625q0.53125 0.8125 0.53125 1.671875l0 6.203125l0.828125 0q0.359375 0 0.5 0.140625q0.15625 0.125 0.15625 0.34375q0 0.21875 -0.15625 0.359375q-0.140625 0.140625 -0.5 0.140625l-2.625 0q-0.375 0 -0.53125 -0.140625q-0.140625 -0.140625 -0.140625 -0.359375q0 -0.21875 0.140625 -0.34375q0.15625 -0.140625 0.53125 -0.140625l0.8125 0l0 -6.03125q0 -1.046875 -0.765625 -1.765625q-0.75 -0.71875 -2.03125 -0.71875q-0.96875 0 -1.6875 0.390625q-0.71875 0.390625 -2.046875 1.953125l0 6.171875l1.125 0q0.34375 0 0.5 0.140625q0.15625 0.125 0.15625 0.34375q0 0.21875 -0.15625 0.359375q-0.15625 0.140625 -0.5 0.140625l-3.21875 0q-0.34375 0 -0.5 -0.140625q-0.15625 -0.140625 -0.15625 -0.359375q0 -0.21875 0.15625 -0.34375q0.15625 -0.140625 0.5 -0.140625l1.109375 0l0 -8.171875l-0.828125 0q-0.34375 0 -0.5 -0.140625q-0.15625 -0.140625 -0.15625 -0.359375q0 -0.21875 0.15625 -0.359375q0.15625 -0.140625 0.5 -0.140625l1.8125 0zm15.589844 5.765625l0 4.390625l-2.3125 0q-0.34375 0 -0.5 -0.140625q-0.15625 -0.140625 -0.15625 -0.359375q0 -0.21875 0.15625 -0.34375q0.15625 -0.140625 0.5 -0.140625l1.328125 0l0 -12.734375l-1.328125 0q-0.34375 0 -0.5 -0.140625q-0.15625 -0.140625 -0.15625 -0.359375q0 -0.203125 0.15625 -0.34375q0.15625 -0.140625 0.5 -0.140625l2.3125 0l0 9.0625l4.1875 -3.515625l-0.5 0q-0.359375 0 -0.515625 -0.140625q-0.140625 -0.140625 -0.140625 -0.34375q0 -0.234375 0.140625 -0.375q0.15625 -0.140625 0.515625 -0.140625l3.140625 0q0.375 0 0.515625 0.140625q0.15625 0.140625 0.15625 0.375q0 0.203125 -0.15625 0.34375q-0.140625 0.140625 -0.515625 0.140625l-1.125 0l-3.84375 3.21875l4.859375 4.953125l1.140625 0q0.359375 0 0.5 0.140625q0.15625 0.125 0.15625 0.34375q0 0.21875 -0.15625 0.359375q-0.140625 0.140625 -0.5 0.140625l-3.1875 0q-0.359375 0 -0.515625 -0.140625q-0.140625 -0.140625 -0.140625 -0.359375q0 -0.21875 0.140625 -0.34375q0.15625 -0.140625 0.515625 -0.140625l0.6875 0l-4.234375 -4.34375l-1.125 0.9375z" fill-rule="nonzero"/><path fill="#d9ead3" d="m378.88452 36.54132l0 0c0 -17.592289 14.261353 -31.853657 31.853638 -31.853657l310.78088 0c8.44812 0 16.550232 3.356001 22.523926 9.32972c5.973755 5.9737186 9.329712 14.075821 9.329712 22.523937l0 127.4108c0 17.592285 -14.261353 31.853653 -31.853638 31.853653l-310.78088 0c-17.592285 0 -31.853638 -14.261368 -31.853638 -31.853653z" fill-rule="evenodd"/><path stroke="#666666" stroke-width="1.0" stroke-linejoin="round" stroke-linecap="butt" d="m378.88452 36.54132l0 0c0 -17.592289 14.261353 -31.853657 31.853638 -31.853657l310.78088 0c8.44812 0 16.550232 3.356001 22.523926 9.32972c5.973755 5.9737186 9.329712 14.075821 9.329712 22.523937l0 127.4108c0 17.592285 -14.261353 31.853653 -31.853638 31.853653l-310.78088 0c-17.592285 0 -31.853638 -14.261368 -31.853638 -31.853653z" fill-rule="evenodd"/><path fill="#434343" d="m506.38055 165.89116l0 4.640625l3.375 0q0.359375 0 0.5 0.140625q0.15625 0.125 0.15625 0.34375q0 0.21875 -0.15625 0.359375q-0.140625 0.140625 -0.5 0.140625l-5.6875 0q-0.34375 0 -0.5 -0.140625q-0.15625 -0.140625 -0.15625 -0.359375q0 -0.21875 0.15625 -0.34375q0.15625 -0.140625 0.5 -0.140625l1.328125 0l0 -11.75l-1.328125 0q-0.34375 0 -0.5 -0.125q-0.15625 -0.140625 -0.15625 -0.359375q0 -0.21875 0.15625 -0.359375q0.15625 -0.140625 0.5 -0.140625l5.71875 0q2.03125 0 3.3125 1.203125q1.28125 1.1875 1.28125 2.796875q0 0.953125 -0.421875 1.71875q-0.40625 0.75 -0.984375 1.1875q-0.890625 0.65625 -1.828125 0.96875q-0.671875 0.21875 -1.6875 0.21875l-3.078125 0zm0 -0.984375l3.140625 0q1.09375 0 2.046875 -0.484375q0.953125 -0.484375 1.390625 -1.1875q0.4375 -0.703125 0.4375 -1.4375q0 -1.15625 -1.0 -2.078125q-0.984375 -0.9375 -2.515625 -0.9375l-3.5 0l0 6.125zm16.605469 6.609375l-4.5625 -9.15625l-0.296875 0q-0.359375 0 -0.515625 -0.140625q-0.140625 -0.140625 -0.140625 -0.34375q0 -0.15625 0.078125 -0.28125q0.078125 -0.125 0.1875 -0.171875q0.125 -0.0625 0.390625 -0.0625l2.6875 0q0.359375 0 0.5 0.140625q0.15625 0.140625 0.15625 0.375q0 0.203125 -0.15625 0.34375q-0.140625 0.140625 -0.5 0.140625l-1.3125 0l4.015625 8.078125l3.953125 -8.078125l-1.3125 0q-0.359375 0 -0.515625 -0.140625q-0.140625 -0.140625 -0.140625 -0.359375q0 -0.21875 0.140625 -0.359375q0.15625 -0.140625 0.515625 -0.140625l2.671875 0q0.375 0 0.515625 0.140625q0.15625 0.140625 0.15625 0.375q0 0.140625 -0.09375 0.28125q-0.09375 0.125 -0.21875 0.171875q-0.109375 0.03125 -0.640625 0.03125l-6.234375 12.703125l1.53125 0q0.34375 0 0.5 0.125q0.15625 0.140625 0.15625 0.359375q0 0.21875 -0.15625 0.359375q-0.15625 0.140625 -0.5 0.140625l-5.671875 0q-0.359375 0 -0.515625 -0.140625q-0.140625 -0.140625 -0.140625 -0.359375q0 -0.21875 0.140625 -0.359375q0.15625 -0.125 0.515625 -0.125l3.078125 0l1.734375 -3.546875zm12.324219 -10.15625l5.34375 0q0.34375 0 0.5 0.140625q0.15625 0.140625 0.15625 0.375q0 0.203125 -0.15625 0.34375q-0.15625 0.140625 -0.5 0.140625l-5.34375 0l0 6.546875q0 0.859375 0.671875 1.4375q0.6875 0.578125 2.015625 0.578125q1.0 0 2.15625 -0.296875q1.15625 -0.3125 1.8125 -0.6875q0.234375 -0.140625 0.375 -0.140625q0.1875 0 0.328125 0.140625q0.140625 0.140625 0.140625 0.34375q0 0.171875 -0.140625 0.328125q-0.375 0.390625 -1.828125 0.84375q-1.453125 0.453125 -2.765625 0.453125q-1.734375 0 -2.75 -0.8125q-1.015625 -0.8125 -1.015625 -2.1875l0 -6.546875l-1.8125 0q-0.359375 0 -0.515625 -0.140625q-0.140625 -0.140625 -0.140625 -0.359375q0 -0.21875 0.140625 -0.359375q0.15625 -0.140625 0.515625 -0.140625l1.8125 0l0 -2.90625q0 -0.34375 0.140625 -0.5q0.140625 -0.15625 0.34375 -0.15625q0.234375 0 0.375 0.15625q0.140625 0.15625 0.140625 0.5l0 2.90625zm13.183594 -4.546875l0 6.046875q0.9375 -1.015625 1.796875 -1.421875q0.859375 -0.421875 1.921875 -0.421875q1.15625 0 1.953125 0.40625q0.796875 0.40625 1.328125 1.25q0.546875 0.828125 0.546875 1.75l0 6.109375l1.109375 0q0.359375 0 0.5 0.140625q0.15625 0.125 0.15625 0.34375q0 0.21875 -0.15625 0.359375q-0.140625 0.140625 -0.5 0.140625l-3.203125 0q-0.359375 0 -0.515625 -0.140625q-0.15625 -0.140625 -0.15625 -0.359375q0 -0.21875 0.15625 -0.34375q0.15625 -0.140625 0.515625 -0.140625l1.109375 0l0 -6.03125q0 -1.078125 -0.78125 -1.78125q-0.765625 -0.71875 -2.125 -0.71875q-1.078125 0 -1.84375 0.53125q-0.546875 0.375 -1.8125 1.765625l0 6.234375l1.109375 0q0.34375 0 0.5 0.140625q0.15625 0.125 0.15625 0.34375q0 0.21875 -0.15625 0.359375q-0.15625 0.140625 -0.5 0.140625l-3.21875 0q-0.34375 0 -0.5 -0.140625q-0.15625 -0.140625 -0.15625 -0.359375q0 -0.21875 0.15625 -0.34375q0.15625 -0.140625 0.5 -0.140625l1.125 0l0 -12.734375l-1.328125 0q-0.359375 0 -0.515625 -0.140625q-0.140625 -0.140625 -0.140625 -0.359375q0 -0.203125 0.140625 -0.34375q0.15625 -0.140625 0.515625 -0.140625l2.3125 0zm23.136719 9.65625q0 2.25 -1.609375 3.84375q-1.609375 1.59375 -3.890625 1.59375q-2.296875 0 -3.90625 -1.59375q-1.59375 -1.609375 -1.59375 -3.84375q0 -2.25 1.59375 -3.84375q1.609375 -1.609375 3.90625 -1.609375q2.28125 0 3.890625 1.59375q1.609375 1.59375 1.609375 3.859375zm-1.0 0q0 -1.859375 -1.3125 -3.15625q-1.3125 -1.296875 -3.1875 -1.296875q-1.875 0 -3.203125 1.3125q-1.3125 1.296875 -1.3125 3.140625q0 1.828125 1.3125 3.140625q1.328125 1.3125 3.203125 1.3125q1.875 0 3.1875 -1.3125q1.3125 -1.3125 1.3125 -3.140625zm6.7148438 -5.109375l0 1.5q1.03125 -1.046875 1.859375 -1.4375q0.84375 -0.40625 1.890625 -0.40625q1.125 0 2.046875 0.484375q0.65625 0.34375 1.1875 1.15625q0.53125 0.8125 0.53125 1.671875l0 6.203125l0.828125 0q0.359375 0 0.5 0.140625q0.15625 0.125 0.15625 0.34375q0 0.21875 -0.15625 0.359375q-0.140625 0.140625 -0.5 0.140625l-2.625 0q-0.375 0 -0.53125 -0.140625q-0.140625 -0.140625 -0.140625 -0.359375q0 -0.21875 0.140625 -0.34375q0.15625 -0.140625 0.53125 -0.140625l0.8125 0l0 -6.03125q0 -1.046875 -0.765625 -1.765625q-0.75 -0.71875 -2.03125 -0.71875q-0.96875 0 -1.6875 0.390625q-0.71875 0.390625 -2.046875 1.953125l0 6.171875l1.125 0q0.34375 0 0.5 0.140625q0.15625 0.125 0.15625 0.34375q0 0.21875 -0.15625 0.359375q-0.15625 0.140625 -0.5 0.140625l-3.21875 0q-0.34375 0 -0.5 -0.140625q-0.15625 -0.140625 -0.15625 -0.359375q0 -0.21875 0.15625 -0.34375q0.15625 -0.140625 0.5 -0.140625l1.109375 0l0 -8.171875l-0.828125 0q-0.34375 0 -0.5 -0.140625q-0.15625 -0.140625 -0.15625 -0.359375q0 -0.21875 0.15625 -0.359375q0.15625 -0.140625 0.5 -0.140625l1.8125 0zm32.726562 10.15625l-1.375 0l-4.953125 -12.734375l-0.765625 0q-0.265625 0 -0.390625 -0.046875q-0.109375 -0.046875 -0.1875 -0.171875q-0.078125 -0.125 -0.078125 -0.265625q0 -0.140625 0.078125 -0.265625q0.078125 -0.125 0.1875 -0.171875q0.125 -0.0625 0.390625 -0.0625l3.671875 0q0.28125 0 0.390625 0.0625q0.109375 0.046875 0.1875 0.171875q0.078125 0.125 0.078125 0.265625q0 0.140625 -0.09375 0.265625q-0.078125 0.125 -0.1875 0.171875q-0.109375 0.046875 -0.375 0.046875l-1.890625 0l4.578125 11.75l0.0625 0l4.515625 -11.75l-1.875 0q-0.28125 0 -0.40625 -0.046875q-0.109375 -0.046875 -0.1875 -0.171875q-0.078125 -0.125 -0.078125 -0.265625q0 -0.140625 0.078125 -0.265625q0.09375 -0.125 0.203125 -0.171875q0.109375 -0.0625 0.390625 -0.0625l3.65625 0q0.28125 0 0.390625 0.0625q0.125 0.046875 0.203125 0.171875q0.078125 0.125 0.078125 0.265625q0 0.140625 -0.09375 0.265625q-0.078125 0.125 -0.1875 0.171875q-0.109375 0.046875 -0.390625 0.046875l-0.75 0l-4.875 12.734375zm14.324219 -4.109375l-1.125 0l-3.796875 -8.625l-0.1875 0l0 11.75l1.828125 0q0.34375 0 0.5 0.140625q0.15625 0.125 0.15625 0.34375q0 0.21875 -0.15625 0.359375q-0.15625 0.140625 -0.5 0.140625l-3.640625 0q-0.34375 0 -0.5 -0.140625q-0.15625 -0.140625 -0.15625 -0.359375q0 -0.21875 0.15625 -0.34375q0.15625 -0.140625 0.5 -0.140625l0.828125 0l0 -11.75l-0.609375 0q-0.359375 0 -0.515625 -0.125q-0.140625 -0.140625 -0.140625 -0.359375q0 -0.21875 0.140625 -0.359375q0.15625 -0.140625 0.515625 -0.140625l2.40625 0l3.734375 8.484375l3.65625 -8.484375l2.421875 0q0.359375 0 0.515625 0.140625q0.15625 0.140625 0.15625 0.359375q0 0.21875 -0.15625 0.359375q-0.15625 0.125 -0.515625 0.125l-0.609375 0l0 11.75l0.8125 0q0.375 0 0.515625 0.140625q0.15625 0.125 0.15625 0.34375q0 0.21875 -0.15625 0.359375q-0.140625 0.140625 -0.515625 0.140625l-3.609375 0q-0.359375 0 -0.515625 -0.140625q-0.15625 -0.140625 -0.15625 -0.359375q0 -0.21875 0.140625 -0.34375q0.15625 -0.140625 0.53125 -0.140625l1.8125 0l0 -11.75l-0.21875 0l-3.703125 8.625z" fill-rule="nonzero"/><path fill="#000000" fill-opacity="0.0" d="m135.7874 99.07612l0 45.795265" fill-rule="evenodd"/><path stroke="#666666" stroke-width="2.0" stroke-linejoin="round" stroke-linecap="butt" d="m135.7874 99.07612l0 33.795265" fill-rule="evenodd"/><path fill="#666666" stroke="#666666" stroke-width="2.0" stroke-linecap="butt" d="m132.48393 132.8714l3.3034668 9.076187l3.3034668 -9.076187z" fill-rule="evenodd"/><path fill="#000000" fill-opacity="0.0" d="m135.7874 210.16273l0 45.826767" fill-rule="evenodd"/><path stroke="#666666" stroke-width="2.0" stroke-linejoin="round" stroke-linecap="butt" d="m135.7874 210.16273l0 33.826767" fill-rule="evenodd"/><path fill="#666666" stroke="#666666" stroke-width="2.0" stroke-linecap="butt" d="m132.48393 243.9895l3.3034668 9.076202l3.3034668 -9.076202z" fill-rule="evenodd"/><path fill="#c9daf8" d="m413.39505 49.619736l0 0c0 -8.694672 7.0484314 -15.743095 15.743103 -15.743095l82.46655 0c4.1753235 0 8.179657 1.6586418 11.13205 4.611046c2.9523926 2.952404 4.611084 6.9567223 4.611084 11.13205l0 62.970497c0 8.694679 -7.048462 15.743095 -15.743134 15.743095l-82.46655 0c-8.694672 0 -15.743103 -7.048416 -15.743103 -15.743095z" fill-rule="evenodd"/><path stroke="#666666" stroke-width="2.0" stroke-linejoin="round" stroke-linecap="butt" d="m413.39505 49.619736l0 0c0 -8.694672 7.0484314 -15.743095 15.743103 -15.743095l82.46655 0c4.1753235 0 8.179657 1.6586418 11.13205 4.611046c2.9523926 2.952404 4.611084 6.9567223 4.611084 11.13205l0 62.970497c0 8.694679 -7.048462 15.743095 -15.743134 15.743095l-82.46655 0c-8.694672 0 -15.743103 -7.048416 -15.743103 -15.743095z" fill-rule="evenodd"/><path fill="#434343" d="m459.8148 62.41061l0 8.703121q0 1.796875 -1.34375 3.109375q-1.328125 1.3125 -3.171875 1.3125q-1.109375 0 -2.1875 -0.515625q-1.078125 -0.515625 -2.34375 -1.671875l0 -3.625q0 -0.359375 0.140625 -0.5q0.140625 -0.15625 0.359375 -0.15625q0.21875 0 0.359375 0.15625q0.140625 0.140625 0.140625 0.5l-0.015625 3.15625q0.90625 0.828125 1.78125 1.25q0.890625 0.421875 1.765625 0.421875q0.953125 0 1.8125 -0.46875q0.640625 -0.359375 1.171875 -1.1875q0.546875 -0.828125 0.546875 -1.78125l0 -8.703121l-3.859375 0q-0.359375 0 -0.515625 -0.125q-0.15625 -0.140625 -0.15625 -0.359375q0 -0.21875 0.15625 -0.359375q0.15625 -0.140625 0.515625 -0.140625l7.1875 0q0.359375 0 0.5 0.140625q0.15625 0.140625 0.15625 0.359375q0 0.21875 -0.15625 0.359375q-0.140625 0.125 -0.5 0.125l-2.34375 0zm15.886719 7.890621l-10.03125 0q0.25 1.90625 1.59375 3.078125q1.34375 1.171875 3.328125 1.171875q1.09375 0 2.296875 -0.359375q1.21875 -0.375 1.984375 -0.96875q0.21875 -0.171875 0.375 -0.171875q0.1875 0 0.328125 0.140625q0.140625 0.140625 0.140625 0.34375q0 0.203125 -0.1875 0.390625q-0.5625 0.578125 -2.0 1.09375q-1.421875 0.515625 -2.9375 0.515625q-2.53125 0 -4.234375 -1.65625q-1.6875 -1.671875 -1.6875 -4.015625q0 -2.15625 1.578125 -3.6875q1.59375 -1.53125 3.9375 -1.53125q2.421875 0 3.96875 1.578125q1.5625 1.578125 1.546875 4.078125zm-1.0 -1.0q-0.296875 -1.625 -1.546875 -2.640625q-1.234375 -1.015625 -2.96875 -1.015625q-1.71875 0 -2.96875 1.015625q-1.234375 1.0 -1.53125 2.640625l9.015625 0zm8.058594 -4.3125l5.34375 0q0.34375 0 0.5 0.140625q0.15625 0.140625 0.15625 0.375q0 0.203125 -0.15625 0.34375q-0.15625 0.140625 -0.5 0.140625l-5.34375 0l0 6.546875q0 0.859375 0.671875 1.4375q0.6875 0.578125 2.015625 0.578125q1.0 0 2.15625 -0.296875q1.15625 -0.3125 1.8125 -0.6875q0.234375 -0.140625 0.375 -0.140625q0.1875 0 0.328125 0.140625q0.140625 0.140625 0.140625 0.34375q0 0.171875 -0.140625 0.328125q-0.375 0.390625 -1.828125 0.84375q-1.453125 0.453125 -2.765625 0.453125q-1.734375 0 -2.75 -0.8125q-1.015625 -0.8125 -1.015625 -2.1875l0 -6.546875l-1.8125 0q-0.359375 0 -0.515625 -0.140625q-0.140625 -0.140625 -0.140625 -0.359375q0 -0.21875 0.140625 -0.359375q0.15625 -0.140625 0.515625 -0.140625l1.8125 0l0 -2.9062462q0 -0.34375 0.140625 -0.5q0.140625 -0.15625 0.34375 -0.15625q0.234375 0 0.375 0.15625q0.140625 0.15625 0.140625 0.5l0 2.9062462z" fill-rule="nonzero"/><path fill="#434343" d="m452.08237 95.80123l0 -1.8125l2.3125 0q0.34375 0 0.5 0.140625q0.15625 0.140625 0.15625 0.375q0 0.203125 -0.15625 0.34375q-0.15625 0.140625 -0.5 0.140625l-1.328125 0l0 9.84375q0 0.984375 -0.421875 1.75q-0.28125 0.515625 -0.9375 1.0625q-0.65625 0.5625 -1.203125 0.796875q-0.53125 0.234375 -1.4375 0.234375l-2.78125 0q-0.359375 0 -0.515625 -0.140625q-0.140625 -0.140625 -0.140625 -0.359375q0 -0.21875 0.140625 -0.359375q0.15625 -0.140625 0.515625 -0.140625l2.8125 0.015625q0.875 0 1.5625 -0.453125q0.703125 -0.4375 1.15625 -1.296875q0.265625 -0.5 0.265625 -1.25l0 -2.96875q-1.578125 2.171875 -4.078125 2.171875q-2.03125 0 -3.5 -1.5q-1.46875 -1.515625 -1.46875 -3.625q0 -2.125 1.46875 -3.625q1.46875 -1.5 3.5 -1.5q2.5 0 4.078125 2.15625zm0 2.96875q0 -1.734375 -1.1875 -2.921875q-1.1875 -1.203125 -2.84375 -1.203125q-1.65625 0 -2.84375 1.203125q-1.171875 1.1875 -1.171875 2.921875q0 1.734375 1.171875 2.9375q1.1875 1.1875 2.84375 1.1875q1.65625 0 2.84375 -1.1875q1.1875 -1.203125 1.1875 -2.9375zm7.8867188 -0.75l0 5.140625l1.8125 0q0.359375 0 0.515625 0.140625q0.15625 0.125 0.15625 0.34375q0 0.21875 -0.15625 0.359375q-0.15625 0.140625 -0.515625 0.140625l-4.125 0q-0.34375 0 -0.5 -0.140625q-0.15625 -0.140625 -0.15625 -0.359375q0 -0.21875 0.15625 -0.34375q0.15625 -0.140625 0.5 -0.140625l1.328125 0l0 -11.75l-1.328125 0q-0.34375 0 -0.5 -0.125q-0.15625 -0.140625 -0.15625 -0.359375q0 -0.21875 0.15625 -0.359375q0.15625 -0.140625 0.5 -0.140625l5.953125 0q1.84375 0 3.09375 1.171875q1.265625 1.171875 1.265625 2.625q0 1.0625 -0.78125 2.0q-0.78125 0.921875 -2.609375 1.546875q1.0625 0.71875 1.8125 1.640625q0.75 0.90625 2.40625 3.75l0.75 0q0.34375 0 0.5 0.140625q0.15625 0.125 0.15625 0.34375q0 0.21875 -0.15625 0.359375q-0.15625 0.140625 -0.5 0.140625l-1.3125 0q-1.828125 -3.265625 -2.84375 -4.375q-1.0 -1.125 -2.296875 -1.75l-3.125 0zm0 -0.984375l2.6875 0q1.28125 0 2.328125 -0.46875q1.046875 -0.46875 1.515625 -1.09375q0.484375 -0.640625 0.484375 -1.296875q0 -0.984375 -1.0 -1.875q-0.984375 -0.890625 -2.390625 -0.890625l-3.625 0l0 5.625zm15.464844 1.484375l0 4.640625l3.375 0q0.359375 0 0.5 0.140625q0.15625 0.125 0.15625 0.34375q0 0.21875 -0.15625 0.359375q-0.140625 0.140625 -0.5 0.140625l-5.6875 0q-0.34375 0 -0.5 -0.140625q-0.15625 -0.140625 -0.15625 -0.359375q0 -0.21875 0.15625 -0.34375q0.15625 -0.140625 0.5 -0.140625l1.328125 0l0 -11.75l-1.328125 0q-0.34375 0 -0.5 -0.125q-0.15625 -0.140625 -0.15625 -0.359375q0 -0.21875 0.15625 -0.359375q0.15625 -0.140625 0.5 -0.140625l5.71875 0q2.03125 0 3.3125 1.203125q1.28125 1.1875 1.28125 2.796875q0 0.953125 -0.421875 1.71875q-0.40625 0.75 -0.984375 1.1875q-0.890625 0.65625 -1.828125 0.96875q-0.671875 0.21875 -1.6875 0.21875l-3.078125 0zm0 -0.984375l3.140625 0q1.09375 0 2.046875 -0.484375q0.953125 -0.484375 1.390625 -1.1875q0.4375 -0.703125 0.4375 -1.4375q0 -1.15625 -1.0 -2.078125q-0.984375 -0.9375 -2.515625 -0.9375l-3.5 0l0 6.125zm20.871094 -5.75l0 -0.703125q0 -0.34375 0.125 -0.5q0.140625 -0.15625 0.375 -0.15625q0.21875 0 0.34375 0.15625q0.140625 0.15625 0.140625 0.5l0 2.734375q0 0.359375 -0.140625 0.515625q-0.125 0.15625 -0.34375 0.15625q-0.203125 0 -0.34375 -0.140625q-0.125 -0.140625 -0.15625 -0.453125q-0.0625 -0.984375 -1.0625 -1.75q-1.359375 -1.046875 -3.09375 -1.046875q-1.140625 0 -2.140625 0.5q-0.75 0.375 -1.203125 0.890625q-0.765625 0.921875 -1.234375 2.03125q-0.328125 0.828125 -0.328125 1.859375l0 1.71875q0 2.203125 1.59375 3.828125q1.59375 1.625 3.703125 1.625q1.265625 0 2.265625 -0.546875q1.015625 -0.5625 1.953125 -1.671875q0.1875 -0.25 0.4375 -0.25q0.21875 0 0.34375 0.140625q0.125 0.125 0.125 0.3125q0 0.28125 -0.5 0.828125q-0.96875 1.078125 -2.171875 1.625q-1.1875 0.546875 -2.421875 0.546875q-1.0625 0 -2.171875 -0.421875q-0.84375 -0.3125 -1.390625 -0.734375q-0.546875 -0.421875 -1.359375 -1.421875q-0.796875 -1.0 -1.09375 -1.84375q-0.296875 -0.859375 -0.296875 -1.875l0 -2.0q0 -1.453125 0.78125 -2.96875q0.78125 -1.53125 2.125 -2.34375q1.359375 -0.8125 2.953125 -0.8125q2.4375 0 4.1875 1.671875z" fill-rule="nonzero"/><path fill="#c9daf8" d="m573.6654 49.62499l0 0c0 -8.694675 7.048401 -15.743099 15.743103 -15.743099l113.71063 0c4.175354 0 8.179626 1.6586418 11.13208 4.611046c2.9523926 2.952404 4.611023 6.9567223 4.611023 11.132053l0 62.970493c0 8.694679 -7.048401 15.743095 -15.743103 15.743095l-113.71063 0c-8.694702 0 -15.743103 -7.048416 -15.743103 -15.743095z" fill-rule="evenodd"/><path stroke="#666666" stroke-width="2.0" stroke-linejoin="round" stroke-linecap="butt" d="m573.6654 49.62499l0 0c0 -8.694675 7.048401 -15.743099 15.743103 -15.743099l113.71063 0c4.175354 0 8.179626 1.6586418 11.13208 4.611046c2.9523926 2.952404 4.611023 6.9567223 4.611023 11.132053l0 62.970493c0 8.694679 -7.048401 15.743095 -15.743103 15.743095l-113.71063 0c-8.694702 0 -15.743103 -7.048416 -15.743103 -15.743095z" fill-rule="evenodd"/><path fill="#434343" d="m629.42786 62.41586l0 8.234371q0 2.078125 -1.390625 3.484375q-1.375 1.40625 -3.328125 1.40625q-1.3125 0 -2.34375 -0.578125q-1.015625 -0.578125 -1.734375 -1.734375q-0.703125 -1.171875 -0.703125 -2.578125l0 -8.234371l-0.84375 0q-0.34375 0 -0.5 -0.125q-0.15625 -0.140625 -0.15625 -0.359375q0 -0.21875 0.171875 -0.375q0.140625 -0.125 0.484375 -0.125l3.640625 0q0.34375 0 0.5 0.140625q0.15625 0.140625 0.15625 0.359375q0 0.21875 -0.15625 0.359375q-0.15625 0.125 -0.5 0.125l-1.8125 0l0 8.234371q0 1.625 1.109375 2.765625q1.109375 1.140625 2.640625 1.140625q0.96875 0 1.765625 -0.4375q0.8125 -0.453125 1.40625 -1.375q0.609375 -0.9375 0.609375 -2.09375l0 -8.234371l-1.8125 0q-0.359375 0 -0.515625 -0.125q-0.140625 -0.140625 -0.140625 -0.359375q0 -0.21875 0.140625 -0.359375q0.15625 -0.140625 0.515625 -0.140625l3.625 0q0.359375 0 0.5 0.140625q0.15625 0.140625 0.15625 0.359375q0 0.21875 -0.15625 0.359375q-0.140625 0.125 -0.5 0.125l-0.828125 0zm12.886719 3.2343712q0 -0.34375 0.140625 -0.5q0.140625 -0.15625 0.359375 -0.15625q0.21875 0 0.359375 0.15625q0.140625 0.15625 0.140625 0.515625l0 1.6875q0 0.359375 -0.140625 0.515625q-0.140625 0.140625 -0.359375 0.140625q-0.203125 0 -0.34375 -0.125q-0.125 -0.125 -0.15625 -0.421875q-0.0625 -0.703125 -0.71875 -1.15625q-0.96875 -0.65625 -2.546875 -0.65625q-1.65625 0 -2.5625 0.65625q-0.703125 0.515625 -0.703125 1.125q0 0.703125 0.828125 1.171875q0.5625 0.328125 2.125 0.515625q2.0625 0.21875 2.859375 0.5q1.125 0.40625 1.6875 1.140625q0.5625 0.71875 0.5625 1.5625q0 1.25 -1.21875 2.234375q-1.203125 0.984375 -3.53125 0.984375q-2.328125 0 -3.828125 -1.1875q0 0.390625 -0.046875 0.515625q-0.046875 0.109375 -0.171875 0.203125q-0.109375 0.078125 -0.265625 0.078125q-0.21875 0 -0.359375 -0.15625q-0.140625 -0.15625 -0.140625 -0.5l0 -2.03125q0 -0.34375 0.140625 -0.5q0.140625 -0.15625 0.359375 -0.15625q0.203125 0 0.34375 0.15625q0.15625 0.140625 0.15625 0.390625q0 0.53125 0.265625 0.890625q0.421875 0.5625 1.3125 0.9375q0.890625 0.375 2.203125 0.375q1.921875 0 2.859375 -0.71875q0.9375 -0.71875 0.9375 -1.515625q0 -0.90625 -0.953125 -1.46875q-0.96875 -0.546875 -2.796875 -0.734375q-1.828125 -0.1875 -2.625 -0.484375q-0.796875 -0.3125 -1.25 -0.921875q-0.4375 -0.609375 -0.4375 -1.3125q0 -1.265625 1.234375 -2.0q1.25 -0.75 2.96875 -0.75q2.03125 0 3.3125 1.0zm16.480469 4.65625l-10.03125 0q0.25 1.90625 1.59375 3.078125q1.34375 1.171875 3.328125 1.171875q1.09375 0 2.296875 -0.359375q1.21875 -0.375 1.984375 -0.96875q0.21875 -0.171875 0.375 -0.171875q0.1875 0 0.328125 0.140625q0.140625 0.140625 0.140625 0.34375q0 0.203125 -0.1875 0.390625q-0.5625 0.578125 -2.0 1.09375q-1.421875 0.515625 -2.9375 0.515625q-2.53125 0 -4.234375 -1.65625q-1.6875 -1.671875 -1.6875 -4.015625q0 -2.15625 1.578125 -3.6875q1.59375 -1.53125 3.9375 -1.53125q2.421875 0 3.96875 1.578125q1.5625 1.578125 1.546875 4.078125zm-1.0 -1.0q-0.296875 -1.625 -1.546875 -2.640625q-1.234375 -1.015625 -2.96875 -1.015625q-1.71875 0 -2.96875 1.015625q-1.234375 1.0 -1.53125 2.640625l9.015625 0zm8.902344 -4.3125l0 2.484375q1.921875 -1.734375 2.875 -2.21875q0.953125 -0.5 1.765625 -0.5q0.875 0 1.625 0.59375q0.765625 0.578125 0.765625 0.890625q0 0.21875 -0.15625 0.375q-0.140625 0.140625 -0.359375 0.140625q-0.125 0 -0.203125 -0.03125q-0.078125 -0.046875 -0.3125 -0.28125q-0.40625 -0.40625 -0.71875 -0.546875q-0.296875 -0.15625 -0.59375 -0.15625q-0.640625 0 -1.546875 0.515625q-0.90625 0.515625 -3.140625 2.515625l0 5.390625l4.359375 0q0.359375 0 0.5 0.140625q0.15625 0.125 0.15625 0.34375q0 0.21875 -0.15625 0.359375q-0.140625 0.140625 -0.5 0.140625l-7.734375 0q-0.34375 0 -0.5 -0.125q-0.15625 -0.140625 -0.15625 -0.359375q0 -0.203125 0.140625 -0.328125q0.15625 -0.140625 0.515625 -0.140625l2.390625 0l0 -8.203125l-1.828125 0q-0.34375 0 -0.5 -0.140625q-0.15625 -0.140625 -0.15625 -0.359375q0 -0.21875 0.140625 -0.359375q0.15625 -0.140625 0.515625 -0.140625l2.8125 0z" fill-rule="nonzero"/><path fill="#434343" d="m593.48254 97.52523l0 5.640625l3.375 0q0.359375 0 0.5 0.140625q0.15625 0.125 0.15625 0.34375q0 0.21875 -0.15625 0.359375q-0.140625 0.140625 -0.5 0.140625l-5.6875 0q-0.34375 0 -0.5 -0.140625q-0.15625 -0.140625 -0.15625 -0.359375q0 -0.21875 0.15625 -0.34375q0.15625 -0.140625 0.5 -0.140625l1.328125 0l0 -11.75l-1.328125 0q-0.34375 0 -0.5 -0.125q-0.15625 -0.140625 -0.15625 -0.359375q0 -0.21875 0.1875 -0.375q0.125 -0.125 0.46875 -0.125l10.84375 0l0 3.390625q0 0.359375 -0.140625 0.515625q-0.140625 0.140625 -0.34375 0.140625q-0.234375 0 -0.375 -0.140625q-0.140625 -0.15625 -0.140625 -0.515625l0 -2.40625l-7.53125 0l0 5.125l3.53125 0l0 -1.109375q0 -0.359375 0.140625 -0.5q0.140625 -0.15625 0.359375 -0.15625q0.21875 0 0.359375 0.15625q0.140625 0.140625 0.140625 0.5l0 3.203125q0 0.359375 -0.140625 0.515625q-0.140625 0.140625 -0.359375 0.140625q-0.21875 0 -0.359375 -0.140625q-0.140625 -0.15625 -0.140625 -0.515625l0 -1.109375l-3.53125 0zm20.152344 6.625l0 -1.4375q-2.015625 1.828125 -4.359375 1.828125q-1.453125 0 -2.203125 -0.796875q-0.96875 -1.03125 -0.96875 -2.390625l0 -6.359375l-1.328125 0q-0.34375 0 -0.5 -0.140625q-0.15625 -0.140625 -0.15625 -0.359375q0 -0.21875 0.15625 -0.359375q0.15625 -0.140625 0.5 -0.140625l2.3125 0l0 7.359375q0 0.953125 0.609375 1.578125q0.609375 0.625 1.53125 0.625q2.390625 0 4.40625 -2.203125l0 -6.359375l-1.828125 0q-0.34375 0 -0.5 -0.140625q-0.15625 -0.140625 -0.15625 -0.359375q0 -0.21875 0.15625 -0.359375q0.15625 -0.140625 0.5 -0.140625l2.8125 0l0 9.171875l0.828125 0q0.34375 0 0.5 0.140625q0.15625 0.125 0.15625 0.34375q0 0.21875 -0.15625 0.359375q-0.15625 0.140625 -0.5 0.140625l-1.8125 0zm7.8398438 -10.15625l0 1.5q1.03125 -1.046875 1.859375 -1.4375q0.84375 -0.40625 1.890625 -0.40625q1.125 0 2.046875 0.484375q0.65625 0.34375 1.1875 1.15625q0.53125 0.8125 0.53125 1.671875l0 6.203125l0.828125 0q0.359375 0 0.5 0.140625q0.15625 0.125 0.15625 0.34375q0 0.21875 -0.15625 0.359375q-0.140625 0.140625 -0.5 0.140625l-2.625 0q-0.375 0 -0.53125 -0.140625q-0.140625 -0.140625 -0.140625 -0.359375q0 -0.21875 0.140625 -0.34375q0.15625 -0.140625 0.53125 -0.140625l0.8125 0l0 -6.03125q0 -1.046875 -0.765625 -1.765625q-0.75 -0.71875 -2.03125 -0.71875q-0.96875 0 -1.6875 0.390625q-0.71875 0.390625 -2.046875 1.953125l0 6.171875l1.125 0q0.34375 0 0.5 0.140625q0.15625 0.125 0.15625 0.34375q0 0.21875 -0.15625 0.359375q-0.15625 0.140625 -0.5 0.140625l-3.21875 0q-0.34375 0 -0.5 -0.140625q-0.15625 -0.140625 -0.15625 -0.359375q0 -0.21875 0.15625 -0.34375q0.15625 -0.140625 0.5 -0.140625l1.109375 0l0 -8.171875l-0.828125 0q-0.34375 0 -0.5 -0.140625q-0.15625 -0.140625 -0.15625 -0.359375q0 -0.21875 0.15625 -0.359375q0.15625 -0.140625 0.5 -0.140625l1.8125 0zm21.699219 1.0l0 -0.328125q0 -0.359375 0.140625 -0.515625q0.140625 -0.15625 0.34375 -0.15625q0.234375 0 0.375 0.15625q0.140625 0.15625 0.140625 0.515625l0 2.234375q-0.015625 0.359375 -0.15625 0.515625q-0.125 0.140625 -0.359375 0.140625q-0.1875 0 -0.328125 -0.125q-0.140625 -0.140625 -0.15625 -0.453125q-0.078125 -0.828125 -1.109375 -1.578125q-1.015625 -0.75 -2.75 -0.75q-2.1875 0 -3.328125 1.375q-1.140625 1.359375 -1.140625 3.125q0 1.921875 1.25 3.171875q1.265625 1.234375 3.25 1.234375q1.15625 0 2.34375 -0.421875q1.1875 -0.421875 2.15625 -1.359375q0.234375 -0.234375 0.421875 -0.234375q0.203125 0 0.328125 0.140625q0.140625 0.125 0.140625 0.328125q0 0.5 -1.171875 1.265625q-1.921875 1.265625 -4.265625 1.265625q-2.375 0 -3.90625 -1.515625q-1.53125 -1.53125 -1.53125 -3.859375q0 -2.375 1.5625 -3.9375q1.578125 -1.578125 3.953125 -1.578125q2.265625 0 3.796875 1.34375zm8.277344 -1.0l5.34375 0q0.34375 0 0.5 0.140625q0.15625 0.140625 0.15625 0.375q0 0.203125 -0.15625 0.34375q-0.15625 0.140625 -0.5 0.140625l-5.34375 0l0 6.546875q0 0.859375 0.671875 1.4375q0.6875 0.578125 2.015625 0.578125q1.0 0 2.15625 -0.296875q1.15625 -0.3125 1.8125 -0.6875q0.234375 -0.140625 0.375 -0.140625q0.1875 0 0.328125 0.140625q0.140625 0.140625 0.140625 0.34375q0 0.171875 -0.140625 0.328125q-0.375 0.390625 -1.828125 0.84375q-1.453125 0.453125 -2.765625 0.453125q-1.734375 0 -2.75 -0.8125q-1.015625 -0.8125 -1.015625 -2.1875l0 -6.546875l-1.8125 0q-0.359375 0 -0.515625 -0.140625q-0.140625 -0.140625 -0.140625 -0.359375q0 -0.21875 0.140625 -0.359375q0.15625 -0.140625 0.515625 -0.140625l1.8125 0l0 -2.90625q0 -0.34375 0.140625 -0.5q0.140625 -0.15625 0.34375 -0.15625q0.234375 0 0.375 0.15625q0.140625 0.15625 0.140625 0.5l0 2.90625zm16.902344 -5.046875l0 2.546875l-1.453125 0l0 -2.546875l1.453125 0zm0.03125 5.046875l0 9.171875l3.875 0q0.359375 0 0.515625 0.140625q0.15625 0.125 0.15625 0.34375q0 0.21875 -0.15625 0.359375q-0.15625 0.140625 -0.515625 0.140625l-8.71875 0q-0.359375 0 -0.515625 -0.140625q-0.140625 -0.140625 -0.140625 -0.359375q0 -0.21875 0.140625 -0.34375q0.15625 -0.140625 0.515625 -0.140625l3.859375 0l0 -8.171875l-2.859375 0q-0.359375 0 -0.515625 -0.140625q-0.15625 -0.140625 -0.15625 -0.34375q0 -0.234375 0.140625 -0.375q0.15625 -0.140625 0.53125 -0.140625l3.84375 0zm19.386719 5.109375q0 2.25 -1.609375 3.84375q-1.609375 1.59375 -3.890625 1.59375q-2.296875 0 -3.90625 -1.59375q-1.59375 -1.609375 -1.59375 -3.84375q0 -2.25 1.59375 -3.84375q1.609375 -1.609375 3.90625 -1.609375q2.28125 0 3.890625 1.59375q1.609375 1.59375 1.609375 3.859375zm-1.0 0q0 -1.859375 -1.3125 -3.15625q-1.3125 -1.296875 -3.1875 -1.296875q-1.875 0 -3.203125 1.3125q-1.3125 1.296875 -1.3125 3.140625q0 1.828125 1.3125 3.140625q1.328125 1.3125 3.203125 1.3125q1.875 0 3.1875 -1.3125q1.3125 -1.3125 1.3125 -3.140625zm6.7148438 -5.109375l0 1.5q1.03125 -1.046875 1.859375 -1.4375q0.84375 -0.40625 1.890625 -0.40625q1.125 0 2.046875 0.484375q0.65625 0.34375 1.1875 1.15625q0.53125 0.8125 0.53125 1.671875l0 6.203125l0.828125 0q0.359375 0 0.5 0.140625q0.15625 0.125 0.15625 0.34375q0 0.21875 -0.15625 0.359375q-0.140625 0.140625 -0.5 0.140625l-2.625 0q-0.375 0 -0.53125 -0.140625q-0.140625 -0.140625 -0.140625 -0.359375q0 -0.21875 0.140625 -0.34375q0.15625 -0.140625 0.53125 -0.140625l0.8125 0l0 -6.03125q0 -1.046875 -0.765625 -1.765625q-0.75 -0.71875 -2.03125 -0.71875q-0.96875 0 -1.6875 0.390625q-0.71875 0.390625 -2.046875 1.953125l0 6.171875l1.125 0q0.34375 0 0.5 0.140625q0.15625 0.125 0.15625 0.34375q0 0.21875 -0.15625 0.359375q-0.15625 0.140625 -0.5 0.140625l-3.21875 0q-0.34375 0 -0.5 -0.140625q-0.15625 -0.140625 -0.15625 -0.359375q0 -0.21875 0.15625 -0.34375q0.15625 -0.140625 0.5 -0.140625l1.109375 0l0 -8.171875l-0.828125 0q-0.34375 0 -0.5 -0.140625q-0.15625 -0.140625 -0.15625 -0.359375q0 -0.21875 0.15625 -0.359375q0.15625 -0.140625 0.5 -0.140625l1.8125 0z" fill-rule="nonzero"/><path fill="#000000" fill-opacity="0.0" d="m529.35046 63.262466l44.31494 0" fill-rule="evenodd"/><path stroke="#666666" stroke-width="2.0" stroke-linejoin="round" stroke-linecap="butt" d="m529.35046 63.262466l32.31494 0" fill-rule="evenodd"/><path fill="#666666" stroke="#666666" stroke-width="2.0" stroke-linecap="butt" d="m561.6654 66.56593l9.076172 -3.3034668l-9.076172 -3.303463z" fill-rule="evenodd"/><path fill="#000000" fill-opacity="0.0" d="m573.6654 98.95801l-44.31494 0" fill-rule="evenodd"/><path stroke="#666666" stroke-width="2.0" stroke-linejoin="round" stroke-linecap="butt" d="m573.6654 98.95801l-32.31494 0" fill-rule="evenodd"/><path fill="#666666" stroke="#666666" stroke-width="2.0" stroke-linecap="butt" d="m541.35046 95.65454l-9.076233 3.3034668l9.076233 3.3034592z" fill-rule="evenodd"/><path fill="#000000" fill-opacity="0.0" d="m217.37796 160.13124l196.6614 -101.54332" fill-rule="evenodd"/><path stroke="#666666" stroke-width="2.0" stroke-linejoin="round" stroke-linecap="butt" d="m217.37796 160.13124l185.99884 -96.03786" fill-rule="evenodd"/><path fill="#666666" stroke="#666666" stroke-width="2.0" stroke-linecap="butt" d="m404.89243 67.02866l6.549011 -7.099331l-9.5802 1.2287674z" fill-rule="evenodd"/><path fill="#000000" fill-opacity="0.0" d="m411.3937 94.272964l-194.01575 83.244095" fill-rule="evenodd"/><path stroke="#666666" stroke-width="2.0" stroke-linejoin="round" stroke-linecap="butt" d="m411.3937 94.272964l-182.98798 78.51253" fill-rule="evenodd"/><path fill="#666666" stroke="#666666" stroke-width="2.0" stroke-linecap="butt" d="m227.1032 169.74966l-7.038315 6.6145477l9.643417 -0.54289246z" fill-rule="evenodd"/><path fill="#d9ead3" d="m378.88452 258.06363l0 0c0 -17.592285 14.261353 -31.853653 31.853638 -31.853653l310.78088 0c8.44812 0 16.550232 3.3560028 22.523926 9.329712c5.973755 5.9737244 9.329712 14.075821 9.329712 22.523941l0 127.4108c0 17.592285 -14.261353 31.853668 -31.853638 31.853668l-310.78088 0c-17.592285 0 -31.853638 -14.261383 -31.853638 -31.853668z" fill-rule="evenodd"/><path stroke="#666666" stroke-width="1.0" stroke-linejoin="round" stroke-linecap="butt" d="m378.88452 258.06363l0 0c0 -17.592285 14.261353 -31.853653 31.853638 -31.853653l310.78088 0c8.44812 0 16.550232 3.3560028 22.523926 9.329712c5.973755 5.9737244 9.329712 14.075821 9.329712 22.523941l0 127.4108c0 17.592285 -14.261353 31.853668 -31.853638 31.853668l-310.78088 0c-17.592285 0 -31.853638 -14.261383 -31.853638 -31.853668z" fill-rule="evenodd"/><path fill="#434343" d="m506.38055 387.41345l0 4.640625l3.375 0q0.359375 0 0.5 0.140625q0.15625 0.125 0.15625 0.34375q0 0.21875 -0.15625 0.359375q-0.140625 0.140625 -0.5 0.140625l-5.6875 0q-0.34375 0 -0.5 -0.140625q-0.15625 -0.140625 -0.15625 -0.359375q0 -0.21875 0.15625 -0.34375q0.15625 -0.140625 0.5 -0.140625l1.328125 0l0 -11.75l-1.328125 0q-0.34375 0 -0.5 -0.125q-0.15625 -0.140625 -0.15625 -0.359375q0 -0.21875 0.15625 -0.359375q0.15625 -0.140625 0.5 -0.140625l5.71875 0q2.03125 0 3.3125 1.203125q1.28125 1.1875 1.28125 2.796875q0 0.953125 -0.421875 1.71875q-0.40625 0.75 -0.984375 1.1875q-0.890625 0.65625 -1.828125 0.96875q-0.671875 0.21875 -1.6875 0.21875l-3.078125 0zm0 -0.984375l3.140625 0q1.09375 0 2.046875 -0.484375q0.953125 -0.484375 1.390625 -1.1875q0.4375 -0.703125 0.4375 -1.4375q0 -1.15625 -1.0 -2.078125q-0.984375 -0.9375 -2.515625 -0.9375l-3.5 0l0 6.125zm16.605469 6.609375l-4.5625 -9.15625l-0.296875 0q-0.359375 0 -0.515625 -0.140625q-0.140625 -0.140625 -0.140625 -0.34375q0 -0.15625 0.078125 -0.28125q0.078125 -0.125 0.1875 -0.171875q0.125 -0.0625 0.390625 -0.0625l2.6875 0q0.359375 0 0.5 0.140625q0.15625 0.140625 0.15625 0.375q0 0.203125 -0.15625 0.34375q-0.140625 0.140625 -0.5 0.140625l-1.3125 0l4.015625 8.078125l3.953125 -8.078125l-1.3125 0q-0.359375 0 -0.515625 -0.140625q-0.140625 -0.140625 -0.140625 -0.359375q0 -0.21875 0.140625 -0.359375q0.15625 -0.140625 0.515625 -0.140625l2.671875 0q0.375 0 0.515625 0.140625q0.15625 0.140625 0.15625 0.375q0 0.140625 -0.09375 0.28125q-0.09375 0.125 -0.21875 0.171875q-0.109375 0.03125 -0.640625 0.03125l-6.234375 12.703125l1.53125 0q0.34375 0 0.5 0.125q0.15625 0.140625 0.15625 0.359375q0 0.21875 -0.15625 0.359375q-0.15625 0.140625 -0.5 0.140625l-5.671875 0q-0.359375 0 -0.515625 -0.140625q-0.140625 -0.140625 -0.140625 -0.359375q0 -0.21875 0.140625 -0.359375q0.15625 -0.125 0.515625 -0.125l3.078125 0l1.734375 -3.546875zm12.324219 -10.15625l5.34375 0q0.34375 0 0.5 0.140625q0.15625 0.140625 0.15625 0.375q0 0.203125 -0.15625 0.34375q-0.15625 0.140625 -0.5 0.140625l-5.34375 0l0 6.546875q0 0.859375 0.671875 1.4375q0.6875 0.578125 2.015625 0.578125q1.0 0 2.15625 -0.296875q1.15625 -0.3125 1.8125 -0.6875q0.234375 -0.140625 0.375 -0.140625q0.1875 0 0.328125 0.140625q0.140625 0.140625 0.140625 0.34375q0 0.171875 -0.140625 0.328125q-0.375 0.390625 -1.828125 0.84375q-1.453125 0.453125 -2.765625 0.453125q-1.734375 0 -2.75 -0.8125q-1.015625 -0.8125 -1.015625 -2.1875l0 -6.546875l-1.8125 0q-0.359375 0 -0.515625 -0.140625q-0.140625 -0.140625 -0.140625 -0.359375q0 -0.21875 0.140625 -0.359375q0.15625 -0.140625 0.515625 -0.140625l1.8125 0l0 -2.90625q0 -0.34375 0.140625 -0.5q0.140625 -0.15625 0.34375 -0.15625q0.234375 0 0.375 0.15625q0.140625 0.15625 0.140625 0.5l0 2.90625zm13.183594 -4.546875l0 6.046875q0.9375 -1.015625 1.796875 -1.421875q0.859375 -0.421875 1.921875 -0.421875q1.15625 0 1.953125 0.40625q0.796875 0.40625 1.328125 1.25q0.546875 0.828125 0.546875 1.75l0 6.109375l1.109375 0q0.359375 0 0.5 0.140625q0.15625 0.125 0.15625 0.34375q0 0.21875 -0.15625 0.359375q-0.140625 0.140625 -0.5 0.140625l-3.203125 0q-0.359375 0 -0.515625 -0.140625q-0.15625 -0.140625 -0.15625 -0.359375q0 -0.21875 0.15625 -0.34375q0.15625 -0.140625 0.515625 -0.140625l1.109375 0l0 -6.03125q0 -1.078125 -0.78125 -1.78125q-0.765625 -0.71875 -2.125 -0.71875q-1.078125 0 -1.84375 0.53125q-0.546875 0.375 -1.8125 1.765625l0 6.234375l1.109375 0q0.34375 0 0.5 0.140625q0.15625 0.125 0.15625 0.34375q0 0.21875 -0.15625 0.359375q-0.15625 0.140625 -0.5 0.140625l-3.21875 0q-0.34375 0 -0.5 -0.140625q-0.15625 -0.140625 -0.15625 -0.359375q0 -0.21875 0.15625 -0.34375q0.15625 -0.140625 0.5 -0.140625l1.125 0l0 -12.734375l-1.328125 0q-0.359375 0 -0.515625 -0.140625q-0.140625 -0.140625 -0.140625 -0.359375q0 -0.203125 0.140625 -0.34375q0.15625 -0.140625 0.515625 -0.140625l2.3125 0zm23.136719 9.65625q0 2.25 -1.609375 3.84375q-1.609375 1.59375 -3.890625 1.59375q-2.296875 0 -3.90625 -1.59375q-1.59375 -1.609375 -1.59375 -3.84375q0 -2.25 1.59375 -3.84375q1.609375 -1.609375 3.90625 -1.609375q2.28125 0 3.890625 1.59375q1.609375 1.59375 1.609375 3.859375zm-1.0 0q0 -1.859375 -1.3125 -3.15625q-1.3125 -1.296875 -3.1875 -1.296875q-1.875 0 -3.203125 1.3125q-1.3125 1.296875 -1.3125 3.140625q0 1.828125 1.3125 3.140625q1.328125 1.3125 3.203125 1.3125q1.875 0 3.1875 -1.3125q1.3125 -1.3125 1.3125 -3.140625zm6.7148438 -5.109375l0 1.5q1.03125 -1.046875 1.859375 -1.4375q0.84375 -0.40625 1.890625 -0.40625q1.125 0 2.046875 0.484375q0.65625 0.34375 1.1875 1.15625q0.53125 0.8125 0.53125 1.671875l0 6.203125l0.828125 0q0.359375 0 0.5 0.140625q0.15625 0.125 0.15625 0.34375q0 0.21875 -0.15625 0.359375q-0.140625 0.140625 -0.5 0.140625l-2.625 0q-0.375 0 -0.53125 -0.140625q-0.140625 -0.140625 -0.140625 -0.359375q0 -0.21875 0.140625 -0.34375q0.15625 -0.140625 0.53125 -0.140625l0.8125 0l0 -6.03125q0 -1.046875 -0.765625 -1.765625q-0.75 -0.71875 -2.03125 -0.71875q-0.96875 0 -1.6875 0.390625q-0.71875 0.390625 -2.046875 1.953125l0 6.171875l1.125 0q0.34375 0 0.5 0.140625q0.15625 0.125 0.15625 0.34375q0 0.21875 -0.15625 0.359375q-0.15625 0.140625 -0.5 0.140625l-3.21875 0q-0.34375 0 -0.5 -0.140625q-0.15625 -0.140625 -0.15625 -0.359375q0 -0.21875 0.15625 -0.34375q0.15625 -0.140625 0.5 -0.140625l1.109375 0l0 -8.171875l-0.828125 0q-0.34375 0 -0.5 -0.140625q-0.15625 -0.140625 -0.15625 -0.359375q0 -0.21875 0.15625 -0.359375q0.15625 -0.140625 0.5 -0.140625l1.8125 0zm32.726562 10.15625l-1.375 0l-4.953125 -12.734375l-0.765625 0q-0.265625 0 -0.390625 -0.046875q-0.109375 -0.046875 -0.1875 -0.171875q-0.078125 -0.125 -0.078125 -0.265625q0 -0.140625 0.078125 -0.265625q0.078125 -0.125 0.1875 -0.171875q0.125 -0.0625 0.390625 -0.0625l3.671875 0q0.28125 0 0.390625 0.0625q0.109375 0.046875 0.1875 0.171875q0.078125 0.125 0.078125 0.265625q0 0.140625 -0.09375 0.265625q-0.078125 0.125 -0.1875 0.171875q-0.109375 0.046875 -0.375 0.046875l-1.890625 0l4.578125 11.75l0.0625 0l4.515625 -11.75l-1.875 0q-0.28125 0 -0.40625 -0.046875q-0.109375 -0.046875 -0.1875 -0.171875q-0.078125 -0.125 -0.078125 -0.265625q0 -0.140625 0.078125 -0.265625q0.09375 -0.125 0.203125 -0.171875q0.109375 -0.0625 0.390625 -0.0625l3.65625 0q0.28125 0 0.390625 0.0625q0.125 0.046875 0.203125 0.171875q0.078125 0.125 0.078125 0.265625q0 0.140625 -0.09375 0.265625q-0.078125 0.125 -0.1875 0.171875q-0.109375 0.046875 -0.390625 0.046875l-0.75 0l-4.875 12.734375zm14.324219 -4.109375l-1.125 0l-3.796875 -8.625l-0.1875 0l0 11.75l1.828125 0q0.34375 0 0.5 0.140625q0.15625 0.125 0.15625 0.34375q0 0.21875 -0.15625 0.359375q-0.15625 0.140625 -0.5 0.140625l-3.640625 0q-0.34375 0 -0.5 -0.140625q-0.15625 -0.140625 -0.15625 -0.359375q0 -0.21875 0.15625 -0.34375q0.15625 -0.140625 0.5 -0.140625l0.828125 0l0 -11.75l-0.609375 0q-0.359375 0 -0.515625 -0.125q-0.140625 -0.140625 -0.140625 -0.359375q0 -0.21875 0.140625 -0.359375q0.15625 -0.140625 0.515625 -0.140625l2.40625 0l3.734375 8.484375l3.65625 -8.484375l2.421875 0q0.359375 0 0.515625 0.140625q0.15625 0.140625 0.15625 0.359375q0 0.21875 -0.15625 0.359375q-0.15625 0.125 -0.515625 0.125l-0.609375 0l0 11.75l0.8125 0q0.375 0 0.515625 0.140625q0.15625 0.125 0.15625 0.34375q0 0.21875 -0.15625 0.359375q-0.140625 0.140625 -0.515625 0.140625l-3.609375 0q-0.359375 0 -0.515625 -0.140625q-0.15625 -0.140625 -0.15625 -0.359375q0 -0.21875 0.140625 -0.34375q0.15625 -0.140625 0.53125 -0.140625l1.8125 0l0 -11.75l-0.21875 0l-3.703125 8.625z" fill-rule="nonzero"/><path fill="#c9daf8" d="m413.39505 271.14206l0 0c0 -8.694672 7.0484314 -15.743103 15.743103 -15.743103l82.46655 0c4.1753235 0 8.179657 1.6586304 11.13205 4.6110535c2.9523926 2.9523926 4.611084 6.9566956 4.611084 11.13205l0 62.97049c0 8.694672 -7.048462 15.743103 -15.743134 15.743103l-82.46655 0c-8.694672 0 -15.743103 -7.0484314 -15.743103 -15.743103z" fill-rule="evenodd"/><path stroke="#666666" stroke-width="2.0" stroke-linejoin="round" stroke-linecap="butt" d="m413.39505 271.14206l0 0c0 -8.694672 7.0484314 -15.743103 15.743103 -15.743103l82.46655 0c4.1753235 0 8.179657 1.6586304 11.13205 4.6110535c2.9523926 2.9523926 4.611084 6.9566956 4.611084 11.13205l0 62.97049c0 8.694672 -7.048462 15.743103 -15.743134 15.743103l-82.46655 0c-8.694672 0 -15.743103 -7.0484314 -15.743103 -15.743103z" fill-rule="evenodd"/><path fill="#434343" d="m459.8148 283.93292l0 8.703125q0 1.796875 -1.34375 3.109375q-1.328125 1.3125 -3.171875 1.3125q-1.109375 0 -2.1875 -0.515625q-1.078125 -0.515625 -2.34375 -1.671875l0 -3.625q0 -0.359375 0.140625 -0.5q0.140625 -0.15625 0.359375 -0.15625q0.21875 0 0.359375 0.15625q0.140625 0.140625 0.140625 0.5l-0.015625 3.15625q0.90625 0.828125 1.78125 1.25q0.890625 0.421875 1.765625 0.421875q0.953125 0 1.8125 -0.46875q0.640625 -0.359375 1.171875 -1.1875q0.546875 -0.828125 0.546875 -1.78125l0 -8.703125l-3.859375 0q-0.359375 0 -0.515625 -0.125q-0.15625 -0.140625 -0.15625 -0.359375q0 -0.21875 0.15625 -0.359375q0.15625 -0.140625 0.515625 -0.140625l7.1875 0q0.359375 0 0.5 0.140625q0.15625 0.140625 0.15625 0.359375q0 0.21875 -0.15625 0.359375q-0.140625 0.125 -0.5 0.125l-2.34375 0zm15.886719 7.890625l-10.03125 0q0.25 1.90625 1.59375 3.078125q1.34375 1.171875 3.328125 1.171875q1.09375 0 2.296875 -0.359375q1.21875 -0.375 1.984375 -0.96875q0.21875 -0.171875 0.375 -0.171875q0.1875 0 0.328125 0.140625q0.140625 0.140625 0.140625 0.34375q0 0.203125 -0.1875 0.390625q-0.5625 0.578125 -2.0 1.09375q-1.421875 0.515625 -2.9375 0.515625q-2.53125 0 -4.234375 -1.65625q-1.6875 -1.671875 -1.6875 -4.015625q0 -2.15625 1.578125 -3.6875q1.59375 -1.53125 3.9375 -1.53125q2.421875 0 3.96875 1.578125q1.5625 1.578125 1.546875 4.078125zm-1.0 -1.0q-0.296875 -1.625 -1.546875 -2.640625q-1.234375 -1.015625 -2.96875 -1.015625q-1.71875 0 -2.96875 1.015625q-1.234375 1.0 -1.53125 2.640625l9.015625 0zm8.058594 -4.3125l5.34375 0q0.34375 0 0.5 0.140625q0.15625 0.140625 0.15625 0.375q0 0.203125 -0.15625 0.34375q-0.15625 0.140625 -0.5 0.140625l-5.34375 0l0 6.546875q0 0.859375 0.671875 1.4375q0.6875 0.578125 2.015625 0.578125q1.0 0 2.15625 -0.296875q1.15625 -0.3125 1.8125 -0.6875q0.234375 -0.140625 0.375 -0.140625q0.1875 0 0.328125 0.140625q0.140625 0.140625 0.140625 0.34375q0 0.171875 -0.140625 0.328125q-0.375 0.390625 -1.828125 0.84375q-1.453125 0.453125 -2.765625 0.453125q-1.734375 0 -2.75 -0.8125q-1.015625 -0.8125 -1.015625 -2.1875l0 -6.546875l-1.8125 0q-0.359375 0 -0.515625 -0.140625q-0.140625 -0.140625 -0.140625 -0.359375q0 -0.21875 0.140625 -0.359375q0.15625 -0.140625 0.515625 -0.140625l1.8125 0l0 -2.90625q0 -0.34375 0.140625 -0.5q0.140625 -0.15625 0.34375 -0.15625q0.234375 0 0.375 0.15625q0.140625 0.15625 0.140625 0.5l0 2.90625z" fill-rule="nonzero"/><path fill="#434343" d="m452.08237 317.32355l0 -1.8125l2.3125 0q0.34375 0 0.5 0.140625q0.15625 0.140625 0.15625 0.375q0 0.203125 -0.15625 0.34375q-0.15625 0.140625 -0.5 0.140625l-1.328125 0l0 9.84375q0 0.984375 -0.421875 1.75q-0.28125 0.515625 -0.9375 1.0625q-0.65625 0.5625 -1.203125 0.796875q-0.53125 0.234375 -1.4375 0.234375l-2.78125 0q-0.359375 0 -0.515625 -0.140625q-0.140625 -0.140625 -0.140625 -0.359375q0 -0.21875 0.140625 -0.359375q0.15625 -0.140625 0.515625 -0.140625l2.8125 0.015625q0.875 0 1.5625 -0.453125q0.703125 -0.4375 1.15625 -1.296875q0.265625 -0.5 0.265625 -1.25l0 -2.96875q-1.578125 2.171875 -4.078125 2.171875q-2.03125 0 -3.5 -1.5q-1.46875 -1.515625 -1.46875 -3.625q0 -2.125 1.46875 -3.625q1.46875 -1.5 3.5 -1.5q2.5 0 4.078125 2.15625zm0 2.96875q0 -1.734375 -1.1875 -2.921875q-1.1875 -1.203125 -2.84375 -1.203125q-1.65625 0 -2.84375 1.203125q-1.171875 1.1875 -1.171875 2.921875q0 1.734375 1.171875 2.9375q1.1875 1.1875 2.84375 1.1875q1.65625 0 2.84375 -1.1875q1.1875 -1.203125 1.1875 -2.9375zm7.8867188 -0.75l0 5.140625l1.8125 0q0.359375 0 0.515625 0.140625q0.15625 0.125 0.15625 0.34375q0 0.21875 -0.15625 0.359375q-0.15625 0.140625 -0.515625 0.140625l-4.125 0q-0.34375 0 -0.5 -0.140625q-0.15625 -0.140625 -0.15625 -0.359375q0 -0.21875 0.15625 -0.34375q0.15625 -0.140625 0.5 -0.140625l1.328125 0l0 -11.75l-1.328125 0q-0.34375 0 -0.5 -0.125q-0.15625 -0.140625 -0.15625 -0.359375q0 -0.21875 0.15625 -0.359375q0.15625 -0.140625 0.5 -0.140625l5.953125 0q1.84375 0 3.09375 1.171875q1.265625 1.171875 1.265625 2.625q0 1.0625 -0.78125 2.0q-0.78125 0.921875 -2.609375 1.546875q1.0625 0.71875 1.8125 1.640625q0.75 0.90625 2.40625 3.75l0.75 0q0.34375 0 0.5 0.140625q0.15625 0.125 0.15625 0.34375q0 0.21875 -0.15625 0.359375q-0.15625 0.140625 -0.5 0.140625l-1.3125 0q-1.828125 -3.265625 -2.84375 -4.375q-1.0 -1.125 -2.296875 -1.75l-3.125 0zm0 -0.984375l2.6875 0q1.28125 0 2.328125 -0.46875q1.046875 -0.46875 1.515625 -1.09375q0.484375 -0.640625 0.484375 -1.296875q0 -0.984375 -1.0 -1.875q-0.984375 -0.890625 -2.390625 -0.890625l-3.625 0l0 5.625zm15.464844 1.484375l0 4.640625l3.375 0q0.359375 0 0.5 0.140625q0.15625 0.125 0.15625 0.34375q0 0.21875 -0.15625 0.359375q-0.140625 0.140625 -0.5 0.140625l-5.6875 0q-0.34375 0 -0.5 -0.140625q-0.15625 -0.140625 -0.15625 -0.359375q0 -0.21875 0.15625 -0.34375q0.15625 -0.140625 0.5 -0.140625l1.328125 0l0 -11.75l-1.328125 0q-0.34375 0 -0.5 -0.125q-0.15625 -0.140625 -0.15625 -0.359375q0 -0.21875 0.15625 -0.359375q0.15625 -0.140625 0.5 -0.140625l5.71875 0q2.03125 0 3.3125 1.203125q1.28125 1.1875 1.28125 2.796875q0 0.953125 -0.421875 1.71875q-0.40625 0.75 -0.984375 1.1875q-0.890625 0.65625 -1.828125 0.96875q-0.671875 0.21875 -1.6875 0.21875l-3.078125 0zm0 -0.984375l3.140625 0q1.09375 0 2.046875 -0.484375q0.953125 -0.484375 1.390625 -1.1875q0.4375 -0.703125 0.4375 -1.4375q0 -1.15625 -1.0 -2.078125q-0.984375 -0.9375 -2.515625 -0.9375l-3.5 0l0 6.125zm20.871094 -5.75l0 -0.703125q0 -0.34375 0.125 -0.5q0.140625 -0.15625 0.375 -0.15625q0.21875 0 0.34375 0.15625q0.140625 0.15625 0.140625 0.5l0 2.734375q0 0.359375 -0.140625 0.515625q-0.125 0.15625 -0.34375 0.15625q-0.203125 0 -0.34375 -0.140625q-0.125 -0.140625 -0.15625 -0.453125q-0.0625 -0.984375 -1.0625 -1.75q-1.359375 -1.046875 -3.09375 -1.046875q-1.140625 0 -2.140625 0.5q-0.75 0.375 -1.203125 0.890625q-0.765625 0.921875 -1.234375 2.03125q-0.328125 0.828125 -0.328125 1.859375l0 1.71875q0 2.203125 1.59375 3.828125q1.59375 1.625 3.703125 1.625q1.265625 0 2.265625 -0.546875q1.015625 -0.5625 1.953125 -1.671875q0.1875 -0.25 0.4375 -0.25q0.21875 0 0.34375 0.140625q0.125 0.125 0.125 0.3125q0 0.28125 -0.5 0.828125q-0.96875 1.078125 -2.171875 1.625q-1.1875 0.546875 -2.421875 0.546875q-1.0625 0 -2.171875 -0.421875q-0.84375 -0.3125 -1.390625 -0.734375q-0.546875 -0.421875 -1.359375 -1.421875q-0.796875 -1.0 -1.09375 -1.84375q-0.296875 -0.859375 -0.296875 -1.875l0 -2.0q0 -1.453125 0.78125 -2.96875q0.78125 -1.53125 2.125 -2.34375q1.359375 -0.8125 2.953125 -0.8125q2.4375 0 4.1875 1.671875z" fill-rule="nonzero"/><path fill="#c9daf8" d="m573.6654 271.1473l0 0c0 -8.694672 7.048401 -15.743103 15.743103 -15.743103l113.71063 0c4.175354 0 8.179626 1.6586304 11.13208 4.6110535c2.9523926 2.9523926 4.611023 6.9566956 4.611023 11.13205l0 62.97049c0 8.694672 -7.048401 15.743103 -15.743103 15.743103l-113.71063 0c-8.694702 0 -15.743103 -7.0484314 -15.743103 -15.743103z" fill-rule="evenodd"/><path stroke="#666666" stroke-width="2.0" stroke-linejoin="round" stroke-linecap="butt" d="m573.6654 271.1473l0 0c0 -8.694672 7.048401 -15.743103 15.743103 -15.743103l113.71063 0c4.175354 0 8.179626 1.6586304 11.13208 4.6110535c2.9523926 2.9523926 4.611023 6.9566956 4.611023 11.13205l0 62.97049c0 8.694672 -7.048401 15.743103 -15.743103 15.743103l-113.71063 0c-8.694702 0 -15.743103 -7.0484314 -15.743103 -15.743103z" fill-rule="evenodd"/><path fill="#434343" d="m629.42786 283.93817l0 8.234375q0 2.078125 -1.390625 3.484375q-1.375 1.40625 -3.328125 1.40625q-1.3125 0 -2.34375 -0.578125q-1.015625 -0.578125 -1.734375 -1.734375q-0.703125 -1.171875 -0.703125 -2.578125l0 -8.234375l-0.84375 0q-0.34375 0 -0.5 -0.125q-0.15625 -0.140625 -0.15625 -0.359375q0 -0.21875 0.171875 -0.375q0.140625 -0.125 0.484375 -0.125l3.640625 0q0.34375 0 0.5 0.140625q0.15625 0.140625 0.15625 0.359375q0 0.21875 -0.15625 0.359375q-0.15625 0.125 -0.5 0.125l-1.8125 0l0 8.234375q0 1.625 1.109375 2.765625q1.109375 1.140625 2.640625 1.140625q0.96875 0 1.765625 -0.4375q0.8125 -0.453125 1.40625 -1.375q0.609375 -0.9375 0.609375 -2.09375l0 -8.234375l-1.8125 0q-0.359375 0 -0.515625 -0.125q-0.140625 -0.140625 -0.140625 -0.359375q0 -0.21875 0.140625 -0.359375q0.15625 -0.140625 0.515625 -0.140625l3.625 0q0.359375 0 0.5 0.140625q0.15625 0.140625 0.15625 0.359375q0 0.21875 -0.15625 0.359375q-0.140625 0.125 -0.5 0.125l-0.828125 0zm12.886719 3.234375q0 -0.34375 0.140625 -0.5q0.140625 -0.15625 0.359375 -0.15625q0.21875 0 0.359375 0.15625q0.140625 0.15625 0.140625 0.515625l0 1.6875q0 0.359375 -0.140625 0.515625q-0.140625 0.140625 -0.359375 0.140625q-0.203125 0 -0.34375 -0.125q-0.125 -0.125 -0.15625 -0.421875q-0.0625 -0.703125 -0.71875 -1.15625q-0.96875 -0.65625 -2.546875 -0.65625q-1.65625 0 -2.5625 0.65625q-0.703125 0.515625 -0.703125 1.125q0 0.703125 0.828125 1.171875q0.5625 0.328125 2.125 0.515625q2.0625 0.21875 2.859375 0.5q1.125 0.40625 1.6875 1.140625q0.5625 0.71875 0.5625 1.5625q0 1.25 -1.21875 2.234375q-1.203125 0.984375 -3.53125 0.984375q-2.328125 0 -3.828125 -1.1875q0 0.390625 -0.046875 0.515625q-0.046875 0.109375 -0.171875 0.203125q-0.109375 0.078125 -0.265625 0.078125q-0.21875 0 -0.359375 -0.15625q-0.140625 -0.15625 -0.140625 -0.5l0 -2.03125q0 -0.34375 0.140625 -0.5q0.140625 -0.15625 0.359375 -0.15625q0.203125 0 0.34375 0.15625q0.15625 0.140625 0.15625 0.390625q0 0.53125 0.265625 0.890625q0.421875 0.5625 1.3125 0.9375q0.890625 0.375 2.203125 0.375q1.921875 0 2.859375 -0.71875q0.9375 -0.71875 0.9375 -1.515625q0 -0.90625 -0.953125 -1.46875q-0.96875 -0.546875 -2.796875 -0.734375q-1.828125 -0.1875 -2.625 -0.484375q-0.796875 -0.3125 -1.25 -0.921875q-0.4375 -0.609375 -0.4375 -1.3125q0 -1.265625 1.234375 -2.0q1.25 -0.75 2.96875 -0.75q2.03125 0 3.3125 1.0zm16.480469 4.65625l-10.03125 0q0.25 1.90625 1.59375 3.078125q1.34375 1.171875 3.328125 1.171875q1.09375 0 2.296875 -0.359375q1.21875 -0.375 1.984375 -0.96875q0.21875 -0.171875 0.375 -0.171875q0.1875 0 0.328125 0.140625q0.140625 0.140625 0.140625 0.34375q0 0.203125 -0.1875 0.390625q-0.5625 0.578125 -2.0 1.09375q-1.421875 0.515625 -2.9375 0.515625q-2.53125 0 -4.234375 -1.65625q-1.6875 -1.671875 -1.6875 -4.015625q0 -2.15625 1.578125 -3.6875q1.59375 -1.53125 3.9375 -1.53125q2.421875 0 3.96875 1.578125q1.5625 1.578125 1.546875 4.078125zm-1.0 -1.0q-0.296875 -1.625 -1.546875 -2.640625q-1.234375 -1.015625 -2.96875 -1.015625q-1.71875 0 -2.96875 1.015625q-1.234375 1.0 -1.53125 2.640625l9.015625 0zm8.902344 -4.3125l0 2.484375q1.921875 -1.734375 2.875 -2.21875q0.953125 -0.5 1.765625 -0.5q0.875 0 1.625 0.59375q0.765625 0.578125 0.765625 0.890625q0 0.21875 -0.15625 0.375q-0.140625 0.140625 -0.359375 0.140625q-0.125 0 -0.203125 -0.03125q-0.078125 -0.046875 -0.3125 -0.28125q-0.40625 -0.40625 -0.71875 -0.546875q-0.296875 -0.15625 -0.59375 -0.15625q-0.640625 0 -1.546875 0.515625q-0.90625 0.515625 -3.140625 2.515625l0 5.390625l4.359375 0q0.359375 0 0.5 0.140625q0.15625 0.125 0.15625 0.34375q0 0.21875 -0.15625 0.359375q-0.140625 0.140625 -0.5 0.140625l-7.734375 0q-0.34375 0 -0.5 -0.125q-0.15625 -0.140625 -0.15625 -0.359375q0 -0.203125 0.140625 -0.328125q0.15625 -0.140625 0.515625 -0.140625l2.390625 0l0 -8.203125l-1.828125 0q-0.34375 0 -0.5 -0.140625q-0.15625 -0.140625 -0.15625 -0.359375q0 -0.21875 0.140625 -0.359375q0.15625 -0.140625 0.515625 -0.140625l2.8125 0z" fill-rule="nonzero"/><path fill="#434343" d="m593.48254 319.04755l0 5.640625l3.375 0q0.359375 0 0.5 0.140625q0.15625 0.125 0.15625 0.34375q0 0.21875 -0.15625 0.359375q-0.140625 0.140625 -0.5 0.140625l-5.6875 0q-0.34375 0 -0.5 -0.140625q-0.15625 -0.140625 -0.15625 -0.359375q0 -0.21875 0.15625 -0.34375q0.15625 -0.140625 0.5 -0.140625l1.328125 0l0 -11.75l-1.328125 0q-0.34375 0 -0.5 -0.125q-0.15625 -0.140625 -0.15625 -0.359375q0 -0.21875 0.1875 -0.375q0.125 -0.125 0.46875 -0.125l10.84375 0l0 3.390625q0 0.359375 -0.140625 0.515625q-0.140625 0.140625 -0.34375 0.140625q-0.234375 0 -0.375 -0.140625q-0.140625 -0.15625 -0.140625 -0.515625l0 -2.40625l-7.53125 0l0 5.125l3.53125 0l0 -1.109375q0 -0.359375 0.140625 -0.5q0.140625 -0.15625 0.359375 -0.15625q0.21875 0 0.359375 0.15625q0.140625 0.140625 0.140625 0.5l0 3.203125q0 0.359375 -0.140625 0.515625q-0.140625 0.140625 -0.359375 0.140625q-0.21875 0 -0.359375 -0.140625q-0.140625 -0.15625 -0.140625 -0.515625l0 -1.109375l-3.53125 0zm20.152344 6.625l0 -1.4375q-2.015625 1.828125 -4.359375 1.828125q-1.453125 0 -2.203125 -0.796875q-0.96875 -1.03125 -0.96875 -2.390625l0 -6.359375l-1.328125 0q-0.34375 0 -0.5 -0.140625q-0.15625 -0.140625 -0.15625 -0.359375q0 -0.21875 0.15625 -0.359375q0.15625 -0.140625 0.5 -0.140625l2.3125 0l0 7.359375q0 0.953125 0.609375 1.578125q0.609375 0.625 1.53125 0.625q2.390625 0 4.40625 -2.203125l0 -6.359375l-1.828125 0q-0.34375 0 -0.5 -0.140625q-0.15625 -0.140625 -0.15625 -0.359375q0 -0.21875 0.15625 -0.359375q0.15625 -0.140625 0.5 -0.140625l2.8125 0l0 9.171875l0.828125 0q0.34375 0 0.5 0.140625q0.15625 0.125 0.15625 0.34375q0 0.21875 -0.15625 0.359375q-0.15625 0.140625 -0.5 0.140625l-1.8125 0zm7.8398438 -10.15625l0 1.5q1.03125 -1.046875 1.859375 -1.4375q0.84375 -0.40625 1.890625 -0.40625q1.125 0 2.046875 0.484375q0.65625 0.34375 1.1875 1.15625q0.53125 0.8125 0.53125 1.671875l0 6.203125l0.828125 0q0.359375 0 0.5 0.140625q0.15625 0.125 0.15625 0.34375q0 0.21875 -0.15625 0.359375q-0.140625 0.140625 -0.5 0.140625l-2.625 0q-0.375 0 -0.53125 -0.140625q-0.140625 -0.140625 -0.140625 -0.359375q0 -0.21875 0.140625 -0.34375q0.15625 -0.140625 0.53125 -0.140625l0.8125 0l0 -6.03125q0 -1.046875 -0.765625 -1.765625q-0.75 -0.71875 -2.03125 -0.71875q-0.96875 0 -1.6875 0.390625q-0.71875 0.390625 -2.046875 1.953125l0 6.171875l1.125 0q0.34375 0 0.5 0.140625q0.15625 0.125 0.15625 0.34375q0 0.21875 -0.15625 0.359375q-0.15625 0.140625 -0.5 0.140625l-3.21875 0q-0.34375 0 -0.5 -0.140625q-0.15625 -0.140625 -0.15625 -0.359375q0 -0.21875 0.15625 -0.34375q0.15625 -0.140625 0.5 -0.140625l1.109375 0l0 -8.171875l-0.828125 0q-0.34375 0 -0.5 -0.140625q-0.15625 -0.140625 -0.15625 -0.359375q0 -0.21875 0.15625 -0.359375q0.15625 -0.140625 0.5 -0.140625l1.8125 0zm21.699219 1.0l0 -0.328125q0 -0.359375 0.140625 -0.515625q0.140625 -0.15625 0.34375 -0.15625q0.234375 0 0.375 0.15625q0.140625 0.15625 0.140625 0.515625l0 2.234375q-0.015625 0.359375 -0.15625 0.515625q-0.125 0.140625 -0.359375 0.140625q-0.1875 0 -0.328125 -0.125q-0.140625 -0.140625 -0.15625 -0.453125q-0.078125 -0.828125 -1.109375 -1.578125q-1.015625 -0.75 -2.75 -0.75q-2.1875 0 -3.328125 1.375q-1.140625 1.359375 -1.140625 3.125q0 1.921875 1.25 3.171875q1.265625 1.234375 3.25 1.234375q1.15625 0 2.34375 -0.421875q1.1875 -0.421875 2.15625 -1.359375q0.234375 -0.234375 0.421875 -0.234375q0.203125 0 0.328125 0.140625q0.140625 0.125 0.140625 0.328125q0 0.5 -1.171875 1.265625q-1.921875 1.265625 -4.265625 1.265625q-2.375 0 -3.90625 -1.515625q-1.53125 -1.53125 -1.53125 -3.859375q0 -2.375 1.5625 -3.9375q1.578125 -1.578125 3.953125 -1.578125q2.265625 0 3.796875 1.34375zm8.277344 -1.0l5.34375 0q0.34375 0 0.5 0.140625q0.15625 0.140625 0.15625 0.375q0 0.203125 -0.15625 0.34375q-0.15625 0.140625 -0.5 0.140625l-5.34375 0l0 6.546875q0 0.859375 0.671875 1.4375q0.6875 0.578125 2.015625 0.578125q1.0 0 2.15625 -0.296875q1.15625 -0.3125 1.8125 -0.6875q0.234375 -0.140625 0.375 -0.140625q0.1875 0 0.328125 0.140625q0.140625 0.140625 0.140625 0.34375q0 0.171875 -0.140625 0.328125q-0.375 0.390625 -1.828125 0.84375q-1.453125 0.453125 -2.765625 0.453125q-1.734375 0 -2.75 -0.8125q-1.015625 -0.8125 -1.015625 -2.1875l0 -6.546875l-1.8125 0q-0.359375 0 -0.515625 -0.140625q-0.140625 -0.140625 -0.140625 -0.359375q0 -0.21875 0.140625 -0.359375q0.15625 -0.140625 0.515625 -0.140625l1.8125 0l0 -2.90625q0 -0.34375 0.140625 -0.5q0.140625 -0.15625 0.34375 -0.15625q0.234375 0 0.375 0.15625q0.140625 0.15625 0.140625 0.5l0 2.90625zm16.902344 -5.046875l0 2.546875l-1.453125 0l0 -2.546875l1.453125 0zm0.03125 5.046875l0 9.171875l3.875 0q0.359375 0 0.515625 0.140625q0.15625 0.125 0.15625 0.34375q0 0.21875 -0.15625 0.359375q-0.15625 0.140625 -0.515625 0.140625l-8.71875 0q-0.359375 0 -0.515625 -0.140625q-0.140625 -0.140625 -0.140625 -0.359375q0 -0.21875 0.140625 -0.34375q0.15625 -0.140625 0.515625 -0.140625l3.859375 0l0 -8.171875l-2.859375 0q-0.359375 0 -0.515625 -0.140625q-0.15625 -0.140625 -0.15625 -0.34375q0 -0.234375 0.140625 -0.375q0.15625 -0.140625 0.53125 -0.140625l3.84375 0zm19.386719 5.109375q0 2.25 -1.609375 3.84375q-1.609375 1.59375 -3.890625 1.59375q-2.296875 0 -3.90625 -1.59375q-1.59375 -1.609375 -1.59375 -3.84375q0 -2.25 1.59375 -3.84375q1.609375 -1.609375 3.90625 -1.609375q2.28125 0 3.890625 1.59375q1.609375 1.59375 1.609375 3.859375zm-1.0 0q0 -1.859375 -1.3125 -3.15625q-1.3125 -1.296875 -3.1875 -1.296875q-1.875 0 -3.203125 1.3125q-1.3125 1.296875 -1.3125 3.140625q0 1.828125 1.3125 3.140625q1.328125 1.3125 3.203125 1.3125q1.875 0 3.1875 -1.3125q1.3125 -1.3125 1.3125 -3.140625zm6.7148438 -5.109375l0 1.5q1.03125 -1.046875 1.859375 -1.4375q0.84375 -0.40625 1.890625 -0.40625q1.125 0 2.046875 0.484375q0.65625 0.34375 1.1875 1.15625q0.53125 0.8125 0.53125 1.671875l0 6.203125l0.828125 0q0.359375 0 0.5 0.140625q0.15625 0.125 0.15625 0.34375q0 0.21875 -0.15625 0.359375q-0.140625 0.140625 -0.5 0.140625l-2.625 0q-0.375 0 -0.53125 -0.140625q-0.140625 -0.140625 -0.140625 -0.359375q0 -0.21875 0.140625 -0.34375q0.15625 -0.140625 0.53125 -0.140625l0.8125 0l0 -6.03125q0 -1.046875 -0.765625 -1.765625q-0.75 -0.71875 -2.03125 -0.71875q-0.96875 0 -1.6875 0.390625q-0.71875 0.390625 -2.046875 1.953125l0 6.171875l1.125 0q0.34375 0 0.5 0.140625q0.15625 0.125 0.15625 0.34375q0 0.21875 -0.15625 0.359375q-0.15625 0.140625 -0.5 0.140625l-3.21875 0q-0.34375 0 -0.5 -0.140625q-0.15625 -0.140625 -0.15625 -0.359375q0 -0.21875 0.15625 -0.34375q0.15625 -0.140625 0.5 -0.140625l1.109375 0l0 -8.171875l-0.828125 0q-0.34375 0 -0.5 -0.140625q-0.15625 -0.140625 -0.15625 -0.359375q0 -0.21875 0.15625 -0.359375q0.15625 -0.140625 0.5 -0.140625l1.8125 0z" fill-rule="nonzero"/><path fill="#000000" fill-opacity="0.0" d="m529.35046 284.7848l44.31494 0" fill-rule="evenodd"/><path stroke="#666666" stroke-width="2.0" stroke-linejoin="round" stroke-linecap="butt" d="m529.35046 284.7848l32.31494 0" fill-rule="evenodd"/><path fill="#666666" stroke="#666666" stroke-width="2.0" stroke-linecap="butt" d="m561.6654 288.08826l9.076172 -3.3034668l-9.076172 -3.3034668z" fill-rule="evenodd"/><path fill="#000000" fill-opacity="0.0" d="m573.6654 320.48032l-44.31494 0" fill-rule="evenodd"/><path stroke="#666666" stroke-width="2.0" stroke-linejoin="round" stroke-linecap="butt" d="m573.6654 320.48032l-32.31494 0" fill-rule="evenodd"/><path fill="#666666" stroke="#666666" stroke-width="2.0" stroke-linecap="butt" d="m541.35046 317.17685l-9.076233 3.3034668l9.076233 3.3034668z" fill-rule="evenodd"/><path fill="#000000" fill-opacity="0.0" d="m217.37796 182.28871l196.6614 101.54332" fill-rule="evenodd"/><path stroke="#666666" stroke-width="2.0" stroke-linejoin="round" stroke-linecap="butt" d="m217.37796 182.28871l185.99884 96.03786" fill-rule="evenodd"/><path fill="#666666" stroke="#666666" stroke-width="2.0" stroke-linecap="butt" d="m401.86124 281.26184l9.5802 1.2287598l-6.549011 -7.099304z" fill-rule="evenodd"/><path fill="#000000" fill-opacity="0.0" d="m412.4357 319.0866l-195.87402 -118.677155" fill-rule="evenodd"/><path stroke="#666666" stroke-width="2.0" stroke-linejoin="round" stroke-linecap="butt" d="m412.4357 319.0866l-185.61086 -112.45886" fill-rule="evenodd"/><path fill="#666666" stroke="#666666" stroke-width="2.0" stroke-linecap="butt" d="m228.53668 203.80241l-9.4743805 -1.8778687l6.05072 7.528549z" fill-rule="evenodd"/></g></svg>