<svg version="1.1" viewBox="0.0 0.0 778.4698162729659 580.50656167979" fill="none" stroke="none" stroke-linecap="square" stroke-miterlimit="10" xmlns:xlink="http://www.w3.org/1999/xlink" xmlns="http://www.w3.org/2000/svg"><clipPath id="p.0"><path d="m0 0l778.4698 0l0 580.5066l-778.4698 0l0 -580.5066z" clip-rule="nonzero"/></clipPath><g clip-path="url(#p.0)"><path fill="#000000" fill-opacity="0.0" d="m0 0l778.4698 0l0 580.5066l-778.4698 0z" fill-rule="evenodd"/><path fill="#000000" fill-opacity="0.0" d="m229.99944 105.8399l0 0c0 31.084496 -2.0998383 56.283455 -4.6901093 56.283455l-139.3757 0c-2.590271 0 -4.6901016 -25.19896 -4.6901016 -56.283455z" fill-rule="evenodd"/><path fill="#000000" fill-opacity="0.0" d="m229.99944 105.8399l0 0c0 31.084496 -2.0998383 56.283455 -4.6901093 56.283455l-139.3757 0c-2.590271 0 -4.6901016 -25.19896 -4.6901016 -56.283455" fill-rule="evenodd"/><path stroke="#b7b7b7" stroke-width="4.0" stroke-linejoin="round" stroke-linecap="butt" d="m229.99944 105.8399l0 0c0 31.084496 -2.0998383 56.283455 -4.6901093 56.283455l-139.3757 0c-2.590271 0 -4.6901016 -25.19896 -4.6901016 -56.283455" fill-rule="evenodd"/><path fill="#cfe2f3" d="m94.91863 95.50816l0 0c0 -3.1310577 2.4606705 -5.6692886 5.496063 -5.6692886l0 0c1.4576492 0 2.8555908 0.59729767 3.8863068 1.6604996c1.0307083 1.0631943 1.6097565 2.5052032 1.6097565 4.008789l0 0c0 3.1310654 -2.4606705 5.6692963 -5.496063 5.6692963l0 0c-3.0353928 0 -5.496063 -2.538231 -5.496063 -5.6692963z" fill-rule="evenodd"/><path stroke="#000000" stroke-width="1.0" stroke-linejoin="round" stroke-linecap="butt" d="m94.91863 95.50816l0 0c0 -3.1310577 2.4606705 -5.6692886 5.496063 -5.6692886l0 0c1.4576492 0 2.8555908 0.59729767 3.8863068 1.6604996c1.0307083 1.0631943 1.6097565 2.5052032 1.6097565 4.008789l0 0c0 3.1310654 -2.4606705 5.6692963 -5.496063 5.6692963l0 0c-3.0353928 0 -5.496063 -2.538231 -5.496063 -5.6692963z" fill-rule="evenodd"/><path fill="#f4cccc" d="m117.748764 95.37533l0 0c0 -3.1310654 2.4606705 -5.6692886 5.496063 -5.6692886l0 0c1.4576416 0 2.8555908 0.59729767 3.8862991 1.660492c1.0307083 1.0632019 1.6097641 2.5052109 1.6097641 4.0087967l0 0c0 3.1310654 -2.4606705 5.6692886 -5.496063 5.6692886l0 0c-3.0353928 0 -5.496063 -2.5382233 -5.496063 -5.6692886z" fill-rule="evenodd"/><path stroke="#000000" stroke-width="1.0" stroke-linejoin="round" stroke-linecap="butt" d="m117.748764 95.37533l0 0c0 -3.1310654 2.4606705 -5.6692886 5.496063 -5.6692886l0 0c1.4576416 0 2.8555908 0.59729767 3.8862991 1.660492c1.0307083 1.0632019 1.6097641 2.5052109 1.6097641 4.0087967l0 0c0 3.1310654 -2.4606705 5.6692886 -5.496063 5.6692886l0 0c-3.0353928 0 -5.496063 -2.5382233 -5.496063 -5.6692886z" fill-rule="evenodd"/><path fill="#ffe599" d="m146.28497 95.44175l0 0c0 -3.1310654 2.460678 -5.6692963 5.496063 -5.6692963l0 0c1.4576416 0 2.8555908 0.59729767 3.8863068 1.6604996c1.0307007 1.0631943 1.6097565 2.5052032 1.6097565 4.0087967l0 0c0 3.1310577 -2.460678 5.6692886 -5.496063 5.6692886l0 0c-3.0353851 0 -5.496063 -2.538231 -5.496063 -5.6692886z" fill-rule="evenodd"/><path stroke="#000000" stroke-width="1.0" stroke-linejoin="round" stroke-linecap="butt" d="m146.28497 95.44175l0 0c0 -3.1310654 2.460678 -5.6692963 5.496063 -5.6692963l0 0c1.4576416 0 2.8555908 0.59729767 3.8863068 1.6604996c1.0307007 1.0631943 1.6097565 2.5052032 1.6097565 4.0087967l0 0c0 3.1310577 -2.460678 5.6692886 -5.496063 5.6692886l0 0c-3.0353851 0 -5.496063 -2.538231 -5.496063 -5.6692886z" fill-rule="evenodd"/><path fill="#e6c9af" d="m166.62746 95.44175l0 0c0 -3.1310654 2.460678 -5.6692963 5.496063 -5.6692963l0 0c1.4576569 0 2.8555908 0.59729767 3.8863068 1.6604996c1.030716 1.0631943 1.6097565 2.5052032 1.6097565 4.0087967l0 0c0 3.1310577 -2.4606628 5.6692886 -5.496063 5.6692886l0 0c-3.0353851 0 -5.496063 -2.538231 -5.496063 -5.6692886z" fill-rule="evenodd"/><path stroke="#000000" stroke-width="1.0" stroke-linejoin="round" stroke-linecap="butt" d="m166.62746 95.44175l0 0c0 -3.1310654 2.460678 -5.6692963 5.496063 -5.6692963l0 0c1.4576569 0 2.8555908 0.59729767 3.8863068 1.6604996c1.030716 1.0631943 1.6097565 2.5052032 1.6097565 4.0087967l0 0c0 3.1310577 -2.4606628 5.6692886 -5.496063 5.6692886l0 0c-3.0353851 0 -5.496063 -2.538231 -5.496063 -5.6692886z" fill-rule="evenodd"/><path fill="#b6d7a8" d="m186.96962 95.44175l0 0c0 -3.1310654 2.460678 -5.6692963 5.496063 -5.6692963l0 0c1.4576416 0 2.8555908 0.59729767 3.8863068 1.6604996c1.030716 1.0631943 1.6097565 2.5052032 1.6097565 4.0087967l0 0c0 3.1310577 -2.4606628 5.6692886 -5.496063 5.6692886l0 0c-3.0353851 0 -5.496063 -2.538231 -5.496063 -5.6692886z" fill-rule="evenodd"/><path stroke="#000000" stroke-width="1.0" stroke-linejoin="round" stroke-linecap="butt" d="m186.96962 95.44175l0 0c0 -3.1310654 2.460678 -5.6692963 5.496063 -5.6692963l0 0c1.4576416 0 2.8555908 0.59729767 3.8863068 1.6604996c1.030716 1.0631943 1.6097565 2.5052032 1.6097565 4.0087967l0 0c0 3.1310577 -2.4606628 5.6692886 -5.496063 5.6692886l0 0c-3.0353851 0 -5.496063 -2.538231 -5.496063 -5.6692886z" fill-rule="evenodd"/><path fill="#000000" fill-opacity="0.0" d="m82.198166 63.199474l638.55115 0" fill-rule="evenodd"/><path stroke="#999999" stroke-width="8.0" stroke-linejoin="round" stroke-linecap="butt" d="m82.198166 63.199474l611.1345 0" fill-rule="evenodd"/><path fill="#999999" stroke="#999999" stroke-width="8.0" stroke-linecap="butt" d="m693.33264 63.199474l-8.996643 8.99667l24.71814 -8.99667l-24.71814 -8.996666z" fill-rule="evenodd"/><path fill="#000000" fill-opacity="0.0" d="m82.77034 15.451444l157.5433 0l0 43.74803l-157.5433 0z" fill-rule="evenodd"/><path fill="#000000" d="m93.23909 42.37144l0 -13.359375l9.65625 0l0 1.578125l-7.875 0l0 4.09375l7.375 0l0 1.5625l-7.375 0l0 4.546875l8.1875 0l0 1.578125l-9.96875 0zm14.896698 0l-3.6875 -9.671875l1.734375 0l2.078125 5.796875q0.328125 0.9375 0.625 1.9375q0.203125 -0.765625 0.609375 -1.828125l2.140625 -5.90625l1.6875 0l-3.65625 9.671875l-1.53125 0zm13.265625 -3.109375l1.6875 0.203125q-0.40625 1.484375 -1.484375 2.3125q-1.078125 0.8125 -2.765625 0.8125q-2.125 0 -3.375 -1.296875q-1.234375 -1.3125 -1.234375 -3.671875q0 -2.453125 1.25 -3.796875q1.265625 -1.34375 3.265625 -1.34375q1.9375 0 3.15625 1.328125q1.234375 1.3125 1.234375 3.703125q0 0.15625 0 0.4375l-7.21875 0q0.09375 1.59375 0.90625 2.453125q0.8125 0.84375 2.015625 0.84375q0.90625 0 1.546875 -0.46875q0.640625 -0.484375 1.015625 -1.515625zm-5.390625 -2.65625l5.40625 0q-0.109375 -1.21875 -0.625 -1.828125q-0.78125 -0.953125 -2.03125 -0.953125q-1.125 0 -1.90625 0.765625q-0.765625 0.75 -0.84375 2.015625zm9.141342 5.765625l0 -9.671875l1.46875 0l0 1.375q1.0625 -1.59375 3.078125 -1.59375q0.875 0 1.609375 0.3125q0.734375 0.3125 1.09375 0.828125q0.375 0.5 0.515625 1.203125q0.09375 0.453125 0.09375 1.59375l0 5.953125l-1.640625 0l0 -5.890625q0 -1.0 -0.203125 -1.484375q-0.1875 -0.5 -0.671875 -0.796875q-0.484375 -0.296875 -1.140625 -0.296875q-1.046875 0 -1.8125 0.671875q-0.75 0.65625 -0.75 2.515625l0 5.28125l-1.640625 0zm13.953842 -1.46875l0.234375 1.453125q-0.6875 0.140625 -1.234375 0.140625q-0.890625 0 -1.390625 -0.28125q-0.484375 -0.28125 -0.6875 -0.734375q-0.203125 -0.46875 -0.203125 -1.9375l0 -5.578125l-1.203125 0l0 -1.265625l1.203125 0l0 -2.390625l1.625 -0.984375l0 3.375l1.65625 0l0 1.265625l-1.65625 0l0 5.671875q0 0.6875 0.078125 0.890625q0.09375 0.203125 0.28125 0.328125q0.203125 0.109375 0.578125 0.109375q0.265625 0 0.71875 -0.0625zm10.060623 1.46875l0 -11.78125l-4.40625 0l0 -1.578125l10.578125 0l0 1.578125l-4.40625 0l0 11.78125l-1.765625 0zm7.0939026 -11.46875l0 -1.890625l1.640625 0l0 1.890625l-1.640625 0zm0 11.46875l0 -9.671875l1.640625 0l0 9.671875l-1.640625 0zm4.144821 0l0 -9.671875l1.46875 0l0 1.359375q0.453125 -0.71875 1.203125 -1.140625q0.765625 -0.4375 1.71875 -0.4375q1.078125 0 1.765625 0.453125q0.6875 0.4375 0.96875 1.234375q1.15625 -1.6875 2.984375 -1.6875q1.453125 0 2.21875 0.796875q0.78125 0.796875 0.78125 2.453125l0 6.640625l-1.640625 0l0 -6.09375q0 -0.984375 -0.15625 -1.40625q-0.15625 -0.4375 -0.578125 -0.703125q-0.421875 -0.265625 -0.984375 -0.265625q-1.015625 0 -1.6875 0.6875q-0.671875 0.671875 -0.671875 2.15625l0 5.625l-1.640625 0l0 -6.28125q0 -1.09375 -0.40625 -1.640625q-0.40625 -0.546875 -1.3125 -0.546875q-0.6875 0 -1.28125 0.359375q-0.59375 0.359375 -0.859375 1.0625q-0.25 0.703125 -0.25 2.03125l0 5.015625l-1.640625 0zm22.165802 -3.109375l1.6875 0.203125q-0.40625 1.484375 -1.484375 2.3125q-1.078125 0.8125 -2.765625 0.8125q-2.125 0 -3.375 -1.296875q-1.234375 -1.3125 -1.234375 -3.671875q0 -2.453125 1.25 -3.796875q1.265625 -1.34375 3.265625 -1.34375q1.9375 0 3.15625 1.328125q1.234375 1.3125 1.234375 3.703125q0 0.15625 0 0.4375l-7.21875 0q0.09375 1.59375 0.90625 2.453125q0.8125 0.84375 2.015625 0.84375q0.90625 0 1.546875 -0.46875q0.640625 -0.484375 1.015625 -1.515625zm-5.390625 -2.65625l5.40625 0q-0.109375 -1.21875 -0.625 -1.828125q-0.78125 -0.953125 -2.03125 -0.953125q-1.125 0 -1.90625 0.765625q-0.765625 0.75 -0.84375 2.015625z" fill-rule="nonzero"/><path fill="#000000" fill-opacity="0.0" d="m105.60573 115.55905l100.031494 0l0 38.204727l-100.031494 0z" fill-rule="evenodd"/><path fill="#000000" d="m122.1526 138.93217l1.609375 0.21875q-0.265625 1.65625 -1.359375 2.609375q-1.078125 0.9375 -2.671875 0.9375q-1.984375 0 -3.1875 -1.296875q-1.203125 -1.296875 -1.203125 -3.71875q0 -1.578125 0.515625 -2.75q0.515625 -1.171875 1.578125 -1.75q1.0625 -0.59375 2.3125 -0.59375q1.578125 0 2.578125 0.796875q1.0 0.796875 1.28125 2.265625l-1.59375 0.234375q-0.234375 -0.96875 -0.8125 -1.453125q-0.578125 -0.5 -1.390625 -0.5q-1.234375 0 -2.015625 0.890625q-0.78125 0.890625 -0.78125 2.8125q0 1.953125 0.75 2.84375q0.75 0.875 1.953125 0.875q0.96875 0 1.609375 -0.59375q0.65625 -0.59375 0.828125 -1.828125zm2.40625 -1.296875q0 -2.6875 1.484375 -3.96875q1.25 -1.078125 3.046875 -1.078125q2.0 0 3.265625 1.3125q1.265625 1.296875 1.265625 3.609375q0 1.859375 -0.5625 2.9375q-0.5625 1.0625 -1.640625 1.65625q-1.0625 0.59375 -2.328125 0.59375q-2.03125 0 -3.28125 -1.296875q-1.25 -1.3125 -1.25 -3.765625zm1.6875 0q0 1.859375 0.796875 2.796875q0.8125 0.921875 2.046875 0.921875q1.21875 0 2.03125 -0.921875q0.8125 -0.9375 0.8125 -2.84375q0 -1.796875 -0.8125 -2.71875q-0.8125 -0.921875 -2.03125 -0.921875q-1.234375 0 -2.046875 0.921875q-0.796875 0.90625 -0.796875 2.765625zm15.625717 4.84375l0 -1.421875q-1.125 1.640625 -3.0625 1.640625q-0.859375 0 -1.609375 -0.328125q-0.734375 -0.328125 -1.09375 -0.828125q-0.359375 -0.5 -0.5 -1.21875q-0.109375 -0.46875 -0.109375 -1.53125l0 -5.984375l1.640625 0l0 5.359375q0 1.28125 0.109375 1.734375q0.15625 0.640625 0.65625 1.015625q0.5 0.375 1.234375 0.375q0.734375 0 1.375 -0.375q0.65625 -0.390625 0.921875 -1.03125q0.265625 -0.65625 0.265625 -1.890625l0 -5.1875l1.640625 0l0 9.671875l-1.46875 0zm4.047592 0l0 -9.671875l1.46875 0l0 1.375q1.0625 -1.59375 3.078125 -1.59375q0.875 0 1.609375 0.3125q0.734375 0.3125 1.09375 0.828125q0.375 0.5 0.515625 1.203125q0.09375 0.453125 0.09375 1.59375l0 5.953125l-1.640625 0l0 -5.890625q0 -1.0 -0.203125 -1.484375q-0.1875 -0.5 -0.671875 -0.796875q-0.484375 -0.296875 -1.140625 -0.296875q-1.046875 0 -1.8125 0.671875q-0.75 0.65625 -0.75 2.515625l0 5.28125l-1.640625 0zm13.953842 -1.46875l0.234375 1.453125q-0.6875 0.140625 -1.234375 0.140625q-0.890625 0 -1.390625 -0.28125q-0.484375 -0.28125 -0.6875 -0.734375q-0.203125 -0.46875 -0.203125 -1.9375l0 -5.578125l-1.203125 0l0 -1.265625l1.203125 0l0 -2.390625l1.625 -0.984375l0 3.375l1.65625 0l0 1.265625l-1.65625 0l0 5.671875q0 0.6875 0.078125 0.890625q0.09375 0.203125 0.28125 0.328125q0.203125 0.109375 0.578125 0.109375q0.265625 0 0.71875 -0.0625zm15.413483 -6.390625l-8.828125 0l0 -1.515625l8.828125 0l0 1.515625zm0 4.0625l-8.828125 0l0 -1.53125l8.828125 0l0 1.53125zm15.500137 -6.28125l-1.625 0.125q-0.21875 -0.96875 -0.625 -1.40625q-0.65625 -0.703125 -1.640625 -0.703125q-0.78125 0 -1.375 0.4375q-0.765625 0.5625 -1.21875 1.65625q-0.453125 1.078125 -0.46875 3.078125q0.59375 -0.890625 1.453125 -1.328125q0.859375 -0.4375 1.796875 -0.4375q1.640625 0 2.78125 1.203125q1.15625 1.203125 1.15625 3.109375q0 1.265625 -0.546875 2.34375q-0.53125 1.078125 -1.484375 1.65625q-0.9375 0.578125 -2.140625 0.578125q-2.0625 0 -3.359375 -1.5q-1.28125 -1.515625 -1.28125 -4.984375q0 -3.875 1.421875 -5.625q1.25 -1.53125 3.375 -1.53125q1.5625 0 2.5625 0.890625q1.015625 0.875 1.21875 2.4375zm-6.6875 5.75q0 0.84375 0.359375 1.625q0.359375 0.765625 1.0 1.171875q0.640625 0.40625 1.359375 0.40625q1.03125 0 1.78125 -0.828125q0.75 -0.84375 0.75 -2.28125q0 -1.390625 -0.734375 -2.1875q-0.734375 -0.796875 -1.859375 -0.796875q-1.109375 0 -1.890625 0.796875q-0.765625 0.796875 -0.765625 2.09375z" fill-rule="nonzero"/><path fill="#000000" fill-opacity="0.0" d="m376.71594 106.519684l0 0c0 31.084503 -2.099823 56.283463 -4.690094 56.283463l-135.34421 0c-2.590271 0 -4.690094 -25.19896 -4.690094 -56.283463z" fill-rule="evenodd"/><path fill="#000000" fill-opacity="0.0" d="m376.71594 106.519684l0 0c0 31.084503 -2.099823 56.283463 -4.690094 56.283463l-135.34421 0c-2.590271 0 -4.690094 -25.19896 -4.690094 -56.283463" fill-rule="evenodd"/><path stroke="#b7b7b7" stroke-width="4.0" stroke-linejoin="round" stroke-linecap="butt" d="m376.71594 106.519684l0 0c0 31.084503 -2.099823 56.283463 -4.690094 56.283463l-135.34421 0c-2.590271 0 -4.690094 -25.19896 -4.690094 -56.283463" fill-rule="evenodd"/><path fill="#000000" fill-opacity="0.0" d="m254.338 114.879265l100.03151 0l0 38.20472l-100.03151 0z" fill-rule="evenodd"/><path fill="#000000" d="m270.8849 138.2524l1.609375 0.21875q-0.265625 1.65625 -1.359375 2.609375q-1.078125 0.9375 -2.671875 0.9375q-1.984375 0 -3.1875 -1.296875q-1.203125 -1.296875 -1.203125 -3.71875q0 -1.578125 0.515625 -2.75q0.515625 -1.171875 1.578125 -1.75q1.0625 -0.59375 2.3125 -0.59375q1.578125 0 2.578125 0.796875q1.0 0.796875 1.28125 2.265625l-1.59375 0.234375q-0.234375 -0.96875 -0.8125 -1.453125q-0.578125 -0.5 -1.390625 -0.5q-1.234375 0 -2.015625 0.890625q-0.78125 0.890625 -0.78125 2.8125q0 1.953125 0.75 2.84375q0.75 0.875 1.953125 0.875q0.96875 0 1.609375 -0.59375q0.65625 -0.59375 0.828125 -1.828125zm2.40625 -1.296875q0 -2.6875 1.484375 -3.96875q1.25 -1.078125 3.046875 -1.078125q2.0 0 3.265625 1.3125q1.265625 1.296875 1.265625 3.609375q0 1.859375 -0.5625 2.9375q-0.5625 1.0625 -1.640625 1.65625q-1.0625 0.59375 -2.328125 0.59375q-2.03125 0 -3.28125 -1.296875q-1.25 -1.3125 -1.25 -3.765625zm1.6875 0q0 1.859375 0.796875 2.796875q0.8125 0.921875 2.046875 0.921875q1.21875 0 2.03125 -0.921875q0.8125 -0.9375 0.8125 -2.84375q0 -1.796875 -0.8125 -2.71875q-0.8125 -0.921875 -2.03125 -0.921875q-1.234375 0 -2.046875 0.921875q-0.796875 0.90625 -0.796875 2.765625zm15.625702 4.84375l0 -1.421875q-1.125 1.640625 -3.0625 1.640625q-0.859375 0 -1.609375 -0.328125q-0.734375 -0.328125 -1.09375 -0.828125q-0.359375 -0.5 -0.5 -1.21875q-0.109375 -0.46875 -0.109375 -1.53125l0 -5.984375l1.640625 0l0 5.359375q0 1.28125 0.109375 1.734375q0.15625 0.640625 0.65625 1.015625q0.5 0.375 1.234375 0.375q0.734375 0 1.375 -0.375q0.65625 -0.390625 0.921875 -1.03125q0.265625 -0.65625 0.265625 -1.890625l0 -5.1875l1.640625 0l0 9.671875l-1.46875 0zm4.0476074 0l0 -9.671875l1.46875 0l0 1.375q1.0625 -1.59375 3.078125 -1.59375q0.875 0 1.609375 0.3125q0.734375 0.3125 1.09375 0.828125q0.375 0.5 0.515625 1.203125q0.09375 0.453125 0.09375 1.59375l0 5.953125l-1.640625 0l0 -5.890625q0 -1.0 -0.203125 -1.484375q-0.1875 -0.5 -0.671875 -0.796875q-0.484375 -0.296875 -1.140625 -0.296875q-1.046875 0 -1.8125 0.671875q-0.75 0.65625 -0.75 2.515625l0 5.28125l-1.640625 0zm13.953827 -1.46875l0.234375 1.453125q-0.6875 0.140625 -1.234375 0.140625q-0.890625 0 -1.390625 -0.28125q-0.484375 -0.28125 -0.6875 -0.734375q-0.203125 -0.46875 -0.203125 -1.9375l0 -5.578125l-1.203125 0l0 -1.265625l1.203125 0l0 -2.390625l1.625 -0.984375l0 3.375l1.65625 0l0 1.265625l-1.65625 0l0 5.671875q0 0.6875 0.078125 0.890625q0.09375 0.203125 0.28125 0.328125q0.203125 0.109375 0.578125 0.109375q0.265625 0 0.71875 -0.0625zm15.413483 -6.390625l-8.828125 0l0 -1.515625l8.828125 0l0 1.515625zm0 4.0625l-8.828125 0l0 -1.53125l8.828125 0l0 1.53125zm7.1095276 -7.8125l0 -1.578125l8.640625 0l0 1.28125q-1.28125 1.359375 -2.53125 3.609375q-1.25 2.25 -1.9375 4.625q-0.484375 1.671875 -0.625 3.671875l-1.6875 0q0.03125 -1.578125 0.625 -3.8125q0.59375 -2.234375 1.6875 -4.296875q1.109375 -2.078125 2.359375 -3.5l-6.53125 0z" fill-rule="nonzero"/><path fill="#000000" fill-opacity="0.0" d="m523.4325 106.519684l0 0c0 31.084503 -2.0998535 56.283463 -4.6901245 56.283463l-135.34421 0c-2.590271 0 -4.690094 -25.19896 -4.690094 -56.283463z" fill-rule="evenodd"/><path fill="#000000" fill-opacity="0.0" d="m523.4325 106.519684l0 0c0 31.084503 -2.0998535 56.283463 -4.6901245 56.283463l-135.34421 0c-2.590271 0 -4.690094 -25.19896 -4.690094 -56.283463" fill-rule="evenodd"/><path stroke="#b7b7b7" stroke-width="4.0" stroke-linejoin="round" stroke-linecap="butt" d="m523.4325 106.519684l0 0c0 31.084503 -2.0998535 56.283463 -4.6901245 56.283463l-135.34421 0c-2.590271 0 -4.690094 -25.19896 -4.690094 -56.283463" fill-rule="evenodd"/><path fill="#000000" fill-opacity="0.0" d="m670.14905 106.519684l0 0c0 31.084503 -2.0998535 56.283463 -4.6901245 56.283463l-135.34424 0c-2.590271 0 -4.6900635 -25.19896 -4.6900635 -56.283463z" fill-rule="evenodd"/><path fill="#000000" fill-opacity="0.0" d="m670.14905 106.519684l0 0c0 31.084503 -2.0998535 56.283463 -4.6901245 56.283463l-135.34424 0c-2.590271 0 -4.6900635 -25.19896 -4.6900635 -56.283463" fill-rule="evenodd"/><path stroke="#b7b7b7" stroke-width="4.0" stroke-linejoin="round" stroke-linecap="butt" d="m670.14905 106.519684l0 0c0 31.084503 -2.0998535 56.283463 -4.6901245 56.283463l-135.34424 0c-2.590271 0 -4.6900635 -25.19896 -4.6900635 -56.283463" fill-rule="evenodd"/><path fill="#000000" fill-opacity="0.0" d="m401.05453 114.879265l100.031494 0l0 38.20472l-100.031494 0z" fill-rule="evenodd"/><path fill="#000000" d="m417.6014 138.2524l1.609375 0.21875q-0.265625 1.65625 -1.359375 2.609375q-1.078125 0.9375 -2.671875 0.9375q-1.984375 0 -3.1875 -1.296875q-1.203125 -1.296875 -1.203125 -3.71875q0 -1.578125 0.515625 -2.75q0.515625 -1.171875 1.578125 -1.75q1.0625 -0.59375 2.3125 -0.59375q1.578125 0 2.578125 0.796875q1.0 0.796875 1.28125 2.265625l-1.59375 0.234375q-0.234375 -0.96875 -0.8125 -1.453125q-0.578125 -0.5 -1.390625 -0.5q-1.234375 0 -2.015625 0.890625q-0.78125 0.890625 -0.78125 2.8125q0 1.953125 0.75 2.84375q0.75 0.875 1.953125 0.875q0.96875 0 1.609375 -0.59375q0.65625 -0.59375 0.828125 -1.828125zm2.40625 -1.296875q0 -2.6875 1.484375 -3.96875q1.25 -1.078125 3.046875 -1.078125q2.0 0 3.265625 1.3125q1.265625 1.296875 1.265625 3.609375q0 1.859375 -0.5625 2.9375q-0.5625 1.0625 -1.640625 1.65625q-1.0625 0.59375 -2.328125 0.59375q-2.03125 0 -3.28125 -1.296875q-1.25 -1.3125 -1.25 -3.765625zm1.6875 0q0 1.859375 0.796875 2.796875q0.8125 0.921875 2.046875 0.921875q1.21875 0 2.03125 -0.921875q0.8125 -0.9375 0.8125 -2.84375q0 -1.796875 -0.8125 -2.71875q-0.8125 -0.921875 -2.03125 -0.921875q-1.234375 0 -2.046875 0.921875q-0.796875 0.90625 -0.796875 2.765625zm15.625702 4.84375l0 -1.421875q-1.125 1.640625 -3.0625 1.640625q-0.859375 0 -1.609375 -0.328125q-0.734375 -0.328125 -1.09375 -0.828125q-0.359375 -0.5 -0.5 -1.21875q-0.109375 -0.46875 -0.109375 -1.53125l0 -5.984375l1.640625 0l0 5.359375q0 1.28125 0.109375 1.734375q0.15625 0.640625 0.65625 1.015625q0.5 0.375 1.234375 0.375q0.734375 0 1.375 -0.375q0.65625 -0.390625 0.921875 -1.03125q0.265625 -0.65625 0.265625 -1.890625l0 -5.1875l1.640625 0l0 9.671875l-1.46875 0zm4.0476074 0l0 -9.671875l1.46875 0l0 1.375q1.0625 -1.59375 3.078125 -1.59375q0.875 0 1.609375 0.3125q0.734375 0.3125 1.09375 0.828125q0.375 0.5 0.515625 1.203125q0.09375 0.453125 0.09375 1.59375l0 5.953125l-1.640625 0l0 -5.890625q0 -1.0 -0.203125 -1.484375q-0.1875 -0.5 -0.671875 -0.796875q-0.484375 -0.296875 -1.140625 -0.296875q-1.046875 0 -1.8125 0.671875q-0.75 0.65625 -0.75 2.515625l0 5.28125l-1.640625 0zm13.953827 -1.46875l0.234375 1.453125q-0.6875 0.140625 -1.234375 0.140625q-0.890625 0 -1.390625 -0.28125q-0.484375 -0.28125 -0.6875 -0.734375q-0.203125 -0.46875 -0.203125 -1.9375l0 -5.578125l-1.203125 0l0 -1.265625l1.203125 0l0 -2.390625l1.625 -0.984375l0 3.375l1.65625 0l0 1.265625l-1.65625 0l0 5.671875q0 0.6875 0.078125 0.890625q0.09375 0.203125 0.28125 0.328125q0.203125 0.109375 0.578125 0.109375q0.265625 0 0.71875 -0.0625zm15.413483 -6.390625l-8.828125 0l0 -1.515625l8.828125 0l0 1.515625zm0 4.0625l-8.828125 0l0 -1.53125l8.828125 0l0 1.53125zm7.0001526 0.296875l1.71875 -0.140625q0.1875 1.25 0.875 1.890625q0.703125 0.625 1.6875 0.625q1.1875 0 2.0 -0.890625q0.828125 -0.890625 0.828125 -2.359375q0 -1.40625 -0.796875 -2.21875q-0.78125 -0.8125 -2.0625 -0.8125q-0.78125 0 -1.421875 0.359375q-0.640625 0.359375 -1.0 0.9375l-1.546875 -0.203125l1.296875 -6.859375l6.640625 0l0 1.5625l-5.328125 0l-0.71875 3.59375q1.203125 -0.84375 2.515625 -0.84375q1.75 0 2.953125 1.21875q1.203125 1.203125 1.203125 3.109375q0 1.8125 -1.046875 3.140625q-1.296875 1.625 -3.515625 1.625q-1.8125 0 -2.96875 -1.015625q-1.15625 -1.03125 -1.3125 -2.71875z" fill-rule="nonzero"/><path fill="#000000" fill-opacity="0.0" d="m550.4771 114.879265l100.031494 0l0 38.20472l-100.031494 0z" fill-rule="evenodd"/><path fill="#000000" d="m567.024 138.2524l1.609375 0.21875q-0.265625 1.65625 -1.359375 2.609375q-1.078125 0.9375 -2.671875 0.9375q-1.984375 0 -3.1875 -1.296875q-1.203125 -1.296875 -1.203125 -3.71875q0 -1.578125 0.515625 -2.75q0.515625 -1.171875 1.578125 -1.75q1.0625 -0.59375 2.3125 -0.59375q1.578125 0 2.578125 0.796875q1.0 0.796875 1.28125 2.265625l-1.59375 0.234375q-0.234375 -0.96875 -0.8125 -1.453125q-0.578125 -0.5 -1.390625 -0.5q-1.234375 0 -2.015625 0.890625q-0.78125 0.890625 -0.78125 2.8125q0 1.953125 0.75 2.84375q0.75 0.875 1.953125 0.875q0.96875 0 1.609375 -0.59375q0.65625 -0.59375 0.828125 -1.828125zm2.40625 -1.296875q0 -2.6875 1.484375 -3.96875q1.25 -1.078125 3.046875 -1.078125q2.0 0 3.265625 1.3125q1.265625 1.296875 1.265625 3.609375q0 1.859375 -0.5625 2.9375q-0.5625 1.0625 -1.640625 1.65625q-1.0625 0.59375 -2.328125 0.59375q-2.03125 0 -3.28125 -1.296875q-1.25 -1.3125 -1.25 -3.765625zm1.6875 0q0 1.859375 0.796875 2.796875q0.8125 0.921875 2.046875 0.921875q1.21875 0 2.03125 -0.921875q0.8125 -0.9375 0.8125 -2.84375q0 -1.796875 -0.8125 -2.71875q-0.8125 -0.921875 -2.03125 -0.921875q-1.234375 0 -2.046875 0.921875q-0.796875 0.90625 -0.796875 2.765625zm15.625732 4.84375l0 -1.421875q-1.125 1.640625 -3.0625 1.640625q-0.859375 0 -1.609375 -0.328125q-0.734375 -0.328125 -1.09375 -0.828125q-0.359375 -0.5 -0.5 -1.21875q-0.109375 -0.46875 -0.109375 -1.53125l0 -5.984375l1.640625 0l0 5.359375q0 1.28125 0.109375 1.734375q0.15625 0.640625 0.65625 1.015625q0.5 0.375 1.234375 0.375q0.734375 0 1.375 -0.375q0.65625 -0.390625 0.921875 -1.03125q0.265625 -0.65625 0.265625 -1.890625l0 -5.1875l1.640625 0l0 9.671875l-1.46875 0zm4.0475464 0l0 -9.671875l1.46875 0l0 1.375q1.0625 -1.59375 3.078125 -1.59375q0.875 0 1.609375 0.3125q0.734375 0.3125 1.09375 0.828125q0.375 0.5 0.515625 1.203125q0.09375 0.453125 0.09375 1.59375l0 5.953125l-1.640625 0l0 -5.890625q0 -1.0 -0.203125 -1.484375q-0.1875 -0.5 -0.671875 -0.796875q-0.484375 -0.296875 -1.140625 -0.296875q-1.046875 0 -1.8125 0.671875q-0.75 0.65625 -0.75 2.515625l0 5.28125l-1.640625 0zm13.953857 -1.46875l0.234375 1.453125q-0.6875 0.140625 -1.234375 0.140625q-0.890625 0 -1.390625 -0.28125q-0.484375 -0.28125 -0.6875 -0.734375q-0.203125 -0.46875 -0.203125 -1.9375l0 -5.578125l-1.203125 0l0 -1.265625l1.203125 0l0 -2.390625l1.625 -0.984375l0 3.375l1.65625 0l0 1.265625l-1.65625 0l0 5.671875q0 0.6875 0.078125 0.890625q0.09375 0.203125 0.28125 0.328125q0.203125 0.109375 0.578125 0.109375q0.265625 0 0.71875 -0.0625zm15.413513 -6.390625l-8.828125 0l0 -1.515625l8.828125 0l0 1.515625zm0 4.0625l-8.828125 0l0 -1.53125l8.828125 0l0 1.53125zm15.500122 -6.28125l-1.625 0.125q-0.21875 -0.96875 -0.625 -1.40625q-0.65625 -0.703125 -1.640625 -0.703125q-0.78125 0 -1.375 0.4375q-0.765625 0.5625 -1.21875 1.65625q-0.453125 1.078125 -0.46875 3.078125q0.59375 -0.890625 1.453125 -1.328125q0.859375 -0.4375 1.796875 -0.4375q1.640625 0 2.78125 1.203125q1.15625 1.203125 1.15625 3.109375q0 1.265625 -0.546875 2.34375q-0.53125 1.078125 -1.484375 1.65625q-0.9375 0.578125 -2.140625 0.578125q-2.0625 0 -3.359375 -1.5q-1.28125 -1.515625 -1.28125 -4.984375q0 -3.875 1.421875 -5.625q1.25 -1.53125 3.375 -1.53125q1.5625 0 2.5625 0.890625q1.015625 0.875 1.21875 2.4375zm-6.6875 5.75q0 0.84375 0.359375 1.625q0.359375 0.765625 1.0 1.171875q0.640625 0.40625 1.359375 0.40625q1.03125 0 1.78125 -0.828125q0.75 -0.84375 0.75 -2.28125q0 -1.390625 -0.734375 -2.1875q-0.734375 -0.796875 -1.859375 -0.796875q-1.109375 0 -1.890625 0.796875q-0.765625 0.796875 -0.765625 2.09375z" fill-rule="nonzero"/><path fill="#000000" fill-opacity="0.0" d="m376.7154 253.52362l0 0c0 31.084503 -2.099823 56.283478 -4.690094 56.283478l-286.08438 0c-2.590271 0 -4.6901016 -25.198975 -4.6901016 -56.283478z" fill-rule="evenodd"/><path fill="#000000" fill-opacity="0.0" d="m376.7154 253.52362l0 0c0 31.084503 -2.099823 56.283478 -4.690094 56.283478l-286.08438 0c-2.590271 0 -4.6901016 -25.198975 -4.6901016 -56.283478" fill-rule="evenodd"/><path stroke="#b7b7b7" stroke-width="4.0" stroke-linejoin="round" stroke-linecap="butt" d="m376.7154 253.52362l0 0c0 31.084503 -2.099823 56.283478 -4.690094 56.283478l-286.08438 0c-2.590271 0 -4.6901016 -25.198975 -4.6901016 -56.283478" fill-rule="evenodd"/><path fill="#000000" fill-opacity="0.0" d="m529.226 377.46588l0 0c0 31.084503 -2.0998535 56.283447 -4.6901245 56.283447l-286.08435 0c-2.590271 0 -4.6901093 -25.198944 -4.6901093 -56.283447z" fill-rule="evenodd"/><path fill="#000000" fill-opacity="0.0" d="m529.226 377.46588l0 0c0 31.084503 -2.0998535 56.283447 -4.6901245 56.283447l-286.08435 0c-2.590271 0 -4.6901093 -25.198944 -4.6901093 -56.283447" fill-rule="evenodd"/><path stroke="#b7b7b7" stroke-width="4.0" stroke-linejoin="round" stroke-linecap="butt" d="m529.226 377.46588l0 0c0 31.084503 -2.0998535 56.283447 -4.6901245 56.283447l-286.08435 0c-2.590271 0 -4.6901093 -25.198944 -4.6901093 -56.283447" fill-rule="evenodd"/><path fill="#000000" fill-opacity="0.0" d="m674.17236 504.70865l0 0c0 31.084503 -2.0998535 56.283478 -4.6901245 56.283478l-286.08438 0c-2.590271 0 -4.690094 -25.198975 -4.690094 -56.283478z" fill-rule="evenodd"/><path fill="#000000" fill-opacity="0.0" d="m674.17236 504.70865l0 0c0 31.084503 -2.0998535 56.283478 -4.6901245 56.283478l-286.08438 0c-2.590271 0 -4.690094 -25.198975 -4.690094 -56.283478" fill-rule="evenodd"/><path stroke="#b7b7b7" stroke-width="4.0" stroke-linejoin="round" stroke-linecap="butt" d="m674.17236 504.70865l0 0c0 31.084503 -2.0998535 56.283478 -4.6901245 56.283478l-286.08438 0c-2.590271 0 -4.690094 -25.198975 -4.690094 -56.283478" fill-rule="evenodd"/><path fill="#000000" fill-opacity="0.0" d="m81.25176 271.60367l295.46457 0l0 38.204742l-295.46457 0z" fill-rule="evenodd"/><path fill="#000000" d="m192.70512 294.9768l1.609375 0.21875q-0.265625 1.65625 -1.359375 2.609375q-1.078125 0.9375 -2.671875 0.9375q-1.984375 0 -3.1875 -1.296875q-1.203125 -1.296875 -1.203125 -3.71875q0 -1.578125 0.515625 -2.75q0.515625 -1.171875 1.578125 -1.75q1.0625 -0.59375 2.3125 -0.59375q1.578125 0 2.578125 0.796875q1.0 0.796875 1.28125 2.265625l-1.59375 0.234375q-0.234375 -0.96875 -0.8125 -1.453125q-0.578125 -0.5 -1.390625 -0.5q-1.234375 0 -2.015625 0.890625q-0.78125 0.890625 -0.78125 2.8125q0 1.953125 0.75 2.84375q0.75 0.875 1.953125 0.875q0.96875 0 1.609375 -0.59375q0.65625 -0.59375 0.828125 -1.828125zm2.40625 -1.296875q0 -2.6875 1.484375 -3.96875q1.25 -1.078125 3.046875 -1.078125q2.0 0 3.265625 1.3125q1.265625 1.296875 1.265625 3.609375q0 1.859375 -0.5625 2.9375q-0.5625 1.0625 -1.640625 1.65625q-1.0625 0.59375 -2.328125 0.59375q-2.03125 0 -3.28125 -1.296875q-1.25 -1.3125 -1.25 -3.765625zm1.6875 0q0 1.859375 0.796875 2.796875q0.8125 0.921875 2.046875 0.921875q1.21875 0 2.03125 -0.921875q0.8125 -0.9375 0.8125 -2.84375q0 -1.796875 -0.8125 -2.71875q-0.8125 -0.921875 -2.03125 -0.921875q-1.234375 0 -2.046875 0.921875q-0.796875 0.90625 -0.796875 2.765625zm15.625717 4.84375l0 -1.421875q-1.125 1.640625 -3.0625 1.640625q-0.859375 0 -1.609375 -0.328125q-0.734375 -0.328125 -1.09375 -0.828125q-0.359375 -0.5 -0.5 -1.21875q-0.109375 -0.46875 -0.109375 -1.53125l0 -5.984375l1.640625 0l0 5.359375q0 1.28125 0.109375 1.734375q0.15625 0.640625 0.65625 1.015625q0.5 0.375 1.234375 0.375q0.734375 0 1.375 -0.375q0.65625 -0.390625 0.921875 -1.03125q0.265625 -0.65625 0.265625 -1.890625l0 -5.1875l1.640625 0l0 9.671875l-1.46875 0zm4.047592 0l0 -9.671875l1.46875 0l0 1.375q1.0625 -1.59375 3.078125 -1.59375q0.875 0 1.609375 0.3125q0.734375 0.3125 1.09375 0.828125q0.375 0.5 0.515625 1.203125q0.09375 0.453125 0.09375 1.59375l0 5.953125l-1.640625 0l0 -5.890625q0 -1.0 -0.203125 -1.484375q-0.1875 -0.5 -0.671875 -0.796875q-0.484375 -0.296875 -1.140625 -0.296875q-1.046875 0 -1.8125 0.671875q-0.75 0.65625 -0.75 2.515625l0 5.28125l-1.640625 0zm13.953842 -1.46875l0.234375 1.453125q-0.6875 0.140625 -1.234375 0.140625q-0.890625 0 -1.390625 -0.28125q-0.484375 -0.28125 -0.6875 -0.734375q-0.203125 -0.46875 -0.203125 -1.9375l0 -5.578125l-1.203125 0l0 -1.265625l1.203125 0l0 -2.390625l1.625 -0.984375l0 3.375l1.65625 0l0 1.265625l-1.65625 0l0 5.671875q0 0.6875 0.078125 0.890625q0.09375 0.203125 0.28125 0.328125q0.203125 0.109375 0.578125 0.109375q0.265625 0 0.71875 -0.0625zm15.413483 -6.390625l-8.828125 0l0 -1.515625l8.828125 0l0 1.515625zm0 4.0625l-8.828125 0l0 -1.53125l8.828125 0l0 1.53125zm13.172028 3.796875l-1.640625 0l0 -10.453125q-0.59375 0.5625 -1.5625153 1.140625q-0.953125 0.5625 -1.71875 0.84375l0 -1.59375q1.375 -0.640625 2.4062653 -1.5625q1.03125 -0.921875 1.453125 -1.78125l1.0625 0l0 13.40625zm4.203827 -3.53125l1.640625 -0.21875q0.28125 1.40625 0.953125 2.015625q0.6875 0.609375 1.65625 0.609375q1.15625 0 1.953125 -0.796875q0.796875 -0.796875 0.796875 -1.984375q0 -1.125 -0.734375 -1.859375q-0.734375 -0.734375 -1.875 -0.734375q-0.46875 0 -1.15625 0.171875l0.1875 -1.4375q0.15625 0.015625 0.265625 0.015625q1.046875 0 1.875 -0.546875q0.84375 -0.546875 0.84375 -1.671875q0 -0.90625 -0.609375 -1.5q-0.609375 -0.59375 -1.578125 -0.59375q-0.953125 0 -1.59375 0.609375q-0.640625 0.59375 -0.8125 1.796875l-1.640625 -0.296875q0.296875 -1.640625 1.359375 -2.546875q1.0625 -0.90625 2.65625 -0.90625q1.09375 0 2.0 0.46875q0.921875 0.46875 1.40625 1.28125q0.5 0.8125 0.5 1.71875q0 0.859375 -0.46875 1.578125q-0.46875 0.703125 -1.375 1.125q1.1875 0.28125 1.84375 1.140625q0.65625 0.859375 0.65625 2.15625q0 1.734375 -1.28125 2.953125q-1.265625 1.21875 -3.21875 1.21875q-1.765625 0 -2.921875 -1.046875q-1.15625 -1.046875 -1.328125 -2.71875z" fill-rule="nonzero"/><path fill="#000000" fill-opacity="0.0" d="m233.7583 395.54593l295.4646 0l0 38.204742l-295.4646 0z" fill-rule="evenodd"/><path fill="#000000" d="m345.21167 418.91907l1.609375 0.21875q-0.265625 1.65625 -1.359375 2.609375q-1.078125 0.9375 -2.671875 0.9375q-1.984375 0 -3.1875 -1.296875q-1.203125 -1.296875 -1.203125 -3.71875q0 -1.578125 0.515625 -2.75q0.515625 -1.171875 1.578125 -1.75q1.0625 -0.59375 2.3125 -0.59375q1.578125 0 2.578125 0.796875q1.0 0.796875 1.28125 2.265625l-1.59375 0.234375q-0.234375 -0.96875 -0.8125 -1.453125q-0.578125 -0.5 -1.390625 -0.5q-1.234375 0 -2.015625 0.890625q-0.78125 0.890625 -0.78125 2.8125q0 1.953125 0.75 2.84375q0.75 0.875 1.953125 0.875q0.96875 0 1.609375 -0.59375q0.65625 -0.59375 0.828125 -1.828125zm2.40625 -1.296875q0 -2.6875 1.484375 -3.96875q1.25 -1.078125 3.046875 -1.078125q2.0 0 3.265625 1.3125q1.265625 1.296875 1.265625 3.609375q0 1.859375 -0.5625 2.9375q-0.5625 1.0625 -1.640625 1.65625q-1.0625 0.59375 -2.328125 0.59375q-2.03125 0 -3.28125 -1.296875q-1.25 -1.3125 -1.25 -3.765625zm1.6875 0q0 1.859375 0.796875 2.796875q0.8125 0.921875 2.046875 0.921875q1.21875 0 2.03125 -0.921875q0.8125 -0.9375 0.8125 -2.84375q0 -1.796875 -0.8125 -2.71875q-0.8125 -0.921875 -2.03125 -0.921875q-1.234375 0 -2.046875 0.921875q-0.796875 0.90625 -0.796875 2.765625zm15.625732 4.84375l0 -1.421875q-1.125 1.640625 -3.0625 1.640625q-0.859375 0 -1.609375 -0.328125q-0.734375 -0.328125 -1.09375 -0.828125q-0.359375 -0.5 -0.5 -1.21875q-0.109375 -0.46875 -0.109375 -1.53125l0 -5.984375l1.640625 0l0 5.359375q0 1.28125 0.109375 1.734375q0.15625 0.640625 0.65625 1.015625q0.5 0.375 1.234375 0.375q0.734375 0 1.375 -0.375q0.65625 -0.390625 0.921875 -1.03125q0.265625 -0.65625 0.265625 -1.890625l0 -5.1875l1.640625 0l0 9.671875l-1.46875 0zm4.047577 0l0 -9.671875l1.46875 0l0 1.375q1.0625 -1.59375 3.078125 -1.59375q0.875 0 1.609375 0.3125q0.734375 0.3125 1.09375 0.828125q0.375 0.5 0.515625 1.203125q0.09375 0.453125 0.09375 1.59375l0 5.953125l-1.640625 0l0 -5.890625q0 -1.0 -0.203125 -1.484375q-0.1875 -0.5 -0.671875 -0.796875q-0.484375 -0.296875 -1.140625 -0.296875q-1.046875 0 -1.8125 0.671875q-0.75 0.65625 -0.75 2.515625l0 5.28125l-1.640625 0zm13.953857 -1.46875l0.234375 1.453125q-0.6875 0.140625 -1.234375 0.140625q-0.890625 0 -1.390625 -0.28125q-0.484375 -0.28125 -0.6875 -0.734375q-0.203125 -0.46875 -0.203125 -1.9375l0 -5.578125l-1.203125 0l0 -1.265625l1.203125 0l0 -2.390625l1.625 -0.984375l0 3.375l1.65625 0l0 1.265625l-1.65625 0l0 5.671875q0 0.6875 0.078125 0.890625q0.09375 0.203125 0.28125 0.328125q0.203125 0.109375 0.578125 0.109375q0.265625 0 0.71875 -0.0625zm15.413483 -6.390625l-8.828125 0l0 -1.515625l8.828125 0l0 1.515625zm0 4.0625l-8.828125 0l0 -1.53125l8.828125 0l0 1.53125zm13.171997 3.796875l-1.640625 0l0 -10.453125q-0.59375 0.5625 -1.5625 1.140625q-0.953125 0.5625 -1.71875 0.84375l0 -1.59375q1.375 -0.640625 2.40625 -1.5625q1.03125 -0.921875 1.453125 -1.78125l1.0625 0l0 13.40625zm12.813232 -1.578125l0 1.578125l-8.828125 0q-0.015625 -0.59375 0.1875 -1.140625q0.34375 -0.90625 1.078125 -1.78125q0.75 -0.875 2.15625 -2.015625q2.171875 -1.78125 2.9375 -2.828125q0.765625 -1.046875 0.765625 -1.96875q0 -0.984375 -0.703125 -1.640625q-0.6875 -0.671875 -1.8125 -0.671875q-1.1875 0 -1.90625 0.71875q-0.703125 0.703125 -0.703125 1.953125l-1.6875 -0.171875q0.171875 -1.890625 1.296875 -2.875q1.140625 -0.984375 3.03125 -0.984375q1.921875 0 3.046875 1.0625q1.125 1.0625 1.125 2.640625q0 0.796875 -0.328125 1.578125q-0.328125 0.78125 -1.09375 1.640625q-0.75 0.84375 -2.53125 2.34375q-1.46875 1.234375 -1.890625 1.6875q-0.421875 0.4375 -0.6875 0.875l6.546875 0z" fill-rule="nonzero"/><path fill="#000000" fill-opacity="0.0" d="m155.62148 162.12335l28.566925 49.88977" fill-rule="evenodd"/><path stroke="#000000" stroke-width="1.0" stroke-linejoin="round" stroke-linecap="butt" stroke-dasharray="1.0,3.0" d="m155.62148 162.12335l28.566925 49.88977" fill-rule="evenodd"/><path fill="#000000" fill-opacity="0.0" d="m304.35376 162.80315l-17.13388 46.645676" fill-rule="evenodd"/><path stroke="#000000" stroke-width="1.0" stroke-linejoin="round" stroke-linecap="butt" stroke-dasharray="1.0,3.0" d="m304.35376 162.80315l-17.13388 46.645676" fill-rule="evenodd"/><path fill="#000000" fill-opacity="0.0" d="m378.70978 521.9449l295.46454 0l0 38.204712l-295.46454 0z" fill-rule="evenodd"/><path fill="#000000" d="m490.85587 545.318l1.609375 0.21875q-0.265625 1.65625 -1.359375 2.609375q-1.078125 0.9375 -2.671875 0.9375q-1.984375 0 -3.1875 -1.296875q-1.203125 -1.296875 -1.203125 -3.71875q0 -1.578125 0.515625 -2.75q0.515625 -1.171875 1.578125 -1.75q1.0625 -0.59375 2.3125 -0.59375q1.578125 0 2.578125 0.796875q1.0 0.796875 1.28125 2.265625l-1.59375 0.234375q-0.234375 -0.96875 -0.8125 -1.453125q-0.578125 -0.5 -1.390625 -0.5q-1.234375 0 -2.015625 0.890625q-0.78125 0.890625 -0.78125 2.8125q0 1.953125 0.75 2.84375q0.75 0.875 1.953125 0.875q0.96875 0 1.609375 -0.59375q0.65625 -0.59375 0.828125 -1.828125zm2.40625 -1.296875q0 -2.6875 1.484375 -3.96875q1.25 -1.078125 3.046875 -1.078125q2.0 0 3.265625 1.3125q1.265625 1.296875 1.265625 3.609375q0 1.859375 -0.5625 2.9375q-0.5625 1.0625 -1.640625 1.65625q-1.0625 0.59375 -2.328125 0.59375q-2.03125 0 -3.28125 -1.296875q-1.25 -1.3125 -1.25 -3.765625zm1.6875 0q0 1.859375 0.796875 2.796875q0.8125 0.921875 2.046875 0.921875q1.21875 0 2.03125 -0.921875q0.8125 -0.9375 0.8125 -2.84375q0 -1.796875 -0.8125 -2.71875q-0.8125 -0.921875 -2.03125 -0.921875q-1.234375 0 -2.046875 0.921875q-0.796875 0.90625 -0.796875 2.765625zm15.625702 4.84375l0 -1.421875q-1.125 1.640625 -3.0625 1.640625q-0.859375 0 -1.609375 -0.328125q-0.734375 -0.328125 -1.09375 -0.828125q-0.359375 -0.5 -0.5 -1.21875q-0.109375 -0.46875 -0.109375 -1.53125l0 -5.984375l1.640625 0l0 5.359375q0 1.28125 0.109375 1.734375q0.15625 0.640625 0.65625 1.015625q0.5 0.375 1.234375 0.375q0.734375 0 1.375 -0.375q0.65625 -0.390625 0.921875 -1.03125q0.265625 -0.65625 0.265625 -1.890625l0 -5.1875l1.640625 0l0 9.671875l-1.46875 0zm4.0476074 0l0 -9.671875l1.46875 0l0 1.375q1.0625 -1.59375 3.078125 -1.59375q0.875 0 1.609375 0.3125q0.734375 0.3125 1.09375 0.828125q0.375 0.5 0.515625 1.203125q0.09375 0.453125 0.09375 1.59375l0 5.953125l-1.640625 0l0 -5.890625q0 -1.0 -0.203125 -1.484375q-0.1875 -0.5 -0.671875 -0.796875q-0.484375 -0.296875 -1.140625 -0.296875q-1.046875 0 -1.8125 0.671875q-0.75 0.65625 -0.75 2.515625l0 5.28125l-1.640625 0zm13.953796 -1.46875l0.234375 1.453125q-0.6875 0.140625 -1.234375 0.140625q-0.890625 0 -1.390625 -0.28125q-0.484375 -0.28125 -0.6875 -0.734375q-0.203125 -0.46875 -0.203125 -1.9375l0 -5.578125l-1.203125 0l0 -1.265625l1.203125 0l0 -2.390625l1.625 -0.984375l0 3.375l1.65625 0l0 1.265625l-1.65625 0l0 5.671875q0 0.6875 0.078125 0.890625q0.09375 0.203125 0.28125 0.328125q0.203125 0.109375 0.578125 0.109375q0.265625 0 0.71875 -0.0625zm15.413513 -6.390625l-8.828125 0l0 -1.515625l8.828125 0l0 1.515625zm0 4.0625l-8.828125 0l0 -1.53125l8.828125 0l0 1.53125zm13.171997 3.796875l-1.640625 0l0 -10.453125q-0.59375 0.5625 -1.5625 1.140625q-0.953125 0.5625 -1.71875 0.84375l0 -1.59375q1.375 -0.640625 2.40625 -1.5625q1.03125 -0.921875 1.453125 -1.78125l1.0625 0l0 13.40625zm8.990295 0l-1.640625 0l0 -10.453125q-0.59375 0.5625 -1.5625 1.140625q-0.953125 0.5625 -1.71875 0.84375l0 -1.59375q1.375 -0.640625 2.40625 -1.5625q1.03125 -0.921875 1.453125 -1.78125l1.0625 0l0 13.40625z" fill-rule="nonzero"/><path fill="#fce5cd" d="m226.36063 217.87054l30.801758 -21.610703l-3.0371552 19.840866l34.96437 -3.234146l-13.886444 10.6488495l36.371216 3.0627594l-28.881805 8.7113495l33.044434 10.488647l-39.416626 -1.2966309l10.824463 19.199982l-34.13681 -13.555115l-6.3970337 19.673187l-22.468216 -17.892166l-16.94014 24.833664l-6.3722076 -22.255295l-24.43782 7.4147186l7.4894104 -13.711624l-45.780563 2.4218903l29.68454 -10.477478l-30.801743 -11.774109l38.291153 -3.718521l-35.229187 -19.829697l57.449158 14.997086l8.606613 -14.997086z" fill-rule="evenodd"/><path stroke="#b7b7b7" stroke-width="1.0" stroke-linejoin="round" stroke-linecap="butt" d="m226.36063 217.87054l30.801758 -21.610703l-3.0371552 19.840866l34.96437 -3.234146l-13.886444 10.6488495l36.371216 3.0627594l-28.881805 8.7113495l33.044434 10.488647l-39.416626 -1.2966309l10.824463 19.199982l-34.13681 -13.555115l-6.3970337 19.673187l-22.468216 -17.892166l-16.94014 24.833664l-6.3722076 -22.255295l-24.43782 7.4147186l7.4894104 -13.711624l-45.780563 2.4218903l29.68454 -10.477478l-30.801743 -11.774109l38.291153 -3.718521l-35.229187 -19.829697l57.449158 14.997086l8.606613 -14.997086z" fill-rule="evenodd"/><path fill="#000000" d="m195.24416 236.23097l1.765625 0.453125q-0.5625 2.171875 -2.0 3.328125q-1.4375 1.140625 -3.53125 1.140625q-2.15625 0 -3.515625 -0.875q-1.34375 -0.890625 -2.0625 -2.546875q-0.703125 -1.671875 -0.703125 -3.59375q0 -2.078125 0.796875 -3.625q0.796875 -1.5625 2.265625 -2.359375q1.484375 -0.8125 3.25 -0.8125q2.0 0 3.359375 1.015625q1.375 1.015625 1.90625 2.875l-1.734375 0.40625q-0.46875 -1.453125 -1.359375 -2.109375q-0.875 -0.671875 -2.203125 -0.671875q-1.546875 0 -2.578125 0.734375q-1.03125 0.734375 -1.453125 1.984375q-0.421875 1.234375 -0.421875 2.5625q0 1.703125 0.5 2.96875q0.5 1.265625 1.546875 1.90625q1.046875 0.625 2.265625 0.625q1.484375 0 2.515625 -0.859375q1.03125 -0.859375 1.390625 -2.546875zm3.1291962 -0.15625q0 -2.6875 1.484375 -3.96875q1.25 -1.078125 3.046875 -1.078125q2.0 0 3.265625 1.3125q1.265625 1.296875 1.265625 3.609375q0 1.859375 -0.5625 2.9375q-0.5625 1.0625 -1.640625 1.65625q-1.0625 0.59375 -2.328125 0.59375q-2.03125 0 -3.28125 -1.296875q-1.25 -1.3125 -1.25 -3.765625zm1.6875 0q0 1.859375 0.796875 2.796875q0.8125 0.921875 2.046875 0.921875q1.21875 0 2.03125 -0.921875q0.8125 -0.9375 0.8125 -2.84375q0 -1.796875 -0.8125 -2.71875q-0.8125 -0.921875 -2.03125 -0.921875q-1.234375 0 -2.046875 0.921875q-0.796875 0.90625 -0.796875 2.765625zm9.297592 4.84375l0 -9.671875l1.46875 0l0 1.359375q0.453125 -0.71875 1.203125 -1.140625q0.765625 -0.4375 1.71875 -0.4375q1.078125 0 1.765625 0.453125q0.6875 0.4375 0.96875 1.234375q1.15625 -1.6875 2.984375 -1.6875q1.453125 0 2.21875 0.796875q0.78125 0.796875 0.78125 2.453125l0 6.640625l-1.640625 0l0 -6.09375q0 -0.984375 -0.15625 -1.40625q-0.15625 -0.4375 -0.578125 -0.703125q-0.421875 -0.265625 -0.984375 -0.265625q-1.015625 0 -1.6875 0.6875q-0.671875 0.671875 -0.671875 2.15625l0 5.625l-1.640625 0l0 -6.28125q0 -1.09375 -0.40625 -1.640625q-0.40625 -0.546875 -1.3125 -0.546875q-0.6875 0 -1.28125 0.359375q-0.59375 0.359375 -0.859375 1.0625q-0.25 0.703125 -0.25 2.03125l0 5.015625l-1.640625 0zm17.040802 0l-1.515625 0l0 -13.359375l1.640625 0l0 4.765625q1.046875 -1.296875 2.65625 -1.296875q0.890625 0 1.6875 0.359375q0.796875 0.359375 1.3125 1.015625q0.515625 0.640625 0.796875 1.5625q0.296875 0.921875 0.296875 1.96875q0 2.484375 -1.234375 3.84375q-1.21875 1.359375 -2.953125 1.359375q-1.703125 0 -2.6875 -1.4375l0 1.21875zm-0.015625 -4.90625q0 1.734375 0.484375 2.515625q0.765625 1.265625 2.09375 1.265625q1.078125 0 1.859375 -0.9375q0.78125 -0.9375 0.78125 -2.78125q0 -1.890625 -0.75 -2.796875q-0.75 -0.90625 -1.828125 -0.90625q-1.0625 0 -1.859375 0.9375q-0.78125 0.9375 -0.78125 2.703125zm8.891342 -6.5625l0 -1.890625l1.640625 0l0 1.890625l-1.640625 0zm0 11.46875l0 -9.671875l1.640625 0l0 9.671875l-1.640625 0zm4.144821 0l0 -9.671875l1.46875 0l0 1.375q1.0625 -1.59375 3.078125 -1.59375q0.875 0 1.609375 0.3125q0.734375 0.3125 1.09375 0.828125q0.375 0.5 0.515625 1.203125q0.09375 0.453125 0.09375 1.59375l0 5.953125l-1.640625 0l0 -5.890625q0 -1.0 -0.203125 -1.484375q-0.1875 -0.5 -0.671875 -0.796875q-0.484375 -0.296875 -1.140625 -0.296875q-1.046875 0 -1.8125 0.671875q-0.75 0.65625 -0.75 2.515625l0 5.28125l-1.640625 0zm17.000717 -3.109375l1.6875 0.203125q-0.40625 1.484375 -1.484375 2.3125q-1.078125 0.8125 -2.765625 0.8125q-2.125 0 -3.375 -1.296875q-1.234375 -1.3125 -1.234375 -3.671875q0 -2.453125 1.25 -3.796875q1.265625 -1.34375 3.265625 -1.34375q1.9375 0 3.15625 1.328125q1.234375 1.3125 1.234375 3.703125q0 0.15625 0 0.4375l-7.21875 0q0.09375 1.59375 0.90625 2.453125q0.8125 0.84375 2.015625 0.84375q0.90625 0 1.546875 -0.46875q0.640625 -0.484375 1.015625 -1.515625zm-5.390625 -2.65625l5.40625 0q-0.109375 -1.21875 -0.625 -1.828125q-0.78125 -0.953125 -2.03125 -0.953125q-1.125 0 -1.90625 0.765625q-0.765625 0.75 -0.84375 2.015625zm10.016357 2.453125l-0.5 -7.078125l0 -2.96875l2.03125 0l0 2.96875l-0.484375 7.078125l-1.046875 0zm-0.4375 3.3125l0 -1.875l1.890625 0l0 1.875l-1.890625 0z" fill-rule="nonzero"/><path fill="#fce5cd" d="m381.49316 345.98996l30.801758 -21.610687l-3.03714 19.84085l34.964355 -3.2341614l-13.886414 10.648865l36.371216 3.0627747l-28.881805 8.711334l33.044434 10.488647l-39.416656 -1.2966309l10.824463 19.200012l-34.13681 -13.555145l-6.397003 19.673187l-22.468231 -17.892181l-16.940155 24.83371l-6.3721924 -22.25531l-24.437836 7.4147034l7.4894104 -13.711609l-45.78055 2.421875l29.68454 -10.477478l-30.801758 -11.774109l38.29117 -3.7185059l-35.229187 -19.829712l57.449158 14.997101l8.606598 -14.997101z" fill-rule="evenodd"/><path stroke="#b7b7b7" stroke-width="1.0" stroke-linejoin="round" stroke-linecap="butt" d="m381.49316 345.98996l30.801758 -21.610687l-3.03714 19.84085l34.964355 -3.2341614l-13.886414 10.648865l36.371216 3.0627747l-28.881805 8.711334l33.044434 10.488647l-39.416656 -1.2966309l10.824463 19.200012l-34.13681 -13.555145l-6.397003 19.673187l-22.468231 -17.892181l-16.940155 24.83371l-6.3721924 -22.25531l-24.437836 7.4147034l7.4894104 -13.711609l-45.78055 2.421875l29.68454 -10.477478l-30.801758 -11.774109l38.29117 -3.7185059l-35.229187 -19.829712l57.449158 14.997101l8.606598 -14.997101z" fill-rule="evenodd"/><path fill="#000000" d="m350.3767 364.3504l1.765625 0.453125q-0.5625 2.171875 -2.0 3.328125q-1.4375 1.140625 -3.53125 1.140625q-2.15625 0 -3.515625 -0.875q-1.34375 -0.890625 -2.0625 -2.546875q-0.703125 -1.671875 -0.703125 -3.59375q0 -2.078125 0.796875 -3.625q0.796875 -1.5625 2.265625 -2.359375q1.484375 -0.8125 3.25 -0.8125q2.0 0 3.359375 1.015625q1.375 1.015625 1.90625 2.875l-1.734375 0.40625q-0.46875 -1.453125 -1.359375 -2.109375q-0.875 -0.671875 -2.203125 -0.671875q-1.546875 0 -2.578125 0.734375q-1.03125 0.734375 -1.453125 1.984375q-0.421875 1.234375 -0.421875 2.5625q0 1.703125 0.5 2.96875q0.5 1.265625 1.546875 1.90625q1.046875 0.625 2.265625 0.625q1.484375 0 2.515625 -0.859375q1.03125 -0.859375 1.390625 -2.546875zm3.129181 -0.15625q0 -2.6875 1.484375 -3.96875q1.25 -1.078125 3.046875 -1.078125q2.0 0 3.265625 1.3125q1.265625 1.296875 1.265625 3.609375q0 1.859375 -0.5625 2.9375q-0.5625 1.0625 -1.640625 1.65625q-1.0625 0.59375 -2.328125 0.59375q-2.03125 0 -3.28125 -1.296875q-1.25 -1.3125 -1.25 -3.765625zm1.6875 0q0 1.859375 0.796875 2.796875q0.8125 0.921875 2.046875 0.921875q1.21875 0 2.03125 -0.921875q0.8125 -0.9375 0.8125 -2.84375q0 -1.796875 -0.8125 -2.71875q-0.8125 -0.921875 -2.03125 -0.921875q-1.234375 0 -2.046875 0.921875q-0.796875 0.90625 -0.796875 2.765625zm9.297607 4.84375l0 -9.671875l1.46875 0l0 1.359375q0.453125 -0.71875 1.203125 -1.140625q0.765625 -0.4375 1.71875 -0.4375q1.078125 0 1.765625 0.453125q0.6875 0.4375 0.96875 1.234375q1.15625 -1.6875 2.984375 -1.6875q1.453125 0 2.21875 0.796875q0.78125 0.796875 0.78125 2.453125l0 6.640625l-1.640625 0l0 -6.09375q0 -0.984375 -0.15625 -1.40625q-0.15625 -0.4375 -0.578125 -0.703125q-0.421875 -0.265625 -0.984375 -0.265625q-1.015625 0 -1.6875 0.6875q-0.671875 0.671875 -0.671875 2.15625l0 5.625l-1.640625 0l0 -6.28125q0 -1.09375 -0.40625 -1.640625q-0.40625 -0.546875 -1.3125 -0.546875q-0.6875 0 -1.28125 0.359375q-0.59375 0.359375 -0.859375 1.0625q-0.25 0.703125 -0.25 2.03125l0 5.015625l-1.640625 0zm17.040802 0l-1.515625 0l0 -13.359375l1.640625 0l0 4.765625q1.046875 -1.296875 2.65625 -1.296875q0.890625 0 1.6875 0.359375q0.796875 0.359375 1.3125 1.015625q0.515625 0.640625 0.796875 1.5625q0.296875 0.921875 0.296875 1.96875q0 2.484375 -1.234375 3.84375q-1.21875 1.359375 -2.953125 1.359375q-1.703125 0 -2.6875 -1.4375l0 1.21875zm-0.015625 -4.90625q0 1.734375 0.484375 2.515625q0.765625 1.265625 2.09375 1.265625q1.078125 0 1.859375 -0.9375q0.78125 -0.9375 0.78125 -2.78125q0 -1.890625 -0.75 -2.796875q-0.75 -0.90625 -1.828125 -0.90625q-1.0625 0 -1.859375 0.9375q-0.78125 0.9375 -0.78125 2.703125zm8.891327 -6.5625l0 -1.890625l1.640625 0l0 1.890625l-1.640625 0zm0 11.46875l0 -9.671875l1.640625 0l0 9.671875l-1.640625 0zm4.1448364 0l0 -9.671875l1.46875 0l0 1.375q1.0625 -1.59375 3.078125 -1.59375q0.875 0 1.609375 0.3125q0.734375 0.3125 1.09375 0.828125q0.375 0.5 0.515625 1.203125q0.09375 0.453125 0.09375 1.59375l0 5.953125l-1.640625 0l0 -5.890625q0 -1.0 -0.203125 -1.484375q-0.1875 -0.5 -0.671875 -0.796875q-0.484375 -0.296875 -1.140625 -0.296875q-1.046875 0 -1.8125 0.671875q-0.75 0.65625 -0.75 2.515625l0 5.28125l-1.640625 0zm17.000702 -3.109375l1.6875 0.203125q-0.40625 1.484375 -1.484375 2.3125q-1.078125 0.8125 -2.765625 0.8125q-2.125 0 -3.375 -1.296875q-1.234375 -1.3125 -1.234375 -3.671875q0 -2.453125 1.25 -3.796875q1.265625 -1.34375 3.265625 -1.34375q1.9375 0 3.15625 1.328125q1.234375 1.3125 1.234375 3.703125q0 0.15625 0 0.4375l-7.21875 0q0.09375 1.59375 0.90625 2.453125q0.8125 0.84375 2.015625 0.84375q0.90625 0 1.546875 -0.46875q0.640625 -0.484375 1.015625 -1.515625zm-5.390625 -2.65625l5.40625 0q-0.109375 -1.21875 -0.625 -1.828125q-0.78125 -0.953125 -2.03125 -0.953125q-1.125 0 -1.90625 0.765625q-0.765625 0.75 -0.84375 2.015625zm10.016357 2.453125l-0.5 -7.078125l0 -2.96875l2.03125 0l0 2.96875l-0.484375 7.078125l-1.046875 0zm-0.4375 3.3125l0 -1.875l1.890625 0l0 1.875l-1.890625 0z" fill-rule="nonzero"/><path fill="#fce5cd" d="m526.4407 472.09103l30.801758 -21.610718l-3.0371704 19.84085l34.964417 -3.2341309l-13.886475 10.648865l36.371216 3.0627441l-28.881775 8.711365l33.044434 10.488647l-39.416626 -1.2966614l10.824463 19.199982l-34.13684 -13.555115l-6.3970337 19.673218l-22.4682 -17.892181l-16.940155 24.833649l-6.3721924 -22.25528l-24.437836 7.4147034l7.4894104 -13.711609l-45.78055 2.421875l29.68454 -10.4774475l-30.801758 -11.774109l38.29117 -3.7185364l-35.229187 -19.829681l57.449127 14.99707l8.606628 -14.99707z" fill-rule="evenodd"/><path stroke="#b7b7b7" stroke-width="1.0" stroke-linejoin="round" stroke-linecap="butt" d="m526.4407 472.09103l30.801758 -21.610718l-3.0371704 19.84085l34.964417 -3.2341309l-13.886475 10.648865l36.371216 3.0627441l-28.881775 8.711365l33.044434 10.488647l-39.416626 -1.2966614l10.824463 19.199982l-34.13684 -13.555115l-6.3970337 19.673218l-22.4682 -17.892181l-16.940155 24.833649l-6.3721924 -22.25528l-24.437836 7.4147034l7.4894104 -13.711609l-45.78055 2.421875l29.68454 -10.4774475l-30.801758 -11.774109l38.29117 -3.7185364l-35.229187 -19.829681l57.449127 14.99707l8.606628 -14.99707z" fill-rule="evenodd"/><path fill="#000000" d="m495.32422 490.45145l1.765625 0.453125q-0.5625 2.171875 -2.0 3.328125q-1.4375 1.140625 -3.53125 1.140625q-2.15625 0 -3.515625 -0.875q-1.34375 -0.890625 -2.0625 -2.546875q-0.703125 -1.671875 -0.703125 -3.59375q0 -2.078125 0.796875 -3.625q0.796875 -1.5625 2.265625 -2.359375q1.484375 -0.8125 3.25 -0.8125q2.0 0 3.359375 1.015625q1.375 1.015625 1.90625 2.875l-1.734375 0.40625q-0.46875 -1.453125 -1.359375 -2.109375q-0.875 -0.671875 -2.203125 -0.671875q-1.546875 0 -2.578125 0.734375q-1.03125 0.734375 -1.453125 1.984375q-0.421875 1.234375 -0.421875 2.5625q0 1.703125 0.5 2.96875q0.5 1.265625 1.546875 1.90625q1.046875 0.625 2.265625 0.625q1.484375 0 2.515625 -0.859375q1.03125 -0.859375 1.390625 -2.546875zm3.129181 -0.15625q0 -2.6875 1.484375 -3.96875q1.25 -1.078125 3.046875 -1.078125q2.0 0 3.265625 1.3125q1.265625 1.296875 1.265625 3.609375q0 1.859375 -0.5625 2.9375q-0.5625 1.0625 -1.640625 1.65625q-1.0625 0.59375 -2.328125 0.59375q-2.03125 0 -3.28125 -1.296875q-1.25 -1.3125 -1.25 -3.765625zm1.6875 0q0 1.859375 0.796875 2.796875q0.8125 0.921875 2.046875 0.921875q1.21875 0 2.03125 -0.921875q0.8125 -0.9375 0.8125 -2.84375q0 -1.796875 -0.8125 -2.71875q-0.8125 -0.921875 -2.03125 -0.921875q-1.234375 0 -2.046875 0.921875q-0.796875 0.90625 -0.796875 2.765625zm9.297607 4.84375l0 -9.671875l1.46875 0l0 1.359375q0.453125 -0.71875 1.2030945 -1.140625q0.765625 -0.4375 1.71875 -0.4375q1.078125 0 1.765625 0.453125q0.6875 0.4375 0.96875 1.234375q1.15625 -1.6875 2.984375 -1.6875q1.453125 0 2.21875 0.796875q0.78125 0.796875 0.78125 2.453125l0 6.640625l-1.640625 0l0 -6.09375q0 -0.984375 -0.15625 -1.40625q-0.15625 -0.4375 -0.578125 -0.703125q-0.421875 -0.265625 -0.984375 -0.265625q-1.015625 0 -1.6875 0.6875q-0.671875 0.671875 -0.671875 2.15625l0 5.625l-1.640625 0l0 -6.28125q0 -1.09375 -0.40625 -1.640625q-0.40625 -0.546875 -1.3125 -0.546875q-0.6875 0 -1.28125 0.359375q-0.5937195 0.359375 -0.8593445 1.0625q-0.25 0.703125 -0.25 2.03125l0 5.015625l-1.640625 0zm17.040802 0l-1.515625 0l0 -13.359375l1.640625 0l0 4.765625q1.046875 -1.296875 2.65625 -1.296875q0.890625 0 1.6875 0.359375q0.796875 0.359375 1.3125 1.015625q0.515625 0.640625 0.796875 1.5625q0.296875 0.921875 0.296875 1.96875q0 2.484375 -1.234375 3.84375q-1.21875 1.359375 -2.953125 1.359375q-1.703125 0 -2.6875 -1.4375l0 1.21875zm-0.015625 -4.90625q0 1.734375 0.484375 2.515625q0.765625 1.265625 2.09375 1.265625q1.078125 0 1.859375 -0.9375q0.78125 -0.9375 0.78125 -2.78125q0 -1.890625 -0.75 -2.796875q-0.75 -0.90625 -1.828125 -0.90625q-1.0625 0 -1.859375 0.9375q-0.78125 0.9375 -0.78125 2.703125zm8.891357 -6.5625l0 -1.890625l1.640625 0l0 1.890625l-1.640625 0zm0 11.46875l0 -9.671875l1.640625 0l0 9.671875l-1.640625 0zm4.1447754 0l0 -9.671875l1.46875 0l0 1.375q1.0625 -1.59375 3.078125 -1.59375q0.875 0 1.609375 0.3125q0.734375 0.3125 1.09375 0.828125q0.375 0.5 0.515625 1.203125q0.09375 0.453125 0.09375 1.59375l0 5.953125l-1.640625 0l0 -5.890625q0 -1.0 -0.203125 -1.484375q-0.1875 -0.5 -0.671875 -0.796875q-0.484375 -0.296875 -1.140625 -0.296875q-1.046875 0 -1.8125 0.671875q-0.75 0.65625 -0.75 2.515625l0 5.28125l-1.640625 0zm17.000732 -3.109375l1.6875 0.203125q-0.40625 1.484375 -1.484375 2.3125q-1.078125 0.8125 -2.765625 0.8125q-2.125 0 -3.375 -1.296875q-1.234375 -1.3125 -1.234375 -3.671875q0 -2.453125 1.25 -3.796875q1.265625 -1.34375 3.265625 -1.34375q1.9375 0 3.15625 1.328125q1.234375 1.3125 1.234375 3.703125q0 0.15625 0 0.4375l-7.21875 0q0.09375 1.59375 0.90625 2.453125q0.8125 0.84375 2.015625 0.84375q0.90625 0 1.546875 -0.46875q0.640625 -0.484375 1.015625 -1.515625zm-5.390625 -2.65625l5.40625 0q-0.109375 -1.21875 -0.625 -1.828125q-0.78125 -0.953125 -2.03125 -0.953125q-1.125 0 -1.90625 0.765625q-0.765625 0.75 -0.84375 2.015625zm10.016357 2.453125l-0.5 -7.078125l0 -2.96875l2.03125 0l0 2.96875l-0.484375 7.078125l-1.046875 0zm-0.4375 3.3125l0 -1.875l1.890625 0l0 1.875l-1.890625 0z" fill-rule="nonzero"/><path fill="#000000" fill-opacity="0.0" d="m314.6404 163.53543l24.062988 175.9685" fill-rule="evenodd"/><path stroke="#000000" stroke-width="1.0" stroke-linejoin="round" stroke-linecap="butt" stroke-dasharray="1.0,3.0" d="m314.6404 163.53543l24.062988 175.9685" fill-rule="evenodd"/><path fill="#000000" fill-opacity="0.0" d="m451.07028 162.80315l-14.015747 175.74803" fill-rule="evenodd"/><path stroke="#000000" stroke-width="1.0" stroke-linejoin="round" stroke-linecap="butt" stroke-dasharray="1.0,3.0" d="m451.07028 162.80315l-14.015747 175.74803" fill-rule="evenodd"/><path fill="#000000" fill-opacity="0.0" d="m586.4036 162.80315l-7.811035 301.03937" fill-rule="evenodd"/><path stroke="#000000" stroke-width="1.0" stroke-linejoin="round" stroke-linecap="butt" stroke-dasharray="1.0,3.0" d="m586.4036 162.80315l-7.811035 301.03937" fill-rule="evenodd"/><path fill="#000000" fill-opacity="0.0" d="m470.8682 162.80315l9.2283325 299.1181" fill-rule="evenodd"/><path stroke="#000000" stroke-width="1.0" stroke-linejoin="round" stroke-linecap="butt" stroke-dasharray="1.0,3.0" d="m470.8682 162.80315l9.2283325 299.1181" fill-rule="evenodd"/><path fill="#cfe2f3" d="m205.6378 95.50816l0 0c0 -3.1310577 2.4606628 -5.6692886 5.496063 -5.6692886l0 0c1.4576416 0 2.8555908 0.59729767 3.8862915 1.6604996c1.030716 1.0631943 1.6097717 2.5052032 1.6097717 4.008789l0 0c0 3.1310654 -2.460678 5.6692963 -5.496063 5.6692963l0 0c-3.0354004 0 -5.496063 -2.538231 -5.496063 -5.6692963z" fill-rule="evenodd"/><path stroke="#000000" stroke-width="1.0" stroke-linejoin="round" stroke-linecap="butt" d="m205.6378 95.50816l0 0c0 -3.1310577 2.4606628 -5.6692886 5.496063 -5.6692886l0 0c1.4576416 0 2.8555908 0.59729767 3.8862915 1.6604996c1.030716 1.0631943 1.6097717 2.5052032 1.6097717 4.008789l0 0c0 3.1310654 -2.460678 5.6692963 -5.496063 5.6692963l0 0c-3.0354004 0 -5.496063 -2.538231 -5.496063 -5.6692963z" fill-rule="evenodd"/><path fill="#f4cccc" d="m231.32225 95.37533l0 0c0 -3.1310654 2.460678 -5.6692886 5.496063 -5.6692886l0 0c1.4576416 0 2.8555908 0.59729767 3.8863068 1.660492c1.030716 1.0632019 1.6097565 2.5052109 1.6097565 4.0087967l0 0c0 3.1310654 -2.4606628 5.6692886 -5.496063 5.6692886l0 0c-3.0353851 0 -5.496063 -2.5382233 -5.496063 -5.6692886z" fill-rule="evenodd"/><path stroke="#000000" stroke-width="1.0" stroke-linejoin="round" stroke-linecap="butt" d="m231.32225 95.37533l0 0c0 -3.1310654 2.460678 -5.6692886 5.496063 -5.6692886l0 0c1.4576416 0 2.8555908 0.59729767 3.8863068 1.660492c1.030716 1.0632019 1.6097565 2.5052109 1.6097565 4.0087967l0 0c0 3.1310654 -2.4606628 5.6692886 -5.496063 5.6692886l0 0c-3.0353851 0 -5.496063 -2.5382233 -5.496063 -5.6692886z" fill-rule="evenodd"/><path fill="#ffe599" d="m257.00412 95.44175l0 0c0 -3.1310654 2.4606934 -5.6692963 5.496063 -5.6692963l0 0c1.4576721 0 2.8555908 0.59729767 3.886322 1.6604996c1.0307007 1.0631943 1.6097412 2.5052032 1.6097412 4.0087967l0 0c0 3.1310577 -2.4606628 5.6692886 -5.496063 5.6692886l0 0c-3.0353699 0 -5.496063 -2.538231 -5.496063 -5.6692886z" fill-rule="evenodd"/><path stroke="#000000" stroke-width="1.0" stroke-linejoin="round" stroke-linecap="butt" d="m257.00412 95.44175l0 0c0 -3.1310654 2.4606934 -5.6692963 5.496063 -5.6692963l0 0c1.4576721 0 2.8555908 0.59729767 3.886322 1.6604996c1.0307007 1.0631943 1.6097412 2.5052032 1.6097412 4.0087967l0 0c0 3.1310577 -2.4606628 5.6692886 -5.496063 5.6692886l0 0c-3.0353699 0 -5.496063 -2.538231 -5.496063 -5.6692886z" fill-rule="evenodd"/><path fill="#e6c9af" d="m277.34662 95.44175l0 0c0 -3.1310654 2.4606628 -5.6692963 5.496063 -5.6692963l0 0c1.4576416 0 2.8555908 0.59729767 3.8862915 1.6604996c1.0307312 1.0631943 1.6097717 2.5052032 1.6097717 4.0087967l0 0c0 3.1310577 -2.4606628 5.6692886 -5.496063 5.6692886l0 0c-3.0354004 0 -5.496063 -2.538231 -5.496063 -5.6692886z" fill-rule="evenodd"/><path stroke="#000000" stroke-width="1.0" stroke-linejoin="round" stroke-linecap="butt" d="m277.34662 95.44175l0 0c0 -3.1310654 2.4606628 -5.6692963 5.496063 -5.6692963l0 0c1.4576416 0 2.8555908 0.59729767 3.8862915 1.6604996c1.0307312 1.0631943 1.6097717 2.5052032 1.6097717 4.0087967l0 0c0 3.1310577 -2.4606628 5.6692886 -5.496063 5.6692886l0 0c-3.0354004 0 -5.496063 -2.538231 -5.496063 -5.6692886z" fill-rule="evenodd"/><path fill="#b6d7a8" d="m297.68878 95.44175l0 0c0 -3.1310654 2.4606628 -5.6692963 5.496063 -5.6692963l0 0c1.4576416 0 2.8555908 0.59729767 3.8862915 1.6604996c1.0307312 1.0631943 1.6097717 2.5052032 1.6097717 4.0087967l0 0c0 3.1310577 -2.4606628 5.6692886 -5.496063 5.6692886l0 0c-3.0354004 0 -5.496063 -2.538231 -5.496063 -5.6692886z" fill-rule="evenodd"/><path stroke="#000000" stroke-width="1.0" stroke-linejoin="round" stroke-linecap="butt" d="m297.68878 95.44175l0 0c0 -3.1310654 2.4606628 -5.6692963 5.496063 -5.6692963l0 0c1.4576416 0 2.8555908 0.59729767 3.8862915 1.6604996c1.0307312 1.0631943 1.6097717 2.5052032 1.6097717 4.0087967l0 0c0 3.1310577 -2.4606628 5.6692886 -5.496063 5.6692886l0 0c-3.0354004 0 -5.496063 -2.538231 -5.496063 -5.6692886z" fill-rule="evenodd"/><path fill="#cfe2f3" d="m342.9987 95.50816l0 0c0 -3.1310577 2.4606628 -5.6692886 5.496063 -5.6692886l0 0c1.4576416 0 2.8555908 0.59729767 3.8862915 1.6604996c1.0307312 1.0631943 1.6097717 2.5052032 1.6097717 4.008789l0 0c0 3.1310654 -2.4606628 5.6692963 -5.496063 5.6692963l0 0c-3.0354004 0 -5.496063 -2.538231 -5.496063 -5.6692963z" fill-rule="evenodd"/><path stroke="#000000" stroke-width="1.0" stroke-linejoin="round" stroke-linecap="butt" d="m342.9987 95.50816l0 0c0 -3.1310577 2.4606628 -5.6692886 5.496063 -5.6692886l0 0c1.4576416 0 2.8555908 0.59729767 3.8862915 1.6604996c1.0307312 1.0631943 1.6097717 2.5052032 1.6097717 4.008789l0 0c0 3.1310654 -2.4606628 5.6692963 -5.496063 5.6692963l0 0c-3.0354004 0 -5.496063 -2.538231 -5.496063 -5.6692963z" fill-rule="evenodd"/><path fill="#f4cccc" d="m357.9758 95.37533l0 0c0 -3.1310654 2.4606628 -5.6692886 5.496063 -5.6692886l0 0c1.4576416 0 2.8555908 0.59729767 3.8862915 1.660492c1.0307312 1.0632019 1.6097717 2.5052109 1.6097717 4.0087967l0 0c0 3.1310654 -2.4606628 5.6692886 -5.496063 5.6692886l0 0c-3.0354004 0 -5.496063 -2.5382233 -5.496063 -5.6692886z" fill-rule="evenodd"/><path stroke="#000000" stroke-width="1.0" stroke-linejoin="round" stroke-linecap="butt" d="m357.9758 95.37533l0 0c0 -3.1310654 2.4606628 -5.6692886 5.496063 -5.6692886l0 0c1.4576416 0 2.8555908 0.59729767 3.8862915 1.660492c1.0307312 1.0632019 1.6097717 2.5052109 1.6097717 4.0087967l0 0c0 3.1310654 -2.4606628 5.6692886 -5.496063 5.6692886l0 0c-3.0354004 0 -5.496063 -2.5382233 -5.496063 -5.6692886z" fill-rule="evenodd"/><path fill="#ffe599" d="m394.36502 95.44175l0 0c0 -3.1310654 2.4606628 -5.6692963 5.496063 -5.6692963l0 0c1.4576416 0 2.8555908 0.59729767 3.886322 1.6604996c1.0307007 1.0631943 1.6097412 2.5052032 1.6097412 4.0087967l0 0c0 3.1310577 -2.4606628 5.6692886 -5.496063 5.6692886l0 0c-3.0354004 0 -5.496063 -2.538231 -5.496063 -5.6692886z" fill-rule="evenodd"/><path stroke="#000000" stroke-width="1.0" stroke-linejoin="round" stroke-linecap="butt" d="m394.36502 95.44175l0 0c0 -3.1310654 2.4606628 -5.6692963 5.496063 -5.6692963l0 0c1.4576416 0 2.8555908 0.59729767 3.886322 1.6604996c1.0307007 1.0631943 1.6097412 2.5052032 1.6097412 4.0087967l0 0c0 3.1310577 -2.4606628 5.6692886 -5.496063 5.6692886l0 0c-3.0354004 0 -5.496063 -2.538231 -5.496063 -5.6692886z" fill-rule="evenodd"/><path fill="#e6c9af" d="m414.70752 95.44175l0 0c0 -3.1310654 2.4606628 -5.6692963 5.496063 -5.6692963l0 0c1.4576416 0 2.8555908 0.59729767 3.8862915 1.6604996c1.0307312 1.0631943 1.6097717 2.5052032 1.6097717 4.0087967l0 0c0 3.1310577 -2.4606628 5.6692886 -5.496063 5.6692886l0 0c-3.0354004 0 -5.496063 -2.538231 -5.496063 -5.6692886z" fill-rule="evenodd"/><path stroke="#000000" stroke-width="1.0" stroke-linejoin="round" stroke-linecap="butt" d="m414.70752 95.44175l0 0c0 -3.1310654 2.4606628 -5.6692963 5.496063 -5.6692963l0 0c1.4576416 0 2.8555908 0.59729767 3.8862915 1.6604996c1.0307312 1.0631943 1.6097717 2.5052032 1.6097717 4.0087967l0 0c0 3.1310577 -2.4606628 5.6692886 -5.496063 5.6692886l0 0c-3.0354004 0 -5.496063 -2.538231 -5.496063 -5.6692886z" fill-rule="evenodd"/><path fill="#b6d7a8" d="m321.58774 95.44175l0 0c0 -3.1310654 2.4606628 -5.6692963 5.496063 -5.6692963l0 0c1.4576416 0 2.8555908 0.59729767 3.8862915 1.6604996c1.0307312 1.0631943 1.6097717 2.5052032 1.6097717 4.0087967l0 0c0 3.1310577 -2.4606934 5.6692886 -5.496063 5.6692886l0 0c-3.0354004 0 -5.496063 -2.538231 -5.496063 -5.6692886z" fill-rule="evenodd"/><path stroke="#000000" stroke-width="1.0" stroke-linejoin="round" stroke-linecap="butt" d="m321.58774 95.44175l0 0c0 -3.1310654 2.4606628 -5.6692963 5.496063 -5.6692963l0 0c1.4576416 0 2.8555908 0.59729767 3.8862915 1.6604996c1.0307312 1.0631943 1.6097717 2.5052032 1.6097717 4.0087967l0 0c0 3.1310577 -2.4606934 5.6692886 -5.496063 5.6692886l0 0c-3.0354004 0 -5.496063 -2.538231 -5.496063 -5.6692886z" fill-rule="evenodd"/><path fill="#cfe2f3" d="m547.9042 95.44124l0 0c0 -3.1310654 2.4606934 -5.6692963 5.4960938 -5.6692963l0 0c1.4576416 0 2.8555908 0.59729767 3.8862915 1.6604996c1.0307007 1.0632019 1.6097412 2.5052032 1.6097412 4.0087967l0 0c0 3.1310577 -2.4606323 5.6692886 -5.4960327 5.6692886l0 0c-3.0354004 0 -5.4960938 -2.538231 -5.4960938 -5.6692886z" fill-rule="evenodd"/><path stroke="#000000" stroke-width="1.0" stroke-linejoin="round" stroke-linecap="butt" d="m547.9042 95.44124l0 0c0 -3.1310654 2.4606934 -5.6692963 5.4960938 -5.6692963l0 0c1.4576416 0 2.8555908 0.59729767 3.8862915 1.6604996c1.0307007 1.0632019 1.6097412 2.5052032 1.6097412 4.0087967l0 0c0 3.1310577 -2.4606323 5.6692886 -5.4960327 5.6692886l0 0c-3.0354004 0 -5.4960938 -2.538231 -5.4960938 -5.6692886z" fill-rule="evenodd"/><path fill="#f4cccc" d="m570.7343 95.308395l0 0c0 -3.1310577 2.4606934 -5.6692886 5.4960938 -5.6692886l0 0c1.4576416 0 2.8555908 0.59729767 3.8862915 1.6604996c1.0307007 1.0631943 1.6097412 2.5052032 1.6097412 4.008789l0 0c0 3.1310654 -2.4606323 5.6692963 -5.4960327 5.6692963l0 0c-3.0354004 0 -5.4960938 -2.538231 -5.4960938 -5.6692963z" fill-rule="evenodd"/><path stroke="#000000" stroke-width="1.0" stroke-linejoin="round" stroke-linecap="butt" d="m570.7343 95.308395l0 0c0 -3.1310577 2.4606934 -5.6692886 5.4960938 -5.6692886l0 0c1.4576416 0 2.8555908 0.59729767 3.8862915 1.6604996c1.0307007 1.0631943 1.6097412 2.5052032 1.6097412 4.008789l0 0c0 3.1310654 -2.4606323 5.6692963 -5.4960327 5.6692963l0 0c-3.0354004 0 -5.4960938 -2.538231 -5.4960938 -5.6692963z" fill-rule="evenodd"/><path fill="#ffe599" d="m599.2705 95.37482l0 0c0 -3.1310654 2.4606934 -5.6692886 5.4960938 -5.6692886l0 0c1.4576416 0 2.8555908 0.59729767 3.8862915 1.660492c1.0307007 1.0632019 1.6097412 2.5052109 1.6097412 4.0087967l0 0c0 3.1310654 -2.4606323 5.6692886 -5.4960327 5.6692886l0 0c-3.0354004 0 -5.4960938 -2.5382233 -5.4960938 -5.6692886z" fill-rule="evenodd"/><path stroke="#000000" stroke-width="1.0" stroke-linejoin="round" stroke-linecap="butt" d="m599.2705 95.37482l0 0c0 -3.1310654 2.4606934 -5.6692886 5.4960938 -5.6692886l0 0c1.4576416 0 2.8555908 0.59729767 3.8862915 1.660492c1.0307007 1.0632019 1.6097412 2.5052109 1.6097412 4.0087967l0 0c0 3.1310654 -2.4606323 5.6692886 -5.4960327 5.6692886l0 0c-3.0354004 0 -5.4960938 -2.5382233 -5.4960938 -5.6692886z" fill-rule="evenodd"/><path fill="#e6c9af" d="m619.61304 95.37482l0 0c0 -3.1310654 2.4606323 -5.6692886 5.4960327 -5.6692886l0 0c1.4576416 0 2.8555908 0.59729767 3.8862915 1.660492c1.0307617 1.0632019 1.6098022 2.5052109 1.6098022 4.0087967l0 0c0 3.1310654 -2.4606934 5.6692886 -5.4960938 5.6692886l0 0c-3.0354004 0 -5.4960327 -2.5382233 -5.4960327 -5.6692886z" fill-rule="evenodd"/><path stroke="#000000" stroke-width="1.0" stroke-linejoin="round" stroke-linecap="butt" d="m619.61304 95.37482l0 0c0 -3.1310654 2.4606323 -5.6692886 5.4960327 -5.6692886l0 0c1.4576416 0 2.8555908 0.59729767 3.8862915 1.660492c1.0307617 1.0632019 1.6098022 2.5052109 1.6098022 4.0087967l0 0c0 3.1310654 -2.4606934 5.6692886 -5.4960938 5.6692886l0 0c-3.0354004 0 -5.4960327 -2.5382233 -5.4960327 -5.6692886z" fill-rule="evenodd"/><path fill="#b6d7a8" d="m639.9552 95.37482l0 0c0 -3.1310654 2.4606323 -5.6692886 5.4960327 -5.6692886l0 0c1.4576416 0 2.8555908 0.59729767 3.8862915 1.660492c1.0307617 1.0632019 1.6098022 2.5052109 1.6098022 4.0087967l0 0c0 3.1310654 -2.4606934 5.6692886 -5.4960938 5.6692886l0 0c-3.0354004 0 -5.4960327 -2.5382233 -5.4960327 -5.6692886z" fill-rule="evenodd"/><path stroke="#000000" stroke-width="1.0" stroke-linejoin="round" stroke-linecap="butt" d="m639.9552 95.37482l0 0c0 -3.1310654 2.4606323 -5.6692886 5.4960327 -5.6692886l0 0c1.4576416 0 2.8555908 0.59729767 3.8862915 1.660492c1.0307617 1.0632019 1.6098022 2.5052109 1.6098022 4.0087967l0 0c0 3.1310654 -2.4606934 5.6692886 -5.4960938 5.6692886l0 0c-3.0354004 0 -5.4960327 -2.5382233 -5.4960327 -5.6692886z" fill-rule="evenodd"/><path fill="#cfe2f3" d="m445.72833 95.50816l0 0c0 -3.1310577 2.4606934 -5.6692886 5.496063 -5.6692886l0 0c1.4576721 0 2.8555908 0.59729767 3.886322 1.6604996c1.0307007 1.0631943 1.6097412 2.5052032 1.6097412 4.008789l0 0c0 3.1310654 -2.4606628 5.6692963 -5.496063 5.6692963l0 0c-3.0353699 0 -5.496063 -2.538231 -5.496063 -5.6692963z" fill-rule="evenodd"/><path stroke="#000000" stroke-width="1.0" stroke-linejoin="round" stroke-linecap="butt" d="m445.72833 95.50816l0 0c0 -3.1310577 2.4606934 -5.6692886 5.496063 -5.6692886l0 0c1.4576721 0 2.8555908 0.59729767 3.886322 1.6604996c1.0307007 1.0631943 1.6097412 2.5052032 1.6097412 4.008789l0 0c0 3.1310654 -2.4606628 5.6692963 -5.496063 5.6692963l0 0c-3.0353699 0 -5.496063 -2.538231 -5.496063 -5.6692963z" fill-rule="evenodd"/><path fill="#f4cccc" d="m468.55847 95.37533l0 0c0 -3.1310654 2.4606628 -5.6692886 5.496063 -5.6692886l0 0c1.4576416 0 2.8555908 0.59729767 3.8862915 1.660492c1.0307312 1.0632019 1.6097717 2.5052109 1.6097717 4.0087967l0 0c0 3.1310654 -2.4606628 5.6692886 -5.496063 5.6692886l0 0c-3.0354004 0 -5.496063 -2.5382233 -5.496063 -5.6692886z" fill-rule="evenodd"/><path stroke="#000000" stroke-width="1.0" stroke-linejoin="round" stroke-linecap="butt" d="m468.55847 95.37533l0 0c0 -3.1310654 2.4606628 -5.6692886 5.496063 -5.6692886l0 0c1.4576416 0 2.8555908 0.59729767 3.8862915 1.660492c1.0307312 1.0632019 1.6097717 2.5052109 1.6097717 4.0087967l0 0c0 3.1310654 -2.4606628 5.6692886 -5.496063 5.6692886l0 0c-3.0354004 0 -5.496063 -2.5382233 -5.496063 -5.6692886z" fill-rule="evenodd"/><path fill="#ffe599" d="m497.0947 95.44175l0 0c0 -3.1310654 2.4606628 -5.6692963 5.496063 -5.6692963l0 0c1.4576416 0 2.8555908 0.59729767 3.8862915 1.6604996c1.0307007 1.0631943 1.6097717 2.5052032 1.6097717 4.0087967l0 0c0 3.1310577 -2.4606934 5.6692886 -5.496063 5.6692886l0 0c-3.0354004 0 -5.496063 -2.538231 -5.496063 -5.6692886z" fill-rule="evenodd"/><path stroke="#000000" stroke-width="1.0" stroke-linejoin="round" stroke-linecap="butt" d="m497.0947 95.44175l0 0c0 -3.1310654 2.4606628 -5.6692963 5.496063 -5.6692963l0 0c1.4576416 0 2.8555908 0.59729767 3.8862915 1.6604996c1.0307007 1.0631943 1.6097717 2.5052032 1.6097717 4.0087967l0 0c0 3.1310577 -2.4606934 5.6692886 -5.496063 5.6692886l0 0c-3.0354004 0 -5.496063 -2.538231 -5.496063 -5.6692886z" fill-rule="evenodd"/><path fill="#e6c9af" d="m525.6288 95.37482l0 0c0 -3.1310654 2.4606323 -5.6692886 5.4960327 -5.6692886l0 0c1.4576416 0 2.8555908 0.59729767 3.8863525 1.660492c1.0307007 1.0632019 1.6097412 2.5052109 1.6097412 4.0087967l0 0c0 3.1310654 -2.4606934 5.6692886 -5.4960938 5.6692886l0 0c-3.0354004 0 -5.4960327 -2.5382233 -5.4960327 -5.6692886z" fill-rule="evenodd"/><path stroke="#000000" stroke-width="1.0" stroke-linejoin="round" stroke-linecap="butt" d="m525.6288 95.37482l0 0c0 -3.1310654 2.4606323 -5.6692886 5.4960327 -5.6692886l0 0c1.4576416 0 2.8555908 0.59729767 3.8863525 1.660492c1.0307007 1.0632019 1.6097412 2.5052109 1.6097412 4.0087967l0 0c0 3.1310654 -2.4606934 5.6692886 -5.4960938 5.6692886l0 0c-3.0354004 0 -5.4960327 -2.5382233 -5.4960327 -5.6692886z" fill-rule="evenodd"/><path fill="#000000" fill-opacity="0.0" d="m691.2887 114.879265l87.18109 0l0 38.20472l-87.18109 0z" fill-rule="evenodd"/><path fill="#000000" d="m707.77203 141.79927l0 -13.359375l9.015625 0l0 1.578125l-7.25 0l0 4.140625l6.265625 0l0 1.578125l-6.265625 0l0 6.0625l-1.765625 0zm11.083496 0l0 -9.671875l1.46875 0l0 1.46875q0.5625 -1.03125 1.03125 -1.359375q0.484375 -0.328125 1.0625 -0.328125q0.828125 0 1.6875 0.53125l-0.5625 1.515625q-0.609375 -0.359375 -1.203125 -0.359375q-0.546875 0 -0.96875 0.328125q-0.421875 0.328125 -0.609375 0.890625q-0.28125 0.875 -0.28125 1.921875l0 5.0625l-1.625 0zm12.5407715 -1.1875q-0.921875 0.765625 -1.765625 1.09375q-0.828125 0.3125 -1.796875 0.3125q-1.59375 0 -2.453125 -0.78125q-0.859375 -0.78125 -0.859375 -1.984375q0 -0.71875 0.328125 -1.296875q0.328125 -0.59375 0.84375 -0.9375q0.53125 -0.359375 1.1875 -0.546875q0.46875 -0.125 1.453125 -0.25q1.984375 -0.234375 2.921875 -0.5625q0.015625 -0.34375 0.015625 -0.421875q0 -1.0 -0.46875 -1.421875q-0.625 -0.546875 -1.875 -0.546875q-1.15625 0 -1.703125 0.40625q-0.546875 0.40625 -0.8125 1.421875l-1.609375 -0.21875q0.21875 -1.015625 0.71875 -1.640625q0.5 -0.640625 1.453125 -0.984375q0.953125 -0.34375 2.1875 -0.34375q1.25 0 2.015625 0.296875q0.78125 0.28125 1.140625 0.734375q0.375 0.4375 0.515625 1.109375q0.078125 0.421875 0.078125 1.515625l0 2.1875q0 2.28125 0.109375 2.890625q0.109375 0.59375 0.40625 1.15625l-1.703125 0q-0.265625 -0.515625 -0.328125 -1.1875zm-0.140625 -3.671875q-0.890625 0.375 -2.671875 0.625q-1.015625 0.140625 -1.4375 0.328125q-0.421875 0.1875 -0.65625 0.53125q-0.21875 0.34375 -0.21875 0.78125q0 0.65625 0.5 1.09375q0.5 0.4375 1.453125 0.4375q0.9375 0 1.671875 -0.40625q0.75 -0.421875 1.09375 -1.140625q0.265625 -0.5625 0.265625 -1.640625l0 -0.609375zm4.2038574 4.859375l0 -9.671875l1.46875 0l0 1.359375q0.453125 -0.71875 1.203125 -1.140625q0.765625 -0.4375 1.71875 -0.4375q1.078125 0 1.765625 0.453125q0.6875 0.4375 0.96875 1.234375q1.15625 -1.6875 2.984375 -1.6875q1.453125 0 2.21875 0.796875q0.78125 0.796875 0.78125 2.453125l0 6.640625l-1.640625 0l0 -6.09375q0 -0.984375 -0.15625 -1.40625q-0.15625 -0.4375 -0.578125 -0.703125q-0.421875 -0.265625 -0.984375 -0.265625q-1.015625 0 -1.6875 0.6875q-0.671875 0.671875 -0.671875 2.15625l0 5.625l-1.640625 0l0 -6.28125q0 -1.09375 -0.40625 -1.640625q-0.40625 -0.546875 -1.3125 -0.546875q-0.6875 0 -1.28125 0.359375q-0.59375 0.359375 -0.859375 1.0625q-0.25 0.703125 -0.25 2.03125l0 5.015625l-1.640625 0zm22.165833 -3.109375l1.6875 0.203125q-0.40625 1.484375 -1.484375 2.3125q-1.078125 0.8125 -2.765625 0.8125q-2.125 0 -3.375 -1.296875q-1.234375 -1.3125 -1.234375 -3.671875q0 -2.453125 1.25 -3.796875q1.265625 -1.34375 3.265625 -1.34375q1.9375 0 3.15625 1.328125q1.234375 1.3125 1.234375 3.703125q0 0.15625 0 0.4375l-7.21875 0q0.09375 1.59375 0.90625 2.453125q0.8125 0.84375 2.015625 0.84375q0.90625 0 1.546875 -0.46875q0.640625 -0.484375 1.015625 -1.515625zm-5.390625 -2.65625l5.40625 0q-0.109375 -1.21875 -0.625 -1.828125q-0.78125 -0.953125 -2.03125 -0.953125q-1.125 0 -1.90625 0.765625q-0.765625 0.75 -0.84375 2.015625zm8.485046 2.875l1.625 -0.25q0.125 0.96875 0.75 1.5q0.625 0.515625 1.75 0.515625q1.125 0 1.671875 -0.453125q0.546875 -0.46875 0.546875 -1.09375q0 -0.546875 -0.484375 -0.875q-0.328125 -0.21875 -1.671875 -0.546875q-1.8125 -0.46875 -2.515625 -0.796875q-0.6875 -0.328125 -1.046875 -0.90625q-0.359375 -0.59375 -0.359375 -1.3125q0 -0.640625 0.296875 -1.1875q0.296875 -0.5625 0.8125 -0.921875q0.375 -0.28125 1.03125 -0.46875q0.671875 -0.203125 1.421875 -0.203125q1.140625 0 2.0 0.328125q0.859375 0.328125 1.265625 0.890625q0.421875 0.5625 0.578125 1.5l-1.609375 0.21875q-0.109375 -0.75 -0.640625 -1.171875q-0.515625 -0.421875 -1.46875 -0.421875q-1.140625 0 -1.625 0.375q-0.46875 0.375 -0.46875 0.875q0 0.3125 0.1875 0.578125q0.203125 0.265625 0.640625 0.4375q0.234375 0.09375 1.4375 0.421875q1.75 0.453125 2.4375 0.75q0.6875 0.296875 1.078125 0.859375q0.390625 0.5625 0.390625 1.40625q0 0.828125 -0.484375 1.546875q-0.46875 0.71875 -1.375 1.125q-0.90625 0.390625 -2.046875 0.390625q-1.875 0 -2.875 -0.78125q-0.984375 -0.78125 -1.25 -2.328125z" fill-rule="nonzero"/><path fill="#000000" fill-opacity="0.0" d="m678.4383 309.8084l100.031494 0l0 38.204712l-100.031494 0z" fill-rule="evenodd"/><path fill="#000000" d="m697.5537 336.7284l-3.53125 -13.359375l1.8125 0l2.03125 8.765625q0.328125 1.375 0.5625 2.71875q0.5 -2.140625 0.59375 -2.46875l2.546875 -9.015625l2.125 0l1.921875 6.765625q0.71875 2.515625 1.03125 4.71875q0.265625 -1.265625 0.671875 -2.890625l2.09375 -8.59375l1.78125 0l-3.671875 13.359375l-1.703125 0l-2.8125 -10.171875q-0.359375 -1.28125 -0.421875 -1.5625q-0.203125 0.90625 -0.390625 1.5625l-2.828125 10.171875l-1.8125 0zm15.077454 -11.46875l0 -1.890625l1.640625 0l0 1.890625l-1.640625 0zm0 11.46875l0 -9.671875l1.640625 0l0 9.671875l-1.640625 0zm4.1447754 0l0 -9.671875l1.46875 0l0 1.375q1.0625 -1.59375 3.078125 -1.59375q0.875 0 1.609375 0.3125q0.734375 0.3125 1.09375 0.828125q0.375 0.5 0.515625 1.203125q0.09375 0.453125 0.09375 1.59375l0 5.953125l-1.640625 0l0 -5.890625q0 -1.0 -0.203125 -1.484375q-0.1875 -0.5 -0.671875 -0.796875q-0.484375 -0.296875 -1.140625 -0.296875q-1.046875 0 -1.8125 0.671875q-0.75 0.65625 -0.75 2.515625l0 5.28125l-1.640625 0zm16.641357 0l0 -1.21875q-0.90625 1.4375 -2.703125 1.4375q-1.15625 0 -2.125 -0.640625q-0.96875 -0.640625 -1.5 -1.78125q-0.53125 -1.140625 -0.53125 -2.625q0 -1.453125 0.484375 -2.625q0.484375 -1.1875 1.4375 -1.8125q0.96875 -0.625 2.171875 -0.625q0.875 0 1.546875 0.375q0.6875 0.359375 1.109375 0.953125l0 -4.796875l1.640625 0l0 13.359375l-1.53125 0zm-5.171875 -4.828125q0 1.859375 0.78125 2.78125q0.78125 0.921875 1.84375 0.921875q1.078125 0 1.828125 -0.875q0.75 -0.890625 0.75 -2.6875q0 -1.984375 -0.765625 -2.90625q-0.765625 -0.9375 -1.890625 -0.9375q-1.078125 0 -1.8125 0.890625q-0.734375 0.890625 -0.734375 2.8125zm8.672607 -0.015625q0 -2.6875 1.484375 -3.96875q1.25 -1.078125 3.046875 -1.078125q2.0 0 3.265625 1.3125q1.265625 1.296875 1.265625 3.609375q0 1.859375 -0.5625 2.9375q-0.5625 1.0625 -1.640625 1.65625q-1.0625 0.59375 -2.328125 0.59375q-2.03125 0 -3.28125 -1.296875q-1.25 -1.3125 -1.25 -3.765625zm1.6875 0q0 1.859375 0.796875 2.796875q0.8125 0.921875 2.046875 0.921875q1.21875 0 2.03125 -0.921875q0.8125 -0.9375 0.8125 -2.84375q0 -1.796875 -0.8125 -2.71875q-0.8125 -0.921875 -2.03125 -0.921875q-1.234375 0 -2.046875 0.921875q-0.796875 0.90625 -0.796875 2.765625zm11.078857 4.84375l-2.96875 -9.671875l1.703125 0l1.53125 5.578125l0.578125 2.078125q0.046875 -0.15625 0.5 -2.0l1.546875 -5.65625l1.6875 0l1.4375 5.609375l0.484375 1.84375l0.5625 -1.859375l1.65625 -5.59375l1.59375 0l-3.03125 9.671875l-1.703125 0l-1.53125 -5.796875l-0.375 -1.640625l-1.953125 7.4375l-1.71875 0zm11.0354 -2.890625l1.625 -0.25q0.125 0.96875 0.75 1.5q0.625 0.515625 1.75 0.515625q1.125 0 1.671875 -0.453125q0.546875 -0.46875 0.546875 -1.09375q0 -0.546875 -0.484375 -0.875q-0.328125 -0.21875 -1.671875 -0.546875q-1.8125 -0.46875 -2.515625 -0.796875q-0.6875 -0.328125 -1.046875 -0.90625q-0.359375 -0.59375 -0.359375 -1.3125q0 -0.640625 0.296875 -1.1875q0.296875 -0.5625 0.8125 -0.921875q0.375 -0.28125 1.03125 -0.46875q0.671875 -0.203125 1.421875 -0.203125q1.140625 0 2.0 0.328125q0.859375 0.328125 1.265625 0.890625q0.421875 0.5625 0.578125 1.5l-1.609375 0.21875q-0.109375 -0.75 -0.640625 -1.171875q-0.515625 -0.421875 -1.46875 -0.421875q-1.140625 0 -1.625 0.375q-0.46875 0.375 -0.46875 0.875q0 0.3125 0.1875 0.578125q0.203125 0.265625 0.640625 0.4375q0.234375 0.09375 1.4375 0.421875q1.75 0.453125 2.4375 0.75q0.6875 0.296875 1.078125 0.859375q0.390625 0.5625 0.390625 1.40625q0 0.828125 -0.484375 1.546875q-0.46875 0.71875 -1.375 1.125q-0.90625 0.390625 -2.046875 0.390625q-1.875 0 -2.875 -0.78125q-0.984375 -0.78125 -1.25 -2.328125z" fill-rule="nonzero"/></g></svg>