<svg version="1.1" viewBox="0.0 0.0 670.0 360.0" fill="none" stroke="none" stroke-linecap="square" stroke-miterlimit="10" xmlns:xlink="http://www.w3.org/1999/xlink" xmlns="http://www.w3.org/2000/svg"><clipPath id="p.0"><path d="m0 0l670.0 0l0 360.0l-670.0 0l0 -360.0z" clip-rule="nonzero"/></clipPath><g clip-path="url(#p.0)"><path fill="#000000" fill-opacity="0.0" d="m0 0l670.0 0l0 360.0l-670.0 0z" fill-rule="evenodd"/><path fill="#d8eeff" d="m84.220474 28.987085l0 0c0 -5.76359 4.67231 -10.435904 10.435905 -10.435904l109.301414 0c2.7677765 0 5.4221954 1.099493 7.379303 3.0566044c1.9571075 1.9571114 3.05661 4.6115246 3.05661 7.379299l0 41.742363c0 5.7635956 -4.6723175 10.435905 -10.435913 10.435905l-109.301414 0c-5.7635956 0 -10.435905 -4.67231 -10.435905 -10.435905z" fill-rule="evenodd"/><path stroke="#595959" stroke-width="1.0" stroke-linejoin="round" stroke-linecap="butt" d="m84.220474 28.987085l0 0c0 -5.76359 4.67231 -10.435904 10.435905 -10.435904l109.301414 0c2.7677765 0 5.4221954 1.099493 7.379303 3.0566044c1.9571075 1.9571114 3.05661 4.6115246 3.05661 7.379299l0 41.742363c0 5.7635956 -4.6723175 10.435905 -10.435913 10.435905l-109.301414 0c-5.7635956 0 -10.435905 -4.67231 -10.435905 -10.435905z" fill-rule="evenodd"/><path fill="#000000" d="m119.7649 55.99827l0 -12.40625l2.46875 0l2.9375 8.78125q0.40625 1.234375 0.59375 1.84375q0.21875 -0.6875 0.65625 -2.0l2.9843826 -8.625l2.203125 0l0 12.40625l-1.578125 0l0 -10.375l-3.6093826 10.375l-1.484375 0l-3.578125 -10.5625l0 10.5625l-1.59375 0zm13.731346 -4.5q0 -2.484375 1.390625 -3.6875q1.15625 -1.0 2.8125 -1.0q1.859375 0 3.03125 1.21875q1.1875 1.203125 1.1875 3.34375q0 1.734375 -0.53125 2.734375q-0.515625 1.0 -1.515625 1.546875q-0.984375 0.546875 -2.171875 0.546875q-1.875 0 -3.046875 -1.203125q-1.15625 -1.21875 -1.15625 -3.5zm1.5625 0q0 1.734375 0.75 2.59375q0.75 0.859375 1.890625 0.859375q1.140625 0 1.890625 -0.859375q0.75 -0.875 0.75 -2.640625q0 -1.65625 -0.75 -2.515625q-0.75 -0.859375 -1.890625 -0.859375q-1.140625 0 -1.890625 0.859375q-0.75 0.84375 -0.75 2.5625zm8.637085 4.5l0 -8.984375l1.375 0l0 1.28125q0.984375 -1.484375 2.859375 -1.484375q0.8125 0 1.484375 0.296875q0.6875 0.28125 1.015625 0.765625q0.34375 0.46875 0.484375 1.125q0.078125 0.421875 0.078125 1.46875l0 5.53125l-1.515625 0l0 -5.46875q0 -0.921875 -0.1875 -1.375q-0.171875 -0.46875 -0.625 -0.75q-0.453125 -0.28125 -1.0625 -0.28125q-0.96875 0 -1.671875 0.625q-0.703125 0.609375 -0.703125 2.34375l0 4.90625l-1.53125 0zm15.465195 0l0 -1.140625q-0.84375 1.34375 -2.515625 1.34375q-1.0625 0 -1.96875 -0.59375q-0.90625 -0.59375 -1.40625 -1.65625q-0.484375 -1.0625 -0.484375 -2.4375q0 -1.34375 0.4375 -2.4375q0.453125 -1.09375 1.34375 -1.671875q0.90625 -0.59375 2.015625 -0.59375q0.8125 0 1.4375 0.34375q0.640625 0.34375 1.046875 0.890625l0 -4.453125l1.515625 0l0 12.40625l-1.421875 0zm-4.8125 -4.484375q0 1.71875 0.71875 2.578125q0.734375 0.859375 1.734375 0.859375q0.984375 0 1.6875 -0.8125q0.703125 -0.828125 0.703125 -2.5q0 -1.84375 -0.71875 -2.703125q-0.703125 -0.859375 -1.75 -0.859375q-1.015625 0 -1.703125 0.828125q-0.671875 0.828125 -0.671875 2.609375zm14.480835 3.375q-0.84375 0.71875 -1.625 1.015625q-0.78125 0.296875 -1.671875 0.296875q-1.484375 0 -2.28125 -0.71875q-0.796875 -0.734375 -0.796875 -1.859375q0 -0.65625 0.296875 -1.203125q0.3125 -0.546875 0.796875 -0.875q0.484375 -0.328125 1.09375 -0.5q0.4375 -0.109375 1.34375 -0.21875q1.84375 -0.21875 2.71875 -0.53125q0.015625 -0.3125 0.015625 -0.390625q0 -0.9375 -0.4375 -1.3125q-0.578125 -0.515625 -1.734375 -0.515625q-1.078125 0 -1.59375 0.375q-0.5 0.375 -0.75 1.328125l-1.484375 -0.203125q0.203125 -0.953125 0.65625 -1.53125q0.46875 -0.59375 1.34375 -0.90625q0.890625 -0.328125 2.046875 -0.328125q1.15625 0 1.875 0.28125q0.71875 0.265625 1.046875 0.671875q0.34375 0.40625 0.484375 1.03125q0.078125 0.390625 0.078125 1.40625l0 2.03125q0 2.125 0.09375 2.6875q0.09375 0.5625 0.390625 1.078125l-1.59375 0q-0.234375 -0.46875 -0.3125 -1.109375zm-0.125 -3.40625q-0.828125 0.34375 -2.484375 0.578125q-0.9375 0.140625 -1.328125 0.3125q-0.390625 0.171875 -0.609375 0.5q-0.203125 0.3125 -0.203125 0.71875q0 0.609375 0.453125 1.015625q0.46875 0.40625 1.359375 0.40625q0.875 0 1.5625 -0.390625q0.6875 -0.390625 1.015625 -1.046875q0.234375 -0.515625 0.234375 -1.53125l0 -0.5625zm3.84021 7.96875l-0.171875 -1.421875q0.5 0.140625 0.875 0.140625q0.5 0 0.796875 -0.171875q0.3125 -0.171875 0.515625 -0.484375q0.140625 -0.21875 0.453125 -1.125q0.046875 -0.125 0.140625 -0.375l-3.40625 -9.0l1.640625 0l1.875 5.203125q0.359375 0.984375 0.640625 2.078125q0.265625 -1.046875 0.625 -2.046875l1.921875 -5.234375l1.53125 0l-3.421875 9.140625q-0.546875 1.484375 -0.859375 2.03125q-0.40625 0.75 -0.9375 1.09375q-0.515625 0.359375 -1.234375 0.359375q-0.453125 0 -0.984375 -0.1875z" fill-rule="nonzero"/><path fill="#d8eeff" d="m269.9134 28.987085l0 0c0 -5.76359 4.6723022 -10.435904 10.435913 -10.435904l109.30139 0c2.7677917 0 5.4222107 1.099493 7.379303 3.0566044c1.9571228 1.9571114 3.05661 4.6115246 3.05661 7.379299l0 41.742363c0 5.7635956 -4.6723022 10.435905 -10.435913 10.435905l-109.30139 0c-5.763611 0 -10.435913 -4.67231 -10.435913 -10.435905z" fill-rule="evenodd"/><path stroke="#595959" stroke-width="1.0" stroke-linejoin="round" stroke-linecap="butt" d="m269.9134 28.987085l0 0c0 -5.76359 4.6723022 -10.435904 10.435913 -10.435904l109.30139 0c2.7677917 0 5.4222107 1.099493 7.379303 3.0566044c1.9571228 1.9571114 3.05661 4.6115246 3.05661 7.379299l0 41.742363c0 5.7635956 -4.6723022 10.435905 -10.435913 10.435905l-109.30139 0c-5.763611 0 -10.435913 -4.67231 -10.435913 -10.435905z" fill-rule="evenodd"/><path fill="#000000" d="m306.59103 55.99827l0 -10.9375l-4.09375 0l0 -1.46875l9.828125 0l0 1.46875l-4.09375 0l0 10.9375l-1.640625 0zm12.472717 0l0 -1.3125q-1.046875 1.515625 -2.84375 1.515625q-0.796875 0 -1.5 -0.296875q-0.6875 -0.3125 -1.015625 -0.765625q-0.328125 -0.46875 -0.46875 -1.140625q-0.09375 -0.4375 -0.09375 -1.421875l0 -5.5625l1.515625 0l0 4.984375q0 1.1875 0.09375 1.609375q0.15625 0.59375 0.609375 0.9375q0.46875 0.34375 1.15625 0.34375q0.6875 0 1.28125 -0.34375q0.609375 -0.359375 0.859375 -0.953125q0.25 -0.609375 0.25 -1.765625l0 -4.8125l1.515625 0l0 8.984375l-1.359375 0zm9.90271 -2.890625l1.5625 0.1875q-0.359375 1.390625 -1.375 2.15625q-1.0 0.75 -2.5625 0.75q-1.984375 0 -3.140625 -1.203125q-1.140625 -1.21875 -1.140625 -3.421875q0 -2.265625 1.15625 -3.515625q1.171875 -1.25 3.03125 -1.25q1.8125 0 2.953125 1.234375q1.140625 1.21875 1.140625 3.4375q0 0.140625 -0.015625 0.40625l-6.703125 0q0.09375 1.484375 0.84375 2.28125q0.75 0.78125 1.875 0.78125q0.84375 0 1.4375 -0.4375q0.59375 -0.4375 0.9375 -1.40625zm-5.0 -2.46875l5.015625 0q-0.109375 -1.125 -0.578125 -1.703125q-0.734375 -0.875 -1.890625 -0.875q-1.046875 0 -1.765625 0.703125q-0.703125 0.703125 -0.78125 1.875zm7.87146 2.671875l1.515625 -0.234375q0.125 0.90625 0.703125 1.390625q0.578125 0.484375 1.609375 0.484375q1.0625 0 1.5625 -0.421875q0.515625 -0.4375 0.515625 -1.015625q0 -0.515625 -0.453125 -0.8125q-0.3125 -0.203125 -1.5625 -0.515625q-1.671875 -0.421875 -2.328125 -0.71875q-0.640625 -0.3125 -0.984375 -0.859375q-0.328125 -0.546875 -0.328125 -1.203125q0 -0.609375 0.28125 -1.109375q0.28125 -0.515625 0.75 -0.859375q0.359375 -0.265625 0.96875 -0.4375q0.609375 -0.1875 1.3125 -0.1875q1.0625 0 1.859375 0.3125q0.796875 0.296875 1.171875 0.828125q0.390625 0.515625 0.53125 1.375l-1.484375 0.203125q-0.109375 -0.6875 -0.59375 -1.078125q-0.484375 -0.390625 -1.375 -0.390625q-1.046875 0 -1.5 0.34375q-0.4375 0.34375 -0.4375 0.8125q0 0.296875 0.171875 0.53125q0.1875 0.25 0.59375 0.40625q0.21875 0.09375 1.34375 0.390625q1.609375 0.4375 2.25 0.71875q0.640625 0.265625 1.0 0.796875q0.375 0.515625 0.375 1.296875q0 0.765625 -0.453125 1.4375q-0.4375 0.671875 -1.28125 1.046875q-0.828125 0.359375 -1.890625 0.359375q-1.75 0 -2.671875 -0.71875q-0.921875 -0.734375 -1.171875 -2.171875zm15.1015625 2.6875l0 -1.140625q-0.84375 1.34375 -2.515625 1.34375q-1.0625 0 -1.96875 -0.59375q-0.90625 -0.59375 -1.40625 -1.65625q-0.484375 -1.0625 -0.484375 -2.4375q0 -1.34375 0.4375 -2.4375q0.453125 -1.09375 1.34375 -1.671875q0.90625 -0.59375 2.015625 -0.59375q0.8125 0 1.4375 0.34375q0.640625 0.34375 1.046875 0.890625l0 -4.453125l1.515625 0l0 12.40625l-1.421875 0zm-4.8125 -4.484375q0 1.71875 0.71875 2.578125q0.734375 0.859375 1.734375 0.859375q0.984375 0 1.6875 -0.8125q0.703125 -0.828125 0.703125 -2.5q0 -1.84375 -0.71875 -2.703125q-0.703125 -0.859375 -1.75 -0.859375q-1.015625 0 -1.703125 0.828125q-0.671875 0.828125 -0.671875 2.609375zm14.480835 3.375q-0.84375 0.71875 -1.625 1.015625q-0.78125 0.296875 -1.671875 0.296875q-1.484375 0 -2.28125 -0.71875q-0.796875 -0.734375 -0.796875 -1.859375q0 -0.65625 0.296875 -1.203125q0.3125 -0.546875 0.796875 -0.875q0.484375 -0.328125 1.09375 -0.5q0.4375 -0.109375 1.34375 -0.21875q1.84375 -0.21875 2.71875 -0.53125q0.015625 -0.3125 0.015625 -0.390625q0 -0.9375 -0.4375 -1.3125q-0.578125 -0.515625 -1.734375 -0.515625q-1.078125 0 -1.59375 0.375q-0.5 0.375 -0.75 1.328125l-1.484375 -0.203125q0.203125 -0.953125 0.65625 -1.53125q0.46875 -0.59375 1.34375 -0.90625q0.890625 -0.328125 2.046875 -0.328125q1.15625 0 1.875 0.28125q0.71875 0.265625 1.046875 0.671875q0.34375 0.40625 0.484375 1.03125q0.078125 0.390625 0.078125 1.40625l0 2.03125q0 2.125 0.09375 2.6875q0.09375 0.5625 0.390625 1.078125l-1.59375 0q-0.234375 -0.46875 -0.3125 -1.109375zm-0.125 -3.40625q-0.828125 0.34375 -2.484375 0.578125q-0.9375 0.140625 -1.328125 0.3125q-0.390625 0.171875 -0.609375 0.5q-0.203125 0.3125 -0.203125 0.71875q0 0.609375 0.453125 1.015625q0.46875 0.40625 1.359375 0.40625q0.875 0 1.5625 -0.390625q0.6875 -0.390625 1.015625 -1.046875q0.234375 -0.515625 0.234375 -1.53125l0 -0.5625zm3.84021 7.96875l-0.171875 -1.421875q0.5 0.140625 0.875 0.140625q0.5 0 0.796875 -0.171875q0.3125 -0.171875 0.515625 -0.484375q0.140625 -0.21875 0.453125 -1.125q0.046875 -0.125 0.140625 -0.375l-3.40625 -9.0l1.640625 0l1.875 5.203125q0.359375 0.984375 0.640625 2.078125q0.265625 -1.046875 0.625 -2.046875l1.921875 -5.234375l1.53125 0l-3.421875 9.140625q-0.546875 1.484375 -0.859375 2.03125q-0.40625 0.75 -0.9375 1.09375q-0.515625 0.359375 -1.234375 0.359375q-0.453125 0 -0.984375 -0.1875z" fill-rule="nonzero"/><path fill="#d8eeff" d="m455.6063 28.987085l0 0c0 -5.76359 4.672333 -10.435904 10.435913 -10.435904l109.30142 0c2.7677612 0 5.42218 1.099493 7.3792725 3.0566044c1.9571533 1.9571114 3.0566406 4.6115246 3.0566406 7.379299l0 41.742363c0 5.7635956 -4.6723022 10.435905 -10.435913 10.435905l-109.30142 0c-5.7635803 0 -10.435913 -4.67231 -10.435913 -10.435905z" fill-rule="evenodd"/><path stroke="#595959" stroke-width="1.0" stroke-linejoin="round" stroke-linecap="butt" d="m455.6063 28.987085l0 0c0 -5.76359 4.672333 -10.435904 10.435913 -10.435904l109.30142 0c2.7677612 0 5.42218 1.099493 7.3792725 3.0566044c1.9571533 1.9571114 3.0566406 4.6115246 3.0566406 7.379299l0 41.742363c0 5.7635956 -4.6723022 10.435905 -10.435913 10.435905l-109.30142 0c-5.7635803 0 -10.435913 -4.67231 -10.435913 -10.435905z" fill-rule="evenodd"/><path fill="#000000" d="m478.59662 55.99827l-3.28125 -12.40625l1.671875 0l1.890625 8.140625q0.3125 1.265625 0.53125 2.53125q0.46875 -1.984375 0.546875 -2.296875l2.359375 -8.375l1.984375 0l1.78125 6.28125q0.671875 2.328125 0.96875 4.390625q0.234375 -1.171875 0.609375 -2.703125l1.953125 -7.96875l1.640625 0l-3.390625 12.40625l-1.59375 0l-2.609375 -9.453125q-0.328125 -1.1875 -0.390625 -1.453125q-0.1875 0.859375 -0.359375 1.453125l-2.640625 9.453125l-1.671875 0zm19.838837 -2.890625l1.5625 0.1875q-0.359375 1.390625 -1.375 2.15625q-1.0 0.75 -2.5625 0.75q-1.984375 0 -3.140625 -1.203125q-1.140625 -1.21875 -1.140625 -3.421875q0 -2.265625 1.15625 -3.515625q1.171875 -1.25 3.03125 -1.25q1.8125 0 2.953125 1.234375q1.140625 1.21875 1.140625 3.4375q0 0.140625 -0.015625 0.40625l-6.703125 0q0.09375 1.484375 0.84375 2.28125q0.75 0.78125 1.875 0.78125q0.84375 0 1.4375 -0.4375q0.59375 -0.4375 0.9375 -1.40625zm-5.0 -2.46875l5.015625 0q-0.109375 -1.125 -0.578125 -1.703125q-0.734375 -0.875 -1.890625 -0.875q-1.046875 0 -1.765625 0.703125q-0.703125 0.703125 -0.78125 1.875zm14.30896 5.359375l0 -1.140625q-0.84375 1.34375 -2.515625 1.34375q-1.0625 0 -1.96875 -0.59375q-0.90625 -0.59375 -1.40625 -1.65625q-0.484375 -1.0625 -0.484375 -2.4375q0 -1.34375 0.4375 -2.4375q0.453125 -1.09375 1.34375 -1.671875q0.90625 -0.59375 2.015625 -0.59375q0.8125 0 1.4375 0.34375q0.640625 0.34375 1.046875 0.890625l0 -4.453125l1.515625 0l0 12.40625l-1.421875 0zm-4.8125 -4.484375q0 1.71875 0.71875 2.578125q0.734375 0.859375 1.734375 0.859375q0.984375 0 1.6875 -0.8125q0.703125 -0.828125 0.703125 -2.5q0 -1.84375 -0.71875 -2.703125q-0.703125 -0.859375 -1.75 -0.859375q-1.015625 0 -1.703125 0.828125q-0.671875 0.828125 -0.671875 2.609375zm8.62146 4.484375l0 -8.984375l1.3749695 0l0 1.28125q0.984375 -1.484375 2.859375 -1.484375q0.8125 0 1.484375 0.296875q0.6875 0.28125 1.015625 0.765625q0.34375 0.46875 0.484375 1.125q0.078125 0.421875 0.078125 1.46875l0 5.53125l-1.515625 0l0 -5.46875q0 -0.921875 -0.1875 -1.375q-0.171875 -0.46875 -0.625 -0.75q-0.453125 -0.28125 -1.0625 -0.28125q-0.96875 0 -1.671875 0.625q-0.703125 0.609375 -0.703125 2.34375l0 4.90625l-1.5312195 0zm15.793304 -2.890625l1.5625 0.1875q-0.359375 1.390625 -1.375 2.15625q-1.0 0.75 -2.5625 0.75q-1.984375 0 -3.140625 -1.203125q-1.140625 -1.21875 -1.140625 -3.421875q0 -2.265625 1.15625 -3.515625q1.171875 -1.25 3.03125 -1.25q1.8125 0 2.953125 1.234375q1.140625 1.21875 1.140625 3.4375q0 0.140625 -0.015625 0.40625l-6.703125 0q0.09375 1.484375 0.84375 2.28125q0.75 0.78125 1.875 0.78125q0.84375 0 1.4375 -0.4375q0.59375 -0.4375 0.9375 -1.40625zm-5.0 -2.46875l5.015625 0q-0.109375 -1.125 -0.578125 -1.703125q-0.734375 -0.875 -1.890625 -0.875q-1.046875 0 -1.765625 0.703125q-0.703125 0.703125 -0.78125 1.875zm7.87146 2.671875l1.515625 -0.234375q0.125 0.90625 0.703125 1.390625q0.578125 0.484375 1.609375 0.484375q1.0625 0 1.5625 -0.421875q0.515625 -0.4375 0.515625 -1.015625q0 -0.515625 -0.453125 -0.8125q-0.3125 -0.203125 -1.5625 -0.515625q-1.671875 -0.421875 -2.328125 -0.71875q-0.640625 -0.3125 -0.984375 -0.859375q-0.328125 -0.546875 -0.328125 -1.203125q0 -0.609375 0.28125 -1.109375q0.28125 -0.515625 0.75 -0.859375q0.359375 -0.265625 0.96875 -0.4375q0.609375 -0.1875 1.3125 -0.1875q1.0625 0 1.859375 0.3125q0.796875 0.296875 1.171875 0.828125q0.390625 0.515625 0.53125 1.375l-1.484375 0.203125q-0.109375 -0.6875 -0.59375 -1.078125q-0.484375 -0.390625 -1.375 -0.390625q-1.046875 0 -1.5 0.34375q-0.4375 0.34375 -0.4375 0.8125q0 0.296875 0.171875 0.53125q0.1875 0.25 0.59375 0.40625q0.21875 0.09375 1.34375 0.390625q1.609375 0.4375 2.25 0.71875q0.640625 0.265625 1.0 0.796875q0.375 0.515625 0.375 1.296875q0 0.765625 -0.453125 1.4375q-0.4375 0.671875 -1.28125 1.046875q-0.828125 0.359375 -1.890625 0.359375q-1.75 0 -2.671875 -0.71875q-0.921875 -0.734375 -1.171875 -2.171875zm15.1015625 2.6875l0 -1.140625q-0.84375 1.34375 -2.515625 1.34375q-1.0625 0 -1.96875 -0.59375q-0.90625 -0.59375 -1.40625 -1.65625q-0.484375 -1.0625 -0.484375 -2.4375q0 -1.34375 0.4375 -2.4375q0.453125 -1.09375 1.34375 -1.671875q0.90625 -0.59375 2.015625 -0.59375q0.8125 0 1.4375 0.34375q0.640625 0.34375 1.046875 0.890625l0 -4.453125l1.515625 0l0 12.40625l-1.421875 0zm-4.8125 -4.484375q0 1.71875 0.71875 2.578125q0.734375 0.859375 1.734375 0.859375q0.984375 0 1.6875 -0.8125q0.703125 -0.828125 0.703125 -2.5q0 -1.84375 -0.71875 -2.703125q-0.703125 -0.859375 -1.75 -0.859375q-1.015625 0 -1.703125 0.828125q-0.671875 0.828125 -0.671875 2.609375zm14.480835 3.375q-0.84375 0.71875 -1.625 1.015625q-0.78125 0.296875 -1.671875 0.296875q-1.484375 0 -2.28125 -0.71875q-0.796875 -0.734375 -0.796875 -1.859375q0 -0.65625 0.296875 -1.203125q0.3125 -0.546875 0.796875 -0.875q0.484375 -0.328125 1.09375 -0.5q0.4375 -0.109375 1.34375 -0.21875q1.84375 -0.21875 2.71875 -0.53125q0.015625 -0.3125 0.015625 -0.390625q0 -0.9375 -0.4375 -1.3125q-0.578125 -0.515625 -1.734375 -0.515625q-1.078125 0 -1.59375 0.375q-0.5 0.375 -0.75 1.328125l-1.484375 -0.203125q0.203125 -0.953125 0.65625 -1.53125q0.46875 -0.59375 1.34375 -0.90625q0.890625 -0.328125 2.046875 -0.328125q1.15625 0 1.875 0.28125q0.71875 0.265625 1.046875 0.671875q0.34375 0.40625 0.484375 1.03125q0.078125 0.390625 0.078125 1.40625l0 2.03125q0 2.125 0.09375 2.6875q0.09375 0.5625 0.390625 1.078125l-1.59375 0q-0.234375 -0.46875 -0.3125 -1.109375zm-0.125 -3.40625q-0.828125 0.34375 -2.484375 0.578125q-0.9375 0.140625 -1.328125 0.3125q-0.390625 0.171875 -0.609375 0.5q-0.203125 0.3125 -0.203125 0.71875q0 0.609375 0.453125 1.015625q0.46875 0.40625 1.359375 0.40625q0.875 0 1.5625 -0.390625q0.6875 -0.390625 1.015625 -1.046875q0.234375 -0.515625 0.234375 -1.53125l0 -0.5625zm3.84021 7.96875l-0.171875 -1.421875q0.5 0.140625 0.875 0.140625q0.5 0 0.796875 -0.171875q0.3125 -0.171875 0.515625 -0.484375q0.140625 -0.21875 0.453125 -1.125q0.046875 -0.125 0.140625 -0.375l-3.40625 -9.0l1.640625 0l1.875 5.203125q0.359375 0.984375 0.640625 2.078125q0.265625 -1.046875 0.625 -2.046875l1.921875 -5.234375l1.53125 0l-3.421875 9.140625q-0.546875 1.484375 -0.859375 2.03125q-0.40625 0.75 -0.9375 1.09375q-0.515625 0.359375 -1.234375 0.359375q-0.453125 0 -0.984375 -0.1875z" fill-rule="nonzero"/><path fill="#d8eeff" d="m101.27559 203.30708l96.06299 0l0 122.130905l-16.010818 16.010834l-80.05217 0z" fill-rule="evenodd"/><path fill="#acbecb" d="m181.32776 341.44882l3.2021637 -12.808655l12.808655 -3.202179z" fill-rule="evenodd"/><path fill="#000000" fill-opacity="0.0" d="m181.32776 341.44882l3.2021637 -12.808655l12.808655 -3.202179l-16.010818 16.010834l-80.05217 0l0 -138.14174l96.06299 0l0 122.130905" fill-rule="evenodd"/><path stroke="#595959" stroke-width="1.0" stroke-linejoin="round" stroke-linecap="butt" d="m181.32776 341.44882l3.2021637 -12.808655l12.808655 -3.202179l-16.010818 16.010834l-80.05217 0l0 -138.14174l96.06299 0l0 122.130905" fill-rule="evenodd"/><path fill="#000000" d="m120.68809 245.01254l2.59375 -12.40625l5.2031326 0q1.546875 0 2.34375 0.265625q0.796875 0.25 1.25 0.96875q0.453125 0.703125 0.453125 1.78125q0 1.515625 -1.0 2.515625q-0.984375 1.0 -3.1875 1.296875q0.671875 0.5 1.015625 0.984375q0.78125 1.09375 1.25 2.265625l0.953125 2.328125l-1.859375 0l-0.890625 -2.3125q-0.46875 -1.25 -1.0937576 -2.15625q-0.421875 -0.640625 -0.859375 -0.84375q-0.4375 -0.203125 -1.4375 -0.203125l-1.921875 0l-1.15625 5.515625l-1.65625 0zm3.09375 -6.859375l2.28125 0q1.59375 0 2.0781326 -0.03125q0.9375 -0.09375 1.53125 -0.421875q0.609375 -0.34375 0.9375 -0.890625q0.328125 -0.5625 0.328125 -1.203125q0 -0.546875 -0.25 -0.9375q-0.234375 -0.40625 -0.640625 -0.546875q-0.390625 -0.15625 -1.34375 -0.15625l-4.0468826 0l-0.875 4.1875zm15.779457 3.8125l1.5 0.140625q-0.328125 1.109375 -1.484375 2.109375q-1.15625 1.0 -2.75 1.0q-1.0 0 -1.84375 -0.453125q-0.828125 -0.46875 -1.265625 -1.34375q-0.4375 -0.890625 -0.4375 -2.015625q0 -1.46875 0.6875 -2.84375q0.6875 -1.390625 1.765625 -2.0625q1.078125 -0.671875 2.34375 -0.671875q1.609375 0 2.5625 1.0q0.96875 1.0 0.96875 2.71875q0 0.65625 -0.125 1.359375l-6.609375 0q-0.046875 0.265625 -0.046875 0.46875q0 1.265625 0.578125 1.9375q0.59375 0.65625 1.421875 0.65625q0.796875 0 1.546875 -0.515625q0.765625 -0.515625 1.1875 -1.484375zm-4.453125 -2.234375l5.046875 0q0.015625 -0.234375 0.015625 -0.34375q0 -1.140625 -0.578125 -1.75q-0.578125 -0.625 -1.484375 -0.625q-0.984375 0 -1.796875 0.6875q-0.796875 0.671875 -1.203125 2.03125zm6.74646 8.71875l2.59375 -12.421875l1.40625 0l-0.25 1.25q0.78125 -0.8125 1.390625 -1.125q0.625 -0.328125 1.328125 -0.328125q1.28125 0 2.125 0.9375q0.84375 0.9375 0.84375 2.671875q0 1.40625 -0.46875 2.5625q-0.453125 1.15625 -1.140625 1.859375q-0.671875 0.703125 -1.375 1.03125q-0.6875 0.328125 -1.40625 0.328125q-1.625 0 -2.5 -1.640625l-1.015625 4.875l-1.53125 0zm3.015625 -7.109375q0 1.0 0.15625 1.390625q0.203125 0.5625 0.6875 0.90625q0.484375 0.328125 1.125 0.328125q1.3125 0 2.125 -1.484375q0.8125 -1.484375 0.8125 -3.03125q0 -1.140625 -0.546875 -1.765625q-0.546875 -0.625 -1.359375 -0.625q-0.578125 0 -1.078125 0.3125q-0.5 0.3125 -0.9375 0.921875q-0.421875 0.609375 -0.703125 1.5q-0.28125 0.890625 -0.28125 1.546875zm7.637085 0.265625q0 -2.640625 1.546875 -4.359375q1.28125 -1.421875 3.359375 -1.421875q1.625 0 2.609375 1.015625q1.0 1.015625 1.0 2.734375q0 1.546875 -0.625 2.890625q-0.625 1.328125 -1.78125 2.046875q-1.15625 0.703125 -2.4375 0.703125q-1.046875 0 -1.90625 -0.4375q-0.859375 -0.453125 -1.3125 -1.265625q-0.453125 -0.828125 -0.453125 -1.90625zm1.53125 -0.15625q0 1.265625 0.609375 1.921875q0.609375 0.65625 1.546875 0.65625q0.5 0 0.96875 -0.1875q0.484375 -0.203125 0.890625 -0.609375q0.421875 -0.40625 0.71875 -0.921875q0.296875 -0.53125 0.46875 -1.125q0.265625 -0.84375 0.265625 -1.609375q0 -1.21875 -0.625 -1.890625q-0.609375 -0.671875 -1.53125 -0.671875q-0.71875 0 -1.3125 0.34375q-0.59375 0.34375 -1.078125 1.0q-0.46875 0.65625 -0.703125 1.53125q-0.21875 0.875 -0.21875 1.5625zm7.84021 3.5625l1.875 -8.984375l1.359375 0l-0.390625 1.828125q0.703125 -1.03125 1.359375 -1.53125q0.671875 -0.5 1.359375 -0.5q0.453125 0 1.125 0.328125l-0.625 1.421875q-0.390625 -0.28125 -0.875 -0.28125q-0.796875 0 -1.640625 0.890625q-0.84375 0.890625 -1.328125 3.21875l-0.765625 3.609375l-1.453125 0zm9.348526 -1.25l-0.25 1.265625q-0.5625 0.140625 -1.078125 0.140625q-0.90625 0 -1.453125 -0.453125q-0.40625 -0.34375 -0.40625 -0.921875q0 -0.296875 0.21875 -1.359375l1.09375 -5.21875l-1.203125 0l0.234375 -1.1875l1.21875 0l0.46875 -2.203125l1.75 -1.0625l-0.6875 3.265625l1.5 0l-0.25 1.1875l-1.5 0l-1.03125 4.96875q-0.203125 0.9375 -0.203125 1.125q0 0.265625 0.15625 0.421875q0.15625 0.140625 0.515625 0.140625q0.5 0 0.90625 -0.109375z" fill-rule="nonzero"/><path fill="#000000" d="m120.65684 266.01254l1.640625 -7.796875l-1.375 0l0.25 -1.1875l1.375 0l0.25 -1.28125q0.203125 -0.953125 0.421875 -1.375q0.21875 -0.421875 0.703125 -0.6875q0.484375 -0.28125 1.328125 -0.28125q0.578125 0 1.6875 0.234375l-0.28125 1.34375q-0.78125 -0.203125 -1.296875 -0.203125q-0.453125 0 -0.6875 0.234375q-0.234375 0.21875 -0.390625 1.046875l-0.203125 0.96875l1.703125 0l-0.25 1.1875l-1.703125 0l-1.640625 7.796875l-1.53125 0zm4.876816 -3.40625q0 -2.640625 1.546875 -4.359375q1.2812576 -1.421875 3.3593826 -1.421875q1.625 0 2.609375 1.015625q1.0 1.015625 1.0 2.734375q0 1.546875 -0.625 2.890625q-0.625 1.328125 -1.78125 2.046875q-1.15625 0.703125 -2.4375 0.703125q-1.046875 0 -1.9062576 -0.4375q-0.859375 -0.453125 -1.3125 -1.265625q-0.453125 -0.828125 -0.453125 -1.90625zm1.53125 -0.15625q0 1.265625 0.609375 1.921875q0.6093826 0.65625 1.5468826 0.65625q0.5 0 0.96875 -0.1875q0.484375 -0.203125 0.890625 -0.609375q0.421875 -0.40625 0.71875 -0.921875q0.296875 -0.53125 0.46875 -1.125q0.265625 -0.84375 0.265625 -1.609375q0 -1.21875 -0.625 -1.890625q-0.609375 -0.671875 -1.53125 -0.671875q-0.71875 0 -1.3125 0.34375q-0.59375 0.34375 -1.0781326 1.0q-0.46875 0.65625 -0.703125 1.53125q-0.21875 0.875 -0.21875 1.5625zm7.8402176 3.5625l1.875 -8.984375l1.359375 0l-0.390625 1.828125q0.703125 -1.03125 1.359375 -1.53125q0.671875 -0.5 1.359375 -0.5q0.453125 0 1.125 0.328125l-0.625 1.421875q-0.390625 -0.28125 -0.875 -0.28125q-0.796875 0 -1.640625 0.890625q-0.84375 0.890625 -1.328125 3.21875l-0.765625 3.609375l-1.453125 0z" fill-rule="nonzero"/><path fill="#000000" d="m120.64121 287.01254l2.578125 -12.40625l2.046875 0l1.25 8.046875q0.25 1.578125 0.328125 3.03125q0.515625 -1.25 1.7187576 -3.390625l4.34375 -7.6875l2.078125 0l-2.59375 12.40625l-1.625 0l1.296875 -6.03125q0.4375 -2.09375 1.28125 -4.6875q-0.53125 1.203125 -1.3125 2.609375l-4.6250076 8.109375l-1.59375 0l-1.25 -7.953125q-0.171875 -1.09375 -0.25 -2.546875q-0.203125 1.640625 -0.40625 2.59375l-1.65625 7.90625l-1.609375 0zm14.512596 -3.40625q0 -2.640625 1.546875 -4.359375q1.28125 -1.421875 3.359375 -1.421875q1.625 0 2.609375 1.015625q1.0 1.015625 1.0 2.734375q0 1.546875 -0.625 2.890625q-0.625 1.328125 -1.78125 2.046875q-1.15625 0.703125 -2.4375 0.703125q-1.046875 0 -1.90625 -0.4375q-0.859375 -0.453125 -1.3125 -1.265625q-0.453125 -0.828125 -0.453125 -1.90625zm1.53125 -0.15625q0 1.265625 0.609375 1.921875q0.609375 0.65625 1.546875 0.65625q0.5 0 0.96875 -0.1875q0.484375 -0.203125 0.890625 -0.609375q0.421875 -0.40625 0.71875 -0.921875q0.296875 -0.53125 0.46875 -1.125q0.265625 -0.84375 0.265625 -1.609375q0 -1.21875 -0.625 -1.890625q-0.609375 -0.671875 -1.53125 -0.671875q-0.71875 0 -1.3125 0.34375q-0.59375 0.34375 -1.078125 1.0q-0.46875 0.65625 -0.703125 1.53125q-0.21875 0.875 -0.21875 1.5625zm7.84021 3.5625l1.875 -8.984375l1.390625 0l-0.328125 1.5625q0.90625 -0.921875 1.6875 -1.34375q0.78125 -0.421875 1.609375 -0.421875q1.09375 0 1.703125 0.59375q0.625 0.59375 0.625 1.578125q0 0.5 -0.21875 1.578125l-1.140625 5.4375l-1.53125 0l1.203125 -5.6875q0.171875 -0.828125 0.171875 -1.234375q0 -0.453125 -0.3125 -0.71875q-0.3125 -0.28125 -0.890625 -0.28125q-1.171875 0 -2.09375 0.84375q-0.921875 0.84375 -1.34375 2.890625l-0.875 4.1875l-1.53125 0zm15.699585 -1.296875q-1.3125 1.5 -2.75 1.5q-1.28125 0 -2.140625 -0.9375q-0.84375 -0.953125 -0.84375 -2.75q0 -1.640625 0.671875 -2.984375q0.6875 -1.359375 1.6875 -2.03125q1.015625 -0.6875 2.03125 -0.6875q1.671875 0 2.53125 1.609375l1.015625 -4.828125l1.515625 0l-2.578125 12.40625l-1.421875 0l0.28125 -1.296875zm-4.203125 -2.46875q0 0.9375 0.1875 1.484375q0.1875 0.53125 0.625 0.890625q0.453125 0.359375 1.078125 0.359375q1.046875 0 1.890625 -1.078125q1.140625 -1.4375 1.140625 -3.546875q0 -1.0625 -0.5625 -1.65625q-0.5625 -0.609375 -1.40625 -0.609375q-0.546875 0 -1.0 0.25q-0.453125 0.234375 -0.90625 0.828125q-0.4375 0.578125 -0.75 1.484375q-0.296875 0.90625 -0.296875 1.59375zm13.84021 2.65625q-0.796875 0.671875 -1.546875 1.0q-0.734375 0.3125 -1.5625 0.3125q-1.25 0 -2.015625 -0.734375q-0.75 -0.734375 -0.75 -1.875q0 -0.75 0.34375 -1.328125q0.34375 -0.578125 0.90625 -0.921875q0.5625 -0.359375 1.390625 -0.515625q0.515625 -0.09375 1.953125 -0.15625q1.4375 -0.0625 2.0625 -0.3125q0.1875 -0.625 0.1875 -1.03125q0 -0.53125 -0.390625 -0.84375q-0.53125 -0.421875 -1.5625 -0.421875q-0.953125 0 -1.578125 0.4375q-0.609375 0.421875 -0.890625 1.203125l-1.546875 -0.140625q0.46875 -1.328125 1.5 -2.03125q1.03125 -0.71875 2.59375 -0.71875q1.671875 0 2.640625 0.796875q0.75 0.59375 0.75 1.53125q0 0.71875 -0.21875 1.671875l-0.5 2.234375q-0.234375 1.0625 -0.234375 1.734375q0 0.421875 0.1875 1.21875l-1.546875 0q-0.125 -0.4375 -0.171875 -1.109375zm0.5625 -3.4375q-0.328125 0.125 -0.703125 0.1875q-0.359375 0.0625 -1.21875 0.140625q-1.34375 0.125 -1.890625 0.3125q-0.546875 0.171875 -0.828125 0.578125q-0.28125 0.390625 -0.28125 0.875q0 0.640625 0.4375 1.0625q0.453125 0.40625 1.28125 0.40625q0.75 0 1.453125 -0.390625q0.703125 -0.40625 1.109375 -1.125q0.40625 -0.71875 0.640625 -2.046875zm2.43396 8.015625l0.09375 -1.4375q0.46875 0.140625 0.921875 0.140625q0.46875 0 0.75 -0.21875q0.375 -0.28125 0.8125 -1.046875l0.5 -0.875l-1.5 -9.015625l1.5 0l0.671875 4.546875q0.203125 1.34375 0.359375 2.6875l4.015625 -7.234375l1.59375 0l-5.71875 10.171875q-0.828125 1.5 -1.484375 1.96875q-0.640625 0.484375 -1.46875 0.484375q-0.546875 0 -1.046875 -0.171875z" fill-rule="nonzero"/><path fill="#d8eeff" d="m286.9685 203.30708l96.06299 0l0 122.130905l-16.010803 16.010834l-80.052185 0z" fill-rule="evenodd"/><path fill="#acbecb" d="m367.0207 341.44882l3.2021484 -12.808655l12.808655 -3.202179z" fill-rule="evenodd"/><path fill="#000000" fill-opacity="0.0" d="m367.0207 341.44882l3.2021484 -12.808655l12.808655 -3.202179l-16.010803 16.010834l-80.052185 0l0 -138.14174l96.06299 0l0 122.130905" fill-rule="evenodd"/><path stroke="#595959" stroke-width="1.0" stroke-linejoin="round" stroke-linecap="butt" d="m367.0207 341.44882l3.2021484 -12.808655l12.808655 -3.202179l-16.010803 16.010834l-80.052185 0l0 -138.14174l96.06299 0l0 122.130905" fill-rule="evenodd"/><path fill="#000000" d="m306.381 245.01254l2.59375 -12.40625l5.203125 0q1.546875 0 2.34375 0.265625q0.796875 0.25 1.25 0.96875q0.453125 0.703125 0.453125 1.78125q0 1.515625 -1.0 2.515625q-0.984375 1.0 -3.1875 1.296875q0.671875 0.5 1.015625 0.984375q0.78125 1.09375 1.25 2.265625l0.953125 2.328125l-1.859375 0l-0.890625 -2.3125q-0.46875 -1.25 -1.09375 -2.15625q-0.421875 -0.640625 -0.859375 -0.84375q-0.4375 -0.203125 -1.4375 -0.203125l-1.921875 0l-1.15625 5.515625l-1.65625 0zm3.09375 -6.859375l2.28125 0q1.59375 0 2.078125 -0.03125q0.9375 -0.09375 1.53125 -0.421875q0.609375 -0.34375 0.9375 -0.890625q0.328125 -0.5625 0.328125 -1.203125q0 -0.546875 -0.25 -0.9375q-0.234375 -0.40625 -0.640625 -0.546875q-0.390625 -0.15625 -1.34375 -0.15625l-4.046875 0l-0.875 4.1875zm15.779449 3.8125l1.5 0.140625q-0.328125 1.109375 -1.484375 2.109375q-1.15625 1.0 -2.75 1.0q-1.0 0 -1.84375 -0.453125q-0.828125 -0.46875 -1.265625 -1.34375q-0.4375 -0.890625 -0.4375 -2.015625q0 -1.46875 0.6875 -2.84375q0.6875 -1.390625 1.765625 -2.0625q1.078125 -0.671875 2.34375 -0.671875q1.609375 0 2.5625 1.0q0.96875 1.0 0.96875 2.71875q0 0.65625 -0.125 1.359375l-6.609375 0q-0.046875 0.265625 -0.046875 0.46875q0 1.265625 0.578125 1.9375q0.59375 0.65625 1.421875 0.65625q0.796875 0 1.546875 -0.515625q0.765625 -0.515625 1.1875 -1.484375zm-4.453125 -2.234375l5.046875 0q0.015625 -0.234375 0.015625 -0.34375q0 -1.140625 -0.578125 -1.75q-0.578125 -0.625 -1.484375 -0.625q-0.984375 0 -1.796875 0.6875q-0.796875 0.671875 -1.203125 2.03125zm6.74646 8.71875l2.59375 -12.421875l1.40625 0l-0.25 1.25q0.78125 -0.8125 1.390625 -1.125q0.625 -0.328125 1.328125 -0.328125q1.28125 0 2.125 0.9375q0.84375 0.9375 0.84375 2.671875q0 1.40625 -0.46875 2.5625q-0.453125 1.15625 -1.140625 1.859375q-0.671875 0.703125 -1.375 1.03125q-0.6875 0.328125 -1.40625 0.328125q-1.625 0 -2.5 -1.640625l-1.015625 4.875l-1.53125 0zm3.015625 -7.109375q0 1.0 0.15625 1.390625q0.203125 0.5625 0.6875 0.90625q0.484375 0.328125 1.125 0.328125q1.3125 0 2.125 -1.484375q0.8125 -1.484375 0.8125 -3.03125q0 -1.140625 -0.546875 -1.765625q-0.546875 -0.625 -1.359375 -0.625q-0.578125 0 -1.078125 0.3125q-0.5 0.3125 -0.9375 0.921875q-0.421875 0.609375 -0.703125 1.5q-0.28125 0.890625 -0.28125 1.546875zm7.637085 0.265625q0 -2.640625 1.546875 -4.359375q1.28125 -1.421875 3.359375 -1.421875q1.625 0 2.609375 1.015625q1.0 1.015625 1.0 2.734375q0 1.546875 -0.625 2.890625q-0.625 1.328125 -1.78125 2.046875q-1.15625 0.703125 -2.4375 0.703125q-1.046875 0 -1.90625 -0.4375q-0.859375 -0.453125 -1.3125 -1.265625q-0.453125 -0.828125 -0.453125 -1.90625zm1.53125 -0.15625q0 1.265625 0.609375 1.921875q0.609375 0.65625 1.546875 0.65625q0.5 0 0.96875 -0.1875q0.484375 -0.203125 0.890625 -0.609375q0.421875 -0.40625 0.71875 -0.921875q0.296875 -0.53125 0.46875 -1.125q0.265625 -0.84375 0.265625 -1.609375q0 -1.21875 -0.625 -1.890625q-0.609375 -0.671875 -1.53125 -0.671875q-0.71875 0 -1.3125 0.34375q-0.59375 0.34375 -1.078125 1.0q-0.46875 0.65625 -0.703125 1.53125q-0.21875 0.875 -0.21875 1.5625zm7.84021 3.5625l1.875 -8.984375l1.359375 0l-0.390625 1.828125q0.703125 -1.03125 1.359375 -1.53125q0.671875 -0.5 1.359375 -0.5q0.453125 0 1.125 0.328125l-0.625 1.421875q-0.390625 -0.28125 -0.875 -0.28125q-0.796875 0 -1.640625 0.890625q-0.84375 0.890625 -1.328125 3.21875l-0.765625 3.609375l-1.453125 0zm9.348511 -1.25l-0.25 1.265625q-0.5625 0.140625 -1.078125 0.140625q-0.90625 0 -1.453125 -0.453125q-0.40625 -0.34375 -0.40625 -0.921875q0 -0.296875 0.21875 -1.359375l1.09375 -5.21875l-1.203125 0l0.234375 -1.1875l1.21875 0l0.46875 -2.203125l1.75 -1.0625l-0.6875 3.265625l1.5 0l-0.25 1.1875l-1.5 0l-1.03125 4.96875q-0.203125 0.9375 -0.203125 1.125q0 0.265625 0.15625 0.421875q0.15625 0.140625 0.515625 0.140625q0.5 0 0.90625 -0.109375z" fill-rule="nonzero"/><path fill="#000000" d="m306.34976 266.01254l1.640625 -7.796875l-1.375 0l0.25 -1.1875l1.375 0l0.25 -1.28125q0.203125 -0.953125 0.421875 -1.375q0.21875 -0.421875 0.703125 -0.6875q0.484375 -0.28125 1.328125 -0.28125q0.578125 0 1.6875 0.234375l-0.28125 1.34375q-0.78125 -0.203125 -1.296875 -0.203125q-0.453125 0 -0.6875 0.234375q-0.234375 0.21875 -0.390625 1.046875l-0.203125 0.96875l1.703125 0l-0.25 1.1875l-1.703125 0l-1.640625 7.796875l-1.53125 0zm4.8768005 -3.40625q0 -2.640625 1.546875 -4.359375q1.28125 -1.421875 3.359375 -1.421875q1.625 0 2.609375 1.015625q1.0 1.015625 1.0 2.734375q0 1.546875 -0.625 2.890625q-0.625 1.328125 -1.78125 2.046875q-1.15625 0.703125 -2.4375 0.703125q-1.046875 0 -1.90625 -0.4375q-0.859375 -0.453125 -1.3125 -1.265625q-0.453125 -0.828125 -0.453125 -1.90625zm1.53125 -0.15625q0 1.265625 0.609375 1.921875q0.609375 0.65625 1.546875 0.65625q0.5 0 0.96875 -0.1875q0.484375 -0.203125 0.890625 -0.609375q0.421875 -0.40625 0.71875 -0.921875q0.296875 -0.53125 0.46875 -1.125q0.265625 -0.84375 0.265625 -1.609375q0 -1.21875 -0.625 -1.890625q-0.609375 -0.671875 -1.53125 -0.671875q-0.71875 0 -1.3125 0.34375q-0.59375 0.34375 -1.078125 1.0q-0.46875 0.65625 -0.703125 1.53125q-0.21875 0.875 -0.21875 1.5625zm7.84021 3.5625l1.875 -8.984375l1.359375 0l-0.390625 1.828125q0.703125 -1.03125 1.359375 -1.53125q0.671875 -0.5 1.359375 -0.5q0.453125 0 1.125 0.328125l-0.625 1.421875q-0.390625 -0.28125 -0.875 -0.28125q-0.796875 0 -1.640625 0.890625q-0.84375 0.890625 -1.328125 3.21875l-0.765625 3.609375l-1.453125 0z" fill-rule="nonzero"/><path fill="#000000" d="m309.506 287.01254l2.296875 -10.984375l-4.078125 0l0.296875 -1.421875l9.765625 0l-0.296875 1.421875l-4.03125 0l-2.296875 10.984375l-1.65625 0zm12.063873 -1.625q-1.609375 1.828125 -3.296875 1.828125q-1.046875 0 -1.6875 -0.59375q-0.640625 -0.59375 -0.640625 -1.46875q0 -0.5625 0.296875 -1.9375l1.078125 -5.1875l1.53125 0l-1.203125 5.75q-0.15625 0.71875 -0.15625 1.109375q0 0.515625 0.3125 0.796875q0.3125 0.28125 0.90625 0.28125q0.65625 0 1.265625 -0.3125q0.609375 -0.3125 1.046875 -0.84375q0.453125 -0.53125 0.734375 -1.265625q0.1875 -0.46875 0.421875 -1.640625l0.8125 -3.875l1.53125 0l-1.875 8.984375l-1.40625 0l0.328125 -1.625zm10.105835 -1.421875l1.5 0.140625q-0.328125 1.109375 -1.484375 2.109375q-1.15625 1.0 -2.75 1.0q-1.0 0 -1.84375 -0.453125q-0.828125 -0.46875 -1.265625 -1.34375q-0.4375 -0.890625 -0.4375 -2.015625q0 -1.46875 0.6875 -2.84375q0.6875 -1.390625 1.765625 -2.0625q1.078125 -0.671875 2.34375 -0.671875q1.609375 0 2.5625 1.0q0.96875 1.0 0.96875 2.71875q0 0.65625 -0.125 1.359375l-6.609375 0q-0.046875 0.265625 -0.046875 0.46875q0 1.265625 0.578125 1.9375q0.59375 0.65625 1.421875 0.65625q0.796875 0 1.546875 -0.515625q0.765625 -0.515625 1.1875 -1.484375zm-4.453125 -2.234375l5.046875 0q0.015625 -0.234375 0.015625 -0.34375q0 -1.140625 -0.578125 -1.75q-0.578125 -0.625 -1.484375 -0.625q-0.984375 0 -1.796875 0.6875q-0.796875 0.671875 -1.203125 2.03125zm7.637085 2.203125l1.53125 -0.09375q0 0.671875 0.203125 1.140625q0.203125 0.453125 0.75 0.75q0.546875 0.296875 1.265625 0.296875q1.015625 0 1.515625 -0.40625q0.515625 -0.40625 0.515625 -0.953125q0 -0.390625 -0.296875 -0.75q-0.3125 -0.359375 -1.53125 -0.875q-1.21875 -0.53125 -1.546875 -0.734375q-0.5625 -0.34375 -0.859375 -0.8125q-0.28125 -0.46875 -0.28125 -1.078125q0 -1.078125 0.84375 -1.828125q0.84375 -0.765625 2.359375 -0.765625q1.703125 0 2.578125 0.78125q0.890625 0.78125 0.921875 2.0625l-1.5 0.09375q-0.03125 -0.8125 -0.578125 -1.28125q-0.53125 -0.46875 -1.53125 -0.46875q-0.78125 0 -1.234375 0.359375q-0.4375 0.359375 -0.4375 0.78125q0 0.421875 0.390625 0.75q0.25 0.21875 1.3125 0.671875q1.75 0.765625 2.203125 1.203125q0.734375 0.703125 0.734375 1.71875q0 0.65625 -0.421875 1.3125q-0.40625 0.640625 -1.25 1.03125q-0.828125 0.375 -1.96875 0.375q-1.5625 0 -2.65625 -0.765625q-1.09375 -0.78125 -1.03125 -2.515625zm14.5859375 1.78125q-1.3125 1.5 -2.75 1.5q-1.28125 0 -2.140625 -0.9375q-0.84375 -0.953125 -0.84375 -2.75q0 -1.640625 0.671875 -2.984375q0.6875 -1.359375 1.6875 -2.03125q1.015625 -0.6875 2.03125 -0.6875q1.671875 0 2.53125 1.609375l1.015625 -4.828125l1.515625 0l-2.578125 12.40625l-1.421875 0l0.28125 -1.296875zm-4.203125 -2.46875q0 0.9375 0.1875 1.484375q0.1875 0.53125 0.625 0.890625q0.453125 0.359375 1.078125 0.359375q1.046875 0 1.890625 -1.078125q1.140625 -1.4375 1.140625 -3.546875q0 -1.0625 -0.5625 -1.65625q-0.5625 -0.609375 -1.40625 -0.609375q-0.546875 0 -1.0 0.25q-0.453125 0.234375 -0.90625 0.828125q-0.4375 0.578125 -0.75 1.484375q-0.296875 0.90625 -0.296875 1.59375zm13.84021 2.65625q-0.796875 0.671875 -1.546875 1.0q-0.734375 0.3125 -1.5625 0.3125q-1.25 0 -2.015625 -0.734375q-0.75 -0.734375 -0.75 -1.875q0 -0.75 0.34375 -1.328125q0.34375 -0.578125 0.90625 -0.921875q0.5625 -0.359375 1.390625 -0.515625q0.515625 -0.09375 1.953125 -0.15625q1.4375 -0.0625 2.0625 -0.3125q0.1875 -0.625 0.1875 -1.03125q0 -0.53125 -0.390625 -0.84375q-0.53125 -0.421875 -1.5625 -0.421875q-0.953125 0 -1.578125 0.4375q-0.609375 0.421875 -0.890625 1.203125l-1.546875 -0.140625q0.46875 -1.328125 1.5 -2.03125q1.03125 -0.71875 2.59375 -0.71875q1.671875 0 2.640625 0.796875q0.75 0.59375 0.75 1.53125q0 0.71875 -0.21875 1.671875l-0.5 2.234375q-0.234375 1.0625 -0.234375 1.734375q0 0.421875 0.1875 1.21875l-1.546875 0q-0.125 -0.4375 -0.171875 -1.109375zm0.5625 -3.4375q-0.328125 0.125 -0.703125 0.1875q-0.359375 0.0625 -1.21875 0.140625q-1.34375 0.125 -1.890625 0.3125q-0.546875 0.171875 -0.828125 0.578125q-0.28125 0.390625 -0.28125 0.875q0 0.640625 0.4375 1.0625q0.453125 0.40625 1.28125 0.40625q0.75 0 1.453125 -0.390625q0.703125 -0.40625 1.109375 -1.125q0.40625 -0.71875 0.640625 -2.046875zm2.43396 8.015625l0.09375 -1.4375q0.46875 0.140625 0.921875 0.140625q0.46875 0 0.75 -0.21875q0.375 -0.28125 0.8125 -1.046875l0.5 -0.875l-1.5 -9.015625l1.5 0l0.671875 4.546875q0.203125 1.34375 0.359375 2.6875l4.015625 -7.234375l1.59375 0l-5.71875 10.171875q-0.828125 1.5 -1.484375 1.96875q-0.640625 0.484375 -1.46875 0.484375q-0.546875 0 -1.046875 -0.171875z" fill-rule="nonzero"/><path fill="#d8eeff" d="m472.6614 203.30708l96.06302 0l0 122.130905l-16.010864 16.010834l-80.052155 0z" fill-rule="evenodd"/><path fill="#acbecb" d="m552.71356 341.44882l3.2022095 -12.808655l12.808655 -3.202179z" fill-rule="evenodd"/><path fill="#000000" fill-opacity="0.0" d="m552.71356 341.44882l3.2022095 -12.808655l12.808655 -3.202179l-16.010864 16.010834l-80.052155 0l0 -138.14174l96.06302 0l0 122.130905" fill-rule="evenodd"/><path stroke="#595959" stroke-width="1.0" stroke-linejoin="round" stroke-linecap="butt" d="m552.71356 341.44882l3.2022095 -12.808655l12.808655 -3.202179l-16.010864 16.010834l-80.052155 0l0 -138.14174l96.06302 0l0 122.130905" fill-rule="evenodd"/><path fill="#000000" d="m492.0739 245.01254l2.59375 -12.40625l5.203125 0q1.546875 0 2.34375 0.265625q0.796875 0.25 1.25 0.96875q0.453125 0.703125 0.453125 1.78125q0 1.515625 -1.0 2.515625q-0.984375 1.0 -3.1875 1.296875q0.671875 0.5 1.015625 0.984375q0.78125 1.09375 1.25 2.265625l0.953125 2.328125l-1.859375 0l-0.890625 -2.3125q-0.46875 -1.25 -1.09375 -2.15625q-0.421875 -0.640625 -0.859375 -0.84375q-0.4375 -0.203125 -1.4375 -0.203125l-1.921875 0l-1.15625 5.515625l-1.65625 0zm3.09375 -6.859375l2.28125 0q1.59375 0 2.078125 -0.03125q0.9375 -0.09375 1.53125 -0.421875q0.609375 -0.34375 0.9375 -0.890625q0.328125 -0.5625 0.328125 -1.203125q0 -0.546875 -0.25 -0.9375q-0.234375 -0.40625 -0.640625 -0.546875q-0.390625 -0.15625 -1.34375 -0.15625l-4.046875 0l-0.875 4.1875zm15.779449 3.8125l1.5000305 0.140625q-0.328125 1.109375 -1.4844055 2.109375q-1.15625 1.0 -2.75 1.0q-1.0 0 -1.84375 -0.453125q-0.828125 -0.46875 -1.265625 -1.34375q-0.4375 -0.890625 -0.4375 -2.015625q0 -1.46875 0.6875 -2.84375q0.6875 -1.390625 1.765625 -2.0625q1.078125 -0.671875 2.34375 -0.671875q1.609375 0 2.5625305 1.0q0.96875 1.0 0.96875 2.71875q0 0.65625 -0.125 1.359375l-6.6094055 0q-0.046875 0.265625 -0.046875 0.46875q0 1.265625 0.578125 1.9375q0.59375 0.65625 1.421875 0.65625q0.796875 0 1.546875 -0.515625q0.765625 -0.515625 1.1875 -1.484375zm-4.453125 -2.234375l5.046875 0q0.015625 -0.234375 0.015625 -0.34375q0 -1.140625 -0.578125 -1.75q-0.578125 -0.625 -1.484375 -0.625q-0.984375 0 -1.796875 0.6875q-0.796875 0.671875 -1.203125 2.03125zm6.7464905 8.71875l2.59375 -12.421875l1.40625 0l-0.25 1.25q0.78125 -0.8125 1.390625 -1.125q0.625 -0.328125 1.328125 -0.328125q1.28125 0 2.125 0.9375q0.84375 0.9375 0.84375 2.671875q0 1.40625 -0.46875 2.5625q-0.453125 1.15625 -1.140625 1.859375q-0.671875 0.703125 -1.375 1.03125q-0.6875 0.328125 -1.40625 0.328125q-1.625 0 -2.5 -1.640625l-1.015625 4.875l-1.53125 0zm3.015625 -7.109375q0 1.0 0.15625 1.390625q0.203125 0.5625 0.6875 0.90625q0.484375 0.328125 1.125 0.328125q1.3125 0 2.125 -1.484375q0.8125 -1.484375 0.8125 -3.03125q0 -1.140625 -0.546875 -1.765625q-0.546875 -0.625 -1.359375 -0.625q-0.578125 0 -1.078125 0.3125q-0.5 0.3125 -0.9375 0.921875q-0.421875 0.609375 -0.703125 1.5q-0.28125 0.890625 -0.28125 1.546875zm7.637085 0.265625q0 -2.640625 1.546875 -4.359375q1.28125 -1.421875 3.359375 -1.421875q1.625 0 2.609375 1.015625q1.0 1.015625 1.0 2.734375q0 1.546875 -0.625 2.890625q-0.625 1.328125 -1.78125 2.046875q-1.15625 0.703125 -2.4375 0.703125q-1.046875 0 -1.90625 -0.4375q-0.859375 -0.453125 -1.3125 -1.265625q-0.453125 -0.828125 -0.453125 -1.90625zm1.53125 -0.15625q0 1.265625 0.609375 1.921875q0.609375 0.65625 1.546875 0.65625q0.5 0 0.96875 -0.1875q0.484375 -0.203125 0.890625 -0.609375q0.421875 -0.40625 0.71875 -0.921875q0.296875 -0.53125 0.46875 -1.125q0.265625 -0.84375 0.265625 -1.609375q0 -1.21875 -0.625 -1.890625q-0.609375 -0.671875 -1.53125 -0.671875q-0.71875 0 -1.3125 0.34375q-0.59375 0.34375 -1.078125 1.0q-0.46875 0.65625 -0.703125 1.53125q-0.21875 0.875 -0.21875 1.5625zm7.84021 3.5625l1.875 -8.984375l1.359375 0l-0.390625 1.828125q0.703125 -1.03125 1.359375 -1.53125q0.671875 -0.5 1.359375 -0.5q0.453125 0 1.125 0.328125l-0.625 1.421875q-0.390625 -0.28125 -0.875 -0.28125q-0.796875 0 -1.640625 0.890625q-0.84375 0.890625 -1.328125 3.21875l-0.765625 3.609375l-1.453125 0zm9.348511 -1.25l-0.25 1.265625q-0.5625 0.140625 -1.078125 0.140625q-0.90625 0 -1.453125 -0.453125q-0.40625 -0.34375 -0.40625 -0.921875q0 -0.296875 0.21875 -1.359375l1.09375 -5.21875l-1.203125 0l0.234375 -1.1875l1.21875 0l0.46875 -2.203125l1.75 -1.0625l-0.6875 3.265625l1.5 0l-0.25 1.1875l-1.5 0l-1.03125 4.96875q-0.203125 0.9375 -0.203125 1.125q0 0.265625 0.15625 0.421875q0.15625 0.140625 0.515625 0.140625q0.5 0 0.90625 -0.109375z" fill-rule="nonzero"/><path fill="#000000" d="m492.04266 266.01254l1.640625 -7.796875l-1.375 0l0.25 -1.1875l1.375 0l0.25 -1.28125q0.203125 -0.953125 0.421875 -1.375q0.21875 -0.421875 0.703125 -0.6875q0.484375 -0.28125 1.328125 -0.28125q0.578125 0 1.6875 0.234375l-0.28125 1.34375q-0.78125 -0.203125 -1.296875 -0.203125q-0.453125 0 -0.6875 0.234375q-0.234375 0.21875 -0.390625 1.046875l-0.203125 0.96875l1.703125 0l-0.25 1.1875l-1.703125 0l-1.640625 7.796875l-1.53125 0zm4.876831 -3.40625q0 -2.640625 1.546875 -4.359375q1.28125 -1.421875 3.359375 -1.421875q1.625 0 2.609375 1.015625q1.0 1.015625 1.0 2.734375q0 1.546875 -0.625 2.890625q-0.625 1.328125 -1.78125 2.046875q-1.15625 0.703125 -2.4375 0.703125q-1.046875 0 -1.90625 -0.4375q-0.859375 -0.453125 -1.3125 -1.265625q-0.453125 -0.828125 -0.453125 -1.90625zm1.53125 -0.15625q0 1.265625 0.609375 1.921875q0.609375 0.65625 1.546875 0.65625q0.5 0 0.96875 -0.1875q0.484375 -0.203125 0.890625 -0.609375q0.421875 -0.40625 0.71875 -0.921875q0.296875 -0.53125 0.46875 -1.125q0.265625 -0.84375 0.265625 -1.609375q0 -1.21875 -0.625 -1.890625q-0.609375 -0.671875 -1.53125 -0.671875q-0.71875 0 -1.3125 0.34375q-0.59375 0.34375 -1.078125 1.0q-0.46875 0.65625 -0.703125 1.53125q-0.21875 0.875 -0.21875 1.5625zm7.84021 3.5625l1.875 -8.984375l1.359375 0l-0.390625 1.828125q0.703125 -1.03125 1.359375 -1.53125q0.671875 -0.5 1.359375 -0.5q0.453125 0 1.125 0.328125l-0.625 1.421875q-0.390625 -0.28125 -0.875 -0.28125q-0.796875 0 -1.640625 0.890625q-0.84375 0.890625 -1.328125 3.21875l-0.765625 3.609375l-1.453125 0z" fill-rule="nonzero"/><path fill="#000000" d="m494.1833 287.01254l-0.75 -12.40625l1.671875 0l0.296875 6.140625q0.015625 0.4375 0.078125 2.375q0.015625 0.546875 0.015625 0.765625q0 0.140625 0 0.84375q1.03125 -2.125 1.484375 -2.984375l3.78125 -7.140625l1.703125 0l0.40625 7.25q0.078125 1.25 0.09375 3.0q0.15625 -0.4375 0.546875 -1.28125q0.625 -1.390625 0.921875 -1.984375l3.53125 -6.984375l1.6875 0l-6.3125 12.40625l-1.765625 0l-0.421875 -7.515625q-0.0625 -0.96875 -0.09375 -2.359375q-0.515625 1.171875 -0.859375 1.8125l-4.296875 8.0625l-1.71875 0zm15.636383 -8.015625l0.09375 -2.3125l0.4375 -2.078125l1.7499695 0l-0.45309448 2.078125l-0.890625 2.3125l-0.9375 0zm1.823883 4.9375l1.53125 -0.09375q0 0.671875 0.203125 1.140625q0.203125 0.453125 0.75 0.75q0.546875 0.296875 1.265625 0.296875q1.015625 0 1.515625 -0.40625q0.515625 -0.40625 0.515625 -0.953125q0 -0.390625 -0.296875 -0.75q-0.3125 -0.359375 -1.53125 -0.875q-1.21875 -0.53125 -1.546875 -0.734375q-0.5625 -0.34375 -0.859375 -0.8125q-0.28125 -0.46875 -0.28125 -1.078125q0 -1.078125 0.84375 -1.828125q0.84375 -0.765625 2.359375 -0.765625q1.703125 0 2.578125 0.78125q0.890625 0.78125 0.921875 2.0625l-1.5 0.09375q-0.03125 -0.8125 -0.578125 -1.28125q-0.53125 -0.46875 -1.53125 -0.46875q-0.78125 0 -1.234375 0.359375q-0.4375 0.359375 -0.4375 0.78125q0 0.421875 0.390625 0.75q0.25 0.21875 1.3125 0.671875q1.75 0.765625 2.203125 1.203125q0.734375 0.703125 0.734375 1.71875q0 0.65625 -0.421875 1.3125q-0.40625 0.640625 -1.25 1.03125q-0.828125 0.375 -1.96875 0.375q-1.5625 0 -2.65625 -0.765625q-1.09375 -0.78125 -1.03125 -2.515625zm14.5859375 1.78125q-1.3125 1.5 -2.75 1.5q-1.28125 0 -2.140625 -0.9375q-0.84375 -0.953125 -0.84375 -2.75q0 -1.640625 0.671875 -2.984375q0.6875 -1.359375 1.6875 -2.03125q1.015625 -0.6875 2.03125 -0.6875q1.671875 0 2.53125 1.609375l1.015625 -4.828125l1.515625 0l-2.578125 12.40625l-1.421875 0l0.28125 -1.296875zm-4.203125 -2.46875q0 0.9375 0.1875 1.484375q0.1875 0.53125 0.625 0.890625q0.453125 0.359375 1.078125 0.359375q1.046875 0 1.890625 -1.078125q1.140625 -1.4375 1.140625 -3.546875q0 -1.0625 -0.5625 -1.65625q-0.5625 -0.609375 -1.40625 -0.609375q-0.546875 0 -1.0 0.25q-0.453125 0.234375 -0.90625 0.828125q-0.4375 0.578125 -0.75 1.484375q-0.296875 0.90625 -0.296875 1.59375zm13.84021 2.65625q-0.796875 0.671875 -1.546875 1.0q-0.734375 0.3125 -1.5625 0.3125q-1.25 0 -2.015625 -0.734375q-0.75 -0.734375 -0.75 -1.875q0 -0.75 0.34375 -1.328125q0.34375 -0.578125 0.90625 -0.921875q0.5625 -0.359375 1.390625 -0.515625q0.515625 -0.09375 1.953125 -0.15625q1.4375 -0.0625 2.0625 -0.3125q0.1875 -0.625 0.1875 -1.03125q0 -0.53125 -0.390625 -0.84375q-0.53125 -0.421875 -1.5625 -0.421875q-0.953125 0 -1.578125 0.4375q-0.609375 0.421875 -0.890625 1.203125l-1.546875 -0.140625q0.46875 -1.328125 1.5 -2.03125q1.03125 -0.71875 2.59375 -0.71875q1.671875 0 2.640625 0.796875q0.75 0.59375 0.75 1.53125q0 0.71875 -0.21875 1.671875l-0.5 2.234375q-0.234375 1.0625 -0.234375 1.734375q0 0.421875 0.1875 1.21875l-1.546875 0q-0.125 -0.4375 -0.171875 -1.109375zm0.5625 -3.4375q-0.328125 0.125 -0.703125 0.1875q-0.359375 0.0625 -1.21875 0.140625q-1.34375 0.125 -1.890625 0.3125q-0.546875 0.171875 -0.828125 0.578125q-0.28125 0.390625 -0.28125 0.875q0 0.640625 0.4375 1.0625q0.453125 0.40625 1.28125 0.40625q0.75 0 1.453125 -0.390625q0.703125 -0.40625 1.109375 -1.125q0.40625 -0.71875 0.640625 -2.046875zm2.43396 8.015625l0.09375 -1.4375q0.46875 0.140625 0.921875 0.140625q0.46875 0 0.75 -0.21875q0.375 -0.28125 0.8125 -1.046875l0.5 -0.875l-1.5 -9.015625l1.5 0l0.671875 4.546875q0.203125 1.34375 0.359375 2.6875l4.015625 -7.234375l1.59375 0l-5.71875 10.171875q-0.828125 1.5 -1.484375 1.96875q-0.640625 0.484375 -1.46875 0.484375q-0.546875 0 -1.046875 -0.171875z" fill-rule="nonzero"/><path fill="#000000" fill-opacity="0.0" d="m149.30708 81.16535l0 122.14173" fill-rule="evenodd"/><path stroke="#595959" stroke-width="1.0" stroke-linejoin="round" stroke-linecap="butt" d="m149.30708 81.16535l0 116.14173" fill-rule="evenodd"/><path fill="#595959" stroke="#595959" stroke-width="1.0" stroke-linecap="butt" d="m147.65535 197.30708l1.6517334 4.538101l1.6517334 -4.538101z" fill-rule="evenodd"/><path fill="#000000" fill-opacity="0.0" d="m335.0 81.16535l0 122.14173" fill-rule="evenodd"/><path stroke="#595959" stroke-width="1.0" stroke-linejoin="round" stroke-linecap="butt" d="m335.0 81.16535l0 116.14173" fill-rule="evenodd"/><path fill="#595959" stroke="#595959" stroke-width="1.0" stroke-linecap="butt" d="m333.34827 197.30708l1.6517334 4.538101l1.6517334 -4.538101z" fill-rule="evenodd"/><path fill="#000000" fill-opacity="0.0" d="m520.69293 81.16535l0 122.14173" fill-rule="evenodd"/><path stroke="#595959" stroke-width="1.0" stroke-linejoin="round" stroke-linecap="butt" d="m520.69293 81.16535l0 116.14173" fill-rule="evenodd"/><path fill="#595959" stroke="#595959" stroke-width="1.0" stroke-linecap="butt" d="m519.0412 197.30708l1.6517334 4.538101l1.6517334 -4.538101z" fill-rule="evenodd"/></g></svg>