<svg id="Capa_1" enable-background="new 0 0 512 512" height="512" viewBox="0 0 512 512" width="512" xmlns="http://www.w3.org/2000/svg"><g><path d="m256 80.872-10.008 15.461 10.008 14.539h105.916v45.048h30v-75.048z" fill="#b4d2d7"/><path d="m120.084 80.872v75.048h30v-45.048h105.916v-30z" fill="#e1ebf0"/><path d="m482.394 286.024-33.485-145.104h-192.909l-20.016 145.104 20.016 145.104h192.909z" fill="#04303e"/><path d="m63.091 140.92-33.485 145.104 33.485 145.104h192.909v-290.208z" fill="#09607d"/><path d="m0 271.024h256v30h-256z" fill="#0b799d"/><path d="m256 271.024h256v30h-256z" fill="#09607d"/><path d="m316.036 241h-60.036l-20.016 45.024 20.016 45.024h60.036z" fill="#87a0af"/><path d="m195.964 241h60.036v90.048h-60.036z" fill="#b4d2d7"/><path d="m286.036 301.048v-30.048h-30.036l-10.008 15.024 10.008 15.024z" fill="#b4d2d7"/><path d="m225.964 271h30.036v30.048h-30.036z" fill="#e1ebf0"/></g></svg>