<?xml version="1.0" encoding="iso-8859-1"?>
<!-- Generator: Adobe Illustrator 19.0.0, SVG Export Plug-In . SVG Version: 6.00 Build 0)  -->
<svg version="1.1" id="Capa_1" xmlns="http://www.w3.org/2000/svg" xmlns:xlink="http://www.w3.org/1999/xlink" x="0px" y="0px"
	 viewBox="0 0 512 512" style="enable-background:new 0 0 512 512;" xml:space="preserve">
<linearGradient id="SVGID_1_" gradientUnits="userSpaceOnUse" x1="-328.2908" y1="260.1515" x2="-328.2908" y2="261.1015" gradientTransform="matrix(430.08 0 0 512 141447.3125 -133187.3125)">
	<stop  offset="0" style="stop-color:#FF9400"/>
	<stop  offset="1" style="stop-color:#FF5F39"/>
</linearGradient>
<path style="fill:url(#SVGID_1_);" d="M256,0C149.135,0,40.96,24.617,40.96,71.68v1.065C73.544,105.001,147.886,122.88,256,122.88
	s182.456-17.879,215.04-50.135V71.68C471.04,24.617,362.865,0,256,0 M40.96,346.051v94.269C40.96,487.383,149.135,512,256,512
	s215.04-24.617,215.04-71.68v-94.269C435.63,370.155,371.343,389.12,256,389.12S76.37,370.155,40.96,346.051 M40.96,100.291v95.334
	C73.544,227.881,147.886,245.76,256,245.76s182.456-17.879,215.04-50.135v-95.334C435.63,124.396,371.343,143.36,256,143.36
	S76.37,124.396,40.96,100.291 M256,266.24c115.343,0,179.63-18.964,215.04-43.069v95.334C438.456,350.761,364.114,368.64,256,368.64
	S73.544,350.761,40.96,318.505v-95.334C76.37,247.276,140.657,266.24,256,266.24"/>
<g>
</g>
<g>
</g>
<g>
</g>
<g>
</g>
<g>
</g>
<g>
</g>
<g>
</g>
<g>
</g>
<g>
</g>
<g>
</g>
<g>
</g>
<g>
</g>
<g>
</g>
<g>
</g>
<g>
</g>
</svg>
