<svg width="28" height="27" viewBox="0 0 28 27" fill="none" xmlns="http://www.w3.org/2000/svg"><path fill-rule="evenodd" clip-rule="evenodd" d="M13.601 0a13.597 13.597 0 00-4.298 26.498c.676.126.928-.295.928-.655 0-.325-.011-1.394-.018-2.531-3.783.822-4.58-1.603-4.58-1.603-.619-1.576-1.51-1.99-1.51-1.99-1.234-.845.092-.827.092-.827 1.366.097 2.085 1.4 2.085 1.4 1.213 2.079 3.181 1.48 3.956 1.126.123-.878.475-1.477.864-1.817-3.01-.34-6.196-1.506-6.196-6.716a5.257 5.257 0 011.403-3.654c-.142-.342-.608-1.725.13-3.602 0 0 1.142-.365 3.74 1.393a12.92 12.92 0 016.81 0c2.585-1.749 3.736-1.393 3.736-1.393.739 1.873.275 3.255.133 3.602a5.255 5.255 0 011.398 3.65c0 5.223-3.18 6.371-6.207 6.71.486.42.92 1.249.92 2.516 0 1.82-.013 3.285-.013 3.731 0 .363.243.786.932.653A13.596 13.596 0 0013.601 0z" fill="#21222C"/><path d="M5.154 19.52c-.03.068-.135.088-.225.043s-.156-.137-.124-.205c.031-.067.137-.087.225-.042.088.045.155.137.122.204h.002zm.551.615c-.065.06-.191.032-.279-.063a.207.207 0 01-.038-.281c.067-.061.189-.032.279.063.09.094.106.225.038.281zm.536.783c-.083.059-.225 0-.304-.117-.079-.117-.083-.265 0-.324.084-.058.225 0 .304.115.079.115.084.268 0 .326zm.743.757a.255.255 0 01-.358-.06c-.12-.111-.153-.266-.076-.348.076-.08.225-.06.35.052.127.113.154.266.075.347l.01.009zm1.004.439c-.033.106-.184.155-.34.11-.155-.045-.254-.17-.225-.279.03-.108.185-.157.34-.11.156.047.255.17.225.279z" fill="#fff"/><path d="M9.1 22.195c0 .113-.126.205-.288.207-.162.002-.292-.085-.295-.198-.002-.113.126-.205.29-.207.165-.002.293.088.293.198zm1.036-.175c.02.11-.092.225-.252.252-.16.027-.304-.039-.324-.149-.02-.11.094-.225.252-.252.158-.027.304.038.324.148z" fill="#1E1F27"/></svg>