<svg viewBox="0 0 247.05 46.75" xmlns="http://www.w3.org/2000/svg"><path d="m39.29 0h-15.56v20.64h20.64v-15.56a5.08 5.08 0 0 0 -5.08-5.08" fill="#2d7de4"/><g fill="#041a3b"><path d="m39.29 26.11h-10.48a5.07 5.07 0 0 0 -5.08 5.08v15.56h20.64v-15.56a5.07 5.07 0 0 0 -5.08-5.08"/><path d="m17.69 46.75h-12.53a5.16 5.16 0 0 1 -5.16-5.16v-36.43a5.16 5.16 0 0 1 5.16-5.16h12.53z"/><path d="m192.14 29.79c-3.24 0-4.82 1.07-4.82 3.28s1.18 3.29 3.72 3.29a11 11 0 0 0 6.65-2v-4.19a39.82 39.82 0 0 0 -5.55-.38m10.37 10.63h-2.89l-1.29-2.1a13.61 13.61 0 0 1 -7.29 2.1c-5.67 0-8.54-2.45-8.54-7.28s3.24-7.42 9.64-7.42a41.52 41.52 0 0 1 5.55.38v-1.69c0-2.37-1.88-3.52-5.74-3.52a25.16 25.16 0 0 0 -7.09 1.11l-.52.15v-4.15l.29-.08a26.06 26.06 0 0 1 7.32-1.1c7 0 10.56 2.51 10.56 7.47z"/><path d="m79.84 40.42h-4.84v-14.77a4.64 4.64 0 0 0 -4.37-4.65h-.26a9.13 9.13 0 0 0 -6.15 2.65v16.77h-4.82v-32.48h2.48a2.34 2.34 0 0 1 2.34 2.34v8.6a11.16 11.16 0 0 1 6.69-2.05c5.93 0 8.93 3 8.93 8.89z"/><path d="m92.78 29.79c-3.25 0-4.83 1.07-4.83 3.28s1.18 3.29 3.72 3.29a10.94 10.94 0 0 0 6.65-2v-4.19a39.78 39.78 0 0 0 -5.54-.38m10.36 10.63h-2.89l-1.25-2.1a13.58 13.58 0 0 1 -7.29 2.1c-5.67 0-8.54-2.45-8.54-7.28s3.24-7.42 9.65-7.42a41.48 41.48 0 0 1 5.54.38v-1.69c0-2.37-1.88-3.52-5.74-3.52a25.16 25.16 0 0 0 -7.13 1.11l-.52.15v-4.15l.29-.08a26.06 26.06 0 0 1 7.32-1.1c7 0 10.56 2.51 10.56 7.47z"/><path d="m125.2 40.42h-18.6v-3.59l.1-.11 13.22-15.83h-12.88v-4.06h18.59v3.8l-.09.11-13.06 15.83h12.72z"/><path d="m132.5 26h11.5c-.2-3.49-2-5.18-5.44-5.18-3.69 0-5.66 1.69-6 5.18m7.29 14.39c-8.06 0-12.14-4.06-12.14-12.06 0-7.65 3.66-11.53 10.88-11.53 6.72 0 10.12 3.37 10.12 10a24.34 24.34 0 0 1 -.19 3l-.05.36h-15.99c.15 4.15 2.68 6.18 7.74 6.18a24.56 24.56 0 0 0 6.78-.84l.52-.14v4.09l-.3.08a27.12 27.12 0 0 1 -7.44.89"/><path d="m157.47 40.42h-4.82v-32.48h2.48a2.34 2.34 0 0 1 2.34 2.34z"/><path d="m173.5 40.42c-8.33 0-12.55-4.12-12.55-12.23 0-7.54 4.22-11.36 12.55-11.36a27.53 27.53 0 0 1 6.17.66l.31.07v4.08l-.49-.11a27.56 27.56 0 0 0 -6.21-.64c-5.05 0-7.51 2.39-7.51 7.3 0 5.49 2.46 8.17 7.51 8.17a28.15 28.15 0 0 0 6.21-.64l.49-.12v4.09l-.31.07a27.53 27.53 0 0 1 -6.17.66"/><path d="m215.61 40.42a31.48 31.48 0 0 1 -8.22-1.1l-.3-.08v-4.34l.52.17a25.7 25.7 0 0 0 8 1.29c5 0 5-2.15 5-2.86 0-1.13-.35-2.63-3.4-2.63h-3.21c-5.16 0-7.78-2.4-7.78-7.13s3.33-6.91 9.89-6.91a31.31 31.31 0 0 1 8.19 1.1l.3.08v4.33l-.52-.17a25.89 25.89 0 0 0 -8-1.28c-5.29 0-5.29 2.15-5.29 2.85 0 1.8 1 2.64 3.18 2.64h3.25c5.46 0 8.22 2.39 8.22 7.12s-3.32 6.92-9.86 6.92"/><path d="m239.44 40.42h-4.22c-4.07 0-6.13-2.2-6.13-6.55v-20.73h3.24l.86 3.69h6.25v4.06h-5.53v12.68c0 1.9.75 2.79 2.35 2.79h3.18z"/><path d="m247.05 14a4.07 4.07 0 0 1 -.28 1.57 3.58 3.58 0 0 1 -.78 1.17 3.3 3.3 0 0 1 -1.11.73 3.58 3.58 0 0 1 -1.34.25 3.53 3.53 0 0 1 -1.33-.25 3.24 3.24 0 0 1 -1.12-.73 3.56 3.56 0 0 1 -.77-1.17 4.37 4.37 0 0 1 0-3.13 3.56 3.56 0 0 1 .77-1.17 3.24 3.24 0 0 1 1.12-.73 3.53 3.53 0 0 1 1.33-.25 3.58 3.58 0 0 1 1.34.25 3.3 3.3 0 0 1 1.11.73 3.58 3.58 0 0 1 .78 1.17 4.05 4.05 0 0 1 .28 1.56zm-.75 0a3.69 3.69 0 0 0 -.2-1.23 2.85 2.85 0 0 0 -.57-1 2.67 2.67 0 0 0 -.87-.62 3.07 3.07 0 0 0 -2.23 0 2.47 2.47 0 0 0 -.87.62 2.56 2.56 0 0 0 -.57 1 3.74 3.74 0 0 0 0 2.47 2.72 2.72 0 0 0 .57 1 2.47 2.47 0 0 0 .87.62 3.07 3.07 0 0 0 2.23 0 2.67 2.67 0 0 0 .87-.62 3.06 3.06 0 0 0 .57-1 3.71 3.71 0 0 0 .2-1.24zm-1.74 2a8.55 8.55 0 0 0 -.53-.88q-.3-.42-.51-.66h-.69v1.54h-.73v-4a5.21 5.21 0 0 1 .59-.09h.56a2.32 2.32 0 0 1 1.35.33 1.13 1.13 0 0 1 .46 1 1.15 1.15 0 0 1 -.2.67 1.2 1.2 0 0 1 -.57.43l.24.31a4.86 4.86 0 0 1 .27.41c.1.15.2.31.29.47s.18.33.26.5zm-1.73-2.14h.39a1.9 1.9 0 0 0 .77-.13.5.5 0 0 0 .31-.53.54.54 0 0 0 -.29-.52 1.54 1.54 0 0 0 -.7-.15h-.24-.24z"/></g></svg>