<?xml version="1.0" encoding="iso-8859-1"?>
<!-- Generator: Adobe Illustrator 19.0.0, SVG Export Plug-In . SVG Version: 6.00 Build 0)  -->
<svg version="1.1" id="Capa_1" xmlns="http://www.w3.org/2000/svg" xmlns:xlink="http://www.w3.org/1999/xlink" x="0px" y="0px"
	 viewBox="0 0 512 512" style="enable-background:new 0 0 512 512;" xml:space="preserve">
<linearGradient id="SVGID_1_" gradientUnits="userSpaceOnUse" x1="-329.6843" y1="261.53" x2="-329.6843" y2="262.53" gradientTransform="matrix(512 0 0 471.0298 169054.3594 -123167.4063)">
	<stop  offset="0" style="stop-color:#FFDB4A"/>
	<stop  offset="1" style="stop-color:#FFBB01"/>
</linearGradient>
<path style="fill:url(#SVGID_1_);" d="M506.348,246.84c3.461,1.741,5.652,5.284,5.652,9.155c0,3.891-2.191,7.434-5.652,9.175
	l-245.76,122.88c-1.434,0.717-3.011,1.065-4.588,1.065c-1.556,0-3.133-0.348-4.567-1.065L5.673,265.17
	C2.212,263.429,0,259.886,0,255.995c0-3.871,2.212-7.414,5.673-9.155l61.174-30.597l175.411,87.716
	c4.239,2.13,9.011,3.236,13.742,3.236c4.751,0,9.503-1.106,13.742-3.236l175.432-87.716L506.348,246.84z M506.348,349.24
	c3.461,1.741,5.652,5.284,5.652,9.155c0,3.891-2.191,7.434-5.652,9.175l-245.76,122.88c-1.434,0.717-3.011,1.065-4.588,1.065
	c-1.556,0-3.133-0.348-4.567-1.065L5.673,367.57C2.212,365.829,0,362.286,0,358.395c0-3.871,2.212-7.414,5.673-9.155l61.174-30.597
	l175.411,87.716c4.239,2.13,9.011,3.236,13.742,3.236c4.751,0,9.503-1.106,13.742-3.236l175.432-87.716L506.348,349.24z
	 M506.348,144.44c3.461,1.741,5.652,5.284,5.652,9.155c0,3.891-2.191,7.434-5.652,9.175l-245.76,122.88
	c-1.434,0.717-3.011,1.065-4.588,1.065c-1.556,0-3.133-0.348-4.567-1.065L5.673,162.77C2.212,161.029,0,157.486,0,153.595
	c0-3.871,2.212-7.414,5.673-9.155l245.76-122.88c2.867-1.434,6.267-1.434,9.155,0L506.348,144.44z"/>
<g>
</g>
<g>
</g>
<g>
</g>
<g>
</g>
<g>
</g>
<g>
</g>
<g>
</g>
<g>
</g>
<g>
</g>
<g>
</g>
<g>
</g>
<g>
</g>
<g>
</g>
<g>
</g>
<g>
</g>
</svg>
