<?xml version="1.0" encoding="iso-8859-1"?>
<!-- Generator: Adobe Illustrator 19.0.0, SVG Export Plug-In . SVG Version: 6.00 Build 0)  -->
<svg version="1.1" id="Capa_1" xmlns="http://www.w3.org/2000/svg" xmlns:xlink="http://www.w3.org/1999/xlink" x="0px" y="0px"
	 viewBox="0 0 512 512" style="enable-background:new 0 0 512 512;" xml:space="preserve">
<linearGradient id="SVGID_1_" gradientUnits="userSpaceOnUse" x1="-355.3643" y1="171.7777" x2="-355.3643" y2="172.7677" gradientTransform="matrix(512 0 0 471.0441 182202.5156 -80893.0625)">
	<stop  offset="0" style="stop-color:#FFDB4A"/>
	<stop  offset="1" style="stop-color:#FFBB01"/>
</linearGradient>
<path style="fill:url(#SVGID_1_);" d="M512,358.403c0,3.871-2.191,7.414-5.652,9.155l-245.76,122.88
	c-1.454,0.717-3.011,1.085-4.588,1.085c-1.577,0-3.133-0.369-4.588-1.085L5.652,367.557C2.191,365.816,0,362.273,0,358.403
	s2.191-7.414,5.652-9.155l56.525-28.262c5.059-2.539,11.203-0.471,13.742,4.567c2.54,5.079,0.471,11.203-4.588,13.742
	l-38.195,19.108L256,469.834l222.863-111.432l-38.195-19.108c-5.059-2.54-7.127-8.663-4.588-13.742
	c2.54-5.038,8.663-7.107,13.742-4.567l56.525,28.262C509.809,350.989,512,354.532,512,358.403L512,358.403z M512,256.003
	c0,3.871-2.191,7.414-5.652,9.155l-245.76,122.88c-1.454,0.717-3.011,1.085-4.588,1.085c-1.577,0-3.133-0.369-4.588-1.085
	L5.652,265.157C2.191,263.416,0,259.873,0,256.003s2.191-7.414,5.652-9.155l56.525-28.262c5.059-2.54,11.203-0.492,13.742,4.567
	c2.54,5.079,0.471,11.203-4.588,13.742l-38.195,19.108L256,367.434l222.863-111.432l-38.195-19.108
	c-5.059-2.54-7.127-8.663-4.588-13.742c2.54-5.059,8.663-7.107,13.742-4.567l56.525,28.262C509.809,248.589,512,252.132,512,256.003
	L512,256.003z M256,42.171l222.863,111.432L256,265.034L33.137,153.603L256,42.171z M5.652,162.757l245.76,122.88
	c1.454,0.717,3.011,1.085,4.588,1.085c1.577,0,3.133-0.369,4.588-1.085l245.76-122.88c3.461-1.741,5.652-5.284,5.652-9.155
	s-2.191-7.414-5.652-9.155l-245.76-122.88c-2.888-1.454-6.287-1.454-9.175,0L5.652,144.448C2.191,146.189,0,149.732,0,153.603
	S2.191,161.016,5.652,162.757L5.652,162.757z"/>
<g>
</g>
<g>
</g>
<g>
</g>
<g>
</g>
<g>
</g>
<g>
</g>
<g>
</g>
<g>
</g>
<g>
</g>
<g>
</g>
<g>
</g>
<g>
</g>
<g>
</g>
<g>
</g>
<g>
</g>
</svg>
