<?xml version="1.0" encoding="iso-8859-1"?>
<!-- Generator: Adobe Illustrator 19.0.0, SVG Export Plug-In . SVG Version: 6.00 Build 0)  -->
<svg version="1.1" id="Capa_1" xmlns="http://www.w3.org/2000/svg" xmlns:xlink="http://www.w3.org/1999/xlink" x="0px" y="0px"
	 viewBox="0 0 512 512" style="enable-background:new 0 0 512 512;" xml:space="preserve">
<path style="fill:#FFCC00;" d="M10.24,256C10.24,120.279,120.279,10.24,256,10.24S501.76,120.279,501.76,256
	S391.721,501.76,256,501.76S10.24,391.721,10.24,256"/>
<path d="M367.595,231.014c1.72,3.523,1.27,7.7-1.126,10.772l-143.36,184.32c-1.987,2.58-4.997,3.973-8.09,3.973
	c-1.556,0-3.154-0.369-4.608-1.106c-4.383-2.212-6.574-7.229-5.222-11.96l37.233-130.294H153.6c-3.912,0-7.475-2.232-9.196-5.755
	c-1.72-3.502-1.29-7.701,1.106-10.772l143.36-184.32c3.011-3.871,8.335-5.038,12.718-2.867c4.383,2.232,6.554,7.25,5.222,11.96
	L269.578,225.28H358.4C362.312,225.28,365.875,227.492,367.595,231.014 M256,491.52C126.116,491.52,20.48,385.864,20.48,256
	S126.116,20.48,256,20.48c129.864,0,235.52,105.656,235.52,235.52S385.864,491.52,256,491.52 M256,0C114.831,0,0,114.831,0,256
	c0,141.148,114.831,256,256,256c141.148,0,256-114.852,256-256C512,114.831,397.148,0,256,0"/>
<path style="opacity:0.12;enable-background:new    ;" d="M500.715,225.28c-5.325,0-9.769,4.076-10.199,9.4
	C480.522,355.738,377.487,450.56,256,450.56c-121.508,0-224.522-94.822-234.516-215.88c-0.451-5.325-4.895-9.4-10.199-9.4
	c-5.325,0-9.769,4.076-10.199,9.4C0.492,241.725,0,248.791,0,256c0,141.169,114.831,256,256,256c141.148,0,256-114.831,256-256
	c0-7.209-0.512-14.275-1.085-21.32C510.484,229.356,506.04,225.28,500.715,225.28"/>
<g>
</g>
<g>
</g>
<g>
</g>
<g>
</g>
<g>
</g>
<g>
</g>
<g>
</g>
<g>
</g>
<g>
</g>
<g>
</g>
<g>
</g>
<g>
</g>
<g>
</g>
<g>
</g>
<g>
</g>
</svg>
