<svg id="Layer_1" data-name="Layer 1" xmlns="http://www.w3.org/2000/svg" viewBox="0 0 231.7 50.2"><defs><style>.cls-1{fill:#0b2a35;}.cls-2{fill:#2e7de1;}</style></defs><title>Hazelcast-Jet-Logo-Blue_Dark</title><path class="cls-1" d="M161.79,38.15H159.7l-.93-1.52a9.83,9.83,0,0,1-5.27,1.52c-4.1,0-6.18-1.77-6.18-5.27s2.35-5.36,7-5.36a30.31,30.31,0,0,1,4,.27V26.58c0-1.72-1.36-2.55-4.15-2.55a18.19,18.19,0,0,0-5.13.77l-.37.11V22l.21-.06a18.81,18.81,0,0,1,5.29-.8c5.07,0,7.63,1.82,7.63,5.41V38.15Zm-7.49-7.69c-2.35,0-3.49.78-3.49,2.38s.86,2.38,2.69,2.38a7.93,7.93,0,0,0,4.81-1.46v-3A29.56,29.56,0,0,0,154.29,30.47Z"/><path class="cls-1" d="M73.09,38.15H69.6V27.47a3.36,3.36,0,0,0-3.18-3.38h-.19A6.58,6.58,0,0,0,61.79,26V38.15H58.31V14.67H60.1a1.69,1.69,0,0,1,1.69,1.69v6.21a8.05,8.05,0,0,1,4.84-1.48c4.29,0,6.46,2.16,6.46,6.43V38.15Z"/><path class="cls-1" d="M89.93,38.15H87.85l-.93-1.52a9.82,9.82,0,0,1-5.27,1.52c-4.1,0-6.18-1.77-6.18-5.27s2.35-5.36,7-5.36a30.31,30.31,0,0,1,4,.27V26.58c0-1.72-1.36-2.55-4.15-2.55a18.19,18.19,0,0,0-5.13.77l-.37.11V22l.21-.06a18.81,18.81,0,0,1,5.29-.8c5.07,0,7.63,1.82,7.63,5.41V38.15Zm-7.49-7.69c-2.35,0-3.49.78-3.49,2.38s.85,2.38,2.69,2.38a7.93,7.93,0,0,0,4.81-1.46v-3A29.57,29.57,0,0,0,82.44,30.47Z"/><path class="cls-1" d="M105.88,38.15H92.44V35.56l.07-.08L102.07,24H92.75V21.1H106.2v2.75l-.07.08L96.69,35.37h9.2v2.78Z"/><path class="cls-1" d="M116.43,38.15c-5.83,0-8.78-2.93-8.78-8.72,0-5.53,2.65-8.34,7.87-8.34,4.86,0,7.32,2.44,7.32,7.24a17.31,17.31,0,0,1-.14,2.15l0,.26H111.15c.11,3,1.94,4.47,5.6,4.47a17.81,17.81,0,0,0,4.91-.62l.37-.11v3l-.21.06A19.8,19.8,0,0,1,116.43,38.15Zm-5.27-10.4h8.29C119.31,25.23,118,24,115.52,24,112.86,24,111.43,25.23,111.17,27.75Z"/><path class="cls-1" d="M129.22,38.15h-3.49V14.67h1.8a1.69,1.69,0,0,1,1.69,1.69V38.15Z"/><path class="cls-1" d="M140.81,38.15c-6,0-9.08-3-9.08-8.84,0-5.45,3.05-8.22,9.08-8.22a19.89,19.89,0,0,1,4.46.48l.23.05v3l-.36-.08a20.09,20.09,0,0,0-4.48-.46c-3.66,0-5.44,1.73-5.44,5.28,0,4,1.78,5.91,5.44,5.91a20.1,20.1,0,0,0,4.48-.46l.36-.08v3l-.23.05A19.94,19.94,0,0,1,140.81,38.15Z"/><path class="cls-1" d="M171.26,38.15a22.83,22.83,0,0,1-5.94-.79l-.22-.06V34.17l.38.12a18.7,18.7,0,0,0,5.78.93c3.65,0,3.65-1.55,3.65-2.06,0-.82-.26-1.9-2.45-1.9H170.1c-3.73,0-5.63-1.73-5.63-5.15s2.41-5,7.15-5a22.75,22.75,0,0,1,5.93.79l.22.06v3.13l-.38-.12a18.66,18.66,0,0,0-5.76-.93c-3.82,0-3.82,1.55-3.82,2.06,0,1.3.73,1.9,2.3,1.9h2.35c3.94,0,5.94,1.73,5.94,5.15S176,38.15,171.26,38.15Z"/><path class="cls-1" d="M188.49,38.15h-3.05c-2.94,0-4.43-1.59-4.43-4.73v-15h2.34L184,21.1h4.52V24h-4V33.2c0,1.38.54,2,1.7,2h2.3v2.94Z"/><path class="cls-2" d="M202.71,21V33.13Q202.71,38,196,38V35.29q3.57,0,3.57-2.17V21Z"/><path class="cls-2" d="M217.54,21v2.72H209V28h8.13v2.82H209v4.47h8.73V38H205.88V21Z"/><path class="cls-2" d="M231.7,21v2.74h-4.88V38h-3.16V23.74h-4.88V21Z"/><path class="cls-1" d="M22.72,18.49c.2-.07.4-.13.6-.18,0-.41-.05-.81-.06-1.22a29.54,29.54,0,0,1,.89-8.23l.2-.74a14.06,14.06,0,0,0-4.78-3.71,21.24,21.24,0,0,0-2.67.91l.78,1.89Z"/><path class="cls-1" d="M11.11,11.1l9.26,8.78q.24-.21.49-.4c-.18-.36-.35-.72-.52-1.08A29.62,29.62,0,0,1,18,10.45l-.1-.75a14.06,14.06,0,0,0-5.82-1.6A21.59,21.59,0,0,0,10,10l1.16,1.16Z"/><path class="cls-1" d="M6.83,17.5l11.88,4.57q.14-.29.3-.56c-.29-.26-.59-.52-.87-.79a29.65,29.65,0,0,1-5.19-6.46l-.37-.63a14.06,14.06,0,0,0-6,.74A21.34,21.34,0,0,0,5.31,16.9l1.59.66Z"/><path class="cls-1" d="M5.33,25.07,18,24.75q0-.33.06-.64c-.37-.13-.73-.25-1.09-.39a29.65,29.65,0,0,1-7.26-4l-.58-.44a14.06,14.06,0,0,0-5.29,3,21.49,21.49,0,0,0-.19,2.81H5.45Z"/><path class="cls-2" d="M39.06,11.15l-8.82,9.3q.2.22.38.46c.39-.19.78-.38,1.18-.56A29.49,29.49,0,0,1,39.73,18l.74-.1a14.06,14.06,0,0,0,1.62-5.86A21.6,21.6,0,0,0,40.24,10L39,11.16Z"/><path class="cls-1" d="M25.43,18.12l.61.06c.13-.39.27-.79.42-1.18a29.47,29.47,0,0,1,4-7.25l.47-.62a14.06,14.06,0,0,0-3-5.27,21.49,21.49,0,0,0-2.81-.19V6Z"/><path class="cls-2" d="M28.07,18.81q.27.13.53.29c.28-.32.56-.64.86-.95A29.42,29.42,0,0,1,35.91,13l.66-.38a14.06,14.06,0,0,0-.74-6A21.35,21.35,0,0,0,33.3,5.31l-.8,1.93Z"/><path class="cls-1" d="M43.35,17.57,31.61,22.78c.07.18.12.37.17.57.44,0,.88-.05,1.32-.07a29.23,29.23,0,0,1,8.23.91l.7.19a14.06,14.06,0,0,0,3.75-4.81,21.24,21.24,0,0,0-.91-2.67l-1.63.67Z"/><path class="cls-1" d="M27.45,31.66l-.58.19c0,.42.05.84.07,1.26A29.51,29.51,0,0,1,26,41.33l-.2.74a14.06,14.06,0,0,0,4.77,3.71,21.24,21.24,0,0,0,2.67-.91L32.51,43Z"/><path class="cls-1" d="M39.09,39.1l-9.34-8.86c-.15.13-.29.26-.45.38.19.39.38.78.56,1.18a29.61,29.61,0,0,1,2.33,7.95l.1.75a14.06,14.06,0,0,0,5.82,1.6,21.59,21.59,0,0,0,2.13-1.86l-1.16-1.16Z"/><path class="cls-1" d="M43.37,32.69l-12-4.63c-.08.18-.17.35-.27.52.33.29.66.58,1,.89a29.66,29.66,0,0,1,5.19,6.46l.37.63a14.06,14.06,0,0,0,6-.74,21.34,21.34,0,0,0,1.26-2.53l-1.59-.66Z"/><path class="cls-1" d="M44.75,25.1l.12,0L32,25.45c0,.2,0,.39-.05.58.42.14.84.29,1.25.45a29.65,29.65,0,0,1,7.26,4l.58.44a14.06,14.06,0,0,0,5.29-3,21.49,21.49,0,0,0,.19-2.81H44.75Z"/><path class="cls-1" d="M22.1,31.46c-.19-.09-.38-.19-.57-.29-.26.3-.52.59-.8.88a29.45,29.45,0,0,1-6.45,5.17l-.66.38a14.06,14.06,0,0,0,.74,6,21.34,21.34,0,0,0,2.53,1.26L17.7,43Z"/><path class="cls-1" d="M11.14,39l8.74-9.21q-.22-.24-.42-.49c-.35.17-.7.34-1.05.5a29.48,29.48,0,0,1-7.94,2.31l-.74.1A14.06,14.06,0,0,0,8.1,38.11,21.59,21.59,0,0,0,10,40.24l1.2-1.2Z"/><path class="cls-1" d="M6.85,32.63l11.59-5.15q-.11-.3-.19-.62l-1.15.06h-.81A28.87,28.87,0,0,1,8.87,26l-.7-.19a14.06,14.06,0,0,0-3.75,4.81,21.24,21.24,0,0,0,.91,2.67l1.63-.67Z"/><path class="cls-1" d="M24.77,32.09l-.62,0c-.13.39-.26.77-.41,1.15a29.46,29.46,0,0,1-4,7.25l-.47.62a14.06,14.06,0,0,0,3,5.27,21.5,21.5,0,0,0,2.81.19h0V44.19Z"/><circle class="cls-1" cx="25.02" cy="25.1" r="5.21"/><path class="cls-1" d="M25.1,50.2A25.1,25.1,0,1,1,50.2,25.1,25.13,25.13,0,0,1,25.1,50.2Zm0-48.57A23.47,23.47,0,1,0,48.57,25.1,23.49,23.49,0,0,0,25.1,1.63Z"/></svg>