<?xml version="1.0" encoding="utf-8"?>
<!-- Generator: Adobe Illustrator 21.1.0, SVG Export Plug-In . SVG Version: 6.00 Build 0)  -->
<svg version="1.1" id="Layer_1" xmlns="http://www.w3.org/2000/svg" xmlns:xlink="http://www.w3.org/1999/xlink" x="0px" y="0px"
	 viewBox="0 0 231.7 50.2" style="enable-background:new 0 0 231.7 50.2;" xml:space="preserve">
<style type="text/css">
	.st0{fill:#FFFFFF;}
	.st1{fill:#2E7DE1;}
</style>
<g>
	<g>
		<g>
			<g>
				<g>
					<g>
						<path class="st0" d="M161.8,38.2h-2.1l-0.9-1.5c-1.6,1-3.4,1.5-5.3,1.5c-4.1,0-6.2-1.8-6.2-5.3c0-3.6,2.3-5.4,7-5.4
							c1.3,0,2.7,0.1,4,0.3v-1.2c0-1.7-1.4-2.5-4.1-2.5c-1.7,0-3.4,0.3-5.1,0.8l-0.4,0.1v-3l0.2-0.1c1.8-0.5,3.6-0.8,5.3-0.8
							c5.1,0,7.6,1.8,7.6,5.4L161.8,38.2L161.8,38.2z M154.3,30.5c-2.3,0-3.5,0.8-3.5,2.4c0,1.6,0.9,2.4,2.7,2.4
							c1.9,0,3.5-0.5,4.8-1.5v-3C157,30.6,155.6,30.5,154.3,30.5z"/>
					</g>
				</g>
			</g>
			<g>
				<g>
					<g>
						<path class="st0" d="M73.1,38.2h-3.5V27.5c0-1.8-1.4-3.3-3.2-3.4l-0.2,0c-1.5,0-3,0.6-4.4,1.9v12.1h-3.5V14.7h1.8
							c0.9,0,1.7,0.8,1.7,1.7v6.2c1.4-1,3-1.5,4.8-1.5c4.3,0,6.5,2.2,6.5,6.4L73.1,38.2L73.1,38.2z"/>
					</g>
				</g>
			</g>
			<g>
				<g>
					<g>
						<path class="st0" d="M89.9,38.2h-2.1l-0.9-1.5c-1.6,1-3.4,1.5-5.3,1.5c-4.1,0-6.2-1.8-6.2-5.3c0-3.6,2.3-5.4,7-5.4
							c1.3,0,2.7,0.1,4,0.3v-1.2c0-1.7-1.4-2.5-4.1-2.5c-1.7,0-3.4,0.3-5.1,0.8l-0.4,0.1v-3l0.2-0.1c1.8-0.5,3.6-0.8,5.3-0.8
							c5.1,0,7.6,1.8,7.6,5.4L89.9,38.2L89.9,38.2z M82.4,30.5c-2.3,0-3.5,0.8-3.5,2.4c0,1.6,0.9,2.4,2.7,2.4c1.9,0,3.5-0.5,4.8-1.5
							v-3C85.1,30.6,83.8,30.5,82.4,30.5z"/>
					</g>
				</g>
			</g>
			<g>
				<g>
					<g>
						<path class="st0" d="M105.9,38.2H92.4v-2.6l0.1-0.1l9.6-11.4h-9.3v-2.9h13.4v2.7l-0.1,0.1l-9.4,11.4h9.2V38.2L105.9,38.2z"/>
					</g>
				</g>
			</g>
			<g>
				<g>
					<g>
						<path class="st0" d="M116.4,38.2c-5.8,0-8.8-2.9-8.8-8.7c0-5.5,2.6-8.3,7.9-8.3c4.9,0,7.3,2.4,7.3,7.2c0,0.7,0,1.4-0.1,2.2
							l0,0.3h-11.5c0.1,3,1.9,4.5,5.6,4.5c1.8,0,3.5-0.2,4.9-0.6l0.4-0.1v3l-0.2,0.1C120.3,37.9,118.5,38.2,116.4,38.2z M111.2,27.7
							h8.3c-0.1-2.5-1.4-3.7-3.9-3.7C112.9,24,111.4,25.2,111.2,27.7z"/>
					</g>
				</g>
			</g>
			<g>
				<g>
					<g>
						<path class="st0" d="M129.2,38.2h-3.5V14.7h1.8c0.9,0,1.7,0.8,1.7,1.7L129.2,38.2L129.2,38.2z"/>
					</g>
				</g>
			</g>
			<g>
				<g>
					<g>
						<path class="st0" d="M140.8,38.2c-6,0-9.1-3-9.1-8.8c0-5.5,3.1-8.2,9.1-8.2c1.6,0,3.1,0.2,4.5,0.5l0.2,0.1v3l-0.4-0.1
							c-1.3-0.3-2.8-0.5-4.5-0.5c-3.7,0-5.4,1.7-5.4,5.3c0,4,1.8,5.9,5.4,5.9c1.6,0,3.2-0.2,4.5-0.5l0.4-0.1v3l-0.2,0.1
							C143.9,38,142.4,38.2,140.8,38.2z"/>
					</g>
				</g>
			</g>
			<g>
				<g>
					<g>
						<path class="st0" d="M171.3,38.2c-2,0-4-0.3-5.9-0.8l-0.2-0.1v-3.1l0.4,0.1c1.9,0.6,3.8,0.9,5.8,0.9c3.6,0,3.6-1.6,3.6-2.1
							c0-0.8-0.3-1.9-2.5-1.9h-2.4c-3.7,0-5.6-1.7-5.6-5.2c0-3.3,2.4-5,7.1-5c2,0,4,0.3,5.9,0.8l0.2,0.1v3.1l-0.4-0.1
							c-1.9-0.6-3.8-0.9-5.8-0.9c-3.8,0-3.8,1.6-3.8,2.1c0,1.3,0.7,1.9,2.3,1.9h2.4c3.9,0,5.9,1.7,5.9,5.2
							C178.4,36.5,176,38.2,171.3,38.2z"/>
					</g>
				</g>
			</g>
			<g>
				<g>
					<g>
						<path class="st0" d="M188.5,38.2h-3.1c-2.9,0-4.4-1.6-4.4-4.7v-15h2.3l0.6,2.7h4.5V24h-4v9.2c0,1.4,0.5,2,1.7,2h2.3V38.2
							L188.5,38.2z"/>
					</g>
				</g>
			</g>
		</g>
	</g>
	<g>
		<path class="st1" d="M202.7,21v12.1c0,3.3-2.2,4.9-6.7,4.9v-2.7c2.4,0,3.6-0.7,3.6-2.2V21H202.7z"/>
		<path class="st1" d="M217.5,21v2.7H209V28h8.1v2.8H209v4.5h8.7V38h-11.8V21H217.5z"/>
		<path class="st1" d="M231.7,21v2.7h-4.9V38h-3.2V23.7h-4.9V21H231.7z"/>
	</g>
	<g>
		<g>
			<path class="st0" d="M22.7,18.5c0.2-0.1,0.4-0.1,0.6-0.2c0-0.4-0.1-0.8-0.1-1.2c-0.1-2.9,0.2-5.7,0.9-8.2l0.2-0.7
				c-1.3-1.6-3-2.8-4.8-3.7c-0.9,0.2-1.8,0.5-2.7,0.9l0.8,1.9L22.7,18.5z"/>
			<path class="st0" d="M11.1,11.1l9.3,8.8c0.2-0.1,0.3-0.3,0.5-0.4c-0.2-0.4-0.4-0.7-0.5-1.1c-1.2-2.6-2-5.4-2.3-7.9l-0.1-0.7
				c-1.8-1-3.8-1.5-5.8-1.6C11.3,8.7,10.6,9.3,10,10L11.1,11.1L11.1,11.1z"/>
			<path class="st0" d="M6.8,17.5l11.9,4.6c0.1-0.2,0.2-0.4,0.3-0.6c-0.3-0.3-0.6-0.5-0.9-0.8c-2.1-2-3.9-4.2-5.2-6.5l-0.4-0.6
				c-2.1-0.2-4.1,0.1-6,0.7c-0.5,0.8-0.9,1.7-1.3,2.5L6.8,17.5L6.8,17.5z"/>
			<path class="st0" d="M5.3,25.1L18,24.8c0-0.2,0-0.4,0.1-0.6c-0.4-0.1-0.7-0.3-1.1-0.4c-2.7-1-5.2-2.4-7.3-4l-0.6-0.4
				c-2,0.6-3.8,1.6-5.3,3c-0.1,0.9-0.2,1.9-0.2,2.8h1.8L5.3,25.1z"/>
			<path class="st1" d="M39.1,11.1l-8.8,9.3c0.1,0.1,0.3,0.3,0.4,0.5c0.4-0.2,0.8-0.4,1.2-0.6c2.6-1.2,5.4-2,7.9-2.3l0.7-0.1
				c1-1.8,1.5-3.8,1.6-5.9c-0.6-0.7-1.2-1.5-1.9-2.1L39.1,11.1L39.1,11.1z"/>
			<path class="st0" d="M25.4,18.1c0.2,0,0.4,0,0.6,0.1c0.1-0.4,0.3-0.8,0.4-1.2c1-2.7,2.4-5.2,4-7.3l0.5-0.6c-0.6-2-1.6-3.8-3-5.3
				c-0.9-0.1-1.9-0.2-2.8-0.2V6L25.4,18.1z"/>
			<path class="st1" d="M28.1,18.8c0.2,0.1,0.4,0.2,0.5,0.3c0.3-0.3,0.6-0.6,0.9-0.9c2-2.1,4.2-3.9,6.4-5.2l0.7-0.4
				c0.2-2.1-0.1-4.1-0.7-6c-0.8-0.5-1.7-0.9-2.5-1.3l-0.8,1.9L28.1,18.8z"/>
			<path class="st0" d="M43.4,17.6l-11.7,5.2c0.1,0.2,0.1,0.4,0.2,0.6c0.4,0,0.9-0.1,1.3-0.1c2.9-0.1,5.7,0.2,8.2,0.9l0.7,0.2
				c1.6-1.3,2.9-3,3.8-4.8c-0.2-0.9-0.5-1.8-0.9-2.7L43.4,17.6L43.4,17.6z"/>
			<path class="st0" d="M27.5,31.7c-0.2,0.1-0.4,0.1-0.6,0.2c0,0.4,0.1,0.8,0.1,1.3c0.1,2.9-0.2,5.7-0.9,8.2l-0.2,0.7
				c1.3,1.6,3,2.8,4.8,3.7c0.9-0.2,1.8-0.5,2.7-0.9L32.5,43L27.5,31.7z"/>
			<path class="st0" d="M39.1,39.1l-9.3-8.9c-0.1,0.1-0.3,0.3-0.5,0.4c0.2,0.4,0.4,0.8,0.6,1.2c1.2,2.6,2,5.4,2.3,7.9l0.1,0.7
				c1.8,1,3.8,1.5,5.8,1.6c0.7-0.6,1.5-1.2,2.1-1.9L39.1,39.1L39.1,39.1z"/>
			<path class="st0" d="M43.4,32.7l-12-4.6c-0.1,0.2-0.2,0.4-0.3,0.5c0.3,0.3,0.7,0.6,1,0.9c2.1,2,3.9,4.2,5.2,6.5l0.4,0.6
				c2.1,0.2,4.1-0.1,6-0.7c0.5-0.8,0.9-1.7,1.3-2.5L43.4,32.7L43.4,32.7z"/>
			<path class="st0" d="M44.7,25.1l0.1,0L32,25.5c0,0.2,0,0.4-0.1,0.6c0.4,0.1,0.8,0.3,1.3,0.4c2.7,1,5.2,2.4,7.3,4l0.6,0.4
				c2-0.6,3.8-1.6,5.3-3c0.1-0.9,0.2-1.9,0.2-2.8v0H44.7z"/>
			<path class="st0" d="M22.1,31.5c-0.2-0.1-0.4-0.2-0.6-0.3c-0.3,0.3-0.5,0.6-0.8,0.9c-2,2.1-4.2,3.9-6.4,5.2l-0.7,0.4
				c-0.2,2.1,0.1,4.1,0.7,6c0.8,0.5,1.7,0.9,2.5,1.3l0.8-1.9L22.1,31.5z"/>
			<path class="st0" d="M11.1,39l8.7-9.2c-0.1-0.2-0.3-0.3-0.4-0.5c-0.3,0.2-0.7,0.3-1.1,0.5c-2.6,1.2-5.4,2-7.9,2.3l-0.7,0.1
				c-1,1.8-1.5,3.8-1.6,5.9c0.6,0.7,1.2,1.5,1.9,2.1L11.1,39L11.1,39z"/>
			<path class="st0" d="M6.8,32.6l11.6-5.1c-0.1-0.2-0.1-0.4-0.2-0.6c-0.4,0-0.8,0-1.2,0.1c-0.3,0-0.5,0-0.8,0
				c-2.6,0-5.1-0.3-7.4-0.9l-0.7-0.2c-1.6,1.3-2.9,3-3.8,4.8c0.2,0.9,0.5,1.8,0.9,2.7L6.8,32.6L6.8,32.6z"/>
			<path class="st0" d="M24.8,32.1c-0.2,0-0.4,0-0.6,0c-0.1,0.4-0.3,0.8-0.4,1.2c-1,2.7-2.4,5.2-4,7.3l-0.5,0.6c0.6,2,1.6,3.8,3,5.3
				c0.9,0.1,1.9,0.2,2.8,0.2h0v-2.3L24.8,32.1z"/>
		</g>
		<circle class="st0" cx="25" cy="25.1" r="5.2"/>
		<g>
			<path class="st0" d="M25.1,50.2C11.3,50.2,0,38.9,0,25.1S11.3,0,25.1,0s25.1,11.3,25.1,25.1S38.9,50.2,25.1,50.2z M25.1,1.6
				C12.2,1.6,1.6,12.2,1.6,25.1s10.5,23.5,23.5,23.5C38,48.6,48.6,38,48.6,25.1S38,1.6,25.1,1.6z"/>
		</g>
	</g>
</g>
</svg>
