<svg id="Layer_1_1_" enable-background="new 0 0 64 64" height="512" viewBox="0 0 64 64" width="512" xmlns="http://www.w3.org/2000/svg"><path d="m50.5 33h-8.5v-2h8.5c2.53125 0 4.91504-.98975 6.71289-2.78711 1.79688-1.79687 2.78711-4.18115 2.78711-6.71289 0-5.23828-4.26172-9.5-9.5-9.5h-8.5v-2h8.5c6.34082 0 11.5 5.15869 11.5 11.5 0 3.06641-1.19824 5.95264-3.37305 8.12695-2.17578 2.1753-5.06152 3.37305-8.12695 3.37305z" fill="#223b5a"/><path d="m22 54h-8.5c-3.06543 0-5.95117-1.19775-8.12695-3.37305-2.17481-2.17431-3.37305-5.06054-3.37305-8.12695 0-6.34131 5.15918-11.5 11.5-11.5h8.5v2h-8.5c-5.23828 0-9.5 4.26172-9.5 9.5 0 2.53174.99023 4.91602 2.78711 6.71289 1.79785 1.79736 4.18164 2.78711 6.71289 2.78711h8.5z" fill="#223b5a"/><path d="m42 52h7v2h-7z" fill="#223b5a"/><path d="m21 3h22v16h-22z" fill="#50b6cf"/><path d="m40 40h-22l6-16h22z" fill="#f5a947"/><path d="m21 45h22v16h-22z" fill="#50b6cf"/><path d="m43 51c-4.56042 3.20428-12.61017 5.4538-22 5.85223v4.0636h22z" fill="#3cadc9"/><circle cx="54" cy="53" fill="#e34e4b" r="7"/><path d="m57.63843 47.02824c.64806 1.06121 1.02824 2.30392 1.02824 3.63843 0 3.866-3.134 7-7 7-1.3345 0-2.57722-.38018-3.63843-1.02824 1.22933 2.01318 3.44025 3.36157 5.97176 3.36157 3.86601 0 7-3.13399 7-7 0-2.53151-1.34839-4.74243-3.36157-5.97176z" fill="#de4542"/><path d="m43 9.08417c-4.56042 3.20428-12.61017 5.4538-22 5.85223v4.0636h22z" fill="#3cadc9"/><path d="m44.39642 28.27618c-4.78784 3.92792-13.92651 6.79553-24.82526 7.53406l-1.57116 4.18976h22z" fill="#f09d3a"/><g fill="#223b5a"><path d="m24 6h16v2h-16z"/><path d="m24 10h16v2h-16z"/><path d="m24 14h16v2h-16z"/><path d="m27 27h14v2h-14z"/><path d="m25 31h14v2h-14z"/><path d="m23 35h14v2h-14z"/><path d="m24 48h16v2h-16z"/><path d="m24 52h16v2h-16z"/><path d="m24 56h16v2h-16z"/><path d="m53 56.41406-2.70703-2.70703 1.41406-1.41406 1.29297 1.29297 3.29297-3.29297 1.41406 1.41406z"/></g></svg>