<?xml version="1.0" encoding="iso-8859-1"?>
<!-- Generator: Adobe Illustrator 19.0.0, SVG Export Plug-In . SVG Version: 6.00 Build 0)  -->
<svg version="1.1" id="Capa_1" xmlns="http://www.w3.org/2000/svg" xmlns:xlink="http://www.w3.org/1999/xlink" x="0px" y="0px"
	 viewBox="0 0 512 512" style="enable-background:new 0 0 512 512;" xml:space="preserve">
<g>
	<polygon style="fill:#0095FF;" points="177.47,244.428 162.118,218.646 333.856,115.459 349.208,141.24 	"/>
	<polygon style="fill:#0095FF;" points="332.274,401.58 166.791,317.011 180.326,290.233 345.81,374.803 	"/>
</g>
<g>
	<path style="fill:#00ABE9;" d="M406,0c-49.501,0-90,40.499-90,90c0,49.499,40.499,90,90,90s90-40.501,90-90
		C496,40.499,455.501,0,406,0z"/>
	<path style="fill:#00ABE9;" d="M406,332c-49.501,0-90,40.499-90,90c0,49.499,40.499,90,90,90s90-40.501,90-90
		C496,372.499,455.501,332,406,332z"/>
	<path style="fill:#00ABE9;" d="M106,181c-49.501,0-90,40.499-90,90c0,49.499,40.499,90,90,90s90-40.501,90-90
		C196,221.499,155.501,181,106,181z"/>
</g>
<g>
	<path style="fill:#0095FF;" d="M496,422c0,49.499-40.499,90-90,90V332C455.501,332,496,372.499,496,422z"/>
	<path style="fill:#0095FF;" d="M406,180V0c49.501,0,90,40.499,90,90C496,139.499,455.501,180,406,180z"/>
	<path style="fill:#0095FF;" d="M196,271c0,49.499-40.499,90-90,90V181C155.501,181,196,221.499,196,271z"/>
</g>
<g>
</g>
<g>
</g>
<g>
</g>
<g>
</g>
<g>
</g>
<g>
</g>
<g>
</g>
<g>
</g>
<g>
</g>
<g>
</g>
<g>
</g>
<g>
</g>
<g>
</g>
<g>
</g>
<g>
</g>
</svg>
