<?xml version="1.0" encoding="iso-8859-1"?>
<!-- Generator: Adobe Illustrator 19.0.0, SVG Export Plug-In . SVG Version: 6.00 Build 0)  -->
<svg version="1.1" id="Capa_1" xmlns="http://www.w3.org/2000/svg" xmlns:xlink="http://www.w3.org/1999/xlink" x="0px" y="0px"
	 viewBox="0 0 512 512" style="enable-background:new 0 0 512 512;" xml:space="preserve">
<linearGradient id="SVGID_1_" gradientUnits="userSpaceOnUse" x1="-34.1074" y1="645.4889" x2="-34.1074" y2="621.2139" gradientTransform="matrix(20.48 0 0 -20.48 954.52 13234.4395)">
	<stop  offset="0" style="stop-color:#FF5D3B"/>
	<stop  offset="1" style="stop-color:#FF2D67"/>
</linearGradient>
<path style="fill:url(#SVGID_1_);" d="M367.595,231.014c1.72,3.523,1.27,7.7-1.126,10.772l-143.36,184.32
	c-1.987,2.58-4.997,3.973-8.09,3.973c-1.556,0-3.154-0.369-4.608-1.106c-4.383-2.212-6.574-7.229-5.222-11.96l37.233-130.294H153.6
	c-3.912,0-7.475-2.232-9.196-5.755c-1.72-3.502-1.29-7.701,1.106-10.772l143.36-184.32c3.011-3.871,8.335-5.059,12.718-2.867
	c4.383,2.232,6.554,7.25,5.222,11.96L269.578,225.28H358.4C362.312,225.28,365.875,227.492,367.595,231.014 M256,491.52
	C126.116,491.52,20.48,385.864,20.48,256S126.116,20.48,256,20.48c129.864,0,235.52,105.656,235.52,235.52
	S385.864,491.52,256,491.52 M256,0C114.831,0,0,114.831,0,256c0,141.148,114.831,256,256,256c141.148,0,256-114.852,256-256
	C512,114.831,397.148,0,256,0"/>
<g>
</g>
<g>
</g>
<g>
</g>
<g>
</g>
<g>
</g>
<g>
</g>
<g>
</g>
<g>
</g>
<g>
</g>
<g>
</g>
<g>
</g>
<g>
</g>
<g>
</g>
<g>
</g>
<g>
</g>
</svg>
