<svg id="Capa_1" enable-background="new 0 0 512 512" height="512" viewBox="0 0 512 512" width="512" xmlns="http://www.w3.org/2000/svg"><g><path d="m317 46h-15v60h15 15v-60z" fill="#474f54"/><path d="m317 46h15v60h-15z" fill="#32393f"/><g fill="#dfe7f4"><path d="m60 391h122.835v30h-122.835z"/><path d="m30 331h117.239v30h-117.239z"/><path d="m0 271h137v30h-137z"/><path d="m30 211h117.239v30h-117.239z"/><path d="m60 151h122.835v30h-122.835z"/></g><circle cx="317" cy="286" fill="#ff641a" r="195"/><path d="m512 286c0-107.52-87.48-195-195-195v390c107.52 0 195-87.48 195-195z" fill="#f03800"/><path d="m481.24 271c-7.165-79.021-70.219-142.075-149.24-149.24l-15 14.24-15-14.24c-79.021 7.165-142.075 70.219-149.24 149.24l14.24 15-14.24 15c7.165 79.021 70.219 142.075 149.24 149.24l15-14.24 15 14.24c79.021-7.165 142.075-70.219 149.24-149.24l-14.24-15z" fill="#edf5ff"/><path d="m481.24 301-14.24-15 14.24-15c-7.165-79.021-70.219-142.075-149.24-149.24l-15 14.24v300l15 14.24c79.021-7.165 142.075-70.219 149.24-149.24z" fill="#dfe7f4"/><path d="m182 271h-29.24c-.449 4.948-.76 9.937-.76 15s.311 10.052.76 15h29.24z" fill="#474f54"/><path d="m481.24 271h-29.24v30h29.24c.449-4.948.76-9.937.76-15s-.311-10.052-.76-15z" fill="#32393f"/><path d="m317 236.622-18.501 8.348c-16.099 7.265-26.499 23.364-26.499 41.03 0 24.814 20.186 45 45 45 17.666 0 33.765-10.4 41.03-26.499l48.955-108.486z" fill="#ff641a"/><path d="m358.03 304.501 48.955-108.486-89.985 40.607v94.378c17.666 0 33.765-10.4 41.03-26.499z" fill="#f03800"/><g fill="#474f54"><path d="m302 421v29.24c4.948.449 9.937.76 15 .76s10.052-.311 15-.76v-29.24h-15z"/><path d="m317 121c-5.063 0-10.052.311-15 .76v29.24h15 15v-29.24c-4.948-.449-9.937-.76-15-.76z"/></g><path d="m332 121.76c-4.948-.449-9.937-.76-15-.76v30h15z" fill="#32393f"/><path d="m332 421h-15v30c5.063 0 10.052-.311 15-.76z" fill="#32393f"/><path d="m317 31h-45v30h45 45v-30z" fill="#ff641a"/><path d="m317 31h45v30h-45z" fill="#f03800"/></g></svg>