<?xml version="1.0" encoding="UTF-8"?><svg id="Layer_2" xmlns="http://www.w3.org/2000/svg" xmlns:xlink="http://www.w3.org/1999/xlink" viewBox="0 0 190.55 190.55"><defs><style>.cls-1{fill:url(#linear-gradient);}.cls-2{fill:url(#radial-gradient);stroke:#061827;stroke-miterlimit:10;stroke-width:12px;}</style><radialGradient id="radial-gradient" cx="95.27" cy="95.27" fx="95.27" fy="95.27" r="89.27" gradientUnits="userSpaceOnUse"><stop offset="0" stop-color="#c7ff39"/><stop offset="1" stop-color="#c7ff39"/></radialGradient><linearGradient id="linear-gradient" x1="95.27" y1="44.51" x2="95.27" y2="146.04" gradientUnits="userSpaceOnUse"><stop offset="0" stop-color="#25344a"/><stop offset=".1" stop-color="#18283b"/><stop offset=".24" stop-color="#0d1e2f"/><stop offset=".44" stop-color="#071928"/><stop offset="1" stop-color="#061827"/></linearGradient></defs><g id="Layer_1-2"><rect class="cls-2" x="6" y="6" width="178.55" height="178.55" rx="36" ry="36"/><path class="cls-1" d="m124.57,146.04c-1.98,0-3.74-.69-5.22-2.04-1.54-1.4-2.31-3.3-2.31-5.64v-36.3h-43.66v36.3c0,2.33-.75,4.22-2.23,5.62-1.44,1.37-3.19,2.06-5.18,2.06s-3.74-.69-5.22-2.04c-1.54-1.4-2.31-3.3-2.31-5.64V52.32c0-2.43.78-4.38,2.31-5.78,1.48-1.35,3.24-2.04,5.22-2.04s3.74.69,5.18,2.06c1.48,1.4,2.23,3.34,2.23,5.76v35.34h43.66v-35.34c0-2.44.78-4.38,2.31-5.78,1.49-1.35,3.24-2.04,5.22-2.04s3.74.69,5.22,2.04c1.54,1.4,2.31,3.34,2.31,5.78v86.04c0,2.35-.78,4.24-2.31,5.64-1.48,1.35-3.24,2.04-5.22,2.04Z"/><path d="m124.57,45.01c1.85,0,3.5.64,4.89,1.91,1.43,1.3,2.15,3.12,2.15,5.41v86.04c0,2.2-.72,3.97-2.15,5.27-1.39,1.26-3.03,1.91-4.89,1.91s-3.5-.64-4.89-1.91c-1.43-1.3-2.15-3.07-2.15-5.27v-36.8h-44.66v36.8c0,2.19-.7,3.96-2.07,5.26-1.35,1.28-2.98,1.92-4.84,1.92s-3.5-.64-4.89-1.91c-1.43-1.3-2.15-3.07-2.15-5.27V52.32c0-2.29.72-4.11,2.15-5.41,1.39-1.27,3.03-1.91,4.89-1.91s3.49.65,4.84,1.92c1.37,1.3,2.07,3.12,2.07,5.39v35.84h44.66v-35.84c0-2.29.72-4.11,2.15-5.41,1.39-1.27,3.03-1.91,4.89-1.91m0-1c-2.11,0-3.98.73-5.56,2.17-1.64,1.5-2.48,3.57-2.48,6.15v34.84h-42.66v-34.84c0-2.56-.8-4.62-2.38-6.12-1.54-1.46-3.4-2.2-5.53-2.2s-3.98.73-5.56,2.17c-1.64,1.5-2.48,3.57-2.48,6.15v86.04c0,2.49.83,4.52,2.48,6.01,1.58,1.44,3.45,2.17,5.56,2.17s3.99-.74,5.53-2.2c1.58-1.5,2.38-3.51,2.38-5.98v-35.8h42.66v35.8c0,2.49.83,4.52,2.48,6.01,1.58,1.44,3.45,2.17,5.56,2.17s3.98-.73,5.56-2.17c1.64-1.5,2.48-3.52,2.48-6.01V52.32c0-2.58-.83-4.65-2.48-6.15-1.58-1.44-3.45-2.17-5.56-2.17h0Z"/></g></svg>